solid OpenSCAD_Model
  facet normal 0.187375 -0.982288 0
    outer loop
      vertex 62.1884 -2.99408 -3
      vertex 62.9271 -2.85317 23.5
      vertex 62.1884 -2.99408 23.5
    endloop
  endfacet
  facet normal 0.187375 -0.982288 0
    outer loop
      vertex 62.9271 -2.85317 23.5
      vertex 62.1884 -2.99408 -3
      vertex 62.9271 -2.85317 -3
    endloop
  endfacet
  facet normal -0.968587 0.248676 0
    outer loop
      vertex -2.97634 25.376 -3
      vertex -2.78933 26.1044 23.5
      vertex -2.78933 26.1044 -3
    endloop
  endfacet
  facet normal -0.968587 0.248676 0
    outer loop
      vertex -2.78933 26.1044 23.5
      vertex -2.97634 25.376 -3
      vertex -2.97634 25.376 23.5
    endloop
  endfacet
  facet normal -0.0627662 0.998028 0
    outer loop
      vertex 0.188371 27.9941 -3
      vertex -0.562143 27.9469 23.5
      vertex 0.188371 27.9941 23.5
    endloop
  endfacet
  facet normal -0.0627662 0.998028 0
    outer loop
      vertex -0.562143 27.9469 23.5
      vertex 0.188371 27.9941 -3
      vertex -0.562143 27.9469 -3
    endloop
  endfacet
  facet normal 0.42581 0.904813 -0
    outer loop
      vertex 63.6075 27.533 -3
      vertex 62.9271 27.8532 23.5
      vertex 63.6075 27.533 23.5
    endloop
  endfacet
  facet normal 0.42581 0.904813 0
    outer loop
      vertex 62.9271 27.8532 23.5
      vertex 63.6075 27.533 -3
      vertex 62.9271 27.8532 -3
    endloop
  endfacet
  facet normal 0 1 -0
    outer loop
      vertex 62.1884 27.9941 -3
      vertex 0.188371 27.9941 23.5
      vertex 62.1884 27.9941 23.5
    endloop
  endfacet
  facet normal 0 1 0
    outer loop
      vertex 0.188371 27.9941 23.5
      vertex 62.1884 27.9941 -3
      vertex 0.188371 27.9941 -3
    endloop
  endfacet
  facet normal -0.728916 0.684604 0
    outer loop
      vertex -2.42705 26.7634 -3
      vertex -1.91227 27.3115 23.5
      vertex -1.91227 27.3115 -3
    endloop
  endfacet
  facet normal -0.728916 0.684604 0
    outer loop
      vertex -1.91227 27.3115 23.5
      vertex -2.42705 26.7634 -3
      vertex -2.42705 26.7634 23.5
    endloop
  endfacet
  facet normal -0.0627927 -0.998027 0
    outer loop
      vertex -0.562143 -2.94686 -3
      vertex 0.188371 -2.99408 23.5
      vertex -0.562143 -2.94686 23.5
    endloop
  endfacet
  facet normal -0.0627927 -0.998027 -0
    outer loop
      vertex 0.188371 -2.99408 23.5
      vertex -0.562143 -2.94686 -3
      vertex 0.188371 -2.99408 -3
    endloop
  endfacet
  facet normal -0.535885 0.844291 0
    outer loop
      vertex -1.27734 27.7145 -3
      vertex -1.91227 27.3115 23.5
      vertex -1.27734 27.7145 23.5
    endloop
  endfacet
  facet normal -0.535885 0.844291 0
    outer loop
      vertex -1.91227 27.3115 23.5
      vertex -1.27734 27.7145 -3
      vertex -1.91227 27.3115 -3
    endloop
  endfacet
  facet normal 0.808989 0.587824 0
    outer loop
      vertex 64.6289 26.4453 23.5
      vertex 64.1869 27.0536 -3
      vertex 64.1869 27.0536 23.5
    endloop
  endfacet
  facet normal 0.808989 0.587824 0
    outer loop
      vertex 64.1869 27.0536 -3
      vertex 64.6289 26.4453 23.5
      vertex 64.6289 26.4453 -3
    endloop
  endfacet
  facet normal 0.992107 -0.125398 0
    outer loop
      vertex 64.9057 -0.746069 23.5
      vertex 65 0 -3
      vertex 65 0 23.5
    endloop
  endfacet
  facet normal 0.992107 -0.125398 0
    outer loop
      vertex 65 0 -3
      vertex 64.9057 -0.746069 23.5
      vertex 64.9057 -0.746069 -3
    endloop
  endfacet
  facet normal 1 -0 0
    outer loop
      vertex 65 0 23.5
      vertex 65 25 -3
      vertex 65 25 23.5
    endloop
  endfacet
  facet normal 1 0 0
    outer loop
      vertex 65 25 -3
      vertex 65 0 23.5
      vertex 65 0 -3
    endloop
  endfacet
  facet normal 0.425799 -0.904818 0
    outer loop
      vertex 62.9271 -2.85317 -3
      vertex 63.6075 -2.53298 23.5
      vertex 62.9271 -2.85317 23.5
    endloop
  endfacet
  facet normal 0.425799 -0.904818 0
    outer loop
      vertex 63.6075 -2.53298 23.5
      vertex 62.9271 -2.85317 -3
      vertex 63.6075 -2.53298 -3
    endloop
  endfacet
  facet normal 0 -1 0
    outer loop
      vertex 0.188371 -2.99408 -3
      vertex 62.1884 -2.99408 23.5
      vertex 0.188371 -2.99408 23.5
    endloop
  endfacet
  facet normal 0 -1 -0
    outer loop
      vertex 62.1884 -2.99408 23.5
      vertex 0.188371 -2.99408 -3
      vertex 62.1884 -2.99408 -3
    endloop
  endfacet
  facet normal -0.876311 0.481745 0
    outer loop
      vertex -2.78933 26.1044 -3
      vertex -2.42705 26.7634 23.5
      vertex -2.42705 26.7634 -3
    endloop
  endfacet
  facet normal -0.876311 0.481745 0
    outer loop
      vertex -2.42705 26.7634 23.5
      vertex -2.78933 26.1044 -3
      vertex -2.78933 26.1044 23.5
    endloop
  endfacet
  facet normal -0.876308 -0.481751 0
    outer loop
      vertex -2.42705 -1.76336 -3
      vertex -2.78933 -1.10437 23.5
      vertex -2.78933 -1.10437 -3
    endloop
  endfacet
  facet normal -0.876308 -0.481751 0
    outer loop
      vertex -2.78933 -1.10437 23.5
      vertex -2.42705 -1.76336 -3
      vertex -2.42705 -1.76336 23.5
    endloop
  endfacet
  facet normal -0.968584 -0.248685 0
    outer loop
      vertex -2.78933 -1.10437 -3
      vertex -2.97634 -0.375999 23.5
      vertex -2.97634 -0.375999 -3
    endloop
  endfacet
  facet normal -0.968584 -0.248685 0
    outer loop
      vertex -2.97634 -0.375999 23.5
      vertex -2.78933 -1.10437 -3
      vertex -2.78933 -1.10437 23.5
    endloop
  endfacet
  facet normal 0.809026 -0.587773 0
    outer loop
      vertex 64.1869 -2.05364 23.5
      vertex 64.6289 -1.44526 -3
      vertex 64.6289 -1.44526 23.5
    endloop
  endfacet
  facet normal 0.809026 -0.587773 0
    outer loop
      vertex 64.6289 -1.44526 -3
      vertex 64.1869 -2.05364 23.5
      vertex 64.1869 -2.05364 -3
    endloop
  endfacet
  facet normal -1 0 0
    outer loop
      vertex -2.97634 -0.375999 -3
      vertex -2.97634 25.376 23.5
      vertex -2.97634 25.376 -3
    endloop
  endfacet
  facet normal -1 -0 0
    outer loop
      vertex -2.97634 25.376 23.5
      vertex -2.97634 -0.375999 -3
      vertex -2.97634 -0.375999 23.5
    endloop
  endfacet
  facet normal 0.92979 -0.368091 0
    outer loop
      vertex 64.6289 -1.44526 23.5
      vertex 64.9057 -0.746069 -3
      vertex 64.9057 -0.746069 23.5
    endloop
  endfacet
  facet normal 0.92979 -0.368091 0
    outer loop
      vertex 64.9057 -0.746069 -3
      vertex 64.6289 -1.44526 23.5
      vertex 64.6289 -1.44526 -3
    endloop
  endfacet
  facet normal -0.309015 -0.951057 0
    outer loop
      vertex -1.27734 -2.71448 -3
      vertex -0.562143 -2.94686 23.5
      vertex -1.27734 -2.71448 23.5
    endloop
  endfacet
  facet normal -0.309015 -0.951057 -0
    outer loop
      vertex -0.562143 -2.94686 23.5
      vertex -1.27734 -2.71448 -3
      vertex -0.562143 -2.94686 -3
    endloop
  endfacet
  facet normal -0.728965 -0.68455 0
    outer loop
      vertex -1.91227 -2.31154 -3
      vertex -2.42705 -1.76336 23.5
      vertex -2.42705 -1.76336 -3
    endloop
  endfacet
  facet normal -0.728965 -0.68455 0
    outer loop
      vertex -2.42705 -1.76336 23.5
      vertex -1.91227 -2.31154 -3
      vertex -1.91227 -2.31154 23.5
    endloop
  endfacet
  facet normal 0.992107 0.125393 0
    outer loop
      vertex 65 25 23.5
      vertex 64.9057 25.7461 -3
      vertex 64.9057 25.7461 23.5
    endloop
  endfacet
  facet normal 0.992107 0.125393 0
    outer loop
      vertex 64.9057 25.7461 -3
      vertex 65 25 23.5
      vertex 65 25 -3
    endloop
  endfacet
  facet normal 0.929791 0.368087 0
    outer loop
      vertex 64.9057 25.7461 23.5
      vertex 64.6289 26.4453 -3
      vertex 64.6289 26.4453 23.5
    endloop
  endfacet
  facet normal 0.929791 0.368087 0
    outer loop
      vertex 64.6289 26.4453 -3
      vertex 64.9057 25.7461 23.5
      vertex 64.9057 25.7461 -3
    endloop
  endfacet
  facet normal 0.637439 -0.770501 0
    outer loop
      vertex 63.6075 -2.53298 -3
      vertex 64.1869 -2.05364 23.5
      vertex 63.6075 -2.53298 23.5
    endloop
  endfacet
  facet normal 0.637439 -0.770501 0
    outer loop
      vertex 64.1869 -2.05364 23.5
      vertex 63.6075 -2.53298 -3
      vertex 64.1869 -2.05364 -3
    endloop
  endfacet
  facet normal 0 0 1
    outer loop
      vertex 62 25 23.5
      vertex 65 25 23.5
      vertex 64.9057 25.7461 23.5
    endloop
  endfacet
  facet normal 0 0 1
    outer loop
      vertex 65 25 23.5
      vertex 62 25 23.5
      vertex 65 0 23.5
    endloop
  endfacet
  facet normal 0 0 1
    outer loop
      vertex 62 25 23.5
      vertex 64.9057 25.7461 23.5
      vertex 64.6289 26.4453 23.5
    endloop
  endfacet
  facet normal 0 0 1
    outer loop
      vertex 62 0 23.5
      vertex 65 0 23.5
      vertex 62 25 23.5
    endloop
  endfacet
  facet normal 0 0 1
    outer loop
      vertex 62 25 23.5
      vertex 64.6289 26.4453 23.5
      vertex 64.1869 27.0536 23.5
    endloop
  endfacet
  facet normal 0 0 1
    outer loop
      vertex 65 0 23.5
      vertex 62 0 23.5
      vertex 64.9057 -0.746069 23.5
    endloop
  endfacet
  facet normal 0 0 1
    outer loop
      vertex 62 25 23.5
      vertex 64.1869 27.0536 23.5
      vertex 63.6075 27.533 23.5
    endloop
  endfacet
  facet normal 0 0 1
    outer loop
      vertex 64.9057 -0.746069 23.5
      vertex 62 0 23.5
      vertex 64.6289 -1.44526 23.5
    endloop
  endfacet
  facet normal 0 0 1
    outer loop
      vertex 62 25 23.5
      vertex 63.6075 27.533 23.5
      vertex 62.9271 27.8532 23.5
    endloop
  endfacet
  facet normal 0 0 1
    outer loop
      vertex 64.6289 -1.44526 23.5
      vertex 62 0 23.5
      vertex 64.1869 -2.05364 23.5
    endloop
  endfacet
  facet normal 0 0 1
    outer loop
      vertex 62 25 23.5
      vertex 62.9271 27.8532 23.5
      vertex 62.1884 27.9941 23.5
    endloop
  endfacet
  facet normal 0 0 1
    outer loop
      vertex 64.1869 -2.05364 23.5
      vertex 62 0 23.5
      vertex 63.6075 -2.53298 23.5
    endloop
  endfacet
  facet normal 0 0 1
    outer loop
      vertex 63.6075 -2.53298 23.5
      vertex 62 0 23.5
      vertex 62.9271 -2.85317 23.5
    endloop
  endfacet
  facet normal -0 0 1
    outer loop
      vertex 0.188371 27.9941 23.5
      vertex 62 25 23.5
      vertex 62.1884 27.9941 23.5
    endloop
  endfacet
  facet normal 0 0 1
    outer loop
      vertex 0.188371 27.9941 23.5
      vertex 0 25 23.5
      vertex 62 25 23.5
    endloop
  endfacet
  facet normal -0 0 1
    outer loop
      vertex -1.27734 27.7145 23.5
      vertex 0 25 23.5
      vertex -0.562143 27.9469 23.5
    endloop
  endfacet
  facet normal -0 0 1
    outer loop
      vertex -0.562143 27.9469 23.5
      vertex 0 25 23.5
      vertex 0.188371 27.9941 23.5
    endloop
  endfacet
  facet normal 0 0 1
    outer loop
      vertex 62.9271 -2.85317 23.5
      vertex 62 0 23.5
      vertex 62.1884 -2.99408 23.5
    endloop
  endfacet
  facet normal 0 0 1
    outer loop
      vertex 62 0 23.5
      vertex 0.188371 -2.99408 23.5
      vertex 62.1884 -2.99408 23.5
    endloop
  endfacet
  facet normal -0 0 1
    outer loop
      vertex 0 0 23.5
      vertex 0.188371 -2.99408 23.5
      vertex 62 0 23.5
    endloop
  endfacet
  facet normal 0 0 1
    outer loop
      vertex 0 0 23.5
      vertex -0.562143 -2.94686 23.5
      vertex 0.188371 -2.99408 23.5
    endloop
  endfacet
  facet normal 0 0 1
    outer loop
      vertex 0 25 23.5
      vertex -2.97634 25.376 23.5
      vertex 0 0 23.5
    endloop
  endfacet
  facet normal -0 0 1
    outer loop
      vertex -1.91227 27.3115 23.5
      vertex 0 25 23.5
      vertex -1.27734 27.7145 23.5
    endloop
  endfacet
  facet normal 0 0 1
    outer loop
      vertex -2.97634 -0.375999 23.5
      vertex 0 0 23.5
      vertex -2.97634 25.376 23.5
    endloop
  endfacet
  facet normal -0 0 1
    outer loop
      vertex -2.42705 26.7634 23.5
      vertex 0 25 23.5
      vertex -1.91227 27.3115 23.5
    endloop
  endfacet
  facet normal 0 -0 1
    outer loop
      vertex -2.78933 -1.10437 23.5
      vertex 0 0 23.5
      vertex -2.97634 -0.375999 23.5
    endloop
  endfacet
  facet normal -0 0 1
    outer loop
      vertex -2.78933 26.1044 23.5
      vertex 0 25 23.5
      vertex -2.42705 26.7634 23.5
    endloop
  endfacet
  facet normal 0 0 1
    outer loop
      vertex 0 0 23.5
      vertex -1.27734 -2.71448 23.5
      vertex -0.562143 -2.94686 23.5
    endloop
  endfacet
  facet normal 0 0 1
    outer loop
      vertex 0 25 23.5
      vertex -2.78933 26.1044 23.5
      vertex -2.97634 25.376 23.5
    endloop
  endfacet
  facet normal 0 0 1
    outer loop
      vertex 0 0 23.5
      vertex -1.91227 -2.31154 23.5
      vertex -1.27734 -2.71448 23.5
    endloop
  endfacet
  facet normal 0 0 1
    outer loop
      vertex 0 0 23.5
      vertex -2.42705 -1.76336 23.5
      vertex -1.91227 -2.31154 23.5
    endloop
  endfacet
  facet normal 0 0 1
    outer loop
      vertex 0 0 23.5
      vertex -2.78933 -1.10437 23.5
      vertex -2.42705 -1.76336 23.5
    endloop
  endfacet
  facet normal -0.309039 0.951049 0
    outer loop
      vertex -0.562143 27.9469 -3
      vertex -1.27734 27.7145 23.5
      vertex -0.562143 27.9469 23.5
    endloop
  endfacet
  facet normal -0.309039 0.951049 0
    outer loop
      vertex -1.27734 27.7145 23.5
      vertex -0.562143 27.9469 -3
      vertex -1.27734 27.7145 -3
    endloop
  endfacet
  facet normal 0.187363 0.982291 -0
    outer loop
      vertex 62.9271 27.8532 -3
      vertex 62.1884 27.9941 23.5
      vertex 62.9271 27.8532 23.5
    endloop
  endfacet
  facet normal 0.187363 0.982291 0
    outer loop
      vertex 62.1884 27.9941 23.5
      vertex 62.9271 27.8532 -3
      vertex 62.1884 27.9941 -3
    endloop
  endfacet
  facet normal -0.535828 -0.844327 0
    outer loop
      vertex -1.91227 -2.31154 -3
      vertex -1.27734 -2.71448 23.5
      vertex -1.91227 -2.31154 23.5
    endloop
  endfacet
  facet normal -0.535828 -0.844327 -0
    outer loop
      vertex -1.27734 -2.71448 23.5
      vertex -1.91227 -2.31154 -3
      vertex -1.27734 -2.71448 -3
    endloop
  endfacet
  facet normal 0.637486 0.770462 -0
    outer loop
      vertex 64.1869 27.0536 -3
      vertex 63.6075 27.533 23.5
      vertex 64.1869 27.0536 23.5
    endloop
  endfacet
  facet normal 0.637486 0.770462 0
    outer loop
      vertex 63.6075 27.533 23.5
      vertex 64.1869 27.0536 -3
      vertex 63.6075 27.533 -3
    endloop
  endfacet
  facet normal 0 0 -1
    outer loop
      vertex 62.1884 -2.99408 -3
      vertex 65 0 -3
      vertex 64.9057 -0.746069 -3
    endloop
  endfacet
  facet normal 0 0 -1
    outer loop
      vertex 65 0 -3
      vertex 53.0939 12.8054 -3
      vertex 65 25 -3
    endloop
  endfacet
  facet normal 0 0 -1
    outer loop
      vertex 62.1884 -2.99408 -3
      vertex 64.9057 -0.746069 -3
      vertex 64.6289 -1.44526 -3
    endloop
  endfacet
  facet normal 0 0 -1
    outer loop
      vertex 53.0451 13.5809 -3
      vertex 65 25 -3
      vertex 53.0939 12.8054 -3
    endloop
  endfacet
  facet normal 0 0 -1
    outer loop
      vertex 62.1884 -2.99408 -3
      vertex 64.6289 -1.44526 -3
      vertex 64.1869 -2.05364 -3
    endloop
  endfacet
  facet normal 0 0 -1
    outer loop
      vertex 52.805 14.3199 -3
      vertex 65 25 -3
      vertex 53.0451 13.5809 -3
    endloop
  endfacet
  facet normal 0 0 -1
    outer loop
      vertex 62.1884 -2.99408 -3
      vertex 64.1869 -2.05364 -3
      vertex 63.6075 -2.53298 -3
    endloop
  endfacet
  facet normal 0 0 -1
    outer loop
      vertex 52.3886 14.976 -3
      vertex 65 25 -3
      vertex 52.805 14.3199 -3
    endloop
  endfacet
  facet normal 0 0 -1
    outer loop
      vertex 62.1884 -2.99408 -3
      vertex 63.6075 -2.53298 -3
      vertex 62.9271 -2.85317 -3
    endloop
  endfacet
  facet normal 0 -0 -1
    outer loop
      vertex 62.1884 27.9941 -3
      vertex 65 25 -3
      vertex 52.3886 14.976 -3
    endloop
  endfacet
  facet normal -0 0 -1
    outer loop
      vertex 65 0 -3
      vertex 62.1884 -2.99408 -3
      vertex 52.1221 10.7402 -3
    endloop
  endfacet
  facet normal 0 0 -1
    outer loop
      vertex 65 25 -3
      vertex 62.1884 27.9941 -3
      vertex 64.9057 25.7461 -3
    endloop
  endfacet
  facet normal 0 0 -1
    outer loop
      vertex 64.9057 25.7461 -3
      vertex 62.1884 27.9941 -3
      vertex 64.6289 26.4453 -3
    endloop
  endfacet
  facet normal 0 0 -1
    outer loop
      vertex 65 0 -3
      vertex 52.9483 12.042 -3
      vertex 53.0939 12.8054 -3
    endloop
  endfacet
  facet normal 0 0 -1
    outer loop
      vertex 65 0 -3
      vertex 52.6174 11.3389 -3
      vertex 52.9483 12.042 -3
    endloop
  endfacet
  facet normal 0 0 -1
    outer loop
      vertex 65 0 -3
      vertex 52.1221 10.7402 -3
      vertex 52.6174 11.3389 -3
    endloop
  endfacet
  facet normal 0 0 -1
    outer loop
      vertex 62.1884 -2.99408 -3
      vertex 51.4934 10.2835 -3
      vertex 52.1221 10.7402 -3
    endloop
  endfacet
  facet normal 0 0 -1
    outer loop
      vertex 62.1884 -2.99408 -3
      vertex 50.7709 9.99739 -3
      vertex 51.4934 10.2835 -3
    endloop
  endfacet
  facet normal 0 0 -1
    outer loop
      vertex 62.1884 -2.99408 -3
      vertex 50 9.9 -3
      vertex 50.7709 9.99739 -3
    endloop
  endfacet
  facet normal 0 0 -1
    outer loop
      vertex 62.1884 -2.99408 -3
      vertex 49.2291 9.99739 -3
      vertex 50 9.9 -3
    endloop
  endfacet
  facet normal 0 0 -1
    outer loop
      vertex 62.1884 -2.99408 -3
      vertex 48.5066 10.2835 -3
      vertex 49.2291 9.99739 -3
    endloop
  endfacet
  facet normal 0 0 -1
    outer loop
      vertex 0.188371 -2.99408 -3
      vertex 48.5066 10.2835 -3
      vertex 62.1884 -2.99408 -3
    endloop
  endfacet
  facet normal 0 0 -1
    outer loop
      vertex 47.0517 12.042 -3
      vertex 15.0939 12.8054 -3
      vertex 46.9061 12.8054 -3
    endloop
  endfacet
  facet normal 0 0 -1
    outer loop
      vertex 14.9483 12.042 -3
      vertex 47.0517 12.042 -3
      vertex 47.3826 11.3389 -3
    endloop
  endfacet
  facet normal 0 0 -1
    outer loop
      vertex 14.6174 11.3389 -3
      vertex 47.3826 11.3389 -3
      vertex 47.8779 10.7402 -3
    endloop
  endfacet
  facet normal 0 0 -1
    outer loop
      vertex 48.5066 10.2835 -3
      vertex 13.4934 10.2835 -3
      vertex 47.8779 10.7402 -3
    endloop
  endfacet
  facet normal 0 0 -1
    outer loop
      vertex 47.0517 12.042 -3
      vertex 14.9483 12.042 -3
      vertex 15.0939 12.8054 -3
    endloop
  endfacet
  facet normal 0 0 -1
    outer loop
      vertex 47.3826 11.3389 -3
      vertex 14.6174 11.3389 -3
      vertex 14.9483 12.042 -3
    endloop
  endfacet
  facet normal 0 0 -1
    outer loop
      vertex 47.8779 10.7402 -3
      vertex 14.1221 10.7402 -3
      vertex 14.6174 11.3389 -3
    endloop
  endfacet
  facet normal -0 0 -1
    outer loop
      vertex 47.8779 10.7402 -3
      vertex 13.4934 10.2835 -3
      vertex 14.1221 10.7402 -3
    endloop
  endfacet
  facet normal -0 0 -1
    outer loop
      vertex 48.5066 10.2835 -3
      vertex 0.188371 -2.99408 -3
      vertex 13.4934 10.2835 -3
    endloop
  endfacet
  facet normal 0 0 -1
    outer loop
      vertex 13.4934 10.2835 -3
      vertex 0.188371 -2.99408 -3
      vertex 12.7709 9.99739 -3
    endloop
  endfacet
  facet normal 0 0 -1
    outer loop
      vertex 12.7709 9.99739 -3
      vertex 0.188371 -2.99408 -3
      vertex 12 9.9 -3
    endloop
  endfacet
  facet normal -0 0 -1
    outer loop
      vertex 9.38258 11.3389 -3
      vertex -2.97634 -0.375999 -3
      vertex 9.05173 12.042 -3
    endloop
  endfacet
  facet normal -0 0 -1
    outer loop
      vertex 9.8779 10.7402 -3
      vertex -2.97634 -0.375999 -3
      vertex 9.38258 11.3389 -3
    endloop
  endfacet
  facet normal 0 0 -1
    outer loop
      vertex -2.97634 -0.375999 -3
      vertex 9.8779 10.7402 -3
      vertex 0.188371 -2.99408 -3
    endloop
  endfacet
  facet normal -0 0 -1
    outer loop
      vertex 10.5066 10.2835 -3
      vertex 0.188371 -2.99408 -3
      vertex 9.8779 10.7402 -3
    endloop
  endfacet
  facet normal -0 0 -1
    outer loop
      vertex 11.2291 9.99739 -3
      vertex 0.188371 -2.99408 -3
      vertex 10.5066 10.2835 -3
    endloop
  endfacet
  facet normal -0 0 -1
    outer loop
      vertex 12 9.9 -3
      vertex 0.188371 -2.99408 -3
      vertex 11.2291 9.99739 -3
    endloop
  endfacet
  facet normal 0 0 -1
    outer loop
      vertex 64.1869 27.0536 -3
      vertex 62.1884 27.9941 -3
      vertex 63.6075 27.533 -3
    endloop
  endfacet
  facet normal 0 0 -1
    outer loop
      vertex 63.6075 27.533 -3
      vertex 62.1884 27.9941 -3
      vertex 62.9271 27.8532 -3
    endloop
  endfacet
  facet normal 0 0 -1
    outer loop
      vertex 64.6289 26.4453 -3
      vertex 62.1884 27.9941 -3
      vertex 64.1869 27.0536 -3
    endloop
  endfacet
  facet normal 0 0 -1
    outer loop
      vertex 51.8221 15.508 -3
      vertex 62.1884 27.9941 -3
      vertex 52.3886 14.976 -3
    endloop
  endfacet
  facet normal 0 0 -1
    outer loop
      vertex 51.1412 15.8823 -3
      vertex 62.1884 27.9941 -3
      vertex 51.8221 15.508 -3
    endloop
  endfacet
  facet normal 0 0 -1
    outer loop
      vertex 50.3885 16.0756 -3
      vertex 62.1884 27.9941 -3
      vertex 51.1412 15.8823 -3
    endloop
  endfacet
  facet normal 0 0 -1
    outer loop
      vertex 49.6115 16.0756 -3
      vertex 62.1884 27.9941 -3
      vertex 50.3885 16.0756 -3
    endloop
  endfacet
  facet normal 0 0 -1
    outer loop
      vertex 48.8588 15.8823 -3
      vertex 62.1884 27.9941 -3
      vertex 49.6115 16.0756 -3
    endloop
  endfacet
  facet normal 0 0 -1
    outer loop
      vertex 0.188371 27.9941 -3
      vertex 48.8588 15.8823 -3
      vertex 48.1779 15.508 -3
    endloop
  endfacet
  facet normal 0 0 -1
    outer loop
      vertex 15.0939 12.8054 -3
      vertex 46.9549 13.5809 -3
      vertex 46.9061 12.8054 -3
    endloop
  endfacet
  facet normal 0 0 -1
    outer loop
      vertex 15.0451 13.5809 -3
      vertex 46.9549 13.5809 -3
      vertex 15.0939 12.8054 -3
    endloop
  endfacet
  facet normal 0 0 -1
    outer loop
      vertex 46.9549 13.5809 -3
      vertex 15.0451 13.5809 -3
      vertex 47.195 14.3199 -3
    endloop
  endfacet
  facet normal 0 0 -1
    outer loop
      vertex 14.805 14.3199 -3
      vertex 47.195 14.3199 -3
      vertex 15.0451 13.5809 -3
    endloop
  endfacet
  facet normal 0 0 -1
    outer loop
      vertex 47.195 14.3199 -3
      vertex 14.805 14.3199 -3
      vertex 47.6114 14.976 -3
    endloop
  endfacet
  facet normal 0 0 -1
    outer loop
      vertex 14.3886 14.976 -3
      vertex 47.6114 14.976 -3
      vertex 14.805 14.3199 -3
    endloop
  endfacet
  facet normal 0 0 -1
    outer loop
      vertex 47.6114 14.976 -3
      vertex 14.3886 14.976 -3
      vertex 48.1779 15.508 -3
    endloop
  endfacet
  facet normal 0 0 -1
    outer loop
      vertex 13.8221 15.508 -3
      vertex 48.1779 15.508 -3
      vertex 14.3886 14.976 -3
    endloop
  endfacet
  facet normal 0 0 -1
    outer loop
      vertex 13.1412 15.8823 -3
      vertex 48.1779 15.508 -3
      vertex 13.8221 15.508 -3
    endloop
  endfacet
  facet normal 0 0 -1
    outer loop
      vertex 0.188371 27.9941 -3
      vertex 48.1779 15.508 -3
      vertex 13.1412 15.8823 -3
    endloop
  endfacet
  facet normal 0 0 -1
    outer loop
      vertex 0.188371 27.9941 -3
      vertex 13.1412 15.8823 -3
      vertex 12.3885 16.0756 -3
    endloop
  endfacet
  facet normal 0 0 -1
    outer loop
      vertex 0.188371 27.9941 -3
      vertex 12.3885 16.0756 -3
      vertex 11.6115 16.0756 -3
    endloop
  endfacet
  facet normal -0 0 -1
    outer loop
      vertex 9.05173 12.042 -3
      vertex -2.97634 -0.375999 -3
      vertex 8.90612 12.8054 -3
    endloop
  endfacet
  facet normal 0 0 -1
    outer loop
      vertex -2.97634 25.376 -3
      vertex 8.90612 12.8054 -3
      vertex -2.97634 -0.375999 -3
    endloop
  endfacet
  facet normal 0 0 -1
    outer loop
      vertex 48.8588 15.8823 -3
      vertex 0.188371 27.9941 -3
      vertex 62.1884 27.9941 -3
    endloop
  endfacet
  facet normal 0 0 -1
    outer loop
      vertex 10.8588 15.8823 -3
      vertex 0.188371 27.9941 -3
      vertex 11.6115 16.0756 -3
    endloop
  endfacet
  facet normal 0 0 -1
    outer loop
      vertex 10.1779 15.508 -3
      vertex 0.188371 27.9941 -3
      vertex 10.8588 15.8823 -3
    endloop
  endfacet
  facet normal 0 0 -1
    outer loop
      vertex 9.61141 14.976 -3
      vertex 0.188371 27.9941 -3
      vertex 10.1779 15.508 -3
    endloop
  endfacet
  facet normal 0 0 -1
    outer loop
      vertex -2.97634 25.376 -3
      vertex 9.61141 14.976 -3
      vertex 9.19504 14.3199 -3
    endloop
  endfacet
  facet normal 0 0 -1
    outer loop
      vertex 8.90612 12.8054 -3
      vertex -2.97634 25.376 -3
      vertex 8.95491 13.5809 -3
    endloop
  endfacet
  facet normal 0 0 -1
    outer loop
      vertex -2.97634 -0.375999 -3
      vertex 0.188371 -2.99408 -3
      vertex -0.562143 -2.94686 -3
    endloop
  endfacet
  facet normal 0 0 -1
    outer loop
      vertex 8.95491 13.5809 -3
      vertex -2.97634 25.376 -3
      vertex 9.19504 14.3199 -3
    endloop
  endfacet
  facet normal 0 0 -1
    outer loop
      vertex -2.97634 -0.375999 -3
      vertex -0.562143 -2.94686 -3
      vertex -1.27734 -2.71448 -3
    endloop
  endfacet
  facet normal 0 0 -1
    outer loop
      vertex 9.61141 14.976 -3
      vertex -2.97634 25.376 -3
      vertex 0.188371 27.9941 -3
    endloop
  endfacet
  facet normal 0 0 -1
    outer loop
      vertex -2.97634 -0.375999 -3
      vertex -1.27734 -2.71448 -3
      vertex -1.91227 -2.31154 -3
    endloop
  endfacet
  facet normal 0 0 -1
    outer loop
      vertex 0.188371 27.9941 -3
      vertex -2.97634 25.376 -3
      vertex -0.562143 27.9469 -3
    endloop
  endfacet
  facet normal 0 0 -1
    outer loop
      vertex -2.97634 -0.375999 -3
      vertex -1.91227 -2.31154 -3
      vertex -2.42705 -1.76336 -3
    endloop
  endfacet
  facet normal 0 0 -1
    outer loop
      vertex -0.562143 27.9469 -3
      vertex -2.97634 25.376 -3
      vertex -1.27734 27.7145 -3
    endloop
  endfacet
  facet normal 0 0 -1
    outer loop
      vertex -2.97634 -0.375999 -3
      vertex -2.42705 -1.76336 -3
      vertex -2.78933 -1.10437 -3
    endloop
  endfacet
  facet normal 0 0 -1
    outer loop
      vertex -1.27734 27.7145 -3
      vertex -2.97634 25.376 -3
      vertex -1.91227 27.3115 -3
    endloop
  endfacet
  facet normal 0 0 -1
    outer loop
      vertex -1.91227 27.3115 -3
      vertex -2.97634 25.376 -3
      vertex -2.42705 26.7634 -3
    endloop
  endfacet
  facet normal 0 0 -1
    outer loop
      vertex -2.42705 26.7634 -3
      vertex -2.97634 25.376 -3
      vertex -2.78933 26.1044 -3
    endloop
  endfacet
  facet normal -1 0 0
    outer loop
      vertex 62 0 0
      vertex 62 25 23.5
      vertex 62 25 0
    endloop
  endfacet
  facet normal -1 -0 0
    outer loop
      vertex 62 25 23.5
      vertex 62 0 0
      vertex 62 0 23.5
    endloop
  endfacet
  facet normal 0 0 1
    outer loop
      vertex 57 11.625 0
      vertex 62 25 0
      vertex 57 14.375 0
    endloop
  endfacet
  facet normal 0 0 1
    outer loop
      vertex 62 25 0
      vertex 55 14.375 0
      vertex 57 14.375 0
    endloop
  endfacet
  facet normal 0 0 1
    outer loop
      vertex 55 14.375 0
      vertex 53.0939 12.8054 0
      vertex 55 11.625 0
    endloop
  endfacet
  facet normal -0 0 1
    outer loop
      vertex 51.8221 15.508 0
      vertex 55 14.375 0
      vertex 62 25 0
    endloop
  endfacet
  facet normal 0 0 1
    outer loop
      vertex 55 14.375 0
      vertex 53.0451 13.5809 0
      vertex 53.0939 12.8054 0
    endloop
  endfacet
  facet normal 0 0 1
    outer loop
      vertex 55 14.375 0
      vertex 52.805 14.3199 0
      vertex 53.0451 13.5809 0
    endloop
  endfacet
  facet normal 0 0 1
    outer loop
      vertex 55 14.375 0
      vertex 52.3886 14.976 0
      vertex 52.805 14.3199 0
    endloop
  endfacet
  facet normal 0 0 1
    outer loop
      vertex 55 14.375 0
      vertex 51.8221 15.508 0
      vertex 52.3886 14.976 0
    endloop
  endfacet
  facet normal 0 0 1
    outer loop
      vertex 62 25 0
      vertex 51.1412 15.8823 0
      vertex 51.8221 15.508 0
    endloop
  endfacet
  facet normal 0 0 1
    outer loop
      vertex 62 25 0
      vertex 50.3885 16.0756 0
      vertex 51.1412 15.8823 0
    endloop
  endfacet
  facet normal 0 0 1
    outer loop
      vertex 62 25 0
      vertex 49.6115 16.0756 0
      vertex 50.3885 16.0756 0
    endloop
  endfacet
  facet normal 0 0 1
    outer loop
      vertex 62 25 0
      vertex 48.8588 15.8823 0
      vertex 49.6115 16.0756 0
    endloop
  endfacet
  facet normal 0 0 1
    outer loop
      vertex 19 14.375 0
      vertex 48.8588 15.8823 0
      vertex 62 25 0
    endloop
  endfacet
  facet normal 0 0 1
    outer loop
      vertex 46.9549 13.5809 0
      vertex 19 14.375 0
      vertex 46.9061 12.8054 0
    endloop
  endfacet
  facet normal 0 0 1
    outer loop
      vertex 47.195 14.3199 0
      vertex 19 14.375 0
      vertex 46.9549 13.5809 0
    endloop
  endfacet
  facet normal 0 0 1
    outer loop
      vertex 47.6114 14.976 0
      vertex 19 14.375 0
      vertex 47.195 14.3199 0
    endloop
  endfacet
  facet normal 0 0 1
    outer loop
      vertex 48.1779 15.508 0
      vertex 19 14.375 0
      vertex 47.6114 14.976 0
    endloop
  endfacet
  facet normal 0 0 1
    outer loop
      vertex 48.8588 15.8823 0
      vertex 19 14.375 0
      vertex 48.1779 15.508 0
    endloop
  endfacet
  facet normal -0 0 1
    outer loop
      vertex 0 25 0
      vertex 19 14.375 0
      vertex 62 25 0
    endloop
  endfacet
  facet normal 0 0 1
    outer loop
      vertex 17 14.375 0
      vertex 15.0939 12.8054 0
      vertex 17 11.625 0
    endloop
  endfacet
  facet normal 0 0 1
    outer loop
      vertex 17 14.375 0
      vertex 15.0451 13.5809 0
      vertex 15.0939 12.8054 0
    endloop
  endfacet
  facet normal 0 0 1
    outer loop
      vertex 17 14.375 0
      vertex 14.805 14.3199 0
      vertex 15.0451 13.5809 0
    endloop
  endfacet
  facet normal -0 -0 1
    outer loop
      vertex 13.8221 15.508 0
      vertex 19 14.375 0
      vertex 13.1412 15.8823 0
    endloop
  endfacet
  facet normal 0 0 1
    outer loop
      vertex 17 14.375 0
      vertex 14.3886 14.976 0
      vertex 14.805 14.3199 0
    endloop
  endfacet
  facet normal 0 0 1
    outer loop
      vertex 17 14.375 0
      vertex 13.8221 15.508 0
      vertex 14.3886 14.976 0
    endloop
  endfacet
  facet normal 0 0 1
    outer loop
      vertex 19 14.375 0
      vertex 13.8221 15.508 0
      vertex 17 14.375 0
    endloop
  endfacet
  facet normal 0 0 1
    outer loop
      vertex 19 14.375 0
      vertex 0 25 0
      vertex 13.1412 15.8823 0
    endloop
  endfacet
  facet normal 0 0 1
    outer loop
      vertex 13.1412 15.8823 0
      vertex 0 25 0
      vertex 12.3885 16.0756 0
    endloop
  endfacet
  facet normal 0 0 1
    outer loop
      vertex 8.95491 13.5809 0
      vertex 0 25 0
      vertex 8.90612 12.8054 0
    endloop
  endfacet
  facet normal 0 0 1
    outer loop
      vertex 9.19504 14.3199 0
      vertex 0 25 0
      vertex 8.95491 13.5809 0
    endloop
  endfacet
  facet normal 0 0 1
    outer loop
      vertex 9.61141 14.976 0
      vertex 0 25 0
      vertex 9.19504 14.3199 0
    endloop
  endfacet
  facet normal 0 0 1
    outer loop
      vertex 10.1779 15.508 0
      vertex 0 25 0
      vertex 9.61141 14.976 0
    endloop
  endfacet
  facet normal 0 0 1
    outer loop
      vertex 10.8588 15.8823 0
      vertex 0 25 0
      vertex 10.1779 15.508 0
    endloop
  endfacet
  facet normal 0 0 1
    outer loop
      vertex 11.6115 16.0756 0
      vertex 0 25 0
      vertex 10.8588 15.8823 0
    endloop
  endfacet
  facet normal 0 0 1
    outer loop
      vertex 12.3885 16.0756 0
      vertex 0 25 0
      vertex 11.6115 16.0756 0
    endloop
  endfacet
  facet normal 0 0 1
    outer loop
      vertex 62 25 0
      vertex 57 11.625 0
      vertex 62 0 0
    endloop
  endfacet
  facet normal -0 0 1
    outer loop
      vertex 55 11.625 0
      vertex 62 0 0
      vertex 57 11.625 0
    endloop
  endfacet
  facet normal -0 0 1
    outer loop
      vertex 52.9483 12.042 0
      vertex 55 11.625 0
      vertex 53.0939 12.8054 0
    endloop
  endfacet
  facet normal 0 0 1
    outer loop
      vertex 52.6174 11.3389 0
      vertex 55 11.625 0
      vertex 52.9483 12.042 0
    endloop
  endfacet
  facet normal 0 0 1
    outer loop
      vertex 52.1221 10.7402 0
      vertex 55 11.625 0
      vertex 52.6174 11.3389 0
    endloop
  endfacet
  facet normal 0 0 1
    outer loop
      vertex 51.4934 10.2835 0
      vertex 55 11.625 0
      vertex 52.1221 10.7402 0
    endloop
  endfacet
  facet normal 0 0 1
    outer loop
      vertex 55 11.625 0
      vertex 51.4934 10.2835 0
      vertex 62 0 0
    endloop
  endfacet
  facet normal -0 0 1
    outer loop
      vertex 50.7709 9.99739 0
      vertex 62 0 0
      vertex 51.4934 10.2835 0
    endloop
  endfacet
  facet normal -0 0 1
    outer loop
      vertex 50 9.9 0
      vertex 62 0 0
      vertex 50.7709 9.99739 0
    endloop
  endfacet
  facet normal 0 0 1
    outer loop
      vertex 49.2291 9.99739 0
      vertex 62 0 0
      vertex 50 9.9 0
    endloop
  endfacet
  facet normal 0 0 1
    outer loop
      vertex 48.5066 10.2835 0
      vertex 62 0 0
      vertex 49.2291 9.99739 0
    endloop
  endfacet
  facet normal 0 0 1
    outer loop
      vertex 19 11.625 0
      vertex 48.5066 10.2835 0
      vertex 47.8779 10.7402 0
    endloop
  endfacet
  facet normal 0 0 1
    outer loop
      vertex 19 11.625 0
      vertex 46.9061 12.8054 0
      vertex 19 14.375 0
    endloop
  endfacet
  facet normal 0 0 1
    outer loop
      vertex 46.9061 12.8054 0
      vertex 19 11.625 0
      vertex 47.0517 12.042 0
    endloop
  endfacet
  facet normal 0 0 1
    outer loop
      vertex 47.0517 12.042 0
      vertex 19 11.625 0
      vertex 47.3826 11.3389 0
    endloop
  endfacet
  facet normal 0 0 1
    outer loop
      vertex 47.3826 11.3389 0
      vertex 19 11.625 0
      vertex 47.8779 10.7402 0
    endloop
  endfacet
  facet normal 0 0 1
    outer loop
      vertex 48.5066 10.2835 0
      vertex 19 11.625 0
      vertex 62 0 0
    endloop
  endfacet
  facet normal 0 0 1
    outer loop
      vertex 13.4934 10.2835 0
      vertex 19 11.625 0
      vertex 17 11.625 0
    endloop
  endfacet
  facet normal -0 0 1
    outer loop
      vertex 14.9483 12.042 0
      vertex 17 11.625 0
      vertex 15.0939 12.8054 0
    endloop
  endfacet
  facet normal 0 0 1
    outer loop
      vertex 14.6174 11.3389 0
      vertex 17 11.625 0
      vertex 14.9483 12.042 0
    endloop
  endfacet
  facet normal 0 0 1
    outer loop
      vertex 14.1221 10.7402 0
      vertex 17 11.625 0
      vertex 14.6174 11.3389 0
    endloop
  endfacet
  facet normal 0 0 1
    outer loop
      vertex 13.4934 10.2835 0
      vertex 17 11.625 0
      vertex 14.1221 10.7402 0
    endloop
  endfacet
  facet normal 0 0 1
    outer loop
      vertex 12.7709 9.99739 0
      vertex 19 11.625 0
      vertex 13.4934 10.2835 0
    endloop
  endfacet
  facet normal 0 0 1
    outer loop
      vertex 19 11.625 0
      vertex 12.7709 9.99739 0
      vertex 0 0 0
    endloop
  endfacet
  facet normal 0 0 1
    outer loop
      vertex 0 0 0
      vertex 12.7709 9.99739 0
      vertex 12 9.9 0
    endloop
  endfacet
  facet normal 0 0 1
    outer loop
      vertex 0 0 0
      vertex 12 9.9 0
      vertex 11.2291 9.99739 0
    endloop
  endfacet
  facet normal 0 0 1
    outer loop
      vertex 0 0 0
      vertex 8.90612 12.8054 0
      vertex 0 25 0
    endloop
  endfacet
  facet normal 0 0 1
    outer loop
      vertex 8.90612 12.8054 0
      vertex 0 0 0
      vertex 9.05173 12.042 0
    endloop
  endfacet
  facet normal 0 0 1
    outer loop
      vertex 19 11.625 0
      vertex 0 0 0
      vertex 62 0 0
    endloop
  endfacet
  facet normal 0 0 1
    outer loop
      vertex 10.5066 10.2835 0
      vertex 0 0 0
      vertex 11.2291 9.99739 0
    endloop
  endfacet
  facet normal 0 0 1
    outer loop
      vertex 9.8779 10.7402 0
      vertex 0 0 0
      vertex 10.5066 10.2835 0
    endloop
  endfacet
  facet normal 0 0 1
    outer loop
      vertex 9.38258 11.3389 0
      vertex 0 0 0
      vertex 9.8779 10.7402 0
    endloop
  endfacet
  facet normal 0 0 1
    outer loop
      vertex 9.05173 12.042 0
      vertex 0 0 0
      vertex 9.38258 11.3389 0
    endloop
  endfacet
  facet normal 1 -0 0
    outer loop
      vertex 0 0 23.5
      vertex 0 25 0
      vertex 0 25 23.5
    endloop
  endfacet
  facet normal 1 0 0
    outer loop
      vertex 0 25 0
      vertex 0 0 23.5
      vertex 0 0 0
    endloop
  endfacet
  facet normal 0 -1 0
    outer loop
      vertex 0 25 0
      vertex 62 25 23.5
      vertex 0 25 23.5
    endloop
  endfacet
  facet normal 0 -1 -0
    outer loop
      vertex 62 25 23.5
      vertex 0 25 0
      vertex 62 25 0
    endloop
  endfacet
  facet normal 0 1 -0
    outer loop
      vertex 62 0 0
      vertex 0 0 23.5
      vertex 62 0 23.5
    endloop
  endfacet
  facet normal 0 1 0
    outer loop
      vertex 0 0 23.5
      vertex 62 0 0
      vertex 0 0 0
    endloop
  endfacet
  facet normal -0.951062 -0.308999 0
    outer loop
      vertex 53.0451 13.5809 -3
      vertex 52.805 14.3199 0
      vertex 52.805 14.3199 -3
    endloop
  endfacet
  facet normal -0.951062 -0.308999 0
    outer loop
      vertex 52.805 14.3199 0
      vertex 53.0451 13.5809 -3
      vertex 53.0451 13.5809 0
    endloop
  endfacet
  facet normal 0.58772 0.809064 -0
    outer loop
      vertex 48.5066 10.2835 -3
      vertex 47.8779 10.7402 0
      vertex 48.5066 10.2835 0
    endloop
  endfacet
  facet normal 0.58772 0.809064 0
    outer loop
      vertex 47.8779 10.7402 0
      vertex 48.5066 10.2835 -3
      vertex 47.8779 10.7402 -3
    endloop
  endfacet
  facet normal -0.982293 0.187349 0
    outer loop
      vertex 52.9483 12.042 -3
      vertex 53.0939 12.8054 0
      vertex 53.0939 12.8054 -3
    endloop
  endfacet
  facet normal -0.982293 0.187349 0
    outer loop
      vertex 53.0939 12.8054 0
      vertex 52.9483 12.042 -3
      vertex 52.9483 12.042 0
    endloop
  endfacet
  facet normal 0.904804 0.425828 0
    outer loop
      vertex 47.3826 11.3389 0
      vertex 47.0517 12.042 -3
      vertex 47.0517 12.042 0
    endloop
  endfacet
  facet normal 0.904804 0.425828 0
    outer loop
      vertex 47.0517 12.042 -3
      vertex 47.3826 11.3389 0
      vertex 47.3826 11.3389 -3
    endloop
  endfacet
  facet normal -0.904804 0.425828 0
    outer loop
      vertex 52.6174 11.3389 -3
      vertex 52.9483 12.042 0
      vertex 52.9483 12.042 -3
    endloop
  endfacet
  facet normal -0.904804 0.425828 0
    outer loop
      vertex 52.9483 12.042 0
      vertex 52.6174 11.3389 -3
      vertex 52.6174 11.3389 0
    endloop
  endfacet
  facet normal 0.125337 0.992114 -0
    outer loop
      vertex 50 9.9 -3
      vertex 49.2291 9.99739 0
      vertex 50 9.9 0
    endloop
  endfacet
  facet normal 0.125337 0.992114 0
    outer loop
      vertex 49.2291 9.99739 0
      vertex 50 9.9 -3
      vertex 49.2291 9.99739 -3
    endloop
  endfacet
  facet normal -0.125337 0.992114 0
    outer loop
      vertex 50.7709 9.99739 -3
      vertex 50 9.9 0
      vertex 50.7709 9.99739 0
    endloop
  endfacet
  facet normal -0.125337 0.992114 0
    outer loop
      vertex 50 9.9 0
      vertex 50.7709 9.99739 -3
      vertex 50 9.9 -3
    endloop
  endfacet
  facet normal 0.368182 0.929754 -0
    outer loop
      vertex 49.2291 9.99739 -3
      vertex 48.5066 10.2835 0
      vertex 49.2291 9.99739 0
    endloop
  endfacet
  facet normal 0.368182 0.929754 0
    outer loop
      vertex 48.5066 10.2835 0
      vertex 49.2291 9.99739 -3
      vertex 48.5066 10.2835 -3
    endloop
  endfacet
  facet normal 0 -1 0
    outer loop
      vertex 49.6115 16.0756 -3
      vertex 50.3885 16.0756 0
      vertex 49.6115 16.0756 0
    endloop
  endfacet
  facet normal 0 -1 -0
    outer loop
      vertex 50.3885 16.0756 0
      vertex 49.6115 16.0756 -3
      vertex 50.3885 16.0756 -3
    endloop
  endfacet
  facet normal -0.248738 -0.968571 0
    outer loop
      vertex 50.3885 16.0756 -3
      vertex 51.1412 15.8823 0
      vertex 50.3885 16.0756 0
    endloop
  endfacet
  facet normal -0.248738 -0.968571 -0
    outer loop
      vertex 51.1412 15.8823 0
      vertex 50.3885 16.0756 -3
      vertex 51.1412 15.8823 -3
    endloop
  endfacet
  facet normal -0.770505 0.637433 0
    outer loop
      vertex 52.1221 10.7402 -3
      vertex 52.6174 11.3389 0
      vertex 52.6174 11.3389 -3
    endloop
  endfacet
  facet normal -0.770505 0.637433 0
    outer loop
      vertex 52.6174 11.3389 0
      vertex 52.1221 10.7402 -3
      vertex 52.1221 10.7402 0
    endloop
  endfacet
  facet normal -0.844313 -0.535851 0
    outer loop
      vertex 52.805 14.3199 -3
      vertex 52.3886 14.976 0
      vertex 52.3886 14.976 -3
    endloop
  endfacet
  facet normal -0.844313 -0.535851 0
    outer loop
      vertex 52.3886 14.976 0
      vertex 52.805 14.3199 -3
      vertex 52.805 14.3199 0
    endloop
  endfacet
  facet normal 0.998026 -0.0628029 0
    outer loop
      vertex 46.9061 12.8054 0
      vertex 46.9549 13.5809 -3
      vertex 46.9549 13.5809 0
    endloop
  endfacet
  facet normal 0.998026 -0.0628029 0
    outer loop
      vertex 46.9549 13.5809 -3
      vertex 46.9061 12.8054 0
      vertex 46.9061 12.8054 -3
    endloop
  endfacet
  facet normal 0.982293 0.187349 0
    outer loop
      vertex 47.0517 12.042 0
      vertex 46.9061 12.8054 -3
      vertex 46.9061 12.8054 0
    endloop
  endfacet
  facet normal 0.982293 0.187349 0
    outer loop
      vertex 46.9061 12.8054 -3
      vertex 47.0517 12.042 0
      vertex 47.0517 12.042 -3
    endloop
  endfacet
  facet normal 0.684562 -0.728955 0
    outer loop
      vertex 47.6114 14.976 -3
      vertex 48.1779 15.508 0
      vertex 47.6114 14.976 0
    endloop
  endfacet
  facet normal 0.684562 -0.728955 0
    outer loop
      vertex 48.1779 15.508 0
      vertex 47.6114 14.976 -3
      vertex 48.1779 15.508 -3
    endloop
  endfacet
  facet normal 0.481726 -0.876322 0
    outer loop
      vertex 48.1779 15.508 -3
      vertex 48.8588 15.8823 0
      vertex 48.1779 15.508 0
    endloop
  endfacet
  facet normal 0.481726 -0.876322 0
    outer loop
      vertex 48.8588 15.8823 0
      vertex 48.1779 15.508 -3
      vertex 48.8588 15.8823 -3
    endloop
  endfacet
  facet normal 0.770505 0.637433 0
    outer loop
      vertex 47.8779 10.7402 0
      vertex 47.3826 11.3389 -3
      vertex 47.3826 11.3389 0
    endloop
  endfacet
  facet normal 0.770505 0.637433 0
    outer loop
      vertex 47.3826 11.3389 -3
      vertex 47.8779 10.7402 0
      vertex 47.8779 10.7402 -3
    endloop
  endfacet
  facet normal 0.951062 -0.308999 0
    outer loop
      vertex 46.9549 13.5809 0
      vertex 47.195 14.3199 -3
      vertex 47.195 14.3199 0
    endloop
  endfacet
  facet normal 0.951062 -0.308999 0
    outer loop
      vertex 47.195 14.3199 -3
      vertex 46.9549 13.5809 0
      vertex 46.9549 13.5809 -3
    endloop
  endfacet
  facet normal -0.998026 -0.0628029 0
    outer loop
      vertex 53.0939 12.8054 -3
      vertex 53.0451 13.5809 0
      vertex 53.0451 13.5809 -3
    endloop
  endfacet
  facet normal -0.998026 -0.0628029 0
    outer loop
      vertex 53.0451 13.5809 0
      vertex 53.0939 12.8054 -3
      vertex 53.0939 12.8054 0
    endloop
  endfacet
  facet normal 0.844313 -0.535851 0
    outer loop
      vertex 47.195 14.3199 0
      vertex 47.6114 14.976 -3
      vertex 47.6114 14.976 0
    endloop
  endfacet
  facet normal 0.844313 -0.535851 0
    outer loop
      vertex 47.6114 14.976 -3
      vertex 47.195 14.3199 0
      vertex 47.195 14.3199 -3
    endloop
  endfacet
  facet normal -0.481726 -0.876322 0
    outer loop
      vertex 51.1412 15.8823 -3
      vertex 51.8221 15.508 0
      vertex 51.1412 15.8823 0
    endloop
  endfacet
  facet normal -0.481726 -0.876322 -0
    outer loop
      vertex 51.8221 15.508 0
      vertex 51.1412 15.8823 -3
      vertex 51.8221 15.508 -3
    endloop
  endfacet
  facet normal -0.684562 -0.728955 0
    outer loop
      vertex 51.8221 15.508 -3
      vertex 52.3886 14.976 0
      vertex 51.8221 15.508 0
    endloop
  endfacet
  facet normal -0.684562 -0.728955 -0
    outer loop
      vertex 52.3886 14.976 0
      vertex 51.8221 15.508 -3
      vertex 52.3886 14.976 -3
    endloop
  endfacet
  facet normal 0.248738 -0.968571 0
    outer loop
      vertex 48.8588 15.8823 -3
      vertex 49.6115 16.0756 0
      vertex 48.8588 15.8823 0
    endloop
  endfacet
  facet normal 0.248738 -0.968571 0
    outer loop
      vertex 49.6115 16.0756 0
      vertex 48.8588 15.8823 -3
      vertex 49.6115 16.0756 -3
    endloop
  endfacet
  facet normal -0.58772 0.809064 0
    outer loop
      vertex 52.1221 10.7402 -3
      vertex 51.4934 10.2835 0
      vertex 52.1221 10.7402 0
    endloop
  endfacet
  facet normal -0.58772 0.809064 0
    outer loop
      vertex 51.4934 10.2835 0
      vertex 52.1221 10.7402 -3
      vertex 51.4934 10.2835 -3
    endloop
  endfacet
  facet normal -0.368182 0.929754 0
    outer loop
      vertex 51.4934 10.2835 -3
      vertex 50.7709 9.99739 0
      vertex 51.4934 10.2835 0
    endloop
  endfacet
  facet normal -0.368182 0.929754 0
    outer loop
      vertex 50.7709 9.99739 0
      vertex 51.4934 10.2835 -3
      vertex 50.7709 9.99739 -3
    endloop
  endfacet
  facet normal 0 1 -0
    outer loop
      vertex 57 11.625 -2
      vertex 55 11.625 0
      vertex 57 11.625 0
    endloop
  endfacet
  facet normal 0 1 0
    outer loop
      vertex 55 11.625 0
      vertex 57 11.625 -2
      vertex 55 11.625 -2
    endloop
  endfacet
  facet normal -0 0 1
    outer loop
      vertex 55 14.375 -2
      vertex 57 11.625 -2
      vertex 57 14.375 -2
    endloop
  endfacet
  facet normal 0 0 1
    outer loop
      vertex 57 11.625 -2
      vertex 55 14.375 -2
      vertex 55 11.625 -2
    endloop
  endfacet
  facet normal 0 -1 0
    outer loop
      vertex 55 14.375 -2
      vertex 57 14.375 0
      vertex 55 14.375 0
    endloop
  endfacet
  facet normal 0 -1 -0
    outer loop
      vertex 57 14.375 0
      vertex 55 14.375 -2
      vertex 57 14.375 -2
    endloop
  endfacet
  facet normal 1 -0 0
    outer loop
      vertex 55 11.625 0
      vertex 55 14.375 -2
      vertex 55 14.375 0
    endloop
  endfacet
  facet normal 1 0 0
    outer loop
      vertex 55 14.375 -2
      vertex 55 11.625 0
      vertex 55 11.625 -2
    endloop
  endfacet
  facet normal -1 0 0
    outer loop
      vertex 57 11.625 -2
      vertex 57 14.375 0
      vertex 57 14.375 -2
    endloop
  endfacet
  facet normal -1 -0 0
    outer loop
      vertex 57 14.375 0
      vertex 57 11.625 -2
      vertex 57 11.625 0
    endloop
  endfacet
  facet normal -0.951062 -0.308999 0
    outer loop
      vertex 15.0451 13.5809 -3
      vertex 14.805 14.3199 0
      vertex 14.805 14.3199 -3
    endloop
  endfacet
  facet normal -0.951062 -0.308999 0
    outer loop
      vertex 14.805 14.3199 0
      vertex 15.0451 13.5809 -3
      vertex 15.0451 13.5809 0
    endloop
  endfacet
  facet normal 0.58772 0.809064 -0
    outer loop
      vertex 10.5066 10.2835 -3
      vertex 9.8779 10.7402 0
      vertex 10.5066 10.2835 0
    endloop
  endfacet
  facet normal 0.58772 0.809064 0
    outer loop
      vertex 9.8779 10.7402 0
      vertex 10.5066 10.2835 -3
      vertex 9.8779 10.7402 -3
    endloop
  endfacet
  facet normal -0.982293 0.187349 0
    outer loop
      vertex 14.9483 12.042 -3
      vertex 15.0939 12.8054 0
      vertex 15.0939 12.8054 -3
    endloop
  endfacet
  facet normal -0.982293 0.187349 0
    outer loop
      vertex 15.0939 12.8054 0
      vertex 14.9483 12.042 -3
      vertex 14.9483 12.042 0
    endloop
  endfacet
  facet normal 0.904829 0.425775 0
    outer loop
      vertex 9.38258 11.3389 0
      vertex 9.05173 12.042 -3
      vertex 9.05173 12.042 0
    endloop
  endfacet
  facet normal 0.904829 0.425775 0
    outer loop
      vertex 9.05173 12.042 -3
      vertex 9.38258 11.3389 0
      vertex 9.38258 11.3389 -3
    endloop
  endfacet
  facet normal -0.904804 0.425828 0
    outer loop
      vertex 14.6174 11.3389 -3
      vertex 14.9483 12.042 0
      vertex 14.9483 12.042 -3
    endloop
  endfacet
  facet normal -0.904804 0.425828 0
    outer loop
      vertex 14.9483 12.042 0
      vertex 14.6174 11.3389 -3
      vertex 14.6174 11.3389 0
    endloop
  endfacet
  facet normal 0.125337 0.992114 -0
    outer loop
      vertex 12 9.9 -3
      vertex 11.2291 9.99739 0
      vertex 12 9.9 0
    endloop
  endfacet
  facet normal 0.125337 0.992114 0
    outer loop
      vertex 11.2291 9.99739 0
      vertex 12 9.9 -3
      vertex 11.2291 9.99739 -3
    endloop
  endfacet
  facet normal -0.125337 0.992114 0
    outer loop
      vertex 12.7709 9.99739 -3
      vertex 12 9.9 0
      vertex 12.7709 9.99739 0
    endloop
  endfacet
  facet normal -0.125337 0.992114 0
    outer loop
      vertex 12 9.9 0
      vertex 12.7709 9.99739 -3
      vertex 12 9.9 -3
    endloop
  endfacet
  facet normal 0.368182 0.929754 -0
    outer loop
      vertex 11.2291 9.99739 -3
      vertex 10.5066 10.2835 0
      vertex 11.2291 9.99739 0
    endloop
  endfacet
  facet normal 0.368182 0.929754 0
    outer loop
      vertex 10.5066 10.2835 0
      vertex 11.2291 9.99739 -3
      vertex 10.5066 10.2835 -3
    endloop
  endfacet
  facet normal 0 -1 0
    outer loop
      vertex 11.6115 16.0756 -3
      vertex 12.3885 16.0756 0
      vertex 11.6115 16.0756 0
    endloop
  endfacet
  facet normal 0 -1 -0
    outer loop
      vertex 12.3885 16.0756 0
      vertex 11.6115 16.0756 -3
      vertex 12.3885 16.0756 -3
    endloop
  endfacet
  facet normal -0.248738 -0.968571 0
    outer loop
      vertex 12.3885 16.0756 -3
      vertex 13.1412 15.8823 0
      vertex 12.3885 16.0756 0
    endloop
  endfacet
  facet normal -0.248738 -0.968571 -0
    outer loop
      vertex 13.1412 15.8823 0
      vertex 12.3885 16.0756 -3
      vertex 13.1412 15.8823 -3
    endloop
  endfacet
  facet normal -0.770505 0.637433 0
    outer loop
      vertex 14.1221 10.7402 -3
      vertex 14.6174 11.3389 0
      vertex 14.6174 11.3389 -3
    endloop
  endfacet
  facet normal -0.770505 0.637433 0
    outer loop
      vertex 14.6174 11.3389 0
      vertex 14.1221 10.7402 -3
      vertex 14.1221 10.7402 0
    endloop
  endfacet
  facet normal -0.844313 -0.535851 0
    outer loop
      vertex 14.805 14.3199 -3
      vertex 14.3886 14.976 0
      vertex 14.3886 14.976 -3
    endloop
  endfacet
  facet normal -0.844313 -0.535851 0
    outer loop
      vertex 14.3886 14.976 0
      vertex 14.805 14.3199 -3
      vertex 14.805 14.3199 0
    endloop
  endfacet
  facet normal 0.998027 -0.0627901 0
    outer loop
      vertex 8.90612 12.8054 0
      vertex 8.95491 13.5809 -3
      vertex 8.95491 13.5809 0
    endloop
  endfacet
  facet normal 0.998027 -0.0627901 0
    outer loop
      vertex 8.95491 13.5809 -3
      vertex 8.90612 12.8054 0
      vertex 8.90612 12.8054 -3
    endloop
  endfacet
  facet normal 0.982291 0.187361 0
    outer loop
      vertex 9.05173 12.042 0
      vertex 8.90612 12.8054 -3
      vertex 8.90612 12.8054 0
    endloop
  endfacet
  facet normal 0.982291 0.187361 0
    outer loop
      vertex 8.90612 12.8054 -3
      vertex 9.05173 12.042 0
      vertex 9.05173 12.042 -3
    endloop
  endfacet
  facet normal 0.684568 -0.728949 0
    outer loop
      vertex 9.61141 14.976 -3
      vertex 10.1779 15.508 0
      vertex 9.61141 14.976 0
    endloop
  endfacet
  facet normal 0.684568 -0.728949 0
    outer loop
      vertex 10.1779 15.508 0
      vertex 9.61141 14.976 -3
      vertex 10.1779 15.508 -3
    endloop
  endfacet
  facet normal 0.481726 -0.876322 0
    outer loop
      vertex 10.1779 15.508 -3
      vertex 10.8588 15.8823 0
      vertex 10.1779 15.508 0
    endloop
  endfacet
  facet normal 0.481726 -0.876322 0
    outer loop
      vertex 10.8588 15.8823 0
      vertex 10.1779 15.508 -3
      vertex 10.8588 15.8823 -3
    endloop
  endfacet
  facet normal 0.770493 0.637449 0
    outer loop
      vertex 9.8779 10.7402 0
      vertex 9.38258 11.3389 -3
      vertex 9.38258 11.3389 0
    endloop
  endfacet
  facet normal 0.770493 0.637449 0
    outer loop
      vertex 9.38258 11.3389 -3
      vertex 9.8779 10.7402 0
      vertex 9.8779 10.7402 -3
    endloop
  endfacet
  facet normal 0.951051 -0.309034 0
    outer loop
      vertex 8.95491 13.5809 0
      vertex 9.19504 14.3199 -3
      vertex 9.19504 14.3199 0
    endloop
  endfacet
  facet normal 0.951051 -0.309034 0
    outer loop
      vertex 9.19504 14.3199 -3
      vertex 8.95491 13.5809 0
      vertex 8.95491 13.5809 -3
    endloop
  endfacet
  facet normal -0.998026 -0.0628029 0
    outer loop
      vertex 15.0939 12.8054 -3
      vertex 15.0451 13.5809 0
      vertex 15.0451 13.5809 -3
    endloop
  endfacet
  facet normal -0.998026 -0.0628029 0
    outer loop
      vertex 15.0451 13.5809 0
      vertex 15.0939 12.8054 -3
      vertex 15.0939 12.8054 0
    endloop
  endfacet
  facet normal 0.84433 -0.535823 0
    outer loop
      vertex 9.19504 14.3199 0
      vertex 9.61141 14.976 -3
      vertex 9.61141 14.976 0
    endloop
  endfacet
  facet normal 0.84433 -0.535823 0
    outer loop
      vertex 9.61141 14.976 -3
      vertex 9.19504 14.3199 0
      vertex 9.19504 14.3199 -3
    endloop
  endfacet
  facet normal -0.481726 -0.876322 0
    outer loop
      vertex 13.1412 15.8823 -3
      vertex 13.8221 15.508 0
      vertex 13.1412 15.8823 0
    endloop
  endfacet
  facet normal -0.481726 -0.876322 -0
    outer loop
      vertex 13.8221 15.508 0
      vertex 13.1412 15.8823 -3
      vertex 13.8221 15.508 -3
    endloop
  endfacet
  facet normal -0.684562 -0.728955 0
    outer loop
      vertex 13.8221 15.508 -3
      vertex 14.3886 14.976 0
      vertex 13.8221 15.508 0
    endloop
  endfacet
  facet normal -0.684562 -0.728955 -0
    outer loop
      vertex 14.3886 14.976 0
      vertex 13.8221 15.508 -3
      vertex 14.3886 14.976 -3
    endloop
  endfacet
  facet normal 0.248738 -0.968571 0
    outer loop
      vertex 10.8588 15.8823 -3
      vertex 11.6115 16.0756 0
      vertex 10.8588 15.8823 0
    endloop
  endfacet
  facet normal 0.248738 -0.968571 0
    outer loop
      vertex 11.6115 16.0756 0
      vertex 10.8588 15.8823 -3
      vertex 11.6115 16.0756 -3
    endloop
  endfacet
  facet normal -0.58772 0.809064 0
    outer loop
      vertex 14.1221 10.7402 -3
      vertex 13.4934 10.2835 0
      vertex 14.1221 10.7402 0
    endloop
  endfacet
  facet normal -0.58772 0.809064 0
    outer loop
      vertex 13.4934 10.2835 0
      vertex 14.1221 10.7402 -3
      vertex 13.4934 10.2835 -3
    endloop
  endfacet
  facet normal -0.368182 0.929754 0
    outer loop
      vertex 13.4934 10.2835 -3
      vertex 12.7709 9.99739 0
      vertex 13.4934 10.2835 0
    endloop
  endfacet
  facet normal -0.368182 0.929754 0
    outer loop
      vertex 12.7709 9.99739 0
      vertex 13.4934 10.2835 -3
      vertex 12.7709 9.99739 -3
    endloop
  endfacet
  facet normal 0 1 -0
    outer loop
      vertex 19 11.625 -2
      vertex 17 11.625 0
      vertex 19 11.625 0
    endloop
  endfacet
  facet normal 0 1 0
    outer loop
      vertex 17 11.625 0
      vertex 19 11.625 -2
      vertex 17 11.625 -2
    endloop
  endfacet
  facet normal -0 0 1
    outer loop
      vertex 17 14.375 -2
      vertex 19 11.625 -2
      vertex 19 14.375 -2
    endloop
  endfacet
  facet normal 0 0 1
    outer loop
      vertex 19 11.625 -2
      vertex 17 14.375 -2
      vertex 17 11.625 -2
    endloop
  endfacet
  facet normal 0 -1 0
    outer loop
      vertex 17 14.375 -2
      vertex 19 14.375 0
      vertex 17 14.375 0
    endloop
  endfacet
  facet normal 0 -1 -0
    outer loop
      vertex 19 14.375 0
      vertex 17 14.375 -2
      vertex 19 14.375 -2
    endloop
  endfacet
  facet normal 1 -0 0
    outer loop
      vertex 17 11.625 0
      vertex 17 14.375 -2
      vertex 17 14.375 0
    endloop
  endfacet
  facet normal 1 0 0
    outer loop
      vertex 17 14.375 -2
      vertex 17 11.625 0
      vertex 17 11.625 -2
    endloop
  endfacet
  facet normal -1 0 0
    outer loop
      vertex 19 11.625 -2
      vertex 19 14.375 0
      vertex 19 14.375 -2
    endloop
  endfacet
  facet normal -1 -0 0
    outer loop
      vertex 19 14.375 0
      vertex 19 11.625 -2
      vertex 19 11.625 0
    endloop
  endfacet
endsolid OpenSCAD_Model
