solid OpenSCAD_Model
  facet normal 0.873364 -0.487068 0
    outer loop
      vertex -7.74501 -10.54 3.55
      vertex -1.65501 0.380012 0
      vertex -1.65501 0.380012 3.55
    endloop
  endfacet
  facet normal 0.873364 -0.487068 0
    outer loop
      vertex -1.65501 0.380012 0
      vertex -7.74501 -10.54 3.55
      vertex -7.74501 -10.54 0
    endloop
  endfacet
  facet normal -0.0425859 -0.999093 0
    outer loop
      vertex -1.65501 0.380012 0
      vertex 1.39499 0.250007 3.55
      vertex -1.65501 0.380012 3.55
    endloop
  endfacet
  facet normal -0.0425859 -0.999093 -0
    outer loop
      vertex 1.39499 0.250007 3.55
      vertex -1.65501 0.380012 0
      vertex 1.39499 0.250007 0
    endloop
  endfacet
  facet normal 0.970482 0.241175 -0
    outer loop
      vertex -2.90899 -30 3.5
      vertex -7.74501 -10.54 3.55
      vertex -2.90899 -30 3.55
    endloop
  endfacet
  facet normal 0.970482 0.241175 0
    outer loop
      vertex -7.74501 -10.54 3.55
      vertex -2.90899 -30 3.5
      vertex -7.74501 -10.54 0
    endloop
  endfacet
  facet normal 0.970482 0.241174 -0
    outer loop
      vertex -1.90501 -34.04 0
      vertex -2.90899 -30 3.5
      vertex -1.90501 -34.04 3.5
    endloop
  endfacet
  facet normal 0.970482 0.241175 -8.25942e-07
    outer loop
      vertex -2.90899 -30 3.5
      vertex -1.90501 -34.04 0
      vertex -7.74501 -10.54 0
    endloop
  endfacet
  facet normal -0.961524 0.274721 0
    outer loop
      vertex 8.76499 -10.03 0
      vertex 3.05927 -30 3.5
      vertex 8.76499 -10.03 3.55
    endloop
  endfacet
  facet normal -0.961524 0.274721 -1.56984e-06
    outer loop
      vertex 1.90499 -34.04 0
      vertex 3.05927 -30 3.5
      vertex 8.76499 -10.03 0
    endloop
  endfacet
  facet normal -0.961524 0.27472 0
    outer loop
      vertex 3.05927 -30 3.5
      vertex 1.90499 -34.04 0
      vertex 1.90499 -34.04 3.5
    endloop
  endfacet
  facet normal -0.961524 0.274721 0
    outer loop
      vertex 8.76499 -10.03 3.55
      vertex 3.05927 -30 3.5
      vertex 3.05927 -30 3.55
    endloop
  endfacet
  facet normal 0 1 -0
    outer loop
      vertex 1.90499 -34.04 0
      vertex -1.90501 -34.04 3.5
      vertex 1.90499 -34.04 3.5
    endloop
  endfacet
  facet normal 0 1 0
    outer loop
      vertex -1.90501 -34.04 3.5
      vertex 1.90499 -34.04 0
      vertex -1.90501 -34.04 0
    endloop
  endfacet
  facet normal -0.812717 -0.582658 0
    outer loop
      vertex 8.76499 -10.03 0
      vertex 1.39499 0.250007 3.55
      vertex 1.39499 0.250007 0
    endloop
  endfacet
  facet normal -0.812717 -0.582658 0
    outer loop
      vertex 1.39499 0.250007 3.55
      vertex 8.76499 -10.03 0
      vertex 8.76499 -10.03 3.55
    endloop
  endfacet
  facet normal 0.0489944 0.998799 -0
    outer loop
      vertex 33.275 -10.41 0
      vertex 10.035 -9.27 3.55
      vertex 33.275 -10.41 3.55
    endloop
  endfacet
  facet normal 0.0489944 0.998799 0
    outer loop
      vertex 10.035 -9.27 3.55
      vertex 33.275 -10.41 0
      vertex 10.035 -9.27 0
    endloop
  endfacet
  facet normal -0.534429 -0.845213 0
    outer loop
      vertex 14.855 6.86001 0
      vertex 34.545 -5.58999 3.55
      vertex 14.855 6.86001 3.55
    endloop
  endfacet
  facet normal -0.534429 -0.845213 -0
    outer loop
      vertex 34.545 -5.58999 3.55
      vertex 14.855 6.86001 0
      vertex 34.545 -5.58999 0
    endloop
  endfacet
  facet normal -0.966997 0.254789 0
    outer loop
      vertex 33.275 -10.41 0
      vertex 34.545 -5.58999 3.55
      vertex 34.545 -5.58999 0
    endloop
  endfacet
  facet normal -0.966997 0.254789 0
    outer loop
      vertex 34.545 -5.58999 3.55
      vertex 33.275 -10.41 0
      vertex 33.275 -10.41 3.55
    endloop
  endfacet
  facet normal 0.786957 0.617007 0
    outer loop
      vertex 10.035 -9.27 3.55
      vertex 2.665 0.130012 0
      vertex 2.665 0.130012 3.55
    endloop
  endfacet
  facet normal 0.786957 0.617007 0
    outer loop
      vertex 2.665 0.130012 0
      vertex 10.035 -9.27 3.55
      vertex 10.035 -9.27 0
    endloop
  endfacet
  facet normal 0.283113 -0.959087 0
    outer loop
      vertex 2.79499 3.30001 0
      vertex 14.855 6.86001 3.55
      vertex 2.79499 3.30001 3.55
    endloop
  endfacet
  facet normal 0.283113 -0.959087 0
    outer loop
      vertex 14.855 6.86001 3.55
      vertex 2.79499 3.30001 0
      vertex 14.855 6.86001 0
    endloop
  endfacet
  facet normal 0.99916 -0.0409719 0
    outer loop
      vertex 2.665 0.130012 3.55
      vertex 2.79499 3.30001 0
      vertex 2.79499 3.30001 3.55
    endloop
  endfacet
  facet normal 0.99916 -0.0409719 0
    outer loop
      vertex 2.79499 3.30001 0
      vertex 2.665 0.130012 3.55
      vertex 2.665 0.130012 0
    endloop
  endfacet
  facet normal 0.999953 -0.00965817 0
    outer loop
      vertex 0.504993 4.7 3.55
      vertex 0.634998 18.16 0
      vertex 0.634998 18.16 3.55
    endloop
  endfacet
  facet normal 0.999953 -0.00965817 0
    outer loop
      vertex 0.634998 18.16 0
      vertex 0.504993 4.7 3.55
      vertex 0.504993 4.7 0
    endloop
  endfacet
  facet normal -0.56541 -0.82481 0
    outer loop
      vertex 20.825 33.78 0
      vertex 24.895 30.99 3.55
      vertex 20.825 33.78 3.55
    endloop
  endfacet
  facet normal -0.56541 -0.82481 -0
    outer loop
      vertex 24.895 30.99 3.55
      vertex 20.825 33.78 0
      vertex 24.895 30.99 0
    endloop
  endfacet
  facet normal 0 1 -0
    outer loop
      vertex 2.415 4.7 0
      vertex 0.504993 4.7 3.55
      vertex 2.415 4.7 3.55
    endloop
  endfacet
  facet normal 0 1 0
    outer loop
      vertex 0.504993 4.7 3.55
      vertex 2.415 4.7 0
      vertex 0.504993 4.7 0
    endloop
  endfacet
  facet normal 0.611904 -0.790932 0
    outer loop
      vertex 0.634998 18.16 0
      vertex 20.825 33.78 3.55
      vertex 0.634998 18.16 3.55
    endloop
  endfacet
  facet normal 0.611904 -0.790932 0
    outer loop
      vertex 20.825 33.78 3.55
      vertex 0.634998 18.16 0
      vertex 20.825 33.78 0
    endloop
  endfacet
  facet normal -0.905464 0.424423 0
    outer loop
      vertex 14.475 8.76 0
      vertex 24.895 30.99 3.55
      vertex 24.895 30.99 0
    endloop
  endfacet
  facet normal -0.905464 0.424423 0
    outer loop
      vertex 24.895 30.99 3.55
      vertex 14.475 8.76 0
      vertex 14.475 8.76 3.55
    endloop
  endfacet
  facet normal -0.319055 0.947736 0
    outer loop
      vertex 14.475 8.76 0
      vertex 2.415 4.7 3.55
      vertex 14.475 8.76 3.55
    endloop
  endfacet
  facet normal -0.319055 0.947736 0
    outer loop
      vertex 2.415 4.7 3.55
      vertex 14.475 8.76 0
      vertex 2.415 4.7 0
    endloop
  endfacet
  facet normal -0.0488104 0.998808 0
    outer loop
      vertex -0.765012 4.7 0
      vertex -3.425 4.57001 3.55
      vertex -0.765012 4.7 3.55
    endloop
  endfacet
  facet normal -0.0488104 0.998808 0
    outer loop
      vertex -3.425 4.57001 3.55
      vertex -0.765012 4.7 0
      vertex -3.425 4.57001 0
    endloop
  endfacet
  facet normal 0.371391 0.928477 -0
    outer loop
      vertex -3.425 4.57001 0
      vertex -14.225 8.89001 3.55
      vertex -3.425 4.57001 3.55
    endloop
  endfacet
  facet normal 0.371391 0.928477 0
    outer loop
      vertex -14.225 8.89001 3.55
      vertex -3.425 4.57001 0
      vertex -14.225 8.89001 0
    endloop
  endfacet
  facet normal -0.999954 -0.00956461 0
    outer loop
      vertex -0.765012 4.7 0
      vertex -0.895001 18.29 3.55
      vertex -0.895001 18.29 0
    endloop
  endfacet
  facet normal -0.999954 -0.00956461 0
    outer loop
      vertex -0.895001 18.29 3.55
      vertex -0.765012 4.7 0
      vertex -0.765012 4.7 3.55
    endloop
  endfacet
  facet normal 0.924096 0.38216 0
    outer loop
      vertex -14.225 8.89001 3.55
      vertex -23.625 31.62 0
      vertex -23.625 31.62 3.55
    endloop
  endfacet
  facet normal 0.924096 0.38216 0
    outer loop
      vertex -23.625 31.62 0
      vertex -14.225 8.89001 3.55
      vertex -14.225 8.89001 0
    endloop
  endfacet
  facet normal 0.586212 -0.810158 0
    outer loop
      vertex -23.625 31.62 0
      vertex -19.935 34.29 3.55
      vertex -23.625 31.62 3.55
    endloop
  endfacet
  facet normal 0.586212 -0.810158 0
    outer loop
      vertex -19.935 34.29 3.55
      vertex -23.625 31.62 0
      vertex -19.935 34.29 0
    endloop
  endfacet
  facet normal -0.643343 -0.765578 0
    outer loop
      vertex -19.935 34.29 0
      vertex -0.895001 18.29 3.55
      vertex -19.935 34.29 3.55
    endloop
  endfacet
  facet normal -0.643343 -0.765578 -0
    outer loop
      vertex -0.895001 18.29 3.55
      vertex -19.935 34.29 0
      vertex -0.895001 18.29 0
    endloop
  endfacet
  facet normal -0.0866105 0.996242 0
    outer loop
      vertex -10.285 -9.77999 0
      vertex -32.255 -11.69 3.55
      vertex -10.285 -9.77999 3.55
    endloop
  endfacet
  facet normal -0.0866105 0.996242 0
    outer loop
      vertex -32.255 -11.69 3.55
      vertex -10.285 -9.77999 0
      vertex -32.255 -11.69 0
    endloop
  endfacet
  facet normal -0.270861 -0.962619 0
    outer loop
      vertex -14.855 6.60001 0
      vertex -2.66501 3.17 3.55
      vertex -14.855 6.60001 3.55
    endloop
  endfacet
  facet normal -0.270861 -0.962619 -0
    outer loop
      vertex -2.66501 3.17 3.55
      vertex -14.855 6.60001 0
      vertex -2.66501 3.17 0
    endloop
  endfacet
  facet normal -0.806923 0.590657 0
    outer loop
      vertex -10.285 -9.77999 0
      vertex -2.66501 0.630012 3.55
      vertex -2.66501 0.630012 0
    endloop
  endfacet
  facet normal -0.806923 0.590657 0
    outer loop
      vertex -2.66501 0.630012 3.55
      vertex -10.285 -9.77999 0
      vertex -10.285 -9.77999 3.55
    endloop
  endfacet
  facet normal 0.9332 0.359357 0
    outer loop
      vertex -32.255 -11.69 3.55
      vertex -34.165 -6.72999 0
      vertex -34.165 -6.72999 3.55
    endloop
  endfacet
  facet normal 0.9332 0.359357 0
    outer loop
      vertex -34.165 -6.72999 0
      vertex -32.255 -11.69 3.55
      vertex -32.255 -11.69 0
    endloop
  endfacet
  facet normal 0.568101 -0.822959 0
    outer loop
      vertex -34.165 -6.72999 0
      vertex -14.855 6.60001 3.55
      vertex -34.165 -6.72999 3.55
    endloop
  endfacet
  facet normal 0.568101 -0.822959 0
    outer loop
      vertex -14.855 6.60001 3.55
      vertex -34.165 -6.72999 0
      vertex -14.855 6.60001 0
    endloop
  endfacet
  facet normal -1 0 0
    outer loop
      vertex -2.66501 0.630012 0
      vertex -2.66501 3.17 3.55
      vertex -2.66501 3.17 0
    endloop
  endfacet
  facet normal -1 -0 0
    outer loop
      vertex -2.66501 3.17 3.55
      vertex -2.66501 0.630012 0
      vertex -2.66501 0.630012 3.55
    endloop
  endfacet
  facet normal 0 0 1
    outer loop
      vertex -14.225 8.89001 3.55
      vertex -14.0017 8.00099 3.55
      vertex -3.425 4.57001 3.55
    endloop
  endfacet
  facet normal 0 0 1
    outer loop
      vertex -23.625 31.62 3.55
      vertex -14.0017 8.00099 3.55
      vertex -14.225 8.89001 3.55
    endloop
  endfacet
  facet normal 0 0 1
    outer loop
      vertex -14.0017 8.00099 3.55
      vertex -23.625 31.62 3.55
      vertex -24.6697 33.3375 3.55
    endloop
  endfacet
  facet normal -0 0 1
    outer loop
      vertex -2.66501 0.630012 3.55
      vertex -1.65501 0.380012 3.55
      vertex -2.66501 3.17 3.55
    endloop
  endfacet
  facet normal 0 0 1
    outer loop
      vertex -2.66501 0.630012 3.55
      vertex -7.74501 -10.54 3.55
      vertex -1.65501 0.380012 3.55
    endloop
  endfacet
  facet normal -0 0 1
    outer loop
      vertex -10.285 -9.77999 3.55
      vertex -7.74501 -10.54 3.55
      vertex -2.66501 0.630012 3.55
    endloop
  endfacet
  facet normal 0 0 1
    outer loop
      vertex -7.74501 -10.54 3.55
      vertex -10.285 -9.77999 3.55
      vertex -8.66774 -10.668 3.55
    endloop
  endfacet
  facet normal 0 0 1
    outer loop
      vertex -32.255 -11.69 3.55
      vertex -8.66774 -10.668 3.55
      vertex -10.285 -9.77999 3.55
    endloop
  endfacet
  facet normal -0 0 1
    outer loop
      vertex -32.255 -11.69 3.55
      vertex -34.0042 -12.0015 3.55
      vertex -8.66774 -10.668 3.55
    endloop
  endfacet
  facet normal 0 0 1
    outer loop
      vertex -34.165 -6.72999 3.55
      vertex -34.0042 -12.0015 3.55
      vertex -32.255 -11.69 3.55
    endloop
  endfacet
  facet normal 0 0 1
    outer loop
      vertex -34.0042 -12.0015 3.55
      vertex -34.165 -6.72999 3.55
      vertex -36.6712 -6.66749 3.55
    endloop
  endfacet
  facet normal 0 0 1
    outer loop
      vertex -7.74501 -10.54 3.55
      vertex -3.58038 -30 3.55
      vertex -2.90899 -30 3.55
    endloop
  endfacet
  facet normal 0 0 1
    outer loop
      vertex -3.58038 -30 3.55
      vertex -7.74501 -10.54 3.55
      vertex -8.66774 -10.668 3.55
    endloop
  endfacet
  facet normal -0 0 1
    outer loop
      vertex 20.825 33.78 3.55
      vertex 26.0033 32.004 3.55
      vertex 21.9712 36.0045 3.55
    endloop
  endfacet
  facet normal 0 0 1
    outer loop
      vertex 26.0033 32.004 3.55
      vertex 20.825 33.78 3.55
      vertex 24.895 30.99 3.55
    endloop
  endfacet
  facet normal 0 0 1
    outer loop
      vertex 0.666744 18.669 3.55
      vertex 20.825 33.78 3.55
      vertex 21.9712 36.0045 3.55
    endloop
  endfacet
  facet normal -0 0 1
    outer loop
      vertex 0.666744 18.669 3.55
      vertex 0.634998 18.16 3.55
      vertex 20.825 33.78 3.55
    endloop
  endfacet
  facet normal 0 0 1
    outer loop
      vertex 0.634998 18.16 3.55
      vertex -0.765012 4.7 3.55
      vertex 0.504993 4.7 3.55
    endloop
  endfacet
  facet normal -0 0 1
    outer loop
      vertex -0.895001 18.29 3.55
      vertex 0.634998 18.16 3.55
      vertex 0.666744 18.669 3.55
    endloop
  endfacet
  facet normal 0 0 1
    outer loop
      vertex 0.634998 18.16 3.55
      vertex -0.895001 18.29 3.55
      vertex -0.765012 4.7 3.55
    endloop
  endfacet
  facet normal 0 0 1
    outer loop
      vertex 0.666744 18.669 3.55
      vertex -19.935 34.29 3.55
      vertex -0.895001 18.29 3.55
    endloop
  endfacet
  facet normal 0 0 1
    outer loop
      vertex -20.6692 36.0045 3.55
      vertex -19.935 34.29 3.55
      vertex 0.666744 18.669 3.55
    endloop
  endfacet
  facet normal 0 0 1
    outer loop
      vertex -24.6697 33.3375 3.55
      vertex -19.935 34.29 3.55
      vertex -20.6692 36.0045 3.55
    endloop
  endfacet
  facet normal 0 0 1
    outer loop
      vertex -19.935 34.29 3.55
      vertex -24.6697 33.3375 3.55
      vertex -23.625 31.62 3.55
    endloop
  endfacet
  facet normal -0 0 1
    outer loop
      vertex 24.895 30.99 3.55
      vertex 15.3352 8.00099 3.55
      vertex 26.0033 32.004 3.55
    endloop
  endfacet
  facet normal -0 0 1
    outer loop
      vertex 14.475 8.76 3.55
      vertex 15.3352 8.00099 3.55
      vertex 24.895 30.99 3.55
    endloop
  endfacet
  facet normal 0 0 1
    outer loop
      vertex 15.3352 8.00099 3.55
      vertex 14.475 8.76 3.55
      vertex 14.855 6.86001 3.55
    endloop
  endfacet
  facet normal 0 0 1
    outer loop
      vertex 2.415 4.7 3.55
      vertex 14.855 6.86001 3.55
      vertex 14.475 8.76 3.55
    endloop
  endfacet
  facet normal -0 0 1
    outer loop
      vertex 0.504993 4.7 3.55
      vertex 2.79499 3.30001 3.55
      vertex 2.415 4.7 3.55
    endloop
  endfacet
  facet normal 0 0 1
    outer loop
      vertex 14.855 6.86001 3.55
      vertex 2.415 4.7 3.55
      vertex 2.79499 3.30001 3.55
    endloop
  endfacet
  facet normal 0 0 1
    outer loop
      vertex 36.6712 -5.33399 3.55
      vertex 34.545 -5.58999 3.55
      vertex 35.3377 -10.668 3.55
    endloop
  endfacet
  facet normal 0 0 1
    outer loop
      vertex 15.3352 8.00099 3.55
      vertex 34.545 -5.58999 3.55
      vertex 36.6712 -5.33399 3.55
    endloop
  endfacet
  facet normal 0 0 1
    outer loop
      vertex 34.545 -5.58999 3.55
      vertex 15.3352 8.00099 3.55
      vertex 14.855 6.86001 3.55
    endloop
  endfacet
  facet normal -0 0 1
    outer loop
      vertex 33.275 -10.41 3.55
      vertex 35.3377 -10.668 3.55
      vertex 34.545 -5.58999 3.55
    endloop
  endfacet
  facet normal -0 0 1
    outer loop
      vertex 10.0012 -9.3345 3.55
      vertex 33.275 -10.41 3.55
      vertex 10.035 -9.27 3.55
    endloop
  endfacet
  facet normal 0 0 1
    outer loop
      vertex 33.275 -10.41 3.55
      vertex 10.0012 -9.3345 3.55
      vertex 35.3377 -10.668 3.55
    endloop
  endfacet
  facet normal 0 0 1
    outer loop
      vertex 10.035 -9.27 3.55
      vertex 8.76499 -10.03 3.55
      vertex 10.0012 -9.3345 3.55
    endloop
  endfacet
  facet normal 0 0 1
    outer loop
      vertex 2.665 0.130012 3.55
      vertex 8.76499 -10.03 3.55
      vertex 10.035 -9.27 3.55
    endloop
  endfacet
  facet normal 0 0 1
    outer loop
      vertex 2.665 0.130012 3.55
      vertex 1.39499 0.250007 3.55
      vertex 8.76499 -10.03 3.55
    endloop
  endfacet
  facet normal 0 0 1
    outer loop
      vertex 2.79499 3.30001 3.55
      vertex 1.39499 0.250007 3.55
      vertex 2.665 0.130012 3.55
    endloop
  endfacet
  facet normal 0 0 1
    outer loop
      vertex 2.79499 3.30001 3.55
      vertex 0.504993 4.7 3.55
      vertex 1.39499 0.250007 3.55
    endloop
  endfacet
  facet normal 0 0 1
    outer loop
      vertex -1.65501 0.380012 3.55
      vertex 0.504993 4.7 3.55
      vertex -0.765012 4.7 3.55
    endloop
  endfacet
  facet normal 0 0 1
    outer loop
      vertex 0.504993 4.7 3.55
      vertex -1.65501 0.380012 3.55
      vertex 1.39499 0.250007 3.55
    endloop
  endfacet
  facet normal 0 0 1
    outer loop
      vertex -0.765012 4.7 3.55
      vertex -2.66501 3.17 3.55
      vertex -1.65501 0.380012 3.55
    endloop
  endfacet
  facet normal -0 0 1
    outer loop
      vertex -3.425 4.57001 3.55
      vertex -2.66501 3.17 3.55
      vertex -0.765012 4.7 3.55
    endloop
  endfacet
  facet normal -0 0 1
    outer loop
      vertex -14.855 6.60001 3.55
      vertex -3.425 4.57001 3.55
      vertex -14.0017 8.00099 3.55
    endloop
  endfacet
  facet normal 0 0 1
    outer loop
      vertex -3.425 4.57001 3.55
      vertex -14.855 6.60001 3.55
      vertex -2.66501 3.17 3.55
    endloop
  endfacet
  facet normal 0 0 1
    outer loop
      vertex -36.6712 -6.66749 3.55
      vertex -14.855 6.60001 3.55
      vertex -14.0017 8.00099 3.55
    endloop
  endfacet
  facet normal 0 0 1
    outer loop
      vertex -14.855 6.60001 3.55
      vertex -36.6712 -6.66749 3.55
      vertex -34.165 -6.72999 3.55
    endloop
  endfacet
  facet normal -0 0 1
    outer loop
      vertex 8.76499 -10.03 3.55
      vertex 3.8016 -30 3.55
      vertex 10.0012 -9.3345 3.55
    endloop
  endfacet
  facet normal 0 -0 1
    outer loop
      vertex 3.8016 -30 3.55
      vertex 8.76499 -10.03 3.55
      vertex 3.05927 -30 3.55
    endloop
  endfacet
  facet normal -0.91381 0.406142 0
    outer loop
      vertex 15.3352 8.00099 3.55
      vertex 26.0033 32.004 5
      vertex 26.0033 32.004 3.55
    endloop
  endfacet
  facet normal -0.91381 0.406142 0
    outer loop
      vertex 26.0033 32.004 5
      vertex 15.3352 8.00099 3.55
      vertex 15.3352 8.00099 5
    endloop
  endfacet
  facet normal -0.529998 -0.847999 0
    outer loop
      vertex 15.3352 8.00099 3.55
      vertex 36.6712 -5.33399 5
      vertex 15.3352 8.00099 5
    endloop
  endfacet
  facet normal -0.529998 -0.847999 -0
    outer loop
      vertex 36.6712 -5.33399 5
      vertex 15.3352 8.00099 3.55
      vertex 36.6712 -5.33399 3.55
    endloop
  endfacet
  facet normal -0.970143 0.242535 0
    outer loop
      vertex 35.3377 -10.668 3.55
      vertex 36.6712 -5.33399 5
      vertex 36.6712 -5.33399 3.55
    endloop
  endfacet
  facet normal -0.970143 0.242535 0
    outer loop
      vertex 36.6712 -5.33399 5
      vertex 35.3377 -10.668 3.55
      vertex 35.3377 -10.668 5
    endloop
  endfacet
  facet normal 0.0525588 0.998618 -0
    outer loop
      vertex 35.3377 -10.668 3.55
      vertex 10.0012 -9.3345 5
      vertex 35.3377 -10.668 5
    endloop
  endfacet
  facet normal 0.0525588 0.998618 0
    outer loop
      vertex 10.0012 -9.3345 5
      vertex 35.3377 -10.668 3.55
      vertex 10.0012 -9.3345 3.55
    endloop
  endfacet
  facet normal -0.957827 0.287346 0
    outer loop
      vertex 3.8016 -30 3.55
      vertex 10.0012 -9.3345 5
      vertex 10.0012 -9.3345 3.55
    endloop
  endfacet
  facet normal -0.957827 0.287346 0
    outer loop
      vertex 10.0012 -9.3345 5
      vertex 3.8016 -30 3.55
      vertex 3.8016 -30 5
    endloop
  endfacet
  facet normal 0.967075 0.254493 0
    outer loop
      vertex -3.58038 -30 5
      vertex -8.66774 -10.668 3.55
      vertex -8.66774 -10.668 5
    endloop
  endfacet
  facet normal 0.967075 0.254493 0
    outer loop
      vertex -8.66774 -10.668 3.55
      vertex -3.58038 -30 5
      vertex -3.58038 -30 3.55
    endloop
  endfacet
  facet normal -0.0525589 0.998618 0
    outer loop
      vertex -8.66774 -10.668 3.55
      vertex -34.0042 -12.0015 5
      vertex -8.66774 -10.668 5
    endloop
  endfacet
  facet normal -0.0525589 0.998618 0
    outer loop
      vertex -34.0042 -12.0015 5
      vertex -8.66774 -10.668 3.55
      vertex -34.0042 -12.0015 3.55
    endloop
  endfacet
  facet normal 0.894428 0.447213 0
    outer loop
      vertex -34.0042 -12.0015 5
      vertex -36.6712 -6.66749 3.55
      vertex -36.6712 -6.66749 5
    endloop
  endfacet
  facet normal 0.894428 0.447213 0
    outer loop
      vertex -36.6712 -6.66749 3.55
      vertex -34.0042 -12.0015 5
      vertex -34.0042 -12.0015 3.55
    endloop
  endfacet
  facet normal 0.543251 -0.83957 0
    outer loop
      vertex -36.6712 -6.66749 3.55
      vertex -14.0017 8.00099 5
      vertex -36.6712 -6.66749 5
    endloop
  endfacet
  facet normal 0.543251 -0.83957 0
    outer loop
      vertex -14.0017 8.00099 5
      vertex -36.6712 -6.66749 3.55
      vertex -14.0017 8.00099 3.55
    endloop
  endfacet
  facet normal 0.921635 0.388057 0
    outer loop
      vertex -14.0017 8.00099 5
      vertex -24.6697 33.3375 3.55
      vertex -24.6697 33.3375 5
    endloop
  endfacet
  facet normal 0.921635 0.388057 0
    outer loop
      vertex -24.6697 33.3375 3.55
      vertex -14.0017 8.00099 5
      vertex -14.0017 8.00099 3.55
    endloop
  endfacet
  facet normal 0.5547 -0.83205 0
    outer loop
      vertex -24.6697 33.3375 3.55
      vertex -20.6692 36.0045 5
      vertex -24.6697 33.3375 5
    endloop
  endfacet
  facet normal 0.5547 -0.83205 0
    outer loop
      vertex -20.6692 36.0045 5
      vertex -24.6697 33.3375 3.55
      vertex -20.6692 36.0045 3.55
    endloop
  endfacet
  facet normal -0.630594 -0.776113 0
    outer loop
      vertex -20.6692 36.0045 3.55
      vertex 0.666744 18.669 5
      vertex -20.6692 36.0045 5
    endloop
  endfacet
  facet normal -0.630594 -0.776113 -0
    outer loop
      vertex 0.666744 18.669 5
      vertex -20.6692 36.0045 3.55
      vertex 0.666744 18.669 3.55
    endloop
  endfacet
  facet normal 0.631155 -0.775657 0
    outer loop
      vertex 0.666744 18.669 3.55
      vertex 21.9712 36.0045 5
      vertex 0.666744 18.669 5
    endloop
  endfacet
  facet normal 0.631155 -0.775657 0
    outer loop
      vertex 21.9712 36.0045 5
      vertex 0.666744 18.669 3.55
      vertex 21.9712 36.0045 3.55
    endloop
  endfacet
  facet normal -0.70432 -0.709883 0
    outer loop
      vertex 21.9712 36.0045 3.55
      vertex 26.0033 32.004 5
      vertex 21.9712 36.0045 5
    endloop
  endfacet
  facet normal -0.70432 -0.709883 -0
    outer loop
      vertex 26.0033 32.004 5
      vertex 21.9712 36.0045 3.55
      vertex 26.0033 32.004 3.55
    endloop
  endfacet
  facet normal 0 0 1
    outer loop
      vertex 10.9537 -10.2235 5
      vertex 3.8016 -30 5
      vertex 5 -30 5
    endloop
  endfacet
  facet normal -0 0 1
    outer loop
      vertex 21.9712 36.0045 5
      vertex 28.4797 35.052 5
      vertex 24.0637 39.4335 5
    endloop
  endfacet
  facet normal 0 0 1
    outer loop
      vertex 28.4797 35.052 5
      vertex 21.9712 36.0045 5
      vertex 26.0033 32.004 5
    endloop
  endfacet
  facet normal 0 0 1
    outer loop
      vertex 0.730243 20.447 5
      vertex 21.9712 36.0045 5
      vertex 24.0637 39.4335 5
    endloop
  endfacet
  facet normal -0 0 1
    outer loop
      vertex 0.730243 20.447 5
      vertex 0.666744 18.669 5
      vertex 21.9712 36.0045 5
    endloop
  endfacet
  facet normal 0 0 1
    outer loop
      vertex 0.730243 20.447 5
      vertex -20.6692 36.0045 5
      vertex 0.666744 18.669 5
    endloop
  endfacet
  facet normal 0 0 1
    outer loop
      vertex -22.6377 39.4335 5
      vertex -20.6692 36.0045 5
      vertex 0.730243 20.447 5
    endloop
  endfacet
  facet normal -0 0 1
    outer loop
      vertex -27.0192 36.5125 5
      vertex -20.6692 36.0045 5
      vertex -22.6377 39.4335 5
    endloop
  endfacet
  facet normal 0 0 1
    outer loop
      vertex -20.6692 36.0045 5
      vertex -27.0192 36.5125 5
      vertex -24.6697 33.3375 5
    endloop
  endfacet
  facet normal -0 0 1
    outer loop
      vertex 26.0033 32.004 5
      vertex 16.7957 8.76299 5
      vertex 28.4797 35.052 5
    endloop
  endfacet
  facet normal 0 -0 1
    outer loop
      vertex 16.7957 8.76299 5
      vertex 26.0033 32.004 5
      vertex 15.3352 8.00099 5
    endloop
  endfacet
  facet normal 0 0 1
    outer loop
      vertex 40.1637 -5.84198 5
      vertex 36.6712 -5.33399 5
      vertex 38.7032 -11.684 5
    endloop
  endfacet
  facet normal 0 0 1
    outer loop
      vertex 16.7957 8.76299 5
      vertex 36.6712 -5.33399 5
      vertex 40.1637 -5.84198 5
    endloop
  endfacet
  facet normal 0 0 1
    outer loop
      vertex 36.6712 -5.33399 5
      vertex 16.7957 8.76299 5
      vertex 15.3352 8.00099 5
    endloop
  endfacet
  facet normal -0 0 1
    outer loop
      vertex 35.3377 -10.668 5
      vertex 38.7032 -11.684 5
      vertex 36.6712 -5.33399 5
    endloop
  endfacet
  facet normal 0 0 1
    outer loop
      vertex 35.3377 -10.668 5
      vertex 10.9537 -10.2235 5
      vertex 38.7032 -11.684 5
    endloop
  endfacet
  facet normal 0 0 1
    outer loop
      vertex 10.0012 -9.3345 5
      vertex 10.9537 -10.2235 5
      vertex 35.3377 -10.668 5
    endloop
  endfacet
  facet normal 0 0 1
    outer loop
      vertex 3.8016 -30 5
      vertex 10.9537 -10.2235 5
      vertex 10.0012 -9.3345 5
    endloop
  endfacet
  facet normal 0 0 1
    outer loop
      vertex 10.9537 -10.2235 5
      vertex 5 -30 5
      vertex 5 -30.0693 5
    endloop
  endfacet
  facet normal 0 0 1
    outer loop
      vertex -24.6697 33.3375 5
      vertex -15.3352 8.76299 5
      vertex -14.0017 8.00099 5
    endloop
  endfacet
  facet normal 0 0 1
    outer loop
      vertex -15.3352 8.76299 5
      vertex -24.6697 33.3375 5
      vertex -27.0192 36.5125 5
    endloop
  endfacet
  facet normal 0 0 1
    outer loop
      vertex -15.3352 8.76299 5
      vertex -36.6712 -6.66749 5
      vertex -14.0017 8.00099 5
    endloop
  endfacet
  facet normal 0 0 1
    outer loop
      vertex -36.6712 -6.66749 5
      vertex -40.1637 -7.30249 5
      vertex -37.2427 -13.1445 5
    endloop
  endfacet
  facet normal 0 0 1
    outer loop
      vertex -40.1637 -7.30249 5
      vertex -36.6712 -6.66749 5
      vertex -15.3352 8.76299 5
    endloop
  endfacet
  facet normal -0 0 1
    outer loop
      vertex -9.49324 -11.684 5
      vertex -3.58038 -30 5
      vertex -8.66774 -10.668 5
    endloop
  endfacet
  facet normal 0 0 1
    outer loop
      vertex -3.58038 -30 5
      vertex -9.49324 -11.684 5
      vertex -4.67324 -30 5
    endloop
  endfacet
  facet normal 0 0 1
    outer loop
      vertex -34.0042 -12.0015 5
      vertex -9.49324 -11.684 5
      vertex -8.66774 -10.668 5
    endloop
  endfacet
  facet normal -0 0 1
    outer loop
      vertex -34.0042 -12.0015 5
      vertex -37.2427 -13.1445 5
      vertex -9.49324 -11.684 5
    endloop
  endfacet
  facet normal 0 0 1
    outer loop
      vertex -37.2427 -13.1445 5
      vertex -34.0042 -12.0015 5
      vertex -36.6712 -6.66749 5
    endloop
  endfacet
  facet normal 0 0 -1
    outer loop
      vertex 38.7032 -11.684 0
      vertex 33.275 -10.41 0
      vertex 34.545 -5.58999 0
    endloop
  endfacet
  facet normal 0 0 -1
    outer loop
      vertex 10.9537 -10.2235 0
      vertex 33.275 -10.41 0
      vertex 38.7032 -11.684 0
    endloop
  endfacet
  facet normal 0 0 -1
    outer loop
      vertex 10.9537 -10.2235 0
      vertex 10.035 -9.27 0
      vertex 33.275 -10.41 0
    endloop
  endfacet
  facet normal 0 0 -1
    outer loop
      vertex 10.9537 -10.2235 0
      vertex 8.76499 -10.03 0
      vertex 10.035 -9.27 0
    endloop
  endfacet
  facet normal 0 0 -1
    outer loop
      vertex 1.90499 -34.04 0
      vertex 10.9537 -10.2235 0
      vertex 2.19075 -39.4335 0
    endloop
  endfacet
  facet normal -0 0 -1
    outer loop
      vertex 10.9537 -10.2235 0
      vertex 1.90499 -34.04 0
      vertex 8.76499 -10.03 0
    endloop
  endfacet
  facet normal 0 0 -1
    outer loop
      vertex 2.19075 -39.4335 0
      vertex -1.90501 -34.04 0
      vertex 1.90499 -34.04 0
    endloop
  endfacet
  facet normal 0 0 -1
    outer loop
      vertex -2.19075 -39.4335 0
      vertex -1.90501 -34.04 0
      vertex 2.19075 -39.4335 0
    endloop
  endfacet
  facet normal 0 0 -1
    outer loop
      vertex -9.49324 -11.684 0
      vertex -1.90501 -34.04 0
      vertex -2.19075 -39.4335 0
    endloop
  endfacet
  facet normal 0 0 -1
    outer loop
      vertex -1.90501 -34.04 0
      vertex -9.49324 -11.684 0
      vertex -7.74501 -10.54 0
    endloop
  endfacet
  facet normal 0 0 -1
    outer loop
      vertex 34.545 -5.58999 0
      vertex 40.1637 -5.84198 0
      vertex 38.7032 -11.684 0
    endloop
  endfacet
  facet normal 0 0 -1
    outer loop
      vertex 34.545 -5.58999 0
      vertex 16.7957 8.76299 0
      vertex 40.1637 -5.84198 0
    endloop
  endfacet
  facet normal 0 -0 -1
    outer loop
      vertex 16.7957 8.76299 0
      vertex 34.545 -5.58999 0
      vertex 14.855 6.86001 0
    endloop
  endfacet
  facet normal 0 0 -1
    outer loop
      vertex 16.7957 8.76299 0
      vertex 24.895 30.99 0
      vertex 28.4797 35.052 0
    endloop
  endfacet
  facet normal 0 0 -1
    outer loop
      vertex 14.475 8.76 0
      vertex 16.7957 8.76299 0
      vertex 14.855 6.86001 0
    endloop
  endfacet
  facet normal -0 0 -1
    outer loop
      vertex 16.7957 8.76299 0
      vertex 14.475 8.76 0
      vertex 24.895 30.99 0
    endloop
  endfacet
  facet normal 0 0 -1
    outer loop
      vertex 2.415 4.7 0
      vertex 14.855 6.86001 0
      vertex 2.79499 3.30001 0
    endloop
  endfacet
  facet normal -0 0 -1
    outer loop
      vertex 14.855 6.86001 0
      vertex 2.415 4.7 0
      vertex 14.475 8.76 0
    endloop
  endfacet
  facet normal 0 0 -1
    outer loop
      vertex 1.39499 0.250007 0
      vertex 2.79499 3.30001 0
      vertex 2.665 0.130012 0
    endloop
  endfacet
  facet normal 0 0 -1
    outer loop
      vertex 20.825 33.78 0
      vertex 28.4797 35.052 0
      vertex 24.895 30.99 0
    endloop
  endfacet
  facet normal -0 0 -1
    outer loop
      vertex 28.4797 35.052 0
      vertex 20.825 33.78 0
      vertex 24.0637 39.4335 0
    endloop
  endfacet
  facet normal -0 0 -1
    outer loop
      vertex 20.825 33.78 0
      vertex 0.730243 20.447 0
      vertex 24.0637 39.4335 0
    endloop
  endfacet
  facet normal 0 0 -1
    outer loop
      vertex 0.634998 18.16 0
      vertex 0.730243 20.447 0
      vertex 20.825 33.78 0
    endloop
  endfacet
  facet normal 0 0 -1
    outer loop
      vertex -0.765012 4.7 0
      vertex 0.634998 18.16 0
      vertex 0.504993 4.7 0
    endloop
  endfacet
  facet normal 0 0 -1
    outer loop
      vertex -0.895001 18.29 0
      vertex 0.634998 18.16 0
      vertex -0.765012 4.7 0
    endloop
  endfacet
  facet normal 0 0 -1
    outer loop
      vertex 0.634998 18.16 0
      vertex -0.895001 18.29 0
      vertex 0.730243 20.447 0
    endloop
  endfacet
  facet normal 0 0 -1
    outer loop
      vertex -19.935 34.29 0
      vertex 0.730243 20.447 0
      vertex -0.895001 18.29 0
    endloop
  endfacet
  facet normal 0 0 -1
    outer loop
      vertex -19.935 34.29 0
      vertex -22.6377 39.4335 0
      vertex 0.730243 20.447 0
    endloop
  endfacet
  facet normal 0 0 -1
    outer loop
      vertex -27.0192 36.5125 0
      vertex -19.935 34.29 0
      vertex -23.625 31.62 0
    endloop
  endfacet
  facet normal 0 0 -1
    outer loop
      vertex -19.935 34.29 0
      vertex -27.0192 36.5125 0
      vertex -22.6377 39.4335 0
    endloop
  endfacet
  facet normal 0 0 -1
    outer loop
      vertex -34.165 -6.72999 0
      vertex -15.3352 8.76299 0
      vertex -14.855 6.60001 0
    endloop
  endfacet
  facet normal -0 0 -1
    outer loop
      vertex -34.165 -6.72999 0
      vertex -40.1637 -7.30249 0
      vertex -15.3352 8.76299 0
    endloop
  endfacet
  facet normal 0 0 -1
    outer loop
      vertex -40.1637 -7.30249 0
      vertex -34.165 -6.72999 0
      vertex -37.2427 -13.1445 0
    endloop
  endfacet
  facet normal 0 0 -1
    outer loop
      vertex -7.74501 -10.54 0
      vertex -2.66501 0.630012 0
      vertex -1.65501 0.380012 0
    endloop
  endfacet
  facet normal 0 0 -1
    outer loop
      vertex -10.285 -9.77999 0
      vertex -7.74501 -10.54 0
      vertex -9.49324 -11.684 0
    endloop
  endfacet
  facet normal 0 0 -1
    outer loop
      vertex -7.74501 -10.54 0
      vertex -10.285 -9.77999 0
      vertex -2.66501 0.630012 0
    endloop
  endfacet
  facet normal -0 0 -1
    outer loop
      vertex -9.49324 -11.684 0
      vertex -32.255 -11.69 0
      vertex -10.285 -9.77999 0
    endloop
  endfacet
  facet normal -0 0 -1
    outer loop
      vertex -32.255 -11.69 0
      vertex -37.2427 -13.1445 0
      vertex -34.165 -6.72999 0
    endloop
  endfacet
  facet normal 0 0 -1
    outer loop
      vertex -37.2427 -13.1445 0
      vertex -32.255 -11.69 0
      vertex -9.49324 -11.684 0
    endloop
  endfacet
  facet normal 0 0 -1
    outer loop
      vertex 8.76499 -10.03 0
      vertex 2.665 0.130012 0
      vertex 10.035 -9.27 0
    endloop
  endfacet
  facet normal 0 0 -1
    outer loop
      vertex 1.39499 0.250007 0
      vertex 2.665 0.130012 0
      vertex 8.76499 -10.03 0
    endloop
  endfacet
  facet normal 0 0 -1
    outer loop
      vertex 0.504993 4.7 0
      vertex 2.79499 3.30001 0
      vertex 1.39499 0.250007 0
    endloop
  endfacet
  facet normal 0 0 -1
    outer loop
      vertex 2.79499 3.30001 0
      vertex 0.504993 4.7 0
      vertex 2.415 4.7 0
    endloop
  endfacet
  facet normal 0 0 -1
    outer loop
      vertex -1.65501 0.380012 0
      vertex 0.504993 4.7 0
      vertex 1.39499 0.250007 0
    endloop
  endfacet
  facet normal -0 0 -1
    outer loop
      vertex 0.504993 4.7 0
      vertex -1.65501 0.380012 0
      vertex -0.765012 4.7 0
    endloop
  endfacet
  facet normal 0 0 -1
    outer loop
      vertex -2.66501 3.17 0
      vertex -1.65501 0.380012 0
      vertex -2.66501 0.630012 0
    endloop
  endfacet
  facet normal 0 0 -1
    outer loop
      vertex -1.65501 0.380012 0
      vertex -2.66501 3.17 0
      vertex -0.765012 4.7 0
    endloop
  endfacet
  facet normal 0 0 -1
    outer loop
      vertex -2.66501 3.17 0
      vertex -3.425 4.57001 0
      vertex -0.765012 4.7 0
    endloop
  endfacet
  facet normal 0 0 -1
    outer loop
      vertex -14.855 6.60001 0
      vertex -3.425 4.57001 0
      vertex -2.66501 3.17 0
    endloop
  endfacet
  facet normal 0 0 -1
    outer loop
      vertex -3.425 4.57001 0
      vertex -14.855 6.60001 0
      vertex -14.225 8.89001 0
    endloop
  endfacet
  facet normal 0 0 -1
    outer loop
      vertex -15.3352 8.76299 0
      vertex -14.225 8.89001 0
      vertex -14.855 6.60001 0
    endloop
  endfacet
  facet normal 0 0 -1
    outer loop
      vertex -15.3352 8.76299 0
      vertex -23.625 31.62 0
      vertex -14.225 8.89001 0
    endloop
  endfacet
  facet normal -0 -0 -1
    outer loop
      vertex -23.625 31.62 0
      vertex -15.3352 8.76299 0
      vertex -27.0192 36.5125 0
    endloop
  endfacet
  facet normal 0.913812 -0.406138 0
    outer loop
      vertex 16.7957 8.76299 5
      vertex 28.4797 35.052 0
      vertex 28.4797 35.052 5
    endloop
  endfacet
  facet normal 0.913812 -0.406138 0
    outer loop
      vertex 28.4797 35.052 0
      vertex 16.7957 8.76299 5
      vertex 16.7957 8.76299 0
    endloop
  endfacet
  facet normal 0.529998 0.847999 -0
    outer loop
      vertex 40.1637 -5.84198 0
      vertex 16.7957 8.76299 5
      vertex 40.1637 -5.84198 5
    endloop
  endfacet
  facet normal 0.529998 0.847999 0
    outer loop
      vertex 16.7957 8.76299 5
      vertex 40.1637 -5.84198 0
      vertex 16.7957 8.76299 0
    endloop
  endfacet
  facet normal 0.970143 -0.242535 0
    outer loop
      vertex 38.7032 -11.684 5
      vertex 40.1637 -5.84198 0
      vertex 40.1637 -5.84198 5
    endloop
  endfacet
  facet normal 0.970143 -0.242535 0
    outer loop
      vertex 40.1637 -5.84198 0
      vertex 38.7032 -11.684 5
      vertex 38.7032 -11.684 0
    endloop
  endfacet
  facet normal -0.0525588 -0.998618 0
    outer loop
      vertex 10.9537 -10.2235 0
      vertex 38.7032 -11.684 5
      vertex 10.9537 -10.2235 5
    endloop
  endfacet
  facet normal -0.0525588 -0.998618 -0
    outer loop
      vertex 38.7032 -11.684 5
      vertex 10.9537 -10.2235 0
      vertex 38.7032 -11.684 0
    endloop
  endfacet
  facet normal 0.957827 -0.287346 0
    outer loop
      vertex 5 -30.0693 3.5
      vertex 10.9537 -10.2235 5
      vertex 5 -30.0693 5
    endloop
  endfacet
  facet normal 0.957827 -0.287346 0
    outer loop
      vertex 10.9537 -10.2235 5
      vertex 5 -30.0693 3.5
      vertex 10.9537 -10.2235 0
    endloop
  endfacet
  facet normal 0.957827 -0.287347 0
    outer loop
      vertex 2.19075 -39.4335 0
      vertex 5 -30.0693 3.5
      vertex 2.19075 -39.4335 3.5
    endloop
  endfacet
  facet normal 0.957827 -0.287346 -1.64995e-06
    outer loop
      vertex 5 -30.0693 3.5
      vertex 2.19075 -39.4335 0
      vertex 10.9537 -10.2235 0
    endloop
  endfacet
  facet normal 0 -1 0
    outer loop
      vertex -2.19075 -39.4335 0
      vertex 2.19075 -39.4335 3.5
      vertex -2.19075 -39.4335 3.5
    endloop
  endfacet
  facet normal 0 -1 -0
    outer loop
      vertex 2.19075 -39.4335 3.5
      vertex -2.19075 -39.4335 0
      vertex 2.19075 -39.4335 0
    endloop
  endfacet
  facet normal -0.967075 -0.254493 0
    outer loop
      vertex -9.49324 -11.684 0
      vertex -4.67324 -30 3.5
      vertex -9.49324 -11.684 5
    endloop
  endfacet
  facet normal -0.967075 -0.254493 1.82376e-06
    outer loop
      vertex -2.19075 -39.4335 0
      vertex -4.67324 -30 3.5
      vertex -9.49324 -11.684 0
    endloop
  endfacet
  facet normal -0.967075 -0.254492 0
    outer loop
      vertex -4.67324 -30 3.5
      vertex -2.19075 -39.4335 0
      vertex -2.19075 -39.4335 3.5
    endloop
  endfacet
  facet normal -0.967075 -0.254493 0
    outer loop
      vertex -9.49324 -11.684 5
      vertex -4.67324 -30 3.5
      vertex -4.67324 -30 5
    endloop
  endfacet
  facet normal 0.0525589 -0.998618 0
    outer loop
      vertex -37.2427 -13.1445 0
      vertex -9.49324 -11.684 5
      vertex -37.2427 -13.1445 5
    endloop
  endfacet
  facet normal 0.0525589 -0.998618 0
    outer loop
      vertex -9.49324 -11.684 5
      vertex -37.2427 -13.1445 0
      vertex -9.49324 -11.684 0
    endloop
  endfacet
  facet normal -0.894427 -0.447213 0
    outer loop
      vertex -37.2427 -13.1445 0
      vertex -40.1637 -7.30249 5
      vertex -40.1637 -7.30249 0
    endloop
  endfacet
  facet normal -0.894427 -0.447213 0
    outer loop
      vertex -40.1637 -7.30249 5
      vertex -37.2427 -13.1445 0
      vertex -37.2427 -13.1445 5
    endloop
  endfacet
  facet normal -0.543251 0.83957 0
    outer loop
      vertex -15.3352 8.76299 0
      vertex -40.1637 -7.30249 5
      vertex -15.3352 8.76299 5
    endloop
  endfacet
  facet normal -0.543251 0.83957 0
    outer loop
      vertex -40.1637 -7.30249 5
      vertex -15.3352 8.76299 0
      vertex -40.1637 -7.30249 0
    endloop
  endfacet
  facet normal -0.921635 -0.388057 0
    outer loop
      vertex -15.3352 8.76299 0
      vertex -27.0192 36.5125 5
      vertex -27.0192 36.5125 0
    endloop
  endfacet
  facet normal -0.921635 -0.388057 0
    outer loop
      vertex -27.0192 36.5125 5
      vertex -15.3352 8.76299 0
      vertex -15.3352 8.76299 5
    endloop
  endfacet
  facet normal -0.5547 0.83205 0
    outer loop
      vertex -22.6377 39.4335 0
      vertex -27.0192 36.5125 5
      vertex -22.6377 39.4335 5
    endloop
  endfacet
  facet normal -0.5547 0.83205 0
    outer loop
      vertex -27.0192 36.5125 5
      vertex -22.6377 39.4335 0
      vertex -27.0192 36.5125 0
    endloop
  endfacet
  facet normal 0.630594 0.776113 -0
    outer loop
      vertex 0.730243 20.447 0
      vertex -22.6377 39.4335 5
      vertex 0.730243 20.447 5
    endloop
  endfacet
  facet normal 0.630594 0.776113 0
    outer loop
      vertex -22.6377 39.4335 5
      vertex 0.730243 20.447 0
      vertex -22.6377 39.4335 0
    endloop
  endfacet
  facet normal -0.631154 0.775657 0
    outer loop
      vertex 24.0637 39.4335 0
      vertex 0.730243 20.447 5
      vertex 24.0637 39.4335 5
    endloop
  endfacet
  facet normal -0.631154 0.775657 0
    outer loop
      vertex 0.730243 20.447 5
      vertex 24.0637 39.4335 0
      vertex 0.730243 20.447 0
    endloop
  endfacet
  facet normal 0.704328 0.709874 -0
    outer loop
      vertex 28.4797 35.052 0
      vertex 24.0637 39.4335 5
      vertex 28.4797 35.052 5
    endloop
  endfacet
  facet normal 0.704328 0.709874 0
    outer loop
      vertex 24.0637 39.4335 5
      vertex 28.4797 35.052 0
      vertex 24.0637 39.4335 0
    endloop
  endfacet
  facet normal -1 0 0
    outer loop
      vertex 5 -30.0693 3.5
      vertex 5 -30 5
      vertex 5 -30 3.5
    endloop
  endfacet
  facet normal -1 -0 0
    outer loop
      vertex 5 -30 5
      vertex 5 -30.0693 3.5
      vertex 5 -30.0693 5
    endloop
  endfacet
  facet normal -0 0 1
    outer loop
      vertex 3.05927 -30 3.5
      vertex 5 -30.0693 3.5
      vertex 5 -30 3.5
    endloop
  endfacet
  facet normal 0 0 1
    outer loop
      vertex 1.90499 -34.04 3.5
      vertex 5 -30.0693 3.5
      vertex 3.05927 -30 3.5
    endloop
  endfacet
  facet normal 0 0 1
    outer loop
      vertex 5 -30.0693 3.5
      vertex 1.90499 -34.04 3.5
      vertex 2.19075 -39.4335 3.5
    endloop
  endfacet
  facet normal -0 0 1
    outer loop
      vertex -1.90501 -34.04 3.5
      vertex 2.19075 -39.4335 3.5
      vertex 1.90499 -34.04 3.5
    endloop
  endfacet
  facet normal 0 0 1
    outer loop
      vertex -1.90501 -34.04 3.5
      vertex -2.19075 -39.4335 3.5
      vertex 2.19075 -39.4335 3.5
    endloop
  endfacet
  facet normal -0 0 1
    outer loop
      vertex -4.67324 -30 3.5
      vertex -1.90501 -34.04 3.5
      vertex -2.90899 -30 3.5
    endloop
  endfacet
  facet normal 0 0 1
    outer loop
      vertex -1.90501 -34.04 3.5
      vertex -4.67324 -30 3.5
      vertex -2.19075 -39.4335 3.5
    endloop
  endfacet
  facet normal 0 -1 0
    outer loop
      vertex 3.05927 -30 3.55
      vertex 3.05927 -30 3.5
      vertex 3.8016 -30 3.55
    endloop
  endfacet
  facet normal 0 -1 0
    outer loop
      vertex 3.8016 -30 3.55
      vertex 5 -30 5
      vertex 3.8016 -30 5
    endloop
  endfacet
  facet normal 0 -1 0
    outer loop
      vertex 3.8016 -30 3.55
      vertex 5 -30 3.5
      vertex 5 -30 5
    endloop
  endfacet
  facet normal 0 -1 0
    outer loop
      vertex 5 -30 3.5
      vertex 3.8016 -30 3.55
      vertex 3.05927 -30 3.5
    endloop
  endfacet
  facet normal 0 -1 0
    outer loop
      vertex -4.67324 -30 5
      vertex -3.58038 -30 3.55
      vertex -3.58038 -30 5
    endloop
  endfacet
  facet normal 0 -1 0
    outer loop
      vertex -4.67324 -30 3.5
      vertex -3.58038 -30 3.55
      vertex -4.67324 -30 5
    endloop
  endfacet
  facet normal 0 -1 0
    outer loop
      vertex -2.90899 -30 3.5
      vertex -3.58038 -30 3.55
      vertex -4.67324 -30 3.5
    endloop
  endfacet
  facet normal 0 -1 0
    outer loop
      vertex -3.58038 -30 3.55
      vertex -2.90899 -30 3.5
      vertex -2.90899 -30 3.55
    endloop
  endfacet
endsolid OpenSCAD_Model
