  0
SECTION
  2
BLOCKS
  0
ENDSEC
  0
SECTION
  2
ENTITIES
  0
LINE
  8
0
 10
82.927
 11
83.6075
 20
-2.85316
 21
-2.53297
  0
LINE
  8
0
 10
83.6075
 11
84.1869
 20
-2.53297
 21
-2.05363
  0
LINE
  8
0
 10
84.1869
 11
84.6289
 20
-2.05363
 21
-1.44525
  0
LINE
  8
0
 10
84.6289
 11
84.9057
 20
-1.44525
 21
-0.746063
  0
LINE
  8
0
 10
84.9057
 11
85
 20
-0.746063
 21
0
  0
LINE
  8
0
 10
85
 11
85
 20
0
 21
98
  0
LINE
  8
0
 10
85
 11
84.9057
 20
98
 21
98.7461
  0
LINE
  8
0
 10
84.9057
 11
84.6289
 20
98.7461
 21
99.4453
  0
LINE
  8
0
 10
84.6289
 11
84.1869
 20
99.4453
 21
100.054
  0
LINE
  8
0
 10
84.1869
 11
83.6075
 20
100.054
 21
100.533
  0
LINE
  8
0
 10
83.6075
 11
82.927
 20
100.533
 21
100.853
  0
LINE
  8
0
 10
82.927
 11
82.1884
 20
100.853
 21
100.994
  0
LINE
  8
0
 10
82.1884
 11
0.18837
 20
100.994
 21
100.994
  0
LINE
  8
0
 10
0.18837
 11
-0.562134
 20
100.994
 21
100.947
  0
LINE
  8
0
 10
-0.562134
 11
-1.27733
 20
100.947
 21
100.714
  0
LINE
  8
0
 10
-1.27733
 11
-1.91226
 20
100.714
 21
100.312
  0
LINE
  8
0
 10
-1.91226
 11
-2.42705
 20
100.312
 21
99.7634
  0
LINE
  8
0
 10
-2.42705
 11
-2.78932
 20
99.7634
 21
99.1044
  0
LINE
  8
0
 10
-2.78932
 11
-2.97633
 20
99.1044
 21
98.376
  0
LINE
  8
0
 10
-2.97633
 11
-2.97633
 20
98.376
 21
-0.375992
  0
LINE
  8
0
 10
-2.97633
 11
-2.78932
 20
-0.375992
 21
-1.10437
  0
LINE
  8
0
 10
-2.78932
 11
-2.42705
 20
-1.10437
 21
-1.76335
  0
LINE
  8
0
 10
-2.42705
 11
-1.91226
 20
-1.76335
 21
-2.31154
  0
LINE
  8
0
 10
-1.91226
 11
-1.27733
 20
-2.31154
 21
-2.71448
  0
LINE
  8
0
 10
-1.27733
 11
-0.562134
 20
-2.71448
 21
-2.94685
  0
LINE
  8
0
 10
-0.562134
 11
0.18837
 20
-2.94685
 21
-2.99408
  0
LINE
  8
0
 10
0.18837
 11
82.1884
 20
-2.99408
 21
-2.99408
  0
LINE
  8
0
 10
82.1884
 11
82.927
 20
-2.99408
 21
-2.85316
  0
LINE
  8
0
 10
14.1097
 11
13.2753
 20
78.5325
 21
78.8628
  0
LINE
  8
0
 10
13.2753
 11
12.5493
 20
78.8628
 21
79.3903
  0
LINE
  8
0
 10
12.5493
 11
11.9773
 20
79.3903
 21
80.0817
  0
LINE
  8
0
 10
11.9773
 11
11.5952
 20
80.0817
 21
80.8937
  0
LINE
  8
0
 10
11.5952
 11
11.4271
 20
80.8937
 21
81.7752
  0
LINE
  8
0
 10
11.4271
 11
11.4834
 20
81.7752
 21
82.6708
  0
LINE
  8
0
 10
11.4834
 11
11.7607
 20
82.6708
 21
83.5243
  0
LINE
  8
0
 10
11.7607
 11
12.2416
 20
83.5243
 21
84.282
  0
LINE
  8
0
 10
12.2416
 11
12.8957
 20
84.282
 21
84.8963
  0
LINE
  8
0
 10
12.8957
 11
13.6821
 20
84.8963
 21
85.3286
  0
LINE
  8
0
 10
13.6821
 11
14.5513
 20
85.3286
 21
85.5518
  0
LINE
  8
0
 10
14.5513
 11
15.4487
 20
85.5518
 21
85.5518
  0
LINE
  8
0
 10
15.4487
 11
16.3179
 20
85.5518
 21
85.3286
  0
LINE
  8
0
 10
16.3179
 11
17.1043
 20
85.3286
 21
84.8963
  0
LINE
  8
0
 10
17.1043
 11
17.7584
 20
84.8963
 21
84.282
  0
LINE
  8
0
 10
17.7584
 11
18.2393
 20
84.282
 21
83.5243
  0
LINE
  8
0
 10
18.2393
 11
18.5166
 20
83.5243
 21
82.6708
  0
LINE
  8
0
 10
18.5166
 11
18.5729
 20
82.6708
 21
81.7752
  0
LINE
  8
0
 10
18.5729
 11
18.4048
 20
81.7752
 21
80.8937
  0
LINE
  8
0
 10
18.4048
 11
18.0227
 20
80.8937
 21
80.0817
  0
LINE
  8
0
 10
18.0227
 11
17.4507
 20
80.0817
 21
79.3903
  0
LINE
  8
0
 10
17.4507
 11
16.7247
 20
79.3903
 21
78.8628
  0
LINE
  8
0
 10
16.7247
 11
15.8903
 20
78.8628
 21
78.5325
  0
LINE
  8
0
 10
15.8903
 11
15
 20
78.5325
 21
78.42
  0
LINE
  8
0
 10
15
 11
14.1097
 20
78.42
 21
78.5325
  0
LINE
  8
0
 10
66.1097
 11
65.2753
 20
78.5325
 21
78.8628
  0
LINE
  8
0
 10
65.2753
 11
64.5493
 20
78.8628
 21
79.3903
  0
LINE
  8
0
 10
64.5493
 11
63.9773
 20
79.3903
 21
80.0817
  0
LINE
  8
0
 10
63.9773
 11
63.5952
 20
80.0817
 21
80.8937
  0
LINE
  8
0
 10
63.5952
 11
63.4271
 20
80.8937
 21
81.7752
  0
LINE
  8
0
 10
63.4271
 11
63.4834
 20
81.7752
 21
82.6708
  0
LINE
  8
0
 10
63.4834
 11
63.7607
 20
82.6708
 21
83.5243
  0
LINE
  8
0
 10
63.7607
 11
64.2416
 20
83.5243
 21
84.282
  0
LINE
  8
0
 10
64.2416
 11
64.8957
 20
84.282
 21
84.8963
  0
LINE
  8
0
 10
64.8957
 11
65.6821
 20
84.8963
 21
85.3286
  0
LINE
  8
0
 10
65.6821
 11
66.5513
 20
85.3286
 21
85.5518
  0
LINE
  8
0
 10
66.5513
 11
67.4487
 20
85.5518
 21
85.5518
  0
LINE
  8
0
 10
67.4487
 11
68.3179
 20
85.5518
 21
85.3286
  0
LINE
  8
0
 10
68.3179
 11
69.1043
 20
85.3286
 21
84.8963
  0
LINE
  8
0
 10
69.1043
 11
69.7584
 20
84.8963
 21
84.282
  0
LINE
  8
0
 10
69.7584
 11
70.2393
 20
84.282
 21
83.5243
  0
LINE
  8
0
 10
70.2393
 11
70.5166
 20
83.5243
 21
82.6708
  0
LINE
  8
0
 10
70.5166
 11
70.5729
 20
82.6708
 21
81.7752
  0
LINE
  8
0
 10
70.5729
 11
70.4048
 20
81.7752
 21
80.8937
  0
LINE
  8
0
 10
70.4048
 11
70.0227
 20
80.8937
 21
80.0817
  0
LINE
  8
0
 10
70.0227
 11
69.4507
 20
80.0817
 21
79.3903
  0
LINE
  8
0
 10
69.4507
 11
68.7247
 20
79.3903
 21
78.8628
  0
LINE
  8
0
 10
68.7247
 11
67.8903
 20
78.8628
 21
78.5325
  0
LINE
  8
0
 10
67.8903
 11
67
 20
78.5325
 21
78.42
  0
LINE
  8
0
 10
67
 11
66.1097
 20
78.42
 21
78.5325
  0
LINE
  8
0
 10
40.1097
 11
39.2753
 20
66.5325
 21
66.8628
  0
LINE
  8
0
 10
39.2753
 11
38.5493
 20
66.8628
 21
67.3903
  0
LINE
  8
0
 10
38.5493
 11
37.9773
 20
67.3903
 21
68.0817
  0
LINE
  8
0
 10
37.9773
 11
37.5952
 20
68.0817
 21
68.8937
  0
LINE
  8
0
 10
37.5952
 11
37.4271
 20
68.8937
 21
69.7752
  0
LINE
  8
0
 10
37.4271
 11
37.4834
 20
69.7752
 21
70.6708
  0
LINE
  8
0
 10
37.4834
 11
37.7607
 20
70.6708
 21
71.5243
  0
LINE
  8
0
 10
37.7607
 11
38.2416
 20
71.5243
 21
72.282
  0
LINE
  8
0
 10
38.2416
 11
38.8957
 20
72.282
 21
72.8963
  0
LINE
  8
0
 10
38.8957
 11
39.6821
 20
72.8963
 21
73.3286
  0
LINE
  8
0
 10
39.6821
 11
40.5513
 20
73.3286
 21
73.5518
  0
LINE
  8
0
 10
40.5513
 11
41.4487
 20
73.5518
 21
73.5518
  0
LINE
  8
0
 10
41.4487
 11
42.3179
 20
73.5518
 21
73.3286
  0
LINE
  8
0
 10
42.3179
 11
43.1043
 20
73.3286
 21
72.8963
  0
LINE
  8
0
 10
43.1043
 11
43.7584
 20
72.8963
 21
72.282
  0
LINE
  8
0
 10
43.7584
 11
44.2393
 20
72.282
 21
71.5243
  0
LINE
  8
0
 10
44.2393
 11
44.5166
 20
71.5243
 21
70.6708
  0
LINE
  8
0
 10
44.5166
 11
44.5729
 20
70.6708
 21
69.7752
  0
LINE
  8
0
 10
44.5729
 11
44.4048
 20
69.7752
 21
68.8937
  0
LINE
  8
0
 10
44.4048
 11
44.0227
 20
68.8937
 21
68.0817
  0
LINE
  8
0
 10
44.0227
 11
43.4507
 20
68.0817
 21
67.3903
  0
LINE
  8
0
 10
43.4507
 11
42.7247
 20
67.3903
 21
66.8628
  0
LINE
  8
0
 10
42.7247
 11
41.8903
 20
66.8628
 21
66.5325
  0
LINE
  8
0
 10
41.8903
 11
41
 20
66.5325
 21
66.42
  0
LINE
  8
0
 10
41
 11
40.1097
 20
66.42
 21
66.5325
  0
LINE
  8
0
 10
50.042
 11
49.3389
 20
39.0517
 21
39.3826
  0
LINE
  8
0
 10
49.3389
 11
48.7402
 20
39.3826
 21
39.8779
  0
LINE
  8
0
 10
48.7402
 11
48.2834
 20
39.8779
 21
40.5066
  0
LINE
  8
0
 10
48.2834
 11
47.9974
 20
40.5066
 21
41.229
  0
LINE
  8
0
 10
47.9974
 11
47.9
 20
41.229
 21
42
  0
LINE
  8
0
 10
47.9
 11
47.9974
 20
42
 21
42.7709
  0
LINE
  8
0
 10
47.9974
 11
48.2834
 20
42.7709
 21
43.4934
  0
LINE
  8
0
 10
48.2834
 11
48.7402
 20
43.4934
 21
44.1221
  0
LINE
  8
0
 10
48.7402
 11
49.3389
 20
44.1221
 21
44.6174
  0
LINE
  8
0
 10
49.3389
 11
50.042
 20
44.6174
 21
44.9483
  0
LINE
  8
0
 10
50.042
 11
50.8053
 20
44.9483
 21
45.0939
  0
LINE
  8
0
 10
50.8053
 11
51.5809
 20
45.0939
 21
45.0451
  0
LINE
  8
0
 10
51.5809
 11
52.3199
 20
45.0451
 21
44.805
  0
LINE
  8
0
 10
52.3199
 11
52.976
 20
44.805
 21
44.3886
  0
LINE
  8
0
 10
52.976
 11
53.5079
 20
44.3886
 21
43.8221
  0
LINE
  8
0
 10
53.5079
 11
53.8823
 20
43.8221
 21
43.1412
  0
LINE
  8
0
 10
53.8823
 11
54.0755
 20
43.1412
 21
42.3885
  0
LINE
  8
0
 10
54.0755
 11
54.0755
 20
42.3885
 21
41.6115
  0
LINE
  8
0
 10
54.0755
 11
53.8823
 20
41.6115
 21
40.8588
  0
LINE
  8
0
 10
53.8823
 11
53.5079
 20
40.8588
 21
40.1779
  0
LINE
  8
0
 10
53.5079
 11
52.976
 20
40.1779
 21
39.6114
  0
LINE
  8
0
 10
52.976
 11
52.3199
 20
39.6114
 21
39.195
  0
LINE
  8
0
 10
52.3199
 11
51.5809
 20
39.195
 21
38.9549
  0
LINE
  8
0
 10
51.5809
 11
50.8053
 20
38.9549
 21
38.9061
  0
LINE
  8
0
 10
50.8053
 11
50.042
 20
38.9061
 21
39.0517
  0
LINE
  8
0
 10
10.1273
 11
8.75288
 20
9.23659
 21
9.88336
  0
LINE
  8
0
 10
8.75288
 11
7.58244
 20
9.88336
 21
10.8516
  0
LINE
  8
0
 10
7.58244
 11
6.68958
 20
10.8516
 21
12.0806
  0
LINE
  8
0
 10
6.68958
 11
6.13037
 20
12.0806
 21
13.4929
  0
LINE
  8
0
 10
6.13037
 11
5.93999
 20
13.4929
 21
15
  0
LINE
  8
0
 10
5.93999
 11
6.13037
 20
15
 21
16.507
  0
LINE
  8
0
 10
6.13037
 11
6.68958
 20
16.507
 21
17.9194
  0
LINE
  8
0
 10
6.68958
 11
7.58244
 20
17.9194
 21
19.1483
  0
LINE
  8
0
 10
7.58244
 11
8.75288
 20
19.1483
 21
20.1166
  0
LINE
  8
0
 10
8.75288
 11
10.1273
 20
20.1166
 21
20.7634
  0
LINE
  8
0
 10
10.1273
 11
11.6195
 20
20.7634
 21
21.048
  0
LINE
  8
0
 10
11.6195
 11
13.1355
 20
21.048
 21
20.9527
  0
LINE
  8
0
 10
13.1355
 11
14.5802
 20
20.9527
 21
20.4832
  0
LINE
  8
0
 10
14.5802
 11
15.8628
 20
20.4832
 21
19.6693
  0
LINE
  8
0
 10
15.8628
 11
16.9026
 20
19.6693
 21
18.562
  0
LINE
  8
0
 10
16.9026
 11
17.6344
 20
18.562
 21
17.2308
  0
LINE
  8
0
 10
17.6344
 11
18.0122
 20
17.2308
 21
15.7595
  0
LINE
  8
0
 10
18.0122
 11
18.0122
 20
15.7595
 21
14.2405
  0
LINE
  8
0
 10
18.0122
 11
17.6344
 20
14.2405
 21
12.7692
  0
LINE
  8
0
 10
17.6344
 11
16.9026
 20
12.7692
 21
11.438
  0
LINE
  8
0
 10
16.9026
 11
15.8628
 20
11.438
 21
10.3307
  0
LINE
  8
0
 10
15.8628
 11
14.5802
 20
10.3307
 21
9.51674
  0
LINE
  8
0
 10
14.5802
 11
13.1355
 20
9.51674
 21
9.04733
  0
LINE
  8
0
 10
13.1355
 11
11.6195
 20
9.04733
 21
8.95195
  0
LINE
  8
0
 10
11.6195
 11
10.1273
 20
8.95195
 21
9.23659
  0
LINE
  8
0
 10
68.1273
 11
66.7529
 20
9.23659
 21
9.88336
  0
LINE
  8
0
 10
66.7529
 11
65.5824
 20
9.88336
 21
10.8516
  0
LINE
  8
0
 10
65.5824
 11
64.6896
 20
10.8516
 21
12.0806
  0
LINE
  8
0
 10
64.6896
 11
64.1304
 20
12.0806
 21
13.4929
  0
LINE
  8
0
 10
64.1304
 11
63.94
 20
13.4929
 21
15
  0
LINE
  8
0
 10
63.94
 11
64.1304
 20
15
 21
16.507
  0
LINE
  8
0
 10
64.1304
 11
64.6896
 20
16.507
 21
17.9194
  0
LINE
  8
0
 10
64.6896
 11
65.5824
 20
17.9194
 21
19.1483
  0
LINE
  8
0
 10
65.5824
 11
66.7529
 20
19.1483
 21
20.1166
  0
LINE
  8
0
 10
66.7529
 11
68.1273
 20
20.1166
 21
20.7634
  0
LINE
  8
0
 10
68.1273
 11
69.6195
 20
20.7634
 21
21.048
  0
LINE
  8
0
 10
69.6195
 11
71.1355
 20
21.048
 21
20.9527
  0
LINE
  8
0
 10
71.1355
 11
72.5802
 20
20.9527
 21
20.4832
  0
LINE
  8
0
 10
72.5802
 11
73.8628
 20
20.4832
 21
19.6693
  0
LINE
  8
0
 10
73.8628
 11
74.9026
 20
19.6693
 21
18.562
  0
LINE
  8
0
 10
74.9026
 11
75.6344
 20
18.562
 21
17.2308
  0
LINE
  8
0
 10
75.6344
 11
76.0122
 20
17.2308
 21
15.7595
  0
LINE
  8
0
 10
76.0122
 11
76.0122
 20
15.7595
 21
14.2405
  0
LINE
  8
0
 10
76.0122
 11
75.6344
 20
14.2405
 21
12.7692
  0
LINE
  8
0
 10
75.6344
 11
74.9026
 20
12.7692
 21
11.438
  0
LINE
  8
0
 10
74.9026
 11
73.8628
 20
11.438
 21
10.3307
  0
LINE
  8
0
 10
73.8628
 11
72.5802
 20
10.3307
 21
9.51674
  0
LINE
  8
0
 10
72.5802
 11
71.1355
 20
9.51674
 21
9.04733
  0
LINE
  8
0
 10
71.1355
 11
69.6195
 20
9.04733
 21
8.95195
  0
LINE
  8
0
 10
69.6195
 11
68.1273
 20
8.95195
 21
9.23659
  0
LINE
  8
0
 10
39.9339
 11
39.1514
 20
11.7188
 21
12.0871
  0
LINE
  8
0
 10
39.1514
 11
38.485
 20
12.0871
 21
12.6383
  0
LINE
  8
0
 10
38.485
 11
37.9767
 20
12.6383
 21
13.3379
  0
LINE
  8
0
 10
37.9767
 11
37.6584
 20
13.3379
 21
14.142
  0
LINE
  8
0
 10
37.6584
 11
37.55
 20
14.142
 21
15
  0
LINE
  8
0
 10
37.55
 11
37.6584
 20
15
 21
15.858
  0
LINE
  8
0
 10
37.6584
 11
37.9767
 20
15.858
 21
16.662
  0
LINE
  8
0
 10
37.9767
 11
38.485
 20
16.662
 21
17.3617
  0
LINE
  8
0
 10
38.485
 11
39.1514
 20
17.3617
 21
17.9129
  0
LINE
  8
0
 10
39.1514
 11
39.9339
 20
17.9129
 21
18.2811
  0
LINE
  8
0
 10
39.9339
 11
40.7834
 20
18.2811
 21
18.4432
  0
LINE
  8
0
 10
40.7834
 11
41.6465
 20
18.4432
 21
18.3889
  0
LINE
  8
0
 10
41.6465
 11
42.4689
 20
18.3889
 21
18.1216
  0
LINE
  8
0
 10
42.4689
 11
43.1991
 20
18.1216
 21
17.6583
  0
LINE
  8
0
 10
43.1991
 11
43.7911
 20
17.6583
 21
17.0278
  0
LINE
  8
0
 10
43.7911
 11
44.2077
 20
17.0278
 21
16.27
  0
LINE
  8
0
 10
44.2077
 11
44.4228
 20
16.27
 21
15.4324
  0
LINE
  8
0
 10
44.4228
 11
44.4228
 20
15.4324
 21
14.5676
  0
LINE
  8
0
 10
44.4228
 11
44.2077
 20
14.5676
 21
13.73
  0
LINE
  8
0
 10
44.2077
 11
43.7911
 20
13.73
 21
12.9721
  0
LINE
  8
0
 10
43.7911
 11
43.1991
 20
12.9721
 21
12.3417
  0
LINE
  8
0
 10
43.1991
 11
42.4689
 20
12.3417
 21
11.8783
  0
LINE
  8
0
 10
42.4689
 11
41.6465
 20
11.8783
 21
11.6111
  0
LINE
  8
0
 10
41.6465
 11
40.7834
 20
11.6111
 21
11.5568
  0
LINE
  8
0
 10
40.7834
 11
39.9339
 20
11.5568
 21
11.7188
  0
ENDSEC
  0
SECTION
  2
OBJECTS
  0
DICTIONARY
  0
ENDSEC
  0
EOF
