  0
SECTION
  2
BLOCKS
  0
ENDSEC
  0
SECTION
  2
ENTITIES
  0
LINE
  8
0
 10
62.927
 11
63.6075
 20
-2.85316
 21
-2.53297
  0
LINE
  8
0
 10
63.6075
 11
64.1869
 20
-2.53297
 21
-2.05363
  0
LINE
  8
0
 10
64.1869
 11
64.6289
 20
-2.05363
 21
-1.44525
  0
LINE
  8
0
 10
64.6289
 11
64.9057
 20
-1.44525
 21
-0.746063
  0
LINE
  8
0
 10
64.9057
 11
65
 20
-0.746063
 21
0
  0
LINE
  8
0
 10
65
 11
65
 20
0
 21
98
  0
LINE
  8
0
 10
65
 11
64.9057
 20
98
 21
98.7461
  0
LINE
  8
0
 10
64.9057
 11
64.6289
 20
98.7461
 21
99.4453
  0
LINE
  8
0
 10
64.6289
 11
64.1869
 20
99.4453
 21
100.054
  0
LINE
  8
0
 10
64.1869
 11
63.6075
 20
100.054
 21
100.533
  0
LINE
  8
0
 10
63.6075
 11
62.927
 20
100.533
 21
100.853
  0
LINE
  8
0
 10
62.927
 11
62.1884
 20
100.853
 21
100.994
  0
LINE
  8
0
 10
62.1884
 11
0.18837
 20
100.994
 21
100.994
  0
LINE
  8
0
 10
0.18837
 11
-0.562134
 20
100.994
 21
100.947
  0
LINE
  8
0
 10
-0.562134
 11
-1.27733
 20
100.947
 21
100.714
  0
LINE
  8
0
 10
-1.27733
 11
-1.91226
 20
100.714
 21
100.312
  0
LINE
  8
0
 10
-1.91226
 11
-2.42705
 20
100.312
 21
99.7634
  0
LINE
  8
0
 10
-2.42705
 11
-2.78932
 20
99.7634
 21
99.1044
  0
LINE
  8
0
 10
-2.78932
 11
-2.97633
 20
99.1044
 21
98.376
  0
LINE
  8
0
 10
-2.97633
 11
-2.97633
 20
98.376
 21
-0.375992
  0
LINE
  8
0
 10
-2.97633
 11
-2.78932
 20
-0.375992
 21
-1.10437
  0
LINE
  8
0
 10
-2.78932
 11
-2.42705
 20
-1.10437
 21
-1.76335
  0
LINE
  8
0
 10
-2.42705
 11
-1.91226
 20
-1.76335
 21
-2.31154
  0
LINE
  8
0
 10
-1.91226
 11
-1.27733
 20
-2.31154
 21
-2.71448
  0
LINE
  8
0
 10
-1.27733
 11
-0.562134
 20
-2.71448
 21
-2.94685
  0
LINE
  8
0
 10
-0.562134
 11
0.18837
 20
-2.94685
 21
-2.99408
  0
LINE
  8
0
 10
0.18837
 11
62.1884
 20
-2.99408
 21
-2.99408
  0
LINE
  8
0
 10
62.1884
 11
62.927
 20
-2.99408
 21
-2.85316
  0
LINE
  8
0
 10
11.1097
 11
10.2753
 20
82.5325
 21
82.8628
  0
LINE
  8
0
 10
10.2753
 11
9.54932
 20
82.8628
 21
83.3903
  0
LINE
  8
0
 10
9.54932
 11
8.97729
 20
83.3903
 21
84.0817
  0
LINE
  8
0
 10
8.97729
 11
8.59521
 20
84.0817
 21
84.8937
  0
LINE
  8
0
 10
8.59521
 11
8.42706
 20
84.8937
 21
85.7752
  0
LINE
  8
0
 10
8.42706
 11
8.4834
 20
85.7752
 21
86.6708
  0
LINE
  8
0
 10
8.4834
 11
8.76071
 20
86.6708
 21
87.5243
  0
LINE
  8
0
 10
8.76071
 11
9.24156
 20
87.5243
 21
88.282
  0
LINE
  8
0
 10
9.24156
 11
9.89572
 20
88.282
 21
88.8963
  0
LINE
  8
0
 10
9.89572
 11
10.6821
 20
88.8963
 21
89.3286
  0
LINE
  8
0
 10
10.6821
 11
11.5513
 20
89.3286
 21
89.5518
  0
LINE
  8
0
 10
11.5513
 11
12.4487
 20
89.5518
 21
89.5518
  0
LINE
  8
0
 10
12.4487
 11
13.3179
 20
89.5518
 21
89.3286
  0
LINE
  8
0
 10
13.3179
 11
14.1043
 20
89.3286
 21
88.8963
  0
LINE
  8
0
 10
14.1043
 11
14.7584
 20
88.8963
 21
88.282
  0
LINE
  8
0
 10
14.7584
 11
15.2393
 20
88.282
 21
87.5243
  0
LINE
  8
0
 10
15.2393
 11
15.5166
 20
87.5243
 21
86.6708
  0
LINE
  8
0
 10
15.5166
 11
15.5729
 20
86.6708
 21
85.7752
  0
LINE
  8
0
 10
15.5729
 11
15.4048
 20
85.7752
 21
84.8937
  0
LINE
  8
0
 10
15.4048
 11
15.0227
 20
84.8937
 21
84.0817
  0
LINE
  8
0
 10
15.0227
 11
14.4507
 20
84.0817
 21
83.3903
  0
LINE
  8
0
 10
14.4507
 11
13.7247
 20
83.3903
 21
82.8628
  0
LINE
  8
0
 10
13.7247
 11
12.8903
 20
82.8628
 21
82.5325
  0
LINE
  8
0
 10
12.8903
 11
12
 20
82.5325
 21
82.42
  0
LINE
  8
0
 10
12
 11
11.1097
 20
82.42
 21
82.5325
  0
LINE
  8
0
 10
49.1097
 11
48.2753
 20
82.5325
 21
82.8628
  0
LINE
  8
0
 10
48.2753
 11
47.5493
 20
82.8628
 21
83.3903
  0
LINE
  8
0
 10
47.5493
 11
46.9773
 20
83.3903
 21
84.0817
  0
LINE
  8
0
 10
46.9773
 11
46.5952
 20
84.0817
 21
84.8937
  0
LINE
  8
0
 10
46.5952
 11
46.4271
 20
84.8937
 21
85.7752
  0
LINE
  8
0
 10
46.4271
 11
46.4834
 20
85.7752
 21
86.6708
  0
LINE
  8
0
 10
46.4834
 11
46.7607
 20
86.6708
 21
87.5243
  0
LINE
  8
0
 10
46.7607
 11
47.2416
 20
87.5243
 21
88.282
  0
LINE
  8
0
 10
47.2416
 11
47.8957
 20
88.282
 21
88.8963
  0
LINE
  8
0
 10
47.8957
 11
48.6821
 20
88.8963
 21
89.3286
  0
LINE
  8
0
 10
48.6821
 11
49.5513
 20
89.3286
 21
89.5518
  0
LINE
  8
0
 10
49.5513
 11
50.4487
 20
89.5518
 21
89.5518
  0
LINE
  8
0
 10
50.4487
 11
51.3179
 20
89.5518
 21
89.3286
  0
LINE
  8
0
 10
51.3179
 11
52.1043
 20
89.3286
 21
88.8963
  0
LINE
  8
0
 10
52.1043
 11
52.7584
 20
88.8963
 21
88.282
  0
LINE
  8
0
 10
52.7584
 11
53.2393
 20
88.282
 21
87.5243
  0
LINE
  8
0
 10
53.2393
 11
53.5166
 20
87.5243
 21
86.6708
  0
LINE
  8
0
 10
53.5166
 11
53.5729
 20
86.6708
 21
85.7752
  0
LINE
  8
0
 10
53.5729
 11
53.4048
 20
85.7752
 21
84.8937
  0
LINE
  8
0
 10
53.4048
 11
53.0227
 20
84.8937
 21
84.0817
  0
LINE
  8
0
 10
53.0227
 11
52.4507
 20
84.0817
 21
83.3903
  0
LINE
  8
0
 10
52.4507
 11
51.7247
 20
83.3903
 21
82.8628
  0
LINE
  8
0
 10
51.7247
 11
50.8903
 20
82.8628
 21
82.5325
  0
LINE
  8
0
 10
50.8903
 11
50
 20
82.5325
 21
82.42
  0
LINE
  8
0
 10
50
 11
49.1097
 20
82.42
 21
82.5325
  0
LINE
  8
0
 10
30.5513
 11
29.6821
 20
61.4482
 21
61.6714
  0
LINE
  8
0
 10
29.6821
 11
28.8957
 20
61.6714
 21
62.1037
  0
LINE
  8
0
 10
28.8957
 11
28.2416
 20
62.1037
 21
62.718
  0
LINE
  8
0
 10
28.2416
 11
27.7607
 20
62.718
 21
63.4757
  0
LINE
  8
0
 10
27.7607
 11
27.4834
 20
63.4757
 21
64.3292
  0
LINE
  8
0
 10
27.4834
 11
27.4271
 20
64.3292
 21
65.2248
  0
LINE
  8
0
 10
27.4271
 11
27.5952
 20
65.2248
 21
66.1063
  0
LINE
  8
0
 10
27.5952
 11
27.9773
 20
66.1063
 21
66.9183
  0
LINE
  8
0
 10
27.9773
 11
28.5493
 20
66.9183
 21
67.6097
  0
LINE
  8
0
 10
28.5493
 11
29.2753
 20
67.6097
 21
68.1372
  0
LINE
  8
0
 10
29.2753
 11
30.1097
 20
68.1372
 21
68.4675
  0
LINE
  8
0
 10
30.1097
 11
31
 20
68.4675
 21
68.58
  0
LINE
  8
0
 10
31
 11
31.8903
 20
68.58
 21
68.4675
  0
LINE
  8
0
 10
31.8903
 11
32.7247
 20
68.4675
 21
68.1372
  0
LINE
  8
0
 10
32.7247
 11
33.4507
 20
68.1372
 21
67.6097
  0
LINE
  8
0
 10
33.4507
 11
34.0227
 20
67.6097
 21
66.9183
  0
LINE
  8
0
 10
34.0227
 11
34.4048
 20
66.9183
 21
66.1063
  0
LINE
  8
0
 10
34.4048
 11
34.5729
 20
66.1063
 21
65.2248
  0
LINE
  8
0
 10
34.5729
 11
34.5166
 20
65.2248
 21
64.3292
  0
LINE
  8
0
 10
34.5166
 11
34.2393
 20
64.3292
 21
63.4757
  0
LINE
  8
0
 10
34.2393
 11
33.7584
 20
63.4757
 21
62.718
  0
LINE
  8
0
 10
33.7584
 11
33.1043
 20
62.718
 21
62.1037
  0
LINE
  8
0
 10
33.1043
 11
32.3179
 20
62.1037
 21
61.6714
  0
LINE
  8
0
 10
32.3179
 11
31.4487
 20
61.6714
 21
61.4482
  0
LINE
  8
0
 10
31.4487
 11
30.5513
 20
61.4482
 21
61.4482
  0
LINE
  8
0
 10
7.04204
 11
6.33893
 20
52.0517
 21
52.3826
  0
LINE
  8
0
 10
6.33893
 11
5.74019
 20
52.3826
 21
52.8779
  0
LINE
  8
0
 10
5.74019
 11
5.28345
 20
52.8779
 21
53.5066
  0
LINE
  8
0
 10
5.28345
 11
4.99739
 20
53.5066
 21
54.229
  0
LINE
  8
0
 10
4.99739
 11
4.89999
 20
54.229
 21
55
  0
LINE
  8
0
 10
4.89999
 11
4.99739
 20
55
 21
55.7709
  0
LINE
  8
0
 10
4.99739
 11
5.28345
 20
55.7709
 21
56.4934
  0
LINE
  8
0
 10
5.28345
 11
5.74019
 20
56.4934
 21
57.1221
  0
LINE
  8
0
 10
5.74019
 11
6.33893
 20
57.1221
 21
57.6174
  0
LINE
  8
0
 10
6.33893
 11
7.04204
 20
57.6174
 21
57.9483
  0
LINE
  8
0
 10
7.04204
 11
7.80534
 20
57.9483
 21
58.0939
  0
LINE
  8
0
 10
7.80534
 11
8.58087
 20
58.0939
 21
58.0451
  0
LINE
  8
0
 10
8.58087
 11
9.31992
 20
58.0451
 21
57.805
  0
LINE
  8
0
 10
9.31992
 11
9.97601
 20
57.805
 21
57.3886
  0
LINE
  8
0
 10
9.97601
 11
10.5079
 20
57.3886
 21
56.8221
  0
LINE
  8
0
 10
10.5079
 11
10.8823
 20
56.8221
 21
56.1412
  0
LINE
  8
0
 10
10.8823
 11
11.0755
 20
56.1412
 21
55.3885
  0
LINE
  8
0
 10
11.0755
 11
11.0755
 20
55.3885
 21
54.6115
  0
LINE
  8
0
 10
11.0755
 11
10.8823
 20
54.6115
 21
53.8588
  0
LINE
  8
0
 10
10.8823
 11
10.5079
 20
53.8588
 21
53.1779
  0
LINE
  8
0
 10
10.5079
 11
9.97601
 20
53.1779
 21
52.6114
  0
LINE
  8
0
 10
9.97601
 11
9.31992
 20
52.6114
 21
52.195
  0
LINE
  8
0
 10
9.31992
 11
8.58087
 20
52.195
 21
51.9549
  0
LINE
  8
0
 10
8.58087
 11
7.80534
 20
51.9549
 21
51.9061
  0
LINE
  8
0
 10
7.80534
 11
7.04204
 20
51.9061
 21
52.0517
  0
LINE
  8
0
 10
10.1273
 11
8.75288
 20
9.23659
 21
9.88336
  0
LINE
  8
0
 10
8.75288
 11
7.58244
 20
9.88336
 21
10.8516
  0
LINE
  8
0
 10
7.58244
 11
6.68958
 20
10.8516
 21
12.0806
  0
LINE
  8
0
 10
6.68958
 11
6.13037
 20
12.0806
 21
13.4929
  0
LINE
  8
0
 10
6.13037
 11
5.93999
 20
13.4929
 21
15
  0
LINE
  8
0
 10
5.93999
 11
6.13037
 20
15
 21
16.507
  0
LINE
  8
0
 10
6.13037
 11
6.68958
 20
16.507
 21
17.9194
  0
LINE
  8
0
 10
6.68958
 11
7.58244
 20
17.9194
 21
19.1483
  0
LINE
  8
0
 10
7.58244
 11
8.75288
 20
19.1483
 21
20.1166
  0
LINE
  8
0
 10
8.75288
 11
10.1273
 20
20.1166
 21
20.7634
  0
LINE
  8
0
 10
10.1273
 11
11.6195
 20
20.7634
 21
21.048
  0
LINE
  8
0
 10
11.6195
 11
13.1355
 20
21.048
 21
20.9527
  0
LINE
  8
0
 10
13.1355
 11
14.5802
 20
20.9527
 21
20.4832
  0
LINE
  8
0
 10
14.5802
 11
15.8628
 20
20.4832
 21
19.6693
  0
LINE
  8
0
 10
15.8628
 11
16.9026
 20
19.6693
 21
18.562
  0
LINE
  8
0
 10
16.9026
 11
17.6344
 20
18.562
 21
17.2308
  0
LINE
  8
0
 10
17.6344
 11
18.0122
 20
17.2308
 21
15.7595
  0
LINE
  8
0
 10
18.0122
 11
18.0122
 20
15.7595
 21
14.2405
  0
LINE
  8
0
 10
18.0122
 11
17.6344
 20
14.2405
 21
12.7692
  0
LINE
  8
0
 10
17.6344
 11
16.9026
 20
12.7692
 21
11.438
  0
LINE
  8
0
 10
16.9026
 11
15.8628
 20
11.438
 21
10.3307
  0
LINE
  8
0
 10
15.8628
 11
14.5802
 20
10.3307
 21
9.51674
  0
LINE
  8
0
 10
14.5802
 11
13.1355
 20
9.51674
 21
9.04733
  0
LINE
  8
0
 10
13.1355
 11
11.6195
 20
9.04733
 21
8.95195
  0
LINE
  8
0
 10
11.6195
 11
10.1273
 20
8.95195
 21
9.23659
  0
LINE
  8
0
 10
48.7408
 11
47.8165
 20
11.1244
 21
11.5594
  0
LINE
  8
0
 10
47.8165
 11
47.0294
 20
11.5594
 21
12.2105
  0
LINE
  8
0
 10
47.0294
 11
46.429
 20
12.2105
 21
13.0368
  0
LINE
  8
0
 10
46.429
 11
46.053
 20
13.0368
 21
13.9866
  0
LINE
  8
0
 10
46.053
 11
45.925
 20
13.9866
 21
15
  0
LINE
  8
0
 10
45.925
 11
46.053
 20
15
 21
16.0134
  0
LINE
  8
0
 10
46.053
 11
46.429
 20
16.0134
 21
16.9631
  0
LINE
  8
0
 10
46.429
 11
47.0294
 20
16.9631
 21
17.7895
  0
LINE
  8
0
 10
47.0294
 11
47.8165
 20
17.7895
 21
18.4406
  0
LINE
  8
0
 10
47.8165
 11
48.7408
 20
18.4406
 21
18.8755
  0
LINE
  8
0
 10
48.7408
 11
49.7441
 20
18.8755
 21
19.067
  0
LINE
  8
0
 10
49.7441
 11
50.7636
 20
19.067
 21
19.0028
  0
LINE
  8
0
 10
50.7636
 11
51.735
 20
19.0028
 21
18.6872
  0
LINE
  8
0
 10
51.735
 11
52.5975
 20
18.6872
 21
18.1398
  0
LINE
  8
0
 10
52.5975
 11
53.2967
 20
18.1398
 21
17.3952
  0
LINE
  8
0
 10
53.2967
 11
53.7888
 20
17.3952
 21
16.5001
  0
LINE
  8
0
 10
53.7888
 11
54.0429
 20
16.5001
 21
15.5107
  0
LINE
  8
0
 10
54.0429
 11
54.0429
 20
15.5107
 21
14.4893
  0
LINE
  8
0
 10
54.0429
 11
53.7888
 20
14.4893
 21
13.4999
  0
LINE
  8
0
 10
53.7888
 11
53.2967
 20
13.4999
 21
12.6048
  0
LINE
  8
0
 10
53.2967
 11
52.5975
 20
12.6048
 21
11.8602
  0
LINE
  8
0
 10
52.5975
 11
51.735
 20
11.8602
 21
11.3128
  0
LINE
  8
0
 10
51.735
 11
50.7636
 20
11.3128
 21
10.9972
  0
LINE
  8
0
 10
50.7636
 11
49.7441
 20
10.9972
 21
10.933
  0
LINE
  8
0
 10
49.7441
 11
48.7408
 20
10.933
 21
11.1244
  0
ENDSEC
  0
SECTION
  2
OBJECTS
  0
DICTIONARY
  0
ENDSEC
  0
EOF
