  0
SECTION
  2
BLOCKS
  0
ENDSEC
  0
SECTION
  2
ENTITIES
  0
LINE
  8
0
 10
62.927
 11
63.6075
 20
-2.85316
 21
-2.53297
  0
LINE
  8
0
 10
63.6075
 11
64.1869
 20
-2.53297
 21
-2.05363
  0
LINE
  8
0
 10
64.1869
 11
64.6289
 20
-2.05363
 21
-1.44525
  0
LINE
  8
0
 10
64.6289
 11
64.9057
 20
-1.44525
 21
-0.746063
  0
LINE
  8
0
 10
64.9057
 11
65
 20
-0.746063
 21
0
  0
LINE
  8
0
 10
65
 11
65
 20
0
 21
98
  0
LINE
  8
0
 10
65
 11
64.9057
 20
98
 21
98.7461
  0
LINE
  8
0
 10
64.9057
 11
64.6289
 20
98.7461
 21
99.4453
  0
LINE
  8
0
 10
64.6289
 11
64.1869
 20
99.4453
 21
100.054
  0
LINE
  8
0
 10
64.1869
 11
63.6075
 20
100.054
 21
100.533
  0
LINE
  8
0
 10
63.6075
 11
62.927
 20
100.533
 21
100.853
  0
LINE
  8
0
 10
62.927
 11
62.1884
 20
100.853
 21
100.994
  0
LINE
  8
0
 10
62.1884
 11
0.18837
 20
100.994
 21
100.994
  0
LINE
  8
0
 10
0.18837
 11
-0.562134
 20
100.994
 21
100.947
  0
LINE
  8
0
 10
-0.562134
 11
-1.27733
 20
100.947
 21
100.714
  0
LINE
  8
0
 10
-1.27733
 11
-1.91226
 20
100.714
 21
100.312
  0
LINE
  8
0
 10
-1.91226
 11
-2.42705
 20
100.312
 21
99.7634
  0
LINE
  8
0
 10
-2.42705
 11
-2.78932
 20
99.7634
 21
99.1044
  0
LINE
  8
0
 10
-2.78932
 11
-2.97633
 20
99.1044
 21
98.376
  0
LINE
  8
0
 10
-2.97633
 11
-2.97633
 20
98.376
 21
-0.375992
  0
LINE
  8
0
 10
-2.97633
 11
-2.78932
 20
-0.375992
 21
-1.10437
  0
LINE
  8
0
 10
-2.78932
 11
-2.42705
 20
-1.10437
 21
-1.76335
  0
LINE
  8
0
 10
-2.42705
 11
-1.91226
 20
-1.76335
 21
-2.31154
  0
LINE
  8
0
 10
-1.91226
 11
-1.27733
 20
-2.31154
 21
-2.71448
  0
LINE
  8
0
 10
-1.27733
 11
-0.562134
 20
-2.71448
 21
-2.94685
  0
LINE
  8
0
 10
-0.562134
 11
0.18837
 20
-2.94685
 21
-2.99408
  0
LINE
  8
0
 10
0.18837
 11
62.1884
 20
-2.99408
 21
-2.99408
  0
LINE
  8
0
 10
62.1884
 11
62.927
 20
-2.99408
 21
-2.85316
  0
LINE
  8
0
 10
11.1097
 11
10.2753
 20
82.5325
 21
82.8628
  0
LINE
  8
0
 10
10.2753
 11
9.54932
 20
82.8628
 21
83.3903
  0
LINE
  8
0
 10
9.54932
 11
8.97729
 20
83.3903
 21
84.0817
  0
LINE
  8
0
 10
8.97729
 11
8.59521
 20
84.0817
 21
84.8937
  0
LINE
  8
0
 10
8.59521
 11
8.42706
 20
84.8937
 21
85.7752
  0
LINE
  8
0
 10
8.42706
 11
8.4834
 20
85.7752
 21
86.6708
  0
LINE
  8
0
 10
8.4834
 11
8.76071
 20
86.6708
 21
87.5243
  0
LINE
  8
0
 10
8.76071
 11
9.24156
 20
87.5243
 21
88.282
  0
LINE
  8
0
 10
9.24156
 11
9.89572
 20
88.282
 21
88.8963
  0
LINE
  8
0
 10
9.89572
 11
10.6821
 20
88.8963
 21
89.3286
  0
LINE
  8
0
 10
10.6821
 11
11.5513
 20
89.3286
 21
89.5518
  0
LINE
  8
0
 10
11.5513
 11
12.4487
 20
89.5518
 21
89.5518
  0
LINE
  8
0
 10
12.4487
 11
13.3179
 20
89.5518
 21
89.3286
  0
LINE
  8
0
 10
13.3179
 11
14.1043
 20
89.3286
 21
88.8963
  0
LINE
  8
0
 10
14.1043
 11
14.7584
 20
88.8963
 21
88.282
  0
LINE
  8
0
 10
14.7584
 11
15.2393
 20
88.282
 21
87.5243
  0
LINE
  8
0
 10
15.2393
 11
15.5166
 20
87.5243
 21
86.6708
  0
LINE
  8
0
 10
15.5166
 11
15.5729
 20
86.6708
 21
85.7752
  0
LINE
  8
0
 10
15.5729
 11
15.4048
 20
85.7752
 21
84.8937
  0
LINE
  8
0
 10
15.4048
 11
15.0227
 20
84.8937
 21
84.0817
  0
LINE
  8
0
 10
15.0227
 11
14.4507
 20
84.0817
 21
83.3903
  0
LINE
  8
0
 10
14.4507
 11
13.7247
 20
83.3903
 21
82.8628
  0
LINE
  8
0
 10
13.7247
 11
12.8903
 20
82.8628
 21
82.5325
  0
LINE
  8
0
 10
12.8903
 11
12
 20
82.5325
 21
82.42
  0
LINE
  8
0
 10
12
 11
11.1097
 20
82.42
 21
82.5325
  0
LINE
  8
0
 10
49.1097
 11
48.2753
 20
82.5325
 21
82.8628
  0
LINE
  8
0
 10
48.2753
 11
47.5493
 20
82.8628
 21
83.3903
  0
LINE
  8
0
 10
47.5493
 11
46.9773
 20
83.3903
 21
84.0817
  0
LINE
  8
0
 10
46.9773
 11
46.5952
 20
84.0817
 21
84.8937
  0
LINE
  8
0
 10
46.5952
 11
46.4271
 20
84.8937
 21
85.7752
  0
LINE
  8
0
 10
46.4271
 11
46.4834
 20
85.7752
 21
86.6708
  0
LINE
  8
0
 10
46.4834
 11
46.7607
 20
86.6708
 21
87.5243
  0
LINE
  8
0
 10
46.7607
 11
47.2416
 20
87.5243
 21
88.282
  0
LINE
  8
0
 10
47.2416
 11
47.8957
 20
88.282
 21
88.8963
  0
LINE
  8
0
 10
47.8957
 11
48.6821
 20
88.8963
 21
89.3286
  0
LINE
  8
0
 10
48.6821
 11
49.5513
 20
89.3286
 21
89.5518
  0
LINE
  8
0
 10
49.5513
 11
50.4487
 20
89.5518
 21
89.5518
  0
LINE
  8
0
 10
50.4487
 11
51.3179
 20
89.5518
 21
89.3286
  0
LINE
  8
0
 10
51.3179
 11
52.1043
 20
89.3286
 21
88.8963
  0
LINE
  8
0
 10
52.1043
 11
52.7584
 20
88.8963
 21
88.282
  0
LINE
  8
0
 10
52.7584
 11
53.2393
 20
88.282
 21
87.5243
  0
LINE
  8
0
 10
53.2393
 11
53.5166
 20
87.5243
 21
86.6708
  0
LINE
  8
0
 10
53.5166
 11
53.5729
 20
86.6708
 21
85.7752
  0
LINE
  8
0
 10
53.5729
 11
53.4048
 20
85.7752
 21
84.8937
  0
LINE
  8
0
 10
53.4048
 11
53.0227
 20
84.8937
 21
84.0817
  0
LINE
  8
0
 10
53.0227
 11
52.4507
 20
84.0817
 21
83.3903
  0
LINE
  8
0
 10
52.4507
 11
51.7247
 20
83.3903
 21
82.8628
  0
LINE
  8
0
 10
51.7247
 11
50.8903
 20
82.8628
 21
82.5325
  0
LINE
  8
0
 10
50.8903
 11
50
 20
82.5325
 21
82.42
  0
LINE
  8
0
 10
50
 11
49.1097
 20
82.42
 21
82.5325
  0
LINE
  8
0
 10
41.5513
 11
40.6821
 20
54.4482
 21
54.6714
  0
LINE
  8
0
 10
40.6821
 11
39.8957
 20
54.6714
 21
55.1037
  0
LINE
  8
0
 10
39.8957
 11
39.2416
 20
55.1037
 21
55.718
  0
LINE
  8
0
 10
39.2416
 11
38.7607
 20
55.718
 21
56.4757
  0
LINE
  8
0
 10
38.7607
 11
38.4834
 20
56.4757
 21
57.3292
  0
LINE
  8
0
 10
38.4834
 11
38.4271
 20
57.3292
 21
58.2248
  0
LINE
  8
0
 10
38.4271
 11
38.5952
 20
58.2248
 21
59.1063
  0
LINE
  8
0
 10
38.5952
 11
38.9773
 20
59.1063
 21
59.9183
  0
LINE
  8
0
 10
38.9773
 11
39.5493
 20
59.9183
 21
60.6097
  0
LINE
  8
0
 10
39.5493
 11
40.2753
 20
60.6097
 21
61.1372
  0
LINE
  8
0
 10
40.2753
 11
41.1097
 20
61.1372
 21
61.4675
  0
LINE
  8
0
 10
41.1097
 11
42
 20
61.4675
 21
61.58
  0
LINE
  8
0
 10
42
 11
42.8903
 20
61.58
 21
61.4675
  0
LINE
  8
0
 10
42.8903
 11
43.7247
 20
61.4675
 21
61.1372
  0
LINE
  8
0
 10
43.7247
 11
44.4507
 20
61.1372
 21
60.6097
  0
LINE
  8
0
 10
44.4507
 11
45.0227
 20
60.6097
 21
59.9183
  0
LINE
  8
0
 10
45.0227
 11
45.4048
 20
59.9183
 21
59.1063
  0
LINE
  8
0
 10
45.4048
 11
45.5729
 20
59.1063
 21
58.2248
  0
LINE
  8
0
 10
45.5729
 11
45.5166
 20
58.2248
 21
57.3292
  0
LINE
  8
0
 10
45.5166
 11
45.2393
 20
57.3292
 21
56.4757
  0
LINE
  8
0
 10
45.2393
 11
44.7584
 20
56.4757
 21
55.718
  0
LINE
  8
0
 10
44.7584
 11
44.1043
 20
55.718
 21
55.1037
  0
LINE
  8
0
 10
44.1043
 11
43.3179
 20
55.1037
 21
54.6714
  0
LINE
  8
0
 10
43.3179
 11
42.4487
 20
54.6714
 21
54.4482
  0
LINE
  8
0
 10
42.4487
 11
41.5513
 20
54.4482
 21
54.4482
  0
LINE
  8
0
 10
19.5513
 11
18.6821
 20
54.4482
 21
54.6714
  0
LINE
  8
0
 10
18.6821
 11
17.8957
 20
54.6714
 21
55.1037
  0
LINE
  8
0
 10
17.8957
 11
17.2416
 20
55.1037
 21
55.718
  0
LINE
  8
0
 10
17.2416
 11
16.7607
 20
55.718
 21
56.4757
  0
LINE
  8
0
 10
16.7607
 11
16.4834
 20
56.4757
 21
57.3292
  0
LINE
  8
0
 10
16.4834
 11
16.4271
 20
57.3292
 21
58.2248
  0
LINE
  8
0
 10
16.4271
 11
16.5952
 20
58.2248
 21
59.1063
  0
LINE
  8
0
 10
16.5952
 11
16.9773
 20
59.1063
 21
59.9183
  0
LINE
  8
0
 10
16.9773
 11
17.5493
 20
59.9183
 21
60.6097
  0
LINE
  8
0
 10
17.5493
 11
18.2753
 20
60.6097
 21
61.1372
  0
LINE
  8
0
 10
18.2753
 11
19.1097
 20
61.1372
 21
61.4675
  0
LINE
  8
0
 10
19.1097
 11
20
 20
61.4675
 21
61.58
  0
LINE
  8
0
 10
20
 11
20.8903
 20
61.58
 21
61.4675
  0
LINE
  8
0
 10
20.8903
 11
21.7247
 20
61.4675
 21
61.1372
  0
LINE
  8
0
 10
21.7247
 11
22.4507
 20
61.1372
 21
60.6097
  0
LINE
  8
0
 10
22.4507
 11
23.0227
 20
60.6097
 21
59.9183
  0
LINE
  8
0
 10
23.0227
 11
23.4048
 20
59.9183
 21
59.1063
  0
LINE
  8
0
 10
23.4048
 11
23.5729
 20
59.1063
 21
58.2248
  0
LINE
  8
0
 10
23.5729
 11
23.5166
 20
58.2248
 21
57.3292
  0
LINE
  8
0
 10
23.5166
 11
23.2393
 20
57.3292
 21
56.4757
  0
LINE
  8
0
 10
23.2393
 11
22.7584
 20
56.4757
 21
55.718
  0
LINE
  8
0
 10
22.7584
 11
22.1043
 20
55.718
 21
55.1037
  0
LINE
  8
0
 10
22.1043
 11
21.3179
 20
55.1037
 21
54.6714
  0
LINE
  8
0
 10
21.3179
 11
20.4487
 20
54.6714
 21
54.4482
  0
LINE
  8
0
 10
20.4487
 11
19.5513
 20
54.4482
 21
54.4482
  0
LINE
  8
0
 10
10.1273
 11
8.75288
 20
9.23659
 21
9.88336
  0
LINE
  8
0
 10
8.75288
 11
7.58244
 20
9.88336
 21
10.8516
  0
LINE
  8
0
 10
7.58244
 11
6.68958
 20
10.8516
 21
12.0806
  0
LINE
  8
0
 10
6.68958
 11
6.13037
 20
12.0806
 21
13.4929
  0
LINE
  8
0
 10
6.13037
 11
5.93999
 20
13.4929
 21
15
  0
LINE
  8
0
 10
5.93999
 11
6.13037
 20
15
 21
16.507
  0
LINE
  8
0
 10
6.13037
 11
6.68958
 20
16.507
 21
17.9194
  0
LINE
  8
0
 10
6.68958
 11
7.58244
 20
17.9194
 21
19.1483
  0
LINE
  8
0
 10
7.58244
 11
8.75288
 20
19.1483
 21
20.1166
  0
LINE
  8
0
 10
8.75288
 11
10.1273
 20
20.1166
 21
20.7634
  0
LINE
  8
0
 10
10.1273
 11
11.6195
 20
20.7634
 21
21.048
  0
LINE
  8
0
 10
11.6195
 11
13.1355
 20
21.048
 21
20.9527
  0
LINE
  8
0
 10
13.1355
 11
14.5802
 20
20.9527
 21
20.4832
  0
LINE
  8
0
 10
14.5802
 11
15.8628
 20
20.4832
 21
19.6693
  0
LINE
  8
0
 10
15.8628
 11
16.9026
 20
19.6693
 21
18.562
  0
LINE
  8
0
 10
16.9026
 11
17.6344
 20
18.562
 21
17.2308
  0
LINE
  8
0
 10
17.6344
 11
18.0122
 20
17.2308
 21
15.7595
  0
LINE
  8
0
 10
18.0122
 11
18.0122
 20
15.7595
 21
14.2405
  0
LINE
  8
0
 10
18.0122
 11
17.6344
 20
14.2405
 21
12.7692
  0
LINE
  8
0
 10
17.6344
 11
16.9026
 20
12.7692
 21
11.438
  0
LINE
  8
0
 10
16.9026
 11
15.8628
 20
11.438
 21
10.3307
  0
LINE
  8
0
 10
15.8628
 11
14.5802
 20
10.3307
 21
9.51674
  0
LINE
  8
0
 10
14.5802
 11
13.1355
 20
9.51674
 21
9.04733
  0
LINE
  8
0
 10
13.1355
 11
11.6195
 20
9.04733
 21
8.95195
  0
LINE
  8
0
 10
11.6195
 11
10.1273
 20
8.95195
 21
9.23659
  0
LINE
  8
0
 10
48.8566
 11
48.0174
 20
11.4811
 21
11.876
  0
LINE
  8
0
 10
48.0174
 11
47.3028
 20
11.876
 21
12.4672
  0
LINE
  8
0
 10
47.3028
 11
46.7577
 20
12.4672
 21
13.2175
  0
LINE
  8
0
 10
46.7577
 11
46.4162
 20
13.2175
 21
14.0798
  0
LINE
  8
0
 10
46.4162
 11
46.3
 20
14.0798
 21
15
  0
LINE
  8
0
 10
46.3
 11
46.4162
 20
15
 21
15.9202
  0
LINE
  8
0
 10
46.4162
 11
46.7577
 20
15.9202
 21
16.7825
  0
LINE
  8
0
 10
46.7577
 11
47.3028
 20
16.7825
 21
17.5328
  0
LINE
  8
0
 10
47.3028
 11
48.0174
 20
17.5328
 21
18.124
  0
LINE
  8
0
 10
48.0174
 11
48.8566
 20
18.124
 21
18.5189
  0
LINE
  8
0
 10
48.8566
 11
49.7677
 20
18.5189
 21
18.6927
  0
LINE
  8
0
 10
49.7677
 11
50.6933
 20
18.6927
 21
18.6345
  0
LINE
  8
0
 10
50.6933
 11
51.5754
 20
18.6345
 21
18.3479
  0
LINE
  8
0
 10
51.5754
 11
52.3585
 20
18.3479
 21
17.8509
  0
LINE
  8
0
 10
52.3585
 11
52.9934
 20
17.8509
 21
17.1748
  0
LINE
  8
0
 10
52.9934
 11
53.4402
 20
17.1748
 21
16.3621
  0
LINE
  8
0
 10
53.4402
 11
53.6708
 20
16.3621
 21
15.4637
  0
LINE
  8
0
 10
53.6708
 11
53.6708
 20
15.4637
 21
14.5363
  0
LINE
  8
0
 10
53.6708
 11
53.4402
 20
14.5363
 21
13.6379
  0
LINE
  8
0
 10
53.4402
 11
52.9934
 20
13.6379
 21
12.8252
  0
LINE
  8
0
 10
52.9934
 11
52.3585
 20
12.8252
 21
12.1491
  0
LINE
  8
0
 10
52.3585
 11
51.5754
 20
12.1491
 21
11.6521
  0
LINE
  8
0
 10
51.5754
 11
50.6933
 20
11.6521
 21
11.3655
  0
LINE
  8
0
 10
50.6933
 11
49.7677
 20
11.3655
 21
11.3073
  0
LINE
  8
0
 10
49.7677
 11
48.8566
 20
11.3073
 21
11.4811
  0
ENDSEC
  0
SECTION
  2
OBJECTS
  0
DICTIONARY
  0
ENDSEC
  0
EOF
