  0
SECTION
  2
BLOCKS
  0
ENDSEC
  0
SECTION
  2
ENTITIES
  0
LINE
  8
0
 10
62.927
 11
64.0074
 20
-2.85316
 21
-2.22943
  0
LINE
  8
0
 10
64.0074
 11
64.7406
 20
-2.22943
 21
-1.2202
  0
LINE
  8
0
 10
64.7406
 11
65
 20
-1.2202
 21
0
  0
LINE
  8
0
 10
65
 11
65
 20
0
 21
98
  0
LINE
  8
0
 10
65
 11
64.7406
 20
98
 21
99.2202
  0
LINE
  8
0
 10
64.7406
 11
64.0074
 20
99.2202
 21
100.229
  0
LINE
  8
0
 10
64.0074
 11
62.927
 20
100.229
 21
100.853
  0
LINE
  8
0
 10
62.927
 11
61.6864
 20
100.853
 21
100.984
  0
LINE
  8
0
 10
61.6864
 11
-0.313583
 20
100.984
 21
100.984
  0
LINE
  8
0
 10
-0.313583
 11
-1.5
 20
100.984
 21
100.598
  0
LINE
  8
0
 10
-1.5
 11
-2.42705
 20
100.598
 21
99.7634
  0
LINE
  8
0
 10
-2.42705
 11
-2.93443
 20
99.7634
 21
98.6237
  0
LINE
  8
0
 10
-2.93443
 11
-2.93443
 20
98.6237
 21
-0.623734
  0
LINE
  8
0
 10
-2.93443
 11
-2.42705
 20
-0.623734
 21
-1.76335
  0
LINE
  8
0
 10
-2.42705
 11
-1.5
 20
-1.76335
 21
-2.59807
  0
LINE
  8
0
 10
-1.5
 11
-0.313583
 20
-2.59807
 21
-2.98355
  0
LINE
  8
0
 10
-0.313583
 11
61.6864
 20
-2.98355
 21
-2.98355
  0
LINE
  8
0
 10
61.6864
 11
62.927
 20
-2.98355
 21
-2.85316
  0
LINE
  8
0
 10
49.0132
 11
47.6988
 20
82.5587
 21
83.2576
  0
LINE
  8
0
 10
47.6988
 11
46.7823
 20
83.2576
 21
84.4306
  0
LINE
  8
0
 10
46.7823
 11
46.4222
 20
84.4306
 21
85.875
  0
LINE
  8
0
 10
46.4222
 11
46.6807
 20
85.875
 21
87.3411
  0
LINE
  8
0
 10
46.6807
 11
47.5131
 20
87.3411
 21
88.5752
  0
LINE
  8
0
 10
47.5131
 11
48.7756
 20
88.5752
 21
89.3641
  0
LINE
  8
0
 10
48.7756
 11
50.2497
 20
89.3641
 21
89.5713
  0
LINE
  8
0
 10
50.2497
 11
51.6807
 20
89.5713
 21
89.1609
  0
LINE
  8
0
 10
51.6807
 11
52.8211
 20
89.1609
 21
88.2041
  0
LINE
  8
0
 10
52.8211
 11
53.4736
 20
88.2041
 21
86.8661
  0
LINE
  8
0
 10
53.4736
 11
53.5256
 20
86.8661
 21
85.3783
  0
LINE
  8
0
 10
53.5256
 11
52.9679
 20
85.3783
 21
83.9981
  0
LINE
  8
0
 10
52.9679
 11
51.8971
 20
83.9981
 21
82.964
  0
LINE
  8
0
 10
51.8971
 11
50.4982
 20
82.964
 21
82.4548
  0
LINE
  8
0
 10
50.4982
 11
49.0132
 20
82.4548
 21
82.5587
  0
LINE
  8
0
 10
10.1273
 11
7.94507
 20
9.23659
 21
10.4965
  0
LINE
  8
0
 10
7.94507
 11
6.46391
 20
10.4965
 21
12.5352
  0
LINE
  8
0
 10
6.46391
 11
5.93999
 20
12.5352
 21
15
  0
LINE
  8
0
 10
5.93999
 11
6.46391
 20
15
 21
17.4648
  0
LINE
  8
0
 10
6.46391
 11
7.94507
 20
17.4648
 21
19.5034
  0
LINE
  8
0
 10
7.94507
 11
10.1273
 20
19.5034
 21
20.7634
  0
LINE
  8
0
 10
10.1273
 11
12.6334
 20
20.7634
 21
21.0268
  0
LINE
  8
0
 10
12.6334
 11
15.03
 20
21.0268
 21
20.2481
  0
LINE
  8
0
 10
15.03
 11
16.9026
 20
20.2481
 21
18.562
  0
LINE
  8
0
 10
16.9026
 11
17.9276
 20
18.562
 21
16.2599
  0
LINE
  8
0
 10
17.9276
 11
17.9276
 20
16.2599
 21
13.7401
  0
LINE
  8
0
 10
17.9276
 11
16.9026
 20
13.7401
 21
11.438
  0
LINE
  8
0
 10
16.9026
 11
15.03
 20
11.438
 21
9.75188
  0
LINE
  8
0
 10
15.03
 11
12.6334
 20
9.75188
 21
8.97319
  0
LINE
  8
0
 10
12.6334
 11
10.1273
 20
8.97319
 21
9.23659
  0
LINE
  8
0
 10
50.4259
 11
48.7408
 20
10.9473
 21
11.1244
  0
LINE
  8
0
 10
48.7408
 11
47.2733
 20
11.1244
 21
11.9717
  0
LINE
  8
0
 10
47.2733
 11
46.2773
 20
11.9717
 21
13.3425
  0
LINE
  8
0
 10
46.2773
 11
45.925
 20
13.3425
 21
15
  0
LINE
  8
0
 10
45.925
 11
46.2773
 20
15
 21
16.6574
  0
LINE
  8
0
 10
46.2773
 11
47.2733
 20
16.6574
 21
18.0283
  0
LINE
  8
0
 10
47.2733
 11
48.7408
 20
18.0283
 21
18.8755
  0
LINE
  8
0
 10
48.7408
 11
50.4259
 20
18.8755
 21
19.0527
  0
LINE
  8
0
 10
50.4259
 11
52.0375
 20
19.0527
 21
18.5291
  0
LINE
  8
0
 10
52.0375
 11
53.2967
 20
18.5291
 21
17.3952
  0
LINE
  8
0
 10
53.2967
 11
53.9859
 20
17.3952
 21
15.8472
  0
LINE
  8
0
 10
53.9859
 11
53.9859
 20
15.8472
 21
14.1528
  0
LINE
  8
0
 10
53.9859
 11
53.2967
 20
14.1528
 21
12.6048
  0
LINE
  8
0
 10
53.2967
 11
52.0375
 20
12.6048
 21
11.4709
  0
LINE
  8
0
 10
52.0375
 11
50.4259
 20
11.4709
 21
10.9473
  0
ENDSEC
  0
SECTION
  2
OBJECTS
  0
DICTIONARY
  0
ENDSEC
  0
EOF
