solid OpenSCAD_Model
  facet normal 1 -0 0
    outer loop
      vertex 3.7 3.7 13.2
      vertex 3.7 63.45 6.7
      vertex 3.7 63.45 13.2
    endloop
  endfacet
  facet normal 1 0 0
    outer loop
      vertex 3.7 3.7 13.2
      vertex 3.7 3.7 6.7
      vertex 3.7 63.45 6.7
    endloop
  endfacet
  facet normal 0 1 0
    outer loop
      vertex 108.45 3.7 13.2
      vertex 108.45 3.7 6.7
      vertex 3.7 3.7 13.2
    endloop
  endfacet
  facet normal 0 1 0
    outer loop
      vertex 3.7 3.7 13.2
      vertex 108.45 3.7 6.7
      vertex 3.7 3.7 6.7
    endloop
  endfacet
  facet normal -0 0 1
    outer loop
      vertex 103.45 8.7 6.7
      vertex 108.45 3.7 6.7
      vertex 108.45 27.7 6.7
    endloop
  endfacet
  facet normal -0 0 1
    outer loop
      vertex 103.45 27.7 6.7
      vertex 103.45 8.7 6.7
      vertex 108.45 27.7 6.7
    endloop
  endfacet
  facet normal 0 0 1
    outer loop
      vertex 3.7 3.7 6.7
      vertex 108.45 3.7 6.7
      vertex 103.45 8.7 6.7
    endloop
  endfacet
  facet normal 0 0 1
    outer loop
      vertex 108.45 39.7 6.7
      vertex 103.45 58.45 6.7
      vertex 103.45 39.7 6.7
    endloop
  endfacet
  facet normal 0 -0 1
    outer loop
      vertex 108.45 39.7 6.7
      vertex 108.45 63.45 6.7
      vertex 103.45 58.45 6.7
    endloop
  endfacet
  facet normal 0 0 1
    outer loop
      vertex 3.7 63.45 6.7
      vertex 8.7 58.45 6.7
      vertex 103.45 58.45 6.7
    endloop
  endfacet
  facet normal 0 0 1
    outer loop
      vertex 108.45 63.45 6.7
      vertex 3.7 63.45 6.7
      vertex 103.45 58.45 6.7
    endloop
  endfacet
  facet normal 0 0 1
    outer loop
      vertex 3.7 3.7 6.7
      vertex 8.7 8.7 6.7
      vertex 8.7 58.45 6.7
    endloop
  endfacet
  facet normal 0 0 1
    outer loop
      vertex 3.7 63.45 6.7
      vertex 3.7 3.7 6.7
      vertex 8.7 58.45 6.7
    endloop
  endfacet
  facet normal 0 0 1
    outer loop
      vertex 3.7 3.7 6.7
      vertex 103.45 8.7 6.7
      vertex 8.7 8.7 6.7
    endloop
  endfacet
  facet normal 0 -1 0
    outer loop
      vertex 3.7 63.45 13.2
      vertex 108.45 63.45 6.7
      vertex 108.45 63.45 13.2
    endloop
  endfacet
  facet normal 0 -1 0
    outer loop
      vertex 3.7 63.45 13.2
      vertex 3.7 63.45 6.7
      vertex 108.45 63.45 6.7
    endloop
  endfacet
  facet normal -1 -0 -0
    outer loop
      vertex 108.45 27.7 13.2
      vertex 108.45 27.7 6.7
      vertex 108.45 3.7 13.2
    endloop
  endfacet
  facet normal -1 0 0
    outer loop
      vertex 108.45 3.7 13.2
      vertex 108.45 27.7 6.7
      vertex 108.45 3.7 6.7
    endloop
  endfacet
  facet normal -1 -0 -0
    outer loop
      vertex 108.45 63.45 13.2
      vertex 108.45 63.45 6.7
      vertex 108.45 39.7 13.2
    endloop
  endfacet
  facet normal -1 0 0
    outer loop
      vertex 108.45 39.7 13.2
      vertex 108.45 63.45 6.7
      vertex 108.45 39.7 6.7
    endloop
  endfacet
  facet normal 1 -0 0
    outer loop
      vertex 8.7 8.7 6.7
      vertex 8.7 58.45 0
      vertex 8.7 58.45 6.7
    endloop
  endfacet
  facet normal 1 0 0
    outer loop
      vertex 8.7 8.7 6.7
      vertex 8.7 8.7 0
      vertex 8.7 58.45 0
    endloop
  endfacet
  facet normal 0 1 0
    outer loop
      vertex 103.45 8.7 6.7
      vertex 103.45 8.7 0
      vertex 8.7 8.7 6.7
    endloop
  endfacet
  facet normal 0 1 0
    outer loop
      vertex 8.7 8.7 6.7
      vertex 103.45 8.7 0
      vertex 8.7 8.7 0
    endloop
  endfacet
  facet normal 0 -1 0
    outer loop
      vertex 8.7 58.45 6.7
      vertex 103.45 58.45 0
      vertex 103.45 58.45 6.7
    endloop
  endfacet
  facet normal 0 -1 0
    outer loop
      vertex 8.7 58.45 6.7
      vertex 8.7 58.45 0
      vertex 103.45 58.45 0
    endloop
  endfacet
  facet normal -1 -0 -0
    outer loop
      vertex 103.45 27.7 6.7
      vertex 103.45 27.7 2
      vertex 103.45 8.7 6.7
    endloop
  endfacet
  facet normal -1 0 0
    outer loop
      vertex 103.45 8.7 0
      vertex 103.45 27.7 2
      vertex 103.45 58.45 0
    endloop
  endfacet
  facet normal -1 -0 0
    outer loop
      vertex 103.45 58.45 6.7
      vertex 103.45 39.7 2
      vertex 103.45 39.7 6.7
    endloop
  endfacet
  facet normal -1 0 0
    outer loop
      vertex 103.45 58.45 0
      vertex 103.45 39.7 2
      vertex 103.45 58.45 6.7
    endloop
  endfacet
  facet normal -1 0 0
    outer loop
      vertex 103.45 27.7 2
      vertex 103.45 39.7 2
      vertex 103.45 58.45 0
    endloop
  endfacet
  facet normal -1 0 0
    outer loop
      vertex 103.45 8.7 6.7
      vertex 103.45 27.7 2
      vertex 103.45 8.7 0
    endloop
  endfacet
  facet normal 0 1 0
    outer loop
      vertex 108.45 27.7 6.7
      vertex 108.45 27.7 13.2
      vertex 112.15 27.7 13.2
    endloop
  endfacet
  facet normal -0 1 0
    outer loop
      vertex 108.45 27.7 6.7
      vertex 112.15 27.7 13.2
      vertex 112.15 27.7 2
    endloop
  endfacet
  facet normal 0 1 0
    outer loop
      vertex 108.45 27.7 6.7
      vertex 103.45 27.7 2
      vertex 103.45 27.7 6.7
    endloop
  endfacet
  facet normal 0 1 0
    outer loop
      vertex 112.15 27.7 2
      vertex 103.45 27.7 2
      vertex 108.45 27.7 6.7
    endloop
  endfacet
  facet normal -0 0 1
    outer loop
      vertex 103.45 39.7 2
      vertex 112.15 27.7 2
      vertex 112.15 39.7 2
    endloop
  endfacet
  facet normal 0 0 1
    outer loop
      vertex 103.45 39.7 2
      vertex 103.45 27.7 2
      vertex 112.15 27.7 2
    endloop
  endfacet
  facet normal 0 -1 0
    outer loop
      vertex 108.45 39.7 6.7
      vertex 112.15 39.7 2
      vertex 112.15 39.7 13.2
    endloop
  endfacet
  facet normal 0 -1 0
    outer loop
      vertex 108.45 39.7 13.2
      vertex 108.45 39.7 6.7
      vertex 112.15 39.7 13.2
    endloop
  endfacet
  facet normal 0 -1 0
    outer loop
      vertex 103.45 39.7 2
      vertex 112.15 39.7 2
      vertex 108.45 39.7 6.7
    endloop
  endfacet
  facet normal 0 -1 0
    outer loop
      vertex 103.45 39.7 6.7
      vertex 103.45 39.7 2
      vertex 108.45 39.7 6.7
    endloop
  endfacet
  facet normal -0.980785 -0.19509 0
    outer loop
      vertex 1.21799e-16 5 0
      vertex 0.380602 3.08658 13.2
      vertex 1.21799e-16 5 13.2
    endloop
  endfacet
  facet normal -0.980785 -0.19509 0
    outer loop
      vertex 1.21799e-16 5 0
      vertex 0.380602 3.08658 0
      vertex 0.380602 3.08658 13.2
    endloop
  endfacet
  facet normal -0.19509 -0.980785 0
    outer loop
      vertex 5 0 0
      vertex 3.08658 0.380602 13.2
      vertex 3.08658 0.380602 0
    endloop
  endfacet
  facet normal -0.19509 -0.980785 0
    outer loop
      vertex 5 0 0
      vertex 5 0 13.2
      vertex 3.08658 0.380602 13.2
    endloop
  endfacet
  facet normal 0.10231 -0.994753 0
    outer loop
      vertex 5 1.82698e-16 0
      vertex 5 0 13.2
      vertex 5 0 0
    endloop
  endfacet
  facet normal 0.10231 -0.994753 0
    outer loop
      vertex 5 1.82698e-16 0
      vertex 5 1.82698e-16 13.2
      vertex 5 0 13.2
    endloop
  endfacet
  facet normal -0.55557 -0.83147 0
    outer loop
      vertex 3.08658 0.380602 0
      vertex 1.46447 1.46447 13.2
      vertex 1.46447 1.46447 0
    endloop
  endfacet
  facet normal -0.55557 -0.83147 0
    outer loop
      vertex 3.08658 0.380602 0
      vertex 3.08658 0.380602 13.2
      vertex 1.46447 1.46447 13.2
    endloop
  endfacet
  facet normal -0.83147 -0.55557 0
    outer loop
      vertex 0.380602 3.08658 0
      vertex 1.46447 1.46447 13.2
      vertex 0.380602 3.08658 13.2
    endloop
  endfacet
  facet normal -0.83147 -0.55557 0
    outer loop
      vertex 0.380602 3.08658 0
      vertex 1.46447 1.46447 0
      vertex 1.46447 1.46447 13.2
    endloop
  endfacet
  facet normal -1 0 0
    outer loop
      vertex 0 5 0
      vertex 0 5 13.2
      vertex 0 62.15 0
    endloop
  endfacet
  facet normal -1 0 0
    outer loop
      vertex 0 62.15 0
      vertex 0 5 13.2
      vertex 0 62.15 13.2
    endloop
  endfacet
  facet normal 0 -1 0
    outer loop
      vertex 1.21799e-16 5 0
      vertex 0 5 13.2
      vertex 0 5 0
    endloop
  endfacet
  facet normal 0 -1 0
    outer loop
      vertex 1.21799e-16 5 0
      vertex 1.21799e-16 5 13.2
      vertex 0 5 13.2
    endloop
  endfacet
  facet normal -1 0 0
    outer loop
      vertex 5 0 0
      vertex 5 0 13.2
      vertex 5 1.82698e-16 0
    endloop
  endfacet
  facet normal -1 0 0
    outer loop
      vertex 5 1.82698e-16 0
      vertex 5 0 13.2
      vertex 5 1.82698e-16 13.2
    endloop
  endfacet
  facet normal 0 -1 0
    outer loop
      vertex 102.125 0 0
      vertex 5 0 13.2
      vertex 5 0 0
    endloop
  endfacet
  facet normal 0 -1 0
    outer loop
      vertex 102.125 0 0
      vertex 102.125 0 13.2
      vertex 5 0 13.2
    endloop
  endfacet
  facet normal 1 -0 0
    outer loop
      vertex 102.125 0 13.2
      vertex 102.125 1.11577e-15 0
      vertex 102.125 1.11577e-15 13.2
    endloop
  endfacet
  facet normal 1 0 0
    outer loop
      vertex 102.125 0 13.2
      vertex 102.125 0 0
      vertex 102.125 1.11577e-15 0
    endloop
  endfacet
  facet normal 0.19509 -0.980785 0
    outer loop
      vertex 109.063 0.380602 0
      vertex 107.15 1.21799e-16 13.2
      vertex 107.15 1.21799e-16 0
    endloop
  endfacet
  facet normal 0.19509 -0.980785 0
    outer loop
      vertex 109.063 0.380602 0
      vertex 109.063 0.380602 13.2
      vertex 107.15 1.21799e-16 13.2
    endloop
  endfacet
  facet normal 0.980785 -0.19509 0
    outer loop
      vertex 112.15 5 0
      vertex 111.769 3.08658 13.2
      vertex 111.769 3.08658 0
    endloop
  endfacet
  facet normal 0.980785 -0.19509 0
    outer loop
      vertex 112.15 5 0
      vertex 112.15 5 13.2
      vertex 111.769 3.08658 13.2
    endloop
  endfacet
  facet normal 0.83147 -0.55557 0
    outer loop
      vertex 111.769 3.08658 0
      vertex 110.686 1.46447 13.2
      vertex 110.686 1.46447 0
    endloop
  endfacet
  facet normal 0.83147 -0.55557 0
    outer loop
      vertex 111.769 3.08658 0
      vertex 111.769 3.08658 13.2
      vertex 110.686 1.46447 13.2
    endloop
  endfacet
  facet normal 0.55557 -0.83147 0
    outer loop
      vertex 110.686 1.46447 0
      vertex 109.063 0.380602 13.2
      vertex 109.063 0.380602 0
    endloop
  endfacet
  facet normal 0.55557 -0.83147 0
    outer loop
      vertex 110.686 1.46447 0
      vertex 110.686 1.46447 13.2
      vertex 109.063 0.380602 13.2
    endloop
  endfacet
  facet normal -2.22045e-16 -1 0
    outer loop
      vertex 107.15 0 0
      vertex 102.125 1.11577e-15 13.2
      vertex 102.125 1.11577e-15 0
    endloop
  endfacet
  facet normal -2.22045e-16 -1 0
    outer loop
      vertex 107.15 0 0
      vertex 107.15 0 13.2
      vertex 102.125 1.11577e-15 13.2
    endloop
  endfacet
  facet normal 1 0 0
    outer loop
      vertex 107.15 1.21799e-16 0
      vertex 107.15 0 13.2
      vertex 107.15 0 0
    endloop
  endfacet
  facet normal 1 0 -0
    outer loop
      vertex 107.15 1.21799e-16 0
      vertex 107.15 1.21799e-16 13.2
      vertex 107.15 0 13.2
    endloop
  endfacet
  facet normal 0.980785 0.19509 0
    outer loop
      vertex 112.15 62.15 13.2
      vertex 112.15 62.15 0
      vertex 111.769 64.0634 0
    endloop
  endfacet
  facet normal 0.980785 0.19509 0
    outer loop
      vertex 111.769 64.0634 13.2
      vertex 112.15 62.15 13.2
      vertex 111.769 64.0634 0
    endloop
  endfacet
  facet normal 0.19509 0.980785 -0
    outer loop
      vertex 107.15 67.15 0
      vertex 107.15 67.15 13.2
      vertex 109.063 66.7694 0
    endloop
  endfacet
  facet normal 0.19509 0.980785 -0
    outer loop
      vertex 109.063 66.7694 0
      vertex 107.15 67.15 13.2
      vertex 109.063 66.7694 13.2
    endloop
  endfacet
  facet normal 0.55557 0.83147 -0
    outer loop
      vertex 109.063 66.7694 0
      vertex 109.063 66.7694 13.2
      vertex 110.686 65.6855 0
    endloop
  endfacet
  facet normal 0.55557 0.83147 -0
    outer loop
      vertex 110.686 65.6855 0
      vertex 109.063 66.7694 13.2
      vertex 110.686 65.6855 13.2
    endloop
  endfacet
  facet normal 0.83147 0.55557 0
    outer loop
      vertex 111.769 64.0634 13.2
      vertex 111.769 64.0634 0
      vertex 110.686 65.6855 0
    endloop
  endfacet
  facet normal 0.83147 0.55557 0
    outer loop
      vertex 110.686 65.6855 13.2
      vertex 111.769 64.0634 13.2
      vertex 110.686 65.6855 0
    endloop
  endfacet
  facet normal 1 -2.82803e-15 0
    outer loop
      vertex 112.15 62.15 0
      vertex 112.15 57.125 13.2
      vertex 112.15 57.125 0
    endloop
  endfacet
  facet normal 1 -2.82803e-15 0
    outer loop
      vertex 112.15 62.15 0
      vertex 112.15 62.15 13.2
      vertex 112.15 57.125 13.2
    endloop
  endfacet
  facet normal -0.19509 0.980785 0
    outer loop
      vertex 3.08658 66.7694 0
      vertex 3.08658 66.7694 13.2
      vertex 5 67.15 0
    endloop
  endfacet
  facet normal -0.19509 0.980785 0
    outer loop
      vertex 5 67.15 0
      vertex 3.08658 66.7694 13.2
      vertex 5 67.15 13.2
    endloop
  endfacet
  facet normal -0.980785 0.19509 0
    outer loop
      vertex 2.03945e-31 62.15 0
      vertex 2.03945e-31 62.15 13.2
      vertex 0.380602 64.0634 0
    endloop
  endfacet
  facet normal -0.980785 0.19509 0
    outer loop
      vertex 0.380602 64.0634 0
      vertex 2.03945e-31 62.15 13.2
      vertex 0.380602 64.0634 13.2
    endloop
  endfacet
  facet normal -0 -1 0
    outer loop
      vertex 1.82698e-16 62.15 13.2
      vertex 2.03945e-31 62.15 13.2
      vertex 2.03945e-31 62.15 0
    endloop
  endfacet
  facet normal 0 -1 0
    outer loop
      vertex 1.82698e-16 62.15 0
      vertex 1.82698e-16 62.15 13.2
      vertex 2.03945e-31 62.15 0
    endloop
  endfacet
  facet normal -0.83147 0.55557 0
    outer loop
      vertex 0.380602 64.0634 0
      vertex 0.380602 64.0634 13.2
      vertex 1.46447 65.6855 0
    endloop
  endfacet
  facet normal -0.83147 0.55557 0
    outer loop
      vertex 1.46447 65.6855 0
      vertex 0.380602 64.0634 13.2
      vertex 1.46447 65.6855 13.2
    endloop
  endfacet
  facet normal -0.55557 0.83147 0
    outer loop
      vertex 1.46447 65.6855 0
      vertex 1.46447 65.6855 13.2
      vertex 3.08658 66.7694 0
    endloop
  endfacet
  facet normal -0.55557 0.83147 0
    outer loop
      vertex 3.08658 66.7694 0
      vertex 1.46447 65.6855 13.2
      vertex 3.08658 66.7694 13.2
    endloop
  endfacet
  facet normal 2.82803e-15 1 -0
    outer loop
      vertex 5 67.15 0
      vertex 5 67.15 13.2
      vertex 10.025 67.15 0
    endloop
  endfacet
  facet normal 2.82803e-15 1 -0
    outer loop
      vertex 10.025 67.15 0
      vertex 5 67.15 13.2
      vertex 10.025 67.15 13.2
    endloop
  endfacet
  facet normal 0 1 0
    outer loop
      vertex 0 62.15 0
      vertex 0 62.15 13.2
      vertex 1.82698e-16 62.15 0
    endloop
  endfacet
  facet normal 0 1 -0
    outer loop
      vertex 1.82698e-16 62.15 0
      vertex 0 62.15 13.2
      vertex 1.82698e-16 62.15 13.2
    endloop
  endfacet
  facet normal 0 0 -1
    outer loop
      vertex 0 5 0
      vertex 8.7 8.7 0
      vertex 1.21799e-16 5 0
    endloop
  endfacet
  facet normal 0 0 -1
    outer loop
      vertex 0 5 0
      vertex 0 62.15 0
      vertex 8.7 58.45 0
    endloop
  endfacet
  facet normal 0 0 -1
    outer loop
      vertex 1.82698e-16 62.15 0
      vertex 2.03945e-31 62.15 0
      vertex 0.380602 64.0634 0
    endloop
  endfacet
  facet normal -0 -0 -1
    outer loop
      vertex 1.82698e-16 62.15 0
      vertex 8.7 58.45 0
      vertex 0 62.15 0
    endloop
  endfacet
  facet normal 0 0 -1
    outer loop
      vertex 1.82698e-16 62.15 0
      vertex 0.380602 64.0634 0
      vertex 5 67.15 0
    endloop
  endfacet
  facet normal 0 0 -1
    outer loop
      vertex 0.380602 64.0634 0
      vertex 1.46447 65.6855 0
      vertex 3.08658 66.7694 0
    endloop
  endfacet
  facet normal 0 0 -1
    outer loop
      vertex 0.380602 64.0634 0
      vertex 3.08658 66.7694 0
      vertex 5 67.15 0
    endloop
  endfacet
  facet normal 0 -0 -1
    outer loop
      vertex 5 67.15 0
      vertex 8.7 58.45 0
      vertex 1.82698e-16 62.15 0
    endloop
  endfacet
  facet normal 0 0 -1
    outer loop
      vertex 10.025 67.15 0
      vertex 107.15 67.15 0
      vertex 103.45 58.45 0
    endloop
  endfacet
  facet normal 0 0 -1
    outer loop
      vertex 103.45 58.45 0
      vertex 8.7 58.45 0
      vertex 10.025 67.15 0
    endloop
  endfacet
  facet normal 0 0 -1
    outer loop
      vertex 107.15 67.15 0
      vertex 109.063 66.7694 0
      vertex 112.15 62.15 0
    endloop
  endfacet
  facet normal 0 0 -1
    outer loop
      vertex 109.063 66.7694 0
      vertex 110.686 65.6855 0
      vertex 111.769 64.0634 0
    endloop
  endfacet
  facet normal 0 0 -1
    outer loop
      vertex 109.063 66.7694 0
      vertex 111.769 64.0634 0
      vertex 112.15 62.15 0
    endloop
  endfacet
  facet normal -0 0 -1
    outer loop
      vertex 112.15 62.15 0
      vertex 103.45 58.45 0
      vertex 107.15 67.15 0
    endloop
  endfacet
  facet normal 0 -0 -1
    outer loop
      vertex 112.15 57.125 0
      vertex 112.15 5 0
      vertex 103.45 8.7 0
    endloop
  endfacet
  facet normal 0 0 -1
    outer loop
      vertex 5 1.82698e-16 0
      vertex 3.08658 0.380602 0
      vertex 1.21799e-16 5 0
    endloop
  endfacet
  facet normal -0 0 -1
    outer loop
      vertex 111.769 3.08658 0
      vertex 107.15 1.21799e-16 0
      vertex 112.15 5 0
    endloop
  endfacet
  facet normal -0 0 -1
    outer loop
      vertex 110.686 1.46447 0
      vertex 109.063 0.380602 0
      vertex 111.769 3.08658 0
    endloop
  endfacet
  facet normal -0 0 -1
    outer loop
      vertex 109.063 0.380602 0
      vertex 107.15 1.21799e-16 0
      vertex 111.769 3.08658 0
    endloop
  endfacet
  facet normal 0 0 -1
    outer loop
      vertex 107.15 1.21799e-16 0
      vertex 103.45 8.7 0
      vertex 112.15 5 0
    endloop
  endfacet
  facet normal 0 0 -1
    outer loop
      vertex 107.15 0 0
      vertex 102.125 1.11577e-15 0
      vertex 107.15 1.21799e-16 0
    endloop
  endfacet
  facet normal 0 0 -1
    outer loop
      vertex 103.45 58.45 0
      vertex 112.15 62.15 0
      vertex 112.15 57.125 0
    endloop
  endfacet
  facet normal 0 0 -1
    outer loop
      vertex 102.125 0 0
      vertex 8.7 8.7 0
      vertex 102.125 1.11577e-15 0
    endloop
  endfacet
  facet normal 0 0 -1
    outer loop
      vertex 102.125 0 0
      vertex 5 0 0
      vertex 8.7 8.7 0
    endloop
  endfacet
  facet normal 0 0 -1
    outer loop
      vertex 8.7 8.7 0
      vertex 5 1.82698e-16 0
      vertex 1.21799e-16 5 0
    endloop
  endfacet
  facet normal 0 0 -1
    outer loop
      vertex 5 0 0
      vertex 3.08658 0.380602 0
      vertex 5 1.82698e-16 0
    endloop
  endfacet
  facet normal 0 0 -1
    outer loop
      vertex 3.08658 0.380602 0
      vertex 0.380602 3.08658 0
      vertex 1.21799e-16 5 0
    endloop
  endfacet
  facet normal 0 0 -1
    outer loop
      vertex 1.46447 1.46447 0
      vertex 0.380602 3.08658 0
      vertex 3.08658 0.380602 0
    endloop
  endfacet
  facet normal -0 0 -1
    outer loop
      vertex 8.7 8.7 0
      vertex 0 5 0
      vertex 8.7 58.45 0
    endloop
  endfacet
  facet normal -0 0 -1
    outer loop
      vertex 10.025 67.15 0
      vertex 8.7 58.45 0
      vertex 5 67.15 0
    endloop
  endfacet
  facet normal 0 0 -1
    outer loop
      vertex 5 0 0
      vertex 5 1.82698e-16 0
      vertex 8.7 8.7 0
    endloop
  endfacet
  facet normal 0 0 -1
    outer loop
      vertex 102.125 1.11577e-15 0
      vertex 8.7 8.7 0
      vertex 103.45 8.7 0
    endloop
  endfacet
  facet normal 0 0 -1
    outer loop
      vertex 102.125 1.11577e-15 0
      vertex 103.45 8.7 0
      vertex 107.15 1.21799e-16 0
    endloop
  endfacet
  facet normal 0 0 -1
    outer loop
      vertex 103.45 8.7 0
      vertex 103.45 58.45 0
      vertex 112.15 57.125 0
    endloop
  endfacet
  facet normal 0 1 0
    outer loop
      vertex 10.025 67.15 0
      vertex 10.025 67.15 13.2
      vertex 107.15 67.15 0
    endloop
  endfacet
  facet normal 0 1 -0
    outer loop
      vertex 107.15 67.15 0
      vertex 10.025 67.15 13.2
      vertex 107.15 67.15 13.2
    endloop
  endfacet
  facet normal 0 0 1
    outer loop
      vertex 1.82698e-16 62.15 13.2
      vertex 0 62.15 13.2
      vertex 0 5 13.2
    endloop
  endfacet
  facet normal 0 -0 1
    outer loop
      vertex 5 0 13.2
      vertex 5 1.82698e-16 13.2
      vertex 3.7 3.7 13.2
    endloop
  endfacet
  facet normal 0 -0 1
    outer loop
      vertex 0.380602 3.08658 13.2
      vertex 3.7 3.7 13.2
      vertex 1.21799e-16 5 13.2
    endloop
  endfacet
  facet normal 0 -0 1
    outer loop
      vertex 1.46447 1.46447 13.2
      vertex 3.7 3.7 13.2
      vertex 0.380602 3.08658 13.2
    endloop
  endfacet
  facet normal 0 -0 1
    outer loop
      vertex 3.08658 0.380602 13.2
      vertex 3.7 3.7 13.2
      vertex 1.46447 1.46447 13.2
    endloop
  endfacet
  facet normal 0 0 1
    outer loop
      vertex 5 0 13.2
      vertex 3.7 3.7 13.2
      vertex 3.08658 0.380602 13.2
    endloop
  endfacet
  facet normal 0 0 1
    outer loop
      vertex 5 0 13.2
      vertex 102.125 0 13.2
      vertex 5 1.82698e-16 13.2
    endloop
  endfacet
  facet normal 0 0 1
    outer loop
      vertex 3.7 63.45 13.2
      vertex 10.025 67.15 13.2
      vertex 5 67.15 13.2
    endloop
  endfacet
  facet normal 0 -0 1
    outer loop
      vertex 102.125 0 13.2
      vertex 102.125 1.11577e-15 13.2
      vertex 5 1.82698e-16 13.2
    endloop
  endfacet
  facet normal 0 0 1
    outer loop
      vertex 3.7 3.7 13.2
      vertex 5 1.82698e-16 13.2
      vertex 102.125 1.11577e-15 13.2
    endloop
  endfacet
  facet normal 0 -0 1
    outer loop
      vertex 107.15 0 13.2
      vertex 107.15 1.21799e-16 13.2
      vertex 102.125 1.11577e-15 13.2
    endloop
  endfacet
  facet normal 0 -0 1
    outer loop
      vertex 107.15 1.21799e-16 13.2
      vertex 108.45 3.7 13.2
      vertex 102.125 1.11577e-15 13.2
    endloop
  endfacet
  facet normal 0 0 1
    outer loop
      vertex 109.063 0.380602 13.2
      vertex 108.45 3.7 13.2
      vertex 107.15 1.21799e-16 13.2
    endloop
  endfacet
  facet normal 0 0 1
    outer loop
      vertex 110.686 1.46447 13.2
      vertex 108.45 3.7 13.2
      vertex 109.063 0.380602 13.2
    endloop
  endfacet
  facet normal 0 0 1
    outer loop
      vertex 111.769 3.08658 13.2
      vertex 108.45 3.7 13.2
      vertex 110.686 1.46447 13.2
    endloop
  endfacet
  facet normal 0 0 1
    outer loop
      vertex 112.15 5 13.2
      vertex 108.45 3.7 13.2
      vertex 111.769 3.08658 13.2
    endloop
  endfacet
  facet normal 0 0 1
    outer loop
      vertex 112.15 27.7 13.2
      vertex 108.45 27.7 13.2
      vertex 112.15 5 13.2
    endloop
  endfacet
  facet normal 0 0 1
    outer loop
      vertex 108.45 27.7 13.2
      vertex 108.45 3.7 13.2
      vertex 112.15 5 13.2
    endloop
  endfacet
  facet normal 0 0 1
    outer loop
      vertex 1.21799e-16 5 13.2
      vertex 3.7 63.45 13.2
      vertex 1.82698e-16 62.15 13.2
    endloop
  endfacet
  facet normal 0 -0 1
    outer loop
      vertex 3.7 3.7 13.2
      vertex 3.7 63.45 13.2
      vertex 1.21799e-16 5 13.2
    endloop
  endfacet
  facet normal 0 0 1
    outer loop
      vertex 111.769 64.0634 13.2
      vertex 108.45 63.45 13.2
      vertex 112.15 62.15 13.2
    endloop
  endfacet
  facet normal 0 0 1
    outer loop
      vertex 112.15 39.7 13.2
      vertex 112.15 57.125 13.2
      vertex 108.45 39.7 13.2
    endloop
  endfacet
  facet normal 0 0 1
    outer loop
      vertex 112.15 57.125 13.2
      vertex 108.45 63.45 13.2
      vertex 108.45 39.7 13.2
    endloop
  endfacet
  facet normal 0 0 1
    outer loop
      vertex 112.15 62.15 13.2
      vertex 108.45 63.45 13.2
      vertex 112.15 57.125 13.2
    endloop
  endfacet
  facet normal 0 0 1
    outer loop
      vertex 111.769 64.0634 13.2
      vertex 110.686 65.6855 13.2
      vertex 108.45 63.45 13.2
    endloop
  endfacet
  facet normal 0 0 1
    outer loop
      vertex 110.686 65.6855 13.2
      vertex 109.063 66.7694 13.2
      vertex 108.45 63.45 13.2
    endloop
  endfacet
  facet normal 0 0 1
    outer loop
      vertex 109.063 66.7694 13.2
      vertex 107.15 67.15 13.2
      vertex 108.45 63.45 13.2
    endloop
  endfacet
  facet normal -0 0 1
    outer loop
      vertex 3.08658 66.7694 13.2
      vertex 3.7 63.45 13.2
      vertex 5 67.15 13.2
    endloop
  endfacet
  facet normal nan nan nan
    outer loop
      vertex 3.7 63.45 13.2
      vertex 2.03945e-31 62.15 13.2
      vertex 1.82698e-16 62.15 13.2
    endloop
  endfacet
  facet normal 0 0 1
    outer loop
      vertex 3.08658 66.7694 13.2
      vertex 1.46447 65.6855 13.2
      vertex 3.7 63.45 13.2
    endloop
  endfacet
  facet normal 0 0 1
    outer loop
      vertex 1.46447 65.6855 13.2
      vertex 0.380602 64.0634 13.2
      vertex 3.7 63.45 13.2
    endloop
  endfacet
  facet normal 0 0 1
    outer loop
      vertex 0.380602 64.0634 13.2
      vertex 2.03945e-31 62.15 13.2
      vertex 3.7 63.45 13.2
    endloop
  endfacet
  facet normal 0 -0 1
    outer loop
      vertex 1.21799e-16 5 13.2
      vertex 1.82698e-16 62.15 13.2
      vertex 0 5 13.2
    endloop
  endfacet
  facet normal 0 -0 1
    outer loop
      vertex 102.125 1.11577e-15 13.2
      vertex 108.45 3.7 13.2
      vertex 3.7 3.7 13.2
    endloop
  endfacet
  facet normal 0 0 1
    outer loop
      vertex 107.15 67.15 13.2
      vertex 10.025 67.15 13.2
      vertex 108.45 63.45 13.2
    endloop
  endfacet
  facet normal 0 0 1
    outer loop
      vertex 10.025 67.15 13.2
      vertex 3.7 63.45 13.2
      vertex 108.45 63.45 13.2
    endloop
  endfacet
  facet normal 1 0 -0
    outer loop
      vertex 112.15 57.125 0
      vertex 112.15 57.125 13.2
      vertex 112.15 39.7 2
    endloop
  endfacet
  facet normal 1 0 0
    outer loop
      vertex 112.15 57.125 13.2
      vertex 112.15 39.7 13.2
      vertex 112.15 39.7 2
    endloop
  endfacet
  facet normal 1 0 0
    outer loop
      vertex 112.15 57.125 0
      vertex 112.15 27.7 2
      vertex 112.15 5 0
    endloop
  endfacet
  facet normal 1 0 0
    outer loop
      vertex 112.15 39.7 2
      vertex 112.15 27.7 2
      vertex 112.15 57.125 0
    endloop
  endfacet
  facet normal 1 0 0
    outer loop
      vertex 112.15 27.7 2
      vertex 112.15 5 13.2
      vertex 112.15 5 0
    endloop
  endfacet
  facet normal 1 0 0
    outer loop
      vertex 112.15 27.7 13.2
      vertex 112.15 5 13.2
      vertex 112.15 27.7 2
    endloop
  endfacet
endsolid OpenSCAD_Model
