solid OpenSCAD_Model
  facet normal 1 -0 0
    outer loop
      vertex 55.625 -7.825 8.2
      vertex 55.625 -7.8 0
      vertex 55.625 -7.8 8.2
    endloop
  endfacet
  facet normal 1 0 0
    outer loop
      vertex 55.625 -7.825 8.2
      vertex 55.625 -7.825 0
      vertex 55.625 -7.8 0
    endloop
  endfacet
  facet normal 0 -1 0
    outer loop
      vertex 55.625 -7.8 8.2
      vertex 55.65 -7.8 0
      vertex 55.65 -7.8 8.2
    endloop
  endfacet
  facet normal 0 -1 0
    outer loop
      vertex 55.625 -7.8 8.2
      vertex 55.625 -7.8 0
      vertex 55.65 -7.8 0
    endloop
  endfacet
  facet normal 0.104528 -0.994522 0
    outer loop
      vertex 61.6896 -17.7157 0
      vertex 60.65 -17.825 12.2
      vertex 60.65 -17.825 0
    endloop
  endfacet
  facet normal 0.104528 -0.994522 0
    outer loop
      vertex 61.6896 -17.7157 0
      vertex 61.6896 -17.7157 12.2
      vertex 60.65 -17.825 12.2
    endloop
  endfacet
  facet normal 1 0 0
    outer loop
      vertex 65.6226 -12.825 0
      vertex 65.6226 -13.3476 12.2
      vertex 65.6226 -13.3476 0
    endloop
  endfacet
  facet normal 1 0 -0
    outer loop
      vertex 65.6226 -12.825 0
      vertex 65.6226 -12.825 12.2
      vertex 65.6226 -13.3476 12.2
    endloop
  endfacet
  facet normal 0.309017 -0.951057 0
    outer loop
      vertex 62.6837 -17.3927 0
      vertex 61.6896 -17.7157 12.2
      vertex 61.6896 -17.7157 0
    endloop
  endfacet
  facet normal 0.309017 -0.951057 0
    outer loop
      vertex 62.6837 -17.3927 0
      vertex 62.6837 -17.3927 12.2
      vertex 61.6896 -17.7157 12.2
    endloop
  endfacet
  facet normal 0.669131 -0.743145 0
    outer loop
      vertex 64.3657 -16.1707 0
      vertex 63.5889 -16.8701 12.2
      vertex 63.5889 -16.8701 0
    endloop
  endfacet
  facet normal 0.669131 -0.743145 0
    outer loop
      vertex 64.3657 -16.1707 0
      vertex 64.3657 -16.1707 12.2
      vertex 63.5889 -16.8701 12.2
    endloop
  endfacet
  facet normal 0.5 -0.866025 0
    outer loop
      vertex 63.5889 -16.8701 0
      vertex 62.6837 -17.3927 12.2
      vertex 62.6837 -17.3927 0
    endloop
  endfacet
  facet normal 0.5 -0.866025 0
    outer loop
      vertex 63.5889 -16.8701 0
      vertex 63.5889 -16.8701 12.2
      vertex 62.6837 -17.3927 12.2
    endloop
  endfacet
  facet normal 0.978148 -0.207912 0
    outer loop
      vertex 65.6226 -13.3476 0
      vertex 65.4053 -14.3701 12.2
      vertex 65.4053 -14.3701 0
    endloop
  endfacet
  facet normal 0.978148 -0.207912 0
    outer loop
      vertex 65.6226 -13.3476 0
      vertex 65.6226 -13.3476 12.2
      vertex 65.4053 -14.3701 12.2
    endloop
  endfacet
  facet normal 0.809017 -0.587785 0
    outer loop
      vertex 64.9801 -15.325 0
      vertex 64.3657 -16.1707 12.2
      vertex 64.3657 -16.1707 0
    endloop
  endfacet
  facet normal 0.809017 -0.587785 0
    outer loop
      vertex 64.9801 -15.325 0
      vertex 64.9801 -15.325 12.2
      vertex 64.3657 -16.1707 12.2
    endloop
  endfacet
  facet normal 0.913545 -0.406737 0
    outer loop
      vertex 65.4053 -14.3701 0
      vertex 64.9801 -15.325 12.2
      vertex 64.9801 -15.325 0
    endloop
  endfacet
  facet normal 0.913545 -0.406737 0
    outer loop
      vertex 65.4053 -14.3701 0
      vertex 65.4053 -14.3701 12.2
      vertex 64.9801 -15.325 12.2
    endloop
  endfacet
  facet normal -7.07008e-16 -1 0
    outer loop
      vertex 60.65 -17.825 0
      vertex 55.625 -17.825 12.2
      vertex 55.625 -17.825 0
    endloop
  endfacet
  facet normal -7.07008e-16 -1 0
    outer loop
      vertex 60.65 -17.825 0
      vertex 60.65 -17.825 12.2
      vertex 55.625 -17.825 12.2
    endloop
  endfacet
  facet normal 0 1 0
    outer loop
      vertex 55.625 -7.825 0
      vertex 55.625 -7.825 8.2
      vertex 55.65 -7.825 0
    endloop
  endfacet
  facet normal 0 1 -0
    outer loop
      vertex 55.65 -7.825 0
      vertex 55.625 -7.825 8.2
      vertex 55.65 -7.825 8.2
    endloop
  endfacet
  facet normal 0 -1 0
    outer loop
      vertex 65.65 -12.825 0
      vertex 65.6226 -12.825 12.2
      vertex 65.6226 -12.825 0
    endloop
  endfacet
  facet normal 0 -1 0
    outer loop
      vertex 65.65 -12.825 0
      vertex 65.65 -12.825 12.2
      vertex 65.6226 -12.825 12.2
    endloop
  endfacet
  facet normal -1 0 0
    outer loop
      vertex 55.65 -7.825 0
      vertex 55.65 -7.825 8.2
      vertex 55.65 -7.8 0
    endloop
  endfacet
  facet normal -1 0 0
    outer loop
      vertex 55.65 -7.8 0
      vertex 55.65 -7.825 8.2
      vertex 55.65 -7.8 8.2
    endloop
  endfacet
  facet normal 0 1 0
    outer loop
      vertex 55.65 7.8 8.2
      vertex 55.65 7.8 0
      vertex 55.625 7.8 8.2
    endloop
  endfacet
  facet normal 0 1 0
    outer loop
      vertex 55.625 7.8 8.2
      vertex 55.65 7.8 0
      vertex 55.625 7.8 0
    endloop
  endfacet
  facet normal 1 -0 0
    outer loop
      vertex 55.625 7.8 8.2
      vertex 55.625 7.825 0
      vertex 55.625 7.825 8.2
    endloop
  endfacet
  facet normal 1 0 0
    outer loop
      vertex 55.625 7.8 8.2
      vertex 55.625 7.8 0
      vertex 55.625 7.825 0
    endloop
  endfacet
  facet normal 0.994522 0.104528 0
    outer loop
      vertex 65.65 12.825 12.2
      vertex 65.65 12.825 0
      vertex 65.5407 13.8646 0
    endloop
  endfacet
  facet normal 0.994522 0.104528 0
    outer loop
      vertex 65.5407 13.8646 12.2
      vertex 65.65 12.825 12.2
      vertex 65.5407 13.8646 0
    endloop
  endfacet
  facet normal 6.7976e-15 1 -0
    outer loop
      vertex 60.65 17.7976 0
      vertex 60.65 17.7976 12.2
      vertex 61.1726 17.7976 0
    endloop
  endfacet
  facet normal 6.7976e-15 1 -0
    outer loop
      vertex 61.1726 17.7976 0
      vertex 60.65 17.7976 12.2
      vertex 61.1726 17.7976 12.2
    endloop
  endfacet
  facet normal 0.951057 0.309017 0
    outer loop
      vertex 65.5407 13.8646 12.2
      vertex 65.5407 13.8646 0
      vertex 65.2177 14.8587 0
    endloop
  endfacet
  facet normal 0.951057 0.309017 0
    outer loop
      vertex 65.2177 14.8587 12.2
      vertex 65.5407 13.8646 12.2
      vertex 65.2177 14.8587 0
    endloop
  endfacet
  facet normal 0.743145 0.669131 0
    outer loop
      vertex 64.6951 15.7639 12.2
      vertex 64.6951 15.7639 0
      vertex 63.9957 16.5407 0
    endloop
  endfacet
  facet normal 0.743145 0.669131 0
    outer loop
      vertex 63.9957 16.5407 12.2
      vertex 64.6951 15.7639 12.2
      vertex 63.9957 16.5407 0
    endloop
  endfacet
  facet normal 0.866025 0.5 0
    outer loop
      vertex 65.2177 14.8587 12.2
      vertex 65.2177 14.8587 0
      vertex 64.6951 15.7639 0
    endloop
  endfacet
  facet normal 0.866025 0.5 0
    outer loop
      vertex 64.6951 15.7639 12.2
      vertex 65.2177 14.8587 12.2
      vertex 64.6951 15.7639 0
    endloop
  endfacet
  facet normal 0.207912 0.978148 -0
    outer loop
      vertex 61.1726 17.7976 0
      vertex 61.1726 17.7976 12.2
      vertex 62.1951 17.5803 0
    endloop
  endfacet
  facet normal 0.207912 0.978148 -0
    outer loop
      vertex 62.1951 17.5803 0
      vertex 61.1726 17.7976 12.2
      vertex 62.1951 17.5803 12.2
    endloop
  endfacet
  facet normal 0.587785 0.809017 -0
    outer loop
      vertex 63.15 17.1551 0
      vertex 63.15 17.1551 12.2
      vertex 63.9957 16.5407 0
    endloop
  endfacet
  facet normal 0.587785 0.809017 -0
    outer loop
      vertex 63.9957 16.5407 0
      vertex 63.15 17.1551 12.2
      vertex 63.9957 16.5407 12.2
    endloop
  endfacet
  facet normal 0.406737 0.913545 -0
    outer loop
      vertex 62.1951 17.5803 0
      vertex 62.1951 17.5803 12.2
      vertex 63.15 17.1551 0
    endloop
  endfacet
  facet normal 0.406737 0.913545 -0
    outer loop
      vertex 63.15 17.1551 0
      vertex 62.1951 17.5803 12.2
      vertex 63.15 17.1551 12.2
    endloop
  endfacet
  facet normal 1 -2.82803e-15 0
    outer loop
      vertex 65.65 12.825 0
      vertex 65.65 7.8 12.2
      vertex 65.65 7.8 0
    endloop
  endfacet
  facet normal 1 -2.82803e-15 0
    outer loop
      vertex 65.65 12.825 0
      vertex 65.65 12.825 12.2
      vertex 65.65 7.8 12.2
    endloop
  endfacet
  facet normal -1 0 0
    outer loop
      vertex 55.65 7.8 0
      vertex 55.65 7.8 8.2
      vertex 55.65 7.825 0
    endloop
  endfacet
  facet normal -1 0 0
    outer loop
      vertex 55.65 7.825 0
      vertex 55.65 7.8 8.2
      vertex 55.65 7.825 8.2
    endloop
  endfacet
  facet normal 1 0 0
    outer loop
      vertex 60.65 17.825 0
      vertex 60.65 17.7976 12.2
      vertex 60.65 17.7976 0
    endloop
  endfacet
  facet normal 1 0 -0
    outer loop
      vertex 60.65 17.825 0
      vertex 60.65 17.825 12.2
      vertex 60.65 17.7976 12.2
    endloop
  endfacet
  facet normal 0 -1 0
    outer loop
      vertex 55.65 7.825 0
      vertex 55.625 7.825 8.2
      vertex 55.625 7.825 0
    endloop
  endfacet
  facet normal 0 -1 0
    outer loop
      vertex 55.65 7.825 0
      vertex 55.65 7.825 8.2
      vertex 55.625 7.825 8.2
    endloop
  endfacet
  facet normal -1 0 0
    outer loop
      vertex 0 -17.825 0
      vertex 0 -16.175 7.5
      vertex 0 -16.175 0
    endloop
  endfacet
  facet normal -1 0 0
    outer loop
      vertex 0 -16.175 7.5
      vertex 0 -9.975 12.2
      vertex 0 -9.975 8.2
    endloop
  endfacet
  facet normal -1 0 0
    outer loop
      vertex 0 -17.825 12.2
      vertex 0 -9.975 12.2
      vertex 0 -16.175 7.5
    endloop
  endfacet
  facet normal -1 0 0
    outer loop
      vertex 0 9.525 8.2
      vertex 0 9.525 12.2
      vertex 0 16.175 7.5
    endloop
  endfacet
  facet normal -1 0 0
    outer loop
      vertex 0 16.175 7.5
      vertex 0 17.825 0
      vertex 0 16.175 0
    endloop
  endfacet
  facet normal -1 0 -0
    outer loop
      vertex 0 17.825 12.2
      vertex 0 17.825 0
      vertex 0 16.175 7.5
    endloop
  endfacet
  facet normal -1 0 0
    outer loop
      vertex 0 9.525 12.2
      vertex 0 17.825 12.2
      vertex 0 16.175 7.5
    endloop
  endfacet
  facet normal -1 0 0
    outer loop
      vertex 0 -17.825 0
      vertex 0 -17.825 12.2
      vertex 0 -16.175 7.5
    endloop
  endfacet
  facet normal -1 0 0
    outer loop
      vertex 0 -16.175 7.5
      vertex 0 -9.975 8.2
      vertex 0 9.525 8.2
    endloop
  endfacet
  facet normal -1 0 0
    outer loop
      vertex 0 -16.175 7.5
      vertex 0 9.525 8.2
      vertex 0 16.175 7.5
    endloop
  endfacet
  facet normal 0 -1 0
    outer loop
      vertex 55.625 -17.825 0
      vertex 0 -17.825 12.2
      vertex 0 -17.825 0
    endloop
  endfacet
  facet normal 0 -1 0
    outer loop
      vertex 55.625 -17.825 0
      vertex 55.625 -17.825 12.2
      vertex 0 -17.825 12.2
    endloop
  endfacet
  facet normal 0 0 -1
    outer loop
      vertex -45.75 -12.825 0
      vertex -45.75 12.825 0
      vertex -45.7226 12.825 0
    endloop
  endfacet
  facet normal 0 0 -1
    outer loop
      vertex -45.7226 12.825 0
      vertex -45.7226 13.3476 0
      vertex -43.05 13.475 0
    endloop
  endfacet
  facet normal 0 -0 -1
    outer loop
      vertex -43.05 13.475 0
      vertex -43.05 -13.475 0
      vertex -45.7226 12.825 0
    endloop
  endfacet
  facet normal 0 0 -1
    outer loop
      vertex -45.7226 13.3476 0
      vertex -45.5053 14.3701 0
      vertex -43.05 13.475 0
    endloop
  endfacet
  facet normal 0 0 -1
    outer loop
      vertex -45.5053 14.3701 0
      vertex -45.0801 15.325 0
      vertex -43.05 13.475 0
    endloop
  endfacet
  facet normal 0 0 -1
    outer loop
      vertex -45.0801 15.325 0
      vertex -44.4657 16.1707 0
      vertex -43.05 13.475 0
    endloop
  endfacet
  facet normal 0 0 -1
    outer loop
      vertex -44.4657 16.1707 0
      vertex -43.6889 16.8701 0
      vertex -43.05 13.475 0
    endloop
  endfacet
  facet normal 0 0 -1
    outer loop
      vertex -43.6889 16.8701 0
      vertex -42.7837 17.3927 0
      vertex -43.05 13.475 0
    endloop
  endfacet
  facet normal 0 -0 -1
    outer loop
      vertex -42.7837 17.3927 0
      vertex -41.7896 17.7157 0
      vertex -43.05 13.475 0
    endloop
  endfacet
  facet normal 0 0 -1
    outer loop
      vertex -40.75 17.825 0
      vertex -43.05 13.475 0
      vertex -41.7896 17.7157 0
    endloop
  endfacet
  facet normal -0 0 -1
    outer loop
      vertex 60.65 17.7976 0
      vertex 55.625 7.825 0
      vertex 60.65 17.825 0
    endloop
  endfacet
  facet normal 0 0 -1
    outer loop
      vertex -35.725 17.825 0
      vertex -3.6 17.825 0
      vertex -16.55 13.475 0
    endloop
  endfacet
  facet normal -0 0 -1
    outer loop
      vertex 55.625 -7.825 0
      vertex 0 -16.175 0
      vertex 55.625 -7.8 0
    endloop
  endfacet
  facet normal 0 0 -1
    outer loop
      vertex 0 16.175 0
      vertex 0 17.825 0
      vertex 55.625 7.825 0
    endloop
  endfacet
  facet normal 0 0 -1
    outer loop
      vertex 0 17.825 0
      vertex 60.65 17.825 0
      vertex 55.625 7.825 0
    endloop
  endfacet
  facet normal -0 0 -1
    outer loop
      vertex 55.625 7.8 0
      vertex 0 -16.175 0
      vertex 0 16.175 0
    endloop
  endfacet
  facet normal 0 0 -1
    outer loop
      vertex 60.65 17.7976 0
      vertex 61.1726 17.7976 0
      vertex 62.1951 17.5803 0
    endloop
  endfacet
  facet normal 0 0 -1
    outer loop
      vertex 60.65 17.7976 0
      vertex 62.1951 17.5803 0
      vertex 63.15 17.1551 0
    endloop
  endfacet
  facet normal 0 0 -1
    outer loop
      vertex 60.65 17.7976 0
      vertex 63.15 17.1551 0
      vertex 63.9957 16.5407 0
    endloop
  endfacet
  facet normal 0 0 -1
    outer loop
      vertex 60.65 17.7976 0
      vertex 63.9957 16.5407 0
      vertex 64.6951 15.7639 0
    endloop
  endfacet
  facet normal 0 0 -1
    outer loop
      vertex 60.65 17.7976 0
      vertex 64.6951 15.7639 0
      vertex 65.2177 14.8587 0
    endloop
  endfacet
  facet normal 0 0 -1
    outer loop
      vertex 60.65 17.7976 0
      vertex 65.2177 14.8587 0
      vertex 65.5407 13.8646 0
    endloop
  endfacet
  facet normal 0 0 -1
    outer loop
      vertex 60.65 17.7976 0
      vertex 65.5407 13.8646 0
      vertex 65.65 12.825 0
    endloop
  endfacet
  facet normal 0 0 -1
    outer loop
      vertex 55.65 7.825 0
      vertex 55.625 7.825 0
      vertex 60.65 17.7976 0
    endloop
  endfacet
  facet normal 0 0 -1
    outer loop
      vertex 55.65 7.825 0
      vertex 60.65 17.7976 0
      vertex 65.65 12.825 0
    endloop
  endfacet
  facet normal 0 -0 -1
    outer loop
      vertex 65.65 7.8 0
      vertex 65.65 -12.825 0
      vertex 65.6226 -12.825 0
    endloop
  endfacet
  facet normal 0 0 -1
    outer loop
      vertex -16.55 13.475 0
      vertex -3.6 17.825 0
      vertex -3.6 16.175 0
    endloop
  endfacet
  facet normal -0 0 -1
    outer loop
      vertex 65.6226 -13.3476 0
      vertex 65.4053 -14.3701 0
      vertex 65.6226 -12.825 0
    endloop
  endfacet
  facet normal -0 0 -1
    outer loop
      vertex 65.4053 -14.3701 0
      vertex 64.9801 -15.325 0
      vertex 65.6226 -12.825 0
    endloop
  endfacet
  facet normal -0 0 -1
    outer loop
      vertex 64.9801 -15.325 0
      vertex 64.3657 -16.1707 0
      vertex 65.6226 -12.825 0
    endloop
  endfacet
  facet normal -0 0 -1
    outer loop
      vertex 64.3657 -16.1707 0
      vertex 63.5889 -16.8701 0
      vertex 65.6226 -12.825 0
    endloop
  endfacet
  facet normal -0 0 -1
    outer loop
      vertex 63.5889 -16.8701 0
      vertex 62.6837 -17.3927 0
      vertex 65.6226 -12.825 0
    endloop
  endfacet
  facet normal -0 0 -1
    outer loop
      vertex 62.6837 -17.3927 0
      vertex 61.6896 -17.7157 0
      vertex 65.6226 -12.825 0
    endloop
  endfacet
  facet normal -0 0 -1
    outer loop
      vertex 61.6896 -17.7157 0
      vertex 60.65 -17.825 0
      vertex 65.6226 -12.825 0
    endloop
  endfacet
  facet normal 0 0 -1
    outer loop
      vertex 55.65 -7.8 0
      vertex 65.65 7.8 0
      vertex 65.6226 -12.825 0
    endloop
  endfacet
  facet normal 0 0 -1
    outer loop
      vertex 55.625 7.8 0
      vertex 0 16.175 0
      vertex 55.625 7.825 0
    endloop
  endfacet
  facet normal -0 0 -1
    outer loop
      vertex 55.625 -17.825 0
      vertex 0 -17.825 0
      vertex 0 -16.175 0
    endloop
  endfacet
  facet normal -0 -0 -1
    outer loop
      vertex 0 16.175 0
      vertex 0 -16.175 0
      vertex -3.6 16.175 0
    endloop
  endfacet
  facet normal 0 0 -1
    outer loop
      vertex 0 -16.175 0
      vertex -3.6 -16.175 0
      vertex -3.6 16.175 0
    endloop
  endfacet
  facet normal 0 0 -1
    outer loop
      vertex -3.6 -17.825 0
      vertex -16.55 -13.475 0
      vertex -3.6 -16.175 0
    endloop
  endfacet
  facet normal 0 0 -1
    outer loop
      vertex -45.6407 -13.8646 0
      vertex -43.05 -13.475 0
      vertex -45.3177 -14.8587 0
    endloop
  endfacet
  facet normal 0 0 -1
    outer loop
      vertex -40.75 -17.825 0
      vertex -16.55 -13.475 0
      vertex -3.6 -17.825 0
    endloop
  endfacet
  facet normal 0 0 -1
    outer loop
      vertex -41.2726 -17.7976 0
      vertex -43.05 -13.475 0
      vertex -40.75 -17.7976 0
    endloop
  endfacet
  facet normal 0 0 -1
    outer loop
      vertex -42.2951 -17.5803 0
      vertex -43.05 -13.475 0
      vertex -41.2726 -17.7976 0
    endloop
  endfacet
  facet normal 0 0 -1
    outer loop
      vertex -43.25 -17.1551 0
      vertex -43.05 -13.475 0
      vertex -42.2951 -17.5803 0
    endloop
  endfacet
  facet normal 0 0 -1
    outer loop
      vertex -44.0957 -16.5407 0
      vertex -43.05 -13.475 0
      vertex -43.25 -17.1551 0
    endloop
  endfacet
  facet normal 0 0 -1
    outer loop
      vertex -44.7951 -15.7639 0
      vertex -43.05 -13.475 0
      vertex -44.0957 -16.5407 0
    endloop
  endfacet
  facet normal 0 0 -1
    outer loop
      vertex -45.3177 -14.8587 0
      vertex -43.05 -13.475 0
      vertex -44.7951 -15.7639 0
    endloop
  endfacet
  facet normal 0 -0 -1
    outer loop
      vertex -40.75 17.825 0
      vertex -35.725 17.825 0
      vertex -43.05 13.475 0
    endloop
  endfacet
  facet normal 0 -0 -1
    outer loop
      vertex -45.7226 12.825 0
      vertex -43.05 -13.475 0
      vertex -45.75 -12.825 0
    endloop
  endfacet
  facet normal 0 0 -1
    outer loop
      vertex -45.6407 -13.8646 0
      vertex -45.75 -12.825 0
      vertex -43.05 -13.475 0
    endloop
  endfacet
  facet normal 0 0 -1
    outer loop
      vertex -40.75 -17.7976 0
      vertex -16.55 -13.475 0
      vertex -40.75 -17.825 0
    endloop
  endfacet
  facet normal 0 0 -1
    outer loop
      vertex -40.75 -17.7976 0
      vertex -43.05 -13.475 0
      vertex -16.55 -13.475 0
    endloop
  endfacet
  facet normal 0 0 -1
    outer loop
      vertex -3.6 -16.175 0
      vertex -16.55 -13.475 0
      vertex -3.6 16.175 0
    endloop
  endfacet
  facet normal 0 0 -1
    outer loop
      vertex 55.65 7.825 0
      vertex 65.65 12.825 0
      vertex 65.65 7.8 0
    endloop
  endfacet
  facet normal 0 0 -1
    outer loop
      vertex -16.55 -13.475 0
      vertex -16.55 13.475 0
      vertex -3.6 16.175 0
    endloop
  endfacet
  facet normal 0 0 -1
    outer loop
      vertex -43.05 13.475 0
      vertex -35.725 17.825 0
      vertex -16.55 13.475 0
    endloop
  endfacet
  facet normal 0 0 -1
    outer loop
      vertex 55.65 -7.8 0
      vertex 65.6226 -12.825 0
      vertex 55.65 -7.825 0
    endloop
  endfacet
  facet normal 0 0 -1
    outer loop
      vertex 55.625 -7.8 0
      vertex 55.625 7.8 0
      vertex 55.65 7.8 0
    endloop
  endfacet
  facet normal 0 0 -1
    outer loop
      vertex 55.625 -7.8 0
      vertex 55.65 7.8 0
      vertex 55.65 -7.8 0
    endloop
  endfacet
  facet normal 0 0 -1
    outer loop
      vertex 55.65 7.8 0
      vertex 55.65 7.825 0
      vertex 65.65 7.8 0
    endloop
  endfacet
  facet normal 0 0 -1
    outer loop
      vertex 0 -16.175 0
      vertex 55.625 7.8 0
      vertex 55.625 -7.8 0
    endloop
  endfacet
  facet normal 0 0 -1
    outer loop
      vertex 55.65 -7.825 0
      vertex 65.6226 -12.825 0
      vertex 60.65 -17.825 0
    endloop
  endfacet
  facet normal 0 0 -1
    outer loop
      vertex 55.625 -17.825 0
      vertex 0 -16.175 0
      vertex 55.625 -7.825 0
    endloop
  endfacet
  facet normal 0 0 -1
    outer loop
      vertex 55.625 -17.825 0
      vertex 55.65 -7.825 0
      vertex 60.65 -17.825 0
    endloop
  endfacet
  facet normal 0 0 -1
    outer loop
      vertex 55.625 -7.825 0
      vertex 55.65 -7.825 0
      vertex 55.625 -17.825 0
    endloop
  endfacet
  facet normal 0 0 -1
    outer loop
      vertex 55.65 7.8 0
      vertex 65.65 7.8 0
      vertex 55.65 -7.8 0
    endloop
  endfacet
  facet normal 0 1 0
    outer loop
      vertex 0 17.825 0
      vertex 0 17.825 12.2
      vertex 60.65 17.825 0
    endloop
  endfacet
  facet normal 0 1 -0
    outer loop
      vertex 60.65 17.825 0
      vertex 0 17.825 12.2
      vertex 60.65 17.825 12.2
    endloop
  endfacet
  facet normal 0 0 1
    outer loop
      vertex 55.625 -17.825 12.2
      vertex 2.7 -15.125 12.2
      vertex 0 -17.825 12.2
    endloop
  endfacet
  facet normal 0 -0 1
    outer loop
      vertex 65.6226 -13.3476 12.2
      vertex 65.6226 -12.825 12.2
      vertex 62.95 -15.125 12.2
    endloop
  endfacet
  facet normal 0 -0 1
    outer loop
      vertex 61.6896 -17.7157 12.2
      vertex 62.95 -15.125 12.2
      vertex 60.65 -17.825 12.2
    endloop
  endfacet
  facet normal 0 -0 1
    outer loop
      vertex 62.6837 -17.3927 12.2
      vertex 62.95 -15.125 12.2
      vertex 61.6896 -17.7157 12.2
    endloop
  endfacet
  facet normal 0 0 1
    outer loop
      vertex 63.5889 -16.8701 12.2
      vertex 62.95 -15.125 12.2
      vertex 62.6837 -17.3927 12.2
    endloop
  endfacet
  facet normal 0 0 1
    outer loop
      vertex 64.3657 -16.1707 12.2
      vertex 62.95 -15.125 12.2
      vertex 63.5889 -16.8701 12.2
    endloop
  endfacet
  facet normal 0 0 1
    outer loop
      vertex 64.9801 -15.325 12.2
      vertex 62.95 -15.125 12.2
      vertex 64.3657 -16.1707 12.2
    endloop
  endfacet
  facet normal 0 0 1
    outer loop
      vertex 65.4053 -14.3701 12.2
      vertex 62.95 -15.125 12.2
      vertex 64.9801 -15.325 12.2
    endloop
  endfacet
  facet normal 0 0 1
    outer loop
      vertex 65.6226 -13.3476 12.2
      vertex 62.95 -15.125 12.2
      vertex 65.4053 -14.3701 12.2
    endloop
  endfacet
  facet normal 0 0 1
    outer loop
      vertex 65.65 7.8 12.2
      vertex 62.95 -15.125 12.2
      vertex 65.6226 -12.825 12.2
    endloop
  endfacet
  facet normal 0 0 1
    outer loop
      vertex 65.65 -12.825 12.2
      vertex 65.65 7.8 12.2
      vertex 65.6226 -12.825 12.2
    endloop
  endfacet
  facet normal 0 0 1
    outer loop
      vertex 61.1726 17.7976 12.2
      vertex 60.65 17.7976 12.2
      vertex 62.95 15.125 12.2
    endloop
  endfacet
  facet normal 0 0 1
    outer loop
      vertex 65.5407 13.8646 12.2
      vertex 62.95 15.125 12.2
      vertex 65.65 12.825 12.2
    endloop
  endfacet
  facet normal 0 0 1
    outer loop
      vertex 65.2177 14.8587 12.2
      vertex 62.95 15.125 12.2
      vertex 65.5407 13.8646 12.2
    endloop
  endfacet
  facet normal 0 0 1
    outer loop
      vertex 64.6951 15.7639 12.2
      vertex 62.95 15.125 12.2
      vertex 65.2177 14.8587 12.2
    endloop
  endfacet
  facet normal 0 0 1
    outer loop
      vertex 63.9957 16.5407 12.2
      vertex 62.95 15.125 12.2
      vertex 64.6951 15.7639 12.2
    endloop
  endfacet
  facet normal 0 0 1
    outer loop
      vertex 63.15 17.1551 12.2
      vertex 62.95 15.125 12.2
      vertex 63.9957 16.5407 12.2
    endloop
  endfacet
  facet normal 0 0 1
    outer loop
      vertex 62.1951 17.5803 12.2
      vertex 62.95 15.125 12.2
      vertex 63.15 17.1551 12.2
    endloop
  endfacet
  facet normal 0 0 1
    outer loop
      vertex 61.1726 17.7976 12.2
      vertex 62.95 15.125 12.2
      vertex 62.1951 17.5803 12.2
    endloop
  endfacet
  facet normal 0 0 1
    outer loop
      vertex 0 9.525 12.2
      vertex 2.7 9.525 12.2
      vertex 2.7 15.125 12.2
    endloop
  endfacet
  facet normal 0 0 1
    outer loop
      vertex 0 9.525 12.2
      vertex 2.7 15.125 12.2
      vertex 0 17.825 12.2
    endloop
  endfacet
  facet normal 0 0 1
    outer loop
      vertex 65.65 7.8 12.2
      vertex 62.95 15.125 12.2
      vertex 62.95 -15.125 12.2
    endloop
  endfacet
  facet normal -0 0 1
    outer loop
      vertex 0 17.825 12.2
      vertex 2.7 15.125 12.2
      vertex 60.65 17.825 12.2
    endloop
  endfacet
  facet normal 0 0 1
    outer loop
      vertex 2.7 15.125 12.2
      vertex 60.65 17.7976 12.2
      vertex 60.65 17.825 12.2
    endloop
  endfacet
  facet normal 0 0 1
    outer loop
      vertex 65.65 12.825 12.2
      vertex 62.95 15.125 12.2
      vertex 65.65 7.8 12.2
    endloop
  endfacet
  facet normal 0 -0 1
    outer loop
      vertex 55.625 -17.825 12.2
      vertex 62.95 -15.125 12.2
      vertex 2.7 -15.125 12.2
    endloop
  endfacet
  facet normal 0 -0 1
    outer loop
      vertex 60.65 -17.825 12.2
      vertex 62.95 -15.125 12.2
      vertex 55.625 -17.825 12.2
    endloop
  endfacet
  facet normal 0 0 1
    outer loop
      vertex 2.7 -15.125 12.2
      vertex 0 -9.975 12.2
      vertex 0 -17.825 12.2
    endloop
  endfacet
  facet normal 0 -0 1
    outer loop
      vertex 2.7 -15.125 12.2
      vertex 2.7 -9.975 12.2
      vertex 0 -9.975 12.2
    endloop
  endfacet
  facet normal 0 0 1
    outer loop
      vertex 60.65 17.7976 12.2
      vertex 2.7 15.125 12.2
      vertex 62.95 15.125 12.2
    endloop
  endfacet
  facet normal 1 0 0
    outer loop
      vertex 65.65 7.8 0
      vertex 65.65 -12.825 12.2
      vertex 65.65 -12.825 0
    endloop
  endfacet
  facet normal 1 0 -0
    outer loop
      vertex 65.65 7.8 0
      vertex 65.65 7.8 12.2
      vertex 65.65 -12.825 12.2
    endloop
  endfacet
  facet normal 1 -0 0
    outer loop
      vertex 2.7 -15.125 12.2
      vertex 2.7 -9.975 8.2
      vertex 2.7 -9.975 12.2
    endloop
  endfacet
  facet normal 1 0 0
    outer loop
      vertex 2.7 -15.125 12.2
      vertex 2.7 -15.125 8.2
      vertex 2.7 -9.975 8.2
    endloop
  endfacet
  facet normal 1 -0 0
    outer loop
      vertex 2.7 9.525 12.2
      vertex 2.7 15.125 8.2
      vertex 2.7 15.125 12.2
    endloop
  endfacet
  facet normal 1 0 0
    outer loop
      vertex 2.7 9.525 12.2
      vertex 2.7 9.525 8.2
      vertex 2.7 15.125 8.2
    endloop
  endfacet
  facet normal 0 1 0
    outer loop
      vertex 62.95 -15.125 12.2
      vertex 62.95 -15.125 8.2
      vertex 2.7 -15.125 12.2
    endloop
  endfacet
  facet normal 0 1 0
    outer loop
      vertex 2.7 -15.125 12.2
      vertex 62.95 -15.125 8.2
      vertex 2.7 -15.125 8.2
    endloop
  endfacet
  facet normal 0 0 1
    outer loop
      vertex 55.625 -7.8 8.2
      vertex 2.7 -9.975 8.2
      vertex 55.625 -7.825 8.2
    endloop
  endfacet
  facet normal 0 0 1
    outer loop
      vertex 55.625 7.825 8.2
      vertex 2.7 9.525 8.2
      vertex 55.625 7.8 8.2
    endloop
  endfacet
  facet normal 0 0 1
    outer loop
      vertex 62.95 15.125 8.2
      vertex 2.7 15.125 8.2
      vertex 55.625 7.825 8.2
    endloop
  endfacet
  facet normal 0 0 1
    outer loop
      vertex 2.7 15.125 8.2
      vertex 2.7 9.525 8.2
      vertex 55.625 7.825 8.2
    endloop
  endfacet
  facet normal -0 0 1
    outer loop
      vertex 0 9.525 8.2
      vertex 2.7 -9.975 8.2
      vertex 2.7 9.525 8.2
    endloop
  endfacet
  facet normal 0 0 1
    outer loop
      vertex 0 -9.975 8.2
      vertex 2.7 -9.975 8.2
      vertex 0 9.525 8.2
    endloop
  endfacet
  facet normal 0 0 1
    outer loop
      vertex 62.95 15.125 8.2
      vertex 55.625 7.825 8.2
      vertex 55.65 7.825 8.2
    endloop
  endfacet
  facet normal 0 0 1
    outer loop
      vertex 2.7 9.525 8.2
      vertex 55.625 -7.8 8.2
      vertex 55.625 7.8 8.2
    endloop
  endfacet
  facet normal 0 0 1
    outer loop
      vertex 62.95 15.125 8.2
      vertex 55.65 -7.8 8.2
      vertex 62.95 -15.125 8.2
    endloop
  endfacet
  facet normal -0 0 1
    outer loop
      vertex 55.65 7.825 8.2
      vertex 55.65 7.8 8.2
      vertex 62.95 15.125 8.2
    endloop
  endfacet
  facet normal 0 0 1
    outer loop
      vertex 55.65 7.8 8.2
      vertex 55.625 -7.8 8.2
      vertex 55.65 -7.8 8.2
    endloop
  endfacet
  facet normal 0 0 1
    outer loop
      vertex 2.7 9.525 8.2
      vertex 2.7 -9.975 8.2
      vertex 55.625 -7.8 8.2
    endloop
  endfacet
  facet normal -0 0 1
    outer loop
      vertex 55.625 7.8 8.2
      vertex 55.625 -7.8 8.2
      vertex 55.65 7.8 8.2
    endloop
  endfacet
  facet normal -0 0 1
    outer loop
      vertex 2.7 -9.975 8.2
      vertex 2.7 -15.125 8.2
      vertex 55.625 -7.825 8.2
    endloop
  endfacet
  facet normal -0 0 1
    outer loop
      vertex 55.65 7.8 8.2
      vertex 55.65 -7.8 8.2
      vertex 62.95 15.125 8.2
    endloop
  endfacet
  facet normal 0 0 1
    outer loop
      vertex 55.65 -7.8 8.2
      vertex 55.65 -7.825 8.2
      vertex 62.95 -15.125 8.2
    endloop
  endfacet
  facet normal 0 0 1
    outer loop
      vertex 55.625 -7.825 8.2
      vertex 2.7 -15.125 8.2
      vertex 62.95 -15.125 8.2
    endloop
  endfacet
  facet normal -0 0 1
    outer loop
      vertex 55.625 -7.825 8.2
      vertex 62.95 -15.125 8.2
      vertex 55.65 -7.825 8.2
    endloop
  endfacet
  facet normal 0 -1 0
    outer loop
      vertex 2.7 15.125 12.2
      vertex 62.95 15.125 8.2
      vertex 62.95 15.125 12.2
    endloop
  endfacet
  facet normal 0 -1 0
    outer loop
      vertex 2.7 15.125 12.2
      vertex 2.7 15.125 8.2
      vertex 62.95 15.125 8.2
    endloop
  endfacet
  facet normal -1 -0 -0
    outer loop
      vertex 62.95 15.125 12.2
      vertex 62.95 15.125 8.2
      vertex 62.95 -15.125 12.2
    endloop
  endfacet
  facet normal -1 0 0
    outer loop
      vertex 62.95 -15.125 12.2
      vertex 62.95 15.125 8.2
      vertex 62.95 -15.125 8.2
    endloop
  endfacet
  facet normal 0 1 0
    outer loop
      vertex 2.7 -9.975 12.2
      vertex 2.7 -9.975 8.2
      vertex 0 -9.975 12.2
    endloop
  endfacet
  facet normal 0 1 0
    outer loop
      vertex 0 -9.975 12.2
      vertex 2.7 -9.975 8.2
      vertex 0 -9.975 8.2
    endloop
  endfacet
  facet normal 0 -1 0
    outer loop
      vertex 0 9.525 12.2
      vertex 2.7 9.525 8.2
      vertex 2.7 9.525 12.2
    endloop
  endfacet
  facet normal 0 -1 0
    outer loop
      vertex 0 9.525 12.2
      vertex 0 9.525 8.2
      vertex 2.7 9.525 8.2
    endloop
  endfacet
  facet normal -0.994522 -0.104528 0
    outer loop
      vertex -45.75 -12.825 0
      vertex -45.6407 -13.8646 11.2
      vertex -45.75 -12.825 11.2
    endloop
  endfacet
  facet normal -0.994522 -0.104528 0
    outer loop
      vertex -45.75 -12.825 0
      vertex -45.6407 -13.8646 0
      vertex -45.6407 -13.8646 11.2
    endloop
  endfacet
  facet normal 0 -1 0
    outer loop
      vertex -40.75 -17.7976 0
      vertex -41.2726 -17.7976 11.2
      vertex -41.2726 -17.7976 0
    endloop
  endfacet
  facet normal 0 -1 0
    outer loop
      vertex -40.75 -17.7976 0
      vertex -40.75 -17.7976 11.2
      vertex -41.2726 -17.7976 11.2
    endloop
  endfacet
  facet normal -0.951057 -0.309017 0
    outer loop
      vertex -45.6407 -13.8646 0
      vertex -45.3177 -14.8587 11.2
      vertex -45.6407 -13.8646 11.2
    endloop
  endfacet
  facet normal -0.951057 -0.309017 0
    outer loop
      vertex -45.6407 -13.8646 0
      vertex -45.3177 -14.8587 0
      vertex -45.3177 -14.8587 11.2
    endloop
  endfacet
  facet normal -0.743145 -0.669131 0
    outer loop
      vertex -44.7951 -15.7639 0
      vertex -44.0957 -16.5407 11.2
      vertex -44.7951 -15.7639 11.2
    endloop
  endfacet
  facet normal -0.743145 -0.669131 0
    outer loop
      vertex -44.7951 -15.7639 0
      vertex -44.0957 -16.5407 0
      vertex -44.0957 -16.5407 11.2
    endloop
  endfacet
  facet normal -0.866025 -0.5 0
    outer loop
      vertex -45.3177 -14.8587 0
      vertex -44.7951 -15.7639 11.2
      vertex -45.3177 -14.8587 11.2
    endloop
  endfacet
  facet normal -0.866025 -0.5 0
    outer loop
      vertex -45.3177 -14.8587 0
      vertex -44.7951 -15.7639 0
      vertex -44.7951 -15.7639 11.2
    endloop
  endfacet
  facet normal -0.207912 -0.978148 0
    outer loop
      vertex -41.2726 -17.7976 0
      vertex -42.2951 -17.5803 11.2
      vertex -42.2951 -17.5803 0
    endloop
  endfacet
  facet normal -0.207912 -0.978148 0
    outer loop
      vertex -41.2726 -17.7976 0
      vertex -41.2726 -17.7976 11.2
      vertex -42.2951 -17.5803 11.2
    endloop
  endfacet
  facet normal -0.587785 -0.809017 0
    outer loop
      vertex -43.25 -17.1551 0
      vertex -44.0957 -16.5407 11.2
      vertex -44.0957 -16.5407 0
    endloop
  endfacet
  facet normal -0.587785 -0.809017 0
    outer loop
      vertex -43.25 -17.1551 0
      vertex -43.25 -17.1551 11.2
      vertex -44.0957 -16.5407 11.2
    endloop
  endfacet
  facet normal -0.406737 -0.913545 0
    outer loop
      vertex -42.2951 -17.5803 0
      vertex -43.25 -17.1551 11.2
      vertex -43.25 -17.1551 0
    endloop
  endfacet
  facet normal -0.406737 -0.913545 0
    outer loop
      vertex -42.2951 -17.5803 0
      vertex -42.2951 -17.5803 11.2
      vertex -43.25 -17.1551 11.2
    endloop
  endfacet
  facet normal -1 0 0
    outer loop
      vertex -45.75 -12.825 0
      vertex -45.75 -12.825 11.2
      vertex -45.75 12.825 0
    endloop
  endfacet
  facet normal -1 0 0
    outer loop
      vertex -45.75 12.825 0
      vertex -45.75 -12.825 11.2
      vertex -45.75 12.825 11.2
    endloop
  endfacet
  facet normal -1 0 0
    outer loop
      vertex -40.75 -17.825 0
      vertex -40.75 -17.825 11.2
      vertex -40.75 -17.7976 0
    endloop
  endfacet
  facet normal -1 0 0
    outer loop
      vertex -40.75 -17.7976 0
      vertex -40.75 -17.825 11.2
      vertex -40.75 -17.7976 11.2
    endloop
  endfacet
  facet normal 0 -1 0
    outer loop
      vertex -3.6 -17.825 0
      vertex -40.75 -17.825 11.2
      vertex -40.75 -17.825 0
    endloop
  endfacet
  facet normal 0 -1 0
    outer loop
      vertex -3.6 -17.825 0
      vertex -3.6 -17.825 11.2
      vertex -40.75 -17.825 11.2
    endloop
  endfacet
  facet normal -0.104528 0.994522 0
    outer loop
      vertex -41.7896 17.7157 0
      vertex -41.7896 17.7157 11.2
      vertex -40.75 17.825 0
    endloop
  endfacet
  facet normal -0.104528 0.994522 0
    outer loop
      vertex -40.75 17.825 0
      vertex -41.7896 17.7157 11.2
      vertex -40.75 17.825 11.2
    endloop
  endfacet
  facet normal -1 0 0
    outer loop
      vertex -45.7226 12.825 0
      vertex -45.7226 12.825 11.2
      vertex -45.7226 13.3476 0
    endloop
  endfacet
  facet normal -1 0 0
    outer loop
      vertex -45.7226 13.3476 0
      vertex -45.7226 12.825 11.2
      vertex -45.7226 13.3476 11.2
    endloop
  endfacet
  facet normal -0.309017 0.951057 0
    outer loop
      vertex -42.7837 17.3927 0
      vertex -42.7837 17.3927 11.2
      vertex -41.7896 17.7157 0
    endloop
  endfacet
  facet normal -0.309017 0.951057 0
    outer loop
      vertex -41.7896 17.7157 0
      vertex -42.7837 17.3927 11.2
      vertex -41.7896 17.7157 11.2
    endloop
  endfacet
  facet normal -0.669131 0.743145 0
    outer loop
      vertex -44.4657 16.1707 0
      vertex -44.4657 16.1707 11.2
      vertex -43.6889 16.8701 0
    endloop
  endfacet
  facet normal -0.669131 0.743145 0
    outer loop
      vertex -43.6889 16.8701 0
      vertex -44.4657 16.1707 11.2
      vertex -43.6889 16.8701 11.2
    endloop
  endfacet
  facet normal -0.5 0.866025 0
    outer loop
      vertex -43.6889 16.8701 0
      vertex -43.6889 16.8701 11.2
      vertex -42.7837 17.3927 0
    endloop
  endfacet
  facet normal -0.5 0.866025 0
    outer loop
      vertex -42.7837 17.3927 0
      vertex -43.6889 16.8701 11.2
      vertex -42.7837 17.3927 11.2
    endloop
  endfacet
  facet normal -0.978148 0.207912 0
    outer loop
      vertex -45.7226 13.3476 0
      vertex -45.7226 13.3476 11.2
      vertex -45.5053 14.3701 0
    endloop
  endfacet
  facet normal -0.978148 0.207912 0
    outer loop
      vertex -45.5053 14.3701 0
      vertex -45.7226 13.3476 11.2
      vertex -45.5053 14.3701 11.2
    endloop
  endfacet
  facet normal -0.809017 0.587785 0
    outer loop
      vertex -45.0801 15.325 0
      vertex -45.0801 15.325 11.2
      vertex -44.4657 16.1707 0
    endloop
  endfacet
  facet normal -0.809017 0.587785 0
    outer loop
      vertex -44.4657 16.1707 0
      vertex -45.0801 15.325 11.2
      vertex -44.4657 16.1707 11.2
    endloop
  endfacet
  facet normal -0.913545 0.406737 0
    outer loop
      vertex -45.5053 14.3701 0
      vertex -45.5053 14.3701 11.2
      vertex -45.0801 15.325 0
    endloop
  endfacet
  facet normal -0.913545 0.406737 0
    outer loop
      vertex -45.0801 15.325 0
      vertex -45.5053 14.3701 11.2
      vertex -45.0801 15.325 11.2
    endloop
  endfacet
  facet normal 7.07008e-16 1 -0
    outer loop
      vertex -40.75 17.825 0
      vertex -40.75 17.825 11.2
      vertex -35.725 17.825 0
    endloop
  endfacet
  facet normal 7.07008e-16 1 -0
    outer loop
      vertex -35.725 17.825 0
      vertex -40.75 17.825 11.2
      vertex -35.725 17.825 11.2
    endloop
  endfacet
  facet normal 0 1 0
    outer loop
      vertex -45.75 12.825 0
      vertex -45.75 12.825 11.2
      vertex -45.7226 12.825 0
    endloop
  endfacet
  facet normal 0 1 -0
    outer loop
      vertex -45.7226 12.825 0
      vertex -45.75 12.825 11.2
      vertex -45.7226 12.825 11.2
    endloop
  endfacet
  facet normal 0 1 0
    outer loop
      vertex -35.725 17.825 0
      vertex -35.725 17.825 11.2
      vertex -3.6 17.825 0
    endloop
  endfacet
  facet normal 0 1 -0
    outer loop
      vertex -3.6 17.825 0
      vertex -35.725 17.825 11.2
      vertex -3.6 17.825 11.2
    endloop
  endfacet
  facet normal 0 -0 1
    outer loop
      vertex -41.2726 -17.7976 11.2
      vertex -40.75 -17.7976 11.2
      vertex -43.05 -13.475 11.2
    endloop
  endfacet
  facet normal 0 -0 1
    outer loop
      vertex -45.6407 -13.8646 11.2
      vertex -43.05 -13.475 11.2
      vertex -45.75 -12.825 11.2
    endloop
  endfacet
  facet normal 0 -0 1
    outer loop
      vertex -45.3177 -14.8587 11.2
      vertex -43.05 -13.475 11.2
      vertex -45.6407 -13.8646 11.2
    endloop
  endfacet
  facet normal 0 -0 1
    outer loop
      vertex -44.7951 -15.7639 11.2
      vertex -43.05 -13.475 11.2
      vertex -45.3177 -14.8587 11.2
    endloop
  endfacet
  facet normal 0 -0 1
    outer loop
      vertex -44.0957 -16.5407 11.2
      vertex -43.05 -13.475 11.2
      vertex -44.7951 -15.7639 11.2
    endloop
  endfacet
  facet normal 0 -0 1
    outer loop
      vertex -43.25 -17.1551 11.2
      vertex -43.05 -13.475 11.2
      vertex -44.0957 -16.5407 11.2
    endloop
  endfacet
  facet normal 0 0 1
    outer loop
      vertex -42.2951 -17.5803 11.2
      vertex -43.05 -13.475 11.2
      vertex -43.25 -17.1551 11.2
    endloop
  endfacet
  facet normal 0 0 1
    outer loop
      vertex -41.2726 -17.7976 11.2
      vertex -43.05 -13.475 11.2
      vertex -42.2951 -17.5803 11.2
    endloop
  endfacet
  facet normal 0 0 1
    outer loop
      vertex -43.05 13.475 11.2
      vertex -35.725 17.825 11.2
      vertex -40.75 17.825 11.2
    endloop
  endfacet
  facet normal 0 0 1
    outer loop
      vertex -3.6 -10.325 11.2
      vertex -6.3 -10.325 11.2
      vertex -6.3 -13.475 11.2
    endloop
  endfacet
  facet normal 0 0 1
    outer loop
      vertex -3.6 -10.325 11.2
      vertex -6.3 -13.475 11.2
      vertex -3.6 -17.825 11.2
    endloop
  endfacet
  facet normal 0 0 1
    outer loop
      vertex -3.6 -17.825 11.2
      vertex -6.3 -13.475 11.2
      vertex -40.75 -17.825 11.2
    endloop
  endfacet
  facet normal 0 0 1
    outer loop
      vertex -6.3 -13.475 11.2
      vertex -40.75 -17.7976 11.2
      vertex -40.75 -17.825 11.2
    endloop
  endfacet
  facet normal 0 -0 1
    outer loop
      vertex -45.75 -12.825 11.2
      vertex -45.7226 12.825 11.2
      vertex -45.75 12.825 11.2
    endloop
  endfacet
  facet normal 0 -0 1
    outer loop
      vertex -43.05 -13.475 11.2
      vertex -43.05 13.475 11.2
      vertex -45.7226 12.825 11.2
    endloop
  endfacet
  facet normal 0 0 1
    outer loop
      vertex -3.6 9.675 11.2
      vertex -6.3 13.475 11.2
      vertex -6.3 9.675 11.2
    endloop
  endfacet
  facet normal 0 -0 1
    outer loop
      vertex -3.6 9.675 11.2
      vertex -3.6 17.825 11.2
      vertex -6.3 13.475 11.2
    endloop
  endfacet
  facet normal 0 0 1
    outer loop
      vertex -3.6 17.825 11.2
      vertex -35.725 17.825 11.2
      vertex -6.3 13.475 11.2
    endloop
  endfacet
  facet normal -0 0 1
    outer loop
      vertex -41.7896 17.7157 11.2
      vertex -43.05 13.475 11.2
      vertex -40.75 17.825 11.2
    endloop
  endfacet
  facet normal 0 0 1
    outer loop
      vertex -43.05 13.475 11.2
      vertex -45.7226 13.3476 11.2
      vertex -45.7226 12.825 11.2
    endloop
  endfacet
  facet normal 0 0 1
    outer loop
      vertex -41.7896 17.7157 11.2
      vertex -42.7837 17.3927 11.2
      vertex -43.05 13.475 11.2
    endloop
  endfacet
  facet normal 0 0 1
    outer loop
      vertex -42.7837 17.3927 11.2
      vertex -43.6889 16.8701 11.2
      vertex -43.05 13.475 11.2
    endloop
  endfacet
  facet normal 0 0 1
    outer loop
      vertex -43.6889 16.8701 11.2
      vertex -44.4657 16.1707 11.2
      vertex -43.05 13.475 11.2
    endloop
  endfacet
  facet normal 0 0 1
    outer loop
      vertex -44.4657 16.1707 11.2
      vertex -45.0801 15.325 11.2
      vertex -43.05 13.475 11.2
    endloop
  endfacet
  facet normal 0 0 1
    outer loop
      vertex -45.0801 15.325 11.2
      vertex -45.5053 14.3701 11.2
      vertex -43.05 13.475 11.2
    endloop
  endfacet
  facet normal 0 0 1
    outer loop
      vertex -45.5053 14.3701 11.2
      vertex -45.7226 13.3476 11.2
      vertex -43.05 13.475 11.2
    endloop
  endfacet
  facet normal 0 0 1
    outer loop
      vertex -43.05 -13.475 11.2
      vertex -45.7226 12.825 11.2
      vertex -45.75 -12.825 11.2
    endloop
  endfacet
  facet normal 0 -0 1
    outer loop
      vertex -40.75 -17.7976 11.2
      vertex -6.3 -13.475 11.2
      vertex -43.05 -13.475 11.2
    endloop
  endfacet
  facet normal 0 0 1
    outer loop
      vertex -35.725 17.825 11.2
      vertex -43.05 13.475 11.2
      vertex -6.3 13.475 11.2
    endloop
  endfacet
  facet normal 1 0 0
    outer loop
      vertex -3.6 -16.175 7.5
      vertex -3.6 -17.825 11.2
      vertex -3.6 -17.825 0
    endloop
  endfacet
  facet normal 1 0 -0
    outer loop
      vertex -3.6 -16.175 0
      vertex -3.6 -16.175 7.5
      vertex -3.6 -17.825 0
    endloop
  endfacet
  facet normal 1 0 0
    outer loop
      vertex -3.6 16.175 7.5
      vertex -3.6 9.675 11.2
      vertex -3.6 9.675 7.7
    endloop
  endfacet
  facet normal 1 0 0
    outer loop
      vertex -3.6 16.175 0
      vertex -3.6 17.825 0
      vertex -3.6 16.175 7.5
    endloop
  endfacet
  facet normal 1 0 -0
    outer loop
      vertex -3.6 17.825 0
      vertex -3.6 17.825 11.2
      vertex -3.6 16.175 7.5
    endloop
  endfacet
  facet normal 1 0 0
    outer loop
      vertex -3.6 17.825 11.2
      vertex -3.6 9.675 11.2
      vertex -3.6 16.175 7.5
    endloop
  endfacet
  facet normal 1 0 0
    outer loop
      vertex -3.6 -10.325 11.2
      vertex -3.6 -17.825 11.2
      vertex -3.6 -16.175 7.5
    endloop
  endfacet
  facet normal 1 0 0
    outer loop
      vertex -3.6 -10.325 11.2
      vertex -3.6 -16.175 7.5
      vertex -3.6 -10.325 7.7
    endloop
  endfacet
  facet normal 1 0 0
    outer loop
      vertex -3.6 9.675 7.7
      vertex -3.6 -16.175 7.5
      vertex -3.6 16.175 7.5
    endloop
  endfacet
  facet normal 1 -0 0
    outer loop
      vertex -3.6 -10.325 7.7
      vertex -3.6 -16.175 7.5
      vertex -3.6 9.675 7.7
    endloop
  endfacet
  facet normal 1 -0 0
    outer loop
      vertex -43.05 -13.475 11.2
      vertex -43.05 13.475 0
      vertex -43.05 13.475 11.2
    endloop
  endfacet
  facet normal 1 0 0
    outer loop
      vertex -43.05 -13.475 11.2
      vertex -43.05 -13.475 0
      vertex -43.05 13.475 0
    endloop
  endfacet
  facet normal 0 1 0
    outer loop
      vertex -6.3 -13.475 11.2
      vertex -16.55 -13.475 7.7
      vertex -43.05 -13.475 11.2
    endloop
  endfacet
  facet normal 0 1 0
    outer loop
      vertex -6.3 -13.475 11.2
      vertex -6.3 -13.475 7.7
      vertex -16.55 -13.475 7.7
    endloop
  endfacet
  facet normal 0 1 0
    outer loop
      vertex -16.55 -13.475 7.7
      vertex -43.05 -13.475 0
      vertex -43.05 -13.475 11.2
    endloop
  endfacet
  facet normal 0 1 0
    outer loop
      vertex -16.55 -13.475 7.7
      vertex -16.55 -13.475 0
      vertex -43.05 -13.475 0
    endloop
  endfacet
  facet normal 0 0 1
    outer loop
      vertex -3.6 -10.325 7.7
      vertex -6.3 9.675 7.7
      vertex -6.3 -10.325 7.7
    endloop
  endfacet
  facet normal 0 0 1
    outer loop
      vertex -3.6 9.675 7.7
      vertex -6.3 9.675 7.7
      vertex -3.6 -10.325 7.7
    endloop
  endfacet
  facet normal 0 0 1
    outer loop
      vertex -16.55 -13.475 7.7
      vertex -6.3 -13.475 7.7
      vertex -6.3 -10.325 7.7
    endloop
  endfacet
  facet normal 0 0 1
    outer loop
      vertex -6.3 13.475 7.7
      vertex -16.55 13.475 7.7
      vertex -6.3 9.675 7.7
    endloop
  endfacet
  facet normal 0 0 1
    outer loop
      vertex -16.55 -13.475 7.7
      vertex -6.3 -10.325 7.7
      vertex -6.3 9.675 7.7
    endloop
  endfacet
  facet normal 0 0 1
    outer loop
      vertex -16.55 -13.475 7.7
      vertex -6.3 9.675 7.7
      vertex -16.55 13.475 7.7
    endloop
  endfacet
  facet normal 0 -1 0
    outer loop
      vertex -6.3 13.475 7.7
      vertex -6.3 13.475 11.2
      vertex -16.55 13.475 7.7
    endloop
  endfacet
  facet normal -0 -1 0
    outer loop
      vertex -6.3 13.475 11.2
      vertex -43.05 13.475 11.2
      vertex -16.55 13.475 7.7
    endloop
  endfacet
  facet normal 0 -1 0
    outer loop
      vertex -43.05 13.475 0
      vertex -16.55 13.475 0
      vertex -16.55 13.475 7.7
    endloop
  endfacet
  facet normal 0 -1 0
    outer loop
      vertex -43.05 13.475 0
      vertex -16.55 13.475 7.7
      vertex -43.05 13.475 11.2
    endloop
  endfacet
  facet normal -1 -0 -0
    outer loop
      vertex -6.3 -10.325 11.2
      vertex -6.3 -10.325 7.7
      vertex -6.3 -13.475 11.2
    endloop
  endfacet
  facet normal -1 0 0
    outer loop
      vertex -6.3 -13.475 11.2
      vertex -6.3 -10.325 7.7
      vertex -6.3 -13.475 7.7
    endloop
  endfacet
  facet normal -1 -0 -0
    outer loop
      vertex -6.3 13.475 11.2
      vertex -6.3 13.475 7.7
      vertex -6.3 9.675 11.2
    endloop
  endfacet
  facet normal -1 0 0
    outer loop
      vertex -6.3 9.675 11.2
      vertex -6.3 13.475 7.7
      vertex -6.3 9.675 7.7
    endloop
  endfacet
  facet normal -1 -0 -0
    outer loop
      vertex -16.55 13.475 7.7
      vertex -16.55 13.475 0
      vertex -16.55 -13.475 7.7
    endloop
  endfacet
  facet normal -1 0 0
    outer loop
      vertex -16.55 -13.475 7.7
      vertex -16.55 13.475 0
      vertex -16.55 -13.475 0
    endloop
  endfacet
  facet normal 0 1 0
    outer loop
      vertex -3.6 -10.325 11.2
      vertex -3.6 -10.325 7.7
      vertex -6.3 -10.325 11.2
    endloop
  endfacet
  facet normal 0 1 0
    outer loop
      vertex -6.3 -10.325 11.2
      vertex -3.6 -10.325 7.7
      vertex -6.3 -10.325 7.7
    endloop
  endfacet
  facet normal 0 -1 0
    outer loop
      vertex -6.3 9.675 11.2
      vertex -3.6 9.675 7.7
      vertex -3.6 9.675 11.2
    endloop
  endfacet
  facet normal 0 -1 0
    outer loop
      vertex -6.3 9.675 11.2
      vertex -6.3 9.675 7.7
      vertex -3.6 9.675 7.7
    endloop
  endfacet
  facet normal 0 -1 0
    outer loop
      vertex 0 -16.175 0
      vertex -3.6 -16.175 7.5
      vertex -3.6 -16.175 0
    endloop
  endfacet
  facet normal 0 -1 0
    outer loop
      vertex 0 -16.175 0
      vertex 0 -16.175 7.5
      vertex -3.6 -16.175 7.5
    endloop
  endfacet
  facet normal 0 1 0
    outer loop
      vertex -3.6 16.175 0
      vertex -3.6 16.175 7.5
      vertex 0 16.175 0
    endloop
  endfacet
  facet normal 0 1 -0
    outer loop
      vertex 0 16.175 0
      vertex -3.6 16.175 7.5
      vertex 0 16.175 7.5
    endloop
  endfacet
  facet normal 0 0 1
    outer loop
      vertex 0 -16.175 7.5
      vertex -3.6 16.175 7.5
      vertex -3.6 -16.175 7.5
    endloop
  endfacet
  facet normal 0 -0 1
    outer loop
      vertex 0 -16.175 7.5
      vertex 0 16.175 7.5
      vertex -3.6 16.175 7.5
    endloop
  endfacet
endsolid OpenSCAD_Model
