solid OpenSCAD_Model
  facet normal 1 -0 0
    outer loop
      vertex 3.7 3.7 13.2
      vertex 3.7 15.375 6.7
      vertex 3.7 15.375 13.2
    endloop
  endfacet
  facet normal 1 0 0
    outer loop
      vertex 3.7 3.7 13.2
      vertex 3.7 3.7 6.7
      vertex 3.7 15.375 6.7
    endloop
  endfacet
  facet normal 1 -0 0
    outer loop
      vertex 3.7 46.375 13.2
      vertex 3.7 61.45 6.7
      vertex 3.7 61.45 13.2
    endloop
  endfacet
  facet normal 1 0 0
    outer loop
      vertex 3.7 46.375 13.2
      vertex 3.7 46.375 6.7
      vertex 3.7 61.45 6.7
    endloop
  endfacet
  facet normal 0 1 0
    outer loop
      vertex 114.45 3.7 13.2
      vertex 10.7 3.7 6.7
      vertex 3.7 3.7 13.2
    endloop
  endfacet
  facet normal 0 1 0
    outer loop
      vertex 114.45 3.7 13.2
      vertex 114.45 3.7 6.7
      vertex 107.7 3.7 6.7
    endloop
  endfacet
  facet normal 0 1 0
    outer loop
      vertex 10.7 3.7 6.7
      vertex 3.7 3.7 6.7
      vertex 3.7 3.7 13.2
    endloop
  endfacet
  facet normal 0 1 0
    outer loop
      vertex 107.7 3.7 6.7
      vertex 107.7 3.7 3
      vertex 10.7 3.7 6.7
    endloop
  endfacet
  facet normal 0 1 0
    outer loop
      vertex 107.7 3.7 3
      vertex 10.7 3.7 3
      vertex 10.7 3.7 6.7
    endloop
  endfacet
  facet normal 0 1 -0
    outer loop
      vertex 107.7 3.7 6.7
      vertex 10.7 3.7 6.7
      vertex 114.45 3.7 13.2
    endloop
  endfacet
  facet normal -0 0 1
    outer loop
      vertex 9.075 8.7 6.7
      vertex 10.7 3.7 6.7
      vertex 10.7 8.7 6.7
    endloop
  endfacet
  facet normal 0 -0 1
    outer loop
      vertex 9.075 8.7 6.7
      vertex 9.075 15.375 6.7
      vertex 3.7 15.375 6.7
    endloop
  endfacet
  facet normal 0 0 1
    outer loop
      vertex 9.075 8.7 6.7
      vertex 3.7 3.7 6.7
      vertex 10.7 3.7 6.7
    endloop
  endfacet
  facet normal 0 0 1
    outer loop
      vertex 3.7 15.375 6.7
      vertex 3.7 3.7 6.7
      vertex 9.075 8.7 6.7
    endloop
  endfacet
  facet normal 0 -0 1
    outer loop
      vertex 10.7 56.45 6.7
      vertex 10.7 61.45 6.7
      vertex 9.075 56.45 6.7
    endloop
  endfacet
  facet normal 0 0 1
    outer loop
      vertex 10.7 61.45 6.7
      vertex 3.7 61.45 6.7
      vertex 9.075 56.45 6.7
    endloop
  endfacet
  facet normal 0 0 1
    outer loop
      vertex 3.7 46.375 6.7
      vertex 9.075 46.375 6.7
      vertex 9.075 56.45 6.7
    endloop
  endfacet
  facet normal 0 0 1
    outer loop
      vertex 3.7 46.375 6.7
      vertex 9.075 56.45 6.7
      vertex 3.7 61.45 6.7
    endloop
  endfacet
  facet normal -0 0 1
    outer loop
      vertex 107.7 5.7 6.7
      vertex 114.45 3.7 6.7
      vertex 114.45 5.7 6.7
    endloop
  endfacet
  facet normal 0 0 1
    outer loop
      vertex 107.7 5.7 6.7
      vertex 107.7 3.7 6.7
      vertex 114.45 3.7 6.7
    endloop
  endfacet
  facet normal 0 0 1
    outer loop
      vertex 114.45 53.7 6.7
      vertex 109.075 56.45 6.7
      vertex 109.075 53.7 6.7
    endloop
  endfacet
  facet normal 0 -0 1
    outer loop
      vertex 114.45 53.7 6.7
      vertex 114.45 61.45 6.7
      vertex 109.075 56.45 6.7
    endloop
  endfacet
  facet normal 0 0 1
    outer loop
      vertex 114.45 61.45 6.7
      vertex 107.7 61.45 6.7
      vertex 109.075 56.45 6.7
    endloop
  endfacet
  facet normal 0 0 1
    outer loop
      vertex 107.7 56.45 6.7
      vertex 109.075 56.45 6.7
      vertex 107.7 61.45 6.7
    endloop
  endfacet
  facet normal -0 0 1
    outer loop
      vertex 109.075 30.7 6.7
      vertex 114.45 17.7 6.7
      vertex 114.45 30.7 6.7
    endloop
  endfacet
  facet normal 0 0 1
    outer loop
      vertex 109.075 30.7 6.7
      vertex 109.075 17.7 6.7
      vertex 114.45 17.7 6.7
    endloop
  endfacet
  facet normal 0 -1 0
    outer loop
      vertex 107.7 61.45 3
      vertex 10.7 61.45 6.7
      vertex 10.7 61.45 3
    endloop
  endfacet
  facet normal 0 -1 0
    outer loop
      vertex 107.7 61.45 3
      vertex 107.7 61.45 6.7
      vertex 10.7 61.45 6.7
    endloop
  endfacet
  facet normal 0 -1 0
    outer loop
      vertex 114.45 61.45 6.7
      vertex 114.45 61.45 13.2
      vertex 107.7 61.45 6.7
    endloop
  endfacet
  facet normal 0 -1 0
    outer loop
      vertex 114.45 61.45 13.2
      vertex 10.7 61.45 6.7
      vertex 107.7 61.45 6.7
    endloop
  endfacet
  facet normal -0 -1 0
    outer loop
      vertex 114.45 61.45 13.2
      vertex 3.7 61.45 13.2
      vertex 10.7 61.45 6.7
    endloop
  endfacet
  facet normal 0 -1 0
    outer loop
      vertex 3.7 61.45 6.7
      vertex 10.7 61.45 6.7
      vertex 3.7 61.45 13.2
    endloop
  endfacet
  facet normal -1 -0 -0
    outer loop
      vertex 114.45 5.7 13.2
      vertex 114.45 5.7 6.7
      vertex 114.45 3.7 13.2
    endloop
  endfacet
  facet normal -1 0 0
    outer loop
      vertex 114.45 3.7 13.2
      vertex 114.45 5.7 6.7
      vertex 114.45 3.7 6.7
    endloop
  endfacet
  facet normal -1 -0 -0
    outer loop
      vertex 114.45 61.45 13.2
      vertex 114.45 61.45 6.7
      vertex 114.45 53.7 13.2
    endloop
  endfacet
  facet normal -1 0 0
    outer loop
      vertex 114.45 53.7 13.2
      vertex 114.45 61.45 6.7
      vertex 114.45 53.7 6.7
    endloop
  endfacet
  facet normal -1 -0 -0
    outer loop
      vertex 114.45 30.7 13.2
      vertex 114.45 30.7 6.7
      vertex 114.45 17.7 13.2
    endloop
  endfacet
  facet normal -1 0 0
    outer loop
      vertex 114.45 17.7 13.2
      vertex 114.45 30.7 6.7
      vertex 114.45 17.7 6.7
    endloop
  endfacet
  facet normal 1 -0 0
    outer loop
      vertex 9.075 46.375 2
      vertex 9.075 56.45 0
      vertex 9.075 56.45 6.7
    endloop
  endfacet
  facet normal 1 -0 0
    outer loop
      vertex 9.075 46.375 6.7
      vertex 9.075 46.375 2
      vertex 9.075 56.45 6.7
    endloop
  endfacet
  facet normal 1 0 0
    outer loop
      vertex 9.075 8.7 0
      vertex 9.075 56.45 0
      vertex 9.075 46.375 2
    endloop
  endfacet
  facet normal 1 0 0
    outer loop
      vertex 9.075 15.375 6.7
      vertex 9.075 8.7 6.7
      vertex 9.075 15.375 2
    endloop
  endfacet
  facet normal 1 0 0
    outer loop
      vertex 9.075 8.7 6.7
      vertex 9.075 8.7 0
      vertex 9.075 15.375 2
    endloop
  endfacet
  facet normal 1 0 0
    outer loop
      vertex 9.075 8.7 0
      vertex 9.075 46.375 2
      vertex 9.075 15.375 2
    endloop
  endfacet
  facet normal 0 1 0
    outer loop
      vertex 10.7 8.7 6.7
      vertex 10.7 8.7 3
      vertex 9.075 8.7 6.7
    endloop
  endfacet
  facet normal 0 1 -0
    outer loop
      vertex 107.05 8.7 2
      vertex 10.7 8.7 3
      vertex 107.05 8.7 3
    endloop
  endfacet
  facet normal 0 1 0
    outer loop
      vertex 9.075 8.7 0
      vertex 107.05 8.7 2
      vertex 109.075 8.7 0
    endloop
  endfacet
  facet normal 0 1 -0
    outer loop
      vertex 109.075 8.7 0
      vertex 107.05 8.7 2
      vertex 109.075 8.7 2
    endloop
  endfacet
  facet normal 0 1 0
    outer loop
      vertex 10.7 8.7 3
      vertex 107.05 8.7 2
      vertex 9.075 8.7 0
    endloop
  endfacet
  facet normal 0 1 0
    outer loop
      vertex 9.075 8.7 6.7
      vertex 10.7 8.7 3
      vertex 9.075 8.7 0
    endloop
  endfacet
  facet normal 0 -1 0
    outer loop
      vertex 107.7 56.45 3
      vertex 109.075 56.45 0
      vertex 109.075 56.45 6.7
    endloop
  endfacet
  facet normal 0 -1 0
    outer loop
      vertex 107.7 56.45 6.7
      vertex 107.7 56.45 3
      vertex 109.075 56.45 6.7
    endloop
  endfacet
  facet normal 0 -1 0
    outer loop
      vertex 10.7 56.45 3
      vertex 109.075 56.45 0
      vertex 107.7 56.45 3
    endloop
  endfacet
  facet normal -0 -1 -0
    outer loop
      vertex 10.7 56.45 6.7
      vertex 9.075 56.45 6.7
      vertex 10.7 56.45 3
    endloop
  endfacet
  facet normal 0 -1 0
    outer loop
      vertex 9.075 56.45 6.7
      vertex 9.075 56.45 0
      vertex 10.7 56.45 3
    endloop
  endfacet
  facet normal 0 -1 0
    outer loop
      vertex 9.075 56.45 0
      vertex 109.075 56.45 0
      vertex 10.7 56.45 3
    endloop
  endfacet
  facet normal -1 0 0
    outer loop
      vertex 109.075 17.7 2
      vertex 109.075 17.7 6.7
      vertex 109.075 30.7 2
    endloop
  endfacet
  facet normal -1 0 0
    outer loop
      vertex 109.075 17.7 6.7
      vertex 109.075 30.7 6.7
      vertex 109.075 30.7 2
    endloop
  endfacet
  facet normal -1 -0 0
    outer loop
      vertex 109.075 17.7 2
      vertex 109.075 8.7 0
      vertex 109.075 8.7 2
    endloop
  endfacet
  facet normal -1 -0 0
    outer loop
      vertex 109.075 30.7 2
      vertex 109.075 8.7 0
      vertex 109.075 17.7 2
    endloop
  endfacet
  facet normal -1 0 0
    outer loop
      vertex 109.075 53.7 2
      vertex 109.075 53.7 6.7
      vertex 109.075 56.45 6.7
    endloop
  endfacet
  facet normal -1 0 0
    outer loop
      vertex 109.075 53.7 2
      vertex 109.075 56.45 6.7
      vertex 109.075 56.45 0
    endloop
  endfacet
  facet normal -1 -0 -0
    outer loop
      vertex 109.075 53.7 2
      vertex 109.075 56.45 0
      vertex 109.075 30.7 2
    endloop
  endfacet
  facet normal -1 0 0
    outer loop
      vertex 109.075 56.45 0
      vertex 109.075 8.7 0
      vertex 109.075 30.7 2
    endloop
  endfacet
  facet normal 0 1 0
    outer loop
      vertex 114.45 30.7 6.7
      vertex 114.45 30.7 13.2
      vertex 118.15 30.7 13.2
    endloop
  endfacet
  facet normal -0 1 0
    outer loop
      vertex 114.45 30.7 6.7
      vertex 118.15 30.7 13.2
      vertex 118.15 30.7 2
    endloop
  endfacet
  facet normal 0 1 0
    outer loop
      vertex 114.45 30.7 6.7
      vertex 109.075 30.7 2
      vertex 109.075 30.7 6.7
    endloop
  endfacet
  facet normal 0 1 0
    outer loop
      vertex 118.15 30.7 2
      vertex 109.075 30.7 2
      vertex 114.45 30.7 6.7
    endloop
  endfacet
  facet normal -0 0 1
    outer loop
      vertex 109.075 53.7 2
      vertex 118.15 30.7 2
      vertex 118.15 53.7 2
    endloop
  endfacet
  facet normal 0 0 1
    outer loop
      vertex 109.075 53.7 2
      vertex 109.075 30.7 2
      vertex 118.15 30.7 2
    endloop
  endfacet
  facet normal 0 -1 0
    outer loop
      vertex 114.45 53.7 6.7
      vertex 118.15 53.7 2
      vertex 118.15 53.7 13.2
    endloop
  endfacet
  facet normal 0 -1 0
    outer loop
      vertex 114.45 53.7 13.2
      vertex 114.45 53.7 6.7
      vertex 118.15 53.7 13.2
    endloop
  endfacet
  facet normal 0 -1 0
    outer loop
      vertex 109.075 53.7 2
      vertex 118.15 53.7 2
      vertex 114.45 53.7 6.7
    endloop
  endfacet
  facet normal 0 -1 0
    outer loop
      vertex 109.075 53.7 6.7
      vertex 109.075 53.7 2
      vertex 114.45 53.7 6.7
    endloop
  endfacet
  facet normal 1 -0 0
    outer loop
      vertex 107.05 5.7 3
      vertex 107.05 8.7 2
      vertex 107.05 8.7 3
    endloop
  endfacet
  facet normal 1 0 0
    outer loop
      vertex 107.05 5.7 3
      vertex 107.05 5.7 2
      vertex 107.05 8.7 2
    endloop
  endfacet
  facet normal 0 1 0
    outer loop
      vertex 107.7 5.7 3
      vertex 107.05 5.7 2
      vertex 107.05 5.7 3
    endloop
  endfacet
  facet normal 0 1 0
    outer loop
      vertex 107.7 5.7 3
      vertex 107.7 5.7 6.7
      vertex 114.45 5.7 6.7
    endloop
  endfacet
  facet normal 0 1 0
    outer loop
      vertex 114.45 5.7 6.7
      vertex 114.45 5.7 13.2
      vertex 118.15 5.7 13.2
    endloop
  endfacet
  facet normal -0 1 0
    outer loop
      vertex 114.45 5.7 6.7
      vertex 118.15 5.7 13.2
      vertex 118.15 5.7 2
    endloop
  endfacet
  facet normal 0 1 0
    outer loop
      vertex 114.45 5.7 6.7
      vertex 118.15 5.7 2
      vertex 107.7 5.7 3
    endloop
  endfacet
  facet normal 0 1 0
    outer loop
      vertex 118.15 5.7 2
      vertex 107.05 5.7 2
      vertex 107.7 5.7 3
    endloop
  endfacet
  facet normal -0 0 1
    outer loop
      vertex 109.075 8.7 2
      vertex 118.15 5.7 2
      vertex 118.15 17.7 2
    endloop
  endfacet
  facet normal -0 0 1
    outer loop
      vertex 109.075 17.7 2
      vertex 109.075 8.7 2
      vertex 118.15 17.7 2
    endloop
  endfacet
  facet normal 0 0 1
    outer loop
      vertex 107.05 5.7 2
      vertex 118.15 5.7 2
      vertex 109.075 8.7 2
    endloop
  endfacet
  facet normal -0 0 1
    outer loop
      vertex 107.05 8.7 2
      vertex 107.05 5.7 2
      vertex 109.075 8.7 2
    endloop
  endfacet
  facet normal 0 -1 0
    outer loop
      vertex 114.45 17.7 6.7
      vertex 118.15 17.7 2
      vertex 118.15 17.7 13.2
    endloop
  endfacet
  facet normal 0 -1 0
    outer loop
      vertex 114.45 17.7 13.2
      vertex 114.45 17.7 6.7
      vertex 118.15 17.7 13.2
    endloop
  endfacet
  facet normal 0 -1 0
    outer loop
      vertex 109.075 17.7 2
      vertex 118.15 17.7 2
      vertex 114.45 17.7 6.7
    endloop
  endfacet
  facet normal 0 -1 0
    outer loop
      vertex 109.075 17.7 6.7
      vertex 109.075 17.7 2
      vertex 114.45 17.7 6.7
    endloop
  endfacet
  facet normal 0 1 0
    outer loop
      vertex 3.7 15.375 13.2
      vertex 3.7 15.375 6.7
      vertex 0 15.375 13.2
    endloop
  endfacet
  facet normal 0 1 -0
    outer loop
      vertex 9.075 15.375 2
      vertex 3.7 15.375 6.7
      vertex 9.075 15.375 6.7
    endloop
  endfacet
  facet normal 0 1 0
    outer loop
      vertex 0 15.375 2
      vertex 3.7 15.375 6.7
      vertex 9.075 15.375 2
    endloop
  endfacet
  facet normal 0 1 0
    outer loop
      vertex 0 15.375 13.2
      vertex 3.7 15.375 6.7
      vertex 0 15.375 2
    endloop
  endfacet
  facet normal -0 0 1
    outer loop
      vertex 0 46.375 2
      vertex 9.075 15.375 2
      vertex 9.075 46.375 2
    endloop
  endfacet
  facet normal 0 0 1
    outer loop
      vertex 0 46.375 2
      vertex 0 15.375 2
      vertex 9.075 15.375 2
    endloop
  endfacet
  facet normal 0 -1 0
    outer loop
      vertex 3.7 46.375 6.7
      vertex 9.075 46.375 2
      vertex 9.075 46.375 6.7
    endloop
  endfacet
  facet normal 0 -1 0
    outer loop
      vertex 3.7 46.375 6.7
      vertex 3.7 46.375 13.2
      vertex 0 46.375 13.2
    endloop
  endfacet
  facet normal -0 -1 0
    outer loop
      vertex 3.7 46.375 6.7
      vertex 0 46.375 13.2
      vertex 0 46.375 2
    endloop
  endfacet
  facet normal 0 -1 -0
    outer loop
      vertex 3.7 46.375 6.7
      vertex 0 46.375 2
      vertex 9.075 46.375 2
    endloop
  endfacet
  facet normal 1 -0 0
    outer loop
      vertex 10.7 3.7 6.7
      vertex 10.7 8.7 3
      vertex 10.7 8.7 6.7
    endloop
  endfacet
  facet normal 1 0 0
    outer loop
      vertex 10.7 3.7 6.7
      vertex 10.7 3.7 3
      vertex 10.7 8.7 3
    endloop
  endfacet
  facet normal 1 -0 0
    outer loop
      vertex 10.7 56.45 6.7
      vertex 10.7 61.45 3
      vertex 10.7 61.45 6.7
    endloop
  endfacet
  facet normal 1 0 0
    outer loop
      vertex 10.7 56.45 6.7
      vertex 10.7 56.45 3
      vertex 10.7 61.45 3
    endloop
  endfacet
  facet normal -0 0 1
    outer loop
      vertex 107.05 5.7 3
      vertex 107.7 3.7 3
      vertex 107.7 5.7 3
    endloop
  endfacet
  facet normal 0 -0 1
    outer loop
      vertex 107.05 5.7 3
      vertex 107.05 8.7 3
      vertex 10.7 8.7 3
    endloop
  endfacet
  facet normal 0 0 1
    outer loop
      vertex 107.05 5.7 3
      vertex 10.7 3.7 3
      vertex 107.7 3.7 3
    endloop
  endfacet
  facet normal 0 0 1
    outer loop
      vertex 10.7 8.7 3
      vertex 10.7 3.7 3
      vertex 107.05 5.7 3
    endloop
  endfacet
  facet normal -0 0 1
    outer loop
      vertex 10.7 61.45 3
      vertex 107.7 56.45 3
      vertex 107.7 61.45 3
    endloop
  endfacet
  facet normal 0 0 1
    outer loop
      vertex 10.7 61.45 3
      vertex 10.7 56.45 3
      vertex 107.7 56.45 3
    endloop
  endfacet
  facet normal -1 -0 -0
    outer loop
      vertex 107.7 5.7 6.7
      vertex 107.7 5.7 3
      vertex 107.7 3.7 6.7
    endloop
  endfacet
  facet normal -1 0 0
    outer loop
      vertex 107.7 3.7 6.7
      vertex 107.7 5.7 3
      vertex 107.7 3.7 3
    endloop
  endfacet
  facet normal -1 -0 -0
    outer loop
      vertex 107.7 61.45 6.7
      vertex 107.7 61.45 3
      vertex 107.7 56.45 6.7
    endloop
  endfacet
  facet normal -1 0 0
    outer loop
      vertex 107.7 56.45 6.7
      vertex 107.7 61.45 3
      vertex 107.7 56.45 3
    endloop
  endfacet
  facet normal -1 0 0
    outer loop
      vertex 0 46.375 2
      vertex 0 65.15 13.2
      vertex 0 65.15 0
    endloop
  endfacet
  facet normal -1 0 0
    outer loop
      vertex 0 0 0
      vertex 0 0 13.2
      vertex 0 15.375 2
    endloop
  endfacet
  facet normal -1 0 0
    outer loop
      vertex 0 0 13.2
      vertex 0 15.375 13.2
      vertex 0 15.375 2
    endloop
  endfacet
  facet normal -1 0 0
    outer loop
      vertex 0 0 0
      vertex 0 46.375 2
      vertex 0 65.15 0
    endloop
  endfacet
  facet normal -1 0 -0
    outer loop
      vertex 0 15.375 2
      vertex 0 46.375 2
      vertex 0 0 0
    endloop
  endfacet
  facet normal -1 0 0
    outer loop
      vertex 0 46.375 2
      vertex 0 46.375 13.2
      vertex 0 65.15 13.2
    endloop
  endfacet
  facet normal 0 -1 0
    outer loop
      vertex 118.15 0 0
      vertex 0 0 13.2
      vertex 0 0 0
    endloop
  endfacet
  facet normal 0 -1 0
    outer loop
      vertex 118.15 0 0
      vertex 118.15 0 13.2
      vertex 0 0 13.2
    endloop
  endfacet
  facet normal 0 0 -1
    outer loop
      vertex 109.075 56.45 0
      vertex 118.15 65.15 0
      vertex 118.15 0 0
    endloop
  endfacet
  facet normal 0 0 -1
    outer loop
      vertex 9.075 56.45 0
      vertex 0 65.15 0
      vertex 109.075 56.45 0
    endloop
  endfacet
  facet normal 0 0 -1
    outer loop
      vertex 0 0 0
      vertex 0 65.15 0
      vertex 9.075 56.45 0
    endloop
  endfacet
  facet normal 0 -0 -1
    outer loop
      vertex 9.075 8.7 0
      vertex 109.075 8.7 0
      vertex 0 0 0
    endloop
  endfacet
  facet normal 0 0 -1
    outer loop
      vertex 0 0 0
      vertex 9.075 56.45 0
      vertex 9.075 8.7 0
    endloop
  endfacet
  facet normal 0 0 -1
    outer loop
      vertex 0 0 0
      vertex 109.075 8.7 0
      vertex 118.15 0 0
    endloop
  endfacet
  facet normal 0 0 -1
    outer loop
      vertex 109.075 56.45 0
      vertex 118.15 0 0
      vertex 109.075 8.7 0
    endloop
  endfacet
  facet normal 0 0 -1
    outer loop
      vertex 0 65.15 0
      vertex 118.15 65.15 0
      vertex 109.075 56.45 0
    endloop
  endfacet
  facet normal 0 1 0
    outer loop
      vertex 0 65.15 0
      vertex 0 65.15 13.2
      vertex 118.15 65.15 0
    endloop
  endfacet
  facet normal 0 1 -0
    outer loop
      vertex 118.15 65.15 0
      vertex 0 65.15 13.2
      vertex 118.15 65.15 13.2
    endloop
  endfacet
  facet normal 0 0 1
    outer loop
      vertex 118.15 5.7 13.2
      vertex 114.45 5.7 13.2
      vertex 114.45 3.7 13.2
    endloop
  endfacet
  facet normal 0 0 1
    outer loop
      vertex 118.15 5.7 13.2
      vertex 114.45 3.7 13.2
      vertex 118.15 0 13.2
    endloop
  endfacet
  facet normal 0 0 1
    outer loop
      vertex 3.7 15.375 13.2
      vertex 0 15.375 13.2
      vertex 3.7 3.7 13.2
    endloop
  endfacet
  facet normal 0 0 1
    outer loop
      vertex 118.15 0 13.2
      vertex 114.45 3.7 13.2
      vertex 0 0 13.2
    endloop
  endfacet
  facet normal 0 0 1
    outer loop
      vertex 114.45 3.7 13.2
      vertex 3.7 3.7 13.2
      vertex 0 0 13.2
    endloop
  endfacet
  facet normal 0 0 1
    outer loop
      vertex 3.7 3.7 13.2
      vertex 0 15.375 13.2
      vertex 0 0 13.2
    endloop
  endfacet
  facet normal 0 0 1
    outer loop
      vertex 3.7 61.45 13.2
      vertex 0 65.15 13.2
      vertex 0 46.375 13.2
    endloop
  endfacet
  facet normal 0 -0 1
    outer loop
      vertex 3.7 46.375 13.2
      vertex 3.7 61.45 13.2
      vertex 0 46.375 13.2
    endloop
  endfacet
  facet normal 0 0 1
    outer loop
      vertex 114.45 61.45 13.2
      vertex 0 65.15 13.2
      vertex 3.7 61.45 13.2
    endloop
  endfacet
  facet normal 0 0 1
    outer loop
      vertex 114.45 53.7 13.2
      vertex 118.15 53.7 13.2
      vertex 114.45 61.45 13.2
    endloop
  endfacet
  facet normal 0 -0 1
    outer loop
      vertex 118.15 53.7 13.2
      vertex 118.15 65.15 13.2
      vertex 114.45 61.45 13.2
    endloop
  endfacet
  facet normal 0 0 1
    outer loop
      vertex 118.15 65.15 13.2
      vertex 0 65.15 13.2
      vertex 114.45 61.45 13.2
    endloop
  endfacet
  facet normal 0 0 1
    outer loop
      vertex 118.15 17.7 13.2
      vertex 114.45 30.7 13.2
      vertex 114.45 17.7 13.2
    endloop
  endfacet
  facet normal 0 -0 1
    outer loop
      vertex 118.15 17.7 13.2
      vertex 118.15 30.7 13.2
      vertex 114.45 30.7 13.2
    endloop
  endfacet
  facet normal 1 0 -0
    outer loop
      vertex 118.15 65.15 0
      vertex 118.15 65.15 13.2
      vertex 118.15 53.7 2
    endloop
  endfacet
  facet normal 1 0 0
    outer loop
      vertex 118.15 65.15 13.2
      vertex 118.15 53.7 13.2
      vertex 118.15 53.7 2
    endloop
  endfacet
  facet normal 1 0 0
    outer loop
      vertex 118.15 65.15 0
      vertex 118.15 30.7 2
      vertex 118.15 0 0
    endloop
  endfacet
  facet normal 1 0 0
    outer loop
      vertex 118.15 53.7 2
      vertex 118.15 30.7 2
      vertex 118.15 65.15 0
    endloop
  endfacet
  facet normal 1 0 0
    outer loop
      vertex 118.15 30.7 13.2
      vertex 118.15 17.7 13.2
      vertex 118.15 30.7 2
    endloop
  endfacet
  facet normal 1 0 0
    outer loop
      vertex 118.15 0 13.2
      vertex 118.15 0 0
      vertex 118.15 5.7 2
    endloop
  endfacet
  facet normal 1 0 0
    outer loop
      vertex 118.15 17.7 13.2
      vertex 118.15 17.7 2
      vertex 118.15 30.7 2
    endloop
  endfacet
  facet normal 1 -0 0
    outer loop
      vertex 118.15 17.7 2
      vertex 118.15 0 0
      vertex 118.15 30.7 2
    endloop
  endfacet
  facet normal 1 -0 0
    outer loop
      vertex 118.15 0 13.2
      vertex 118.15 5.7 2
      vertex 118.15 5.7 13.2
    endloop
  endfacet
  facet normal 1 -0 0
    outer loop
      vertex 118.15 5.7 2
      vertex 118.15 0 0
      vertex 118.15 17.7 2
    endloop
  endfacet
endsolid OpenSCAD_Model
