solid OpenSCAD_Model
  facet normal 0.707107 0.707107 0
    outer loop
      vertex 28.9326 -3.7 11.2
      vertex 28.9326 -3.7 5.7
      vertex 22.8606 2.37195 11.2
    endloop
  endfacet
  facet normal 0.707107 0.707107 0
    outer loop
      vertex 22.8606 2.37195 11.2
      vertex 28.9326 -3.7 5.7
      vertex 22.8606 2.37195 5.7
    endloop
  endfacet
  facet normal 0.707107 0.707107 0
    outer loop
      vertex 3.76876 21.4638 11.2
      vertex 3.76876 21.4638 5.7
      vertex -3.7 28.9326 11.2
    endloop
  endfacet
  facet normal 0.707107 0.707107 0
    outer loop
      vertex -3.7 28.9326 11.2
      vertex 3.76876 21.4638 5.7
      vertex -3.7 28.9326 5.7
    endloop
  endfacet
  facet normal -0.707107 0.707107 0
    outer loop
      vertex 36.9497 -1.81766 5.7
      vertex 35.0674 -3.7 5.7
      vertex 35.0674 -3.7 11.2
    endloop
  endfacet
  facet normal -0.707107 0.707107 0
    outer loop
      vertex 104.3 65.5326 11.2
      vertex 104.3 65.5326 3
      vertex 36.9497 -1.81766 5.7
    endloop
  endfacet
  facet normal -0.707107 0.707107 0
    outer loop
      vertex 104.3 65.5326 3
      vertex 36.9497 -1.81766 3
      vertex 36.9497 -1.81766 5.7
    endloop
  endfacet
  facet normal -0.707107 0.707107 0
    outer loop
      vertex 104.3 65.5326 11.2
      vertex 36.9497 -1.81766 5.7
      vertex 35.0674 -3.7 11.2
    endloop
  endfacet
  facet normal 0 0 1
    outer loop
      vertex 22.8606 2.37195 5.7
      vertex 3.76876 21.4638 5.7
      vertex 1.15247 18.8475 5.7
    endloop
  endfacet
  facet normal 0 -0 1
    outer loop
      vertex 20.2443 -0.24435 5.7
      vertex 22.8606 2.37195 5.7
      vertex 1.15247 18.8475 5.7
    endloop
  endfacet
  facet normal 0 -0 1
    outer loop
      vertex 28.9326 -3.7 5.7
      vertex 36.9497 -1.81766 5.7
      vertex 22.8606 2.37195 5.7
    endloop
  endfacet
  facet normal 0 0 1
    outer loop
      vertex 36.9497 -1.81766 5.7
      vertex 3.76876 21.4638 5.7
      vertex 22.8606 2.37195 5.7
    endloop
  endfacet
  facet normal 0 -0 1
    outer loop
      vertex 35.0674 -3.7 5.7
      vertex 36.9497 -1.81766 5.7
      vertex 28.9326 -3.7 5.7
    endloop
  endfacet
  facet normal 0 0 1
    outer loop
      vertex 36.9497 -1.81766 5.7
      vertex -2.82501 37.9571 5.7
      vertex 3.76876 21.4638 5.7
    endloop
  endfacet
  facet normal -0 0 1
    outer loop
      vertex -3.7 28.9326 5.7
      vertex 3.76876 21.4638 5.7
      vertex -2.82501 37.9571 5.7
    endloop
  endfacet
  facet normal 0 0 1
    outer loop
      vertex -3.7 28.9326 5.7
      vertex -2.82501 37.9571 5.7
      vertex -3.7 37.0821 5.7
    endloop
  endfacet
  facet normal -0 0 1
    outer loop
      vertex 100.413 81.4442 5.7
      vertex 104.3 68.0108 5.7
      vertex 104.3 82.7893 5.7
    endloop
  endfacet
  facet normal 0 0 1
    outer loop
      vertex 103.029 84.0605 5.7
      vertex 100.413 81.4442 5.7
      vertex 104.3 82.7893 5.7
    endloop
  endfacet
  facet normal 0 0 1
    outer loop
      vertex 91.2202 90.6365 5.7
      vertex 104.3 68.0108 5.7
      vertex 100.413 81.4442 5.7
    endloop
  endfacet
  facet normal 0 0 1
    outer loop
      vertex 93.8365 93.2528 5.7
      vertex 82.7893 104.3 5.7
      vertex 91.2202 90.6365 5.7
    endloop
  endfacet
  facet normal 0 0 1
    outer loop
      vertex 68.0108 104.3 5.7
      vertex 104.3 68.0108 5.7
      vertex 91.2202 90.6365 5.7
    endloop
  endfacet
  facet normal 0 0 1
    outer loop
      vertex 82.7893 104.3 5.7
      vertex 68.0108 104.3 5.7
      vertex 91.2202 90.6365 5.7
    endloop
  endfacet
  facet normal 0.707107 -0.707107 0
    outer loop
      vertex 63.5179 104.3 3
      vertex -2.82501 37.9571 5.7
      vertex -2.82501 37.9571 3
    endloop
  endfacet
  facet normal 0.707107 -0.707107 0
    outer loop
      vertex 63.5179 104.3 3
      vertex 63.5179 104.3 11.2
      vertex -2.82501 37.9571 5.7
    endloop
  endfacet
  facet normal 0.707107 -0.707107 0
    outer loop
      vertex 63.5179 104.3 11.2
      vertex -3.7 37.0821 11.2
      vertex -2.82501 37.9571 5.7
    endloop
  endfacet
  facet normal 0.707107 -0.707107 0
    outer loop
      vertex -3.7 37.0821 5.7
      vertex -2.82501 37.9571 5.7
      vertex -3.7 37.0821 11.2
    endloop
  endfacet
  facet normal -0.707107 -0.707107 -0
    outer loop
      vertex 100.413 81.4442 11.2
      vertex 91.2202 90.6365 11.2
      vertex 100.413 81.4442 5.7
    endloop
  endfacet
  facet normal -0.707107 -0.707107 0
    outer loop
      vertex 100.413 81.4442 5.7
      vertex 91.2202 90.6365 11.2
      vertex 91.2202 90.6365 5.7
    endloop
  endfacet
  facet normal 0.707107 0.707107 0
    outer loop
      vertex 29.4367 6.93278 3
      vertex 29.4367 6.93278 0
      vertex 5.92544 30.4441 3
    endloop
  endfacet
  facet normal 0.707107 0.707107 0
    outer loop
      vertex 5.92544 30.4441 3
      vertex 29.4367 6.93278 0
      vertex 5.92544 30.4441 0
    endloop
  endfacet
  facet normal -0.707107 0.707107 0
    outer loop
      vertex 96.6119 74.1079 3
      vertex 96.6119 74.1079 0
      vertex 29.4367 6.93278 3
    endloop
  endfacet
  facet normal -0.707107 0.707107 0
    outer loop
      vertex 29.4367 6.93278 3
      vertex 96.6119 74.1079 0
      vertex 29.4367 6.93278 0
    endloop
  endfacet
  facet normal 0.707107 -0.707107 0
    outer loop
      vertex 5.92544 30.4441 3
      vertex 73.1006 97.6192 0
      vertex 73.1006 97.6192 3
    endloop
  endfacet
  facet normal 0.707107 -0.707107 0
    outer loop
      vertex 5.92544 30.4441 3
      vertex 5.92544 30.4441 0
      vertex 73.1006 97.6192 0
    endloop
  endfacet
  facet normal -0.707107 -0.707107 -0
    outer loop
      vertex 96.6119 74.1079 3
      vertex 73.1006 97.6192 3
      vertex 96.6119 74.1079 0
    endloop
  endfacet
  facet normal -0.707107 -0.707107 0
    outer loop
      vertex 96.6119 74.1079 0
      vertex 73.1006 97.6192 3
      vertex 73.1006 97.6192 0
    endloop
  endfacet
  facet normal -0.707107 0.707107 0
    outer loop
      vertex 93.8365 93.2528 11.2
      vertex 93.8365 93.2528 5.7
      vertex 91.2202 90.6365 11.2
    endloop
  endfacet
  facet normal -0.707107 0.707107 0
    outer loop
      vertex 91.2202 90.6365 11.2
      vertex 93.8365 93.2528 5.7
      vertex 91.2202 90.6365 5.7
    endloop
  endfacet
  facet normal 0.707107 -0.707107 0
    outer loop
      vertex 100.413 81.4442 11.2
      vertex 103.029 84.0605 5.7
      vertex 103.029 84.0605 11.2
    endloop
  endfacet
  facet normal 0.707107 -0.707107 0
    outer loop
      vertex 100.413 81.4442 11.2
      vertex 100.413 81.4442 5.7
      vertex 103.029 84.0605 5.7
    endloop
  endfacet
  facet normal -0.707107 0.707107 0
    outer loop
      vertex 22.8606 2.37195 11.2
      vertex 22.8606 2.37195 5.7
      vertex 20.2443 -0.24435 11.2
    endloop
  endfacet
  facet normal -0.707107 0.707107 0
    outer loop
      vertex 20.2443 -0.24435 11.2
      vertex 22.8606 2.37195 5.7
      vertex 20.2443 -0.24435 5.7
    endloop
  endfacet
  facet normal 0.707107 -0.707107 0
    outer loop
      vertex 1.15247 18.8475 11.2
      vertex 3.76876 21.4638 5.7
      vertex 3.76876 21.4638 11.2
    endloop
  endfacet
  facet normal 0.707107 -0.707107 0
    outer loop
      vertex 1.15247 18.8475 11.2
      vertex 1.15247 18.8475 5.7
      vertex 3.76876 21.4638 5.7
    endloop
  endfacet
  facet normal 0.707107 0.707107 0
    outer loop
      vertex 36.9497 -1.81766 5.7
      vertex 36.9497 -1.81766 3
      vertex -2.82501 37.9571 5.7
    endloop
  endfacet
  facet normal 0.707107 0.707107 0
    outer loop
      vertex -2.82501 37.9571 5.7
      vertex 36.9497 -1.81766 3
      vertex -2.82501 37.9571 3
    endloop
  endfacet
  facet normal 0 0 1
    outer loop
      vertex 5.92544 30.4441 3
      vertex 36.9497 -1.81766 3
      vertex 29.4367 6.93278 3
    endloop
  endfacet
  facet normal 0 0 1
    outer loop
      vertex 68.0108 104.3 3
      vertex 73.1006 97.6192 3
      vertex 96.6119 74.1079 3
    endloop
  endfacet
  facet normal 0 0 1
    outer loop
      vertex 68.0108 104.3 3
      vertex 63.5179 104.3 3
      vertex 73.1006 97.6192 3
    endloop
  endfacet
  facet normal 0 0 1
    outer loop
      vertex 63.5179 104.3 3
      vertex -2.82501 37.9571 3
      vertex 5.92544 30.4441 3
    endloop
  endfacet
  facet normal 0 0 1
    outer loop
      vertex 63.5179 104.3 3
      vertex 5.92544 30.4441 3
      vertex 73.1006 97.6192 3
    endloop
  endfacet
  facet normal 0 0 1
    outer loop
      vertex 5.92544 30.4441 3
      vertex -2.82501 37.9571 3
      vertex 36.9497 -1.81766 3
    endloop
  endfacet
  facet normal 0 0 1
    outer loop
      vertex 68.0108 104.3 3
      vertex 96.6119 74.1079 3
      vertex 104.3 68.0108 3
    endloop
  endfacet
  facet normal 0 0 1
    outer loop
      vertex 104.3 68.0108 3
      vertex 96.6119 74.1079 3
      vertex 104.3 65.5326 3
    endloop
  endfacet
  facet normal -0 0 1
    outer loop
      vertex 29.4367 6.93278 3
      vertex 36.9497 -1.81766 3
      vertex 104.3 65.5326 3
    endloop
  endfacet
  facet normal 0 0 1
    outer loop
      vertex 29.4367 6.93278 3
      vertex 104.3 65.5326 3
      vertex 96.6119 74.1079 3
    endloop
  endfacet
  facet normal -0.707107 -0.707107 -0
    outer loop
      vertex 104.3 68.0108 5.7
      vertex 68.0108 104.3 5.7
      vertex 104.3 68.0108 3
    endloop
  endfacet
  facet normal -0.707107 -0.707107 0
    outer loop
      vertex 104.3 68.0108 3
      vertex 68.0108 104.3 5.7
      vertex 68.0108 104.3 3
    endloop
  endfacet
  facet normal -0.707107 -0.707107 0
    outer loop
      vertex 20.2443 -0.24435 5.7
      vertex 23.7 -3.7 0
      vertex 23.7 -3.7 11.2
    endloop
  endfacet
  facet normal -0.707107 -0.707107 0
    outer loop
      vertex 20.2443 -0.24435 5.7
      vertex 23.7 -3.7 11.2
      vertex 20.2443 -0.24435 11.2
    endloop
  endfacet
  facet normal -0.707107 -0.707107 5.14718e-16
    outer loop
      vertex 23.7 -3.7 0
      vertex 1.15247 18.8475 5.7
      vertex -3.7 23.7 0
    endloop
  endfacet
  facet normal -0.707107 -0.707107 1.84676e-16
    outer loop
      vertex 20.2443 -0.24435 5.7
      vertex 1.15247 18.8475 5.7
      vertex 23.7 -3.7 0
    endloop
  endfacet
  facet normal -0.707107 -0.707107 0
    outer loop
      vertex 1.15247 18.8475 5.7
      vertex -3.7 23.7 11.2
      vertex -3.7 23.7 0
    endloop
  endfacet
  facet normal -0.707107 -0.707107 -0
    outer loop
      vertex 1.15247 18.8475 11.2
      vertex -3.7 23.7 11.2
      vertex 1.15247 18.8475 5.7
    endloop
  endfacet
  facet normal 0.707107 -0.707107 0
    outer loop
      vertex 104.3 60.3 0
      vertex 40.3 -3.7 11.2
      vertex 40.3 -3.7 0
    endloop
  endfacet
  facet normal 0.707107 -0.707107 0
    outer loop
      vertex 104.3 60.3 0
      vertex 104.3 60.3 11.2
      vertex 40.3 -3.7 11.2
    endloop
  endfacet
  facet normal 0 -0 -1
    outer loop
      vertex 29.4367 6.93278 0
      vertex 40.3 -3.7 0
      vertex 23.7 -3.7 0
    endloop
  endfacet
  facet normal 0 -0 -1
    outer loop
      vertex 96.6119 74.1079 0
      vertex 104.3 60.3 0
      vertex 29.4367 6.93278 0
    endloop
  endfacet
  facet normal 0 0 -1
    outer loop
      vertex -3.7 42.3147 0
      vertex 58.2853 104.3 0
      vertex 5.92544 30.4441 0
    endloop
  endfacet
  facet normal 0 0 -1
    outer loop
      vertex 96.6119 74.1079 0
      vertex 104.3 82.7893 0
      vertex 104.3 60.3 0
    endloop
  endfacet
  facet normal 0 0 -1
    outer loop
      vertex 82.7893 104.3 0
      vertex 104.3 82.7893 0
      vertex 96.6119 74.1079 0
    endloop
  endfacet
  facet normal 0 0 -1
    outer loop
      vertex -3.7 23.7 0
      vertex -3.7 42.3147 0
      vertex 5.92544 30.4441 0
    endloop
  endfacet
  facet normal 0 0 -1
    outer loop
      vertex -3.7 23.7 0
      vertex 29.4367 6.93278 0
      vertex 23.7 -3.7 0
    endloop
  endfacet
  facet normal 0 0 -1
    outer loop
      vertex 104.3 60.3 0
      vertex 40.3 -3.7 0
      vertex 29.4367 6.93278 0
    endloop
  endfacet
  facet normal 0 -0 -1
    outer loop
      vertex 5.92544 30.4441 0
      vertex 29.4367 6.93278 0
      vertex -3.7 23.7 0
    endloop
  endfacet
  facet normal 0 0 -1
    outer loop
      vertex 73.1006 97.6192 0
      vertex 82.7893 104.3 0
      vertex 96.6119 74.1079 0
    endloop
  endfacet
  facet normal 0 0 -1
    outer loop
      vertex 58.2853 104.3 0
      vertex 82.7893 104.3 0
      vertex 73.1006 97.6192 0
    endloop
  endfacet
  facet normal 0 -0 -1
    outer loop
      vertex 58.2853 104.3 0
      vertex 73.1006 97.6192 0
      vertex 5.92544 30.4441 0
    endloop
  endfacet
  facet normal -0.707107 0.707107 0
    outer loop
      vertex -3.7 42.3147 0
      vertex -3.7 42.3147 11.2
      vertex 58.2853 104.3 0
    endloop
  endfacet
  facet normal -0.707107 0.707107 0
    outer loop
      vertex 58.2853 104.3 0
      vertex -3.7 42.3147 11.2
      vertex 58.2853 104.3 11.2
    endloop
  endfacet
  facet normal 0 0 1
    outer loop
      vertex 23.7 -3.7 11.2
      vertex 22.8606 2.37195 11.2
      vertex 20.2443 -0.24435 11.2
    endloop
  endfacet
  facet normal 0 -0 1
    outer loop
      vertex 23.7 -3.7 11.2
      vertex 28.9326 -3.7 11.2
      vertex 22.8606 2.37195 11.2
    endloop
  endfacet
  facet normal 0 -0 1
    outer loop
      vertex 104.3 60.3 11.2
      vertex 104.3 65.5326 11.2
      vertex 35.0674 -3.7 11.2
    endloop
  endfacet
  facet normal 0 -0 1
    outer loop
      vertex 40.3 -3.7 11.2
      vertex 104.3 60.3 11.2
      vertex 35.0674 -3.7 11.2
    endloop
  endfacet
  facet normal 0 0 1
    outer loop
      vertex 3.76876 21.4638 11.2
      vertex -3.7 28.9326 11.2
      vertex -3.7 23.7 11.2
    endloop
  endfacet
  facet normal 0 -0 1
    outer loop
      vertex 1.15247 18.8475 11.2
      vertex 3.76876 21.4638 11.2
      vertex -3.7 23.7 11.2
    endloop
  endfacet
  facet normal 0 0 1
    outer loop
      vertex 63.5179 104.3 11.2
      vertex -3.7 42.3147 11.2
      vertex -3.7 37.0821 11.2
    endloop
  endfacet
  facet normal 0 0 1
    outer loop
      vertex 63.5179 104.3 11.2
      vertex 58.2853 104.3 11.2
      vertex -3.7 42.3147 11.2
    endloop
  endfacet
  facet normal 0 0 1
    outer loop
      vertex 103.029 84.0605 11.2
      vertex 93.8365 93.2528 11.2
      vertex 91.2202 90.6365 11.2
    endloop
  endfacet
  facet normal 0 -0 1
    outer loop
      vertex 100.413 81.4442 11.2
      vertex 103.029 84.0605 11.2
      vertex 91.2202 90.6365 11.2
    endloop
  endfacet
  facet normal 0.707107 0.707107 0
    outer loop
      vertex 93.8365 93.2528 5.7
      vertex 104.3 82.7893 0
      vertex 82.7893 104.3 0
    endloop
  endfacet
  facet normal 0.707107 0.707107 0
    outer loop
      vertex 82.7893 104.3 5.7
      vertex 93.8365 93.2528 5.7
      vertex 82.7893 104.3 0
    endloop
  endfacet
  facet normal 0.707107 0.707107 0
    outer loop
      vertex 103.029 84.0605 5.7
      vertex 104.3 82.7893 5.7
      vertex 104.3 82.7893 0
    endloop
  endfacet
  facet normal 0.707107 0.707107 0
    outer loop
      vertex 93.8365 93.2528 11.2
      vertex 103.029 84.0605 5.7
      vertex 93.8365 93.2528 5.7
    endloop
  endfacet
  facet normal 0.707107 0.707107 0
    outer loop
      vertex 103.029 84.0605 11.2
      vertex 103.029 84.0605 5.7
      vertex 93.8365 93.2528 11.2
    endloop
  endfacet
  facet normal 0.707107 0.707107 2.01368e-15
    outer loop
      vertex 103.029 84.0605 5.7
      vertex 104.3 82.7893 0
      vertex 93.8365 93.2528 5.7
    endloop
  endfacet
  facet normal -1 0 0
    outer loop
      vertex -3.7 28.9326 5.7
      vertex -3.7 37.0821 5.7
      vertex -3.7 42.3147 0
    endloop
  endfacet
  facet normal -1 0 0
    outer loop
      vertex -3.7 23.7 0
      vertex -3.7 23.7 11.2
      vertex -3.7 28.9326 5.7
    endloop
  endfacet
  facet normal -1 0 0
    outer loop
      vertex -3.7 23.7 11.2
      vertex -3.7 28.9326 11.2
      vertex -3.7 28.9326 5.7
    endloop
  endfacet
  facet normal -1 0 0
    outer loop
      vertex -3.7 23.7 0
      vertex -3.7 28.9326 5.7
      vertex -3.7 42.3147 0
    endloop
  endfacet
  facet normal -1 0 0
    outer loop
      vertex -3.7 37.0821 5.7
      vertex -3.7 42.3147 11.2
      vertex -3.7 42.3147 0
    endloop
  endfacet
  facet normal -1 0 0
    outer loop
      vertex -3.7 37.0821 5.7
      vertex -3.7 37.0821 11.2
      vertex -3.7 42.3147 11.2
    endloop
  endfacet
  facet normal 0 -1 0
    outer loop
      vertex 40.3 -3.7 0
      vertex 40.3 -3.7 11.2
      vertex 35.0674 -3.7 5.7
    endloop
  endfacet
  facet normal -0 -1 0
    outer loop
      vertex 40.3 -3.7 11.2
      vertex 35.0674 -3.7 11.2
      vertex 35.0674 -3.7 5.7
    endloop
  endfacet
  facet normal 0 -1 0
    outer loop
      vertex 40.3 -3.7 0
      vertex 28.9326 -3.7 5.7
      vertex 23.7 -3.7 0
    endloop
  endfacet
  facet normal -0 -1 -0
    outer loop
      vertex 35.0674 -3.7 5.7
      vertex 28.9326 -3.7 5.7
      vertex 40.3 -3.7 0
    endloop
  endfacet
  facet normal -0 -1 0
    outer loop
      vertex 28.9326 -3.7 5.7
      vertex 23.7 -3.7 11.2
      vertex 23.7 -3.7 0
    endloop
  endfacet
  facet normal -0 -1 -0
    outer loop
      vertex 28.9326 -3.7 11.2
      vertex 23.7 -3.7 11.2
      vertex 28.9326 -3.7 5.7
    endloop
  endfacet
  facet normal -0 1 0
    outer loop
      vertex 68.0108 104.3 5.7
      vertex 82.7893 104.3 5.7
      vertex 68.0108 104.3 3
    endloop
  endfacet
  facet normal 0 1 0
    outer loop
      vertex 58.2853 104.3 0
      vertex 58.2853 104.3 11.2
      vertex 63.5179 104.3 3
    endloop
  endfacet
  facet normal -0 1 0
    outer loop
      vertex 58.2853 104.3 11.2
      vertex 63.5179 104.3 11.2
      vertex 63.5179 104.3 3
    endloop
  endfacet
  facet normal 0 1 0
    outer loop
      vertex 58.2853 104.3 0
      vertex 68.0108 104.3 3
      vertex 82.7893 104.3 0
    endloop
  endfacet
  facet normal -0 1 0
    outer loop
      vertex 63.5179 104.3 3
      vertex 68.0108 104.3 3
      vertex 58.2853 104.3 0
    endloop
  endfacet
  facet normal -0 1 0
    outer loop
      vertex 68.0108 104.3 3
      vertex 82.7893 104.3 5.7
      vertex 82.7893 104.3 0
    endloop
  endfacet
  facet normal 1 0 0
    outer loop
      vertex 104.3 82.7893 5.7
      vertex 104.3 68.0108 5.7
      vertex 104.3 68.0108 3
    endloop
  endfacet
  facet normal 1 0 0
    outer loop
      vertex 104.3 82.7893 5.7
      vertex 104.3 68.0108 3
      vertex 104.3 82.7893 0
    endloop
  endfacet
  facet normal 1 0 0
    outer loop
      vertex 104.3 65.5326 11.2
      vertex 104.3 60.3 11.2
      vertex 104.3 65.5326 3
    endloop
  endfacet
  facet normal 1 0 0
    outer loop
      vertex 104.3 82.7893 0
      vertex 104.3 68.0108 3
      vertex 104.3 60.3 0
    endloop
  endfacet
  facet normal 1 0 0
    outer loop
      vertex 104.3 68.0108 3
      vertex 104.3 65.5326 3
      vertex 104.3 60.3 0
    endloop
  endfacet
  facet normal 1 0 0
    outer loop
      vertex 104.3 65.5326 3
      vertex 104.3 60.3 11.2
      vertex 104.3 60.3 0
    endloop
  endfacet
endsolid OpenSCAD_Model
