solid OpenSCAD_Model
  facet normal -1 0 0
    outer loop
      vertex -2.3 -2.33262 4.00306
      vertex -2.3 4.70226 4.70226
      vertex -2.3 2.46157 -0.791126
    endloop
  endfacet
  facet normal -1 0 0
    outer loop
      vertex -2.3 -2.33262 4.00306
      vertex -2.3 1.53442 7.8701
      vertex -2.3 4.70226 4.70226
    endloop
  endfacet
  facet normal -1 0 -0
    outer loop
      vertex -2.3 4.70226 4.70226
      vertex -2.3 12.8835 9.63079
      vertex -2.3 2.46157 -0.791126
    endloop
  endfacet
  facet normal -1 0 0
    outer loop
      vertex -2.3 4.70226 4.70226
      vertex -2.3 11.2571 11.2571
      vertex -2.3 12.8835 9.63079
    endloop
  endfacet
  facet normal 0 -0.707107 -0.707107
    outer loop
      vertex 1.16529 -4.79418 1.54149
      vertex 1.16529 -0.652691 -2.6
      vertex 42.1188 -4.79418 1.54149
    endloop
  endfacet
  facet normal 0 -0.707107 -0.707107
    outer loop
      vertex 42.1188 -4.79418 1.54149
      vertex 1.16529 -0.652691 -2.6
      vertex 42.1188 -0.652691 -2.6
    endloop
  endfacet
  facet normal -8.02758e-17 0.707107 -0.707107
    outer loop
      vertex -2.3 2.46157 -0.791126
      vertex -1.19074 2.15269 -1.1
      vertex -2.06773 1.95608 -1.29661
    endloop
  endfacet
  facet normal -5.2401e-17 0.707107 -0.707107
    outer loop
      vertex -2.3 2.46157 -0.791126
      vertex -2.3 12.8835 9.63079
      vertex 2.3 5.16188 1.90919
    endloop
  endfacet
  facet normal 0 0.707107 -0.707107
    outer loop
      vertex -2.3 12.8835 9.63079
      vertex 2.3 12.8835 9.63079
      vertex 2.3 5.16188 1.90919
    endloop
  endfacet
  facet normal 0 0.707107 -0.707107
    outer loop
      vertex 2.3 5.16188 1.90919
      vertex -1.19074 2.15269 -1.1
      vertex -2.3 2.46157 -0.791126
    endloop
  endfacet
  facet normal 2.16956e-16 0.707107 -0.707107
    outer loop
      vertex 2.40926 4.4268 1.17411
      vertex -1.19074 2.15269 -1.1
      vertex 2.3 5.16188 1.90919
    endloop
  endfacet
  facet normal -5.91045e-17 0.707107 -0.707107
    outer loop
      vertex -1.19074 2.15269 -1.1
      vertex -1.54508 1.31598 -1.93671
      vertex -2.06773 1.95608 -1.29661
    endloop
  endfacet
  facet normal 4.80857e-17 0.707107 -0.707107
    outer loop
      vertex 2.73227 3.72385 0.471157
      vertex -1.19074 2.15269 -1.1
      vertex 2.40926 4.4268 1.17411
    endloop
  endfacet
  facet normal -6.84933e-17 0.707107 -0.707107
    outer loop
      vertex -0.967727 1.46632 -1.78637
      vertex -1.54508 1.31598 -1.93671
      vertex -1.19074 2.15269 -1.1
    endloop
  endfacet
  facet normal 0 0.707107 -0.707107
    outer loop
      vertex -0.967727 1.46632 -1.78637
      vertex -0.49798 0.652691 -2.6
      vertex -0.845653 0.766699 -2.48599
    endloop
  endfacet
  facet normal 0 0.707107 -0.707107
    outer loop
      vertex -0.49798 0.652691 -2.6
      vertex -0.623737 0.652691 -2.6
      vertex -0.845653 0.766699 -2.48599
    endloop
  endfacet
  facet normal -6.97146e-17 0.707107 -0.707107
    outer loop
      vertex -0.967727 1.46632 -1.78637
      vertex -0.845653 0.766699 -2.48599
      vertex -1.54508 1.31598 -1.93671
    endloop
  endfacet
  facet normal 0 0.707107 -0.707107
    outer loop
      vertex -1.19074 2.15269 -1.1
      vertex 2.73227 3.72385 0.471157
      vertex 3.25492 3.08374 -0.168946
    endloop
  endfacet
  facet normal 0 0.707107 -0.707107
    outer loop
      vertex -1.19074 2.15269 -1.1
      vertex 3.25492 3.08374 -0.168946
      vertex 3.95435 2.53447 -0.718225
    endloop
  endfacet
  facet normal 0 0.707107 -0.707107
    outer loop
      vertex -1.19074 2.15269 -1.1
      vertex 3.95435 2.53447 -0.718225
      vertex 4.69747 2.15269 -1.1
    endloop
  endfacet
  facet normal 1.61403e-16 0.707107 -0.707107
    outer loop
      vertex 41.1677 3.72385 0.471157
      vertex 41.4907 4.4268 1.17411
      vertex 44.5973 2.15269 -1.1
    endloop
  endfacet
  facet normal -2.71114e-16 0.707107 -0.707107
    outer loop
      vertex 45.7726 3.39411 0.141421
      vertex 45.7726 3.02455 -0.228143
      vertex 44.5973 2.15269 -1.1
    endloop
  endfacet
  facet normal -1.92629e-16 0.707107 -0.707107
    outer loop
      vertex 41.6 5.16188 1.90919
      vertex 45.7726 3.39411 0.141421
      vertex 41.4907 4.4268 1.17411
    endloop
  endfacet
  facet normal 0 0.707107 -0.707107
    outer loop
      vertex 41.6 5.16188 1.90919
      vertex 41.6 12.8835 9.63079
      vertex 43.5 12.8835 9.63079
    endloop
  endfacet
  facet normal 0 0.707107 -0.707107
    outer loop
      vertex 41.6 5.16188 1.90919
      vertex 43.5 12.8835 9.63079
      vertex 45.8 12.8835 9.63079
    endloop
  endfacet
  facet normal -3.16839e-17 0.707107 -0.707107
    outer loop
      vertex 41.6 5.16188 1.90919
      vertex 45.8 12.8835 9.63079
      vertex 45.7726 3.39411 0.141421
    endloop
  endfacet
  facet normal 0 0.707107 -0.707107
    outer loop
      vertex 45.8 12.8835 9.63079
      vertex 45.8 3.39411 0.141421
      vertex 45.7726 3.39411 0.141421
    endloop
  endfacet
  facet normal -4.80937e-17 0.707107 -0.707107
    outer loop
      vertex 41.4907 4.4268 1.17411
      vertex 45.7726 3.39411 0.141421
      vertex 44.5973 2.15269 -1.1
    endloop
  endfacet
  facet normal 8.91791e-17 0.707107 -0.707107
    outer loop
      vertex 44.5973 2.15269 -1.1
      vertex 45.7726 3.02455 -0.228143
      vertex 45.5553 2.30157 -0.951119
    endloop
  endfacet
  facet normal 3.36327e-17 0.707107 -0.707107
    outer loop
      vertex 44.5973 2.15269 -1.1
      vertex 45.5553 2.30157 -0.951119
      vertex 45.1301 1.62635 -1.62635
    endloop
  endfacet
  facet normal 3.07854e-16 0.707107 -0.707107
    outer loop
      vertex 45.1301 1.62635 -1.62635
      vertex 44.5553 1.95492 -1.29778
      vertex 44.5973 2.15269 -1.1
    endloop
  endfacet
  facet normal 6.1275e-16 0.707107 -0.707107
    outer loop
      vertex 43.9257 0.652691 -2.6
      vertex 44.1301 1 -2.25269
      vertex 44.5157 1.02838 -2.22431
    endloop
  endfacet
  facet normal 0 0.707107 -0.707107
    outer loop
      vertex 43.9257 0.652691 -2.6
      vertex 43.8778 0.652691 -2.6
      vertex 44.1301 1 -2.25269
    endloop
  endfacet
  facet normal 6.19952e-16 0.707107 -0.707107
    outer loop
      vertex 44.5157 1.02838 -2.22431
      vertex 44.1301 1 -2.25269
      vertex 44.5553 1.95492 -1.29778
    endloop
  endfacet
  facet normal 0 0.707107 -0.707107
    outer loop
      vertex 44.5157 1.02838 -2.22431
      vertex 44.5553 1.95492 -1.29778
      vertex 45.1301 1.62635 -1.62635
    endloop
  endfacet
  facet normal -2.60255e-17 0.707107 -0.707107
    outer loop
      vertex 40.6451 3.08374 -0.168946
      vertex 41.1677 3.72385 0.471157
      vertex 44.5973 2.15269 -1.1
    endloop
  endfacet
  facet normal -1.3909e-17 0.707107 -0.707107
    outer loop
      vertex 39.9457 2.53447 -0.718225
      vertex 40.6451 3.08374 -0.168946
      vertex 44.5973 2.15269 -1.1
    endloop
  endfacet
  facet normal 0 0.707107 -0.707107
    outer loop
      vertex 39.2025 2.15269 -1.1
      vertex 39.9457 2.53447 -0.718225
      vertex 44.5973 2.15269 -1.1
    endloop
  endfacet
  facet normal 0 0.707107 0.707107
    outer loop
      vertex 43.5 3.16077 6.24375
      vertex 41.6 3.16077 6.24375
      vertex 41.6 1.53442 7.8701
    endloop
  endfacet
  facet normal 0 0.707107 0.707107
    outer loop
      vertex 43.5 3.16077 6.24375
      vertex 45.8 4.70226 4.70226
      vertex 43.5 4.70226 4.70226
    endloop
  endfacet
  facet normal 8.61974e-17 0.707107 0.707107
    outer loop
      vertex 45.8 4.70226 4.70226
      vertex 43.5 3.16077 6.24375
      vertex 45.8 1.53442 7.8701
    endloop
  endfacet
  facet normal 0 0.707107 0.707107
    outer loop
      vertex 45.8 1.53442 7.8701
      vertex 43.5 3.16077 6.24375
      vertex 41.6 1.53442 7.8701
    endloop
  endfacet
  facet normal 0 0.707107 0.707107
    outer loop
      vertex 0 3.16077 6.24375
      vertex 0 4.70226 4.70226
      vertex -2.3 4.70226 4.70226
    endloop
  endfacet
  facet normal 0 0.707107 0.707107
    outer loop
      vertex 2.3 1.53442 7.8701
      vertex 0 3.16077 6.24375
      vertex -2.3 1.53442 7.8701
    endloop
  endfacet
  facet normal 0 0.707107 0.707107
    outer loop
      vertex 2.3 3.16077 6.24375
      vertex 0 3.16077 6.24375
      vertex 2.3 1.53442 7.8701
    endloop
  endfacet
  facet normal -1.29296e-16 0.707107 0.707107
    outer loop
      vertex 0 3.16077 6.24375
      vertex -2.3 4.70226 4.70226
      vertex -2.3 1.53442 7.8701
    endloop
  endfacet
  facet normal -2.76724e-16 -0.707107 0.707107
    outer loop
      vertex -2.06773 -2.8381 3.49757
      vertex 2.40926 -0.367383 5.96829
      vertex -2.3 -2.33262 4.00306
    endloop
  endfacet
  facet normal -7.5539e-17 -0.707107 0.707107
    outer loop
      vertex -1.54508 -3.47821 2.85747
      vertex 2.40926 -0.367383 5.96829
      vertex -2.06773 -2.8381 3.49757
    endloop
  endfacet
  facet normal 0 -0.707107 0.707107
    outer loop
      vertex -0.845653 -4.02749 2.30819
      vertex 2.73227 -1.07034 5.26534
      vertex -1.54508 -3.47821 2.85747
    endloop
  endfacet
  facet normal 1.16156e-16 -0.707107 0.707107
    outer loop
      vertex -2.22045e-15 -4.46193 1.87374
      vertex 2.73227 -1.07034 5.26534
      vertex -0.845653 -4.02749 2.30819
    endloop
  endfacet
  facet normal -1.54685e-16 -0.707107 0.707107
    outer loop
      vertex 0.954915 -4.76256 1.57311
      vertex 2.73227 -1.07034 5.26534
      vertex -2.22045e-15 -4.46193 1.87374
    endloop
  endfacet
  facet normal 0 -0.707107 0.707107
    outer loop
      vertex 45.7726 -1.40007 4.93561
      vertex 45.8 1.53442 7.8701
      vertex 41.6 0.367696 6.70337
    endloop
  endfacet
  facet normal 3.27274e-16 -0.707107 0.707107
    outer loop
      vertex 43.7389 -4.26038 2.0753
      vertex 41.1677 -1.07034 5.26534
      vertex 42.8337 -4.62994 1.70573
    endloop
  endfacet
  facet normal -2.09364e-16 -0.707107 0.707107
    outer loop
      vertex 44.5157 -3.76581 2.56987
      vertex 41.1677 -1.07034 5.26534
      vertex 43.7389 -4.26038 2.0753
    endloop
  endfacet
  facet normal -1.71684e-16 -0.707107 0.707107
    outer loop
      vertex 45.1301 -3.16784 3.16784
      vertex 41.1677 -1.07034 5.26534
      vertex 44.5157 -3.76581 2.56987
    endloop
  endfacet
  facet normal 0 -0.707107 0.707107
    outer loop
      vertex 45.5553 -2.49261 3.84307
      vertex 41.4907 -0.367383 5.96829
      vertex 45.1301 -3.16784 3.16784
    endloop
  endfacet
  facet normal 5.37595e-15 -0.707107 0.707107
    outer loop
      vertex 45.7726 -1.76964 4.56604
      vertex 45.7726 -1.40007 4.93561
      vertex 45.5553 -2.49261 3.84307
    endloop
  endfacet
  facet normal -6.40521e-17 -0.707107 0.707107
    outer loop
      vertex 41.4907 -0.367383 5.96829
      vertex 45.5553 -2.49261 3.84307
      vertex 45.7726 -1.40007 4.93561
    endloop
  endfacet
  facet normal 0 -0.707107 0.707107
    outer loop
      vertex 45.8 -1.40007 4.93561
      vertex 45.8 1.53442 7.8701
      vertex 45.7726 -1.40007 4.93561
    endloop
  endfacet
  facet normal 0 -0.707107 0.707107
    outer loop
      vertex 45.8 1.53442 7.8701
      vertex 41.6 1.53442 7.8701
      vertex 41.6 0.367696 6.70337
    endloop
  endfacet
  facet normal -1.60443e-16 -0.707107 0.707107
    outer loop
      vertex 42.8337 -4.62994 1.70573
      vertex 40.6451 -1.71044 4.62524
      vertex 42.1188 -4.79418 1.54149
    endloop
  endfacet
  facet normal -1.92629e-16 -0.707107 0.707107
    outer loop
      vertex 41.6 0.367696 6.70337
      vertex 41.4907 -0.367383 5.96829
      vertex 45.7726 -1.40007 4.93561
    endloop
  endfacet
  facet normal -2.72043e-16 -0.707107 0.707107
    outer loop
      vertex 41.4907 -0.367383 5.96829
      vertex 41.1677 -1.07034 5.26534
      vertex 45.1301 -3.16784 3.16784
    endloop
  endfacet
  facet normal 0 -0.707107 0.707107
    outer loop
      vertex 41.1677 -1.07034 5.26534
      vertex 40.6451 -1.71044 4.62524
      vertex 42.8337 -4.62994 1.70573
    endloop
  endfacet
  facet normal 3.17579e-16 -0.707107 0.707107
    outer loop
      vertex 40.6451 -1.71044 4.62524
      vertex 39.9457 -2.25972 4.07596
      vertex 42.1188 -4.79418 1.54149
    endloop
  endfacet
  facet normal 1.01709e-16 -0.707107 0.707107
    outer loop
      vertex 39.9457 -2.25972 4.07596
      vertex 39.1 -2.69417 3.64151
      vertex 42.1188 -4.79418 1.54149
    endloop
  endfacet
  facet normal 8.08524e-17 -0.707107 0.707107
    outer loop
      vertex 39.1 -2.69417 3.64151
      vertex 38.1451 -2.9948 3.34088
      vertex 42.1188 -4.79418 1.54149
    endloop
  endfacet
  facet normal 2.08521e-15 -0.707107 0.707107
    outer loop
      vertex 0.954915 -4.76256 1.57311
      vertex 1.16529 -4.79418 1.54149
      vertex 2.73227 -1.07034 5.26534
    endloop
  endfacet
  facet normal 3.20371e-17 -0.707107 0.707107
    outer loop
      vertex 38.1451 -2.9948 3.34088
      vertex 37.1226 -3.14847 3.18721
      vertex 42.1188 -4.79418 1.54149
    endloop
  endfacet
  facet normal 0 -0.707107 0.707107
    outer loop
      vertex 7.3 -3.16784 3.16784
      vertex 42.1188 -4.79418 1.54149
      vertex 36.2 -3.16784 3.16784
    endloop
  endfacet
  facet normal 6.07557e-18 -0.707107 0.707107
    outer loop
      vertex 36.2 -3.16784 3.16784
      vertex 42.1188 -4.79418 1.54149
      vertex 37.1226 -3.14847 3.18721
    endloop
  endfacet
  facet normal 0 -0.707107 0.707107
    outer loop
      vertex 36.2 -3.14847 3.18721
      vertex 36.2 -3.16784 3.16784
      vertex 37.1226 -3.14847 3.18721
    endloop
  endfacet
  facet normal 0 -0.707107 0.707107
    outer loop
      vertex 7.3 -3.16784 3.16784
      vertex 1.16529 -4.79418 1.54149
      vertex 42.1188 -4.79418 1.54149
    endloop
  endfacet
  facet normal 0 -0.707107 0.707107
    outer loop
      vertex 1.16529 -4.79418 1.54149
      vertex 7.3 -3.16784 3.16784
      vertex 6.77736 -3.14847 3.18721
    endloop
  endfacet
  facet normal 0 -0.707107 0.707107
    outer loop
      vertex 6.77736 -3.14847 3.18721
      vertex 7.3 -3.16784 3.16784
      vertex 7.3 -3.14847 3.18721
    endloop
  endfacet
  facet normal -3.08457e-17 -0.707107 0.707107
    outer loop
      vertex 5.75492 -2.9948 3.34088
      vertex 1.16529 -4.79418 1.54149
      vertex 6.77736 -3.14847 3.18721
    endloop
  endfacet
  facet normal -2.53401e-17 -0.707107 0.707107
    outer loop
      vertex 4.8 -2.69417 3.64151
      vertex 1.16529 -4.79418 1.54149
      vertex 5.75492 -2.9948 3.34088
    endloop
  endfacet
  facet normal -4.67989e-17 -0.707107 0.707107
    outer loop
      vertex 4.8 -2.69417 3.64151
      vertex 3.95435 -2.25972 4.07596
      vertex 1.16529 -4.79418 1.54149
    endloop
  endfacet
  facet normal 0 -0.707107 0.707107
    outer loop
      vertex 2.3 1.53442 7.8701
      vertex -2.3 1.53442 7.8701
      vertex 2.3 0.367696 6.70337
    endloop
  endfacet
  facet normal -2.37558e-16 -0.707107 0.707107
    outer loop
      vertex 3.25492 -1.71044 4.62524
      vertex 1.16529 -4.79418 1.54149
      vertex 3.95435 -2.25972 4.07596
    endloop
  endfacet
  facet normal 1.06473e-16 -0.707107 0.707107
    outer loop
      vertex 2.73227 -1.07034 5.26534
      vertex 1.16529 -4.79418 1.54149
      vertex 3.25492 -1.71044 4.62524
    endloop
  endfacet
  facet normal 1.65948e-16 -0.707107 0.707107
    outer loop
      vertex 2.40926 -0.367383 5.96829
      vertex -1.54508 -3.47821 2.85747
      vertex 2.73227 -1.07034 5.26534
    endloop
  endfacet
  facet normal 4.27073e-17 -0.707107 0.707107
    outer loop
      vertex 2.3 0.367696 6.70337
      vertex -2.3 -2.33262 4.00306
      vertex 2.40926 -0.367383 5.96829
    endloop
  endfacet
  facet normal -7.0612e-17 -0.707107 0.707107
    outer loop
      vertex 2.3 0.367696 6.70337
      vertex -2.3 1.53442 7.8701
      vertex -2.3 -2.33262 4.00306
    endloop
  endfacet
  facet normal 1 0 0
    outer loop
      vertex 45.8 4.70226 4.70226
      vertex 45.8 1.53442 7.8701
      vertex 45.8 -1.40007 4.93561
    endloop
  endfacet
  facet normal 1 0 0
    outer loop
      vertex 45.8 3.39411 0.141421
      vertex 45.8 12.8835 9.63079
      vertex 45.8 4.70226 4.70226
    endloop
  endfacet
  facet normal 1 0 0
    outer loop
      vertex 45.8 12.8835 9.63079
      vertex 45.8 11.2571 11.2571
      vertex 45.8 4.70226 4.70226
    endloop
  endfacet
  facet normal 1 0 -0
    outer loop
      vertex 45.8 3.39411 0.141421
      vertex 45.8 4.70226 4.70226
      vertex 45.8 -1.40007 4.93561
    endloop
  endfacet
  facet normal -0 0.707107 0.707107
    outer loop
      vertex -2.3 11.2571 11.2571
      vertex 0 11.2571 11.2571
      vertex -2.3 12.8835 9.63079
    endloop
  endfacet
  facet normal -0 0.707107 0.707107
    outer loop
      vertex -2.3 12.8835 9.63079
      vertex 0 11.2571 11.2571
      vertex 2.3 12.8835 9.63079
    endloop
  endfacet
  facet normal -0 0.707107 0.707107
    outer loop
      vertex 0 11.2571 11.2571
      vertex 2.3 11.2571 11.2571
      vertex 2.3 12.8835 9.63079
    endloop
  endfacet
  facet normal -0 0.707107 0.707107
    outer loop
      vertex 43.5 11.2571 11.2571
      vertex 45.8 11.2571 11.2571
      vertex 43.5 12.8835 9.63079
    endloop
  endfacet
  facet normal -0 0.707107 0.707107
    outer loop
      vertex 43.5 12.8835 9.63079
      vertex 45.8 11.2571 11.2571
      vertex 45.8 12.8835 9.63079
    endloop
  endfacet
  facet normal -0 0.707107 0.707107
    outer loop
      vertex 41.6 11.2571 11.2571
      vertex 43.5 11.2571 11.2571
      vertex 41.6 12.8835 9.63079
    endloop
  endfacet
  facet normal -0 0.707107 0.707107
    outer loop
      vertex 41.6 12.8835 9.63079
      vertex 43.5 11.2571 11.2571
      vertex 43.5 12.8835 9.63079
    endloop
  endfacet
  facet normal 0 -0.707107 0.707107
    outer loop
      vertex 45.8 4.70226 4.70226
      vertex 43.5 11.2571 11.2571
      vertex 43.5 4.70226 4.70226
    endloop
  endfacet
  facet normal 0 -0.707107 0.707107
    outer loop
      vertex 45.8 4.70226 4.70226
      vertex 45.8 11.2571 11.2571
      vertex 43.5 11.2571 11.2571
    endloop
  endfacet
  facet normal 0 -0.707107 0.707107
    outer loop
      vertex 0 4.70226 4.70226
      vertex -2.3 11.2571 11.2571
      vertex -2.3 4.70226 4.70226
    endloop
  endfacet
  facet normal 0 -0.707107 0.707107
    outer loop
      vertex 0 4.70226 4.70226
      vertex 0 11.2571 11.2571
      vertex -2.3 11.2571 11.2571
    endloop
  endfacet
  facet normal 0 -0.707107 0.707107
    outer loop
      vertex 7.3 0 0
      vertex 6.77736 0.019368 0.019368
      vertex 0 0 0
    endloop
  endfacet
  facet normal 0 -0.707107 0.707107
    outer loop
      vertex 7.3 0.019368 0.019368
      vertex 6.77736 0.019368 0.019368
      vertex 7.3 0 0
    endloop
  endfacet
  facet normal 0 -0.707107 0.707107
    outer loop
      vertex 6.77736 0.019368 0.019368
      vertex 5.75492 0.173041 0.173041
      vertex 0 0 0
    endloop
  endfacet
  facet normal 0 -0.707107 0.707107
    outer loop
      vertex 5.75492 0.173041 0.173041
      vertex 4.8 0.473672 0.473672
      vertex 0 0 0
    endloop
  endfacet
  facet normal 0 -0.707107 0.707107
    outer loop
      vertex 4.8 0.473672 0.473672
      vertex 3.95435 0.90812 0.90812
      vertex 0 0 0
    endloop
  endfacet
  facet normal 1.39827e-17 -0.707107 0.707107
    outer loop
      vertex 3.95435 0.90812 0.90812
      vertex 3.25492 1.4574 1.4574
      vertex 0 0 0
    endloop
  endfacet
  facet normal 0 -0.707107 0.707107
    outer loop
      vertex 2.40926 2.80046 2.80046
      vertex 0 4.70226 4.70226
      vertex 0 0 0
    endloop
  endfacet
  facet normal 5.51843e-17 -0.707107 0.707107
    outer loop
      vertex 2.73227 2.0975 2.0975
      vertex 0 0 0
      vertex 3.25492 1.4574 1.4574
    endloop
  endfacet
  facet normal -6.04306e-17 -0.707107 0.707107
    outer loop
      vertex 2.40926 2.80046 2.80046
      vertex 0 0 0
      vertex 2.73227 2.0975 2.0975
    endloop
  endfacet
  facet normal 1.50661e-16 -0.707107 0.707107
    outer loop
      vertex 2.3 3.53553 3.53553
      vertex 0 4.70226 4.70226
      vertex 2.40926 2.80046 2.80046
    endloop
  endfacet
  facet normal 0 -0.707107 0.707107
    outer loop
      vertex 2.3 11.2571 11.2571
      vertex 0 11.2571 11.2571
      vertex 0 4.70226 4.70226
    endloop
  endfacet
  facet normal 7.07261e-17 -0.707107 0.707107
    outer loop
      vertex 0 4.70226 4.70226
      vertex 2.3 3.53553 3.53553
      vertex 2.3 11.2571 11.2571
    endloop
  endfacet
  facet normal -8.56158e-17 -0.707107 0.707107
    outer loop
      vertex 43.5 4.70226 4.70226
      vertex 41.6 11.2571 11.2571
      vertex 41.6 3.53553 3.53553
    endloop
  endfacet
  facet normal 0 -0.707107 0.707107
    outer loop
      vertex 43.5 11.2571 11.2571
      vertex 41.6 11.2571 11.2571
      vertex 43.5 4.70226 4.70226
    endloop
  endfacet
  facet normal 0 -0.707107 0.707107
    outer loop
      vertex 43.5 4.70226 4.70226
      vertex 41.4907 2.80046 2.80046
      vertex 43.5 0 0
    endloop
  endfacet
  facet normal -2.4742e-16 -0.707107 0.707107
    outer loop
      vertex 43.5 4.70226 4.70226
      vertex 41.6 3.53553 3.53553
      vertex 41.4907 2.80046 2.80046
    endloop
  endfacet
  facet normal 0 -0.707107 0.707107
    outer loop
      vertex 43.5 0 0
      vertex 41.4907 2.80046 2.80046
      vertex 41.1677 2.0975 2.0975
    endloop
  endfacet
  facet normal -1.21283e-16 -0.707107 0.707107
    outer loop
      vertex 43.5 0 0
      vertex 41.1677 2.0975 2.0975
      vertex 40.6451 1.4574 1.4574
    endloop
  endfacet
  facet normal 0 -0.707107 0.707107
    outer loop
      vertex 43.5 0 0
      vertex 40.6451 1.4574 1.4574
      vertex 39.9457 0.90812 0.90812
    endloop
  endfacet
  facet normal 0 -0.707107 0.707107
    outer loop
      vertex 43.5 0 0
      vertex 39.9457 0.90812 0.90812
      vertex 39.1 0.473672 0.473672
    endloop
  endfacet
  facet normal 5.52821e-18 -0.707107 0.707107
    outer loop
      vertex 43.5 0 0
      vertex 39.1 0.473672 0.473672
      vertex 38.1451 0.173041 0.173041
    endloop
  endfacet
  facet normal 0 -0.707107 0.707107
    outer loop
      vertex 43.5 0 0
      vertex 38.1451 0.173041 0.173041
      vertex 37.1226 0.019368 0.019368
    endloop
  endfacet
  facet normal 0 -0.707107 0.707107
    outer loop
      vertex 43.5 0 0
      vertex 37.1226 0.019368 0.019368
      vertex 36.2 0 0
    endloop
  endfacet
  facet normal 0 -0.707107 0.707107
    outer loop
      vertex 37.1226 0.019368 0.019368
      vertex 36.2 0.019368 0.019368
      vertex 36.2 0 0
    endloop
  endfacet
  facet normal -0.587785 -0.572061 -0.572061
    outer loop
      vertex -0.845653 -4.02749 2.30819
      vertex -2.22045e-15 0.0118095 -2.6
      vertex -2.22045e-15 -4.46193 1.87374
    endloop
  endfacet
  facet normal -0.587785 -0.572061 -0.572061
    outer loop
      vertex -0.845653 -4.02749 2.30819
      vertex -0.845653 0.766699 -2.48599
      vertex -2.22045e-15 0.0118095 -2.6
    endloop
  endfacet
  facet normal -0.587785 -0.572061 -0.572061
    outer loop
      vertex -0.845653 0.766699 -2.48599
      vertex -0.623737 0.652691 -2.6
      vertex -2.22045e-15 0.0118095 -2.6
    endloop
  endfacet
  facet normal -0.743145 -0.473147 -0.473147
    outer loop
      vertex -1.54508 -3.47821 2.85747
      vertex -0.845653 0.766699 -2.48599
      vertex -0.845653 -4.02749 2.30819
    endloop
  endfacet
  facet normal -0.743145 -0.473147 -0.473147
    outer loop
      vertex -1.54508 -3.47821 2.85747
      vertex -1.54508 1.31598 -1.93671
      vertex -0.845653 0.766699 -2.48599
    endloop
  endfacet
  facet normal -0.866025 -0.353553 -0.353553
    outer loop
      vertex -2.06773 -2.8381 3.49757
      vertex -1.54508 1.31598 -1.93671
      vertex -1.54508 -3.47821 2.85747
    endloop
  endfacet
  facet normal -0.866025 -0.353553 -0.353553
    outer loop
      vertex -2.06773 -2.8381 3.49757
      vertex -2.06773 1.95608 -1.29661
      vertex -1.54508 1.31598 -1.93671
    endloop
  endfacet
  facet normal -0.951057 -0.218508 -0.218508
    outer loop
      vertex -2.3 -2.33262 4.00306
      vertex -2.06773 1.95608 -1.29661
      vertex -2.06773 -2.8381 3.49757
    endloop
  endfacet
  facet normal -0.951057 -0.218508 -0.218508
    outer loop
      vertex -2.3 -2.33262 4.00306
      vertex -2.3 2.46157 -0.791126
      vertex -2.06773 1.95608 -1.29661
    endloop
  endfacet
  facet normal -0.207912 -0.691655 -0.691655
    outer loop
      vertex 0.954915 -4.76256 1.57311
      vertex 1.16529 -0.652691 -2.6
      vertex 1.16529 -4.79418 1.54149
    endloop
  endfacet
  facet normal -0.207912 -0.691655 -0.691655
    outer loop
      vertex 0.954915 -4.76256 1.57311
      vertex 0.954915 -0.589451 -2.6
      vertex 1.16529 -0.652691 -2.6
    endloop
  endfacet
  facet normal -0.406737 -0.645974 -0.645974
    outer loop
      vertex -2.22045e-15 -4.46193 1.87374
      vertex 0.954915 -0.589451 -2.6
      vertex 0.954915 -4.76256 1.57311
    endloop
  endfacet
  facet normal -0.406737 -0.645974 -0.645974
    outer loop
      vertex -2.22045e-15 -4.46193 1.87374
      vertex -2.22045e-15 0.0118095 -2.6
      vertex 0.954915 -0.589451 -2.6
    endloop
  endfacet
  facet normal 1 -0 0
    outer loop
      vertex 2.3 3.53553 3.53553
      vertex 2.3 5.16188 1.90919
      vertex 2.3 12.8835 9.63079
    endloop
  endfacet
  facet normal 1 0 0
    outer loop
      vertex 2.3 11.2571 11.2571
      vertex 2.3 3.53553 3.53553
      vertex 2.3 12.8835 9.63079
    endloop
  endfacet
  facet normal 1 0 0
    outer loop
      vertex 2.3 0.367696 6.70337
      vertex 2.3 1.99404 5.07703
      vertex 2.3 3.16077 6.24375
    endloop
  endfacet
  facet normal 1 0 0
    outer loop
      vertex 2.3 1.53442 7.8701
      vertex 2.3 0.367696 6.70337
      vertex 2.3 3.16077 6.24375
    endloop
  endfacet
  facet normal -1 -0 0
    outer loop
      vertex 41.6 3.16077 6.24375
      vertex 41.6 1.99404 5.07703
      vertex 41.6 1.53442 7.8701
    endloop
  endfacet
  facet normal -1 0 -0
    outer loop
      vertex 41.6 1.53442 7.8701
      vertex 41.6 1.99404 5.07703
      vertex 41.6 0.367696 6.70337
    endloop
  endfacet
  facet normal -1 -0 0
    outer loop
      vertex 41.6 12.8835 9.63079
      vertex 41.6 5.16188 1.90919
      vertex 41.6 11.2571 11.2571
    endloop
  endfacet
  facet normal -1 0 0
    outer loop
      vertex 41.6 11.2571 11.2571
      vertex 41.6 5.16188 1.90919
      vertex 41.6 3.53553 3.53553
    endloop
  endfacet
  facet normal 1 0 0
    outer loop
      vertex 7.3 0.019368 0.019368
      vertex 7.3 1.1 -1.1
      vertex 7.3 1.13874 -1.1
    endloop
  endfacet
  facet normal 1 0 0
    outer loop
      vertex 7.3 0.019368 0.019368
      vertex 7.3 0 0
      vertex 7.3 1.1 -1.1
    endloop
  endfacet
  facet normal 1 0 0
    outer loop
      vertex 7.3 -3.16784 3.16784
      vertex 7.3 -1.54149 1.54149
      vertex 7.3 -1.52212 1.56086
    endloop
  endfacet
  facet normal 1 0 0
    outer loop
      vertex 7.3 -3.14847 3.18721
      vertex 7.3 -3.16784 3.16784
      vertex 7.3 -1.52212 1.56086
    endloop
  endfacet
  facet normal 0 0.707107 0.707107
    outer loop
      vertex 36.2 -3.16784 3.16784
      vertex 7.3 -1.54149 1.54149
      vertex 7.3 -3.16784 3.16784
    endloop
  endfacet
  facet normal 0 0.707107 0.707107
    outer loop
      vertex 36.2 -3.16784 3.16784
      vertex 36.2 -1.54149 1.54149
      vertex 7.3 -1.54149 1.54149
    endloop
  endfacet
  facet normal 0 0.707107 0.707107
    outer loop
      vertex 43.5 -1.54149 1.54149
      vertex 36.2 0 0
      vertex 36.2 -1.54149 1.54149
    endloop
  endfacet
  facet normal 0 0.707107 0.707107
    outer loop
      vertex 7.3 0 0
      vertex 7.3 -1.54149 1.54149
      vertex 36.2 -1.54149 1.54149
    endloop
  endfacet
  facet normal 0 0.707107 0.707107
    outer loop
      vertex 43.5 0 0
      vertex 36.2 0 0
      vertex 43.5 -1.54149 1.54149
    endloop
  endfacet
  facet normal 0 0.707107 0.707107
    outer loop
      vertex 36.2 1.1 -1.1
      vertex 7.3 1.1 -1.1
      vertex 36.2 0 0
    endloop
  endfacet
  facet normal 0 0.707107 0.707107
    outer loop
      vertex 7.3 1.1 -1.1
      vertex 7.3 0 0
      vertex 36.2 0 0
    endloop
  endfacet
  facet normal -0 0.707107 0.707107
    outer loop
      vertex 7.3 0 0
      vertex 36.2 -1.54149 1.54149
      vertex 36.2 0 0
    endloop
  endfacet
  facet normal -0 0.707107 0.707107
    outer loop
      vertex 0 0 0
      vertex 7.3 -1.54149 1.54149
      vertex 7.3 0 0
    endloop
  endfacet
  facet normal -0 0.707107 0.707107
    outer loop
      vertex 0 -1.54149 1.54149
      vertex 7.3 -1.54149 1.54149
      vertex 0 0 0
    endloop
  endfacet
  facet normal -1 0 0
    outer loop
      vertex 36.2 1.13874 -1.1
      vertex 36.2 1.1 -1.1
      vertex 36.2 0.019368 0.019368
    endloop
  endfacet
  facet normal -1 0 -0
    outer loop
      vertex 36.2 0.019368 0.019368
      vertex 36.2 1.1 -1.1
      vertex 36.2 0 0
    endloop
  endfacet
  facet normal -1 -0 0
    outer loop
      vertex 36.2 -1.52212 1.56086
      vertex 36.2 -1.54149 1.54149
      vertex 36.2 -3.14847 3.18721
    endloop
  endfacet
  facet normal -1 0 -0
    outer loop
      vertex 36.2 -3.14847 3.18721
      vertex 36.2 -1.54149 1.54149
      vertex 36.2 -3.16784 3.16784
    endloop
  endfacet
  facet normal 0.994522 0.0739128 0.0739128
    outer loop
      vertex 2.3 5.16188 1.90919
      vertex 2.40926 2.80046 2.80046
      vertex 2.40926 4.4268 1.17411
    endloop
  endfacet
  facet normal 0.994522 0.0739128 0.0739128
    outer loop
      vertex 2.3 5.16188 1.90919
      vertex 2.3 3.53553 3.53553
      vertex 2.40926 2.80046 2.80046
    endloop
  endfacet
  facet normal 0.994522 0.0739128 0.0739128
    outer loop
      vertex 2.3 1.99404 5.07703
      vertex 2.40926 -0.367383 5.96829
      vertex 2.40926 1.25896 4.34195
    endloop
  endfacet
  facet normal 0.994522 0.0739128 0.0739128
    outer loop
      vertex 2.3 1.99404 5.07703
      vertex 2.3 0.367696 6.70337
      vertex 2.40926 -0.367383 5.96829
    endloop
  endfacet
  facet normal 0.951057 0.218508 0.218508
    outer loop
      vertex 2.40926 4.4268 1.17411
      vertex 2.73227 2.0975 2.0975
      vertex 2.73227 3.72385 0.471157
    endloop
  endfacet
  facet normal 0.951057 0.218508 0.218508
    outer loop
      vertex 2.40926 4.4268 1.17411
      vertex 2.40926 2.80046 2.80046
      vertex 2.73227 2.0975 2.0975
    endloop
  endfacet
  facet normal 0.951057 0.218508 0.218508
    outer loop
      vertex 2.40926 1.25896 4.34195
      vertex 2.73227 -1.07034 5.26534
      vertex 2.73227 0.55601 3.639
    endloop
  endfacet
  facet normal 0.951057 0.218508 0.218508
    outer loop
      vertex 2.40926 1.25896 4.34195
      vertex 2.40926 -0.367383 5.96829
      vertex 2.73227 -1.07034 5.26534
    endloop
  endfacet
  facet normal 0.587785 0.572061 0.572061
    outer loop
      vertex 3.95435 0.90812 0.90812
      vertex 4.8 0.473672 0.473672
      vertex 4.8 2.04734 -1.1
    endloop
  endfacet
  facet normal 0.587785 0.572061 0.572061
    outer loop
      vertex 4.69747 2.15269 -1.1
      vertex 3.95435 2.53447 -0.718225
      vertex 4.8 2.04734 -1.1
    endloop
  endfacet
  facet normal 0.587785 0.572061 0.572061
    outer loop
      vertex 3.95435 2.53447 -0.718225
      vertex 3.95435 0.90812 0.90812
      vertex 4.8 2.04734 -1.1
    endloop
  endfacet
  facet normal 0.587785 0.572061 0.572061
    outer loop
      vertex 3.95435 -0.633373 2.44961
      vertex 4.8 -2.69417 3.64151
      vertex 4.8 -1.06782 2.01516
    endloop
  endfacet
  facet normal 0.587785 0.572061 0.572061
    outer loop
      vertex 3.95435 -0.633373 2.44961
      vertex 3.95435 -2.25972 4.07596
      vertex 4.8 -2.69417 3.64151
    endloop
  endfacet
  facet normal 0.743145 0.473147 0.473147
    outer loop
      vertex 3.25492 3.08374 -0.168946
      vertex 3.95435 0.90812 0.90812
      vertex 3.95435 2.53447 -0.718225
    endloop
  endfacet
  facet normal 0.743145 0.473147 0.473147
    outer loop
      vertex 3.25492 3.08374 -0.168946
      vertex 3.25492 1.4574 1.4574
      vertex 3.95435 0.90812 0.90812
    endloop
  endfacet
  facet normal 0.743145 0.473147 0.473147
    outer loop
      vertex 3.25492 -0.0840936 2.99889
      vertex 3.95435 -2.25972 4.07596
      vertex 3.95435 -0.633373 2.44961
    endloop
  endfacet
  facet normal 0.743145 0.473147 0.473147
    outer loop
      vertex 3.25492 -0.0840936 2.99889
      vertex 3.25492 -1.71044 4.62524
      vertex 3.95435 -2.25972 4.07596
    endloop
  endfacet
  facet normal 0.866025 0.353553 0.353553
    outer loop
      vertex 2.73227 3.72385 0.471157
      vertex 3.25492 1.4574 1.4574
      vertex 3.25492 3.08374 -0.168946
    endloop
  endfacet
  facet normal 0.866025 0.353553 0.353553
    outer loop
      vertex 2.73227 3.72385 0.471157
      vertex 2.73227 2.0975 2.0975
      vertex 3.25492 1.4574 1.4574
    endloop
  endfacet
  facet normal 0.866025 0.353553 0.353553
    outer loop
      vertex 2.73227 0.55601 3.639
      vertex 3.25492 -1.71044 4.62524
      vertex 3.25492 -0.0840936 2.99889
    endloop
  endfacet
  facet normal 0.866025 0.353553 0.353553
    outer loop
      vertex 2.73227 0.55601 3.639
      vertex 2.73227 -1.07034 5.26534
      vertex 3.25492 -1.71044 4.62524
    endloop
  endfacet
  facet normal 0.406737 0.645974 0.645974
    outer loop
      vertex 4.8 0.473672 0.473672
      vertex 5.75492 0.173041 0.173041
      vertex 5.75492 1.44608 -1.1
    endloop
  endfacet
  facet normal 0.406737 0.645974 0.645974
    outer loop
      vertex 4.8 2.04734 -1.1
      vertex 4.8 0.473672 0.473672
      vertex 5.75492 1.44608 -1.1
    endloop
  endfacet
  facet normal 0.406737 0.645974 0.645974
    outer loop
      vertex 4.8 -2.69417 3.64151
      vertex 5.75492 -2.9948 3.34088
      vertex 5.75492 -1.36845 1.71453
    endloop
  endfacet
  facet normal 0.406737 0.645974 0.645974
    outer loop
      vertex 4.8 -1.06782 2.01516
      vertex 4.8 -2.69417 3.64151
      vertex 5.75492 -1.36845 1.71453
    endloop
  endfacet
  facet normal 0.207912 0.691655 0.691655
    outer loop
      vertex 5.75492 0.173041 0.173041
      vertex 6.77736 0.019368 0.019368
      vertex 6.77736 1.13874 -1.1
    endloop
  endfacet
  facet normal 0.207912 0.691655 0.691655
    outer loop
      vertex 5.75492 1.44608 -1.1
      vertex 5.75492 0.173041 0.173041
      vertex 6.77736 1.13874 -1.1
    endloop
  endfacet
  facet normal 0.207912 0.691655 0.691655
    outer loop
      vertex 5.75492 -2.9948 3.34088
      vertex 6.77736 -3.14847 3.18721
      vertex 6.77736 -1.52212 1.56086
    endloop
  endfacet
  facet normal 0.207912 0.691655 0.691655
    outer loop
      vertex 5.75492 -1.36845 1.71453
      vertex 5.75492 -2.9948 3.34088
      vertex 6.77736 -1.52212 1.56086
    endloop
  endfacet
  facet normal -0 0.707107 0.707107
    outer loop
      vertex 6.77736 1.13874 -1.1
      vertex 7.3 0.019368 0.019368
      vertex 7.3 1.13874 -1.1
    endloop
  endfacet
  facet normal 0 0.707107 0.707107
    outer loop
      vertex 6.77736 1.13874 -1.1
      vertex 6.77736 0.019368 0.019368
      vertex 7.3 0.019368 0.019368
    endloop
  endfacet
  facet normal -0 0.707107 0.707107
    outer loop
      vertex 6.77736 -1.52212 1.56086
      vertex 7.3 -3.14847 3.18721
      vertex 7.3 -1.52212 1.56086
    endloop
  endfacet
  facet normal 0 0.707107 0.707107
    outer loop
      vertex 6.77736 -1.52212 1.56086
      vertex 6.77736 -3.14847 3.18721
      vertex 7.3 -3.14847 3.18721
    endloop
  endfacet
  facet normal -0.207912 0.691655 0.691655
    outer loop
      vertex 37.1226 1.13874 -1.1
      vertex 38.1451 0.173041 0.173041
      vertex 38.1451 1.44608 -1.1
    endloop
  endfacet
  facet normal -0.207912 0.691655 0.691655
    outer loop
      vertex 37.1226 1.13874 -1.1
      vertex 37.1226 0.019368 0.019368
      vertex 38.1451 0.173041 0.173041
    endloop
  endfacet
  facet normal -0.207912 0.691655 0.691655
    outer loop
      vertex 37.1226 -1.52212 1.56086
      vertex 38.1451 -2.9948 3.34088
      vertex 38.1451 -1.36845 1.71453
    endloop
  endfacet
  facet normal -0.207912 0.691655 0.691655
    outer loop
      vertex 37.1226 -1.52212 1.56086
      vertex 37.1226 -3.14847 3.18721
      vertex 38.1451 -2.9948 3.34088
    endloop
  endfacet
  facet normal -0.587785 0.572061 0.572061
    outer loop
      vertex 39.9457 2.53447 -0.718225
      vertex 39.1 2.04734 -1.1
      vertex 39.9457 0.90812 0.90812
    endloop
  endfacet
  facet normal -0.587785 0.572061 0.572061
    outer loop
      vertex 39.9457 2.53447 -0.718225
      vertex 39.2025 2.15269 -1.1
      vertex 39.1 2.04734 -1.1
    endloop
  endfacet
  facet normal -0.587785 0.572061 0.572061
    outer loop
      vertex 39.9457 0.90812 0.90812
      vertex 39.1 2.04734 -1.1
      vertex 39.1 0.473672 0.473672
    endloop
  endfacet
  facet normal -0.587785 0.572061 0.572061
    outer loop
      vertex 39.9457 -0.633373 2.44961
      vertex 39.1 -1.06782 2.01516
      vertex 39.9457 -2.25972 4.07596
    endloop
  endfacet
  facet normal -0.587785 0.572061 0.572061
    outer loop
      vertex 39.9457 -2.25972 4.07596
      vertex 39.1 -1.06782 2.01516
      vertex 39.1 -2.69417 3.64151
    endloop
  endfacet
  facet normal -0 0.707107 0.707107
    outer loop
      vertex 36.2 1.13874 -1.1
      vertex 37.1226 0.019368 0.019368
      vertex 37.1226 1.13874 -1.1
    endloop
  endfacet
  facet normal 0 0.707107 0.707107
    outer loop
      vertex 36.2 1.13874 -1.1
      vertex 36.2 0.019368 0.019368
      vertex 37.1226 0.019368 0.019368
    endloop
  endfacet
  facet normal -0 0.707107 0.707107
    outer loop
      vertex 36.2 -1.52212 1.56086
      vertex 37.1226 -3.14847 3.18721
      vertex 37.1226 -1.52212 1.56086
    endloop
  endfacet
  facet normal 0 0.707107 0.707107
    outer loop
      vertex 36.2 -1.52212 1.56086
      vertex 36.2 -3.14847 3.18721
      vertex 37.1226 -3.14847 3.18721
    endloop
  endfacet
  facet normal -0.866025 0.353553 0.353553
    outer loop
      vertex 41.1677 3.72385 0.471157
      vertex 40.6451 3.08374 -0.168946
      vertex 41.1677 2.0975 2.0975
    endloop
  endfacet
  facet normal -0.866025 0.353553 0.353553
    outer loop
      vertex 41.1677 2.0975 2.0975
      vertex 40.6451 3.08374 -0.168946
      vertex 40.6451 1.4574 1.4574
    endloop
  endfacet
  facet normal -0.866025 0.353553 0.353553
    outer loop
      vertex 41.1677 0.55601 3.639
      vertex 40.6451 -0.0840936 2.99889
      vertex 41.1677 -1.07034 5.26534
    endloop
  endfacet
  facet normal -0.866025 0.353553 0.353553
    outer loop
      vertex 41.1677 -1.07034 5.26534
      vertex 40.6451 -0.0840936 2.99889
      vertex 40.6451 -1.71044 4.62524
    endloop
  endfacet
  facet normal -0.406737 0.645974 0.645974
    outer loop
      vertex 38.1451 1.44608 -1.1
      vertex 39.1 0.473672 0.473672
      vertex 39.1 2.04734 -1.1
    endloop
  endfacet
  facet normal -0.406737 0.645974 0.645974
    outer loop
      vertex 38.1451 1.44608 -1.1
      vertex 38.1451 0.173041 0.173041
      vertex 39.1 0.473672 0.473672
    endloop
  endfacet
  facet normal -0.406737 0.645974 0.645974
    outer loop
      vertex 39.1 -1.06782 2.01516
      vertex 38.1451 -1.36845 1.71453
      vertex 39.1 -2.69417 3.64151
    endloop
  endfacet
  facet normal -0.406737 0.645974 0.645974
    outer loop
      vertex 38.1451 -1.36845 1.71453
      vertex 38.1451 -2.9948 3.34088
      vertex 39.1 -2.69417 3.64151
    endloop
  endfacet
  facet normal -0.951057 0.218508 0.218508
    outer loop
      vertex 41.4907 4.4268 1.17411
      vertex 41.1677 3.72385 0.471157
      vertex 41.4907 2.80046 2.80046
    endloop
  endfacet
  facet normal -0.951057 0.218508 0.218508
    outer loop
      vertex 41.4907 2.80046 2.80046
      vertex 41.1677 3.72385 0.471157
      vertex 41.1677 2.0975 2.0975
    endloop
  endfacet
  facet normal -0.951057 0.218508 0.218508
    outer loop
      vertex 41.4907 1.25896 4.34195
      vertex 41.1677 0.55601 3.639
      vertex 41.4907 -0.367383 5.96829
    endloop
  endfacet
  facet normal -0.951057 0.218508 0.218508
    outer loop
      vertex 41.4907 -0.367383 5.96829
      vertex 41.1677 0.55601 3.639
      vertex 41.1677 -1.07034 5.26534
    endloop
  endfacet
  facet normal -0.743145 0.473147 0.473147
    outer loop
      vertex 40.6451 3.08374 -0.168946
      vertex 39.9457 2.53447 -0.718225
      vertex 40.6451 1.4574 1.4574
    endloop
  endfacet
  facet normal -0.743145 0.473147 0.473147
    outer loop
      vertex 40.6451 1.4574 1.4574
      vertex 39.9457 2.53447 -0.718225
      vertex 39.9457 0.90812 0.90812
    endloop
  endfacet
  facet normal -0.743145 0.473147 0.473147
    outer loop
      vertex 40.6451 -0.0840936 2.99889
      vertex 39.9457 -0.633373 2.44961
      vertex 40.6451 -1.71044 4.62524
    endloop
  endfacet
  facet normal -0.743145 0.473147 0.473147
    outer loop
      vertex 40.6451 -1.71044 4.62524
      vertex 39.9457 -0.633373 2.44961
      vertex 39.9457 -2.25972 4.07596
    endloop
  endfacet
  facet normal -0.994522 0.0739128 0.0739128
    outer loop
      vertex 41.6 5.16188 1.90919
      vertex 41.4907 4.4268 1.17411
      vertex 41.6 3.53553 3.53553
    endloop
  endfacet
  facet normal -0.994522 0.0739128 0.0739128
    outer loop
      vertex 41.6 3.53553 3.53553
      vertex 41.4907 4.4268 1.17411
      vertex 41.4907 2.80046 2.80046
    endloop
  endfacet
  facet normal -0.994522 0.0739128 0.0739128
    outer loop
      vertex 41.6 1.99404 5.07703
      vertex 41.4907 1.25896 4.34195
      vertex 41.6 0.367696 6.70337
    endloop
  endfacet
  facet normal -0.994522 0.0739128 0.0739128
    outer loop
      vertex 41.6 0.367696 6.70337
      vertex 41.4907 1.25896 4.34195
      vertex 41.4907 -0.367383 5.96829
    endloop
  endfacet
  facet normal 1 -0 0
    outer loop
      vertex 0 -1.54149 1.54149
      vertex 0 0 0
      vertex 0 4.70226 4.70226
    endloop
  endfacet
  facet normal 1 0 0
    outer loop
      vertex 0 3.16077 6.24375
      vertex 0 -1.54149 1.54149
      vertex 0 4.70226 4.70226
    endloop
  endfacet
  facet normal 0 0.707107 -0.707107
    outer loop
      vertex 2.3 3.16077 6.24375
      vertex 2.3 1.99404 5.07703
      vertex 0 3.16077 6.24375
    endloop
  endfacet
  facet normal -6.02645e-16 0.707107 -0.707107
    outer loop
      vertex 0 3.16077 6.24375
      vertex 2.3 1.99404 5.07703
      vertex 2.40926 1.25896 4.34195
    endloop
  endfacet
  facet normal -1.10873e-16 0.707107 -0.707107
    outer loop
      vertex 0 3.16077 6.24375
      vertex 2.40926 1.25896 4.34195
      vertex 0 -1.54149 1.54149
    endloop
  endfacet
  facet normal -1.20861e-16 0.707107 -0.707107
    outer loop
      vertex 2.73227 0.55601 3.639
      vertex 0 -1.54149 1.54149
      vertex 2.40926 1.25896 4.34195
    endloop
  endfacet
  facet normal 5.51843e-17 0.707107 -0.707107
    outer loop
      vertex 3.25492 -0.0840936 2.99889
      vertex 0 -1.54149 1.54149
      vertex 2.73227 0.55601 3.639
    endloop
  endfacet
  facet normal -9.78788e-17 0.707107 -0.707107
    outer loop
      vertex 3.95435 -0.633373 2.44961
      vertex 0 -1.54149 1.54149
      vertex 3.25492 -0.0840936 2.99889
    endloop
  endfacet
  facet normal 5.52646e-17 0.707107 -0.707107
    outer loop
      vertex 4.8 -1.06782 2.01516
      vertex 0 -1.54149 1.54149
      vertex 3.95435 -0.633373 2.44961
    endloop
  endfacet
  facet normal -1.55324e-17 0.707107 -0.707107
    outer loop
      vertex 5.75492 -1.36845 1.71453
      vertex 0 -1.54149 1.54149
      vertex 4.8 -1.06782 2.01516
    endloop
  endfacet
  facet normal 0 0.707107 -0.707107
    outer loop
      vertex 6.77736 -1.52212 1.56086
      vertex 7.3 -1.52212 1.56086
      vertex 7.3 -1.54149 1.54149
    endloop
  endfacet
  facet normal 0 0.707107 -0.707107
    outer loop
      vertex 6.77736 -1.52212 1.56086
      vertex 7.3 -1.54149 1.54149
      vertex 0 -1.54149 1.54149
    endloop
  endfacet
  facet normal 0 0.707107 -0.707107
    outer loop
      vertex 6.77736 -1.52212 1.56086
      vertex 0 -1.54149 1.54149
      vertex 5.75492 -1.36845 1.71453
    endloop
  endfacet
  facet normal 0 0.707107 -0.707107
    outer loop
      vertex 37.1226 -1.52212 1.56086
      vertex 36.2 -1.54149 1.54149
      vertex 36.2 -1.52212 1.56086
    endloop
  endfacet
  facet normal 0 0.707107 -0.707107
    outer loop
      vertex 37.1226 -1.52212 1.56086
      vertex 38.1451 -1.36845 1.71453
      vertex 43.5 -1.54149 1.54149
    endloop
  endfacet
  facet normal 0 0.707107 -0.707107
    outer loop
      vertex 38.1451 -1.36845 1.71453
      vertex 39.1 -1.06782 2.01516
      vertex 43.5 -1.54149 1.54149
    endloop
  endfacet
  facet normal 0 0.707107 -0.707107
    outer loop
      vertex 39.1 -1.06782 2.01516
      vertex 39.9457 -0.633373 2.44961
      vertex 43.5 -1.54149 1.54149
    endloop
  endfacet
  facet normal 0 0.707107 -0.707107
    outer loop
      vertex 43.5 -1.54149 1.54149
      vertex 41.4907 1.25896 4.34195
      vertex 43.5 3.16077 6.24375
    endloop
  endfacet
  facet normal -9.09622e-17 0.707107 -0.707107
    outer loop
      vertex 40.6451 -0.0840936 2.99889
      vertex 41.1677 0.55601 3.639
      vertex 43.5 -1.54149 1.54149
    endloop
  endfacet
  facet normal -1.35528e-16 0.707107 -0.707107
    outer loop
      vertex 41.1677 0.55601 3.639
      vertex 41.4907 1.25896 4.34195
      vertex 43.5 -1.54149 1.54149
    endloop
  endfacet
  facet normal 0 0.707107 -0.707107
    outer loop
      vertex 43.5 3.16077 6.24375
      vertex 41.6 1.99404 5.07703
      vertex 41.6 3.16077 6.24375
    endloop
  endfacet
  facet normal 4.9484e-16 0.707107 -0.707107
    outer loop
      vertex 41.4907 1.25896 4.34195
      vertex 41.6 1.99404 5.07703
      vertex 43.5 3.16077 6.24375
    endloop
  endfacet
  facet normal 1.2136e-16 0.707107 -0.707107
    outer loop
      vertex 39.9457 -0.633373 2.44961
      vertex 40.6451 -0.0840936 2.99889
      vertex 43.5 -1.54149 1.54149
    endloop
  endfacet
  facet normal 0 0.707107 -0.707107
    outer loop
      vertex 43.5 -1.54149 1.54149
      vertex 36.2 -1.54149 1.54149
      vertex 37.1226 -1.52212 1.56086
    endloop
  endfacet
  facet normal -1 -0 0
    outer loop
      vertex 43.5 4.70226 4.70226
      vertex 43.5 0 0
      vertex 43.5 3.16077 6.24375
    endloop
  endfacet
  facet normal -1 0 0
    outer loop
      vertex 43.5 3.16077 6.24375
      vertex 43.5 0 0
      vertex 43.5 -1.54149 1.54149
    endloop
  endfacet
  facet normal 1 0 0
    outer loop
      vertex 45.7726 3.39411 0.141421
      vertex 45.7726 -1.40007 4.93561
      vertex 45.7726 -1.76964 4.56604
    endloop
  endfacet
  facet normal 1 0 -0
    outer loop
      vertex 45.7726 3.02455 -0.228143
      vertex 45.7726 3.39411 0.141421
      vertex 45.7726 -1.76964 4.56604
    endloop
  endfacet
  facet normal 0.809017 -0.415627 -0.415627
    outer loop
      vertex 45.1301 1.62635 -1.62635
      vertex 45.1301 -3.16784 3.16784
      vertex 44.5157 -3.76581 2.56987
    endloop
  endfacet
  facet normal 0.809017 -0.415627 -0.415627
    outer loop
      vertex 44.5157 1.02838 -2.22431
      vertex 45.1301 1.62635 -1.62635
      vertex 44.5157 -3.76581 2.56987
    endloop
  endfacet
  facet normal 0.669131 -0.525483 -0.525483
    outer loop
      vertex 43.7389 0.41492 -2.6
      vertex 44.5157 -3.76581 2.56987
      vertex 43.7389 -4.26038 2.0753
    endloop
  endfacet
  facet normal 0.669131 -0.525483 -0.525483
    outer loop
      vertex 43.7389 0.41492 -2.6
      vertex 44.5157 1.02838 -2.22431
      vertex 44.5157 -3.76581 2.56987
    endloop
  endfacet
  facet normal 0.669131 -0.525483 -0.525483
    outer loop
      vertex 43.9257 0.652691 -2.6
      vertex 44.5157 1.02838 -2.22431
      vertex 43.7389 0.41492 -2.6
    endloop
  endfacet
  facet normal 0.5 -0.612372 -0.612372
    outer loop
      vertex 42.8337 -4.62994 1.70573
      vertex 42.8337 -0.324208 -2.6
      vertex 43.7389 -4.26038 2.0753
    endloop
  endfacet
  facet normal 0.5 -0.612372 -0.612372
    outer loop
      vertex 43.7389 -4.26038 2.0753
      vertex 42.8337 -0.324208 -2.6
      vertex 43.3443 0 -2.50729
    endloop
  endfacet
  facet normal 0.5 -0.612372 -0.612372
    outer loop
      vertex 42.8337 -0.324208 -2.6
      vertex 43.2308 0 -2.6
      vertex 43.3443 0 -2.50729
    endloop
  endfacet
  facet normal 0.5 -0.612372 -0.612372
    outer loop
      vertex 43.3443 0 -2.50729
      vertex 43.5157 0.154347 -2.52167
      vertex 43.7389 -4.26038 2.0753
    endloop
  endfacet
  facet normal 0.5 -0.612372 -0.612372
    outer loop
      vertex 43.5157 0.154347 -2.52167
      vertex 43.7389 0.41492 -2.6
      vertex 43.7389 -4.26038 2.0753
    endloop
  endfacet
  facet normal 0.5 -0.612372 -0.612372
    outer loop
      vertex 43.6556 0.346906 -2.6
      vertex 43.7389 0.41492 -2.6
      vertex 43.5157 0.154347 -2.52167
    endloop
  endfacet
  facet normal 0.309017 -0.672499 -0.672499
    outer loop
      vertex 42.1188 -4.79418 1.54149
      vertex 42.1188 -0.652691 -2.6
      vertex 42.8337 -4.62994 1.70573
    endloop
  endfacet
  facet normal 0.309017 -0.672499 -0.672499
    outer loop
      vertex 42.8337 -4.62994 1.70573
      vertex 42.1188 -0.652691 -2.6
      vertex 42.8337 -0.324208 -2.6
    endloop
  endfacet
  facet normal 0.978148 -0.147016 -0.147016
    outer loop
      vertex 45.7726 3.02455 -0.228143
      vertex 45.7726 -1.76964 4.56604
      vertex 45.5553 -2.49261 3.84307
    endloop
  endfacet
  facet normal 0.978148 -0.147016 -0.147016
    outer loop
      vertex 45.5553 2.30157 -0.951119
      vertex 45.7726 3.02455 -0.228143
      vertex 45.5553 -2.49261 3.84307
    endloop
  endfacet
  facet normal 0.913545 -0.287606 -0.287606
    outer loop
      vertex 45.5553 2.30157 -0.951119
      vertex 45.5553 -2.49261 3.84307
      vertex 45.1301 -3.16784 3.16784
    endloop
  endfacet
  facet normal 0.913545 -0.287606 -0.287606
    outer loop
      vertex 45.1301 1.62635 -1.62635
      vertex 45.5553 2.30157 -0.951119
      vertex 45.1301 -3.16784 3.16784
    endloop
  endfacet
  facet normal 0 -0.707107 -0.707107
    outer loop
      vertex 45.7726 -1.40007 4.93561
      vertex 45.8 3.39411 0.141421
      vertex 45.8 -1.40007 4.93561
    endloop
  endfacet
  facet normal 0 -0.707107 -0.707107
    outer loop
      vertex 45.7726 -1.40007 4.93561
      vertex 45.7726 3.39411 0.141421
      vertex 45.8 3.39411 0.141421
    endloop
  endfacet
  facet normal 0 -1 0
    outer loop
      vertex 8.6 8.525 -1.1
      vertex 8.625 8.525 -2.6
      vertex 8.625 8.525 -1.1
    endloop
  endfacet
  facet normal 0 -1 0
    outer loop
      vertex 8.6 8.525 -1.1
      vertex 8.6 8.525 -2.6
      vertex 8.625 8.525 -2.6
    endloop
  endfacet
  facet normal -1 -0 -0
    outer loop
      vertex 8.625 8.525 -1.1
      vertex 8.625 8.525 -2.6
      vertex 8.625 8.5 -1.1
    endloop
  endfacet
  facet normal -1 0 0
    outer loop
      vertex 8.625 8.5 -1.1
      vertex 8.625 8.525 -2.6
      vertex 8.625 8.5 -2.6
    endloop
  endfacet
  facet normal -0.994522 -0.104528 0
    outer loop
      vertex -1.3 2.54856 -2.6
      vertex -1.29074 2.46044 -1.1
      vertex -1.3 2.54856 -1.1
    endloop
  endfacet
  facet normal -0.994522 -0.104528 0
    outer loop
      vertex -1.3 2.54856 -2.6
      vertex -1.29074 2.46044 -2.6
      vertex -1.29074 2.46044 -1.1
    endloop
  endfacet
  facet normal -0.866025 -0.5 0
    outer loop
      vertex -0.49798 0.652691 -2.6
      vertex -0.967727 1.46632 -1.78637
      vertex -0.967727 1.46632 -2.6
    endloop
  endfacet
  facet normal -0.951057 -0.309017 0
    outer loop
      vertex -1.29074 2.46044 -2.6
      vertex -1.19074 2.15269 -1.1
      vertex -1.29074 2.46044 -1.1
    endloop
  endfacet
  facet normal -0.951057 -0.309017 0
    outer loop
      vertex -1.29074 2.46044 -2.6
      vertex -0.967727 1.46632 -2.6
      vertex -0.967727 1.46632 -1.78637
    endloop
  endfacet
  facet normal -0.951057 -0.309017 -5.3186e-17
    outer loop
      vertex -1.29074 2.46044 -2.6
      vertex -0.967727 1.46632 -1.78637
      vertex -1.19074 2.15269 -1.1
    endloop
  endfacet
  facet normal 1 0 0
    outer loop
      vertex 8.6 8.525 -2.6
      vertex 8.6 8.5 -1.1
      vertex 8.6 8.5 -2.6
    endloop
  endfacet
  facet normal 1 0 -0
    outer loop
      vertex 8.6 8.525 -2.6
      vertex 8.6 8.525 -1.1
      vertex 8.6 8.5 -1.1
    endloop
  endfacet
  facet normal 0 1 0
    outer loop
      vertex 8.6 8.5 -2.6
      vertex 8.6 8.5 -1.1
      vertex 8.625 8.5 -2.6
    endloop
  endfacet
  facet normal 0 1 -0
    outer loop
      vertex 8.625 8.5 -2.6
      vertex 8.6 8.5 -1.1
      vertex 8.625 8.5 -1.1
    endloop
  endfacet
  facet normal 1 -0 0
    outer loop
      vertex 34.775 8.5 -1.1
      vertex 34.775 8.525 -2.6
      vertex 34.775 8.525 -1.1
    endloop
  endfacet
  facet normal 1 0 0
    outer loop
      vertex 34.775 8.5 -1.1
      vertex 34.775 8.5 -2.6
      vertex 34.775 8.525 -2.6
    endloop
  endfacet
  facet normal 0 -1 0
    outer loop
      vertex 34.775 8.525 -1.1
      vertex 34.8 8.525 -2.6
      vertex 34.8 8.525 -1.1
    endloop
  endfacet
  facet normal 0 -1 0
    outer loop
      vertex 34.775 8.525 -1.1
      vertex 34.775 8.525 -2.6
      vertex 34.8 8.525 -2.6
    endloop
  endfacet
  facet normal 1 0 0
    outer loop
      vertex 44.7726 3.5 -2.6
      vertex 44.7726 2.97736 -1.1
      vertex 44.7726 2.97736 -2.6
    endloop
  endfacet
  facet normal 1 0 -0
    outer loop
      vertex 44.7726 3.5 -2.6
      vertex 44.7726 3.5 -1.1
      vertex 44.7726 2.97736 -1.1
    endloop
  endfacet
  facet normal 0.809017 -0.587785 0
    outer loop
      vertex 44.1301 1 -2.25269
      vertex 43.8778 0.652691 -2.6
      vertex 44.1301 1 -2.6
    endloop
  endfacet
  facet normal 0.809017 -0.587785 0
    outer loop
      vertex 43.5157 0.154347 -2.52167
      vertex 43.5157 0.154347 -2.6
      vertex 43.6556 0.346906 -2.6
    endloop
  endfacet
  facet normal 0.669131 -0.743145 0
    outer loop
      vertex 43.5157 0.154347 -2.52167
      vertex 43.3443 0 -2.50729
      vertex 43.3443 0 -2.6
    endloop
  endfacet
  facet normal 0.669131 -0.743145 0
    outer loop
      vertex 43.5157 0.154347 -2.6
      vertex 43.5157 0.154347 -2.52167
      vertex 43.3443 0 -2.6
    endloop
  endfacet
  facet normal 0.978148 -0.207912 0
    outer loop
      vertex 44.7726 2.97736 -2.6
      vertex 44.5553 1.95492 -1.29778
      vertex 44.5553 1.95492 -2.6
    endloop
  endfacet
  facet normal 0.978148 -0.207912 0
    outer loop
      vertex 44.7726 2.97736 -2.6
      vertex 44.7726 2.97736 -1.1
      vertex 44.5553 1.95492 -1.29778
    endloop
  endfacet
  facet normal 0.978148 -0.207912 -2.54679e-14
    outer loop
      vertex 44.7726 2.97736 -1.1
      vertex 44.5973 2.15269 -1.1
      vertex 44.5553 1.95492 -1.29778
    endloop
  endfacet
  facet normal 0.913545 -0.406737 0
    outer loop
      vertex 44.5553 1.95492 -2.6
      vertex 44.1301 1 -2.25269
      vertex 44.1301 1 -2.6
    endloop
  endfacet
  facet normal 0.913545 -0.406737 0
    outer loop
      vertex 44.5553 1.95492 -2.6
      vertex 44.5553 1.95492 -1.29778
      vertex 44.1301 1 -2.25269
    endloop
  endfacet
  facet normal 0 1 0
    outer loop
      vertex 34.775 8.5 -2.6
      vertex 34.775 8.5 -1.1
      vertex 34.8 8.5 -2.6
    endloop
  endfacet
  facet normal 0 1 -0
    outer loop
      vertex 34.8 8.5 -2.6
      vertex 34.775 8.5 -1.1
      vertex 34.8 8.5 -1.1
    endloop
  endfacet
  facet normal 0 -1 0
    outer loop
      vertex 44.8 3.5 -2.6
      vertex 44.7726 3.5 -1.1
      vertex 44.7726 3.5 -2.6
    endloop
  endfacet
  facet normal 0 -1 0
    outer loop
      vertex 44.8 3.5 -2.6
      vertex 44.8 3.5 -1.1
      vertex 44.7726 3.5 -1.1
    endloop
  endfacet
  facet normal -1 0 0
    outer loop
      vertex 34.8 8.5 -2.6
      vertex 34.8 8.5 -1.1
      vertex 34.8 8.525 -2.6
    endloop
  endfacet
  facet normal -1 0 0
    outer loop
      vertex 34.8 8.525 -2.6
      vertex 34.8 8.5 -1.1
      vertex 34.8 8.525 -1.1
    endloop
  endfacet
  facet normal -1 -0 -0
    outer loop
      vertex 8.625 7.9 -1.1
      vertex 8.625 7.9 -2.6
      vertex 8.625 7.875 -1.1
    endloop
  endfacet
  facet normal -1 0 0
    outer loop
      vertex 8.625 7.875 -1.1
      vertex 8.625 7.9 -2.6
      vertex 8.625 7.875 -2.6
    endloop
  endfacet
  facet normal 0 1 0
    outer loop
      vertex 8.625 7.875 -1.1
      vertex 8.625 7.875 -2.6
      vertex 8.6 7.875 -1.1
    endloop
  endfacet
  facet normal 0 1 0
    outer loop
      vertex 8.6 7.875 -1.1
      vertex 8.625 7.875 -2.6
      vertex 8.6 7.875 -2.6
    endloop
  endfacet
  facet normal -0.104528 0.994522 0
    outer loop
      vertex 2.56044 17.7907 -2.6
      vertex 2.56044 17.7907 -1.1
      vertex 3.6 17.9 -2.6
    endloop
  endfacet
  facet normal -0.104528 0.994522 0
    outer loop
      vertex 3.6 17.9 -2.6
      vertex 2.56044 17.7907 -1.1
      vertex 3.6 17.9 -1.1
    endloop
  endfacet
  facet normal -0.809017 0.587785 0
    outer loop
      vertex -0.730127 15.4 -2.6
      vertex -0.730127 15.4 -1.1
      vertex -0.115724 16.2457 -2.6
    endloop
  endfacet
  facet normal -0.809017 0.587785 0
    outer loop
      vertex -0.115724 16.2457 -2.6
      vertex -0.730127 15.4 -1.1
      vertex -0.115724 16.2457 -1.1
    endloop
  endfacet
  facet normal -0.669131 0.743145 0
    outer loop
      vertex -0.115724 16.2457 -2.6
      vertex -0.115724 16.2457 -1.1
      vertex 0.611002 16.9 -2.6
    endloop
  endfacet
  facet normal -0.669131 0.743145 7.87743e-16
    outer loop
      vertex 0.611002 16.9 -2.6
      vertex -0.115724 16.2457 -1.1
      vertex 0.661074 16.9451 -1.1
    endloop
  endfacet
  facet normal -0.669131 0.743145 0
    outer loop
      vertex 0.611002 16.9 -2.6
      vertex 0.661074 16.9451 -1.1
      vertex 0.661074 16.9451 -2.6
    endloop
  endfacet
  facet normal -0.5 0.866025 0
    outer loop
      vertex 0.661074 16.9451 -2.6
      vertex 0.661074 16.9451 -1.1
      vertex 1.56632 17.4677 -2.6
    endloop
  endfacet
  facet normal -0.5 0.866025 0
    outer loop
      vertex 1.56632 17.4677 -2.6
      vertex 0.661074 16.9451 -1.1
      vertex 1.56632 17.4677 -1.1
    endloop
  endfacet
  facet normal -0.309017 0.951057 0
    outer loop
      vertex 1.56632 17.4677 -2.6
      vertex 1.56632 17.4677 -1.1
      vertex 2.56044 17.7907 -2.6
    endloop
  endfacet
  facet normal -0.309017 0.951057 0
    outer loop
      vertex 2.56044 17.7907 -2.6
      vertex 1.56632 17.4677 -1.1
      vertex 2.56044 17.7907 -1.1
    endloop
  endfacet
  facet normal -0.978148 0.207912 0
    outer loop
      vertex -1.3 13.7642 -2.6
      vertex -1.3 13.7642 -1.1
      vertex -1.15528 14.4451 -2.6
    endloop
  endfacet
  facet normal -0.978148 0.207912 0
    outer loop
      vertex -1.15528 14.4451 -2.6
      vertex -1.3 13.7642 -1.1
      vertex -1.15528 14.4451 -1.1
    endloop
  endfacet
  facet normal -0.913545 0.406737 0
    outer loop
      vertex -1.15528 14.4451 -2.6
      vertex -1.15528 14.4451 -1.1
      vertex -0.730127 15.4 -2.6
    endloop
  endfacet
  facet normal -0.913545 0.406737 0
    outer loop
      vertex -0.730127 15.4 -2.6
      vertex -1.15528 14.4451 -1.1
      vertex -0.730127 15.4 -1.1
    endloop
  endfacet
  facet normal 7.07008e-16 1 -0
    outer loop
      vertex 3.6 17.9 -2.6
      vertex 3.6 17.9 -1.1
      vertex 8.625 17.9 -2.6
    endloop
  endfacet
  facet normal 7.07008e-16 1 -0
    outer loop
      vertex 8.625 17.9 -2.6
      vertex 3.6 17.9 -1.1
      vertex 8.625 17.9 -1.1
    endloop
  endfacet
  facet normal 0 -1 0
    outer loop
      vertex 8.625 7.9 -2.6
      vertex 8.6 7.9 -1.1
      vertex 8.6 7.9 -2.6
    endloop
  endfacet
  facet normal 0 -1 0
    outer loop
      vertex 8.625 7.9 -2.6
      vertex 8.625 7.9 -1.1
      vertex 8.6 7.9 -1.1
    endloop
  endfacet
  facet normal 1 0 0
    outer loop
      vertex 8.6 7.9 -2.6
      vertex 8.6 7.875 -1.1
      vertex 8.6 7.875 -2.6
    endloop
  endfacet
  facet normal 1 0 -0
    outer loop
      vertex 8.6 7.9 -2.6
      vertex 8.6 7.9 -1.1
      vertex 8.6 7.875 -1.1
    endloop
  endfacet
  facet normal 0 1 0
    outer loop
      vertex 34.8 7.875 -1.1
      vertex 34.8 7.875 -2.6
      vertex 34.775 7.875 -1.1
    endloop
  endfacet
  facet normal 0 1 0
    outer loop
      vertex 34.775 7.875 -1.1
      vertex 34.8 7.875 -2.6
      vertex 34.775 7.875 -2.6
    endloop
  endfacet
  facet normal 1 -0 0
    outer loop
      vertex 34.775 7.875 -1.1
      vertex 34.775 7.9 -2.6
      vertex 34.775 7.9 -1.1
    endloop
  endfacet
  facet normal 1 0 0
    outer loop
      vertex 34.775 7.875 -1.1
      vertex 34.775 7.875 -2.6
      vertex 34.775 7.9 -2.6
    endloop
  endfacet
  facet normal 0.994522 0.104528 0
    outer loop
      vertex 44.8 12.9 -1.1
      vertex 44.8 12.9 -2.6
      vertex 44.6907 13.9396 -2.6
    endloop
  endfacet
  facet normal 0.994522 0.104528 0
    outer loop
      vertex 44.6907 13.9396 -1.1
      vertex 44.8 12.9 -1.1
      vertex 44.6907 13.9396 -2.6
    endloop
  endfacet
  facet normal 6.7976e-15 1 -0
    outer loop
      vertex 39.8 17.8726 -2.6
      vertex 39.8 17.8726 -1.1
      vertex 40.3226 17.8726 -2.6
    endloop
  endfacet
  facet normal 6.7976e-15 1 -0
    outer loop
      vertex 40.3226 17.8726 -2.6
      vertex 39.8 17.8726 -1.1
      vertex 40.3226 17.8726 -1.1
    endloop
  endfacet
  facet normal 0.587785 0.809017 1.59319e-15
    outer loop
      vertex 42.7544 16.9 -2.6
      vertex 42.3 17.2301 -1.1
      vertex 43.1457 16.6157 -1.1
    endloop
  endfacet
  facet normal 0.587785 0.809017 0
    outer loop
      vertex 42.7544 16.9 -2.6
      vertex 43.1457 16.6157 -1.1
      vertex 43.1457 16.6157 -2.6
    endloop
  endfacet
  facet normal 0.587785 0.809017 -0
    outer loop
      vertex 42.3 17.2301 -2.6
      vertex 42.3 17.2301 -1.1
      vertex 42.7544 16.9 -2.6
    endloop
  endfacet
  facet normal 0.743145 0.669131 0
    outer loop
      vertex 43.8451 15.8389 -1.1
      vertex 43.8451 15.8389 -2.6
      vertex 43.1457 16.6157 -2.6
    endloop
  endfacet
  facet normal 0.743145 0.669131 0
    outer loop
      vertex 43.1457 16.6157 -1.1
      vertex 43.8451 15.8389 -1.1
      vertex 43.1457 16.6157 -2.6
    endloop
  endfacet
  facet normal 0.866025 0.5 0
    outer loop
      vertex 44.3677 14.9337 -1.1
      vertex 44.3677 14.9337 -2.6
      vertex 43.8451 15.8389 -2.6
    endloop
  endfacet
  facet normal 0.866025 0.5 0
    outer loop
      vertex 43.8451 15.8389 -1.1
      vertex 44.3677 14.9337 -1.1
      vertex 43.8451 15.8389 -2.6
    endloop
  endfacet
  facet normal 0.951057 0.309017 0
    outer loop
      vertex 44.6907 13.9396 -1.1
      vertex 44.6907 13.9396 -2.6
      vertex 44.3677 14.9337 -2.6
    endloop
  endfacet
  facet normal 0.951057 0.309017 0
    outer loop
      vertex 44.3677 14.9337 -1.1
      vertex 44.6907 13.9396 -1.1
      vertex 44.3677 14.9337 -2.6
    endloop
  endfacet
  facet normal 0.207912 0.978148 -0
    outer loop
      vertex 40.3226 17.8726 -2.6
      vertex 40.3226 17.8726 -1.1
      vertex 41.3451 17.6553 -2.6
    endloop
  endfacet
  facet normal 0.207912 0.978148 -0
    outer loop
      vertex 41.3451 17.6553 -2.6
      vertex 40.3226 17.8726 -1.1
      vertex 41.3451 17.6553 -1.1
    endloop
  endfacet
  facet normal 0.406737 0.913545 -0
    outer loop
      vertex 41.3451 17.6553 -2.6
      vertex 41.3451 17.6553 -1.1
      vertex 42.3 17.2301 -2.6
    endloop
  endfacet
  facet normal 0.406737 0.913545 -0
    outer loop
      vertex 42.3 17.2301 -2.6
      vertex 41.3451 17.6553 -1.1
      vertex 42.3 17.2301 -1.1
    endloop
  endfacet
  facet normal 1 -1.41402e-15 0
    outer loop
      vertex 44.8 12.9 -2.6
      vertex 44.8 7.875 -1.1
      vertex 44.8 7.875 -2.6
    endloop
  endfacet
  facet normal 1 -1.41402e-15 0
    outer loop
      vertex 44.8 12.9 -2.6
      vertex 44.8 12.9 -1.1
      vertex 44.8 7.875 -1.1
    endloop
  endfacet
  facet normal -1 0 0
    outer loop
      vertex 34.8 7.875 -2.6
      vertex 34.8 7.875 -1.1
      vertex 34.8 7.9 -2.6
    endloop
  endfacet
  facet normal -1 0 0
    outer loop
      vertex 34.8 7.9 -2.6
      vertex 34.8 7.875 -1.1
      vertex 34.8 7.9 -1.1
    endloop
  endfacet
  facet normal 1 0 0
    outer loop
      vertex 39.8 17.9 -2.6
      vertex 39.8 17.8726 -1.1
      vertex 39.8 17.8726 -2.6
    endloop
  endfacet
  facet normal 1 0 -0
    outer loop
      vertex 39.8 17.9 -2.6
      vertex 39.8 17.9 -1.1
      vertex 39.8 17.8726 -1.1
    endloop
  endfacet
  facet normal 0 -1 0
    outer loop
      vertex 34.8 7.9 -2.6
      vertex 34.775 7.9 -1.1
      vertex 34.775 7.9 -2.6
    endloop
  endfacet
  facet normal 0 -1 0
    outer loop
      vertex 34.8 7.9 -2.6
      vertex 34.8 7.9 -1.1
      vertex 34.775 7.9 -1.1
    endloop
  endfacet
  facet normal -1 0 0
    outer loop
      vertex -1.3 2.54856 -2.6
      vertex -1.3 2.54856 -1.1
      vertex -1.3 13.7642 -2.6
    endloop
  endfacet
  facet normal -1 0 0
    outer loop
      vertex -1.3 13.7642 -2.6
      vertex -1.3 2.54856 -1.1
      vertex -1.3 13.7642 -1.1
    endloop
  endfacet
  facet normal 0 -1 -0
    outer loop
      vertex 43.3443 0 -2.50729
      vertex 43.2308 0 -2.6
      vertex 43.3443 0 -2.6
    endloop
  endfacet
  facet normal 0 0 -1
    outer loop
      vertex 0.611002 16.9 -2.6
      vertex 8.625 17.9 -2.6
      vertex 42.7544 16.9 -2.6
    endloop
  endfacet
  facet normal 0 0 -1
    outer loop
      vertex 0.611002 16.9 -2.6
      vertex 0.661074 16.9451 -2.6
      vertex 1.56632 17.4677 -2.6
    endloop
  endfacet
  facet normal 0 0 -1
    outer loop
      vertex 0.611002 16.9 -2.6
      vertex 1.56632 17.4677 -2.6
      vertex 2.56044 17.7907 -2.6
    endloop
  endfacet
  facet normal 0 0 -1
    outer loop
      vertex 0.611002 16.9 -2.6
      vertex 2.56044 17.7907 -2.6
      vertex 3.6 17.9 -2.6
    endloop
  endfacet
  facet normal 0 -0 -1
    outer loop
      vertex 3.6 17.9 -2.6
      vertex 8.625 17.9 -2.6
      vertex 0.611002 16.9 -2.6
    endloop
  endfacet
  facet normal 0 0 -1
    outer loop
      vertex 39.8 17.8726 -2.6
      vertex 41.3451 17.6553 -2.6
      vertex 42.7544 16.9 -2.6
    endloop
  endfacet
  facet normal 0 0 -1
    outer loop
      vertex 8.625 17.9 -2.6
      vertex 39.8 17.9 -2.6
      vertex 39.8 17.8726 -2.6
    endloop
  endfacet
  facet normal 0 0 -1
    outer loop
      vertex 8.625 17.9 -2.6
      vertex 39.8 17.8726 -2.6
      vertex 42.7544 16.9 -2.6
    endloop
  endfacet
  facet normal 0 0 -1
    outer loop
      vertex 39.8 17.8726 -2.6
      vertex 40.3226 17.8726 -2.6
      vertex 41.3451 17.6553 -2.6
    endloop
  endfacet
  facet normal 0 0 -1
    outer loop
      vertex 42.7544 16.9 -2.6
      vertex 41.3451 17.6553 -2.6
      vertex 42.3 17.2301 -2.6
    endloop
  endfacet
  facet normal 0 1 0
    outer loop
      vertex 8.625 17.9 -2.6
      vertex 8.625 17.9 -1.1
      vertex 39.8 17.9 -2.6
    endloop
  endfacet
  facet normal 0 1 -0
    outer loop
      vertex 39.8 17.9 -2.6
      vertex 8.625 17.9 -1.1
      vertex 39.8 17.9 -1.1
    endloop
  endfacet
  facet normal 0 0 1
    outer loop
      vertex 8.6 7.9 -1.1
      vertex -1.3 13.7642 -1.1
      vertex -1.3 2.54856 -1.1
    endloop
  endfacet
  facet normal -0 -0 1
    outer loop
      vertex -1.29074 2.46044 -1.1
      vertex -1.19074 2.15269 -1.1
      vertex -1.3 2.54856 -1.1
    endloop
  endfacet
  facet normal 0 -0 1
    outer loop
      vertex -1.19074 2.15269 -1.1
      vertex 4.69747 2.15269 -1.1
      vertex -1.3 2.54856 -1.1
    endloop
  endfacet
  facet normal 0 0 1
    outer loop
      vertex 4.69747 2.15269 -1.1
      vertex 8.6 7.875 -1.1
      vertex 8.6 7.9 -1.1
    endloop
  endfacet
  facet normal -0 -0 1
    outer loop
      vertex 4.8 2.04734 -1.1
      vertex 5.75492 1.44608 -1.1
      vertex 4.69747 2.15269 -1.1
    endloop
  endfacet
  facet normal 0 -0 1
    outer loop
      vertex 5.75492 1.44608 -1.1
      vertex 8.6 7.875 -1.1
      vertex 4.69747 2.15269 -1.1
    endloop
  endfacet
  facet normal 0 -0 1
    outer loop
      vertex 6.77736 1.13874 -1.1
      vertex 7.3 1.13874 -1.1
      vertex 5.75492 1.44608 -1.1
    endloop
  endfacet
  facet normal 0 0 1
    outer loop
      vertex 7.3 1.1 -1.1
      vertex 36.2 1.1 -1.1
      vertex 7.3 1.13874 -1.1
    endloop
  endfacet
  facet normal -0 0 1
    outer loop
      vertex -1.3 13.7642 -1.1
      vertex 8.6 8.525 -1.1
      vertex 3.6 17.9 -1.1
    endloop
  endfacet
  facet normal 0 -0 1
    outer loop
      vertex 36.2 1.1 -1.1
      vertex 36.2 1.13874 -1.1
      vertex 7.3 1.13874 -1.1
    endloop
  endfacet
  facet normal 0 -0 1
    outer loop
      vertex 38.1451 1.44608 -1.1
      vertex 39.2025 2.15269 -1.1
      vertex 34.8 7.875 -1.1
    endloop
  endfacet
  facet normal 0 -0 1
    outer loop
      vertex 37.1226 1.13874 -1.1
      vertex 38.1451 1.44608 -1.1
      vertex 36.2 1.13874 -1.1
    endloop
  endfacet
  facet normal 0 0 1
    outer loop
      vertex 34.8 7.875 -1.1
      vertex 34.775 7.875 -1.1
      vertex 36.2 1.13874 -1.1
    endloop
  endfacet
  facet normal 0 -0 1
    outer loop
      vertex 39.1 2.04734 -1.1
      vertex 39.2025 2.15269 -1.1
      vertex 38.1451 1.44608 -1.1
    endloop
  endfacet
  facet normal 0 -0 1
    outer loop
      vertex 36.2 1.13874 -1.1
      vertex 38.1451 1.44608 -1.1
      vertex 34.8 7.875 -1.1
    endloop
  endfacet
  facet normal 0 -0 1
    outer loop
      vertex 44.5973 2.15269 -1.1
      vertex 44.7726 2.97736 -1.1
      vertex 39.2025 2.15269 -1.1
    endloop
  endfacet
  facet normal 0 -0 1
    outer loop
      vertex 44.7726 2.97736 -1.1
      vertex 44.7726 3.5 -1.1
      vertex 39.2025 2.15269 -1.1
    endloop
  endfacet
  facet normal 0 0 1
    outer loop
      vertex 44.8 7.875 -1.1
      vertex 39.2025 2.15269 -1.1
      vertex 44.7726 3.5 -1.1
    endloop
  endfacet
  facet normal 0 0 1
    outer loop
      vertex 44.8 3.5 -1.1
      vertex 44.8 7.875 -1.1
      vertex 44.7726 3.5 -1.1
    endloop
  endfacet
  facet normal 0 -0 1
    outer loop
      vertex 4.69747 2.15269 -1.1
      vertex 8.6 7.9 -1.1
      vertex -1.3 2.54856 -1.1
    endloop
  endfacet
  facet normal 0 0 1
    outer loop
      vertex 44.6907 13.9396 -1.1
      vertex 39.8 17.8726 -1.1
      vertex 44.8 12.9 -1.1
    endloop
  endfacet
  facet normal 0 0 1
    outer loop
      vertex 44.3677 14.9337 -1.1
      vertex 39.8 17.8726 -1.1
      vertex 44.6907 13.9396 -1.1
    endloop
  endfacet
  facet normal 0 0 1
    outer loop
      vertex 43.8451 15.8389 -1.1
      vertex 39.8 17.8726 -1.1
      vertex 44.3677 14.9337 -1.1
    endloop
  endfacet
  facet normal 0 0 1
    outer loop
      vertex 43.1457 16.6157 -1.1
      vertex 39.8 17.8726 -1.1
      vertex 43.8451 15.8389 -1.1
    endloop
  endfacet
  facet normal 0 0 1
    outer loop
      vertex 42.3 17.2301 -1.1
      vertex 39.8 17.8726 -1.1
      vertex 43.1457 16.6157 -1.1
    endloop
  endfacet
  facet normal 0 0 1
    outer loop
      vertex 41.3451 17.6553 -1.1
      vertex 39.8 17.8726 -1.1
      vertex 42.3 17.2301 -1.1
    endloop
  endfacet
  facet normal 0 0 1
    outer loop
      vertex 40.3226 17.8726 -1.1
      vertex 39.8 17.8726 -1.1
      vertex 41.3451 17.6553 -1.1
    endloop
  endfacet
  facet normal -0 0 1
    outer loop
      vertex 8.625 7.9 -1.1
      vertex 34.775 7.875 -1.1
      vertex 34.775 7.9 -1.1
    endloop
  endfacet
  facet normal -0 0 1
    outer loop
      vertex 5.75492 1.44608 -1.1
      vertex 7.3 1.13874 -1.1
      vertex 8.6 7.875 -1.1
    endloop
  endfacet
  facet normal 0 0 1
    outer loop
      vertex -1.3 13.7642 -1.1
      vertex 3.6 17.9 -1.1
      vertex 2.56044 17.7907 -1.1
    endloop
  endfacet
  facet normal 0 0 1
    outer loop
      vertex 2.56044 17.7907 -1.1
      vertex 1.56632 17.4677 -1.1
      vertex -1.3 13.7642 -1.1
    endloop
  endfacet
  facet normal 0 0 1
    outer loop
      vertex 1.56632 17.4677 -1.1
      vertex 0.661074 16.9451 -1.1
      vertex -1.3 13.7642 -1.1
    endloop
  endfacet
  facet normal 0 0 1
    outer loop
      vertex 0.661074 16.9451 -1.1
      vertex -0.115724 16.2457 -1.1
      vertex -1.3 13.7642 -1.1
    endloop
  endfacet
  facet normal 0 0 1
    outer loop
      vertex -0.115724 16.2457 -1.1
      vertex -0.730127 15.4 -1.1
      vertex -1.3 13.7642 -1.1
    endloop
  endfacet
  facet normal 0 0 1
    outer loop
      vertex -0.730127 15.4 -1.1
      vertex -1.15528 14.4451 -1.1
      vertex -1.3 13.7642 -1.1
    endloop
  endfacet
  facet normal 0 0 1
    outer loop
      vertex 7.3 1.13874 -1.1
      vertex 34.775 7.875 -1.1
      vertex 8.625 7.875 -1.1
    endloop
  endfacet
  facet normal 0 0 1
    outer loop
      vertex -1.3 13.7642 -1.1
      vertex 8.6 7.9 -1.1
      vertex 8.6 8.5 -1.1
    endloop
  endfacet
  facet normal 0 0 1
    outer loop
      vertex 8.6 7.9 -1.1
      vertex 8.625 7.9 -1.1
      vertex 8.6 8.5 -1.1
    endloop
  endfacet
  facet normal 0 0 1
    outer loop
      vertex 7.3 1.13874 -1.1
      vertex 8.625 7.875 -1.1
      vertex 8.6 7.875 -1.1
    endloop
  endfacet
  facet normal 0 0 1
    outer loop
      vertex 8.625 7.875 -1.1
      vertex 34.775 7.875 -1.1
      vertex 8.625 7.9 -1.1
    endloop
  endfacet
  facet normal 0 0 1
    outer loop
      vertex -1.3 13.7642 -1.1
      vertex 8.6 8.5 -1.1
      vertex 8.6 8.525 -1.1
    endloop
  endfacet
  facet normal 0 0 1
    outer loop
      vertex 34.775 8.5 -1.1
      vertex 34.775 7.9 -1.1
      vertex 34.8 7.9 -1.1
    endloop
  endfacet
  facet normal -0 0 1
    outer loop
      vertex 3.6 17.9 -1.1
      vertex 8.6 8.525 -1.1
      vertex 8.625 17.9 -1.1
    endloop
  endfacet
  facet normal 0 0 1
    outer loop
      vertex 34.775 8.5 -1.1
      vertex 8.625 8.525 -1.1
      vertex 8.625 8.5 -1.1
    endloop
  endfacet
  facet normal 0 -0 1
    outer loop
      vertex 8.625 8.525 -1.1
      vertex 8.625 17.9 -1.1
      vertex 8.6 8.525 -1.1
    endloop
  endfacet
  facet normal 0 0 1
    outer loop
      vertex 34.775 7.9 -1.1
      vertex 8.625 8.5 -1.1
      vertex 8.625 7.9 -1.1
    endloop
  endfacet
  facet normal 0 0 1
    outer loop
      vertex 8.625 8.5 -1.1
      vertex 8.6 8.5 -1.1
      vertex 8.625 7.9 -1.1
    endloop
  endfacet
  facet normal 0 0 1
    outer loop
      vertex 36.2 1.13874 -1.1
      vertex 34.775 7.875 -1.1
      vertex 7.3 1.13874 -1.1
    endloop
  endfacet
  facet normal 0 0 1
    outer loop
      vertex 34.775 8.525 -1.1
      vertex 8.625 17.9 -1.1
      vertex 8.625 8.525 -1.1
    endloop
  endfacet
  facet normal -0 0 1
    outer loop
      vertex 8.625 8.5 -1.1
      vertex 34.775 7.9 -1.1
      vertex 34.775 8.5 -1.1
    endloop
  endfacet
  facet normal 0 0 1
    outer loop
      vertex 39.8 17.8726 -1.1
      vertex 34.775 8.525 -1.1
      vertex 34.8 8.525 -1.1
    endloop
  endfacet
  facet normal 0 0 1
    outer loop
      vertex 34.8 7.875 -1.1
      vertex 39.2025 2.15269 -1.1
      vertex 44.8 7.875 -1.1
    endloop
  endfacet
  facet normal -0 0 1
    outer loop
      vertex 34.8 7.875 -1.1
      vertex 44.8 7.875 -1.1
      vertex 34.8 7.9 -1.1
    endloop
  endfacet
  facet normal -0 0 1
    outer loop
      vertex 8.625 8.525 -1.1
      vertex 34.775 8.5 -1.1
      vertex 34.775 8.525 -1.1
    endloop
  endfacet
  facet normal 0 0 1
    outer loop
      vertex 44.8 12.9 -1.1
      vertex 39.8 17.8726 -1.1
      vertex 34.8 8.525 -1.1
    endloop
  endfacet
  facet normal -0 0 1
    outer loop
      vertex 8.625 17.9 -1.1
      vertex 34.775 8.525 -1.1
      vertex 39.8 17.9 -1.1
    endloop
  endfacet
  facet normal 0 0 1
    outer loop
      vertex 34.775 8.525 -1.1
      vertex 39.8 17.8726 -1.1
      vertex 39.8 17.9 -1.1
    endloop
  endfacet
  facet normal 0 0 1
    outer loop
      vertex 44.8 12.9 -1.1
      vertex 34.8 8.525 -1.1
      vertex 44.8 7.875 -1.1
    endloop
  endfacet
  facet normal -0 0 1
    outer loop
      vertex 34.775 8.5 -1.1
      vertex 34.8 7.9 -1.1
      vertex 34.8 8.5 -1.1
    endloop
  endfacet
  facet normal 0 0 1
    outer loop
      vertex 34.8 8.525 -1.1
      vertex 34.8 8.5 -1.1
      vertex 44.8 7.875 -1.1
    endloop
  endfacet
  facet normal 0 0 1
    outer loop
      vertex 34.8 8.5 -1.1
      vertex 34.8 7.9 -1.1
      vertex 44.8 7.875 -1.1
    endloop
  endfacet
  facet normal 1 0 0
    outer loop
      vertex 44.8 7.875 -2.6
      vertex 44.8 3.5 -1.1
      vertex 44.8 3.5 -2.6
    endloop
  endfacet
  facet normal 1 0 -0
    outer loop
      vertex 44.8 7.875 -2.6
      vertex 44.8 7.875 -1.1
      vertex 44.8 3.5 -1.1
    endloop
  endfacet
  facet normal 0 -0 -1
    outer loop
      vertex -1.15528 14.4451 -2.6
      vertex -0.730127 15.4 -2.6
      vertex -1.3 13.7642 -2.6
    endloop
  endfacet
  facet normal 0 0 -1
    outer loop
      vertex -1.3 13.7642 -2.6
      vertex -0.730127 15.4 -2.6
      vertex -0.115724 16.2457 -2.6
    endloop
  endfacet
  facet normal 0 0 -1
    outer loop
      vertex -1.3 13.7642 -2.6
      vertex -0.115724 16.2457 -2.6
      vertex 0.611002 16.9 -2.6
    endloop
  endfacet
  facet normal 0 -0 -1
    outer loop
      vertex 8.6 7.9 -2.6
      vertex 8.6 7.875 -2.6
      vertex -1.3 2.54856 -2.6
    endloop
  endfacet
  facet normal 0 0 -1
    outer loop
      vertex 42.7544 16.9 -2.6
      vertex 43.1457 16.6157 -2.6
      vertex 43.8451 15.8389 -2.6
    endloop
  endfacet
  facet normal 0 0 -1
    outer loop
      vertex 42.7544 16.9 -2.6
      vertex 43.8451 15.8389 -2.6
      vertex 44.3677 14.9337 -2.6
    endloop
  endfacet
  facet normal 0 0 -1
    outer loop
      vertex 42.7544 16.9 -2.6
      vertex 44.3677 14.9337 -2.6
      vertex 44.6907 13.9396 -2.6
    endloop
  endfacet
  facet normal 0 0 -1
    outer loop
      vertex 42.7544 16.9 -2.6
      vertex 44.6907 13.9396 -2.6
      vertex 44.8 12.9 -2.6
    endloop
  endfacet
  facet normal 0 0 -1
    outer loop
      vertex 34.8 8.525 -2.6
      vertex 44.8 7.875 -2.6
      vertex 34.8 8.5 -2.6
    endloop
  endfacet
  facet normal 0 -0 -1
    outer loop
      vertex 44.8 7.875 -2.6
      vertex 44.8 3.5 -2.6
      vertex 44.7726 3.5 -2.6
    endloop
  endfacet
  facet normal 0 0 -1
    outer loop
      vertex 34.8 8.525 -2.6
      vertex 44.8 12.9 -2.6
      vertex 44.8 7.875 -2.6
    endloop
  endfacet
  facet normal 0 -0 -1
    outer loop
      vertex 44.7726 3.5 -2.6
      vertex 44.7726 2.97736 -2.6
      vertex 44.5553 1.95492 -2.6
    endloop
  endfacet
  facet normal 0 0 -1
    outer loop
      vertex 44.7726 3.5 -2.6
      vertex 44.5553 1.95492 -2.6
      vertex 42.1188 -0.652691 -2.6
    endloop
  endfacet
  facet normal 0 0 -1
    outer loop
      vertex 44.5553 1.95492 -2.6
      vertex 44.1301 1 -2.6
      vertex 43.8778 0.652691 -2.6
    endloop
  endfacet
  facet normal 0 -0 -1
    outer loop
      vertex 43.8778 0.652691 -2.6
      vertex 43.9257 0.652691 -2.6
      vertex 43.7389 0.41492 -2.6
    endloop
  endfacet
  facet normal -0 0 -1
    outer loop
      vertex 43.8778 0.652691 -2.6
      vertex 43.2308 0 -2.6
      vertex 44.5553 1.95492 -2.6
    endloop
  endfacet
  facet normal 0 0 -1
    outer loop
      vertex 43.8778 0.652691 -2.6
      vertex 43.7389 0.41492 -2.6
      vertex 43.6556 0.346906 -2.6
    endloop
  endfacet
  facet normal -0 0 -1
    outer loop
      vertex 43.6556 0.346906 -2.6
      vertex 43.2308 0 -2.6
      vertex 43.8778 0.652691 -2.6
    endloop
  endfacet
  facet normal 0 0 -1
    outer loop
      vertex 43.6556 0.346906 -2.6
      vertex 43.5157 0.154347 -2.6
      vertex 43.2308 0 -2.6
    endloop
  endfacet
  facet normal 0 0 -1
    outer loop
      vertex 43.5157 0.154347 -2.6
      vertex 43.3443 0 -2.6
      vertex 43.2308 0 -2.6
    endloop
  endfacet
  facet normal -0 0 -1
    outer loop
      vertex 43.2308 0 -2.6
      vertex 42.1188 -0.652691 -2.6
      vertex 44.5553 1.95492 -2.6
    endloop
  endfacet
  facet normal 0 0 -1
    outer loop
      vertex 43.2308 0 -2.6
      vertex 42.8337 -0.324208 -2.6
      vertex 42.1188 -0.652691 -2.6
    endloop
  endfacet
  facet normal 0 -0 -1
    outer loop
      vertex 8.625 7.875 -2.6
      vertex 42.1188 -0.652691 -2.6
      vertex 1.16529 -0.652691 -2.6
    endloop
  endfacet
  facet normal -0 -0 -1
    outer loop
      vertex -0.49798 0.652691 -2.6
      vertex -2.22045e-15 0.0118095 -2.6
      vertex -0.623737 0.652691 -2.6
    endloop
  endfacet
  facet normal 0 0 -1
    outer loop
      vertex 1.16529 -0.652691 -2.6
      vertex 0.954915 -0.589451 -2.6
      vertex -2.22045e-15 0.0118095 -2.6
    endloop
  endfacet
  facet normal 0 0 -1
    outer loop
      vertex 1.16529 -0.652691 -2.6
      vertex -2.22045e-15 0.0118095 -2.6
      vertex -0.49798 0.652691 -2.6
    endloop
  endfacet
  facet normal 0 0 -1
    outer loop
      vertex 8.6 7.875 -2.6
      vertex 1.16529 -0.652691 -2.6
      vertex -1.3 2.54856 -2.6
    endloop
  endfacet
  facet normal 0 0 -1
    outer loop
      vertex 1.16529 -0.652691 -2.6
      vertex -0.49798 0.652691 -2.6
      vertex -0.967727 1.46632 -2.6
    endloop
  endfacet
  facet normal 0 0 -1
    outer loop
      vertex 1.16529 -0.652691 -2.6
      vertex -0.967727 1.46632 -2.6
      vertex -1.3 2.54856 -2.6
    endloop
  endfacet
  facet normal 0 0 -1
    outer loop
      vertex -0.967727 1.46632 -2.6
      vertex -1.29074 2.46044 -2.6
      vertex -1.3 2.54856 -2.6
    endloop
  endfacet
  facet normal -0 0 -1
    outer loop
      vertex 8.625 7.875 -2.6
      vertex 1.16529 -0.652691 -2.6
      vertex 8.6 7.875 -2.6
    endloop
  endfacet
  facet normal -0 0 -1
    outer loop
      vertex 8.6 7.9 -2.6
      vertex -1.3 2.54856 -2.6
      vertex -1.3 13.7642 -2.6
    endloop
  endfacet
  facet normal 0 0 -1
    outer loop
      vertex 8.625 7.9 -2.6
      vertex 8.625 8.5 -2.6
      vertex 34.775 7.9 -2.6
    endloop
  endfacet
  facet normal 0 0 -1
    outer loop
      vertex 8.6 7.9 -2.6
      vertex -1.3 13.7642 -2.6
      vertex 8.6 8.5 -2.6
    endloop
  endfacet
  facet normal 0 0 -1
    outer loop
      vertex 42.1188 -0.652691 -2.6
      vertex 8.625 7.875 -2.6
      vertex 34.775 7.875 -2.6
    endloop
  endfacet
  facet normal 0 0 -1
    outer loop
      vertex 8.6 8.5 -2.6
      vertex -1.3 13.7642 -2.6
      vertex 8.6 8.525 -2.6
    endloop
  endfacet
  facet normal 0 0 -1
    outer loop
      vertex 8.625 7.9 -2.6
      vertex 8.6 7.9 -2.6
      vertex 8.6 8.5 -2.6
    endloop
  endfacet
  facet normal -0 0 -1
    outer loop
      vertex 8.625 8.5 -2.6
      vertex 8.625 7.9 -2.6
      vertex 8.6 8.5 -2.6
    endloop
  endfacet
  facet normal 0 0 -1
    outer loop
      vertex 8.625 7.875 -2.6
      vertex 8.625 7.9 -2.6
      vertex 34.775 7.875 -2.6
    endloop
  endfacet
  facet normal 0 0 -1
    outer loop
      vertex 8.6 8.525 -2.6
      vertex -1.3 13.7642 -2.6
      vertex 0.611002 16.9 -2.6
    endloop
  endfacet
  facet normal 0 0 -1
    outer loop
      vertex 8.625 7.9 -2.6
      vertex 34.775 7.9 -2.6
      vertex 34.775 7.875 -2.6
    endloop
  endfacet
  facet normal -0 0 -1
    outer loop
      vertex 42.7544 16.9 -2.6
      vertex 8.625 8.525 -2.6
      vertex 0.611002 16.9 -2.6
    endloop
  endfacet
  facet normal 0 0 -1
    outer loop
      vertex 8.625 8.525 -2.6
      vertex 8.6 8.525 -2.6
      vertex 0.611002 16.9 -2.6
    endloop
  endfacet
  facet normal -0 0 -1
    outer loop
      vertex 44.7726 3.5 -2.6
      vertex 42.1188 -0.652691 -2.6
      vertex 34.8 7.875 -2.6
    endloop
  endfacet
  facet normal 0 0 -1
    outer loop
      vertex 34.775 7.9 -2.6
      vertex 8.625 8.5 -2.6
      vertex 34.775 8.5 -2.6
    endloop
  endfacet
  facet normal 0 0 -1
    outer loop
      vertex 42.1188 -0.652691 -2.6
      vertex 34.775 7.875 -2.6
      vertex 34.8 7.875 -2.6
    endloop
  endfacet
  facet normal 0 0 -1
    outer loop
      vertex 44.7726 3.5 -2.6
      vertex 34.8 7.875 -2.6
      vertex 44.8 7.875 -2.6
    endloop
  endfacet
  facet normal 0 0 -1
    outer loop
      vertex 34.8 7.875 -2.6
      vertex 34.8 7.9 -2.6
      vertex 44.8 7.875 -2.6
    endloop
  endfacet
  facet normal 0 0 -1
    outer loop
      vertex 34.8 7.9 -2.6
      vertex 34.8 8.5 -2.6
      vertex 44.8 7.875 -2.6
    endloop
  endfacet
  facet normal 0 0 -1
    outer loop
      vertex 8.625 8.5 -2.6
      vertex 8.625 8.525 -2.6
      vertex 34.775 8.5 -2.6
    endloop
  endfacet
  facet normal 0 0 -1
    outer loop
      vertex 34.775 7.9 -2.6
      vertex 34.775 8.5 -2.6
      vertex 34.8 7.9 -2.6
    endloop
  endfacet
  facet normal 0 -0 -1
    outer loop
      vertex 42.7544 16.9 -2.6
      vertex 44.8 12.9 -2.6
      vertex 34.8 8.525 -2.6
    endloop
  endfacet
  facet normal 0 0 -1
    outer loop
      vertex 34.775 8.5 -2.6
      vertex 34.8 8.5 -2.6
      vertex 34.8 7.9 -2.6
    endloop
  endfacet
  facet normal 0 0 -1
    outer loop
      vertex 34.775 8.525 -2.6
      vertex 42.7544 16.9 -2.6
      vertex 34.8 8.525 -2.6
    endloop
  endfacet
  facet normal 0 0 -1
    outer loop
      vertex 8.625 8.525 -2.6
      vertex 42.7544 16.9 -2.6
      vertex 34.775 8.525 -2.6
    endloop
  endfacet
  facet normal 0 0 -1
    outer loop
      vertex 8.625 8.525 -2.6
      vertex 34.775 8.525 -2.6
      vertex 34.775 8.5 -2.6
    endloop
  endfacet
endsolid OpenSCAD_Model
