solid OpenSCAD_Model
  facet normal -0.994522 -0.104528 0
    outer loop
      vertex 2.97736e-16 5 0
      vertex 0.109262 3.96044 12.2
      vertex 2.97736e-16 5 12.2
    endloop
  endfacet
  facet normal -0.994522 -0.104528 0
    outer loop
      vertex 2.97736e-16 5 0
      vertex 0.109262 3.96044 0
      vertex 0.109262 3.96044 12.2
    endloop
  endfacet
  facet normal -0.951057 -0.309017 0
    outer loop
      vertex 0.109262 3.96044 0
      vertex 0.432273 2.96632 12.2
      vertex 0.109262 3.96044 12.2
    endloop
  endfacet
  facet normal -0.951057 -0.309017 0
    outer loop
      vertex 0.109262 3.96044 0
      vertex 0.432273 2.96632 0
      vertex 0.432273 2.96632 12.2
    endloop
  endfacet
  facet normal 0 -1 0
    outer loop
      vertex 5 0.0273905 0
      vertex 4.47736 0.0273905 4
      vertex 4.47736 0.0273905 0
    endloop
  endfacet
  facet normal 0 -1 0
    outer loop
      vertex 5 0.0273905 0
      vertex 5 0.0273905 4
      vertex 4.47736 0.0273905 4
    endloop
  endfacet
  facet normal -0.587785 -0.809017 0
    outer loop
      vertex 2.5 0.669873 0
      vertex 1.65435 1.28428 12.2
      vertex 1.65435 1.28428 0
    endloop
  endfacet
  facet normal -0.587785 -0.809017 0
    outer loop
      vertex 2.5 0.669873 0
      vertex 2.5 0.669873 12.2
      vertex 1.65435 1.28428 12.2
    endloop
  endfacet
  facet normal -0.743145 -0.669131 0
    outer loop
      vertex 0.954915 2.06107 0
      vertex 1.65435 1.28428 12.2
      vertex 0.954915 2.06107 12.2
    endloop
  endfacet
  facet normal -0.743145 -0.669131 0
    outer loop
      vertex 0.954915 2.06107 0
      vertex 1.65435 1.28428 0
      vertex 1.65435 1.28428 12.2
    endloop
  endfacet
  facet normal -0.866025 -0.5 0
    outer loop
      vertex 0.432273 2.96632 0
      vertex 0.954915 2.06107 12.2
      vertex 0.432273 2.96632 12.2
    endloop
  endfacet
  facet normal -0.866025 -0.5 0
    outer loop
      vertex 0.432273 2.96632 0
      vertex 0.954915 2.06107 0
      vertex 0.954915 2.06107 12.2
    endloop
  endfacet
  facet normal -0.406737 -0.913545 0
    outer loop
      vertex 3.45492 0.244717 0
      vertex 2.5 0.669873 12.2
      vertex 2.5 0.669873 0
    endloop
  endfacet
  facet normal -0.406737 -0.913545 0
    outer loop
      vertex 3.45492 0.244717 0
      vertex 3.45492 0.244717 12.2
      vertex 2.5 0.669873 12.2
    endloop
  endfacet
  facet normal -0.207912 -0.978148 -0
    outer loop
      vertex 3.7 0.192623 12.2
      vertex 3.45492 0.244717 12.2
      vertex 3.7 0.192623 4
    endloop
  endfacet
  facet normal -0.207912 -0.978148 0
    outer loop
      vertex 4.47736 0.0273905 0
      vertex 3.7 0.192623 4
      vertex 3.45492 0.244717 0
    endloop
  endfacet
  facet normal -0.207912 -0.978148 -0
    outer loop
      vertex 4.47736 0.0273905 4
      vertex 3.7 0.192623 4
      vertex 4.47736 0.0273905 0
    endloop
  endfacet
  facet normal -0.207912 -0.978148 0
    outer loop
      vertex 3.7 0.192623 4
      vertex 3.45492 0.244717 12.2
      vertex 3.45492 0.244717 0
    endloop
  endfacet
  facet normal -1 0 0
    outer loop
      vertex 0 5 0
      vertex 0 5 12.2
      vertex 0 46.15 0
    endloop
  endfacet
  facet normal -1 0 0
    outer loop
      vertex 0 46.15 0
      vertex 0 5 12.2
      vertex 0 46.15 12.2
    endloop
  endfacet
  facet normal 0 -1 0
    outer loop
      vertex 2.97736e-16 5 0
      vertex 0 5 12.2
      vertex 0 5 0
    endloop
  endfacet
  facet normal 0 -1 0
    outer loop
      vertex 2.97736e-16 5 0
      vertex 2.97736e-16 5 12.2
      vertex 0 5 12.2
    endloop
  endfacet
  facet normal -1 0 0
    outer loop
      vertex 5 0 0
      vertex 5 0 4
      vertex 5 0.0273905 0
    endloop
  endfacet
  facet normal -1 0 0
    outer loop
      vertex 5 0.0273905 0
      vertex 5 0 4
      vertex 5 0.0273905 4
    endloop
  endfacet
  facet normal -0 -1 0
    outer loop
      vertex 70.125 0 12.2
      vertex 31 0 12.2
      vertex 31 0 4
    endloop
  endfacet
  facet normal 0 -1 -0
    outer loop
      vertex 70.125 0 12.2
      vertex 31 0 4
      vertex 70.125 0 0
    endloop
  endfacet
  facet normal 0 -1 0
    outer loop
      vertex 70.125 0 0
      vertex 31 0 4
      vertex 25.7 0 2
    endloop
  endfacet
  facet normal 0 -1 0
    outer loop
      vertex 25.7 0 4
      vertex 25.7 0 2
      vertex 31 0 4
    endloop
  endfacet
  facet normal 0 -1 0
    outer loop
      vertex 70.125 0 0
      vertex 25.7 0 2
      vertex 5 0 0
    endloop
  endfacet
  facet normal -0 -1 0
    outer loop
      vertex 25.7 0 2
      vertex 11.7 0 2
      vertex 5 0 0
    endloop
  endfacet
  facet normal -0 -1 0
    outer loop
      vertex 11.7 0 2
      vertex 5 0 4
      vertex 5 0 0
    endloop
  endfacet
  facet normal -0 -1 -0
    outer loop
      vertex 11.7 0 4
      vertex 5 0 4
      vertex 11.7 0 2
    endloop
  endfacet
  facet normal 1 -0 0
    outer loop
      vertex 70.125 0 12.2
      vertex 70.125 1.11577e-15 0
      vertex 70.125 1.11577e-15 12.2
    endloop
  endfacet
  facet normal 1 0 0
    outer loop
      vertex 70.125 0 12.2
      vertex 70.125 0 0
      vertex 70.125 1.11577e-15 0
    endloop
  endfacet
  facet normal 0.104528 -0.994522 0
    outer loop
      vertex 76.1896 0.109262 0
      vertex 75.15 2.97736e-16 12.2
      vertex 75.15 2.97736e-16 0
    endloop
  endfacet
  facet normal 0.104528 -0.994522 0
    outer loop
      vertex 76.1896 0.109262 0
      vertex 76.1896 0.109262 12.2
      vertex 75.15 2.97736e-16 12.2
    endloop
  endfacet
  facet normal 0.309017 -0.951057 0
    outer loop
      vertex 77.1837 0.432273 0
      vertex 76.1896 0.109262 12.2
      vertex 76.1896 0.109262 0
    endloop
  endfacet
  facet normal 0.309017 -0.951057 0
    outer loop
      vertex 77.1837 0.432273 0
      vertex 77.1837 0.432273 12.2
      vertex 76.1896 0.109262 12.2
    endloop
  endfacet
  facet normal 1 0 0
    outer loop
      vertex 80.1226 5 0
      vertex 80.1226 4.47736 12.2
      vertex 80.1226 4.47736 0
    endloop
  endfacet
  facet normal 1 0 -0
    outer loop
      vertex 80.1226 5 0
      vertex 80.1226 5 12.2
      vertex 80.1226 4.47736 12.2
    endloop
  endfacet
  facet normal 0.809017 -0.587785 0
    outer loop
      vertex 79.4801 2.5 0
      vertex 78.8657 1.65435 12.2
      vertex 78.8657 1.65435 0
    endloop
  endfacet
  facet normal 0.809017 -0.587785 0
    outer loop
      vertex 79.4801 2.5 0
      vertex 79.4801 2.5 12.2
      vertex 78.8657 1.65435 12.2
    endloop
  endfacet
  facet normal 0.669131 -0.743145 0
    outer loop
      vertex 78.8657 1.65435 0
      vertex 78.0889 0.954915 12.2
      vertex 78.0889 0.954915 0
    endloop
  endfacet
  facet normal 0.669131 -0.743145 0
    outer loop
      vertex 78.8657 1.65435 0
      vertex 78.8657 1.65435 12.2
      vertex 78.0889 0.954915 12.2
    endloop
  endfacet
  facet normal 0.5 -0.866025 0
    outer loop
      vertex 78.0889 0.954915 0
      vertex 77.1837 0.432273 12.2
      vertex 77.1837 0.432273 0
    endloop
  endfacet
  facet normal 0.5 -0.866025 0
    outer loop
      vertex 78.0889 0.954915 0
      vertex 78.0889 0.954915 12.2
      vertex 77.1837 0.432273 12.2
    endloop
  endfacet
  facet normal 0.913545 -0.406737 0
    outer loop
      vertex 79.9053 3.45492 0
      vertex 79.4801 2.5 12.2
      vertex 79.4801 2.5 0
    endloop
  endfacet
  facet normal 0.913545 -0.406737 0
    outer loop
      vertex 79.9053 3.45492 0
      vertex 79.9053 3.45492 12.2
      vertex 79.4801 2.5 12.2
    endloop
  endfacet
  facet normal 0.978148 -0.207912 0
    outer loop
      vertex 80.1226 4.47736 0
      vertex 79.9053 3.45492 12.2
      vertex 79.9053 3.45492 0
    endloop
  endfacet
  facet normal 0.978148 -0.207912 0
    outer loop
      vertex 80.1226 4.47736 0
      vertex 80.1226 4.47736 12.2
      vertex 79.9053 3.45492 12.2
    endloop
  endfacet
  facet normal -2.22045e-16 -1 0
    outer loop
      vertex 75.15 0 0
      vertex 70.125 1.11577e-15 12.2
      vertex 70.125 1.11577e-15 0
    endloop
  endfacet
  facet normal -2.22045e-16 -1 0
    outer loop
      vertex 75.15 0 0
      vertex 75.15 0 12.2
      vertex 70.125 1.11577e-15 12.2
    endloop
  endfacet
  facet normal 1 0 0
    outer loop
      vertex 75.15 2.97736e-16 0
      vertex 75.15 0 12.2
      vertex 75.15 0 0
    endloop
  endfacet
  facet normal 1 0 -0
    outer loop
      vertex 75.15 2.97736e-16 0
      vertex 75.15 2.97736e-16 12.2
      vertex 75.15 0 12.2
    endloop
  endfacet
  facet normal 0 -1 0
    outer loop
      vertex 80.15 5 0
      vertex 80.1226 5 12.2
      vertex 80.1226 5 0
    endloop
  endfacet
  facet normal 0 -1 0
    outer loop
      vertex 80.15 5 0
      vertex 80.15 5 12.2
      vertex 80.1226 5 12.2
    endloop
  endfacet
  facet normal 0.994522 0.104528 0
    outer loop
      vertex 80.15 46.15 12.2
      vertex 80.15 46.15 0
      vertex 80.0407 47.1896 0
    endloop
  endfacet
  facet normal 0.994522 0.104528 0
    outer loop
      vertex 80.0407 47.1896 12.2
      vertex 80.15 46.15 12.2
      vertex 80.0407 47.1896 0
    endloop
  endfacet
  facet normal 0.951057 0.309017 0
    outer loop
      vertex 80.0407 47.1896 12.2
      vertex 80.0407 47.1896 0
      vertex 79.7177 48.1837 0
    endloop
  endfacet
  facet normal 0.951057 0.309017 0
    outer loop
      vertex 79.7177 48.1837 12.2
      vertex 80.0407 47.1896 12.2
      vertex 79.7177 48.1837 0
    endloop
  endfacet
  facet normal 0 1 0
    outer loop
      vertex 75.15 51.1226 0
      vertex 75.15 51.1226 12.2
      vertex 75.6726 51.1226 0
    endloop
  endfacet
  facet normal 0 1 -0
    outer loop
      vertex 75.6726 51.1226 0
      vertex 75.15 51.1226 12.2
      vertex 75.6726 51.1226 12.2
    endloop
  endfacet
  facet normal 0.587785 0.809017 -0
    outer loop
      vertex 77.65 50.4801 0
      vertex 77.65 50.4801 12.2
      vertex 78.4957 49.8657 0
    endloop
  endfacet
  facet normal 0.587785 0.809017 -0
    outer loop
      vertex 78.4957 49.8657 0
      vertex 77.65 50.4801 12.2
      vertex 78.4957 49.8657 12.2
    endloop
  endfacet
  facet normal 0.743145 0.669131 0
    outer loop
      vertex 79.1951 49.0889 12.2
      vertex 79.1951 49.0889 0
      vertex 78.4957 49.8657 0
    endloop
  endfacet
  facet normal 0.743145 0.669131 0
    outer loop
      vertex 78.4957 49.8657 12.2
      vertex 79.1951 49.0889 12.2
      vertex 78.4957 49.8657 0
    endloop
  endfacet
  facet normal 0.866025 0.5 0
    outer loop
      vertex 79.7177 48.1837 12.2
      vertex 79.7177 48.1837 0
      vertex 79.1951 49.0889 0
    endloop
  endfacet
  facet normal 0.866025 0.5 0
    outer loop
      vertex 79.1951 49.0889 12.2
      vertex 79.7177 48.1837 12.2
      vertex 79.1951 49.0889 0
    endloop
  endfacet
  facet normal 0.406737 0.913545 -0
    outer loop
      vertex 76.6951 50.9053 0
      vertex 76.6951 50.9053 12.2
      vertex 77.65 50.4801 0
    endloop
  endfacet
  facet normal 0.406737 0.913545 -0
    outer loop
      vertex 77.65 50.4801 0
      vertex 76.6951 50.9053 12.2
      vertex 77.65 50.4801 12.2
    endloop
  endfacet
  facet normal 0.207912 0.978148 -0
    outer loop
      vertex 75.6726 51.1226 0
      vertex 75.6726 51.1226 12.2
      vertex 76.6951 50.9053 0
    endloop
  endfacet
  facet normal 0.207912 0.978148 -0
    outer loop
      vertex 76.6951 50.9053 0
      vertex 75.6726 51.1226 12.2
      vertex 76.6951 50.9053 12.2
    endloop
  endfacet
  facet normal 1 -2.82803e-15 0
    outer loop
      vertex 80.15 46.15 0
      vertex 80.15 41.125 12.2
      vertex 80.15 41.125 0
    endloop
  endfacet
  facet normal 1 -2.82803e-15 0
    outer loop
      vertex 80.15 46.15 0
      vertex 80.15 46.15 12.2
      vertex 80.15 41.125 12.2
    endloop
  endfacet
  facet normal 1 0 0
    outer loop
      vertex 75.15 51.15 0
      vertex 75.15 51.1226 12.2
      vertex 75.15 51.1226 0
    endloop
  endfacet
  facet normal 1 0 -0
    outer loop
      vertex 75.15 51.15 0
      vertex 75.15 51.15 12.2
      vertex 75.15 51.1226 12.2
    endloop
  endfacet
  facet normal -0.104528 0.994522 0
    outer loop
      vertex 3.96044 51.0407 0
      vertex 3.96044 51.0407 12.2
      vertex 5 51.15 0
    endloop
  endfacet
  facet normal -0.104528 0.994522 0
    outer loop
      vertex 5 51.15 0
      vertex 3.96044 51.0407 12.2
      vertex 5 51.15 12.2
    endloop
  endfacet
  facet normal -0.309017 0.951057 0
    outer loop
      vertex 2.96632 50.7177 0
      vertex 2.96632 50.7177 12.2
      vertex 3.96044 51.0407 0
    endloop
  endfacet
  facet normal -0.309017 0.951057 0
    outer loop
      vertex 3.96044 51.0407 0
      vertex 2.96632 50.7177 12.2
      vertex 3.96044 51.0407 12.2
    endloop
  endfacet
  facet normal -1 2.19063e-16 0
    outer loop
      vertex 0.0273905 46.15 0
      vertex 0.0273905 46.15 12.2
      vertex 0.0273905 46.6726 0
    endloop
  endfacet
  facet normal -1 2.19063e-16 0
    outer loop
      vertex 0.0273905 46.6726 0
      vertex 0.0273905 46.15 12.2
      vertex 0.0273905 46.6726 12.2
    endloop
  endfacet
  facet normal -0.809017 0.587785 0
    outer loop
      vertex 0.669873 48.65 0
      vertex 0.669873 48.65 12.2
      vertex 1.28428 49.4957 0
    endloop
  endfacet
  facet normal -0.809017 0.587785 0
    outer loop
      vertex 1.28428 49.4957 0
      vertex 0.669873 48.65 12.2
      vertex 1.28428 49.4957 12.2
    endloop
  endfacet
  facet normal -0.669131 0.743145 0
    outer loop
      vertex 1.28428 49.4957 0
      vertex 1.28428 49.4957 12.2
      vertex 2.06107 50.1951 0
    endloop
  endfacet
  facet normal -0.669131 0.743145 0
    outer loop
      vertex 2.06107 50.1951 0
      vertex 1.28428 49.4957 12.2
      vertex 2.06107 50.1951 12.2
    endloop
  endfacet
  facet normal -0.5 0.866025 0
    outer loop
      vertex 2.06107 50.1951 0
      vertex 2.06107 50.1951 12.2
      vertex 2.96632 50.7177 0
    endloop
  endfacet
  facet normal -0.5 0.866025 0
    outer loop
      vertex 2.96632 50.7177 0
      vertex 2.06107 50.1951 12.2
      vertex 2.96632 50.7177 12.2
    endloop
  endfacet
  facet normal -0.913545 0.406737 0
    outer loop
      vertex 0.244717 47.6951 0
      vertex 0.244717 47.6951 12.2
      vertex 0.669873 48.65 0
    endloop
  endfacet
  facet normal -0.913545 0.406737 0
    outer loop
      vertex 0.669873 48.65 0
      vertex 0.244717 47.6951 12.2
      vertex 0.669873 48.65 12.2
    endloop
  endfacet
  facet normal -0.978148 0.207912 0
    outer loop
      vertex 0.0273905 46.6726 0
      vertex 0.0273905 46.6726 12.2
      vertex 0.244717 47.6951 0
    endloop
  endfacet
  facet normal -0.978148 0.207912 0
    outer loop
      vertex 0.244717 47.6951 0
      vertex 0.0273905 46.6726 12.2
      vertex 0.244717 47.6951 12.2
    endloop
  endfacet
  facet normal 1.41402e-15 1 -0
    outer loop
      vertex 5 51.15 0
      vertex 5 51.15 12.2
      vertex 10.025 51.15 0
    endloop
  endfacet
  facet normal 1.41402e-15 1 -0
    outer loop
      vertex 10.025 51.15 0
      vertex 5 51.15 12.2
      vertex 10.025 51.15 12.2
    endloop
  endfacet
  facet normal 0 1 0
    outer loop
      vertex 0 46.15 0
      vertex 0 46.15 12.2
      vertex 0.0273905 46.15 0
    endloop
  endfacet
  facet normal 0 1 -0
    outer loop
      vertex 0.0273905 46.15 0
      vertex 0 46.15 12.2
      vertex 0.0273905 46.15 12.2
    endloop
  endfacet
  facet normal 1 -0 0
    outer loop
      vertex 3.7 0.192623 12.2
      vertex 3.7 47.45 4
      vertex 3.7 47.45 12.2
    endloop
  endfacet
  facet normal 1 0 0
    outer loop
      vertex 3.7 0.192623 12.2
      vertex 3.7 0.192623 4
      vertex 3.7 47.45 4
    endloop
  endfacet
  facet normal 0 1 0
    outer loop
      vertex 76.45 3.7 12.2
      vertex 76.45 3.7 6.2
      vertex 31 3.7 12.2
    endloop
  endfacet
  facet normal 0 1 0
    outer loop
      vertex 31 3.7 12.2
      vertex 76.45 3.7 6.2
      vertex 31 3.7 6.2
    endloop
  endfacet
  facet normal -0 0 1
    outer loop
      vertex 31 7.2 6.2
      vertex 76.45 3.7 6.2
      vertex 76.45 7.2 6.2
    endloop
  endfacet
  facet normal 0 0 1
    outer loop
      vertex 31 7.2 6.2
      vertex 31 3.7 6.2
      vertex 76.45 3.7 6.2
    endloop
  endfacet
  facet normal 0 0 1
    outer loop
      vertex 61.7 47.15 6.2
      vertex 61.7 43.95 6.2
      vertex 76.45 43.95 6.2
    endloop
  endfacet
  facet normal -0 0 1
    outer loop
      vertex 61.7 47.15 6.2
      vertex 76.45 43.95 6.2
      vertex 76.45 47.45 6.2
    endloop
  endfacet
  facet normal 0 -0 1
    outer loop
      vertex 61.7 47.15 6.2
      vertex 76.45 47.45 6.2
      vertex 46.7 47.15 6.2
    endloop
  endfacet
  facet normal 0 0 1
    outer loop
      vertex 76.45 47.45 6.2
      vertex 31 47.45 6.2
      vertex 46.7 47.15 6.2
    endloop
  endfacet
  facet normal 0 0 1
    outer loop
      vertex 31 43.95 6.2
      vertex 46.7 43.95 6.2
      vertex 46.7 47.15 6.2
    endloop
  endfacet
  facet normal 0 0 1
    outer loop
      vertex 31 43.95 6.2
      vertex 46.7 47.15 6.2
      vertex 31 47.45 6.2
    endloop
  endfacet
  facet normal 0 -1 0
    outer loop
      vertex 3.7 47.45 12.2
      vertex 11.7 47.45 4
      vertex 11.7 47.45 12.2
    endloop
  endfacet
  facet normal 0 -1 0
    outer loop
      vertex 3.7 47.45 12.2
      vertex 3.7 47.45 4
      vertex 11.7 47.45 4
    endloop
  endfacet
  facet normal 0 -1 0
    outer loop
      vertex 76.45 47.45 6.2
      vertex 76.45 47.45 12.2
      vertex 31 47.45 6.2
    endloop
  endfacet
  facet normal -0 -1 0
    outer loop
      vertex 76.45 47.45 12.2
      vertex 25.7 47.45 12.2
      vertex 31 47.45 6.2
    endloop
  endfacet
  facet normal 0 -1 0
    outer loop
      vertex 25.7 47.45 4
      vertex 31 47.45 4
      vertex 31 47.45 6.2
    endloop
  endfacet
  facet normal 0 -1 0
    outer loop
      vertex 25.7 47.45 4
      vertex 31 47.45 6.2
      vertex 25.7 47.45 12.2
    endloop
  endfacet
  facet normal -1 -0 0
    outer loop
      vertex 76.45 47.45 12.2
      vertex 76.45 43.95 6.2
      vertex 76.45 3.7 12.2
    endloop
  endfacet
  facet normal -1 0 -0
    outer loop
      vertex 76.45 47.45 12.2
      vertex 76.45 47.45 6.2
      vertex 76.45 43.95 6.2
    endloop
  endfacet
  facet normal -1 0 0
    outer loop
      vertex 76.45 7.2 6.2
      vertex 76.45 3.7 6.2
      vertex 76.45 3.7 12.2
    endloop
  endfacet
  facet normal -1 -0 -0
    outer loop
      vertex 76.45 43.95 6.2
      vertex 76.45 43.95 0
      vertex 76.45 7.2 6.2
    endloop
  endfacet
  facet normal -1 0 0
    outer loop
      vertex 76.45 43.95 0
      vertex 76.45 7.2 0
      vertex 76.45 7.2 6.2
    endloop
  endfacet
  facet normal -1 0 0
    outer loop
      vertex 76.45 43.95 6.2
      vertex 76.45 7.2 6.2
      vertex 76.45 3.7 12.2
    endloop
  endfacet
  facet normal 1 -0 0
    outer loop
      vertex 7.4 7.2 4
      vertex 7.4 43.95 0
      vertex 7.4 43.95 4
    endloop
  endfacet
  facet normal 1 0 0
    outer loop
      vertex 7.4 7.2 4
      vertex 7.4 7.2 0
      vertex 7.4 43.95 0
    endloop
  endfacet
  facet normal 0 1 0
    outer loop
      vertex 11.7 7.2 4
      vertex 11.7 7.2 2
      vertex 7.4 7.2 4
    endloop
  endfacet
  facet normal 0 1 0
    outer loop
      vertex 7.4 7.2 0
      vertex 25.7 7.2 2
      vertex 76.45 7.2 0
    endloop
  endfacet
  facet normal 0 1 0
    outer loop
      vertex 31 7.2 4
      vertex 25.7 7.2 2
      vertex 25.7 7.2 4
    endloop
  endfacet
  facet normal 0 1 -0
    outer loop
      vertex 76.45 7.2 0
      vertex 31 7.2 4
      vertex 76.45 7.2 6.2
    endloop
  endfacet
  facet normal 0 1 0
    outer loop
      vertex 76.45 7.2 6.2
      vertex 31 7.2 4
      vertex 31 7.2 6.2
    endloop
  endfacet
  facet normal -0 1 0
    outer loop
      vertex 25.7 7.2 2
      vertex 31 7.2 4
      vertex 76.45 7.2 0
    endloop
  endfacet
  facet normal -0 1 0
    outer loop
      vertex 11.7 7.2 2
      vertex 25.7 7.2 2
      vertex 7.4 7.2 0
    endloop
  endfacet
  facet normal 0 1 0
    outer loop
      vertex 7.4 7.2 4
      vertex 11.7 7.2 2
      vertex 7.4 7.2 0
    endloop
  endfacet
  facet normal 0 -1 0
    outer loop
      vertex 61.7 43.95 4.1
      vertex 76.45 43.95 0
      vertex 76.45 43.95 6.2
    endloop
  endfacet
  facet normal 0 -1 0
    outer loop
      vertex 61.7 43.95 6.2
      vertex 61.7 43.95 4.1
      vertex 76.45 43.95 6.2
    endloop
  endfacet
  facet normal 0 -1 0
    outer loop
      vertex 46.7 43.95 4.1
      vertex 76.45 43.95 0
      vertex 61.7 43.95 4.1
    endloop
  endfacet
  facet normal -0 -1 -0
    outer loop
      vertex 46.7 43.95 6.2
      vertex 31 43.95 6.2
      vertex 46.7 43.95 4.1
    endloop
  endfacet
  facet normal 0 -1 0
    outer loop
      vertex 25.7 43.95 2
      vertex 76.45 43.95 0
      vertex 46.7 43.95 4.1
    endloop
  endfacet
  facet normal 0 -1 0
    outer loop
      vertex 31 43.95 6.2
      vertex 31 43.95 4
      vertex 46.7 43.95 4.1
    endloop
  endfacet
  facet normal 0 -1 0
    outer loop
      vertex 25.7 43.95 2
      vertex 46.7 43.95 4.1
      vertex 31 43.95 4
    endloop
  endfacet
  facet normal 0 -1 0
    outer loop
      vertex 25.7 43.95 4
      vertex 25.7 43.95 2
      vertex 31 43.95 4
    endloop
  endfacet
  facet normal 0 -1 0
    outer loop
      vertex 7.4 43.95 0
      vertex 76.45 43.95 0
      vertex 25.7 43.95 2
    endloop
  endfacet
  facet normal 0 -1 0
    outer loop
      vertex 7.4 43.95 4
      vertex 11.7 43.95 2
      vertex 11.7 43.95 4
    endloop
  endfacet
  facet normal 0 -1 0
    outer loop
      vertex 7.4 43.95 4
      vertex 7.4 43.95 0
      vertex 11.7 43.95 2
    endloop
  endfacet
  facet normal 0 -1 0
    outer loop
      vertex 7.4 43.95 0
      vertex 25.7 43.95 2
      vertex 11.7 43.95 2
    endloop
  endfacet
  facet normal 1 -0 0
    outer loop
      vertex 46.7 43.95 6.2
      vertex 46.7 47.15 4.1
      vertex 46.7 47.15 6.2
    endloop
  endfacet
  facet normal 1 0 0
    outer loop
      vertex 46.7 43.95 6.2
      vertex 46.7 43.95 4.1
      vertex 46.7 47.15 4.1
    endloop
  endfacet
  facet normal -0 0 1
    outer loop
      vertex 46.7 47.15 4.1
      vertex 61.7 43.95 4.1
      vertex 61.7 47.15 4.1
    endloop
  endfacet
  facet normal 0 0 1
    outer loop
      vertex 46.7 47.15 4.1
      vertex 46.7 43.95 4.1
      vertex 61.7 43.95 4.1
    endloop
  endfacet
  facet normal 0 -1 0
    outer loop
      vertex 46.7 47.15 6.2
      vertex 61.7 47.15 4.1
      vertex 61.7 47.15 6.2
    endloop
  endfacet
  facet normal 0 -1 0
    outer loop
      vertex 46.7 47.15 6.2
      vertex 46.7 47.15 4.1
      vertex 61.7 47.15 4.1
    endloop
  endfacet
  facet normal -1 -0 -0
    outer loop
      vertex 61.7 47.15 6.2
      vertex 61.7 47.15 4.1
      vertex 61.7 43.95 6.2
    endloop
  endfacet
  facet normal -1 0 0
    outer loop
      vertex 61.7 43.95 6.2
      vertex 61.7 47.15 4.1
      vertex 61.7 43.95 4.1
    endloop
  endfacet
  facet normal 1 -0 0
    outer loop
      vertex 11.7 0 4
      vertex 11.7 7.2 2
      vertex 11.7 7.2 4
    endloop
  endfacet
  facet normal 1 0 0
    outer loop
      vertex 11.7 0 4
      vertex 11.7 0 2
      vertex 11.7 7.2 2
    endloop
  endfacet
  facet normal 1 -0 0
    outer loop
      vertex 11.7 47.45 4
      vertex 11.7 51.15 2
      vertex 11.7 51.15 12.2
    endloop
  endfacet
  facet normal 1 -0 0
    outer loop
      vertex 11.7 47.45 12.2
      vertex 11.7 47.45 4
      vertex 11.7 51.15 12.2
    endloop
  endfacet
  facet normal 1 0 0
    outer loop
      vertex 11.7 43.95 2
      vertex 11.7 51.15 2
      vertex 11.7 47.45 4
    endloop
  endfacet
  facet normal 1 -0 0
    outer loop
      vertex 11.7 43.95 4
      vertex 11.7 43.95 2
      vertex 11.7 47.45 4
    endloop
  endfacet
  facet normal -0 0 1
    outer loop
      vertex 11.7 7.2 2
      vertex 25.7 0 2
      vertex 25.7 7.2 2
    endloop
  endfacet
  facet normal 0 0 1
    outer loop
      vertex 11.7 7.2 2
      vertex 11.7 0 2
      vertex 25.7 0 2
    endloop
  endfacet
  facet normal -0 0 1
    outer loop
      vertex 11.7 51.15 2
      vertex 25.7 43.95 2
      vertex 25.7 51.15 2
    endloop
  endfacet
  facet normal 0 0 1
    outer loop
      vertex 11.7 51.15 2
      vertex 11.7 43.95 2
      vertex 25.7 43.95 2
    endloop
  endfacet
  facet normal -1 -0 -0
    outer loop
      vertex 25.7 7.2 4
      vertex 25.7 7.2 2
      vertex 25.7 0 4
    endloop
  endfacet
  facet normal -1 0 0
    outer loop
      vertex 25.7 0 4
      vertex 25.7 7.2 2
      vertex 25.7 0 2
    endloop
  endfacet
  facet normal -1 0 0
    outer loop
      vertex 25.7 47.45 4
      vertex 25.7 47.45 12.2
      vertex 25.7 51.15 12.2
    endloop
  endfacet
  facet normal -1 0 0
    outer loop
      vertex 25.7 47.45 4
      vertex 25.7 51.15 12.2
      vertex 25.7 51.15 2
    endloop
  endfacet
  facet normal -1 -0 0
    outer loop
      vertex 25.7 47.45 4
      vertex 25.7 43.95 2
      vertex 25.7 43.95 4
    endloop
  endfacet
  facet normal -1 0 0
    outer loop
      vertex 25.7 51.15 2
      vertex 25.7 43.95 2
      vertex 25.7 47.45 4
    endloop
  endfacet
  facet normal 0 0 1
    outer loop
      vertex 5 0 4
      vertex 11.7 0 4
      vertex 5 0.0273905 4
    endloop
  endfacet
  facet normal 0 0 1
    outer loop
      vertex 11.7 0 4
      vertex 7.4 7.2 4
      vertex 5 0.0273905 4
    endloop
  endfacet
  facet normal 0 0 1
    outer loop
      vertex 3.7 0.192623 4
      vertex 4.47736 0.0273905 4
      vertex 5 0.0273905 4
    endloop
  endfacet
  facet normal -0 0 1
    outer loop
      vertex 7.4 7.2 4
      vertex 11.7 0 4
      vertex 11.7 7.2 4
    endloop
  endfacet
  facet normal 0 -0 1
    outer loop
      vertex 7.4 7.2 4
      vertex 7.4 43.95 4
      vertex 3.7 47.45 4
    endloop
  endfacet
  facet normal -0 0 1
    outer loop
      vertex 3.7 0.192623 4
      vertex 5 0.0273905 4
      vertex 7.4 7.2 4
    endloop
  endfacet
  facet normal 0 0 1
    outer loop
      vertex 11.7 47.45 4
      vertex 7.4 43.95 4
      vertex 11.7 43.95 4
    endloop
  endfacet
  facet normal -0 0 1
    outer loop
      vertex 3.7 47.45 4
      vertex 7.4 43.95 4
      vertex 11.7 47.45 4
    endloop
  endfacet
  facet normal 0 0 1
    outer loop
      vertex 3.7 0.192623 4
      vertex 7.4 7.2 4
      vertex 3.7 47.45 4
    endloop
  endfacet
  facet normal -0 0 1
    outer loop
      vertex 25.7 47.45 4
      vertex 31 43.95 4
      vertex 31 47.45 4
    endloop
  endfacet
  facet normal 0 0 1
    outer loop
      vertex 25.7 47.45 4
      vertex 25.7 43.95 4
      vertex 31 43.95 4
    endloop
  endfacet
  facet normal -0 0 1
    outer loop
      vertex 25.7 7.2 4
      vertex 31 0 4
      vertex 31 7.2 4
    endloop
  endfacet
  facet normal 0 0 1
    outer loop
      vertex 25.7 7.2 4
      vertex 25.7 0 4
      vertex 31 0 4
    endloop
  endfacet
  facet normal -1 -0 -0
    outer loop
      vertex 31 47.45 6.2
      vertex 31 47.45 4
      vertex 31 43.95 6.2
    endloop
  endfacet
  facet normal -1 0 0
    outer loop
      vertex 31 43.95 6.2
      vertex 31 47.45 4
      vertex 31 43.95 4
    endloop
  endfacet
  facet normal -1 -0 -0
    outer loop
      vertex 31 3.7 12.2
      vertex 31 3.7 6.2
      vertex 31 0 12.2
    endloop
  endfacet
  facet normal -1 0 0
    outer loop
      vertex 31 7.2 4
      vertex 31 3.7 6.2
      vertex 31 7.2 6.2
    endloop
  endfacet
  facet normal -1 0 0
    outer loop
      vertex 31 0 4
      vertex 31 3.7 6.2
      vertex 31 7.2 4
    endloop
  endfacet
  facet normal -1 0 0
    outer loop
      vertex 31 0 12.2
      vertex 31 3.7 6.2
      vertex 31 0 4
    endloop
  endfacet
  facet normal 0 0 -1
    outer loop
      vertex 0 5 0
      vertex 7.4 7.2 0
      vertex 2.97736e-16 5 0
    endloop
  endfacet
  facet normal 0 0 -1
    outer loop
      vertex 0 5 0
      vertex 0 46.15 0
      vertex 7.4 7.2 0
    endloop
  endfacet
  facet normal 0 0 -1
    outer loop
      vertex 0.0273905 46.15 0
      vertex 0.0273905 46.6726 0
      vertex 0.244717 47.6951 0
    endloop
  endfacet
  facet normal 0 0 -1
    outer loop
      vertex 7.4 7.2 0
      vertex 0.109262 3.96044 0
      vertex 2.97736e-16 5 0
    endloop
  endfacet
  facet normal 0 0 -1
    outer loop
      vertex 0.0273905 46.15 0
      vertex 0.244717 47.6951 0
      vertex 7.4 43.95 0
    endloop
  endfacet
  facet normal 0 0 -1
    outer loop
      vertex 0.244717 47.6951 0
      vertex 0.669873 48.65 0
      vertex 7.4 43.95 0
    endloop
  endfacet
  facet normal 0 0 -1
    outer loop
      vertex 0.669873 48.65 0
      vertex 1.28428 49.4957 0
      vertex 7.4 43.95 0
    endloop
  endfacet
  facet normal 0 0 -1
    outer loop
      vertex 1.28428 49.4957 0
      vertex 2.06107 50.1951 0
      vertex 7.4 43.95 0
    endloop
  endfacet
  facet normal 0 0 -1
    outer loop
      vertex 2.06107 50.1951 0
      vertex 2.96632 50.7177 0
      vertex 7.4 43.95 0
    endloop
  endfacet
  facet normal 0 0 -1
    outer loop
      vertex 2.96632 50.7177 0
      vertex 3.96044 51.0407 0
      vertex 7.4 43.95 0
    endloop
  endfacet
  facet normal 0 -0 -1
    outer loop
      vertex 5 51.15 0
      vertex 7.4 43.95 0
      vertex 3.96044 51.0407 0
    endloop
  endfacet
  facet normal 0 0 -1
    outer loop
      vertex 76.45 7.2 0
      vertex 76.45 43.95 0
      vertex 80.15 41.125 0
    endloop
  endfacet
  facet normal 0 0 -1
    outer loop
      vertex 10.025 51.15 0
      vertex 75.15 51.15 0
      vertex 75.15 51.1226 0
    endloop
  endfacet
  facet normal 0 0 -1
    outer loop
      vertex 76.45 43.95 0
      vertex 7.4 43.95 0
      vertex 10.025 51.15 0
    endloop
  endfacet
  facet normal 0 0 -1
    outer loop
      vertex 75.15 51.1226 0
      vertex 75.6726 51.1226 0
      vertex 76.45 43.95 0
    endloop
  endfacet
  facet normal 0 0 -1
    outer loop
      vertex 75.6726 51.1226 0
      vertex 76.6951 50.9053 0
      vertex 76.45 43.95 0
    endloop
  endfacet
  facet normal 0 -0 -1
    outer loop
      vertex 76.6951 50.9053 0
      vertex 77.65 50.4801 0
      vertex 76.45 43.95 0
    endloop
  endfacet
  facet normal 0 -0 -1
    outer loop
      vertex 77.65 50.4801 0
      vertex 78.4957 49.8657 0
      vertex 76.45 43.95 0
    endloop
  endfacet
  facet normal 0 -0 -1
    outer loop
      vertex 78.4957 49.8657 0
      vertex 79.1951 49.0889 0
      vertex 76.45 43.95 0
    endloop
  endfacet
  facet normal 0 -0 -1
    outer loop
      vertex 79.1951 49.0889 0
      vertex 79.7177 48.1837 0
      vertex 76.45 43.95 0
    endloop
  endfacet
  facet normal 0 -0 -1
    outer loop
      vertex 79.7177 48.1837 0
      vertex 80.0407 47.1896 0
      vertex 76.45 43.95 0
    endloop
  endfacet
  facet normal -0 0 -1
    outer loop
      vertex 80.15 46.15 0
      vertex 76.45 43.95 0
      vertex 80.0407 47.1896 0
    endloop
  endfacet
  facet normal 0 0 -1
    outer loop
      vertex 76.45 43.95 0
      vertex 10.025 51.15 0
      vertex 75.15 51.1226 0
    endloop
  endfacet
  facet normal 0 -0 -1
    outer loop
      vertex 80.15 41.125 0
      vertex 80.15 5 0
      vertex 76.45 7.2 0
    endloop
  endfacet
  facet normal 0 0 -1
    outer loop
      vertex 0.432273 2.96632 0
      vertex 0.109262 3.96044 0
      vertex 7.4 7.2 0
    endloop
  endfacet
  facet normal 0 0 -1
    outer loop
      vertex 80.1226 4.47736 0
      vertex 76.45 7.2 0
      vertex 80.1226 5 0
    endloop
  endfacet
  facet normal 0 0 -1
    outer loop
      vertex 79.9053 3.45492 0
      vertex 76.45 7.2 0
      vertex 80.1226 4.47736 0
    endloop
  endfacet
  facet normal 0 0 -1
    outer loop
      vertex 79.4801 2.5 0
      vertex 76.45 7.2 0
      vertex 79.9053 3.45492 0
    endloop
  endfacet
  facet normal 0 0 -1
    outer loop
      vertex 78.8657 1.65435 0
      vertex 76.45 7.2 0
      vertex 79.4801 2.5 0
    endloop
  endfacet
  facet normal 0 0 -1
    outer loop
      vertex 78.0889 0.954915 0
      vertex 76.45 7.2 0
      vertex 78.8657 1.65435 0
    endloop
  endfacet
  facet normal 0 0 -1
    outer loop
      vertex 77.1837 0.432273 0
      vertex 76.45 7.2 0
      vertex 78.0889 0.954915 0
    endloop
  endfacet
  facet normal 0 0 -1
    outer loop
      vertex 76.1896 0.109262 0
      vertex 76.45 7.2 0
      vertex 77.1837 0.432273 0
    endloop
  endfacet
  facet normal 0 0 -1
    outer loop
      vertex 75.15 2.97736e-16 0
      vertex 76.45 7.2 0
      vertex 76.1896 0.109262 0
    endloop
  endfacet
  facet normal 0 0 -1
    outer loop
      vertex 75.15 0 0
      vertex 70.125 1.11577e-15 0
      vertex 75.15 2.97736e-16 0
    endloop
  endfacet
  facet normal 0 0 -1
    outer loop
      vertex 70.125 0 0
      vertex 7.4 7.2 0
      vertex 70.125 1.11577e-15 0
    endloop
  endfacet
  facet normal 0 0 -1
    outer loop
      vertex 70.125 0 0
      vertex 5 0 0
      vertex 7.4 7.2 0
    endloop
  endfacet
  facet normal 0 0 -1
    outer loop
      vertex 7.4 7.2 0
      vertex 0 46.15 0
      vertex 7.4 43.95 0
    endloop
  endfacet
  facet normal 0 0 -1
    outer loop
      vertex 4.47736 0.0273905 0
      vertex 3.45492 0.244717 0
      vertex 5 0.0273905 0
    endloop
  endfacet
  facet normal 0 0 -1
    outer loop
      vertex 3.45492 0.244717 0
      vertex 7.4 7.2 0
      vertex 5 0.0273905 0
    endloop
  endfacet
  facet normal 0 0 -1
    outer loop
      vertex 2.5 0.669873 0
      vertex 7.4 7.2 0
      vertex 3.45492 0.244717 0
    endloop
  endfacet
  facet normal 0 0 -1
    outer loop
      vertex 1.65435 1.28428 0
      vertex 7.4 7.2 0
      vertex 2.5 0.669873 0
    endloop
  endfacet
  facet normal 0 0 -1
    outer loop
      vertex 0.954915 2.06107 0
      vertex 7.4 7.2 0
      vertex 1.65435 1.28428 0
    endloop
  endfacet
  facet normal 0 0 -1
    outer loop
      vertex 0.432273 2.96632 0
      vertex 7.4 7.2 0
      vertex 0.954915 2.06107 0
    endloop
  endfacet
  facet normal 0 0 -1
    outer loop
      vertex 5 51.15 0
      vertex 10.025 51.15 0
      vertex 7.4 43.95 0
    endloop
  endfacet
  facet normal -0 -0 -1
    outer loop
      vertex 0.0273905 46.15 0
      vertex 7.4 43.95 0
      vertex 0 46.15 0
    endloop
  endfacet
  facet normal 0 0 -1
    outer loop
      vertex 5 0 0
      vertex 5 0.0273905 0
      vertex 7.4 7.2 0
    endloop
  endfacet
  facet normal 0 0 -1
    outer loop
      vertex 75.15 2.97736e-16 0
      vertex 70.125 1.11577e-15 0
      vertex 76.45 7.2 0
    endloop
  endfacet
  facet normal 0 0 -1
    outer loop
      vertex 80.1226 5 0
      vertex 76.45 7.2 0
      vertex 80.15 5 0
    endloop
  endfacet
  facet normal 0 0 -1
    outer loop
      vertex 80.15 41.125 0
      vertex 76.45 43.95 0
      vertex 80.15 46.15 0
    endloop
  endfacet
  facet normal -0 0 -1
    outer loop
      vertex 76.45 7.2 0
      vertex 70.125 1.11577e-15 0
      vertex 7.4 7.2 0
    endloop
  endfacet
  facet normal -0 1 0
    outer loop
      vertex 25.7 51.15 2
      vertex 75.15 51.15 12.2
      vertex 75.15 51.15 0
    endloop
  endfacet
  facet normal 0 1 0
    outer loop
      vertex 10.025 51.15 0
      vertex 10.025 51.15 12.2
      vertex 11.7 51.15 2
    endloop
  endfacet
  facet normal -0 1 0
    outer loop
      vertex 10.025 51.15 12.2
      vertex 11.7 51.15 12.2
      vertex 11.7 51.15 2
    endloop
  endfacet
  facet normal 0 1 0
    outer loop
      vertex 10.025 51.15 0
      vertex 25.7 51.15 2
      vertex 75.15 51.15 0
    endloop
  endfacet
  facet normal -0 1 0
    outer loop
      vertex 11.7 51.15 2
      vertex 25.7 51.15 2
      vertex 10.025 51.15 0
    endloop
  endfacet
  facet normal 0 1 0
    outer loop
      vertex 25.7 51.15 2
      vertex 25.7 51.15 12.2
      vertex 75.15 51.15 12.2
    endloop
  endfacet
  facet normal 0 0 1
    outer loop
      vertex 70.125 1.11577e-15 12.2
      vertex 75.15 0 12.2
      vertex 75.15 2.97736e-16 12.2
    endloop
  endfacet
  facet normal 0 0 1
    outer loop
      vertex 75.15 51.15 12.2
      vertex 25.7 51.15 12.2
      vertex 75.15 51.1226 12.2
    endloop
  endfacet
  facet normal 0 0 1
    outer loop
      vertex 76.45 47.45 12.2
      vertex 80.15 41.125 12.2
      vertex 80.15 46.15 12.2
    endloop
  endfacet
  facet normal 0 0 1
    outer loop
      vertex 76.45 3.7 12.2
      vertex 77.1837 0.432273 12.2
      vertex 78.0889 0.954915 12.2
    endloop
  endfacet
  facet normal 0 -0 1
    outer loop
      vertex 70.125 1.11577e-15 12.2
      vertex 76.45 3.7 12.2
      vertex 31 3.7 12.2
    endloop
  endfacet
  facet normal 0 0 1
    outer loop
      vertex 31 3.7 12.2
      vertex 31 0 12.2
      vertex 70.125 1.11577e-15 12.2
    endloop
  endfacet
  facet normal 0 0 1
    outer loop
      vertex 70.125 1.11577e-15 12.2
      vertex 31 0 12.2
      vertex 70.125 0 12.2
    endloop
  endfacet
  facet normal -0 0 1
    outer loop
      vertex 70.125 1.11577e-15 12.2
      vertex 75.15 2.97736e-16 12.2
      vertex 76.45 3.7 12.2
    endloop
  endfacet
  facet normal 0 0 1
    outer loop
      vertex 75.15 2.97736e-16 12.2
      vertex 76.1896 0.109262 12.2
      vertex 76.45 3.7 12.2
    endloop
  endfacet
  facet normal 0 0 1
    outer loop
      vertex 76.45 3.7 12.2
      vertex 76.1896 0.109262 12.2
      vertex 77.1837 0.432273 12.2
    endloop
  endfacet
  facet normal 0 0 1
    outer loop
      vertex 76.45 3.7 12.2
      vertex 78.0889 0.954915 12.2
      vertex 78.8657 1.65435 12.2
    endloop
  endfacet
  facet normal 0 0 1
    outer loop
      vertex 76.45 3.7 12.2
      vertex 78.8657 1.65435 12.2
      vertex 79.4801 2.5 12.2
    endloop
  endfacet
  facet normal 0 0 1
    outer loop
      vertex 76.45 3.7 12.2
      vertex 79.4801 2.5 12.2
      vertex 79.9053 3.45492 12.2
    endloop
  endfacet
  facet normal -0 0 1
    outer loop
      vertex 76.45 3.7 12.2
      vertex 79.9053 3.45492 12.2
      vertex 80.1226 4.47736 12.2
    endloop
  endfacet
  facet normal 0 0 1
    outer loop
      vertex 76.45 3.7 12.2
      vertex 80.1226 4.47736 12.2
      vertex 80.1226 5 12.2
    endloop
  endfacet
  facet normal 0 0 1
    outer loop
      vertex 76.45 3.7 12.2
      vertex 80.1226 5 12.2
      vertex 80.15 41.125 12.2
    endloop
  endfacet
  facet normal 0 0 1
    outer loop
      vertex 80.1226 5 12.2
      vertex 80.15 5 12.2
      vertex 80.15 41.125 12.2
    endloop
  endfacet
  facet normal 0 0 1
    outer loop
      vertex 76.45 47.45 12.2
      vertex 80.15 46.15 12.2
      vertex 80.0407 47.1896 12.2
    endloop
  endfacet
  facet normal 0 0 1
    outer loop
      vertex 76.45 47.45 12.2
      vertex 75.15 51.1226 12.2
      vertex 25.7 47.45 12.2
    endloop
  endfacet
  facet normal 0 0 1
    outer loop
      vertex 80.0407 47.1896 12.2
      vertex 79.7177 48.1837 12.2
      vertex 76.45 47.45 12.2
    endloop
  endfacet
  facet normal 0 0 1
    outer loop
      vertex 79.7177 48.1837 12.2
      vertex 79.1951 49.0889 12.2
      vertex 76.45 47.45 12.2
    endloop
  endfacet
  facet normal 0 0 1
    outer loop
      vertex 79.1951 49.0889 12.2
      vertex 78.4957 49.8657 12.2
      vertex 76.45 47.45 12.2
    endloop
  endfacet
  facet normal 0 0 1
    outer loop
      vertex 78.4957 49.8657 12.2
      vertex 77.65 50.4801 12.2
      vertex 76.45 47.45 12.2
    endloop
  endfacet
  facet normal 0 0 1
    outer loop
      vertex 77.65 50.4801 12.2
      vertex 76.6951 50.9053 12.2
      vertex 76.45 47.45 12.2
    endloop
  endfacet
  facet normal 0 0 1
    outer loop
      vertex 76.6951 50.9053 12.2
      vertex 75.6726 51.1226 12.2
      vertex 76.45 47.45 12.2
    endloop
  endfacet
  facet normal 0 0 1
    outer loop
      vertex 75.6726 51.1226 12.2
      vertex 75.15 51.1226 12.2
      vertex 76.45 47.45 12.2
    endloop
  endfacet
  facet normal 0 0 1
    outer loop
      vertex 75.15 51.1226 12.2
      vertex 25.7 51.15 12.2
      vertex 25.7 47.45 12.2
    endloop
  endfacet
  facet normal 0 0 1
    outer loop
      vertex 80.15 41.125 12.2
      vertex 76.45 47.45 12.2
      vertex 76.45 3.7 12.2
    endloop
  endfacet
  facet normal 0 0 1
    outer loop
      vertex 2.97736e-16 5 12.2
      vertex 0 46.15 12.2
      vertex 0 5 12.2
    endloop
  endfacet
  facet normal -0 -0 1
    outer loop
      vertex 0.109262 3.96044 12.2
      vertex 3.7 0.192623 12.2
      vertex 2.97736e-16 5 12.2
    endloop
  endfacet
  facet normal -0 -0 1
    outer loop
      vertex 0.432273 2.96632 12.2
      vertex 3.7 0.192623 12.2
      vertex 0.109262 3.96044 12.2
    endloop
  endfacet
  facet normal -0 -0 1
    outer loop
      vertex 0.954915 2.06107 12.2
      vertex 3.7 0.192623 12.2
      vertex 0.432273 2.96632 12.2
    endloop
  endfacet
  facet normal -0 -0 1
    outer loop
      vertex 1.65435 1.28428 12.2
      vertex 3.7 0.192623 12.2
      vertex 0.954915 2.06107 12.2
    endloop
  endfacet
  facet normal -0 -0 1
    outer loop
      vertex 2.5 0.669873 12.2
      vertex 3.7 0.192623 12.2
      vertex 1.65435 1.28428 12.2
    endloop
  endfacet
  facet normal -0 -0 1
    outer loop
      vertex 3.45492 0.244717 12.2
      vertex 3.7 0.192623 12.2
      vertex 2.5 0.669873 12.2
    endloop
  endfacet
  facet normal -0 0 1
    outer loop
      vertex 3.96044 51.0407 12.2
      vertex 3.7 47.45 12.2
      vertex 5 51.15 12.2
    endloop
  endfacet
  facet normal 0 0 1
    outer loop
      vertex 11.7 51.15 12.2
      vertex 10.025 51.15 12.2
      vertex 11.7 47.45 12.2
    endloop
  endfacet
  facet normal 0 0 1
    outer loop
      vertex 11.7 47.45 12.2
      vertex 10.025 51.15 12.2
      vertex 3.7 47.45 12.2
    endloop
  endfacet
  facet normal 0 0 1
    outer loop
      vertex 10.025 51.15 12.2
      vertex 5 51.15 12.2
      vertex 3.7 47.45 12.2
    endloop
  endfacet
  facet normal -0 0 1
    outer loop
      vertex 0.0273905 46.6726 12.2
      vertex 0.0273905 46.15 12.2
      vertex 3.7 47.45 12.2
    endloop
  endfacet
  facet normal 0 0 1
    outer loop
      vertex 3.96044 51.0407 12.2
      vertex 2.96632 50.7177 12.2
      vertex 3.7 47.45 12.2
    endloop
  endfacet
  facet normal 0 0 1
    outer loop
      vertex 2.96632 50.7177 12.2
      vertex 2.06107 50.1951 12.2
      vertex 3.7 47.45 12.2
    endloop
  endfacet
  facet normal 0 0 1
    outer loop
      vertex 2.06107 50.1951 12.2
      vertex 1.28428 49.4957 12.2
      vertex 3.7 47.45 12.2
    endloop
  endfacet
  facet normal 0 0 1
    outer loop
      vertex 1.28428 49.4957 12.2
      vertex 0.669873 48.65 12.2
      vertex 3.7 47.45 12.2
    endloop
  endfacet
  facet normal 0 0 1
    outer loop
      vertex 0.669873 48.65 12.2
      vertex 0.244717 47.6951 12.2
      vertex 3.7 47.45 12.2
    endloop
  endfacet
  facet normal 0 0 1
    outer loop
      vertex 0.244717 47.6951 12.2
      vertex 0.0273905 46.6726 12.2
      vertex 3.7 47.45 12.2
    endloop
  endfacet
  facet normal 0 0 1
    outer loop
      vertex 0.0273905 46.15 12.2
      vertex 0 46.15 12.2
      vertex 2.97736e-16 5 12.2
    endloop
  endfacet
  facet normal -0 0 1
    outer loop
      vertex 0.0273905 46.15 12.2
      vertex 2.97736e-16 5 12.2
      vertex 3.7 47.45 12.2
    endloop
  endfacet
  facet normal -0 0 1
    outer loop
      vertex 2.97736e-16 5 12.2
      vertex 3.7 0.192623 12.2
      vertex 3.7 47.45 12.2
    endloop
  endfacet
  facet normal 1 0 0
    outer loop
      vertex 80.15 41.125 0
      vertex 80.15 5 12.2
      vertex 80.15 5 0
    endloop
  endfacet
  facet normal 1 0 -0
    outer loop
      vertex 80.15 41.125 0
      vertex 80.15 41.125 12.2
      vertex 80.15 5 12.2
    endloop
  endfacet
endsolid OpenSCAD_Model
