solid OpenSCAD_Model
  facet normal 1 -0 0
    outer loop
      vertex 3.7 3.7 12.2
      vertex 3.7 54.74 4
      vertex 3.7 54.74 12.2
    endloop
  endfacet
  facet normal 1 0 0
    outer loop
      vertex 3.7 3.7 12.2
      vertex 3.7 3.7 4
      vertex 3.7 54.74 4
    endloop
  endfacet
  facet normal 0 1 0
    outer loop
      vertex 90.79 3.7 12.2
      vertex 31.7 3.7 6.2
      vertex 3.7 3.7 12.2
    endloop
  endfacet
  facet normal 0 1 0
    outer loop
      vertex 90.79 3.7 12.2
      vertex 90.79 3.7 6.2
      vertex 31.7 3.7 6.2
    endloop
  endfacet
  facet normal 0 1 0
    outer loop
      vertex 31.7 3.7 6.2
      vertex 3.7 3.7 4
      vertex 3.7 3.7 12.2
    endloop
  endfacet
  facet normal 0 1 0
    outer loop
      vertex 31.7 3.7 6.2
      vertex 31.7 3.7 4
      vertex 3.7 3.7 4
    endloop
  endfacet
  facet normal -0 0 1
    outer loop
      vertex 31.7 7.2 6.2
      vertex 90.79 3.7 6.2
      vertex 90.79 7.2 6.2
    endloop
  endfacet
  facet normal 0 0 1
    outer loop
      vertex 31.7 7.2 6.2
      vertex 31.7 3.7 6.2
      vertex 90.79 3.7 6.2
    endloop
  endfacet
  facet normal -0 0 1
    outer loop
      vertex 31.7 54.74 6.2
      vertex 90.79 51.24 6.2
      vertex 90.79 54.74 6.2
    endloop
  endfacet
  facet normal 0 0 1
    outer loop
      vertex 31.7 54.74 6.2
      vertex 31.7 51.24 6.2
      vertex 90.79 51.24 6.2
    endloop
  endfacet
  facet normal 0 -1 0
    outer loop
      vertex 3.7 54.74 12.2
      vertex 10.7 54.74 4
      vertex 10.7 54.74 12.2
    endloop
  endfacet
  facet normal 0 -1 0
    outer loop
      vertex 3.7 54.74 12.2
      vertex 3.7 54.74 4
      vertex 10.7 54.74 4
    endloop
  endfacet
  facet normal 0 -1 0
    outer loop
      vertex 90.79 54.74 6.2
      vertex 90.79 54.74 12.2
      vertex 31.7 54.74 6.2
    endloop
  endfacet
  facet normal -0 -1 0
    outer loop
      vertex 90.79 54.74 12.2
      vertex 26.7 54.74 12.2
      vertex 31.7 54.74 6.2
    endloop
  endfacet
  facet normal 0 -1 0
    outer loop
      vertex 26.7 54.74 4
      vertex 31.7 54.74 4
      vertex 31.7 54.74 6.2
    endloop
  endfacet
  facet normal 0 -1 0
    outer loop
      vertex 26.7 54.74 4
      vertex 31.7 54.74 6.2
      vertex 26.7 54.74 12.2
    endloop
  endfacet
  facet normal -1 -0 0
    outer loop
      vertex 90.79 54.74 12.2
      vertex 90.79 51.24 6.2
      vertex 90.79 3.7 12.2
    endloop
  endfacet
  facet normal -1 0 -0
    outer loop
      vertex 90.79 54.74 12.2
      vertex 90.79 54.74 6.2
      vertex 90.79 51.24 6.2
    endloop
  endfacet
  facet normal -1 0 0
    outer loop
      vertex 90.79 7.2 6.2
      vertex 90.79 3.7 6.2
      vertex 90.79 3.7 12.2
    endloop
  endfacet
  facet normal -1 -0 -0
    outer loop
      vertex 90.79 51.24 6.2
      vertex 90.79 51.24 0
      vertex 90.79 7.2 6.2
    endloop
  endfacet
  facet normal -1 0 0
    outer loop
      vertex 90.79 51.24 0
      vertex 90.79 7.2 0
      vertex 90.79 7.2 6.2
    endloop
  endfacet
  facet normal -1 0 0
    outer loop
      vertex 90.79 51.24 6.2
      vertex 90.79 7.2 6.2
      vertex 90.79 3.7 12.2
    endloop
  endfacet
  facet normal 1 -0 0
    outer loop
      vertex 7.4 7.2 4
      vertex 7.4 51.24 0
      vertex 7.4 51.24 4
    endloop
  endfacet
  facet normal 1 0 0
    outer loop
      vertex 7.4 7.2 4
      vertex 7.4 7.2 0
      vertex 7.4 51.24 0
    endloop
  endfacet
  facet normal 0 1 0
    outer loop
      vertex 31.7 7.2 4
      vertex 31.7 7.2 6.2
      vertex 90.79 7.2 6.2
    endloop
  endfacet
  facet normal -0 1 0
    outer loop
      vertex 31.7 7.2 4
      vertex 90.79 7.2 6.2
      vertex 90.79 7.2 0
    endloop
  endfacet
  facet normal 0 1 0
    outer loop
      vertex 31.7 7.2 4
      vertex 7.4 7.2 0
      vertex 7.4 7.2 4
    endloop
  endfacet
  facet normal 0 1 0
    outer loop
      vertex 90.79 7.2 0
      vertex 7.4 7.2 0
      vertex 31.7 7.2 4
    endloop
  endfacet
  facet normal 0 -1 0
    outer loop
      vertex 31.7 51.24 4
      vertex 90.79 51.24 0
      vertex 90.79 51.24 6.2
    endloop
  endfacet
  facet normal 0 -1 0
    outer loop
      vertex 31.7 51.24 6.2
      vertex 31.7 51.24 4
      vertex 90.79 51.24 6.2
    endloop
  endfacet
  facet normal 0 -1 0
    outer loop
      vertex 26.7 51.24 2
      vertex 90.79 51.24 0
      vertex 31.7 51.24 4
    endloop
  endfacet
  facet normal 0 -1 0
    outer loop
      vertex 26.7 51.24 4
      vertex 26.7 51.24 2
      vertex 31.7 51.24 4
    endloop
  endfacet
  facet normal 0 -1 0
    outer loop
      vertex 7.4 51.24 0
      vertex 90.79 51.24 0
      vertex 26.7 51.24 2
    endloop
  endfacet
  facet normal 0 -1 0
    outer loop
      vertex 7.4 51.24 4
      vertex 10.7 51.24 2
      vertex 10.7 51.24 4
    endloop
  endfacet
  facet normal 0 -1 0
    outer loop
      vertex 7.4 51.24 4
      vertex 7.4 51.24 0
      vertex 10.7 51.24 2
    endloop
  endfacet
  facet normal 0 -1 0
    outer loop
      vertex 7.4 51.24 0
      vertex 26.7 51.24 2
      vertex 10.7 51.24 2
    endloop
  endfacet
  facet normal 1 -0 0
    outer loop
      vertex 10.7 54.74 4
      vertex 10.7 58.44 2
      vertex 10.7 58.44 12.2
    endloop
  endfacet
  facet normal 1 -0 0
    outer loop
      vertex 10.7 54.74 12.2
      vertex 10.7 54.74 4
      vertex 10.7 58.44 12.2
    endloop
  endfacet
  facet normal 1 0 0
    outer loop
      vertex 10.7 51.24 2
      vertex 10.7 58.44 2
      vertex 10.7 54.74 4
    endloop
  endfacet
  facet normal 1 -0 0
    outer loop
      vertex 10.7 51.24 4
      vertex 10.7 51.24 2
      vertex 10.7 54.74 4
    endloop
  endfacet
  facet normal -0 0 1
    outer loop
      vertex 10.7 58.44 2
      vertex 26.7 51.24 2
      vertex 26.7 58.44 2
    endloop
  endfacet
  facet normal 0 0 1
    outer loop
      vertex 10.7 58.44 2
      vertex 10.7 51.24 2
      vertex 26.7 51.24 2
    endloop
  endfacet
  facet normal -1 0 0
    outer loop
      vertex 26.7 54.74 4
      vertex 26.7 54.74 12.2
      vertex 26.7 58.44 12.2
    endloop
  endfacet
  facet normal -1 0 0
    outer loop
      vertex 26.7 54.74 4
      vertex 26.7 58.44 12.2
      vertex 26.7 58.44 2
    endloop
  endfacet
  facet normal -1 -0 0
    outer loop
      vertex 26.7 54.74 4
      vertex 26.7 51.24 2
      vertex 26.7 51.24 4
    endloop
  endfacet
  facet normal -1 0 0
    outer loop
      vertex 26.7 58.44 2
      vertex 26.7 51.24 2
      vertex 26.7 54.74 4
    endloop
  endfacet
  facet normal -0 0 1
    outer loop
      vertex 7.4 7.2 4
      vertex 31.7 3.7 4
      vertex 31.7 7.2 4
    endloop
  endfacet
  facet normal 0 0 1
    outer loop
      vertex 7.4 51.24 4
      vertex 3.7 54.74 4
      vertex 3.7 3.7 4
    endloop
  endfacet
  facet normal 0 0 1
    outer loop
      vertex 7.4 51.24 4
      vertex 10.7 51.24 4
      vertex 10.7 54.74 4
    endloop
  endfacet
  facet normal 0 -0 1
    outer loop
      vertex 7.4 51.24 4
      vertex 10.7 54.74 4
      vertex 3.7 54.74 4
    endloop
  endfacet
  facet normal 0 0 1
    outer loop
      vertex 7.4 51.24 4
      vertex 3.7 3.7 4
      vertex 7.4 7.2 4
    endloop
  endfacet
  facet normal 0 0 1
    outer loop
      vertex 7.4 7.2 4
      vertex 3.7 3.7 4
      vertex 31.7 3.7 4
    endloop
  endfacet
  facet normal -0 0 1
    outer loop
      vertex 26.7 54.74 4
      vertex 31.7 51.24 4
      vertex 31.7 54.74 4
    endloop
  endfacet
  facet normal 0 0 1
    outer loop
      vertex 26.7 54.74 4
      vertex 26.7 51.24 4
      vertex 31.7 51.24 4
    endloop
  endfacet
  facet normal -1 -0 -0
    outer loop
      vertex 31.7 7.2 6.2
      vertex 31.7 7.2 4
      vertex 31.7 3.7 6.2
    endloop
  endfacet
  facet normal -1 0 0
    outer loop
      vertex 31.7 3.7 6.2
      vertex 31.7 7.2 4
      vertex 31.7 3.7 4
    endloop
  endfacet
  facet normal -1 -0 -0
    outer loop
      vertex 31.7 54.74 6.2
      vertex 31.7 54.74 4
      vertex 31.7 51.24 6.2
    endloop
  endfacet
  facet normal -1 0 0
    outer loop
      vertex 31.7 51.24 6.2
      vertex 31.7 54.74 4
      vertex 31.7 51.24 4
    endloop
  endfacet
  facet normal -1 0 0
    outer loop
      vertex 0 5 0
      vertex 0 5 12.2
      vertex 0 53.44 0
    endloop
  endfacet
  facet normal -1 0 0
    outer loop
      vertex 0 53.44 0
      vertex 0 5 12.2
      vertex 0 53.44 12.2
    endloop
  endfacet
  facet normal 0 -1 0
    outer loop
      vertex 84.465 0 0
      vertex 5 0 12.2
      vertex 5 0 0
    endloop
  endfacet
  facet normal 0 -1 0
    outer loop
      vertex 84.465 0 0
      vertex 84.465 0 12.2
      vertex 5 0 12.2
    endloop
  endfacet
  facet normal 0 0 -1
    outer loop
      vertex 0 5 0
      vertex 7.4 7.2 0
      vertex 2.97736e-16 5 0
    endloop
  endfacet
  facet normal 0 0 -1
    outer loop
      vertex 0 5 0
      vertex 0 53.44 0
      vertex 7.4 7.2 0
    endloop
  endfacet
  facet normal 0 0 -1
    outer loop
      vertex 0.0273905 53.44 0
      vertex 0.0273905 53.9626 0
      vertex 0.244717 54.9851 0
    endloop
  endfacet
  facet normal 0 0 -1
    outer loop
      vertex 7.4 7.2 0
      vertex 0.109262 3.96044 0
      vertex 2.97736e-16 5 0
    endloop
  endfacet
  facet normal 0 0 -1
    outer loop
      vertex 0.0273905 53.44 0
      vertex 0.244717 54.9851 0
      vertex 7.4 51.24 0
    endloop
  endfacet
  facet normal 0 0 -1
    outer loop
      vertex 0.244717 54.9851 0
      vertex 0.669873 55.94 0
      vertex 7.4 51.24 0
    endloop
  endfacet
  facet normal 0 0 -1
    outer loop
      vertex 0.669873 55.94 0
      vertex 1.28428 56.7857 0
      vertex 7.4 51.24 0
    endloop
  endfacet
  facet normal 0 0 -1
    outer loop
      vertex 1.28428 56.7857 0
      vertex 2.06107 57.4851 0
      vertex 7.4 51.24 0
    endloop
  endfacet
  facet normal 0 0 -1
    outer loop
      vertex 2.06107 57.4851 0
      vertex 2.96632 58.0077 0
      vertex 7.4 51.24 0
    endloop
  endfacet
  facet normal 0 0 -1
    outer loop
      vertex 2.96632 58.0077 0
      vertex 3.96044 58.3307 0
      vertex 7.4 51.24 0
    endloop
  endfacet
  facet normal 0 -0 -1
    outer loop
      vertex 5 58.44 0
      vertex 7.4 51.24 0
      vertex 3.96044 58.3307 0
    endloop
  endfacet
  facet normal 0 0 -1
    outer loop
      vertex 90.79 7.2 0
      vertex 90.79 51.24 0
      vertex 94.49 48.415 0
    endloop
  endfacet
  facet normal 0 0 -1
    outer loop
      vertex 10.025 58.44 0
      vertex 89.49 58.44 0
      vertex 89.49 58.4126 0
    endloop
  endfacet
  facet normal 0 0 -1
    outer loop
      vertex 90.79 51.24 0
      vertex 7.4 51.24 0
      vertex 10.025 58.44 0
    endloop
  endfacet
  facet normal 0 0 -1
    outer loop
      vertex 89.49 58.4126 0
      vertex 90.0126 58.4126 0
      vertex 90.79 51.24 0
    endloop
  endfacet
  facet normal 0 0 -1
    outer loop
      vertex 90.0126 58.4126 0
      vertex 91.0351 58.1953 0
      vertex 90.79 51.24 0
    endloop
  endfacet
  facet normal 0 -0 -1
    outer loop
      vertex 91.0351 58.1953 0
      vertex 91.99 57.7701 0
      vertex 90.79 51.24 0
    endloop
  endfacet
  facet normal 0 -0 -1
    outer loop
      vertex 91.99 57.7701 0
      vertex 92.8357 57.1557 0
      vertex 90.79 51.24 0
    endloop
  endfacet
  facet normal 0 -0 -1
    outer loop
      vertex 92.8357 57.1557 0
      vertex 93.5351 56.3789 0
      vertex 90.79 51.24 0
    endloop
  endfacet
  facet normal 0 -0 -1
    outer loop
      vertex 93.5351 56.3789 0
      vertex 94.0577 55.4737 0
      vertex 90.79 51.24 0
    endloop
  endfacet
  facet normal 0 -0 -1
    outer loop
      vertex 94.0577 55.4737 0
      vertex 94.3807 54.4796 0
      vertex 90.79 51.24 0
    endloop
  endfacet
  facet normal -0 0 -1
    outer loop
      vertex 94.49 53.44 0
      vertex 90.79 51.24 0
      vertex 94.3807 54.4796 0
    endloop
  endfacet
  facet normal 0 0 -1
    outer loop
      vertex 90.79 51.24 0
      vertex 10.025 58.44 0
      vertex 89.49 58.4126 0
    endloop
  endfacet
  facet normal 0 -0 -1
    outer loop
      vertex 94.49 48.415 0
      vertex 94.49 5 0
      vertex 90.79 7.2 0
    endloop
  endfacet
  facet normal 0 0 -1
    outer loop
      vertex 0.432273 2.96632 0
      vertex 0.109262 3.96044 0
      vertex 7.4 7.2 0
    endloop
  endfacet
  facet normal 0 0 -1
    outer loop
      vertex 94.4626 4.47736 0
      vertex 90.79 7.2 0
      vertex 94.4626 5 0
    endloop
  endfacet
  facet normal 0 0 -1
    outer loop
      vertex 94.2453 3.45492 0
      vertex 90.79 7.2 0
      vertex 94.4626 4.47736 0
    endloop
  endfacet
  facet normal 0 0 -1
    outer loop
      vertex 93.8201 2.5 0
      vertex 90.79 7.2 0
      vertex 94.2453 3.45492 0
    endloop
  endfacet
  facet normal 0 0 -1
    outer loop
      vertex 93.2057 1.65435 0
      vertex 90.79 7.2 0
      vertex 93.8201 2.5 0
    endloop
  endfacet
  facet normal 0 0 -1
    outer loop
      vertex 92.4289 0.954915 0
      vertex 90.79 7.2 0
      vertex 93.2057 1.65435 0
    endloop
  endfacet
  facet normal 0 0 -1
    outer loop
      vertex 91.5237 0.432273 0
      vertex 90.79 7.2 0
      vertex 92.4289 0.954915 0
    endloop
  endfacet
  facet normal 0 0 -1
    outer loop
      vertex 90.5296 0.109262 0
      vertex 90.79 7.2 0
      vertex 91.5237 0.432273 0
    endloop
  endfacet
  facet normal 0 0 -1
    outer loop
      vertex 89.49 2.97736e-16 0
      vertex 90.79 7.2 0
      vertex 90.5296 0.109262 0
    endloop
  endfacet
  facet normal 0 0 -1
    outer loop
      vertex 89.49 0 0
      vertex 84.465 1.11577e-15 0
      vertex 89.49 2.97736e-16 0
    endloop
  endfacet
  facet normal 0 0 -1
    outer loop
      vertex 84.465 0 0
      vertex 7.4 7.2 0
      vertex 84.465 1.11577e-15 0
    endloop
  endfacet
  facet normal 0 0 -1
    outer loop
      vertex 84.465 0 0
      vertex 5 0 0
      vertex 7.4 7.2 0
    endloop
  endfacet
  facet normal 0 0 -1
    outer loop
      vertex 7.4 7.2 0
      vertex 0 53.44 0
      vertex 7.4 51.24 0
    endloop
  endfacet
  facet normal 0 0 -1
    outer loop
      vertex 4.47736 0.0273905 0
      vertex 3.45492 0.244717 0
      vertex 5 0.0273905 0
    endloop
  endfacet
  facet normal 0 0 -1
    outer loop
      vertex 3.45492 0.244717 0
      vertex 7.4 7.2 0
      vertex 5 0.0273905 0
    endloop
  endfacet
  facet normal 0 0 -1
    outer loop
      vertex 2.5 0.669873 0
      vertex 7.4 7.2 0
      vertex 3.45492 0.244717 0
    endloop
  endfacet
  facet normal 0 0 -1
    outer loop
      vertex 1.65435 1.28428 0
      vertex 7.4 7.2 0
      vertex 2.5 0.669873 0
    endloop
  endfacet
  facet normal 0 0 -1
    outer loop
      vertex 0.954915 2.06107 0
      vertex 7.4 7.2 0
      vertex 1.65435 1.28428 0
    endloop
  endfacet
  facet normal 0 0 -1
    outer loop
      vertex 0.432273 2.96632 0
      vertex 7.4 7.2 0
      vertex 0.954915 2.06107 0
    endloop
  endfacet
  facet normal 0 0 -1
    outer loop
      vertex 5 58.44 0
      vertex 10.025 58.44 0
      vertex 7.4 51.24 0
    endloop
  endfacet
  facet normal -0 -0 -1
    outer loop
      vertex 0.0273905 53.44 0
      vertex 7.4 51.24 0
      vertex 0 53.44 0
    endloop
  endfacet
  facet normal 0 0 -1
    outer loop
      vertex 5 0 0
      vertex 5 0.0273905 0
      vertex 7.4 7.2 0
    endloop
  endfacet
  facet normal 0 0 -1
    outer loop
      vertex 89.49 2.97736e-16 0
      vertex 84.465 1.11577e-15 0
      vertex 90.79 7.2 0
    endloop
  endfacet
  facet normal 0 0 -1
    outer loop
      vertex 94.4626 5 0
      vertex 90.79 7.2 0
      vertex 94.49 5 0
    endloop
  endfacet
  facet normal 0 0 -1
    outer loop
      vertex 94.49 48.415 0
      vertex 90.79 51.24 0
      vertex 94.49 53.44 0
    endloop
  endfacet
  facet normal -0 0 -1
    outer loop
      vertex 90.79 7.2 0
      vertex 84.465 1.11577e-15 0
      vertex 7.4 7.2 0
    endloop
  endfacet
  facet normal -0 1 0
    outer loop
      vertex 26.7 58.44 2
      vertex 89.49 58.44 12.2
      vertex 89.49 58.44 0
    endloop
  endfacet
  facet normal 0 1 0
    outer loop
      vertex 10.025 58.44 0
      vertex 10.025 58.44 12.2
      vertex 10.7 58.44 2
    endloop
  endfacet
  facet normal -0 1 0
    outer loop
      vertex 10.025 58.44 12.2
      vertex 10.7 58.44 12.2
      vertex 10.7 58.44 2
    endloop
  endfacet
  facet normal 0 1 0
    outer loop
      vertex 10.025 58.44 0
      vertex 26.7 58.44 2
      vertex 89.49 58.44 0
    endloop
  endfacet
  facet normal -0 1 0
    outer loop
      vertex 10.7 58.44 2
      vertex 26.7 58.44 2
      vertex 10.025 58.44 0
    endloop
  endfacet
  facet normal 0 1 0
    outer loop
      vertex 26.7 58.44 2
      vertex 26.7 58.44 12.2
      vertex 89.49 58.44 12.2
    endloop
  endfacet
  facet normal 0 0 1
    outer loop
      vertex 2.97736e-16 5 12.2
      vertex 0 53.44 12.2
      vertex 0 5 12.2
    endloop
  endfacet
  facet normal -0 -0 1
    outer loop
      vertex 0.109262 3.96044 12.2
      vertex 3.7 3.7 12.2
      vertex 2.97736e-16 5 12.2
    endloop
  endfacet
  facet normal 0 -0 1
    outer loop
      vertex 0.432273 2.96632 12.2
      vertex 3.7 3.7 12.2
      vertex 0.109262 3.96044 12.2
    endloop
  endfacet
  facet normal 0 -0 1
    outer loop
      vertex 0.954915 2.06107 12.2
      vertex 3.7 3.7 12.2
      vertex 0.432273 2.96632 12.2
    endloop
  endfacet
  facet normal 0 -0 1
    outer loop
      vertex 1.65435 1.28428 12.2
      vertex 3.7 3.7 12.2
      vertex 0.954915 2.06107 12.2
    endloop
  endfacet
  facet normal 0 -0 1
    outer loop
      vertex 2.5 0.669873 12.2
      vertex 3.7 3.7 12.2
      vertex 1.65435 1.28428 12.2
    endloop
  endfacet
  facet normal 0 -0 1
    outer loop
      vertex 3.45492 0.244717 12.2
      vertex 3.7 3.7 12.2
      vertex 2.5 0.669873 12.2
    endloop
  endfacet
  facet normal 0 0 1
    outer loop
      vertex 4.47736 0.0273905 12.2
      vertex 3.7 3.7 12.2
      vertex 3.45492 0.244717 12.2
    endloop
  endfacet
  facet normal 0 0 1
    outer loop
      vertex 5 0 12.2
      vertex 84.465 1.11577e-15 12.2
      vertex 5 0.0273905 12.2
    endloop
  endfacet
  facet normal 0 -0 1
    outer loop
      vertex 84.465 0 12.2
      vertex 84.465 1.11577e-15 12.2
      vertex 5 0 12.2
    endloop
  endfacet
  facet normal 0 -0 1
    outer loop
      vertex 89.49 0 12.2
      vertex 89.49 2.97736e-16 12.2
      vertex 84.465 1.11577e-15 12.2
    endloop
  endfacet
  facet normal 0 -0 1
    outer loop
      vertex 89.49 2.97736e-16 12.2
      vertex 90.79 3.7 12.2
      vertex 84.465 1.11577e-15 12.2
    endloop
  endfacet
  facet normal 0 -0 1
    outer loop
      vertex 90.5296 0.109262 12.2
      vertex 90.79 3.7 12.2
      vertex 89.49 2.97736e-16 12.2
    endloop
  endfacet
  facet normal 0 0 1
    outer loop
      vertex 91.5237 0.432273 12.2
      vertex 90.79 3.7 12.2
      vertex 90.5296 0.109262 12.2
    endloop
  endfacet
  facet normal 0 0 1
    outer loop
      vertex 92.4289 0.954915 12.2
      vertex 90.79 3.7 12.2
      vertex 91.5237 0.432273 12.2
    endloop
  endfacet
  facet normal 0 0 1
    outer loop
      vertex 93.2057 1.65435 12.2
      vertex 90.79 3.7 12.2
      vertex 92.4289 0.954915 12.2
    endloop
  endfacet
  facet normal 0 0 1
    outer loop
      vertex 93.8201 2.5 12.2
      vertex 90.79 3.7 12.2
      vertex 93.2057 1.65435 12.2
    endloop
  endfacet
  facet normal 0 0 1
    outer loop
      vertex 94.2453 3.45492 12.2
      vertex 90.79 3.7 12.2
      vertex 93.8201 2.5 12.2
    endloop
  endfacet
  facet normal 0 0 1
    outer loop
      vertex 94.4626 4.47736 12.2
      vertex 90.79 3.7 12.2
      vertex 94.2453 3.45492 12.2
    endloop
  endfacet
  facet normal -0 -0 1
    outer loop
      vertex 5 0.0273905 12.2
      vertex 84.465 1.11577e-15 12.2
      vertex 3.7 3.7 12.2
    endloop
  endfacet
  facet normal 0 0 1
    outer loop
      vertex 94.49 5 12.2
      vertex 94.49 48.415 12.2
      vertex 94.4626 5 12.2
    endloop
  endfacet
  facet normal 0 -0 1
    outer loop
      vertex 4.47736 0.0273905 12.2
      vertex 5 0.0273905 12.2
      vertex 3.7 3.7 12.2
    endloop
  endfacet
  facet normal 0 0 1
    outer loop
      vertex 94.49 53.44 12.2
      vertex 90.79 54.74 12.2
      vertex 94.49 48.415 12.2
    endloop
  endfacet
  facet normal 0 0 1
    outer loop
      vertex 94.3807 54.4796 12.2
      vertex 90.79 54.74 12.2
      vertex 94.49 53.44 12.2
    endloop
  endfacet
  facet normal 0 0 1
    outer loop
      vertex 94.0577 55.4737 12.2
      vertex 90.79 54.74 12.2
      vertex 94.3807 54.4796 12.2
    endloop
  endfacet
  facet normal 0 0 1
    outer loop
      vertex 93.5351 56.3789 12.2
      vertex 90.79 54.74 12.2
      vertex 94.0577 55.4737 12.2
    endloop
  endfacet
  facet normal 0 0 1
    outer loop
      vertex 92.8357 57.1557 12.2
      vertex 90.79 54.74 12.2
      vertex 93.5351 56.3789 12.2
    endloop
  endfacet
  facet normal 0 0 1
    outer loop
      vertex 91.99 57.7701 12.2
      vertex 90.79 54.74 12.2
      vertex 92.8357 57.1557 12.2
    endloop
  endfacet
  facet normal 0 0 1
    outer loop
      vertex 91.0351 58.1953 12.2
      vertex 90.79 54.74 12.2
      vertex 91.99 57.7701 12.2
    endloop
  endfacet
  facet normal 0 0 1
    outer loop
      vertex 90.0126 58.4126 12.2
      vertex 90.79 54.74 12.2
      vertex 91.0351 58.1953 12.2
    endloop
  endfacet
  facet normal 0 0 1
    outer loop
      vertex 89.49 58.44 12.2
      vertex 26.7 58.44 12.2
      vertex 89.49 58.4126 12.2
    endloop
  endfacet
  facet normal 0 0 1
    outer loop
      vertex 26.7 58.44 12.2
      vertex 26.7 54.74 12.2
      vertex 89.49 58.4126 12.2
    endloop
  endfacet
  facet normal -0 0 1
    outer loop
      vertex 2.97736e-16 5 12.2
      vertex 3.7 3.7 12.2
      vertex 0.0273905 53.44 12.2
    endloop
  endfacet
  facet normal 0 0 1
    outer loop
      vertex 26.7 54.74 12.2
      vertex 90.79 54.74 12.2
      vertex 89.49 58.4126 12.2
    endloop
  endfacet
  facet normal 0 0 1
    outer loop
      vertex 90.79 54.74 12.2
      vertex 90.0126 58.4126 12.2
      vertex 89.49 58.4126 12.2
    endloop
  endfacet
  facet normal 0 0 1
    outer loop
      vertex 94.49 48.415 12.2
      vertex 90.79 3.7 12.2
      vertex 94.4626 5 12.2
    endloop
  endfacet
  facet normal 0 0 1
    outer loop
      vertex 90.79 3.7 12.2
      vertex 94.4626 4.47736 12.2
      vertex 94.4626 5 12.2
    endloop
  endfacet
  facet normal -0 0 1
    outer loop
      vertex 5 58.44 12.2
      vertex 10.7 54.74 12.2
      vertex 10.025 58.44 12.2
    endloop
  endfacet
  facet normal -0 0 1
    outer loop
      vertex 3.96044 58.3307 12.2
      vertex 3.7 54.74 12.2
      vertex 5 58.44 12.2
    endloop
  endfacet
  facet normal 0 0 1
    outer loop
      vertex 10.7 58.44 12.2
      vertex 10.025 58.44 12.2
      vertex 10.7 54.74 12.2
    endloop
  endfacet
  facet normal 0 0 1
    outer loop
      vertex 0.0273905 53.44 12.2
      vertex 3.7 54.74 12.2
      vertex 0.0273905 53.9626 12.2
    endloop
  endfacet
  facet normal 0 0 1
    outer loop
      vertex 5 58.44 12.2
      vertex 3.7 54.74 12.2
      vertex 10.7 54.74 12.2
    endloop
  endfacet
  facet normal 0 0 1
    outer loop
      vertex 3.96044 58.3307 12.2
      vertex 2.96632 58.0077 12.2
      vertex 3.7 54.74 12.2
    endloop
  endfacet
  facet normal 0 0 1
    outer loop
      vertex 2.96632 58.0077 12.2
      vertex 2.06107 57.4851 12.2
      vertex 3.7 54.74 12.2
    endloop
  endfacet
  facet normal 0 0 1
    outer loop
      vertex 2.06107 57.4851 12.2
      vertex 1.28428 56.7857 12.2
      vertex 3.7 54.74 12.2
    endloop
  endfacet
  facet normal 0 0 1
    outer loop
      vertex 1.28428 56.7857 12.2
      vertex 0.669873 55.94 12.2
      vertex 3.7 54.74 12.2
    endloop
  endfacet
  facet normal 0 0 1
    outer loop
      vertex 0.669873 55.94 12.2
      vertex 0.244717 54.9851 12.2
      vertex 3.7 54.74 12.2
    endloop
  endfacet
  facet normal 0 0 1
    outer loop
      vertex 0.244717 54.9851 12.2
      vertex 0.0273905 53.9626 12.2
      vertex 3.7 54.74 12.2
    endloop
  endfacet
  facet normal 0 -0 1
    outer loop
      vertex 2.97736e-16 5 12.2
      vertex 0.0273905 53.44 12.2
      vertex 0 53.44 12.2
    endloop
  endfacet
  facet normal -0 0 1
    outer loop
      vertex 0.0273905 53.44 12.2
      vertex 3.7 3.7 12.2
      vertex 3.7 54.74 12.2
    endloop
  endfacet
  facet normal 0 0 1
    outer loop
      vertex 94.49 48.415 12.2
      vertex 90.79 54.74 12.2
      vertex 90.79 3.7 12.2
    endloop
  endfacet
  facet normal 0 -0 1
    outer loop
      vertex 84.465 1.11577e-15 12.2
      vertex 90.79 3.7 12.2
      vertex 3.7 3.7 12.2
    endloop
  endfacet
  facet normal 1 0 0
    outer loop
      vertex 94.49 48.415 0
      vertex 94.49 5 12.2
      vertex 94.49 5 0
    endloop
  endfacet
  facet normal 1 0 -0
    outer loop
      vertex 94.49 48.415 0
      vertex 94.49 48.415 12.2
      vertex 94.49 5 12.2
    endloop
  endfacet
  facet normal -0.994522 -0.104528 0
    outer loop
      vertex 2.97736e-16 5 0
      vertex 0.109262 3.96044 12.2
      vertex 2.97736e-16 5 12.2
    endloop
  endfacet
  facet normal -0.994522 -0.104528 0
    outer loop
      vertex 2.97736e-16 5 0
      vertex 0.109262 3.96044 0
      vertex 0.109262 3.96044 12.2
    endloop
  endfacet
  facet normal 0 -1 0
    outer loop
      vertex 5 0.0273905 0
      vertex 4.47736 0.0273905 12.2
      vertex 4.47736 0.0273905 0
    endloop
  endfacet
  facet normal 0 -1 0
    outer loop
      vertex 5 0.0273905 0
      vertex 5 0.0273905 12.2
      vertex 4.47736 0.0273905 12.2
    endloop
  endfacet
  facet normal -0.951057 -0.309017 0
    outer loop
      vertex 0.109262 3.96044 0
      vertex 0.432273 2.96632 12.2
      vertex 0.109262 3.96044 12.2
    endloop
  endfacet
  facet normal -0.951057 -0.309017 0
    outer loop
      vertex 0.109262 3.96044 0
      vertex 0.432273 2.96632 0
      vertex 0.432273 2.96632 12.2
    endloop
  endfacet
  facet normal -0.743145 -0.669131 0
    outer loop
      vertex 0.954915 2.06107 0
      vertex 1.65435 1.28428 12.2
      vertex 0.954915 2.06107 12.2
    endloop
  endfacet
  facet normal -0.743145 -0.669131 0
    outer loop
      vertex 0.954915 2.06107 0
      vertex 1.65435 1.28428 0
      vertex 1.65435 1.28428 12.2
    endloop
  endfacet
  facet normal -0.866025 -0.5 0
    outer loop
      vertex 0.432273 2.96632 0
      vertex 0.954915 2.06107 12.2
      vertex 0.432273 2.96632 12.2
    endloop
  endfacet
  facet normal -0.866025 -0.5 0
    outer loop
      vertex 0.432273 2.96632 0
      vertex 0.954915 2.06107 0
      vertex 0.954915 2.06107 12.2
    endloop
  endfacet
  facet normal -0.207912 -0.978148 0
    outer loop
      vertex 4.47736 0.0273905 0
      vertex 3.45492 0.244717 12.2
      vertex 3.45492 0.244717 0
    endloop
  endfacet
  facet normal -0.207912 -0.978148 0
    outer loop
      vertex 4.47736 0.0273905 0
      vertex 4.47736 0.0273905 12.2
      vertex 3.45492 0.244717 12.2
    endloop
  endfacet
  facet normal -0.587785 -0.809017 0
    outer loop
      vertex 2.5 0.669873 0
      vertex 1.65435 1.28428 12.2
      vertex 1.65435 1.28428 0
    endloop
  endfacet
  facet normal -0.587785 -0.809017 0
    outer loop
      vertex 2.5 0.669873 0
      vertex 2.5 0.669873 12.2
      vertex 1.65435 1.28428 12.2
    endloop
  endfacet
  facet normal -0.406737 -0.913545 0
    outer loop
      vertex 3.45492 0.244717 0
      vertex 2.5 0.669873 12.2
      vertex 2.5 0.669873 0
    endloop
  endfacet
  facet normal -0.406737 -0.913545 0
    outer loop
      vertex 3.45492 0.244717 0
      vertex 3.45492 0.244717 12.2
      vertex 2.5 0.669873 12.2
    endloop
  endfacet
  facet normal 0 -1 0
    outer loop
      vertex 2.97736e-16 5 0
      vertex 0 5 12.2
      vertex 0 5 0
    endloop
  endfacet
  facet normal 0 -1 0
    outer loop
      vertex 2.97736e-16 5 0
      vertex 2.97736e-16 5 12.2
      vertex 0 5 12.2
    endloop
  endfacet
  facet normal -1 0 0
    outer loop
      vertex 5 0 0
      vertex 5 0 12.2
      vertex 5 0.0273905 0
    endloop
  endfacet
  facet normal -1 0 0
    outer loop
      vertex 5 0.0273905 0
      vertex 5 0 12.2
      vertex 5 0.0273905 12.2
    endloop
  endfacet
  facet normal 1 -0 0
    outer loop
      vertex 84.465 0 12.2
      vertex 84.465 1.11577e-15 0
      vertex 84.465 1.11577e-15 12.2
    endloop
  endfacet
  facet normal 1 0 0
    outer loop
      vertex 84.465 0 12.2
      vertex 84.465 0 0
      vertex 84.465 1.11577e-15 0
    endloop
  endfacet
  facet normal 0.104528 -0.994522 0
    outer loop
      vertex 90.5296 0.109262 0
      vertex 89.49 2.97736e-16 12.2
      vertex 89.49 2.97736e-16 0
    endloop
  endfacet
  facet normal 0.104528 -0.994522 0
    outer loop
      vertex 90.5296 0.109262 0
      vertex 90.5296 0.109262 12.2
      vertex 89.49 2.97736e-16 12.2
    endloop
  endfacet
  facet normal 1 0 0
    outer loop
      vertex 94.4626 5 0
      vertex 94.4626 4.47736 12.2
      vertex 94.4626 4.47736 0
    endloop
  endfacet
  facet normal 1 0 -0
    outer loop
      vertex 94.4626 5 0
      vertex 94.4626 5 12.2
      vertex 94.4626 4.47736 12.2
    endloop
  endfacet
  facet normal 0.309017 -0.951057 0
    outer loop
      vertex 91.5237 0.432273 0
      vertex 90.5296 0.109262 12.2
      vertex 90.5296 0.109262 0
    endloop
  endfacet
  facet normal 0.309017 -0.951057 0
    outer loop
      vertex 91.5237 0.432273 0
      vertex 91.5237 0.432273 12.2
      vertex 90.5296 0.109262 12.2
    endloop
  endfacet
  facet normal 0.669131 -0.743145 0
    outer loop
      vertex 93.2057 1.65435 0
      vertex 92.4289 0.954915 12.2
      vertex 92.4289 0.954915 0
    endloop
  endfacet
  facet normal 0.669131 -0.743145 0
    outer loop
      vertex 93.2057 1.65435 0
      vertex 93.2057 1.65435 12.2
      vertex 92.4289 0.954915 12.2
    endloop
  endfacet
  facet normal 0.5 -0.866025 0
    outer loop
      vertex 92.4289 0.954915 0
      vertex 91.5237 0.432273 12.2
      vertex 91.5237 0.432273 0
    endloop
  endfacet
  facet normal 0.5 -0.866025 0
    outer loop
      vertex 92.4289 0.954915 0
      vertex 92.4289 0.954915 12.2
      vertex 91.5237 0.432273 12.2
    endloop
  endfacet
  facet normal 0.978148 -0.207912 0
    outer loop
      vertex 94.4626 4.47736 0
      vertex 94.2453 3.45492 12.2
      vertex 94.2453 3.45492 0
    endloop
  endfacet
  facet normal 0.978148 -0.207912 0
    outer loop
      vertex 94.4626 4.47736 0
      vertex 94.4626 4.47736 12.2
      vertex 94.2453 3.45492 12.2
    endloop
  endfacet
  facet normal 0.809017 -0.587785 0
    outer loop
      vertex 93.8201 2.5 0
      vertex 93.2057 1.65435 12.2
      vertex 93.2057 1.65435 0
    endloop
  endfacet
  facet normal 0.809017 -0.587785 0
    outer loop
      vertex 93.8201 2.5 0
      vertex 93.8201 2.5 12.2
      vertex 93.2057 1.65435 12.2
    endloop
  endfacet
  facet normal 0.913545 -0.406737 0
    outer loop
      vertex 94.2453 3.45492 0
      vertex 93.8201 2.5 12.2
      vertex 93.8201 2.5 0
    endloop
  endfacet
  facet normal 0.913545 -0.406737 0
    outer loop
      vertex 94.2453 3.45492 0
      vertex 94.2453 3.45492 12.2
      vertex 93.8201 2.5 12.2
    endloop
  endfacet
  facet normal -2.22045e-16 -1 0
    outer loop
      vertex 89.49 0 0
      vertex 84.465 1.11577e-15 12.2
      vertex 84.465 1.11577e-15 0
    endloop
  endfacet
  facet normal -2.22045e-16 -1 0
    outer loop
      vertex 89.49 0 0
      vertex 89.49 0 12.2
      vertex 84.465 1.11577e-15 12.2
    endloop
  endfacet
  facet normal 1 0 0
    outer loop
      vertex 89.49 2.97736e-16 0
      vertex 89.49 0 12.2
      vertex 89.49 0 0
    endloop
  endfacet
  facet normal 1 0 -0
    outer loop
      vertex 89.49 2.97736e-16 0
      vertex 89.49 2.97736e-16 12.2
      vertex 89.49 0 12.2
    endloop
  endfacet
  facet normal 0 -1 0
    outer loop
      vertex 94.49 5 0
      vertex 94.4626 5 12.2
      vertex 94.4626 5 0
    endloop
  endfacet
  facet normal 0 -1 0
    outer loop
      vertex 94.49 5 0
      vertex 94.49 5 12.2
      vertex 94.4626 5 12.2
    endloop
  endfacet
  facet normal 0.994522 0.104528 0
    outer loop
      vertex 94.49 53.44 12.2
      vertex 94.49 53.44 0
      vertex 94.3807 54.4796 0
    endloop
  endfacet
  facet normal 0.994522 0.104528 0
    outer loop
      vertex 94.3807 54.4796 12.2
      vertex 94.49 53.44 12.2
      vertex 94.3807 54.4796 0
    endloop
  endfacet
  facet normal 0 1 0
    outer loop
      vertex 89.49 58.4126 0
      vertex 89.49 58.4126 12.2
      vertex 90.0126 58.4126 0
    endloop
  endfacet
  facet normal 0 1 -0
    outer loop
      vertex 90.0126 58.4126 0
      vertex 89.49 58.4126 12.2
      vertex 90.0126 58.4126 12.2
    endloop
  endfacet
  facet normal 0.951057 0.309017 0
    outer loop
      vertex 94.3807 54.4796 12.2
      vertex 94.3807 54.4796 0
      vertex 94.0577 55.4737 0
    endloop
  endfacet
  facet normal 0.951057 0.309017 0
    outer loop
      vertex 94.0577 55.4737 12.2
      vertex 94.3807 54.4796 12.2
      vertex 94.0577 55.4737 0
    endloop
  endfacet
  facet normal 0.743145 0.669131 0
    outer loop
      vertex 93.5351 56.3789 12.2
      vertex 93.5351 56.3789 0
      vertex 92.8357 57.1557 0
    endloop
  endfacet
  facet normal 0.743145 0.669131 0
    outer loop
      vertex 92.8357 57.1557 12.2
      vertex 93.5351 56.3789 12.2
      vertex 92.8357 57.1557 0
    endloop
  endfacet
  facet normal 0.866025 0.5 0
    outer loop
      vertex 94.0577 55.4737 12.2
      vertex 94.0577 55.4737 0
      vertex 93.5351 56.3789 0
    endloop
  endfacet
  facet normal 0.866025 0.5 0
    outer loop
      vertex 93.5351 56.3789 12.2
      vertex 94.0577 55.4737 12.2
      vertex 93.5351 56.3789 0
    endloop
  endfacet
  facet normal 0.207912 0.978148 -0
    outer loop
      vertex 90.0126 58.4126 0
      vertex 90.0126 58.4126 12.2
      vertex 91.0351 58.1953 0
    endloop
  endfacet
  facet normal 0.207912 0.978148 -0
    outer loop
      vertex 91.0351 58.1953 0
      vertex 90.0126 58.4126 12.2
      vertex 91.0351 58.1953 12.2
    endloop
  endfacet
  facet normal 0.587785 0.809017 -0
    outer loop
      vertex 91.99 57.7701 0
      vertex 91.99 57.7701 12.2
      vertex 92.8357 57.1557 0
    endloop
  endfacet
  facet normal 0.587785 0.809017 -0
    outer loop
      vertex 92.8357 57.1557 0
      vertex 91.99 57.7701 12.2
      vertex 92.8357 57.1557 12.2
    endloop
  endfacet
  facet normal 0.406737 0.913545 -0
    outer loop
      vertex 91.0351 58.1953 0
      vertex 91.0351 58.1953 12.2
      vertex 91.99 57.7701 0
    endloop
  endfacet
  facet normal 0.406737 0.913545 -0
    outer loop
      vertex 91.99 57.7701 0
      vertex 91.0351 58.1953 12.2
      vertex 91.99 57.7701 12.2
    endloop
  endfacet
  facet normal 1 -2.82803e-15 0
    outer loop
      vertex 94.49 53.44 0
      vertex 94.49 48.415 12.2
      vertex 94.49 48.415 0
    endloop
  endfacet
  facet normal 1 -2.82803e-15 0
    outer loop
      vertex 94.49 53.44 0
      vertex 94.49 53.44 12.2
      vertex 94.49 48.415 12.2
    endloop
  endfacet
  facet normal 1 0 0
    outer loop
      vertex 89.49 58.44 0
      vertex 89.49 58.4126 12.2
      vertex 89.49 58.4126 0
    endloop
  endfacet
  facet normal 1 0 -0
    outer loop
      vertex 89.49 58.44 0
      vertex 89.49 58.44 12.2
      vertex 89.49 58.4126 12.2
    endloop
  endfacet
  facet normal -0.104528 0.994522 0
    outer loop
      vertex 3.96044 58.3307 0
      vertex 3.96044 58.3307 12.2
      vertex 5 58.44 0
    endloop
  endfacet
  facet normal -0.104528 0.994522 0
    outer loop
      vertex 5 58.44 0
      vertex 3.96044 58.3307 12.2
      vertex 5 58.44 12.2
    endloop
  endfacet
  facet normal -1 2.19063e-16 0
    outer loop
      vertex 0.0273905 53.44 0
      vertex 0.0273905 53.44 12.2
      vertex 0.0273905 53.9626 0
    endloop
  endfacet
  facet normal -1 2.19063e-16 0
    outer loop
      vertex 0.0273905 53.9626 0
      vertex 0.0273905 53.44 12.2
      vertex 0.0273905 53.9626 12.2
    endloop
  endfacet
  facet normal -0.309017 0.951057 0
    outer loop
      vertex 2.96632 58.0077 0
      vertex 2.96632 58.0077 12.2
      vertex 3.96044 58.3307 0
    endloop
  endfacet
  facet normal -0.309017 0.951057 0
    outer loop
      vertex 3.96044 58.3307 0
      vertex 2.96632 58.0077 12.2
      vertex 3.96044 58.3307 12.2
    endloop
  endfacet
  facet normal -0.669131 0.743145 0
    outer loop
      vertex 1.28428 56.7857 0
      vertex 1.28428 56.7857 12.2
      vertex 2.06107 57.4851 0
    endloop
  endfacet
  facet normal -0.669131 0.743145 0
    outer loop
      vertex 2.06107 57.4851 0
      vertex 1.28428 56.7857 12.2
      vertex 2.06107 57.4851 12.2
    endloop
  endfacet
  facet normal -0.5 0.866025 0
    outer loop
      vertex 2.06107 57.4851 0
      vertex 2.06107 57.4851 12.2
      vertex 2.96632 58.0077 0
    endloop
  endfacet
  facet normal -0.5 0.866025 0
    outer loop
      vertex 2.96632 58.0077 0
      vertex 2.06107 57.4851 12.2
      vertex 2.96632 58.0077 12.2
    endloop
  endfacet
  facet normal -0.978148 0.207912 0
    outer loop
      vertex 0.0273905 53.9626 0
      vertex 0.0273905 53.9626 12.2
      vertex 0.244717 54.9851 0
    endloop
  endfacet
  facet normal -0.978148 0.207912 0
    outer loop
      vertex 0.244717 54.9851 0
      vertex 0.0273905 53.9626 12.2
      vertex 0.244717 54.9851 12.2
    endloop
  endfacet
  facet normal -0.809017 0.587785 0
    outer loop
      vertex 0.669873 55.94 0
      vertex 0.669873 55.94 12.2
      vertex 1.28428 56.7857 0
    endloop
  endfacet
  facet normal -0.809017 0.587785 0
    outer loop
      vertex 1.28428 56.7857 0
      vertex 0.669873 55.94 12.2
      vertex 1.28428 56.7857 12.2
    endloop
  endfacet
  facet normal -0.913545 0.406737 0
    outer loop
      vertex 0.244717 54.9851 0
      vertex 0.244717 54.9851 12.2
      vertex 0.669873 55.94 0
    endloop
  endfacet
  facet normal -0.913545 0.406737 0
    outer loop
      vertex 0.669873 55.94 0
      vertex 0.244717 54.9851 12.2
      vertex 0.669873 55.94 12.2
    endloop
  endfacet
  facet normal 1.41402e-15 1 -0
    outer loop
      vertex 5 58.44 0
      vertex 5 58.44 12.2
      vertex 10.025 58.44 0
    endloop
  endfacet
  facet normal 1.41402e-15 1 -0
    outer loop
      vertex 10.025 58.44 0
      vertex 5 58.44 12.2
      vertex 10.025 58.44 12.2
    endloop
  endfacet
  facet normal 0 1 0
    outer loop
      vertex 0 53.44 0
      vertex 0 53.44 12.2
      vertex 0.0273905 53.44 0
    endloop
  endfacet
  facet normal 0 1 -0
    outer loop
      vertex 0.0273905 53.44 0
      vertex 0 53.44 12.2
      vertex 0.0273905 53.44 12.2
    endloop
  endfacet
endsolid OpenSCAD_Model
