solid Default
  facet normal -1.000000e+00 0.000000e+00 0.000000e+00
    outer loop
      vertex -4.395000e+01 -1.677500e+01 0.000000e+00
      vertex -4.395000e+01 -1.677500e+01 8.300000e+00
      vertex -4.395000e+01 4.707500e+01 0.000000e+00
    endloop
  endfacet
  facet normal -1.000000e+00 0.000000e+00 0.000000e+00
    outer loop
      vertex -4.395000e+01 4.707500e+01 0.000000e+00
      vertex -4.395000e+01 -1.677500e+01 8.300000e+00
      vertex -4.395000e+01 4.707500e+01 8.300000e+00
    endloop
  endfacet
  facet normal 0.000000e+00 -1.000000e+00 0.000000e+00
    outer loop
      vertex 2.700000e+01 -1.677500e+01 2.300000e+00
      vertex -2.700000e+01 -1.677500e+01 8.300000e+00
      vertex -2.700000e+01 -1.677500e+01 2.300000e+00
    endloop
  endfacet
  facet normal 0.000000e+00 -1.000000e+00 0.000000e+00
    outer loop
      vertex 2.700000e+01 -1.677500e+01 2.300000e+00
      vertex 2.700000e+01 -1.677500e+01 8.300000e+00
      vertex -2.700000e+01 -1.677500e+01 8.300000e+00
    endloop
  endfacet
  facet normal 0.000000e+00 -1.000000e+00 0.000000e+00
    outer loop
      vertex 2.700000e+01 -1.677500e+01 8.300000e+00
      vertex -2.700000e+01 -1.677500e+01 1.230000e+01
      vertex -2.700000e+01 -1.677500e+01 8.300000e+00
    endloop
  endfacet
  facet normal 0.000000e+00 -1.000000e+00 0.000000e+00
    outer loop
      vertex 2.700000e+01 -1.677500e+01 8.300000e+00
      vertex 2.700000e+01 -1.677500e+01 1.230000e+01
      vertex -2.700000e+01 -1.677500e+01 1.230000e+01
    endloop
  endfacet
  facet normal 0.000000e+00 -1.000000e+00 0.000000e+00
    outer loop
      vertex -2.930000e+01 -1.677500e+01 0.000000e+00
      vertex -4.395000e+01 -1.677500e+01 8.300000e+00
      vertex -4.395000e+01 -1.677500e+01 0.000000e+00
    endloop
  endfacet
  facet normal 0.000000e+00 -1.000000e+00 0.000000e+00
    outer loop
      vertex -2.930000e+01 -1.677500e+01 0.000000e+00
      vertex -2.930000e+01 -1.677500e+01 8.300000e+00
      vertex -4.395000e+01 -1.677500e+01 8.300000e+00
    endloop
  endfacet
  facet normal 0.000000e+00 -1.000000e+00 0.000000e+00
    outer loop
      vertex 4.395000e+01 -1.677500e+01 0.000000e+00
      vertex 2.930000e+01 -1.677500e+01 8.300000e+00
      vertex 2.930000e+01 -1.677500e+01 0.000000e+00
    endloop
  endfacet
  facet normal 0.000000e+00 -1.000000e+00 0.000000e+00
    outer loop
      vertex 4.395000e+01 -1.677500e+01 0.000000e+00
      vertex 4.395000e+01 -1.677500e+01 8.300000e+00
      vertex 2.930000e+01 -1.677500e+01 8.300000e+00
    endloop
  endfacet
  facet normal 0.000000e+00 0.000000e+00 -1.000000e+00
    outer loop
      vertex -4.395000e+01 -1.677500e+01 0.000000e+00
      vertex -4.395000e+01 4.707500e+01 0.000000e+00
      vertex -2.930000e+01 -1.677500e+01 0.000000e+00
    endloop
  endfacet
  facet normal 0.000000e+00 0.000000e+00 -1.000000e+00
    outer loop
      vertex -2.930000e+01 -1.677500e+01 0.000000e+00
      vertex -4.395000e+01 4.707500e+01 0.000000e+00
      vertex 2.930000e+01 -1.677500e+01 0.000000e+00
    endloop
  endfacet
  facet normal 0.000000e+00 0.000000e+00 -1.000000e+00
    outer loop
      vertex 2.930000e+01 -1.677500e+01 0.000000e+00
      vertex 4.395000e+01 4.707500e+01 0.000000e+00
      vertex 4.395000e+01 -1.677500e+01 0.000000e+00
    endloop
  endfacet
  facet normal 0.000000e+00 0.000000e+00 -1.000000e+00
    outer loop
      vertex -4.395000e+01 4.707500e+01 0.000000e+00
      vertex 4.395000e+01 4.707500e+01 0.000000e+00
      vertex 2.930000e+01 -1.677500e+01 0.000000e+00
    endloop
  endfacet
  facet normal -0.000000e+00 -0.000000e+00 -1.000000e+00
    outer loop
      vertex 2.930000e+01 -1.677500e+01 0.000000e+00
      vertex 2.930000e+01 -3.707500e+01 0.000000e+00
      vertex -2.930000e+01 -1.677500e+01 0.000000e+00
    endloop
  endfacet
  facet normal 0.000000e+00 0.000000e+00 -1.000000e+00
    outer loop
      vertex 2.930000e+01 -3.707500e+01 0.000000e+00
      vertex -2.930000e+01 -3.707500e+01 0.000000e+00
      vertex -2.930000e+01 -1.677500e+01 0.000000e+00
    endloop
  endfacet
  facet normal 0.000000e+00 1.000000e+00 0.000000e+00
    outer loop
      vertex -4.395000e+01 4.707500e+01 0.000000e+00
      vertex -4.395000e+01 4.707500e+01 8.300000e+00
      vertex 4.395000e+01 4.707500e+01 0.000000e+00
    endloop
  endfacet
  facet normal 0.000000e+00 1.000000e+00 0.000000e+00
    outer loop
      vertex 4.395000e+01 4.707500e+01 0.000000e+00
      vertex -4.395000e+01 4.707500e+01 8.300000e+00
      vertex 4.395000e+01 4.707500e+01 8.300000e+00
    endloop
  endfacet
  facet normal 0.000000e+00 0.000000e+00 1.000000e+00
    outer loop
      vertex -4.165000e+01 4.477500e+01 8.300000e+00
      vertex -4.395000e+01 -1.677500e+01 8.300000e+00
      vertex -4.165000e+01 -1.447500e+01 8.300000e+00
    endloop
  endfacet
  facet normal 0.000000e+00 0.000000e+00 1.000000e+00
    outer loop
      vertex -2.930000e+01 -1.677500e+01 8.300000e+00
      vertex -4.165000e+01 -1.447500e+01 8.300000e+00
      vertex -4.395000e+01 -1.677500e+01 8.300000e+00
    endloop
  endfacet
  facet normal 0.000000e+00 0.000000e+00 1.000000e+00
    outer loop
      vertex -2.930000e+01 -1.447500e+01 8.300000e+00
      vertex -4.165000e+01 -1.447500e+01 8.300000e+00
      vertex -2.930000e+01 -1.677500e+01 8.300000e+00
    endloop
  endfacet
  facet normal 0.000000e+00 0.000000e+00 1.000000e+00
    outer loop
      vertex -4.165000e+01 4.477500e+01 8.300000e+00
      vertex -4.395000e+01 4.707500e+01 8.300000e+00
      vertex -4.395000e+01 -1.677500e+01 8.300000e+00
    endloop
  endfacet
  facet normal 0.000000e+00 0.000000e+00 1.000000e+00
    outer loop
      vertex 4.395000e+01 4.707500e+01 8.300000e+00
      vertex -4.395000e+01 4.707500e+01 8.300000e+00
      vertex -4.165000e+01 4.477500e+01 8.300000e+00
    endloop
  endfacet
  facet normal 0.000000e+00 0.000000e+00 1.000000e+00
    outer loop
      vertex 2.930000e+01 -1.677500e+01 8.300000e+00
      vertex 4.165000e+01 -1.447500e+01 8.300000e+00
      vertex 2.930000e+01 -1.447500e+01 8.300000e+00
    endloop
  endfacet
  facet normal 0.000000e+00 0.000000e+00 1.000000e+00
    outer loop
      vertex 2.930000e+01 -1.677500e+01 8.300000e+00
      vertex 4.395000e+01 -1.677500e+01 8.300000e+00
      vertex 4.165000e+01 -1.447500e+01 8.300000e+00
    endloop
  endfacet
  facet normal 0.000000e+00 0.000000e+00 1.000000e+00
    outer loop
      vertex 4.395000e+01 -1.677500e+01 8.300000e+00
      vertex 4.165000e+01 4.477500e+01 8.300000e+00
      vertex 4.165000e+01 -1.447500e+01 8.300000e+00
    endloop
  endfacet
  facet normal 0.000000e+00 0.000000e+00 1.000000e+00
    outer loop
      vertex 4.395000e+01 -1.677500e+01 8.300000e+00
      vertex 4.395000e+01 4.707500e+01 8.300000e+00
      vertex 4.165000e+01 4.477500e+01 8.300000e+00
    endloop
  endfacet
  facet normal 0.000000e+00 0.000000e+00 1.000000e+00
    outer loop
      vertex 4.395000e+01 4.707500e+01 8.300000e+00
      vertex -4.165000e+01 4.477500e+01 8.300000e+00
      vertex 4.165000e+01 4.477500e+01 8.300000e+00
    endloop
  endfacet
  facet normal 1.000000e+00 0.000000e+00 0.000000e+00
    outer loop
      vertex 4.395000e+01 4.707500e+01 0.000000e+00
      vertex 4.395000e+01 -1.677500e+01 8.300000e+00
      vertex 4.395000e+01 -1.677500e+01 0.000000e+00
    endloop
  endfacet
  facet normal 1.000000e+00 0.000000e+00 0.000000e+00
    outer loop
      vertex 4.395000e+01 4.707500e+01 0.000000e+00
      vertex 4.395000e+01 4.707500e+01 8.300000e+00
      vertex 4.395000e+01 -1.677500e+01 8.300000e+00
    endloop
  endfacet
  facet normal 1.000000e+00 0.000000e+00 0.000000e+00
    outer loop
      vertex -4.165000e+01 -1.447500e+01 8.300000e+00
      vertex -4.165000e+01 4.477500e+01 2.300000e+00
      vertex -4.165000e+01 4.477500e+01 8.300000e+00
    endloop
  endfacet
  facet normal 1.000000e+00 0.000000e+00 0.000000e+00
    outer loop
      vertex -4.165000e+01 -1.447500e+01 8.300000e+00
      vertex -4.165000e+01 -1.447500e+01 2.300000e+00
      vertex -4.165000e+01 4.477500e+01 2.300000e+00
    endloop
  endfacet
  facet normal 0.000000e+00 1.000000e+00 0.000000e+00
    outer loop
      vertex -2.930000e+01 -1.447500e+01 8.300000e+00
      vertex -2.930000e+01 -1.447500e+01 2.300000e+00
      vertex -4.165000e+01 -1.447500e+01 8.300000e+00
    endloop
  endfacet
  facet normal 0.000000e+00 1.000000e+00 0.000000e+00
    outer loop
      vertex -4.165000e+01 -1.447500e+01 8.300000e+00
      vertex -2.930000e+01 -1.447500e+01 2.300000e+00
      vertex -4.165000e+01 -1.447500e+01 2.300000e+00
    endloop
  endfacet
  facet normal 0.000000e+00 1.000000e+00 0.000000e+00
    outer loop
      vertex 4.165000e+01 -1.447500e+01 8.300000e+00
      vertex 4.165000e+01 -1.447500e+01 2.300000e+00
      vertex 2.930000e+01 -1.447500e+01 8.300000e+00
    endloop
  endfacet
  facet normal 0.000000e+00 1.000000e+00 0.000000e+00
    outer loop
      vertex 2.930000e+01 -1.447500e+01 8.300000e+00
      vertex 4.165000e+01 -1.447500e+01 2.300000e+00
      vertex 2.930000e+01 -1.447500e+01 2.300000e+00
    endloop
  endfacet
  facet normal 0.000000e+00 0.000000e+00 1.000000e+00
    outer loop
      vertex 2.930000e+01 -1.447500e+01 2.300000e+00
      vertex 4.165000e+01 -1.447500e+01 2.300000e+00
      vertex 4.165000e+01 4.477500e+01 2.300000e+00
    endloop
  endfacet
  facet normal 0.000000e+00 0.000000e+00 1.000000e+00
    outer loop
      vertex 2.930000e+01 -1.447500e+01 2.300000e+00
      vertex -4.165000e+01 4.477500e+01 2.300000e+00
      vertex -2.930000e+01 -1.447500e+01 2.300000e+00
    endloop
  endfacet
  facet normal 0.000000e+00 0.000000e+00 1.000000e+00
    outer loop
      vertex 4.165000e+01 4.477500e+01 2.300000e+00
      vertex -4.165000e+01 4.477500e+01 2.300000e+00
      vertex 2.930000e+01 -1.447500e+01 2.300000e+00
    endloop
  endfacet
  facet normal 0.000000e+00 0.000000e+00 1.000000e+00
    outer loop
      vertex -4.165000e+01 -1.447500e+01 2.300000e+00
      vertex -2.930000e+01 -1.447500e+01 2.300000e+00
      vertex -4.165000e+01 4.477500e+01 2.300000e+00
    endloop
  endfacet
  facet normal 0.000000e+00 -1.000000e+00 0.000000e+00
    outer loop
      vertex -4.165000e+01 4.477500e+01 8.300000e+00
      vertex 4.165000e+01 4.477500e+01 2.300000e+00
      vertex 4.165000e+01 4.477500e+01 8.300000e+00
    endloop
  endfacet
  facet normal 0.000000e+00 -1.000000e+00 0.000000e+00
    outer loop
      vertex -4.165000e+01 4.477500e+01 8.300000e+00
      vertex -4.165000e+01 4.477500e+01 2.300000e+00
      vertex 4.165000e+01 4.477500e+01 2.300000e+00
    endloop
  endfacet
  facet normal -1.000000e+00 -0.000000e+00 -0.000000e+00
    outer loop
      vertex 4.165000e+01 4.477500e+01 8.300000e+00
      vertex 4.165000e+01 4.477500e+01 2.300000e+00
      vertex 4.165000e+01 -1.447500e+01 8.300000e+00
    endloop
  endfacet
  facet normal -1.000000e+00 0.000000e+00 0.000000e+00
    outer loop
      vertex 4.165000e+01 -1.447500e+01 8.300000e+00
      vertex 4.165000e+01 4.477500e+01 2.300000e+00
      vertex 4.165000e+01 -1.447500e+01 2.300000e+00
    endloop
  endfacet
  facet normal -1.000000e+00 0.000000e+00 0.000000e+00
    outer loop
      vertex -2.930000e+01 -3.707500e+01 0.000000e+00
      vertex -2.930000e+01 -1.677500e+01 8.300000e+00
      vertex -2.930000e+01 -1.677500e+01 0.000000e+00
    endloop
  endfacet
  facet normal -1.000000e+00 0.000000e+00 0.000000e+00
    outer loop
      vertex -2.930000e+01 -1.677500e+01 8.300000e+00
      vertex -2.930000e+01 -1.447500e+01 1.230000e+01
      vertex -2.930000e+01 -1.447500e+01 8.300000e+00
    endloop
  endfacet
  facet normal -1.000000e+00 0.000000e+00 0.000000e+00
    outer loop
      vertex -2.930000e+01 -1.447500e+01 8.300000e+00
      vertex -2.930000e+01 -1.447500e+01 1.230000e+01
      vertex -2.930000e+01 -1.447500e+01 2.300000e+00
    endloop
  endfacet
  facet normal -1.000000e+00 0.000000e+00 0.000000e+00
    outer loop
      vertex -2.930000e+01 -3.707500e+01 1.230000e+01
      vertex -2.930000e+01 -1.447500e+01 1.230000e+01
      vertex -2.930000e+01 -1.677500e+01 8.300000e+00
    endloop
  endfacet
  facet normal -1.000000e+00 0.000000e+00 0.000000e+00
    outer loop
      vertex -2.930000e+01 -3.707500e+01 0.000000e+00
      vertex -2.930000e+01 -3.707500e+01 1.230000e+01
      vertex -2.930000e+01 -1.677500e+01 8.300000e+00
    endloop
  endfacet
  facet normal 0.000000e+00 -1.000000e+00 0.000000e+00
    outer loop
      vertex 2.930000e+01 -3.707500e+01 0.000000e+00
      vertex -2.930000e+01 -3.707500e+01 1.230000e+01
      vertex -2.930000e+01 -3.707500e+01 0.000000e+00
    endloop
  endfacet
  facet normal 0.000000e+00 -1.000000e+00 0.000000e+00
    outer loop
      vertex 2.930000e+01 -3.707500e+01 0.000000e+00
      vertex 2.930000e+01 -3.707500e+01 1.230000e+01
      vertex -2.930000e+01 -3.707500e+01 1.230000e+01
    endloop
  endfacet
  facet normal 0.000000e+00 1.000000e+00 0.000000e+00
    outer loop
      vertex -2.930000e+01 -1.447500e+01 2.300000e+00
      vertex -2.930000e+01 -1.447500e+01 1.230000e+01
      vertex 2.930000e+01 -1.447500e+01 2.300000e+00
    endloop
  endfacet
  facet normal 0.000000e+00 1.000000e+00 0.000000e+00
    outer loop
      vertex 2.930000e+01 -1.447500e+01 2.300000e+00
      vertex -2.930000e+01 -1.447500e+01 1.230000e+01
      vertex 2.930000e+01 -1.447500e+01 1.230000e+01
    endloop
  endfacet
  facet normal 0.000000e+00 0.000000e+00 1.000000e+00
    outer loop
      vertex 2.930000e+01 -1.447500e+01 1.230000e+01
      vertex -2.930000e+01 -1.447500e+01 1.230000e+01
      vertex 2.700000e+01 -1.677500e+01 1.230000e+01
    endloop
  endfacet
  facet normal 0.000000e+00 0.000000e+00 1.000000e+00
    outer loop
      vertex 2.700000e+01 -3.477500e+01 1.230000e+01
      vertex -2.700000e+01 -3.477500e+01 1.230000e+01
      vertex -2.930000e+01 -3.707500e+01 1.230000e+01
    endloop
  endfacet
  facet normal 0.000000e+00 0.000000e+00 1.000000e+00
    outer loop
      vertex -2.700000e+01 -1.677500e+01 1.230000e+01
      vertex -2.930000e+01 -1.447500e+01 1.230000e+01
      vertex -2.930000e+01 -3.707500e+01 1.230000e+01
    endloop
  endfacet
  facet normal 0.000000e+00 0.000000e+00 1.000000e+00
    outer loop
      vertex -2.930000e+01 -1.447500e+01 1.230000e+01
      vertex -2.700000e+01 -1.677500e+01 1.230000e+01
      vertex 2.700000e+01 -1.677500e+01 1.230000e+01
    endloop
  endfacet
  facet normal 0.000000e+00 0.000000e+00 1.000000e+00
    outer loop
      vertex -2.700000e+01 -1.677500e+01 1.230000e+01
      vertex -2.930000e+01 -3.707500e+01 1.230000e+01
      vertex -2.700000e+01 -3.477500e+01 1.230000e+01
    endloop
  endfacet
  facet normal 0.000000e+00 0.000000e+00 1.000000e+00
    outer loop
      vertex 2.930000e+01 -1.447500e+01 1.230000e+01
      vertex 2.700000e+01 -1.677500e+01 1.230000e+01
      vertex 2.930000e+01 -3.707500e+01 1.230000e+01
    endloop
  endfacet
  facet normal 0.000000e+00 0.000000e+00 1.000000e+00
    outer loop
      vertex 2.700000e+01 -1.677500e+01 1.230000e+01
      vertex 2.700000e+01 -3.477500e+01 1.230000e+01
      vertex 2.930000e+01 -3.707500e+01 1.230000e+01
    endloop
  endfacet
  facet normal 0.000000e+00 0.000000e+00 1.000000e+00
    outer loop
      vertex 2.700000e+01 -3.477500e+01 1.230000e+01
      vertex -2.930000e+01 -3.707500e+01 1.230000e+01
      vertex 2.930000e+01 -3.707500e+01 1.230000e+01
    endloop
  endfacet
  facet normal 1.000000e+00 0.000000e+00 0.000000e+00
    outer loop
      vertex 2.930000e+01 -1.677500e+01 8.300000e+00
      vertex 2.930000e+01 -3.707500e+01 1.230000e+01
      vertex 2.930000e+01 -3.707500e+01 0.000000e+00
    endloop
  endfacet
  facet normal 1.000000e+00 0.000000e+00 0.000000e+00
    outer loop
      vertex 2.930000e+01 -1.677500e+01 0.000000e+00
      vertex 2.930000e+01 -1.677500e+01 8.300000e+00
      vertex 2.930000e+01 -3.707500e+01 0.000000e+00
    endloop
  endfacet
  facet normal 1.000000e+00 0.000000e+00 0.000000e+00
    outer loop
      vertex 2.930000e+01 -1.447500e+01 1.230000e+01
      vertex 2.930000e+01 -3.707500e+01 1.230000e+01
      vertex 2.930000e+01 -1.677500e+01 8.300000e+00
    endloop
  endfacet
  facet normal 1.000000e+00 0.000000e+00 0.000000e+00
    outer loop
      vertex 2.930000e+01 -1.447500e+01 2.300000e+00
      vertex 2.930000e+01 -1.447500e+01 1.230000e+01
      vertex 2.930000e+01 -1.447500e+01 8.300000e+00
    endloop
  endfacet
  facet normal 1.000000e+00 0.000000e+00 0.000000e+00
    outer loop
      vertex 2.930000e+01 -1.447500e+01 1.230000e+01
      vertex 2.930000e+01 -1.677500e+01 8.300000e+00
      vertex 2.930000e+01 -1.447500e+01 8.300000e+00
    endloop
  endfacet
  facet normal 1.000000e+00 0.000000e+00 0.000000e+00
    outer loop
      vertex -2.700000e+01 -3.477500e+01 1.230000e+01
      vertex -2.700000e+01 -1.677500e+01 8.300000e+00
      vertex -2.700000e+01 -1.677500e+01 1.230000e+01
    endloop
  endfacet
  facet normal 1.000000e+00 0.000000e+00 0.000000e+00
    outer loop
      vertex -2.700000e+01 -3.477500e+01 2.300000e+00
      vertex -2.700000e+01 -1.677500e+01 2.300000e+00
      vertex -2.700000e+01 -1.677500e+01 8.300000e+00
    endloop
  endfacet
  facet normal 1.000000e+00 0.000000e+00 0.000000e+00
    outer loop
      vertex -2.700000e+01 -3.477500e+01 1.230000e+01
      vertex -2.700000e+01 -3.477500e+01 2.300000e+00
      vertex -2.700000e+01 -1.677500e+01 8.300000e+00
    endloop
  endfacet
  facet normal 0.000000e+00 1.000000e+00 0.000000e+00
    outer loop
      vertex 2.700000e+01 -3.477500e+01 1.230000e+01
      vertex 2.700000e+01 -3.477500e+01 2.300000e+00
      vertex -2.700000e+01 -3.477500e+01 1.230000e+01
    endloop
  endfacet
  facet normal 0.000000e+00 1.000000e+00 0.000000e+00
    outer loop
      vertex -2.700000e+01 -3.477500e+01 1.230000e+01
      vertex 2.700000e+01 -3.477500e+01 2.300000e+00
      vertex -2.700000e+01 -3.477500e+01 2.300000e+00
    endloop
  endfacet
  facet normal 0.000000e+00 0.000000e+00 1.000000e+00
    outer loop
      vertex -2.700000e+01 -1.677500e+01 2.300000e+00
      vertex 2.700000e+01 -3.477500e+01 2.300000e+00
      vertex 2.700000e+01 -1.677500e+01 2.300000e+00
    endloop
  endfacet
  facet normal 0.000000e+00 0.000000e+00 1.000000e+00
    outer loop
      vertex -2.700000e+01 -1.677500e+01 2.300000e+00
      vertex -2.700000e+01 -3.477500e+01 2.300000e+00
      vertex 2.700000e+01 -3.477500e+01 2.300000e+00
    endloop
  endfacet
  facet normal -1.000000e+00 -0.000000e+00 -0.000000e+00
    outer loop
      vertex 2.700000e+01 -1.677500e+01 1.230000e+01
      vertex 2.700000e+01 -1.677500e+01 8.300000e+00
      vertex 2.700000e+01 -3.477500e+01 1.230000e+01
    endloop
  endfacet
  facet normal -1.000000e+00 0.000000e+00 0.000000e+00
    outer loop
      vertex 2.700000e+01 -3.477500e+01 1.230000e+01
      vertex 2.700000e+01 -1.677500e+01 8.300000e+00
      vertex 2.700000e+01 -3.477500e+01 2.300000e+00
    endloop
  endfacet
  facet normal -1.000000e+00 0.000000e+00 0.000000e+00
    outer loop
      vertex 2.700000e+01 -1.677500e+01 8.300000e+00
      vertex 2.700000e+01 -1.677500e+01 2.300000e+00
      vertex 2.700000e+01 -3.477500e+01 2.300000e+00
    endloop
  endfacet
endsolid Default
