solid OpenSCAD_Model
  facet normal 1 0 0
    outer loop
      vertex 3.7 33.78 0
      vertex 3.7 5.2 7.7
      vertex 3.7 5.2 0
    endloop
  endfacet
  facet normal 1 0 -0
    outer loop
      vertex 3.7 33.78 0
      vertex 3.7 33.78 7.7
      vertex 3.7 5.2 7.7
    endloop
  endfacet
  facet normal 1 0 -0
    outer loop
      vertex 3.7 35.28 7.7
      vertex 3.7 35.28 14.2
      vertex 3.7 33.78 7.7
    endloop
  endfacet
  facet normal 1 0 0
    outer loop
      vertex 3.7 3.7 14.2
      vertex 3.7 5.2 7.7
      vertex 3.7 33.78 7.7
    endloop
  endfacet
  facet normal 1 0 0
    outer loop
      vertex 3.7 35.28 14.2
      vertex 3.7 3.7 14.2
      vertex 3.7 33.78 7.7
    endloop
  endfacet
  facet normal 1 0 0
    outer loop
      vertex 3.7 3.7 7.7
      vertex 3.7 5.2 7.7
      vertex 3.7 3.7 14.2
    endloop
  endfacet
  facet normal 0 1 0
    outer loop
      vertex 41.8 3.7 7.7
      vertex 3.7 3.7 7.7
      vertex 3.7 3.7 14.2
    endloop
  endfacet
  facet normal 0 1 0
    outer loop
      vertex 49.8 3.7 14.2
      vertex 49.8 3.7 7.7
      vertex 47.8 3.7 7.7
    endloop
  endfacet
  facet normal 0 1 -0
    outer loop
      vertex 47.8 3.7 7.7
      vertex 41.8 3.7 7.7
      vertex 49.8 3.7 14.2
    endloop
  endfacet
  facet normal 0 1 0
    outer loop
      vertex 47.8 3.7 7.7
      vertex 47.8 3.7 3.5
      vertex 41.8 3.7 7.7
    endloop
  endfacet
  facet normal 0 1 0
    outer loop
      vertex 47.8 3.7 3.5
      vertex 41.8 3.7 3.5
      vertex 41.8 3.7 7.7
    endloop
  endfacet
  facet normal 0 1 0
    outer loop
      vertex 49.8 3.7 14.2
      vertex 41.8 3.7 7.7
      vertex 3.7 3.7 14.2
    endloop
  endfacet
  facet normal -0 0 1
    outer loop
      vertex 3.7 5.2 7.7
      vertex 41.8 3.7 7.7
      vertex 41.8 5.2 7.7
    endloop
  endfacet
  facet normal 0 0 1
    outer loop
      vertex 3.7 5.2 7.7
      vertex 3.7 3.7 7.7
      vertex 41.8 3.7 7.7
    endloop
  endfacet
  facet normal -0 0 1
    outer loop
      vertex 3.7 35.28 7.7
      vertex 4.7 33.78 7.7
      vertex 4.7 35.28 7.7
    endloop
  endfacet
  facet normal 0 0 1
    outer loop
      vertex 3.7 35.28 7.7
      vertex 3.7 33.78 7.7
      vertex 4.7 33.78 7.7
    endloop
  endfacet
  facet normal -0 0 1
    outer loop
      vertex 47.8 5.2 7.7
      vertex 49.8 3.7 7.7
      vertex 49.8 5.2 7.7
    endloop
  endfacet
  facet normal 0 0 1
    outer loop
      vertex 47.8 5.2 7.7
      vertex 47.8 3.7 7.7
      vertex 49.8 3.7 7.7
    endloop
  endfacet
  facet normal -0 0 1
    outer loop
      vertex 10.7 35.28 7.7
      vertex 49.8 33.78 7.7
      vertex 49.8 35.28 7.7
    endloop
  endfacet
  facet normal 0 0 1
    outer loop
      vertex 10.7 35.28 7.7
      vertex 10.7 33.78 7.7
      vertex 49.8 33.78 7.7
    endloop
  endfacet
  facet normal 0 -1 0
    outer loop
      vertex 10.7 35.28 2.5
      vertex 4.7 35.28 7.7
      vertex 4.7 35.28 2.5
    endloop
  endfacet
  facet normal 0 -1 0
    outer loop
      vertex 10.7 35.28 2.5
      vertex 10.7 35.28 7.7
      vertex 4.7 35.28 7.7
    endloop
  endfacet
  facet normal 0 -1 0
    outer loop
      vertex 49.8 35.28 7.7
      vertex 49.8 35.28 14.2
      vertex 10.7 35.28 7.7
    endloop
  endfacet
  facet normal 0 -1 0
    outer loop
      vertex 3.7 35.28 14.2
      vertex 4.7 35.28 7.7
      vertex 10.7 35.28 7.7
    endloop
  endfacet
  facet normal -0 -1 0
    outer loop
      vertex 49.8 35.28 14.2
      vertex 3.7 35.28 14.2
      vertex 10.7 35.28 7.7
    endloop
  endfacet
  facet normal 0 -1 0
    outer loop
      vertex 3.7 35.28 7.7
      vertex 4.7 35.28 7.7
      vertex 3.7 35.28 14.2
    endloop
  endfacet
  facet normal -1 -0 0
    outer loop
      vertex 49.8 11.49 14.2
      vertex 49.8 5.2 7.7
      vertex 49.8 3.7 14.2
    endloop
  endfacet
  facet normal -1 0 0
    outer loop
      vertex 49.8 5.2 0
      vertex 49.8 27.49 2
      vertex 49.8 33.78 0
    endloop
  endfacet
  facet normal -1 -0 0
    outer loop
      vertex 49.8 33.78 7.7
      vertex 49.8 27.49 2
      vertex 49.8 27.49 14.2
    endloop
  endfacet
  facet normal -1 0 0
    outer loop
      vertex 49.8 33.78 7.7
      vertex 49.8 27.49 14.2
      vertex 49.8 35.28 14.2
    endloop
  endfacet
  facet normal -1 0 0
    outer loop
      vertex 49.8 33.78 0
      vertex 49.8 27.49 2
      vertex 49.8 33.78 7.7
    endloop
  endfacet
  facet normal -1 0 0
    outer loop
      vertex 49.8 35.28 7.7
      vertex 49.8 33.78 7.7
      vertex 49.8 35.28 14.2
    endloop
  endfacet
  facet normal -1 0 -0
    outer loop
      vertex 49.8 11.49 2
      vertex 49.8 27.49 2
      vertex 49.8 5.2 0
    endloop
  endfacet
  facet normal -1 0 0
    outer loop
      vertex 49.8 5.2 7.7
      vertex 49.8 11.49 2
      vertex 49.8 5.2 0
    endloop
  endfacet
  facet normal -1 0 -0
    outer loop
      vertex 49.8 11.49 14.2
      vertex 49.8 11.49 2
      vertex 49.8 5.2 7.7
    endloop
  endfacet
  facet normal -1 0 0
    outer loop
      vertex 49.8 3.7 14.2
      vertex 49.8 5.2 7.7
      vertex 49.8 3.7 7.7
    endloop
  endfacet
  facet normal 0 1 0
    outer loop
      vertex 41.8 5.2 7.7
      vertex 41.8 5.2 3.5
      vertex 3.7 5.2 7.7
    endloop
  endfacet
  facet normal 0 1 0
    outer loop
      vertex 3.7 5.2 7.7
      vertex 41.8 5.2 3.5
      vertex 3.7 5.2 0
    endloop
  endfacet
  facet normal 0 1 0
    outer loop
      vertex 49.8 5.2 7.7
      vertex 47.8 5.2 3.5
      vertex 47.8 5.2 7.7
    endloop
  endfacet
  facet normal 0 1 -0
    outer loop
      vertex 49.8 5.2 0
      vertex 47.8 5.2 3.5
      vertex 49.8 5.2 7.7
    endloop
  endfacet
  facet normal -0 1 0
    outer loop
      vertex 41.8 5.2 3.5
      vertex 47.8 5.2 3.5
      vertex 49.8 5.2 0
    endloop
  endfacet
  facet normal 0 1 0
    outer loop
      vertex 41.8 5.2 3.5
      vertex 49.8 5.2 0
      vertex 3.7 5.2 0
    endloop
  endfacet
  facet normal 0 -1 0
    outer loop
      vertex 10.7 33.78 2.5
      vertex 49.8 33.78 0
      vertex 49.8 33.78 7.7
    endloop
  endfacet
  facet normal 0 -1 0
    outer loop
      vertex 10.7 33.78 7.7
      vertex 10.7 33.78 2.5
      vertex 49.8 33.78 7.7
    endloop
  endfacet
  facet normal 0 -1 0
    outer loop
      vertex 3.7 33.78 0
      vertex 49.8 33.78 0
      vertex 10.7 33.78 2.5
    endloop
  endfacet
  facet normal -0 -1 -0
    outer loop
      vertex 4.7 33.78 7.7
      vertex 3.7 33.78 7.7
      vertex 4.7 33.78 2.5
    endloop
  endfacet
  facet normal 0 -1 0
    outer loop
      vertex 3.7 33.78 7.7
      vertex 3.7 33.78 0
      vertex 4.7 33.78 2.5
    endloop
  endfacet
  facet normal 0 -1 0
    outer loop
      vertex 3.7 33.78 0
      vertex 10.7 33.78 2.5
      vertex 4.7 33.78 2.5
    endloop
  endfacet
  facet normal 0 1 0
    outer loop
      vertex 53.5 11.49 14.2
      vertex 53.5 11.49 2
      vertex 49.8 11.49 14.2
    endloop
  endfacet
  facet normal 0 1 0
    outer loop
      vertex 49.8 11.49 14.2
      vertex 53.5 11.49 2
      vertex 49.8 11.49 2
    endloop
  endfacet
  facet normal -0 0 1
    outer loop
      vertex 49.8 27.49 2
      vertex 53.5 11.49 2
      vertex 53.5 27.49 2
    endloop
  endfacet
  facet normal 0 0 1
    outer loop
      vertex 49.8 27.49 2
      vertex 49.8 11.49 2
      vertex 53.5 11.49 2
    endloop
  endfacet
  facet normal 0 -1 0
    outer loop
      vertex 49.8 27.49 14.2
      vertex 53.5 27.49 2
      vertex 53.5 27.49 14.2
    endloop
  endfacet
  facet normal 0 -1 0
    outer loop
      vertex 49.8 27.49 14.2
      vertex 49.8 27.49 2
      vertex 53.5 27.49 2
    endloop
  endfacet
  facet normal -1 0 0
    outer loop
      vertex 0 5 0
      vertex 0 5 14.2
      vertex 0 33.98 0
    endloop
  endfacet
  facet normal -1 0 0
    outer loop
      vertex 0 33.98 0
      vertex 0 5 14.2
      vertex 0 33.98 14.2
    endloop
  endfacet
  facet normal 0 -1 0
    outer loop
      vertex 43.475 0 0
      vertex 5 0 14.2
      vertex 5 0 0
    endloop
  endfacet
  facet normal 0 -1 0
    outer loop
      vertex 43.475 0 0
      vertex 43.475 0 14.2
      vertex 5 0 14.2
    endloop
  endfacet
  facet normal 0 0 -1
    outer loop
      vertex 0 5 0
      vertex 0 33.98 0
      vertex 2.97736e-16 5 0
    endloop
  endfacet
  facet normal 0 0 -1
    outer loop
      vertex 2.97736e-16 5 0
      vertex 0 33.98 0
      vertex 0.0273905 33.98 0
    endloop
  endfacet
  facet normal 0 0 -1
    outer loop
      vertex 0.0273905 33.98 0
      vertex 0.0273905 34.5026 0
      vertex 3.7 33.78 0
    endloop
  endfacet
  facet normal 0 0 -1
    outer loop
      vertex 3.7 5.2 0
      vertex 0.109262 3.96044 0
      vertex 2.97736e-16 5 0
    endloop
  endfacet
  facet normal 0 0 -1
    outer loop
      vertex 0.0273905 34.5026 0
      vertex 0.244717 35.5251 0
      vertex 3.7 33.78 0
    endloop
  endfacet
  facet normal 0 0 -1
    outer loop
      vertex 0.244717 35.5251 0
      vertex 0.669873 36.48 0
      vertex 3.7 33.78 0
    endloop
  endfacet
  facet normal 0 0 -1
    outer loop
      vertex 0.669873 36.48 0
      vertex 1.28428 37.3257 0
      vertex 3.7 33.78 0
    endloop
  endfacet
  facet normal 0 0 -1
    outer loop
      vertex 1.28428 37.3257 0
      vertex 2.06107 38.0251 0
      vertex 3.7 33.78 0
    endloop
  endfacet
  facet normal 0 0 -1
    outer loop
      vertex 2.06107 38.0251 0
      vertex 2.96632 38.5477 0
      vertex 3.7 33.78 0
    endloop
  endfacet
  facet normal 0 0 -1
    outer loop
      vertex 2.96632 38.5477 0
      vertex 3.96044 38.8707 0
      vertex 3.7 33.78 0
    endloop
  endfacet
  facet normal 0 0 -1
    outer loop
      vertex 5 38.98 0
      vertex 3.7 33.78 0
      vertex 3.96044 38.8707 0
    endloop
  endfacet
  facet normal 0 0 -1
    outer loop
      vertex 49.8 5.2 0
      vertex 49.8 33.78 0
      vertex 53.5 28.955 0
    endloop
  endfacet
  facet normal 0 0 -1
    outer loop
      vertex 10.025 38.98 0
      vertex 48.5 38.98 0
      vertex 48.5 38.9526 0
    endloop
  endfacet
  facet normal 0 0 -1
    outer loop
      vertex 48.5 38.9526 0
      vertex 49.0226 38.9526 0
      vertex 49.8 33.78 0
    endloop
  endfacet
  facet normal 0 0 -1
    outer loop
      vertex 49.0226 38.9526 0
      vertex 50.0451 38.7353 0
      vertex 49.8 33.78 0
    endloop
  endfacet
  facet normal 0 -0 -1
    outer loop
      vertex 50.0451 38.7353 0
      vertex 51 38.3101 0
      vertex 49.8 33.78 0
    endloop
  endfacet
  facet normal 0 -0 -1
    outer loop
      vertex 51 38.3101 0
      vertex 51.8457 37.6957 0
      vertex 49.8 33.78 0
    endloop
  endfacet
  facet normal 0 -0 -1
    outer loop
      vertex 51.8457 37.6957 0
      vertex 52.5451 36.9189 0
      vertex 49.8 33.78 0
    endloop
  endfacet
  facet normal 0 -0 -1
    outer loop
      vertex 52.5451 36.9189 0
      vertex 53.0677 36.0137 0
      vertex 49.8 33.78 0
    endloop
  endfacet
  facet normal 0 -0 -1
    outer loop
      vertex 53.0677 36.0137 0
      vertex 53.3907 35.0196 0
      vertex 49.8 33.78 0
    endloop
  endfacet
  facet normal -0 0 -1
    outer loop
      vertex 53.5 33.98 0
      vertex 49.8 33.78 0
      vertex 53.3907 35.0196 0
    endloop
  endfacet
  facet normal 0 0 -1
    outer loop
      vertex 3.7 33.78 0
      vertex 10.025 38.98 0
      vertex 49.8 33.78 0
    endloop
  endfacet
  facet normal 0 -0 -1
    outer loop
      vertex 53.5 28.955 0
      vertex 53.5 5 0
      vertex 53.4726 5 0
    endloop
  endfacet
  facet normal 0 0 -1
    outer loop
      vertex 0.432273 2.96632 0
      vertex 0.109262 3.96044 0
      vertex 3.7 5.2 0
    endloop
  endfacet
  facet normal 0 0 -1
    outer loop
      vertex 53.4726 4.47736 0
      vertex 49.8 5.2 0
      vertex 53.4726 5 0
    endloop
  endfacet
  facet normal 0 0 -1
    outer loop
      vertex 53.2553 3.45492 0
      vertex 49.8 5.2 0
      vertex 53.4726 4.47736 0
    endloop
  endfacet
  facet normal 0 0 -1
    outer loop
      vertex 52.8301 2.5 0
      vertex 49.8 5.2 0
      vertex 53.2553 3.45492 0
    endloop
  endfacet
  facet normal 0 0 -1
    outer loop
      vertex 52.2157 1.65435 0
      vertex 49.8 5.2 0
      vertex 52.8301 2.5 0
    endloop
  endfacet
  facet normal 0 0 -1
    outer loop
      vertex 51.4389 0.954915 0
      vertex 49.8 5.2 0
      vertex 52.2157 1.65435 0
    endloop
  endfacet
  facet normal 0 0 -1
    outer loop
      vertex 50.5337 0.432273 0
      vertex 49.8 5.2 0
      vertex 51.4389 0.954915 0
    endloop
  endfacet
  facet normal 0 0 -1
    outer loop
      vertex 49.5396 0.109262 0
      vertex 49.8 5.2 0
      vertex 50.5337 0.432273 0
    endloop
  endfacet
  facet normal 0 0 -1
    outer loop
      vertex 48.5 2.97736e-16 0
      vertex 49.8 5.2 0
      vertex 49.5396 0.109262 0
    endloop
  endfacet
  facet normal 0 0 -1
    outer loop
      vertex 48.5 0 0
      vertex 43.475 1.11577e-15 0
      vertex 48.5 2.97736e-16 0
    endloop
  endfacet
  facet normal 0 0 -1
    outer loop
      vertex 43.475 0 0
      vertex 5 0 0
      vertex 43.475 1.11577e-15 0
    endloop
  endfacet
  facet normal -0 0 -1
    outer loop
      vertex 43.475 1.11577e-15 0
      vertex 5 0 0
      vertex 5 0.0273905 0
    endloop
  endfacet
  facet normal 0 0 -1
    outer loop
      vertex 4.47736 0.0273905 0
      vertex 3.7 5.2 0
      vertex 5 0.0273905 0
    endloop
  endfacet
  facet normal 0 0 -1
    outer loop
      vertex 3.45492 0.244717 0
      vertex 3.7 5.2 0
      vertex 4.47736 0.0273905 0
    endloop
  endfacet
  facet normal 0 0 -1
    outer loop
      vertex 2.5 0.669873 0
      vertex 3.7 5.2 0
      vertex 3.45492 0.244717 0
    endloop
  endfacet
  facet normal 0 0 -1
    outer loop
      vertex 1.65435 1.28428 0
      vertex 3.7 5.2 0
      vertex 2.5 0.669873 0
    endloop
  endfacet
  facet normal 0 0 -1
    outer loop
      vertex 0.954915 2.06107 0
      vertex 3.7 5.2 0
      vertex 1.65435 1.28428 0
    endloop
  endfacet
  facet normal 0 0 -1
    outer loop
      vertex 0.432273 2.96632 0
      vertex 3.7 5.2 0
      vertex 0.954915 2.06107 0
    endloop
  endfacet
  facet normal 0 -0 -1
    outer loop
      vertex 5 38.98 0
      vertex 10.025 38.98 0
      vertex 3.7 33.78 0
    endloop
  endfacet
  facet normal 0 -0 -1
    outer loop
      vertex 0.0273905 33.98 0
      vertex 3.7 5.2 0
      vertex 2.97736e-16 5 0
    endloop
  endfacet
  facet normal 0 0 -1
    outer loop
      vertex 43.475 1.11577e-15 0
      vertex 5 0.0273905 0
      vertex 3.7 5.2 0
    endloop
  endfacet
  facet normal -0 -0 -1
    outer loop
      vertex 3.7 33.78 0
      vertex 3.7 5.2 0
      vertex 0.0273905 33.98 0
    endloop
  endfacet
  facet normal 0 0 -1
    outer loop
      vertex 48.5 2.97736e-16 0
      vertex 43.475 1.11577e-15 0
      vertex 49.8 5.2 0
    endloop
  endfacet
  facet normal 0 0 -1
    outer loop
      vertex 53.4726 5 0
      vertex 49.8 5.2 0
      vertex 53.5 28.955 0
    endloop
  endfacet
  facet normal 0 -0 -1
    outer loop
      vertex 53.5 33.98 0
      vertex 53.5 28.955 0
      vertex 49.8 33.78 0
    endloop
  endfacet
  facet normal -0 -0 -1
    outer loop
      vertex 48.5 38.9526 0
      vertex 49.8 33.78 0
      vertex 10.025 38.98 0
    endloop
  endfacet
  facet normal -0 0 -1
    outer loop
      vertex 49.8 5.2 0
      vertex 43.475 1.11577e-15 0
      vertex 3.7 5.2 0
    endloop
  endfacet
  facet normal -0.994522 -0.104528 0
    outer loop
      vertex 2.97736e-16 5 0
      vertex 0.109262 3.96044 14.2
      vertex 2.97736e-16 5 14.2
    endloop
  endfacet
  facet normal -0.994522 -0.104528 0
    outer loop
      vertex 2.97736e-16 5 0
      vertex 0.109262 3.96044 0
      vertex 0.109262 3.96044 14.2
    endloop
  endfacet
  facet normal 0 -1 0
    outer loop
      vertex 5 0.0273905 0
      vertex 4.47736 0.0273905 14.2
      vertex 4.47736 0.0273905 0
    endloop
  endfacet
  facet normal 0 -1 0
    outer loop
      vertex 5 0.0273905 0
      vertex 5 0.0273905 14.2
      vertex 4.47736 0.0273905 14.2
    endloop
  endfacet
  facet normal -0.951057 -0.309017 0
    outer loop
      vertex 0.109262 3.96044 0
      vertex 0.432273 2.96632 14.2
      vertex 0.109262 3.96044 14.2
    endloop
  endfacet
  facet normal -0.951057 -0.309017 0
    outer loop
      vertex 0.109262 3.96044 0
      vertex 0.432273 2.96632 0
      vertex 0.432273 2.96632 14.2
    endloop
  endfacet
  facet normal -0.743145 -0.669131 0
    outer loop
      vertex 0.954915 2.06107 0
      vertex 1.65435 1.28428 14.2
      vertex 0.954915 2.06107 14.2
    endloop
  endfacet
  facet normal -0.743145 -0.669131 0
    outer loop
      vertex 0.954915 2.06107 0
      vertex 1.65435 1.28428 0
      vertex 1.65435 1.28428 14.2
    endloop
  endfacet
  facet normal -0.866025 -0.5 0
    outer loop
      vertex 0.432273 2.96632 0
      vertex 0.954915 2.06107 14.2
      vertex 0.432273 2.96632 14.2
    endloop
  endfacet
  facet normal -0.866025 -0.5 0
    outer loop
      vertex 0.432273 2.96632 0
      vertex 0.954915 2.06107 0
      vertex 0.954915 2.06107 14.2
    endloop
  endfacet
  facet normal -0.207912 -0.978148 0
    outer loop
      vertex 4.47736 0.0273905 0
      vertex 3.45492 0.244717 14.2
      vertex 3.45492 0.244717 0
    endloop
  endfacet
  facet normal -0.207912 -0.978148 0
    outer loop
      vertex 4.47736 0.0273905 0
      vertex 4.47736 0.0273905 14.2
      vertex 3.45492 0.244717 14.2
    endloop
  endfacet
  facet normal -0.587785 -0.809017 0
    outer loop
      vertex 2.5 0.669873 0
      vertex 1.65435 1.28428 14.2
      vertex 1.65435 1.28428 0
    endloop
  endfacet
  facet normal -0.587785 -0.809017 0
    outer loop
      vertex 2.5 0.669873 0
      vertex 2.5 0.669873 14.2
      vertex 1.65435 1.28428 14.2
    endloop
  endfacet
  facet normal -0.406737 -0.913545 0
    outer loop
      vertex 3.45492 0.244717 0
      vertex 2.5 0.669873 14.2
      vertex 2.5 0.669873 0
    endloop
  endfacet
  facet normal -0.406737 -0.913545 0
    outer loop
      vertex 3.45492 0.244717 0
      vertex 3.45492 0.244717 14.2
      vertex 2.5 0.669873 14.2
    endloop
  endfacet
  facet normal 0 -1 0
    outer loop
      vertex 2.97736e-16 5 0
      vertex 0 5 14.2
      vertex 0 5 0
    endloop
  endfacet
  facet normal 0 -1 0
    outer loop
      vertex 2.97736e-16 5 0
      vertex 2.97736e-16 5 14.2
      vertex 0 5 14.2
    endloop
  endfacet
  facet normal -1 0 0
    outer loop
      vertex 5 0 0
      vertex 5 0 14.2
      vertex 5 0.0273905 0
    endloop
  endfacet
  facet normal -1 0 0
    outer loop
      vertex 5 0.0273905 0
      vertex 5 0 14.2
      vertex 5 0.0273905 14.2
    endloop
  endfacet
  facet normal 1 -0 0
    outer loop
      vertex 43.475 0 14.2
      vertex 43.475 1.11577e-15 0
      vertex 43.475 1.11577e-15 14.2
    endloop
  endfacet
  facet normal 1 0 0
    outer loop
      vertex 43.475 0 14.2
      vertex 43.475 0 0
      vertex 43.475 1.11577e-15 0
    endloop
  endfacet
  facet normal 0.104528 -0.994522 0
    outer loop
      vertex 49.5396 0.109262 0
      vertex 48.5 2.97736e-16 14.2
      vertex 48.5 2.97736e-16 0
    endloop
  endfacet
  facet normal 0.104528 -0.994522 0
    outer loop
      vertex 49.5396 0.109262 0
      vertex 49.5396 0.109262 14.2
      vertex 48.5 2.97736e-16 14.2
    endloop
  endfacet
  facet normal 1 0 0
    outer loop
      vertex 53.4726 5 0
      vertex 53.4726 4.47736 14.2
      vertex 53.4726 4.47736 0
    endloop
  endfacet
  facet normal 1 0 -0
    outer loop
      vertex 53.4726 5 0
      vertex 53.4726 5 14.2
      vertex 53.4726 4.47736 14.2
    endloop
  endfacet
  facet normal 0.309017 -0.951057 0
    outer loop
      vertex 50.5337 0.432273 0
      vertex 49.5396 0.109262 14.2
      vertex 49.5396 0.109262 0
    endloop
  endfacet
  facet normal 0.309017 -0.951057 0
    outer loop
      vertex 50.5337 0.432273 0
      vertex 50.5337 0.432273 14.2
      vertex 49.5396 0.109262 14.2
    endloop
  endfacet
  facet normal 0.669131 -0.743145 0
    outer loop
      vertex 52.2157 1.65435 0
      vertex 51.4389 0.954915 14.2
      vertex 51.4389 0.954915 0
    endloop
  endfacet
  facet normal 0.669131 -0.743145 0
    outer loop
      vertex 52.2157 1.65435 0
      vertex 52.2157 1.65435 14.2
      vertex 51.4389 0.954915 14.2
    endloop
  endfacet
  facet normal 0.5 -0.866025 0
    outer loop
      vertex 51.4389 0.954915 0
      vertex 50.5337 0.432273 14.2
      vertex 50.5337 0.432273 0
    endloop
  endfacet
  facet normal 0.5 -0.866025 0
    outer loop
      vertex 51.4389 0.954915 0
      vertex 51.4389 0.954915 14.2
      vertex 50.5337 0.432273 14.2
    endloop
  endfacet
  facet normal 0.978148 -0.207912 0
    outer loop
      vertex 53.4726 4.47736 0
      vertex 53.2553 3.45492 14.2
      vertex 53.2553 3.45492 0
    endloop
  endfacet
  facet normal 0.978148 -0.207912 0
    outer loop
      vertex 53.4726 4.47736 0
      vertex 53.4726 4.47736 14.2
      vertex 53.2553 3.45492 14.2
    endloop
  endfacet
  facet normal 0.809017 -0.587785 0
    outer loop
      vertex 52.8301 2.5 0
      vertex 52.2157 1.65435 14.2
      vertex 52.2157 1.65435 0
    endloop
  endfacet
  facet normal 0.809017 -0.587785 0
    outer loop
      vertex 52.8301 2.5 0
      vertex 52.8301 2.5 14.2
      vertex 52.2157 1.65435 14.2
    endloop
  endfacet
  facet normal 0.913545 -0.406737 0
    outer loop
      vertex 53.2553 3.45492 0
      vertex 52.8301 2.5 14.2
      vertex 52.8301 2.5 0
    endloop
  endfacet
  facet normal 0.913545 -0.406737 0
    outer loop
      vertex 53.2553 3.45492 0
      vertex 53.2553 3.45492 14.2
      vertex 52.8301 2.5 14.2
    endloop
  endfacet
  facet normal -2.22045e-16 -1 0
    outer loop
      vertex 48.5 0 0
      vertex 43.475 1.11577e-15 14.2
      vertex 43.475 1.11577e-15 0
    endloop
  endfacet
  facet normal -2.22045e-16 -1 0
    outer loop
      vertex 48.5 0 0
      vertex 48.5 0 14.2
      vertex 43.475 1.11577e-15 14.2
    endloop
  endfacet
  facet normal 1 0 0
    outer loop
      vertex 48.5 2.97736e-16 0
      vertex 48.5 0 14.2
      vertex 48.5 0 0
    endloop
  endfacet
  facet normal 1 0 -0
    outer loop
      vertex 48.5 2.97736e-16 0
      vertex 48.5 2.97736e-16 14.2
      vertex 48.5 0 14.2
    endloop
  endfacet
  facet normal 0 -1 0
    outer loop
      vertex 53.5 5 0
      vertex 53.4726 5 14.2
      vertex 53.4726 5 0
    endloop
  endfacet
  facet normal 0 -1 0
    outer loop
      vertex 53.5 5 0
      vertex 53.5 5 14.2
      vertex 53.4726 5 14.2
    endloop
  endfacet
  facet normal 0.994522 0.104528 0
    outer loop
      vertex 53.5 33.98 14.2
      vertex 53.5 33.98 0
      vertex 53.3907 35.0196 0
    endloop
  endfacet
  facet normal 0.994522 0.104528 0
    outer loop
      vertex 53.3907 35.0196 14.2
      vertex 53.5 33.98 14.2
      vertex 53.3907 35.0196 0
    endloop
  endfacet
  facet normal 0 1 0
    outer loop
      vertex 48.5 38.9526 0
      vertex 48.5 38.9526 14.2
      vertex 49.0226 38.9526 0
    endloop
  endfacet
  facet normal 0 1 -0
    outer loop
      vertex 49.0226 38.9526 0
      vertex 48.5 38.9526 14.2
      vertex 49.0226 38.9526 14.2
    endloop
  endfacet
  facet normal 0.951057 0.309017 0
    outer loop
      vertex 53.3907 35.0196 14.2
      vertex 53.3907 35.0196 0
      vertex 53.0677 36.0137 0
    endloop
  endfacet
  facet normal 0.951057 0.309017 0
    outer loop
      vertex 53.0677 36.0137 14.2
      vertex 53.3907 35.0196 14.2
      vertex 53.0677 36.0137 0
    endloop
  endfacet
  facet normal 0.743145 0.669131 0
    outer loop
      vertex 52.5451 36.9189 14.2
      vertex 52.5451 36.9189 0
      vertex 51.8457 37.6957 0
    endloop
  endfacet
  facet normal 0.743145 0.669131 0
    outer loop
      vertex 51.8457 37.6957 14.2
      vertex 52.5451 36.9189 14.2
      vertex 51.8457 37.6957 0
    endloop
  endfacet
  facet normal 0.866025 0.5 0
    outer loop
      vertex 53.0677 36.0137 14.2
      vertex 53.0677 36.0137 0
      vertex 52.5451 36.9189 0
    endloop
  endfacet
  facet normal 0.866025 0.5 0
    outer loop
      vertex 52.5451 36.9189 14.2
      vertex 53.0677 36.0137 14.2
      vertex 52.5451 36.9189 0
    endloop
  endfacet
  facet normal 0.207912 0.978148 -0
    outer loop
      vertex 49.0226 38.9526 0
      vertex 49.0226 38.9526 14.2
      vertex 50.0451 38.7353 0
    endloop
  endfacet
  facet normal 0.207912 0.978148 -0
    outer loop
      vertex 50.0451 38.7353 0
      vertex 49.0226 38.9526 14.2
      vertex 50.0451 38.7353 14.2
    endloop
  endfacet
  facet normal 0.587785 0.809017 -0
    outer loop
      vertex 51 38.3101 0
      vertex 51 38.3101 14.2
      vertex 51.8457 37.6957 0
    endloop
  endfacet
  facet normal 0.587785 0.809017 -0
    outer loop
      vertex 51.8457 37.6957 0
      vertex 51 38.3101 14.2
      vertex 51.8457 37.6957 14.2
    endloop
  endfacet
  facet normal 0.406737 0.913545 -0
    outer loop
      vertex 50.0451 38.7353 0
      vertex 50.0451 38.7353 14.2
      vertex 51 38.3101 0
    endloop
  endfacet
  facet normal 0.406737 0.913545 -0
    outer loop
      vertex 51 38.3101 0
      vertex 50.0451 38.7353 14.2
      vertex 51 38.3101 14.2
    endloop
  endfacet
  facet normal 1 -1.41402e-15 0
    outer loop
      vertex 53.5 33.98 0
      vertex 53.5 28.955 14.2
      vertex 53.5 28.955 0
    endloop
  endfacet
  facet normal 1 -1.41402e-15 0
    outer loop
      vertex 53.5 33.98 0
      vertex 53.5 33.98 14.2
      vertex 53.5 28.955 14.2
    endloop
  endfacet
  facet normal 1 0 0
    outer loop
      vertex 48.5 38.98 0
      vertex 48.5 38.9526 14.2
      vertex 48.5 38.9526 0
    endloop
  endfacet
  facet normal 1 0 -0
    outer loop
      vertex 48.5 38.98 0
      vertex 48.5 38.98 14.2
      vertex 48.5 38.9526 14.2
    endloop
  endfacet
  facet normal -0.104528 0.994522 0
    outer loop
      vertex 3.96044 38.8707 0
      vertex 3.96044 38.8707 14.2
      vertex 5 38.98 0
    endloop
  endfacet
  facet normal -0.104528 0.994522 0
    outer loop
      vertex 5 38.98 0
      vertex 3.96044 38.8707 14.2
      vertex 5 38.98 14.2
    endloop
  endfacet
  facet normal -1 2.19063e-16 0
    outer loop
      vertex 0.0273905 33.98 0
      vertex 0.0273905 33.98 14.2
      vertex 0.0273905 34.5026 0
    endloop
  endfacet
  facet normal -1 2.19063e-16 0
    outer loop
      vertex 0.0273905 34.5026 0
      vertex 0.0273905 33.98 14.2
      vertex 0.0273905 34.5026 14.2
    endloop
  endfacet
  facet normal -0.309017 0.951057 0
    outer loop
      vertex 2.96632 38.5477 0
      vertex 2.96632 38.5477 14.2
      vertex 3.96044 38.8707 0
    endloop
  endfacet
  facet normal -0.309017 0.951057 0
    outer loop
      vertex 3.96044 38.8707 0
      vertex 2.96632 38.5477 14.2
      vertex 3.96044 38.8707 14.2
    endloop
  endfacet
  facet normal -0.669131 0.743145 0
    outer loop
      vertex 1.28428 37.3257 0
      vertex 1.28428 37.3257 14.2
      vertex 2.06107 38.0251 0
    endloop
  endfacet
  facet normal -0.669131 0.743145 0
    outer loop
      vertex 2.06107 38.0251 0
      vertex 1.28428 37.3257 14.2
      vertex 2.06107 38.0251 14.2
    endloop
  endfacet
  facet normal -0.5 0.866025 0
    outer loop
      vertex 2.06107 38.0251 0
      vertex 2.06107 38.0251 14.2
      vertex 2.96632 38.5477 0
    endloop
  endfacet
  facet normal -0.5 0.866025 0
    outer loop
      vertex 2.96632 38.5477 0
      vertex 2.06107 38.0251 14.2
      vertex 2.96632 38.5477 14.2
    endloop
  endfacet
  facet normal -0.978148 0.207912 0
    outer loop
      vertex 0.0273905 34.5026 0
      vertex 0.0273905 34.5026 14.2
      vertex 0.244717 35.5251 0
    endloop
  endfacet
  facet normal -0.978148 0.207912 0
    outer loop
      vertex 0.244717 35.5251 0
      vertex 0.0273905 34.5026 14.2
      vertex 0.244717 35.5251 14.2
    endloop
  endfacet
  facet normal -0.809017 0.587785 0
    outer loop
      vertex 0.669873 36.48 0
      vertex 0.669873 36.48 14.2
      vertex 1.28428 37.3257 0
    endloop
  endfacet
  facet normal -0.809017 0.587785 0
    outer loop
      vertex 1.28428 37.3257 0
      vertex 0.669873 36.48 14.2
      vertex 1.28428 37.3257 14.2
    endloop
  endfacet
  facet normal -0.913545 0.406737 0
    outer loop
      vertex 0.244717 35.5251 0
      vertex 0.244717 35.5251 14.2
      vertex 0.669873 36.48 0
    endloop
  endfacet
  facet normal -0.913545 0.406737 0
    outer loop
      vertex 0.669873 36.48 0
      vertex 0.244717 35.5251 14.2
      vertex 0.669873 36.48 14.2
    endloop
  endfacet
  facet normal 1.41402e-15 1 -0
    outer loop
      vertex 5 38.98 0
      vertex 5 38.98 14.2
      vertex 10.025 38.98 0
    endloop
  endfacet
  facet normal 1.41402e-15 1 -0
    outer loop
      vertex 10.025 38.98 0
      vertex 5 38.98 14.2
      vertex 10.025 38.98 14.2
    endloop
  endfacet
  facet normal 0 1 0
    outer loop
      vertex 0 33.98 0
      vertex 0 33.98 14.2
      vertex 0.0273905 33.98 0
    endloop
  endfacet
  facet normal 0 1 -0
    outer loop
      vertex 0.0273905 33.98 0
      vertex 0 33.98 14.2
      vertex 0.0273905 33.98 14.2
    endloop
  endfacet
  facet normal 0 1 0
    outer loop
      vertex 10.025 38.98 0
      vertex 10.025 38.98 14.2
      vertex 48.5 38.98 0
    endloop
  endfacet
  facet normal 0 1 -0
    outer loop
      vertex 48.5 38.98 0
      vertex 10.025 38.98 14.2
      vertex 48.5 38.98 14.2
    endloop
  endfacet
  facet normal 0 0 1
    outer loop
      vertex 2.97736e-16 5 14.2
      vertex 0 33.98 14.2
      vertex 0 5 14.2
    endloop
  endfacet
  facet normal 0 -0 1
    outer loop
      vertex 4.47736 0.0273905 14.2
      vertex 5 0.0273905 14.2
      vertex 3.7 3.7 14.2
    endloop
  endfacet
  facet normal -0 -0 1
    outer loop
      vertex 0.109262 3.96044 14.2
      vertex 3.7 3.7 14.2
      vertex 2.97736e-16 5 14.2
    endloop
  endfacet
  facet normal 0 -0 1
    outer loop
      vertex 0.432273 2.96632 14.2
      vertex 3.7 3.7 14.2
      vertex 0.109262 3.96044 14.2
    endloop
  endfacet
  facet normal 0 -0 1
    outer loop
      vertex 0.954915 2.06107 14.2
      vertex 3.7 3.7 14.2
      vertex 0.432273 2.96632 14.2
    endloop
  endfacet
  facet normal 0 -0 1
    outer loop
      vertex 1.65435 1.28428 14.2
      vertex 3.7 3.7 14.2
      vertex 0.954915 2.06107 14.2
    endloop
  endfacet
  facet normal 0 -0 1
    outer loop
      vertex 2.5 0.669873 14.2
      vertex 3.7 3.7 14.2
      vertex 1.65435 1.28428 14.2
    endloop
  endfacet
  facet normal 0 -0 1
    outer loop
      vertex 3.45492 0.244717 14.2
      vertex 3.7 3.7 14.2
      vertex 2.5 0.669873 14.2
    endloop
  endfacet
  facet normal 0 0 1
    outer loop
      vertex 4.47736 0.0273905 14.2
      vertex 3.7 3.7 14.2
      vertex 3.45492 0.244717 14.2
    endloop
  endfacet
  facet normal 0 0 1
    outer loop
      vertex 5 0 14.2
      vertex 43.475 1.11577e-15 14.2
      vertex 5 0.0273905 14.2
    endloop
  endfacet
  facet normal 0 -0 1
    outer loop
      vertex 43.475 0 14.2
      vertex 43.475 1.11577e-15 14.2
      vertex 5 0 14.2
    endloop
  endfacet
  facet normal 0 0 1
    outer loop
      vertex 3.7 35.28 14.2
      vertex 10.025 38.98 14.2
      vertex 5 38.98 14.2
    endloop
  endfacet
  facet normal 0 -0 1
    outer loop
      vertex 48.5 0 14.2
      vertex 48.5 2.97736e-16 14.2
      vertex 43.475 1.11577e-15 14.2
    endloop
  endfacet
  facet normal 0 -0 1
    outer loop
      vertex 49.5396 0.109262 14.2
      vertex 49.8 3.7 14.2
      vertex 48.5 2.97736e-16 14.2
    endloop
  endfacet
  facet normal 0 0 1
    outer loop
      vertex 50.5337 0.432273 14.2
      vertex 49.8 3.7 14.2
      vertex 49.5396 0.109262 14.2
    endloop
  endfacet
  facet normal 0 0 1
    outer loop
      vertex 51.4389 0.954915 14.2
      vertex 49.8 3.7 14.2
      vertex 50.5337 0.432273 14.2
    endloop
  endfacet
  facet normal 0 0 1
    outer loop
      vertex 52.2157 1.65435 14.2
      vertex 49.8 3.7 14.2
      vertex 51.4389 0.954915 14.2
    endloop
  endfacet
  facet normal 0 0 1
    outer loop
      vertex 52.8301 2.5 14.2
      vertex 49.8 3.7 14.2
      vertex 52.2157 1.65435 14.2
    endloop
  endfacet
  facet normal 0 0 1
    outer loop
      vertex 53.2553 3.45492 14.2
      vertex 49.8 3.7 14.2
      vertex 52.8301 2.5 14.2
    endloop
  endfacet
  facet normal 0 0 1
    outer loop
      vertex 53.4726 4.47736 14.2
      vertex 49.8 3.7 14.2
      vertex 53.2553 3.45492 14.2
    endloop
  endfacet
  facet normal -0 0 1
    outer loop
      vertex 43.475 1.11577e-15 14.2
      vertex 48.5 2.97736e-16 14.2
      vertex 49.8 3.7 14.2
    endloop
  endfacet
  facet normal 0 -0 1
    outer loop
      vertex 53.5 5 14.2
      vertex 53.5 11.49 14.2
      vertex 53.4726 5 14.2
    endloop
  endfacet
  facet normal 0 0 1
    outer loop
      vertex 53.5 11.49 14.2
      vertex 49.8 11.49 14.2
      vertex 53.4726 5 14.2
    endloop
  endfacet
  facet normal 0 0 1
    outer loop
      vertex 3.7 3.7 14.2
      vertex 5 0.0273905 14.2
      vertex 43.475 1.11577e-15 14.2
    endloop
  endfacet
  facet normal 0 0 1
    outer loop
      vertex 49.8 11.49 14.2
      vertex 49.8 3.7 14.2
      vertex 53.4726 5 14.2
    endloop
  endfacet
  facet normal 0 0 1
    outer loop
      vertex 49.8 3.7 14.2
      vertex 53.4726 4.47736 14.2
      vertex 53.4726 5 14.2
    endloop
  endfacet
  facet normal 0 -0 1
    outer loop
      vertex 2.97736e-16 5 14.2
      vertex 0.0273905 33.98 14.2
      vertex 0 33.98 14.2
    endloop
  endfacet
  facet normal 0 -0 1
    outer loop
      vertex 3.7 3.7 14.2
      vertex 3.7 35.28 14.2
      vertex 0.0273905 33.98 14.2
    endloop
  endfacet
  facet normal 0 0 1
    outer loop
      vertex 53.3907 35.0196 14.2
      vertex 49.8 35.28 14.2
      vertex 53.5 33.98 14.2
    endloop
  endfacet
  facet normal 0 0 1
    outer loop
      vertex 53.5 27.49 14.2
      vertex 53.5 28.955 14.2
      vertex 49.8 27.49 14.2
    endloop
  endfacet
  facet normal 0 0 1
    outer loop
      vertex 53.5 28.955 14.2
      vertex 49.8 35.28 14.2
      vertex 49.8 27.49 14.2
    endloop
  endfacet
  facet normal 0 0 1
    outer loop
      vertex 53.5 33.98 14.2
      vertex 49.8 35.28 14.2
      vertex 53.5 28.955 14.2
    endloop
  endfacet
  facet normal 0 0 1
    outer loop
      vertex 53.3907 35.0196 14.2
      vertex 53.0677 36.0137 14.2
      vertex 49.8 35.28 14.2
    endloop
  endfacet
  facet normal 0 0 1
    outer loop
      vertex 53.0677 36.0137 14.2
      vertex 52.5451 36.9189 14.2
      vertex 49.8 35.28 14.2
    endloop
  endfacet
  facet normal 0 0 1
    outer loop
      vertex 52.5451 36.9189 14.2
      vertex 51.8457 37.6957 14.2
      vertex 49.8 35.28 14.2
    endloop
  endfacet
  facet normal 0 0 1
    outer loop
      vertex 51.8457 37.6957 14.2
      vertex 51 38.3101 14.2
      vertex 49.8 35.28 14.2
    endloop
  endfacet
  facet normal 0 0 1
    outer loop
      vertex 51 38.3101 14.2
      vertex 50.0451 38.7353 14.2
      vertex 49.8 35.28 14.2
    endloop
  endfacet
  facet normal 0 0 1
    outer loop
      vertex 50.0451 38.7353 14.2
      vertex 49.0226 38.9526 14.2
      vertex 49.8 35.28 14.2
    endloop
  endfacet
  facet normal 0 0 1
    outer loop
      vertex 49.0226 38.9526 14.2
      vertex 48.5 38.9526 14.2
      vertex 49.8 35.28 14.2
    endloop
  endfacet
  facet normal 0 0 1
    outer loop
      vertex 48.5 38.98 14.2
      vertex 10.025 38.98 14.2
      vertex 48.5 38.9526 14.2
    endloop
  endfacet
  facet normal -0 0 1
    outer loop
      vertex 3.96044 38.8707 14.2
      vertex 3.7 35.28 14.2
      vertex 5 38.98 14.2
    endloop
  endfacet
  facet normal 0 0 1
    outer loop
      vertex 3.7 35.28 14.2
      vertex 0.0273905 34.5026 14.2
      vertex 0.0273905 33.98 14.2
    endloop
  endfacet
  facet normal 0 0 1
    outer loop
      vertex 3.96044 38.8707 14.2
      vertex 2.96632 38.5477 14.2
      vertex 3.7 35.28 14.2
    endloop
  endfacet
  facet normal 0 0 1
    outer loop
      vertex 2.96632 38.5477 14.2
      vertex 2.06107 38.0251 14.2
      vertex 3.7 35.28 14.2
    endloop
  endfacet
  facet normal 0 0 1
    outer loop
      vertex 2.06107 38.0251 14.2
      vertex 1.28428 37.3257 14.2
      vertex 3.7 35.28 14.2
    endloop
  endfacet
  facet normal 0 0 1
    outer loop
      vertex 1.28428 37.3257 14.2
      vertex 0.669873 36.48 14.2
      vertex 3.7 35.28 14.2
    endloop
  endfacet
  facet normal 0 0 1
    outer loop
      vertex 0.669873 36.48 14.2
      vertex 0.244717 35.5251 14.2
      vertex 3.7 35.28 14.2
    endloop
  endfacet
  facet normal 0 0 1
    outer loop
      vertex 0.244717 35.5251 14.2
      vertex 0.0273905 34.5026 14.2
      vertex 3.7 35.28 14.2
    endloop
  endfacet
  facet normal 0 0 1
    outer loop
      vertex 3.7 3.7 14.2
      vertex 0.0273905 33.98 14.2
      vertex 2.97736e-16 5 14.2
    endloop
  endfacet
  facet normal 0 -0 1
    outer loop
      vertex 43.475 1.11577e-15 14.2
      vertex 49.8 3.7 14.2
      vertex 3.7 3.7 14.2
    endloop
  endfacet
  facet normal 0 0 1
    outer loop
      vertex 48.5 38.9526 14.2
      vertex 10.025 38.98 14.2
      vertex 49.8 35.28 14.2
    endloop
  endfacet
  facet normal 0 0 1
    outer loop
      vertex 10.025 38.98 14.2
      vertex 3.7 35.28 14.2
      vertex 49.8 35.28 14.2
    endloop
  endfacet
  facet normal 1 0 -0
    outer loop
      vertex 53.5 28.955 0
      vertex 53.5 28.955 14.2
      vertex 53.5 27.49 2
    endloop
  endfacet
  facet normal 1 0 0
    outer loop
      vertex 53.5 28.955 14.2
      vertex 53.5 27.49 14.2
      vertex 53.5 27.49 2
    endloop
  endfacet
  facet normal 1 0 0
    outer loop
      vertex 53.5 28.955 0
      vertex 53.5 11.49 2
      vertex 53.5 5 0
    endloop
  endfacet
  facet normal 1 0 0
    outer loop
      vertex 53.5 27.49 2
      vertex 53.5 11.49 2
      vertex 53.5 28.955 0
    endloop
  endfacet
  facet normal 1 0 0
    outer loop
      vertex 53.5 11.49 2
      vertex 53.5 5 14.2
      vertex 53.5 5 0
    endloop
  endfacet
  facet normal 1 0 0
    outer loop
      vertex 53.5 11.49 14.2
      vertex 53.5 5 14.2
      vertex 53.5 11.49 2
    endloop
  endfacet
  facet normal 1 -0 0
    outer loop
      vertex 41.8 3.7 7.7
      vertex 41.8 5.2 3.5
      vertex 41.8 5.2 7.7
    endloop
  endfacet
  facet normal 1 0 0
    outer loop
      vertex 41.8 3.7 7.7
      vertex 41.8 3.7 3.5
      vertex 41.8 5.2 3.5
    endloop
  endfacet
  facet normal -0 0 1
    outer loop
      vertex 41.8 5.2 3.5
      vertex 47.8 3.7 3.5
      vertex 47.8 5.2 3.5
    endloop
  endfacet
  facet normal 0 0 1
    outer loop
      vertex 41.8 5.2 3.5
      vertex 41.8 3.7 3.5
      vertex 47.8 3.7 3.5
    endloop
  endfacet
  facet normal -1 -0 -0
    outer loop
      vertex 47.8 5.2 7.7
      vertex 47.8 5.2 3.5
      vertex 47.8 3.7 7.7
    endloop
  endfacet
  facet normal -1 0 0
    outer loop
      vertex 47.8 3.7 7.7
      vertex 47.8 5.2 3.5
      vertex 47.8 3.7 3.5
    endloop
  endfacet
  facet normal 1 -0 0
    outer loop
      vertex 4.7 33.78 7.7
      vertex 4.7 35.28 2.5
      vertex 4.7 35.28 7.7
    endloop
  endfacet
  facet normal 1 0 0
    outer loop
      vertex 4.7 33.78 7.7
      vertex 4.7 33.78 2.5
      vertex 4.7 35.28 2.5
    endloop
  endfacet
  facet normal -0 0 1
    outer loop
      vertex 4.7 35.28 2.5
      vertex 10.7 33.78 2.5
      vertex 10.7 35.28 2.5
    endloop
  endfacet
  facet normal 0 0 1
    outer loop
      vertex 4.7 35.28 2.5
      vertex 4.7 33.78 2.5
      vertex 10.7 33.78 2.5
    endloop
  endfacet
  facet normal -1 -0 -0
    outer loop
      vertex 10.7 35.28 7.7
      vertex 10.7 35.28 2.5
      vertex 10.7 33.78 7.7
    endloop
  endfacet
  facet normal -1 0 0
    outer loop
      vertex 10.7 33.78 7.7
      vertex 10.7 35.28 2.5
      vertex 10.7 33.78 2.5
    endloop
  endfacet
endsolid OpenSCAD_Model
