solid OpenSCAD_Model
  facet normal -0.998053 0 0.0623783
    outer loop
      vertex -3.71875 19.9 1
      vertex -3.5 12.8 4.5
      vertex -3.5 19.2 4.5
    endloop
  endfacet
  facet normal -0.998053 0 0.0623783
    outer loop
      vertex -3.5 12.8 4.5
      vertex -3.71875 19.9 1
      vertex -3.71875 12.1 1
    endloop
  endfacet
  facet normal 0.998053 -0 0.0623783
    outer loop
      vertex -1.5 12.8 4.5
      vertex -1.28125 19.9 1
      vertex -1.5 19.2 4.5
    endloop
  endfacet
  facet normal 0.998053 0 0.0623783
    outer loop
      vertex -1.28125 19.9 1
      vertex -1.5 12.8 4.5
      vertex -1.28125 12.1 1
    endloop
  endfacet
  facet normal -0 0 1
    outer loop
      vertex -3.5 19.2 4.5
      vertex -1.5 12.8 4.5
      vertex -1.5 19.2 4.5
    endloop
  endfacet
  facet normal 0 0 1
    outer loop
      vertex -1.5 12.8 4.5
      vertex -3.5 19.2 4.5
      vertex -3.5 12.8 4.5
    endloop
  endfacet
  facet normal 0 0.980581 0.196116
    outer loop
      vertex -1.28125 19.9 1
      vertex -3.5 19.2 4.5
      vertex -1.5 19.2 4.5
    endloop
  endfacet
  facet normal 0 0.980581 0.196116
    outer loop
      vertex -3.5 19.2 4.5
      vertex -1.28125 19.9 1
      vertex -3.71875 19.9 1
    endloop
  endfacet
  facet normal 0 -0.980581 0.196116
    outer loop
      vertex -3.71875 12.1 1
      vertex -1.5 12.8 4.5
      vertex -3.5 12.8 4.5
    endloop
  endfacet
  facet normal 0 -0.980581 0.196116
    outer loop
      vertex -1.5 12.8 4.5
      vertex -3.71875 12.1 1
      vertex -1.28125 12.1 1
    endloop
  endfacet
  facet normal -0.998053 0 0.0623783
    outer loop
      vertex 90.7812 7.9 1
      vertex 91 0.799999 4.5
      vertex 91 7.2 4.5
    endloop
  endfacet
  facet normal -0.998053 0 0.0623783
    outer loop
      vertex 91 0.799999 4.5
      vertex 90.7812 7.9 1
      vertex 90.7812 0.0999999 1
    endloop
  endfacet
  facet normal 0.998053 -0 0.0623783
    outer loop
      vertex 93 0.799999 4.5
      vertex 93.2188 7.9 1
      vertex 93 7.2 4.5
    endloop
  endfacet
  facet normal 0.998053 0 0.0623783
    outer loop
      vertex 93.2188 7.9 1
      vertex 93 0.799999 4.5
      vertex 93.2188 0.0999999 1
    endloop
  endfacet
  facet normal -0 0 1
    outer loop
      vertex 91 7.2 4.5
      vertex 93 0.799999 4.5
      vertex 93 7.2 4.5
    endloop
  endfacet
  facet normal 0 0 1
    outer loop
      vertex 93 0.799999 4.5
      vertex 91 7.2 4.5
      vertex 91 0.799999 4.5
    endloop
  endfacet
  facet normal 0 0.980581 0.196116
    outer loop
      vertex 93.2188 7.9 1
      vertex 91 7.2 4.5
      vertex 93 7.2 4.5
    endloop
  endfacet
  facet normal 0 0.980581 0.196116
    outer loop
      vertex 91 7.2 4.5
      vertex 93.2188 7.9 1
      vertex 90.7812 7.9 1
    endloop
  endfacet
  facet normal 0 -0.980581 0.196116
    outer loop
      vertex 90.7812 0.0999999 1
      vertex 93 0.799999 4.5
      vertex 91 0.799999 4.5
    endloop
  endfacet
  facet normal 0 -0.980581 0.196116
    outer loop
      vertex 93 0.799999 4.5
      vertex 90.7812 0.0999999 1
      vertex 93.2188 0.0999999 1
    endloop
  endfacet
  facet normal 1 -0 0
    outer loop
      vertex 0 9.5 1
      vertex 0 25.5 -21.5
      vertex 0 25.5 1
    endloop
  endfacet
  facet normal 1 0 0
    outer loop
      vertex 0 25.5 -21.5
      vertex 0 9.5 1
      vertex 0 9.5 -21.5
    endloop
  endfacet
  facet normal -1 0 0
    outer loop
      vertex 89.5 9.5 -21.5
      vertex 89.5 25.5 1
      vertex 89.5 25.5 -21.5
    endloop
  endfacet
  facet normal -1 -0 0
    outer loop
      vertex 89.5 25.5 1
      vertex 89.5 9.5 -21.5
      vertex 89.5 9.5 1
    endloop
  endfacet
  facet normal 0 0 1
    outer loop
      vertex 1.5 25.5 -21.5
      vertex 0 25.5 -21.5
      vertex 1.5 15 -21.5
    endloop
  endfacet
  facet normal 0 0 1
    outer loop
      vertex 88 15 -21.5
      vertex 89.5 25.5 -21.5
      vertex 88 25.5 -21.5
    endloop
  endfacet
  facet normal 0 0 1
    outer loop
      vertex 89.5 25.5 -21.5
      vertex 88 15 -21.5
      vertex 89.5 9.5 -21.5
    endloop
  endfacet
  facet normal 0 0 1
    outer loop
      vertex 88 15 -21.5
      vertex 83.5 9.5 -21.5
      vertex 89.5 9.5 -21.5
    endloop
  endfacet
  facet normal 0 0 1
    outer loop
      vertex 83.5 9.5 -21.5
      vertex 6 9.5 -21.5
      vertex 83.5 7.5 -21.5
    endloop
  endfacet
  facet normal 0 0 1
    outer loop
      vertex 88 15 -21.5
      vertex 6 9.5 -21.5
      vertex 83.5 9.5 -21.5
    endloop
  endfacet
  facet normal -0 0 1
    outer loop
      vertex 1.5 15 -21.5
      vertex 6 9.5 -21.5
      vertex 88 15 -21.5
    endloop
  endfacet
  facet normal 0 0 1
    outer loop
      vertex 1.5 15 -21.5
      vertex 0 9.5 -21.5
      vertex 6 9.5 -21.5
    endloop
  endfacet
  facet normal 0 0 1
    outer loop
      vertex 0 9.5 -21.5
      vertex 1.5 15 -21.5
      vertex 0 25.5 -21.5
    endloop
  endfacet
  facet normal 0 0 1
    outer loop
      vertex 83.5 7.5 -21.5
      vertex 6 9.5 -21.5
      vertex 6 7.5 -21.5
    endloop
  endfacet
  facet normal 0 1 0
    outer loop
      vertex 6 9.5 -18
      vertex 6 9.5 -21.5
      vertex 1.5 9.5 -18
    endloop
  endfacet
  facet normal 0 1 -0
    outer loop
      vertex 1.5 9.5 -18
      vertex 0 9.5 1
      vertex 1.5 9.5 1
    endloop
  endfacet
  facet normal 0 1 0
    outer loop
      vertex 1.5 9.5 -18
      vertex 0 9.5 -21.5
      vertex 0 9.5 1
    endloop
  endfacet
  facet normal 0 1 0
    outer loop
      vertex 0 9.5 -21.5
      vertex 1.5 9.5 -18
      vertex 6 9.5 -21.5
    endloop
  endfacet
  facet normal 0 1 0
    outer loop
      vertex 89.5 9.5 1
      vertex 88 9.5 -18
      vertex 88 9.5 1
    endloop
  endfacet
  facet normal 0 1 -0
    outer loop
      vertex 89.5 9.5 -21.5
      vertex 88 9.5 -18
      vertex 89.5 9.5 1
    endloop
  endfacet
  facet normal 0 1 0
    outer loop
      vertex 83.5 9.5 -21.5
      vertex 88 9.5 -18
      vertex 89.5 9.5 -21.5
    endloop
  endfacet
  facet normal 0 1 0
    outer loop
      vertex 88 9.5 -18
      vertex 83.5 9.5 -21.5
      vertex 83.5 9.5 -18
    endloop
  endfacet
  facet normal 0 -1 0
    outer loop
      vertex 0 25.5 -21.5
      vertex 1.5 25.5 1
      vertex 0 25.5 1
    endloop
  endfacet
  facet normal 0 -1 -0
    outer loop
      vertex 1.5 25.5 1
      vertex 0 25.5 -21.5
      vertex 1.5 25.5 -21.5
    endloop
  endfacet
  facet normal 0 -1 0
    outer loop
      vertex 88 25.5 -21.5
      vertex 89.5 25.5 1
      vertex 88 25.5 1
    endloop
  endfacet
  facet normal 0 -1 -0
    outer loop
      vertex 89.5 25.5 1
      vertex 88 25.5 -21.5
      vertex 89.5 25.5 -21.5
    endloop
  endfacet
  facet normal 1 -0 0
    outer loop
      vertex 6 7.5 -18
      vertex 6 9.5 -21.5
      vertex 6 9.5 -18
    endloop
  endfacet
  facet normal 1 0 0
    outer loop
      vertex 6 9.5 -21.5
      vertex 6 7.5 -18
      vertex 6 7.5 -21.5
    endloop
  endfacet
  facet normal -1 0 0
    outer loop
      vertex 83.5 7.5 -21.5
      vertex 83.5 9.5 -18
      vertex 83.5 9.5 -21.5
    endloop
  endfacet
  facet normal -1 -0 0
    outer loop
      vertex 83.5 9.5 -18
      vertex 83.5 7.5 -21.5
      vertex 83.5 7.5 -18
    endloop
  endfacet
  facet normal -1 0 0
    outer loop
      vertex 89.5 -3.475 -22
      vertex 89.5 7.5 1
      vertex 89.5 7.5 -22
    endloop
  endfacet
  facet normal -1 -0 0
    outer loop
      vertex 89.5 7.5 1
      vertex 89.5 -3.475 -22
      vertex 89.5 -3.475 1
    endloop
  endfacet
  facet normal 0 -1 0
    outer loop
      vertex 0 7.5 1
      vertex 1.5 7.5 -18
      vertex 1.5 7.5 1
    endloop
  endfacet
  facet normal 0 -1 0
    outer loop
      vertex 1.5 7.5 -18
      vertex 6 7.5 -21.5
      vertex 6 7.5 -18
    endloop
  endfacet
  facet normal 0 -1 -0
    outer loop
      vertex 6 7.5 -21.5
      vertex 0 7.5 -22
      vertex 83.5 7.5 -21.5
    endloop
  endfacet
  facet normal 0 -1 -0
    outer loop
      vertex 1.5 7.5 -18
      vertex 0 7.5 -22
      vertex 6 7.5 -21.5
    endloop
  endfacet
  facet normal 0 -1 0
    outer loop
      vertex 0 7.5 -22
      vertex 1.5 7.5 -18
      vertex 0 7.5 1
    endloop
  endfacet
  facet normal 0 -1 0
    outer loop
      vertex 83.5 7.5 -18
      vertex 83.5 7.5 -21.5
      vertex 88 7.5 -18
    endloop
  endfacet
  facet normal 0 -1 0
    outer loop
      vertex 88 7.5 -18
      vertex 89.5 7.5 1
      vertex 88 7.5 1
    endloop
  endfacet
  facet normal 0 -1 0
    outer loop
      vertex 88 7.5 -18
      vertex 89.5 7.5 -22
      vertex 89.5 7.5 1
    endloop
  endfacet
  facet normal 0 -1 0
    outer loop
      vertex 83.5 7.5 -21.5
      vertex 89.5 7.5 -22
      vertex 88 7.5 -18
    endloop
  endfacet
  facet normal 0 -1 0
    outer loop
      vertex 89.5 7.5 -22
      vertex 83.5 7.5 -21.5
      vertex 0 7.5 -22
    endloop
  endfacet
  facet normal 1 -0 0
    outer loop
      vertex 0 -3.475 1
      vertex 0 7.5 -22
      vertex 0 7.5 1
    endloop
  endfacet
  facet normal 1 0 0
    outer loop
      vertex 0 7.5 -22
      vertex 0 -3.475 1
      vertex 0 -3.475 -22
    endloop
  endfacet
  facet normal -0 0 1
    outer loop
      vertex 0 7.5 -22
      vertex 89.5 -3.475 -22
      vertex 89.5 7.5 -22
    endloop
  endfacet
  facet normal 0 0 1
    outer loop
      vertex 89.5 -3.475 -22
      vertex 0 7.5 -22
      vertex 0 -3.475 -22
    endloop
  endfacet
  facet normal 0 1 0
    outer loop
      vertex 89.5 -3.475 1
      vertex 88 -3.475 -18
      vertex 88 -3.475 1
    endloop
  endfacet
  facet normal 0 1 0
    outer loop
      vertex 88 -3.475 -18
      vertex 89.5 -3.475 -22
      vertex 1.5 -3.475 -18
    endloop
  endfacet
  facet normal 0 1 -0
    outer loop
      vertex 89.5 -3.475 -22
      vertex 88 -3.475 -18
      vertex 89.5 -3.475 1
    endloop
  endfacet
  facet normal 0 1 -0
    outer loop
      vertex 1.5 -3.475 -18
      vertex 0 -3.475 1
      vertex 1.5 -3.475 1
    endloop
  endfacet
  facet normal 0 1 0
    outer loop
      vertex 1.5 -3.475 -18
      vertex 0 -3.475 -22
      vertex 0 -3.475 1
    endloop
  endfacet
  facet normal 0 1 0
    outer loop
      vertex 0 -3.475 -22
      vertex 1.5 -3.475 -18
      vertex 89.5 -3.475 -22
    endloop
  endfacet
  facet normal 1 -0 0
    outer loop
      vertex 1.5 7.5 1
      vertex 1.5 9.5 -18
      vertex 1.5 9.5 1
    endloop
  endfacet
  facet normal 1 0 0
    outer loop
      vertex 1.5 9.5 -18
      vertex 1.5 7.5 1
      vertex 1.5 7.5 -18
    endloop
  endfacet
  facet normal 1 -0 0
    outer loop
      vertex 1.5 -6.7375 1
      vertex 1.5 -3.475 -18
      vertex 1.5 -3.475 1
    endloop
  endfacet
  facet normal 1 0 0
    outer loop
      vertex 1.5 -3.475 -18
      vertex 1.5 -6.7375 1
      vertex 1.5 -6.7375 -18
    endloop
  endfacet
  facet normal -1 0 0
    outer loop
      vertex 88 7.5 -18
      vertex 88 9.5 1
      vertex 88 9.5 -18
    endloop
  endfacet
  facet normal -1 -0 0
    outer loop
      vertex 88 9.5 1
      vertex 88 7.5 -18
      vertex 88 7.5 1
    endloop
  endfacet
  facet normal -1 0 0
    outer loop
      vertex 88 -6.7375 -18
      vertex 88 -3.475 1
      vertex 88 -3.475 -18
    endloop
  endfacet
  facet normal -1 -0 0
    outer loop
      vertex 88 -3.475 1
      vertex 88 -6.7375 -18
      vertex 88 -6.7375 1
    endloop
  endfacet
  facet normal -0 0 1
    outer loop
      vertex 1.5 9.5 -18
      vertex 6 7.5 -18
      vertex 6 9.5 -18
    endloop
  endfacet
  facet normal 0 0 1
    outer loop
      vertex 6 7.5 -18
      vertex 1.5 9.5 -18
      vertex 1.5 7.5 -18
    endloop
  endfacet
  facet normal -0 0 1
    outer loop
      vertex 83.5 9.5 -18
      vertex 88 7.5 -18
      vertex 88 9.5 -18
    endloop
  endfacet
  facet normal 0 0 1
    outer loop
      vertex 88 7.5 -18
      vertex 83.5 9.5 -18
      vertex 83.5 7.5 -18
    endloop
  endfacet
  facet normal -0 0 1
    outer loop
      vertex 1.5 -3.475 -18
      vertex 88 -6.7375 -18
      vertex 88 -3.475 -18
    endloop
  endfacet
  facet normal 0 0 1
    outer loop
      vertex 88 -6.7375 -18
      vertex 1.5 -3.475 -18
      vertex 1.5 -6.7375 -18
    endloop
  endfacet
  facet normal 1 0 0
    outer loop
      vertex 1.5 25.5 -21.5
      vertex 1.5 26.7375 1
      vertex 1.5 25.5 1
    endloop
  endfacet
  facet normal 1 0 0
    outer loop
      vertex 1.5 26.7375 1
      vertex 1.5 25.5 -21.5
      vertex 1.5 26.7375 -23
    endloop
  endfacet
  facet normal 1 0 0
    outer loop
      vertex 1.5 15 -23
      vertex 1.5 25.5 -21.5
      vertex 1.5 15 -21.5
    endloop
  endfacet
  facet normal 1 0 0
    outer loop
      vertex 1.5 25.5 -21.5
      vertex 1.5 15 -23
      vertex 1.5 26.7375 -23
    endloop
  endfacet
  facet normal -1 0 0
    outer loop
      vertex 88 26.7375 -23
      vertex 88 25.5 -21.5
      vertex 88 26.7375 1
    endloop
  endfacet
  facet normal -1 0 0
    outer loop
      vertex 88 15 -23
      vertex 88 25.5 -21.5
      vertex 88 26.7375 -23
    endloop
  endfacet
  facet normal -1 -0 0
    outer loop
      vertex 88 25.5 -21.5
      vertex 88 15 -23
      vertex 88 15 -21.5
    endloop
  endfacet
  facet normal -1 -0 0
    outer loop
      vertex 88 26.7375 1
      vertex 88 25.5 -21.5
      vertex 88 25.5 1
    endloop
  endfacet
  facet normal -0 0 1
    outer loop
      vertex 1.5 26.7375 -23
      vertex 88 15 -23
      vertex 88 26.7375 -23
    endloop
  endfacet
  facet normal 0 0 1
    outer loop
      vertex 88 15 -23
      vertex 1.5 26.7375 -23
      vertex 1.5 15 -23
    endloop
  endfacet
  facet normal 0 1 -0
    outer loop
      vertex 88 15 -23
      vertex 1.5 15 -21.5
      vertex 88 15 -21.5
    endloop
  endfacet
  facet normal 0 1 0
    outer loop
      vertex 1.5 15 -21.5
      vertex 88 15 -23
      vertex 1.5 15 -23
    endloop
  endfacet
  facet normal -1 0 0
    outer loop
      vertex -5 -6.7375 -25.25
      vertex -5 26.7375 1
      vertex -5 26.7375 -25.25
    endloop
  endfacet
  facet normal -1 -0 0
    outer loop
      vertex -5 26.7375 1
      vertex -5 -6.7375 -25.25
      vertex -5 -6.7375 1
    endloop
  endfacet
  facet normal 1 -0 0
    outer loop
      vertex 94.5 -6.7375 1
      vertex 94.5 26.7375 -25.25
      vertex 94.5 26.7375 1
    endloop
  endfacet
  facet normal 1 0 0
    outer loop
      vertex 94.5 26.7375 -25.25
      vertex 94.5 -6.7375 1
      vertex 94.5 -6.7375 -25.25
    endloop
  endfacet
  facet normal 0 0 -1
    outer loop
      vertex -5 -6.7375 -25.25
      vertex 94.5 26.7375 -25.25
      vertex 94.5 -6.7375 -25.25
    endloop
  endfacet
  facet normal -0 0 -1
    outer loop
      vertex 94.5 26.7375 -25.25
      vertex -5 -6.7375 -25.25
      vertex -5 26.7375 -25.25
    endloop
  endfacet
  facet normal 0 -1 0
    outer loop
      vertex -5 -6.7375 1
      vertex 1.5 -6.7375 -18
      vertex 1.5 -6.7375 1
    endloop
  endfacet
  facet normal 0 -1 -0
    outer loop
      vertex 1.5 -6.7375 -18
      vertex -5 -6.7375 -25.25
      vertex 88 -6.7375 -18
    endloop
  endfacet
  facet normal 0 -1 0
    outer loop
      vertex -5 -6.7375 -25.25
      vertex 1.5 -6.7375 -18
      vertex -5 -6.7375 1
    endloop
  endfacet
  facet normal 0 -1 0
    outer loop
      vertex 88 -6.7375 -18
      vertex 94.5 -6.7375 1
      vertex 88 -6.7375 1
    endloop
  endfacet
  facet normal 0 -1 0
    outer loop
      vertex 88 -6.7375 -18
      vertex 94.5 -6.7375 -25.25
      vertex 94.5 -6.7375 1
    endloop
  endfacet
  facet normal 0 -1 0
    outer loop
      vertex 94.5 -6.7375 -25.25
      vertex 88 -6.7375 -18
      vertex -5 -6.7375 -25.25
    endloop
  endfacet
  facet normal 0 1 0
    outer loop
      vertex 94.5 26.7375 1
      vertex 88 26.7375 -23
      vertex 88 26.7375 1
    endloop
  endfacet
  facet normal 0 1 0
    outer loop
      vertex 88 26.7375 -23
      vertex 94.5 26.7375 -25.25
      vertex 1.5 26.7375 -23
    endloop
  endfacet
  facet normal 0 1 -0
    outer loop
      vertex 94.5 26.7375 -25.25
      vertex 88 26.7375 -23
      vertex 94.5 26.7375 1
    endloop
  endfacet
  facet normal 0 1 -0
    outer loop
      vertex 1.5 26.7375 -23
      vertex -5 26.7375 1
      vertex 1.5 26.7375 1
    endloop
  endfacet
  facet normal 0 1 0
    outer loop
      vertex 1.5 26.7375 -23
      vertex -5 26.7375 -25.25
      vertex -5 26.7375 1
    endloop
  endfacet
  facet normal 0 1 0
    outer loop
      vertex -5 26.7375 -25.25
      vertex 1.5 26.7375 -23
      vertex 94.5 26.7375 -25.25
    endloop
  endfacet
  facet normal 0 0 1
    outer loop
      vertex 1.5 26.7375 1
      vertex 0 25.5 1
      vertex 1.5 25.5 1
    endloop
  endfacet
  facet normal -0 0 1
    outer loop
      vertex -1.28125 19.9 1
      vertex 0 9.5 1
      vertex 0 25.5 1
    endloop
  endfacet
  facet normal -0 0 1
    outer loop
      vertex -1.28125 12.1 1
      vertex 0 9.5 1
      vertex -1.28125 19.9 1
    endloop
  endfacet
  facet normal 0 0 1
    outer loop
      vertex -1.15944 -0.2898 1
      vertex 0 7.5 1
      vertex -1.15944 8.2898 1
    endloop
  endfacet
  facet normal 0 -0 1
    outer loop
      vertex -1.15944 8.2898 1
      vertex 0 9.5 1
      vertex -1.28125 12.1 1
    endloop
  endfacet
  facet normal 0 0 1
    outer loop
      vertex 0 25.5 1
      vertex -3.71875 19.9 1
      vertex -1.28125 19.9 1
    endloop
  endfacet
  facet normal 0 0 1
    outer loop
      vertex -5 26.7375 1
      vertex -3.71875 12.1 1
      vertex -3.71875 19.9 1
    endloop
  endfacet
  facet normal 0 0 1
    outer loop
      vertex -5 -6.7375 1
      vertex -3.84056 8.2898 1
      vertex -5 26.7375 1
    endloop
  endfacet
  facet normal 0 0 1
    outer loop
      vertex -3.71875 12.1 1
      vertex -5 26.7375 1
      vertex -3.84056 8.2898 1
    endloop
  endfacet
  facet normal 0 0 1
    outer loop
      vertex 0 25.5 1
      vertex -5 26.7375 1
      vertex -3.71875 19.9 1
    endloop
  endfacet
  facet normal -0 0 1
    outer loop
      vertex -5 26.7375 1
      vertex 0 25.5 1
      vertex 1.5 26.7375 1
    endloop
  endfacet
  facet normal -0 0 1
    outer loop
      vertex 0 9.5 1
      vertex 1.5 7.5 1
      vertex 1.5 9.5 1
    endloop
  endfacet
  facet normal 0 0 1
    outer loop
      vertex 1.5 7.5 1
      vertex 0 9.5 1
      vertex 0 7.5 1
    endloop
  endfacet
  facet normal -0 0 1
    outer loop
      vertex 0 -3.475 1
      vertex 1.5 -6.7375 1
      vertex 1.5 -3.475 1
    endloop
  endfacet
  facet normal 0 0 1
    outer loop
      vertex 0 7.5 1
      vertex -1.15944 -0.2898 1
      vertex 0 -3.475 1
    endloop
  endfacet
  facet normal -0 0 1
    outer loop
      vertex -3.84056 -0.2898 1
      vertex 0 -3.475 1
      vertex -1.15944 -0.2898 1
    endloop
  endfacet
  facet normal 0 0 1
    outer loop
      vertex -5 -6.7375 1
      vertex 0 -3.475 1
      vertex -3.84056 -0.2898 1
    endloop
  endfacet
  facet normal 0 0 1
    outer loop
      vertex 0 -3.475 1
      vertex -5 -6.7375 1
      vertex 1.5 -6.7375 1
    endloop
  endfacet
  facet normal 0 0 1
    outer loop
      vertex -3.84056 8.2898 1
      vertex -5 -6.7375 1
      vertex -3.84056 -0.2898 1
    endloop
  endfacet
  facet normal 0 0 1
    outer loop
      vertex 0 9.5 1
      vertex -1.15944 8.2898 1
      vertex 0 7.5 1
    endloop
  endfacet
  facet normal -0 0 1
    outer loop
      vertex -3.71875 12.1 1
      vertex -1.15944 8.2898 1
      vertex -1.28125 12.1 1
    endloop
  endfacet
  facet normal 0 0 1
    outer loop
      vertex -1.15944 8.2898 1
      vertex -3.71875 12.1 1
      vertex -3.84056 8.2898 1
    endloop
  endfacet
  facet normal -0 0 1
    outer loop
      vertex 88 9.5 1
      vertex 89.5 7.5 1
      vertex 89.5 9.5 1
    endloop
  endfacet
  facet normal 0 0 1
    outer loop
      vertex 89.5 7.5 1
      vertex 88 9.5 1
      vertex 88 7.5 1
    endloop
  endfacet
  facet normal 0 0 1
    outer loop
      vertex 93.3406 11.7102 1
      vertex 90.7812 7.9 1
      vertex 93.2188 7.9 1
    endloop
  endfacet
  facet normal -0 0 1
    outer loop
      vertex 89.5 9.5 1
      vertex 90.7812 7.9 1
      vertex 90.6594 11.7102 1
    endloop
  endfacet
  facet normal -0 0 1
    outer loop
      vertex 90.6594 11.7102 1
      vertex 90.7812 7.9 1
      vertex 93.3406 11.7102 1
    endloop
  endfacet
  facet normal 0 0 1
    outer loop
      vertex 93.3406 11.7102 1
      vertex 94.5 26.7375 1
      vertex 93.3406 20.2898 1
    endloop
  endfacet
  facet normal -0 0 1
    outer loop
      vertex 89.5 25.5 1
      vertex 93.3406 20.2898 1
      vertex 94.5 26.7375 1
    endloop
  endfacet
  facet normal 0 0 1
    outer loop
      vertex 89.5 9.5 1
      vertex 90.6594 20.2898 1
      vertex 89.5 25.5 1
    endloop
  endfacet
  facet normal 0 0 1
    outer loop
      vertex 93.3406 20.2898 1
      vertex 89.5 25.5 1
      vertex 90.6594 20.2898 1
    endloop
  endfacet
  facet normal -0 0 1
    outer loop
      vertex 88 26.7375 1
      vertex 89.5 25.5 1
      vertex 94.5 26.7375 1
    endloop
  endfacet
  facet normal 0 0 1
    outer loop
      vertex 89.5 25.5 1
      vertex 88 26.7375 1
      vertex 88 25.5 1
    endloop
  endfacet
  facet normal 0 0 1
    outer loop
      vertex 94.5 26.7375 1
      vertex 93.3406 11.7102 1
      vertex 94.5 -6.7375 1
    endloop
  endfacet
  facet normal -0 0 1
    outer loop
      vertex 93.2188 7.9 1
      vertex 94.5 -6.7375 1
      vertex 93.3406 11.7102 1
    endloop
  endfacet
  facet normal -0 0 1
    outer loop
      vertex 93.2188 0.0999999 1
      vertex 94.5 -6.7375 1
      vertex 93.2188 7.9 1
    endloop
  endfacet
  facet normal 0 0 1
    outer loop
      vertex 89.5 -3.475 1
      vertex 93.2188 0.0999999 1
      vertex 90.7812 0.0999999 1
    endloop
  endfacet
  facet normal 0 0 1
    outer loop
      vertex 90.6594 20.2898 1
      vertex 89.5 9.5 1
      vertex 90.6594 11.7102 1
    endloop
  endfacet
  facet normal 0 0 1
    outer loop
      vertex 90.7812 7.9 1
      vertex 89.5 9.5 1
      vertex 89.5 7.5 1
    endloop
  endfacet
  facet normal 0 0 1
    outer loop
      vertex 90.7812 7.9 1
      vertex 89.5 7.5 1
      vertex 90.7812 0.0999999 1
    endloop
  endfacet
  facet normal 0 0 1
    outer loop
      vertex 89.5 -3.475 1
      vertex 90.7812 0.0999999 1
      vertex 89.5 7.5 1
    endloop
  endfacet
  facet normal 0 0 1
    outer loop
      vertex 93.2188 0.0999999 1
      vertex 89.5 -3.475 1
      vertex 94.5 -6.7375 1
    endloop
  endfacet
  facet normal 0 0 1
    outer loop
      vertex 88 -6.7375 1
      vertex 89.5 -3.475 1
      vertex 88 -3.475 1
    endloop
  endfacet
  facet normal 0 0 1
    outer loop
      vertex 89.5 -3.475 1
      vertex 88 -6.7375 1
      vertex 94.5 -6.7375 1
    endloop
  endfacet
  facet normal 0 -0.997559 -0.0698291
    outer loop
      vertex -3.93112 8.5796 -3.14
      vertex -1.15944 8.2898 1
      vertex -3.84056 8.2898 1
    endloop
  endfacet
  facet normal 0 -0.997559 -0.0698291
    outer loop
      vertex -1.15944 8.2898 1
      vertex -3.93112 8.5796 -3.14
      vertex -1.06887 8.5796 -3.14
    endloop
  endfacet
  facet normal -0.999761 0 -0.0218698
    outer loop
      vertex -1.06887 8.5796 -3.14
      vertex -1.15944 -0.2898 1
      vertex -1.15944 8.2898 1
    endloop
  endfacet
  facet normal -0.999761 0 -0.0218698
    outer loop
      vertex -1.15944 -0.2898 1
      vertex -1.06887 8.5796 -3.14
      vertex -1.06887 -0.579599 -3.14
    endloop
  endfacet
  facet normal 0.999761 0 -0.0218698
    outer loop
      vertex -3.84056 -0.2898 1
      vertex -3.93112 8.5796 -3.14
      vertex -3.84056 8.2898 1
    endloop
  endfacet
  facet normal 0.999761 0 -0.0218698
    outer loop
      vertex -3.93112 8.5796 -3.14
      vertex -3.84056 -0.2898 1
      vertex -3.93112 -0.579599 -3.14
    endloop
  endfacet
  facet normal -0 0 1
    outer loop
      vertex -3.93112 8.5796 -3.14
      vertex -1.06887 -0.579599 -3.14
      vertex -1.06887 8.5796 -3.14
    endloop
  endfacet
  facet normal 0 0 1
    outer loop
      vertex -1.06887 -0.579599 -3.14
      vertex -3.93112 8.5796 -3.14
      vertex -3.93112 -0.579599 -3.14
    endloop
  endfacet
  facet normal 0 0.997559 -0.0698291
    outer loop
      vertex -1.06887 -0.579599 -3.14
      vertex -3.84056 -0.2898 1
      vertex -1.15944 -0.2898 1
    endloop
  endfacet
  facet normal 0 0.997559 -0.0698291
    outer loop
      vertex -3.84056 -0.2898 1
      vertex -1.06887 -0.579599 -3.14
      vertex -3.93112 -0.579599 -3.14
    endloop
  endfacet
  facet normal 0 -0.997559 -0.0698293
    outer loop
      vertex 90.5689 20.5796 -3.14
      vertex 93.3406 20.2898 1
      vertex 90.6594 20.2898 1
    endloop
  endfacet
  facet normal 0 -0.997559 -0.0698293
    outer loop
      vertex 93.3406 20.2898 1
      vertex 90.5689 20.5796 -3.14
      vertex 93.4311 20.5796 -3.14
    endloop
  endfacet
  facet normal -0.999761 0 -0.0218694
    outer loop
      vertex 93.4311 20.5796 -3.14
      vertex 93.3406 11.7102 1
      vertex 93.3406 20.2898 1
    endloop
  endfacet
  facet normal -0.999761 0 -0.0218694
    outer loop
      vertex 93.3406 11.7102 1
      vertex 93.4311 20.5796 -3.14
      vertex 93.4311 11.4204 -3.14
    endloop
  endfacet
  facet normal 0.999761 0 -0.0218694
    outer loop
      vertex 90.6594 11.7102 1
      vertex 90.5689 20.5796 -3.14
      vertex 90.6594 20.2898 1
    endloop
  endfacet
  facet normal 0.999761 0 -0.0218694
    outer loop
      vertex 90.5689 20.5796 -3.14
      vertex 90.6594 11.7102 1
      vertex 90.5689 11.4204 -3.14
    endloop
  endfacet
  facet normal -0 0 1
    outer loop
      vertex 90.5689 20.5796 -3.14
      vertex 93.4311 11.4204 -3.14
      vertex 93.4311 20.5796 -3.14
    endloop
  endfacet
  facet normal 0 0 1
    outer loop
      vertex 93.4311 11.4204 -3.14
      vertex 90.5689 20.5796 -3.14
      vertex 90.5689 11.4204 -3.14
    endloop
  endfacet
  facet normal 0 0.997559 -0.0698291
    outer loop
      vertex 93.4311 11.4204 -3.14
      vertex 90.6594 11.7102 1
      vertex 93.3406 11.7102 1
    endloop
  endfacet
  facet normal 0 0.997559 -0.0698291
    outer loop
      vertex 90.6594 11.7102 1
      vertex 93.4311 11.4204 -3.14
      vertex 90.5689 11.4204 -3.14
    endloop
  endfacet
endsolid OpenSCAD_Model
