solid OpenSCAD_Model
  facet normal -0.998053 0 0.0623783
    outer loop
      vertex -3.71875 19.9 1
      vertex -3.5 12.8 4.5
      vertex -3.5 19.2 4.5
    endloop
  endfacet
  facet normal -0.998053 0 0.0623783
    outer loop
      vertex -3.5 12.8 4.5
      vertex -3.71875 19.9 1
      vertex -3.71875 12.1 1
    endloop
  endfacet
  facet normal 0.998053 -0 0.0623783
    outer loop
      vertex -1.5 12.8 4.5
      vertex -1.28125 19.9 1
      vertex -1.5 19.2 4.5
    endloop
  endfacet
  facet normal 0.998053 0 0.0623783
    outer loop
      vertex -1.28125 19.9 1
      vertex -1.5 12.8 4.5
      vertex -1.28125 12.1 1
    endloop
  endfacet
  facet normal 0 -0.980581 0.196116
    outer loop
      vertex -3.71875 12.1 1
      vertex -1.5 12.8 4.5
      vertex -3.5 12.8 4.5
    endloop
  endfacet
  facet normal 0 -0.980581 0.196116
    outer loop
      vertex -1.5 12.8 4.5
      vertex -3.71875 12.1 1
      vertex -1.28125 12.1 1
    endloop
  endfacet
  facet normal -0 0 1
    outer loop
      vertex -3.5 19.2 4.5
      vertex -1.5 12.8 4.5
      vertex -1.5 19.2 4.5
    endloop
  endfacet
  facet normal 0 0 1
    outer loop
      vertex -1.5 12.8 4.5
      vertex -3.5 19.2 4.5
      vertex -3.5 12.8 4.5
    endloop
  endfacet
  facet normal 0 0.980581 0.196116
    outer loop
      vertex -1.28125 19.9 1
      vertex -3.5 19.2 4.5
      vertex -1.5 19.2 4.5
    endloop
  endfacet
  facet normal 0 0.980581 0.196116
    outer loop
      vertex -3.5 19.2 4.5
      vertex -1.28125 19.9 1
      vertex -3.71875 19.9 1
    endloop
  endfacet
  facet normal -0.998053 0 0.0623783
    outer loop
      vertex 90.7812 7.9 1
      vertex 91 0.799999 4.5
      vertex 91 7.2 4.5
    endloop
  endfacet
  facet normal -0.998053 0 0.0623783
    outer loop
      vertex 91 0.799999 4.5
      vertex 90.7812 7.9 1
      vertex 90.7812 0.0999999 1
    endloop
  endfacet
  facet normal 0.998053 -0 0.0623783
    outer loop
      vertex 93 0.799999 4.5
      vertex 93.2188 7.9 1
      vertex 93 7.2 4.5
    endloop
  endfacet
  facet normal 0.998053 0 0.0623783
    outer loop
      vertex 93.2188 7.9 1
      vertex 93 0.799999 4.5
      vertex 93.2188 0.0999999 1
    endloop
  endfacet
  facet normal 0 0.980581 0.196116
    outer loop
      vertex 93.2188 7.9 1
      vertex 91 7.2 4.5
      vertex 93 7.2 4.5
    endloop
  endfacet
  facet normal 0 0.980581 0.196116
    outer loop
      vertex 91 7.2 4.5
      vertex 93.2188 7.9 1
      vertex 90.7812 7.9 1
    endloop
  endfacet
  facet normal 0 -0.980581 0.196116
    outer loop
      vertex 90.7812 0.0999999 1
      vertex 93 0.799999 4.5
      vertex 91 0.799999 4.5
    endloop
  endfacet
  facet normal 0 -0.980581 0.196116
    outer loop
      vertex 93 0.799999 4.5
      vertex 90.7812 0.0999999 1
      vertex 93.2188 0.0999999 1
    endloop
  endfacet
  facet normal -0 0 1
    outer loop
      vertex 91 7.2 4.5
      vertex 93 0.799999 4.5
      vertex 93 7.2 4.5
    endloop
  endfacet
  facet normal 0 0 1
    outer loop
      vertex 93 0.799999 4.5
      vertex 91 7.2 4.5
      vertex 91 0.799999 4.5
    endloop
  endfacet
  facet normal 0.707107 -0 0.707107
    outer loop
      vertex 75.6311 20.5 -15.9189
      vertex 81.7122 26.5 -22
      vertex 75.6311 26.5 -15.9189
    endloop
  endfacet
  facet normal 0.707107 0 0.707107
    outer loop
      vertex 81.7122 26.5 -22
      vertex 75.6311 20.5 -15.9189
      vertex 81.7122 20.5 -22
    endloop
  endfacet
  facet normal 0.707107 0 -0.707107
    outer loop
      vertex 81.7122 20.5 -22
      vertex 80.2122 26.5 -23.5
      vertex 81.7122 26.5 -22
    endloop
  endfacet
  facet normal 0.707107 0 -0.707107
    outer loop
      vertex 80.2122 26.5 -23.5
      vertex 81.7122 20.5 -22
      vertex 80.2122 20.5 -23.5
    endloop
  endfacet
  facet normal 0 -1 0
    outer loop
      vertex 66.9811 20.5 -15.9189
      vertex 68.9689 20.5 -19.0423
      vertex 69.487 20.5 -18.4248
    endloop
  endfacet
  facet normal 0 -1 0
    outer loop
      vertex 60.9 20.5 -22
      vertex 68.9689 20.5 -19.0423
      vertex 66.9811 20.5 -15.9189
    endloop
  endfacet
  facet normal 0 -1 0
    outer loop
      vertex 62.4 20.5 -23.5
      vertex 68.9689 20.5 -19.0423
      vertex 60.9 20.5 -22
    endloop
  endfacet
  facet normal 0 -1 -0
    outer loop
      vertex 68.9689 20.5 -19.0423
      vertex 62.4 20.5 -23.5
      vertex 68.9689 20.5 -20.9577
    endloop
  endfacet
  facet normal 0 -1 -0
    outer loop
      vertex 68.9689 20.5 -20.9577
      vertex 62.4 20.5 -23.5
      vertex 70.2 20.5 -22.4249
    endloop
  endfacet
  facet normal 0 -1 -0
    outer loop
      vertex 70.2 20.5 -22.4249
      vertex 62.4 20.5 -23.5
      vertex 72.0862 20.5 -22.7575
    endloop
  endfacet
  facet normal 0 -1 0
    outer loop
      vertex 73.7449 20.5 -18.2002
      vertex 75.6311 20.5 -15.9189
      vertex 73.4944 20.5 -18.0556
    endloop
  endfacet
  facet normal 0 -1 0
    outer loop
      vertex 74.4 20.5 -20
      vertex 75.6311 20.5 -15.9189
      vertex 73.7449 20.5 -18.2002
    endloop
  endfacet
  facet normal 0 -1 0
    outer loop
      vertex 74.4 20.5 -20
      vertex 81.7122 20.5 -22
      vertex 75.6311 20.5 -15.9189
    endloop
  endfacet
  facet normal 0 -1 0
    outer loop
      vertex 80.2122 20.5 -23.5
      vertex 74.4 20.5 -20
      vertex 73.7449 20.5 -21.7998
    endloop
  endfacet
  facet normal 0 -1 0
    outer loop
      vertex 80.2122 20.5 -23.5
      vertex 73.7449 20.5 -21.7998
      vertex 72.0862 20.5 -22.7575
    endloop
  endfacet
  facet normal 0 -1 0
    outer loop
      vertex 74.4 20.5 -20
      vertex 80.2122 20.5 -23.5
      vertex 81.7122 20.5 -22
    endloop
  endfacet
  facet normal 0 -1 0
    outer loop
      vertex 80.2122 20.5 -23.5
      vertex 72.0862 20.5 -22.7575
      vertex 62.4 20.5 -23.5
    endloop
  endfacet
  facet normal -0.707107 0 0.707107
    outer loop
      vertex 73.4944 20.5 -18.0556
      vertex 75.6311 26.5 -15.9189
      vertex 73.4944 26.5 -18.0556
    endloop
  endfacet
  facet normal -0.707107 0 0.707107
    outer loop
      vertex 75.6311 26.5 -15.9189
      vertex 73.4944 20.5 -18.0556
      vertex 75.6311 20.5 -15.9189
    endloop
  endfacet
  facet normal 0 1 0
    outer loop
      vertex 75.6311 26.5 -15.9189
      vertex 73.7449 26.5 -18.2002
      vertex 73.4944 26.5 -18.0556
    endloop
  endfacet
  facet normal 0 1 0
    outer loop
      vertex 75.6311 26.5 -15.9189
      vertex 74.4 26.5 -20
      vertex 73.7449 26.5 -18.2002
    endloop
  endfacet
  facet normal 0 1 0
    outer loop
      vertex 81.7122 26.5 -22
      vertex 74.4 26.5 -20
      vertex 75.6311 26.5 -15.9189
    endloop
  endfacet
  facet normal 0 1 -0
    outer loop
      vertex 80.2122 26.5 -23.5
      vertex 74.4 26.5 -20
      vertex 81.7122 26.5 -22
    endloop
  endfacet
  facet normal 0 1 0
    outer loop
      vertex 74.4 26.5 -20
      vertex 80.2122 26.5 -23.5
      vertex 73.7449 26.5 -21.7998
    endloop
  endfacet
  facet normal 0 1 0
    outer loop
      vertex 73.7449 26.5 -21.7998
      vertex 80.2122 26.5 -23.5
      vertex 72.0862 26.5 -22.7575
    endloop
  endfacet
  facet normal 0 1 -0
    outer loop
      vertex 68.9689 26.5 -19.0423
      vertex 66.9811 26.5 -15.9189
      vertex 69.487 26.5 -18.4248
    endloop
  endfacet
  facet normal 0 1 0
    outer loop
      vertex 62.4 26.5 -23.5
      vertex 68.9689 26.5 -19.0423
      vertex 68.9689 26.5 -20.9577
    endloop
  endfacet
  facet normal 0 1 0
    outer loop
      vertex 68.9689 26.5 -19.0423
      vertex 60.9 26.5 -22
      vertex 66.9811 26.5 -15.9189
    endloop
  endfacet
  facet normal 0 1 0
    outer loop
      vertex 62.4 26.5 -23.5
      vertex 68.9689 26.5 -20.9577
      vertex 70.2 26.5 -22.4249
    endloop
  endfacet
  facet normal 0 1 0
    outer loop
      vertex 62.4 26.5 -23.5
      vertex 70.2 26.5 -22.4249
      vertex 72.0862 26.5 -22.7575
    endloop
  endfacet
  facet normal 0 1 0
    outer loop
      vertex 62.4 26.5 -23.5
      vertex 72.0862 26.5 -22.7575
      vertex 80.2122 26.5 -23.5
    endloop
  endfacet
  facet normal 0 1 0
    outer loop
      vertex 68.9689 26.5 -19.0423
      vertex 62.4 26.5 -23.5
      vertex 60.9 26.5 -22
    endloop
  endfacet
  facet normal -0.707107 0 0.707107
    outer loop
      vertex 60.9 20.5 -22
      vertex 66.9811 26.5 -15.9189
      vertex 60.9 26.5 -22
    endloop
  endfacet
  facet normal -0.707107 0 0.707107
    outer loop
      vertex 66.9811 26.5 -15.9189
      vertex 60.9 20.5 -22
      vertex 66.9811 20.5 -15.9189
    endloop
  endfacet
  facet normal 0.707107 -0 0.707107
    outer loop
      vertex 66.9811 20.5 -15.9189
      vertex 69.487 26.5 -18.4248
      vertex 66.9811 26.5 -15.9189
    endloop
  endfacet
  facet normal 0.707107 0 0.707107
    outer loop
      vertex 69.487 26.5 -18.4248
      vertex 66.9811 20.5 -15.9189
      vertex 69.487 20.5 -18.4248
    endloop
  endfacet
  facet normal -0.707107 0 -0.707107
    outer loop
      vertex 62.4 20.5 -23.5
      vertex 60.9 26.5 -22
      vertex 62.4 26.5 -23.5
    endloop
  endfacet
  facet normal -0.707107 -0 -0.707107
    outer loop
      vertex 60.9 26.5 -22
      vertex 62.4 20.5 -23.5
      vertex 60.9 20.5 -22
    endloop
  endfacet
  facet normal 0.707107 -0 0.707107
    outer loop
      vertex 21.9311 20.5 -15.9189
      vertex 28.0122 26.5 -22
      vertex 21.9311 26.5 -15.9189
    endloop
  endfacet
  facet normal 0.707107 0 0.707107
    outer loop
      vertex 28.0122 26.5 -22
      vertex 21.9311 20.5 -15.9189
      vertex 28.0122 20.5 -22
    endloop
  endfacet
  facet normal 0.707107 0 -0.707107
    outer loop
      vertex 28.0122 20.5 -22
      vertex 26.5122 26.5 -23.5
      vertex 28.0122 26.5 -22
    endloop
  endfacet
  facet normal 0.707107 0 -0.707107
    outer loop
      vertex 26.5122 26.5 -23.5
      vertex 28.0122 20.5 -22
      vertex 26.5122 20.5 -23.5
    endloop
  endfacet
  facet normal 0 -1 0
    outer loop
      vertex 13.2811 20.5 -15.9189
      vertex 15.2689 20.5 -19.0423
      vertex 15.787 20.5 -18.4248
    endloop
  endfacet
  facet normal 0 -1 0
    outer loop
      vertex 7.2 20.5 -22
      vertex 15.2689 20.5 -19.0423
      vertex 13.2811 20.5 -15.9189
    endloop
  endfacet
  facet normal 0 -1 0
    outer loop
      vertex 8.7 20.5 -23.5
      vertex 15.2689 20.5 -19.0423
      vertex 7.2 20.5 -22
    endloop
  endfacet
  facet normal 0 -1 -0
    outer loop
      vertex 15.2689 20.5 -19.0423
      vertex 8.7 20.5 -23.5
      vertex 15.2689 20.5 -20.9577
    endloop
  endfacet
  facet normal 0 -1 -0
    outer loop
      vertex 15.2689 20.5 -20.9577
      vertex 8.7 20.5 -23.5
      vertex 16.5 20.5 -22.4249
    endloop
  endfacet
  facet normal 0 -1 -0
    outer loop
      vertex 16.5 20.5 -22.4249
      vertex 8.7 20.5 -23.5
      vertex 18.3862 20.5 -22.7575
    endloop
  endfacet
  facet normal 0 -1 0
    outer loop
      vertex 20.0449 20.5 -18.2002
      vertex 21.9311 20.5 -15.9189
      vertex 19.7944 20.5 -18.0556
    endloop
  endfacet
  facet normal 0 -1 0
    outer loop
      vertex 20.7 20.5 -20
      vertex 21.9311 20.5 -15.9189
      vertex 20.0449 20.5 -18.2002
    endloop
  endfacet
  facet normal 0 -1 0
    outer loop
      vertex 20.7 20.5 -20
      vertex 28.0122 20.5 -22
      vertex 21.9311 20.5 -15.9189
    endloop
  endfacet
  facet normal 0 -1 0
    outer loop
      vertex 26.5122 20.5 -23.5
      vertex 20.7 20.5 -20
      vertex 20.0449 20.5 -21.7998
    endloop
  endfacet
  facet normal 0 -1 0
    outer loop
      vertex 26.5122 20.5 -23.5
      vertex 20.0449 20.5 -21.7998
      vertex 18.3862 20.5 -22.7575
    endloop
  endfacet
  facet normal 0 -1 0
    outer loop
      vertex 20.7 20.5 -20
      vertex 26.5122 20.5 -23.5
      vertex 28.0122 20.5 -22
    endloop
  endfacet
  facet normal 0 -1 0
    outer loop
      vertex 26.5122 20.5 -23.5
      vertex 18.3862 20.5 -22.7575
      vertex 8.7 20.5 -23.5
    endloop
  endfacet
  facet normal -0.707106 0 0.707107
    outer loop
      vertex 19.7944 26.5 -18.0556
      vertex 21.9311 20.5 -15.9189
      vertex 21.9311 26.5 -15.9189
    endloop
  endfacet
  facet normal -0.707106 0 0.707107
    outer loop
      vertex 21.9311 20.5 -15.9189
      vertex 19.7944 26.5 -18.0556
      vertex 19.7944 20.5 -18.0556
    endloop
  endfacet
  facet normal 0 1 0
    outer loop
      vertex 21.9311 26.5 -15.9189
      vertex 20.0449 26.5 -18.2002
      vertex 19.7944 26.5 -18.0556
    endloop
  endfacet
  facet normal 0 1 0
    outer loop
      vertex 21.9311 26.5 -15.9189
      vertex 20.7 26.5 -20
      vertex 20.0449 26.5 -18.2002
    endloop
  endfacet
  facet normal 0 1 0
    outer loop
      vertex 28.0122 26.5 -22
      vertex 20.7 26.5 -20
      vertex 21.9311 26.5 -15.9189
    endloop
  endfacet
  facet normal 0 1 -0
    outer loop
      vertex 26.5122 26.5 -23.5
      vertex 20.7 26.5 -20
      vertex 28.0122 26.5 -22
    endloop
  endfacet
  facet normal 0 1 0
    outer loop
      vertex 20.7 26.5 -20
      vertex 26.5122 26.5 -23.5
      vertex 20.0449 26.5 -21.7998
    endloop
  endfacet
  facet normal 0 1 0
    outer loop
      vertex 20.0449 26.5 -21.7998
      vertex 26.5122 26.5 -23.5
      vertex 18.3862 26.5 -22.7575
    endloop
  endfacet
  facet normal 0 1 -0
    outer loop
      vertex 15.2689 26.5 -19.0423
      vertex 13.2811 26.5 -15.9189
      vertex 15.787 26.5 -18.4248
    endloop
  endfacet
  facet normal 0 1 0
    outer loop
      vertex 8.7 26.5 -23.5
      vertex 15.2689 26.5 -19.0423
      vertex 15.2689 26.5 -20.9577
    endloop
  endfacet
  facet normal 0 1 0
    outer loop
      vertex 15.2689 26.5 -19.0423
      vertex 7.2 26.5 -22
      vertex 13.2811 26.5 -15.9189
    endloop
  endfacet
  facet normal 0 1 0
    outer loop
      vertex 8.7 26.5 -23.5
      vertex 15.2689 26.5 -20.9577
      vertex 16.5 26.5 -22.4249
    endloop
  endfacet
  facet normal 0 1 0
    outer loop
      vertex 8.7 26.5 -23.5
      vertex 16.5 26.5 -22.4249
      vertex 18.3862 26.5 -22.7575
    endloop
  endfacet
  facet normal 0 1 0
    outer loop
      vertex 8.7 26.5 -23.5
      vertex 18.3862 26.5 -22.7575
      vertex 26.5122 26.5 -23.5
    endloop
  endfacet
  facet normal 0 1 0
    outer loop
      vertex 15.2689 26.5 -19.0423
      vertex 8.7 26.5 -23.5
      vertex 7.2 26.5 -22
    endloop
  endfacet
  facet normal -0.707107 0 0.707107
    outer loop
      vertex 7.2 26.5 -22
      vertex 13.2811 20.5 -15.9189
      vertex 13.2811 26.5 -15.9189
    endloop
  endfacet
  facet normal -0.707107 0 0.707107
    outer loop
      vertex 13.2811 20.5 -15.9189
      vertex 7.2 26.5 -22
      vertex 7.2 20.5 -22
    endloop
  endfacet
  facet normal 0.707107 0 0.707107
    outer loop
      vertex 13.2811 26.5 -15.9189
      vertex 15.787 20.5 -18.4248
      vertex 15.787 26.5 -18.4248
    endloop
  endfacet
  facet normal 0.707107 0 0.707107
    outer loop
      vertex 15.787 20.5 -18.4248
      vertex 13.2811 26.5 -15.9189
      vertex 13.2811 20.5 -15.9189
    endloop
  endfacet
  facet normal -0.707107 0 -0.707107
    outer loop
      vertex 7.2 20.5 -22
      vertex 8.7 26.5 -23.5
      vertex 8.7 20.5 -23.5
    endloop
  endfacet
  facet normal -0.707107 0 -0.707107
    outer loop
      vertex 8.7 26.5 -23.5
      vertex 7.2 20.5 -22
      vertex 7.2 26.5 -22
    endloop
  endfacet
  facet normal 0.707107 0 0.707107
    outer loop
      vertex 48.7811 26.5 -15.9189
      vertex 54.8622 20.5 -22
      vertex 54.8622 26.5 -22
    endloop
  endfacet
  facet normal 0.707107 0 0.707107
    outer loop
      vertex 54.8622 20.5 -22
      vertex 48.7811 26.5 -15.9189
      vertex 48.7811 20.5 -15.9189
    endloop
  endfacet
  facet normal 0.707107 0 -0.707107
    outer loop
      vertex 54.8622 20.5 -22
      vertex 53.3622 26.5 -23.5
      vertex 54.8622 26.5 -22
    endloop
  endfacet
  facet normal 0.707107 0 -0.707107
    outer loop
      vertex 53.3622 26.5 -23.5
      vertex 54.8622 20.5 -22
      vertex 53.3622 20.5 -23.5
    endloop
  endfacet
  facet normal 0 -1 0
    outer loop
      vertex 40.1311 20.5 -15.9189
      vertex 42.1189 20.5 -19.0423
      vertex 42.637 20.5 -18.4248
    endloop
  endfacet
  facet normal 0 -1 0
    outer loop
      vertex 34.05 20.5 -22
      vertex 42.1189 20.5 -19.0423
      vertex 40.1311 20.5 -15.9189
    endloop
  endfacet
  facet normal 0 -1 0
    outer loop
      vertex 35.55 20.5 -23.5
      vertex 42.1189 20.5 -19.0423
      vertex 34.05 20.5 -22
    endloop
  endfacet
  facet normal 0 -1 -0
    outer loop
      vertex 42.1189 20.5 -19.0423
      vertex 35.55 20.5 -23.5
      vertex 42.1189 20.5 -20.9577
    endloop
  endfacet
  facet normal 0 -1 -0
    outer loop
      vertex 42.1189 20.5 -20.9577
      vertex 35.55 20.5 -23.5
      vertex 43.35 20.5 -22.4249
    endloop
  endfacet
  facet normal 0 -1 -0
    outer loop
      vertex 43.35 20.5 -22.4249
      vertex 35.55 20.5 -23.5
      vertex 45.2362 20.5 -22.7575
    endloop
  endfacet
  facet normal 0 -1 0
    outer loop
      vertex 46.8949 20.5 -18.2002
      vertex 48.7811 20.5 -15.9189
      vertex 46.6444 20.5 -18.0556
    endloop
  endfacet
  facet normal 0 -1 0
    outer loop
      vertex 47.55 20.5 -20
      vertex 48.7811 20.5 -15.9189
      vertex 46.8949 20.5 -18.2002
    endloop
  endfacet
  facet normal 0 -1 0
    outer loop
      vertex 47.55 20.5 -20
      vertex 54.8622 20.5 -22
      vertex 48.7811 20.5 -15.9189
    endloop
  endfacet
  facet normal 0 -1 0
    outer loop
      vertex 53.3622 20.5 -23.5
      vertex 47.55 20.5 -20
      vertex 46.8949 20.5 -21.7998
    endloop
  endfacet
  facet normal 0 -1 0
    outer loop
      vertex 53.3622 20.5 -23.5
      vertex 46.8949 20.5 -21.7998
      vertex 45.2362 20.5 -22.7575
    endloop
  endfacet
  facet normal 0 -1 0
    outer loop
      vertex 47.55 20.5 -20
      vertex 53.3622 20.5 -23.5
      vertex 54.8622 20.5 -22
    endloop
  endfacet
  facet normal 0 -1 0
    outer loop
      vertex 53.3622 20.5 -23.5
      vertex 45.2362 20.5 -22.7575
      vertex 35.55 20.5 -23.5
    endloop
  endfacet
  facet normal -0.707107 0 0.707107
    outer loop
      vertex 46.6444 20.5 -18.0556
      vertex 48.7811 26.5 -15.9189
      vertex 46.6444 26.5 -18.0556
    endloop
  endfacet
  facet normal -0.707107 0 0.707107
    outer loop
      vertex 48.7811 26.5 -15.9189
      vertex 46.6444 20.5 -18.0556
      vertex 48.7811 20.5 -15.9189
    endloop
  endfacet
  facet normal 0 1 0
    outer loop
      vertex 48.7811 26.5 -15.9189
      vertex 46.8949 26.5 -18.2002
      vertex 46.6444 26.5 -18.0556
    endloop
  endfacet
  facet normal 0 1 0
    outer loop
      vertex 48.7811 26.5 -15.9189
      vertex 47.55 26.5 -20
      vertex 46.8949 26.5 -18.2002
    endloop
  endfacet
  facet normal 0 1 0
    outer loop
      vertex 54.8622 26.5 -22
      vertex 47.55 26.5 -20
      vertex 48.7811 26.5 -15.9189
    endloop
  endfacet
  facet normal 0 1 -0
    outer loop
      vertex 53.3622 26.5 -23.5
      vertex 47.55 26.5 -20
      vertex 54.8622 26.5 -22
    endloop
  endfacet
  facet normal 0 1 0
    outer loop
      vertex 47.55 26.5 -20
      vertex 53.3622 26.5 -23.5
      vertex 46.8949 26.5 -21.7998
    endloop
  endfacet
  facet normal 0 1 0
    outer loop
      vertex 46.8949 26.5 -21.7998
      vertex 53.3622 26.5 -23.5
      vertex 45.2362 26.5 -22.7575
    endloop
  endfacet
  facet normal 0 1 -0
    outer loop
      vertex 42.1189 26.5 -19.0423
      vertex 40.1311 26.5 -15.9189
      vertex 42.637 26.5 -18.4248
    endloop
  endfacet
  facet normal 0 1 0
    outer loop
      vertex 35.55 26.5 -23.5
      vertex 42.1189 26.5 -19.0423
      vertex 42.1189 26.5 -20.9577
    endloop
  endfacet
  facet normal 0 1 0
    outer loop
      vertex 42.1189 26.5 -19.0423
      vertex 34.05 26.5 -22
      vertex 40.1311 26.5 -15.9189
    endloop
  endfacet
  facet normal 0 1 0
    outer loop
      vertex 35.55 26.5 -23.5
      vertex 42.1189 26.5 -20.9577
      vertex 43.35 26.5 -22.4249
    endloop
  endfacet
  facet normal 0 1 0
    outer loop
      vertex 35.55 26.5 -23.5
      vertex 43.35 26.5 -22.4249
      vertex 45.2362 26.5 -22.7575
    endloop
  endfacet
  facet normal 0 1 0
    outer loop
      vertex 35.55 26.5 -23.5
      vertex 45.2362 26.5 -22.7575
      vertex 53.3622 26.5 -23.5
    endloop
  endfacet
  facet normal 0 1 0
    outer loop
      vertex 42.1189 26.5 -19.0423
      vertex 35.55 26.5 -23.5
      vertex 34.05 26.5 -22
    endloop
  endfacet
  facet normal -0.707107 0 0.707107
    outer loop
      vertex 34.05 26.5 -22
      vertex 40.1311 20.5 -15.9189
      vertex 40.1311 26.5 -15.9189
    endloop
  endfacet
  facet normal -0.707107 0 0.707107
    outer loop
      vertex 40.1311 20.5 -15.9189
      vertex 34.05 26.5 -22
      vertex 34.05 20.5 -22
    endloop
  endfacet
  facet normal 0.707107 -0 0.707107
    outer loop
      vertex 40.1311 20.5 -15.9189
      vertex 42.637 26.5 -18.4248
      vertex 40.1311 26.5 -15.9189
    endloop
  endfacet
  facet normal 0.707107 0 0.707107
    outer loop
      vertex 42.637 26.5 -18.4248
      vertex 40.1311 20.5 -15.9189
      vertex 42.637 20.5 -18.4248
    endloop
  endfacet
  facet normal -0.707107 0 -0.707107
    outer loop
      vertex 35.55 20.5 -23.5
      vertex 34.05 26.5 -22
      vertex 35.55 26.5 -23.5
    endloop
  endfacet
  facet normal -0.707107 -0 -0.707107
    outer loop
      vertex 34.05 26.5 -22
      vertex 35.55 20.5 -23.5
      vertex 34.05 20.5 -22
    endloop
  endfacet
  facet normal -0.939693 0 -0.34202
    outer loop
      vertex 74.4 20.5 -20
      vertex 73.7449 26.5 -18.2002
      vertex 74.4 26.5 -20
    endloop
  endfacet
  facet normal -0.939693 -0 -0.34202
    outer loop
      vertex 73.7449 26.5 -18.2002
      vertex 74.4 20.5 -20
      vertex 73.7449 20.5 -18.2002
    endloop
  endfacet
  facet normal 1 -0 0
    outer loop
      vertex 68.9689 20.5 -19.0423
      vertex 68.9689 26.5 -20.9577
      vertex 68.9689 26.5 -19.0423
    endloop
  endfacet
  facet normal 1 0 0
    outer loop
      vertex 68.9689 26.5 -20.9577
      vertex 68.9689 20.5 -19.0423
      vertex 68.9689 20.5 -20.9577
    endloop
  endfacet
  facet normal -0.500002 0 -0.866024
    outer loop
      vertex 73.4944 20.5 -18.0556
      vertex 73.7449 26.5 -18.2002
      vertex 73.7449 20.5 -18.2002
    endloop
  endfacet
  facet normal -0.500002 0 -0.866024
    outer loop
      vertex 73.7449 26.5 -18.2002
      vertex 73.4944 20.5 -18.0556
      vertex 73.4944 26.5 -18.0556
    endloop
  endfacet
  facet normal 0.766047 0 -0.642784
    outer loop
      vertex 69.487 20.5 -18.4248
      vertex 68.9689 26.5 -19.0423
      vertex 69.487 26.5 -18.4248
    endloop
  endfacet
  facet normal 0.766047 0 -0.642784
    outer loop
      vertex 68.9689 26.5 -19.0423
      vertex 69.487 20.5 -18.4248
      vertex 68.9689 20.5 -19.0423
    endloop
  endfacet
  facet normal -0.499999 0 0.866026
    outer loop
      vertex 72.0862 26.5 -22.7575
      vertex 73.7449 20.5 -21.7998
      vertex 73.7449 26.5 -21.7998
    endloop
  endfacet
  facet normal -0.499999 0 0.866026
    outer loop
      vertex 73.7449 20.5 -21.7998
      vertex 72.0862 26.5 -22.7575
      vertex 72.0862 20.5 -22.7575
    endloop
  endfacet
  facet normal 0.766046 -0 0.642786
    outer loop
      vertex 68.9689 20.5 -20.9577
      vertex 70.2 26.5 -22.4249
      vertex 68.9689 26.5 -20.9577
    endloop
  endfacet
  facet normal 0.766046 0 0.642786
    outer loop
      vertex 70.2 26.5 -22.4249
      vertex 68.9689 20.5 -20.9577
      vertex 70.2 20.5 -22.4249
    endloop
  endfacet
  facet normal -0.939693 0 0.34202
    outer loop
      vertex 73.7449 20.5 -21.7998
      vertex 74.4 26.5 -20
      vertex 73.7449 26.5 -21.7998
    endloop
  endfacet
  facet normal -0.939693 0 0.34202
    outer loop
      vertex 74.4 26.5 -20
      vertex 73.7449 20.5 -21.7998
      vertex 74.4 20.5 -20
    endloop
  endfacet
  facet normal 0.173649 0 0.984808
    outer loop
      vertex 70.2 26.5 -22.4249
      vertex 72.0862 20.5 -22.7575
      vertex 72.0862 26.5 -22.7575
    endloop
  endfacet
  facet normal 0.173649 0 0.984808
    outer loop
      vertex 72.0862 20.5 -22.7575
      vertex 70.2 26.5 -22.4249
      vertex 70.2 20.5 -22.4249
    endloop
  endfacet
  facet normal 0 1 -0
    outer loop
      vertex 72.5568 18 -24.1922
      vertex 69.2058 18 -23.5
      vertex 73.9942 18 -23.5
    endloop
  endfacet
  facet normal 0 1 0
    outer loop
      vertex 69.2058 18 -23.5
      vertex 72.5568 18 -24.1922
      vertex 70.6432 18 -24.1922
    endloop
  endfacet
  facet normal -0.433883 0 0.900969
    outer loop
      vertex 72.5568 20 -24.1922
      vertex 73.9942 18 -23.5
      vertex 73.9942 20 -23.5
    endloop
  endfacet
  facet normal -0.433883 0 0.900969
    outer loop
      vertex 73.9942 18 -23.5
      vertex 72.5568 20 -24.1922
      vertex 72.5568 18 -24.1922
    endloop
  endfacet
  facet normal 0 -1 0
    outer loop
      vertex 70.6432 20 -24.1922
      vertex 73.9942 20 -23.5
      vertex 69.2058 20 -23.5
    endloop
  endfacet
  facet normal 0 -1 0
    outer loop
      vertex 73.9942 20 -23.5
      vertex 70.6432 20 -24.1922
      vertex 72.5568 20 -24.1922
    endloop
  endfacet
  facet normal -0 0 1
    outer loop
      vertex 70.6432 20 -24.1922
      vertex 72.5568 18 -24.1922
      vertex 72.5568 20 -24.1922
    endloop
  endfacet
  facet normal 0 0 1
    outer loop
      vertex 72.5568 18 -24.1922
      vertex 70.6432 20 -24.1922
      vertex 70.6432 18 -24.1922
    endloop
  endfacet
  facet normal 0.433885 0 0.900968
    outer loop
      vertex 69.2058 20 -23.5
      vertex 70.6432 18 -24.1922
      vertex 70.6432 20 -24.1922
    endloop
  endfacet
  facet normal 0.433885 0 0.900968
    outer loop
      vertex 70.6432 18 -24.1922
      vertex 69.2058 20 -23.5
      vertex 69.2058 18 -23.5
    endloop
  endfacet
  facet normal -0.939693 0 -0.34202
    outer loop
      vertex 20.7 20.5 -20
      vertex 20.0449 26.5 -18.2002
      vertex 20.7 26.5 -20
    endloop
  endfacet
  facet normal -0.939693 -0 -0.34202
    outer loop
      vertex 20.0449 26.5 -18.2002
      vertex 20.7 20.5 -20
      vertex 20.0449 20.5 -18.2002
    endloop
  endfacet
  facet normal 1 -0 0
    outer loop
      vertex 15.2689 20.5 -19.0423
      vertex 15.2689 26.5 -20.9577
      vertex 15.2689 26.5 -19.0423
    endloop
  endfacet
  facet normal 1 0 0
    outer loop
      vertex 15.2689 26.5 -20.9577
      vertex 15.2689 20.5 -19.0423
      vertex 15.2689 20.5 -20.9577
    endloop
  endfacet
  facet normal -0.500002 0 -0.866024
    outer loop
      vertex 19.7944 20.5 -18.0556
      vertex 20.0449 26.5 -18.2002
      vertex 20.0449 20.5 -18.2002
    endloop
  endfacet
  facet normal -0.500002 0 -0.866024
    outer loop
      vertex 20.0449 26.5 -18.2002
      vertex 19.7944 20.5 -18.0556
      vertex 19.7944 26.5 -18.0556
    endloop
  endfacet
  facet normal 0.766044 0 -0.642788
    outer loop
      vertex 15.787 20.5 -18.4248
      vertex 15.2689 26.5 -19.0423
      vertex 15.787 26.5 -18.4248
    endloop
  endfacet
  facet normal 0.766044 0 -0.642788
    outer loop
      vertex 15.2689 26.5 -19.0423
      vertex 15.787 20.5 -18.4248
      vertex 15.2689 20.5 -19.0423
    endloop
  endfacet
  facet normal -0.5 0 0.866025
    outer loop
      vertex 18.3862 26.5 -22.7575
      vertex 20.0449 20.5 -21.7998
      vertex 20.0449 26.5 -21.7998
    endloop
  endfacet
  facet normal -0.5 0 0.866025
    outer loop
      vertex 20.0449 20.5 -21.7998
      vertex 18.3862 26.5 -22.7575
      vertex 18.3862 20.5 -22.7575
    endloop
  endfacet
  facet normal 0.766044 -0 0.642788
    outer loop
      vertex 15.2689 20.5 -20.9577
      vertex 16.5 26.5 -22.4249
      vertex 15.2689 26.5 -20.9577
    endloop
  endfacet
  facet normal 0.766044 0 0.642788
    outer loop
      vertex 16.5 26.5 -22.4249
      vertex 15.2689 20.5 -20.9577
      vertex 16.5 20.5 -22.4249
    endloop
  endfacet
  facet normal -0.939693 0 0.34202
    outer loop
      vertex 20.0449 20.5 -21.7998
      vertex 20.7 26.5 -20
      vertex 20.0449 26.5 -21.7998
    endloop
  endfacet
  facet normal -0.939693 0 0.34202
    outer loop
      vertex 20.7 26.5 -20
      vertex 20.0449 20.5 -21.7998
      vertex 20.7 20.5 -20
    endloop
  endfacet
  facet normal 0.173649 0 0.984808
    outer loop
      vertex 16.5 26.5 -22.4249
      vertex 18.3862 20.5 -22.7575
      vertex 18.3862 26.5 -22.7575
    endloop
  endfacet
  facet normal 0.173649 0 0.984808
    outer loop
      vertex 18.3862 20.5 -22.7575
      vertex 16.5 26.5 -22.4249
      vertex 16.5 20.5 -22.4249
    endloop
  endfacet
  facet normal 0 1 -0
    outer loop
      vertex 18.8568 18 -24.1922
      vertex 15.5058 18 -23.5
      vertex 20.2942 18 -23.5
    endloop
  endfacet
  facet normal 0 1 0
    outer loop
      vertex 15.5058 18 -23.5
      vertex 18.8568 18 -24.1922
      vertex 16.9432 18 -24.1922
    endloop
  endfacet
  facet normal -0.433883 0 0.900969
    outer loop
      vertex 18.8568 20 -24.1922
      vertex 20.2942 18 -23.5
      vertex 20.2942 20 -23.5
    endloop
  endfacet
  facet normal -0.433883 0 0.900969
    outer loop
      vertex 20.2942 18 -23.5
      vertex 18.8568 20 -24.1922
      vertex 18.8568 18 -24.1922
    endloop
  endfacet
  facet normal 0 -1 0
    outer loop
      vertex 16.9432 20 -24.1922
      vertex 20.2942 20 -23.5
      vertex 15.5058 20 -23.5
    endloop
  endfacet
  facet normal 0 -1 0
    outer loop
      vertex 20.2942 20 -23.5
      vertex 16.9432 20 -24.1922
      vertex 18.8568 20 -24.1922
    endloop
  endfacet
  facet normal -0 0 1
    outer loop
      vertex 16.9432 20 -24.1922
      vertex 18.8568 18 -24.1922
      vertex 18.8568 20 -24.1922
    endloop
  endfacet
  facet normal 0 0 1
    outer loop
      vertex 18.8568 18 -24.1922
      vertex 16.9432 20 -24.1922
      vertex 16.9432 18 -24.1922
    endloop
  endfacet
  facet normal 0.433883 0 0.900969
    outer loop
      vertex 15.5058 20 -23.5
      vertex 16.9432 18 -24.1922
      vertex 16.9432 20 -24.1922
    endloop
  endfacet
  facet normal 0.433883 0 0.900969
    outer loop
      vertex 16.9432 18 -24.1922
      vertex 15.5058 20 -23.5
      vertex 15.5058 18 -23.5
    endloop
  endfacet
  facet normal -0.939693 0 -0.34202
    outer loop
      vertex 47.55 20.5 -20
      vertex 46.8949 26.5 -18.2002
      vertex 47.55 26.5 -20
    endloop
  endfacet
  facet normal -0.939693 -0 -0.34202
    outer loop
      vertex 46.8949 26.5 -18.2002
      vertex 47.55 20.5 -20
      vertex 46.8949 20.5 -18.2002
    endloop
  endfacet
  facet normal 1 -0 0
    outer loop
      vertex 42.1189 20.5 -19.0423
      vertex 42.1189 26.5 -20.9577
      vertex 42.1189 26.5 -19.0423
    endloop
  endfacet
  facet normal 1 0 0
    outer loop
      vertex 42.1189 26.5 -20.9577
      vertex 42.1189 20.5 -19.0423
      vertex 42.1189 20.5 -20.9577
    endloop
  endfacet
  facet normal -0.500002 0 -0.866024
    outer loop
      vertex 46.6444 20.5 -18.0556
      vertex 46.8949 26.5 -18.2002
      vertex 46.8949 20.5 -18.2002
    endloop
  endfacet
  facet normal -0.500002 0 -0.866024
    outer loop
      vertex 46.8949 26.5 -18.2002
      vertex 46.6444 20.5 -18.0556
      vertex 46.6444 26.5 -18.0556
    endloop
  endfacet
  facet normal 0.766045 0 -0.642787
    outer loop
      vertex 42.637 20.5 -18.4248
      vertex 42.1189 26.5 -19.0423
      vertex 42.637 26.5 -18.4248
    endloop
  endfacet
  facet normal 0.766045 0 -0.642787
    outer loop
      vertex 42.1189 26.5 -19.0423
      vertex 42.637 20.5 -18.4248
      vertex 42.1189 20.5 -19.0423
    endloop
  endfacet
  facet normal -0.5 0 0.866025
    outer loop
      vertex 45.2362 26.5 -22.7575
      vertex 46.8949 20.5 -21.7998
      vertex 46.8949 26.5 -21.7998
    endloop
  endfacet
  facet normal -0.5 0 0.866025
    outer loop
      vertex 46.8949 20.5 -21.7998
      vertex 45.2362 26.5 -22.7575
      vertex 45.2362 20.5 -22.7575
    endloop
  endfacet
  facet normal 0.766045 -0 0.642787
    outer loop
      vertex 42.1189 20.5 -20.9577
      vertex 43.35 26.5 -22.4249
      vertex 42.1189 26.5 -20.9577
    endloop
  endfacet
  facet normal 0.766045 0 0.642787
    outer loop
      vertex 43.35 26.5 -22.4249
      vertex 42.1189 20.5 -20.9577
      vertex 43.35 20.5 -22.4249
    endloop
  endfacet
  facet normal -0.939693 0 0.34202
    outer loop
      vertex 46.8949 20.5 -21.7998
      vertex 47.55 26.5 -20
      vertex 46.8949 26.5 -21.7998
    endloop
  endfacet
  facet normal -0.939693 0 0.34202
    outer loop
      vertex 47.55 26.5 -20
      vertex 46.8949 20.5 -21.7998
      vertex 47.55 20.5 -20
    endloop
  endfacet
  facet normal 0.173649 0 0.984808
    outer loop
      vertex 43.35 26.5 -22.4249
      vertex 45.2362 20.5 -22.7575
      vertex 45.2362 26.5 -22.7575
    endloop
  endfacet
  facet normal 0.173649 0 0.984808
    outer loop
      vertex 45.2362 20.5 -22.7575
      vertex 43.35 26.5 -22.4249
      vertex 43.35 20.5 -22.4249
    endloop
  endfacet
  facet normal 0 1 -0
    outer loop
      vertex 45.7068 18 -24.1922
      vertex 42.3558 18 -23.5
      vertex 47.1442 18 -23.5
    endloop
  endfacet
  facet normal 0 1 0
    outer loop
      vertex 42.3558 18 -23.5
      vertex 45.7068 18 -24.1922
      vertex 43.7932 18 -24.1922
    endloop
  endfacet
  facet normal -0.433884 0 0.900969
    outer loop
      vertex 45.7068 20 -24.1922
      vertex 47.1442 18 -23.5
      vertex 47.1442 20 -23.5
    endloop
  endfacet
  facet normal -0.433884 0 0.900969
    outer loop
      vertex 47.1442 18 -23.5
      vertex 45.7068 20 -24.1922
      vertex 45.7068 18 -24.1922
    endloop
  endfacet
  facet normal 0 -1 0
    outer loop
      vertex 43.7932 20 -24.1922
      vertex 47.1442 20 -23.5
      vertex 42.3558 20 -23.5
    endloop
  endfacet
  facet normal 0 -1 0
    outer loop
      vertex 47.1442 20 -23.5
      vertex 43.7932 20 -24.1922
      vertex 45.7068 20 -24.1922
    endloop
  endfacet
  facet normal -0 0 1
    outer loop
      vertex 43.7932 20 -24.1922
      vertex 45.7068 18 -24.1922
      vertex 45.7068 20 -24.1922
    endloop
  endfacet
  facet normal 0 0 1
    outer loop
      vertex 45.7068 18 -24.1922
      vertex 43.7932 20 -24.1922
      vertex 43.7932 18 -24.1922
    endloop
  endfacet
  facet normal 0.433884 0 0.900969
    outer loop
      vertex 42.3558 20 -23.5
      vertex 43.7932 18 -24.1922
      vertex 43.7932 20 -24.1922
    endloop
  endfacet
  facet normal 0.433884 0 0.900969
    outer loop
      vertex 43.7932 18 -24.1922
      vertex 42.3558 20 -23.5
      vertex 42.3558 18 -23.5
    endloop
  endfacet
  facet normal 0 0 -1
    outer loop
      vertex -5 -6.7375 -25.2
      vertex 94.5 26.7375 -25.2
      vertex 94.5 -6.7375 -25.2
    endloop
  endfacet
  facet normal -0 0 -1
    outer loop
      vertex 94.5 26.7375 -25.2
      vertex -5 -6.7375 -25.2
      vertex -5 26.7375 -25.2
    endloop
  endfacet
  facet normal 1 -0 0
    outer loop
      vertex 0 9.5 1
      vertex 0 25.5 -22
      vertex 0 25.5 1
    endloop
  endfacet
  facet normal 1 0 0
    outer loop
      vertex 0 25.5 -22
      vertex 0 9.5 1
      vertex 0 9.5 -22
    endloop
  endfacet
  facet normal -1 0 0
    outer loop
      vertex 89.5 9.5 -22
      vertex 89.5 25.5 1
      vertex 89.5 25.5 -22
    endloop
  endfacet
  facet normal -1 -0 0
    outer loop
      vertex 89.5 25.5 1
      vertex 89.5 9.5 -22
      vertex 89.5 9.5 1
    endloop
  endfacet
  facet normal 0 0 1
    outer loop
      vertex 1 25.5 -22
      vertex 0 25.5 -22
      vertex 1 15 -22
    endloop
  endfacet
  facet normal 0 0 1
    outer loop
      vertex 88.5 15 -22
      vertex 89.5 25.5 -22
      vertex 88.5 25.5 -22
    endloop
  endfacet
  facet normal 0 0 1
    outer loop
      vertex 89.5 25.5 -22
      vertex 88.5 15 -22
      vertex 89.5 9.5 -22
    endloop
  endfacet
  facet normal 0 0 1
    outer loop
      vertex 88.5 15 -22
      vertex 83.5 9.5 -22
      vertex 89.5 9.5 -22
    endloop
  endfacet
  facet normal 0 0 1
    outer loop
      vertex 83.5 9.5 -22
      vertex 6 9.5 -22
      vertex 83.5 7.5 -22
    endloop
  endfacet
  facet normal 0 0 1
    outer loop
      vertex 88.5 15 -22
      vertex 6 9.5 -22
      vertex 83.5 9.5 -22
    endloop
  endfacet
  facet normal -0 0 1
    outer loop
      vertex 1 15 -22
      vertex 6 9.5 -22
      vertex 88.5 15 -22
    endloop
  endfacet
  facet normal 0 0 1
    outer loop
      vertex 1 15 -22
      vertex 0 9.5 -22
      vertex 6 9.5 -22
    endloop
  endfacet
  facet normal 0 0 1
    outer loop
      vertex 0 9.5 -22
      vertex 1 15 -22
      vertex 0 25.5 -22
    endloop
  endfacet
  facet normal 0 0 1
    outer loop
      vertex 83.5 7.5 -22
      vertex 6 9.5 -22
      vertex 6 7.5 -22
    endloop
  endfacet
  facet normal 0 1 0
    outer loop
      vertex 6 9.5 -16
      vertex 6 9.5 -22
      vertex 1 9.5 -16
    endloop
  endfacet
  facet normal 0 1 -0
    outer loop
      vertex 1 9.5 -16
      vertex 0 9.5 1
      vertex 1 9.5 1
    endloop
  endfacet
  facet normal 0 1 0
    outer loop
      vertex 1 9.5 -16
      vertex 0 9.5 -22
      vertex 0 9.5 1
    endloop
  endfacet
  facet normal 0 1 0
    outer loop
      vertex 0 9.5 -22
      vertex 1 9.5 -16
      vertex 6 9.5 -22
    endloop
  endfacet
  facet normal 0 1 0
    outer loop
      vertex 89.5 9.5 1
      vertex 88.5 9.5 -16
      vertex 88.5 9.5 1
    endloop
  endfacet
  facet normal 0 1 -0
    outer loop
      vertex 89.5 9.5 -22
      vertex 88.5 9.5 -16
      vertex 89.5 9.5 1
    endloop
  endfacet
  facet normal 0 1 0
    outer loop
      vertex 83.5 9.5 -22
      vertex 88.5 9.5 -16
      vertex 89.5 9.5 -22
    endloop
  endfacet
  facet normal 0 1 0
    outer loop
      vertex 88.5 9.5 -16
      vertex 83.5 9.5 -22
      vertex 83.5 9.5 -16
    endloop
  endfacet
  facet normal 0 -1 0
    outer loop
      vertex 0 25.5 -22
      vertex 1 25.5 1
      vertex 0 25.5 1
    endloop
  endfacet
  facet normal 0 -1 -0
    outer loop
      vertex 1 25.5 1
      vertex 0 25.5 -22
      vertex 1 25.5 -22
    endloop
  endfacet
  facet normal 0 -1 0
    outer loop
      vertex 88.5 25.5 -22
      vertex 89.5 25.5 1
      vertex 88.5 25.5 1
    endloop
  endfacet
  facet normal 0 -1 -0
    outer loop
      vertex 89.5 25.5 1
      vertex 88.5 25.5 -22
      vertex 89.5 25.5 -22
    endloop
  endfacet
  facet normal 1 -0 0
    outer loop
      vertex 6 7.5 -16
      vertex 6 9.5 -22
      vertex 6 9.5 -16
    endloop
  endfacet
  facet normal 1 0 0
    outer loop
      vertex 6 9.5 -22
      vertex 6 7.5 -16
      vertex 6 7.5 -22
    endloop
  endfacet
  facet normal -1 0 0
    outer loop
      vertex 83.5 7.5 -22
      vertex 83.5 9.5 -16
      vertex 83.5 9.5 -22
    endloop
  endfacet
  facet normal -1 -0 0
    outer loop
      vertex 83.5 9.5 -16
      vertex 83.5 7.5 -22
      vertex 83.5 7.5 -16
    endloop
  endfacet
  facet normal -1 0 0
    outer loop
      vertex 89.5 0.00999928 -22.5
      vertex 89.5 7.5 1
      vertex 89.5 7.5 -22.5
    endloop
  endfacet
  facet normal -1 -0 0
    outer loop
      vertex 89.5 7.5 1
      vertex 89.5 0.00999928 -22.5
      vertex 89.5 0.00999928 1
    endloop
  endfacet
  facet normal 0 -1 0
    outer loop
      vertex 0 7.5 1
      vertex 1 7.5 -16
      vertex 1 7.5 1
    endloop
  endfacet
  facet normal 0 -1 0
    outer loop
      vertex 1 7.5 -16
      vertex 6 7.5 -22
      vertex 6 7.5 -16
    endloop
  endfacet
  facet normal 0 -1 -0
    outer loop
      vertex 6 7.5 -22
      vertex 0 7.5 -22.5
      vertex 83.5 7.5 -22
    endloop
  endfacet
  facet normal 0 -1 -0
    outer loop
      vertex 1 7.5 -16
      vertex 0 7.5 -22.5
      vertex 6 7.5 -22
    endloop
  endfacet
  facet normal 0 -1 0
    outer loop
      vertex 0 7.5 -22.5
      vertex 1 7.5 -16
      vertex 0 7.5 1
    endloop
  endfacet
  facet normal 0 -1 0
    outer loop
      vertex 83.5 7.5 -16
      vertex 83.5 7.5 -22
      vertex 88.5 7.5 -16
    endloop
  endfacet
  facet normal 0 -1 0
    outer loop
      vertex 88.5 7.5 -16
      vertex 89.5 7.5 1
      vertex 88.5 7.5 1
    endloop
  endfacet
  facet normal 0 -1 0
    outer loop
      vertex 88.5 7.5 -16
      vertex 89.5 7.5 -22.5
      vertex 89.5 7.5 1
    endloop
  endfacet
  facet normal 0 -1 0
    outer loop
      vertex 83.5 7.5 -22
      vertex 89.5 7.5 -22.5
      vertex 88.5 7.5 -16
    endloop
  endfacet
  facet normal 0 -1 0
    outer loop
      vertex 89.5 7.5 -22.5
      vertex 83.5 7.5 -22
      vertex 0 7.5 -22.5
    endloop
  endfacet
  facet normal -0 0 1
    outer loop
      vertex 0 7.5 -22.5
      vertex 89.5 0.00999928 -22.5
      vertex 89.5 7.5 -22.5
    endloop
  endfacet
  facet normal 0 0 1
    outer loop
      vertex 89.5 0.00999928 -22.5
      vertex 0 7.5 -22.5
      vertex 0 0.00999928 -22.5
    endloop
  endfacet
  facet normal 1 -0 0
    outer loop
      vertex 0 0.00999928 1
      vertex 0 7.5 -22.5
      vertex 0 7.5 1
    endloop
  endfacet
  facet normal 1 0 0
    outer loop
      vertex 0 7.5 -22.5
      vertex 0 0.00999928 1
      vertex 0 0.00999928 -22.5
    endloop
  endfacet
  facet normal 1 -0 0
    outer loop
      vertex -0.5 -3.475 1
      vertex -0.5 0.00999928 -23
      vertex -0.5 0.00999928 1
    endloop
  endfacet
  facet normal 1 0 0
    outer loop
      vertex -0.5 0.00999928 -23
      vertex -0.5 -3.475 1
      vertex -0.5 -3.475 -23
    endloop
  endfacet
  facet normal -1 0 0
    outer loop
      vertex 90 -3.475 -23
      vertex 90 0.00999928 1
      vertex 90 0.00999928 -23
    endloop
  endfacet
  facet normal -1 -0 0
    outer loop
      vertex 90 0.00999928 1
      vertex 90 -3.475 -23
      vertex 90 -3.475 1
    endloop
  endfacet
  facet normal 0 -1 0
    outer loop
      vertex -0.5 0.00999928 1
      vertex 0 0.00999928 -22.5
      vertex 0 0.00999928 1
    endloop
  endfacet
  facet normal 0 -1 -0
    outer loop
      vertex 0 0.00999928 -22.5
      vertex -0.5 0.00999928 -23
      vertex 89.5 0.00999928 -22.5
    endloop
  endfacet
  facet normal 0 -1 0
    outer loop
      vertex -0.5 0.00999928 -23
      vertex 0 0.00999928 -22.5
      vertex -0.5 0.00999928 1
    endloop
  endfacet
  facet normal 0 -1 0
    outer loop
      vertex 89.5 0.00999928 -22.5
      vertex 90 0.00999928 1
      vertex 89.5 0.00999928 1
    endloop
  endfacet
  facet normal 0 -1 0
    outer loop
      vertex 89.5 0.00999928 -22.5
      vertex 90 0.00999928 -23
      vertex 90 0.00999928 1
    endloop
  endfacet
  facet normal 0 -1 0
    outer loop
      vertex 90 0.00999928 -23
      vertex 89.5 0.00999928 -22.5
      vertex -0.5 0.00999928 -23
    endloop
  endfacet
  facet normal -0 0 1
    outer loop
      vertex -0.5 0.00999928 -23
      vertex 90 -3.475 -23
      vertex 90 0.00999928 -23
    endloop
  endfacet
  facet normal 0 0 1
    outer loop
      vertex 90 -3.475 -23
      vertex -0.5 0.00999928 -23
      vertex -0.5 -3.475 -23
    endloop
  endfacet
  facet normal 0 1 0
    outer loop
      vertex 90 -3.475 1
      vertex 88.5 -3.475 -16
      vertex 88.5 -3.475 1
    endloop
  endfacet
  facet normal 0 1 0
    outer loop
      vertex 88.5 -3.475 -16
      vertex 90 -3.475 -23
      vertex 1 -3.475 -16
    endloop
  endfacet
  facet normal 0 1 -0
    outer loop
      vertex 90 -3.475 -23
      vertex 88.5 -3.475 -16
      vertex 90 -3.475 1
    endloop
  endfacet
  facet normal 0 1 -0
    outer loop
      vertex 1 -3.475 -16
      vertex -0.5 -3.475 1
      vertex 1 -3.475 1
    endloop
  endfacet
  facet normal 0 1 0
    outer loop
      vertex 1 -3.475 -16
      vertex -0.5 -3.475 -23
      vertex -0.5 -3.475 1
    endloop
  endfacet
  facet normal 0 1 0
    outer loop
      vertex -0.5 -3.475 -23
      vertex 1 -3.475 -16
      vertex 90 -3.475 -23
    endloop
  endfacet
  facet normal 1 -0 0
    outer loop
      vertex 1 7.5 1
      vertex 1 9.5 -16
      vertex 1 9.5 1
    endloop
  endfacet
  facet normal 1 0 0
    outer loop
      vertex 1 9.5 -16
      vertex 1 7.5 1
      vertex 1 7.5 -16
    endloop
  endfacet
  facet normal 1 -0 0
    outer loop
      vertex 1 -6.7375 1
      vertex 1 -3.475 -16
      vertex 1 -3.475 1
    endloop
  endfacet
  facet normal 1 0 0
    outer loop
      vertex 1 -3.475 -16
      vertex 1 -6.7375 1
      vertex 1 -6.7375 -16
    endloop
  endfacet
  facet normal -1 0 0
    outer loop
      vertex 88.5 7.5 -16
      vertex 88.5 9.5 1
      vertex 88.5 9.5 -16
    endloop
  endfacet
  facet normal -1 -0 0
    outer loop
      vertex 88.5 9.5 1
      vertex 88.5 7.5 -16
      vertex 88.5 7.5 1
    endloop
  endfacet
  facet normal -1 0 0
    outer loop
      vertex 88.5 -6.7375 -16
      vertex 88.5 -3.475 1
      vertex 88.5 -3.475 -16
    endloop
  endfacet
  facet normal -1 -0 0
    outer loop
      vertex 88.5 -3.475 1
      vertex 88.5 -6.7375 -16
      vertex 88.5 -6.7375 1
    endloop
  endfacet
  facet normal -0 0 1
    outer loop
      vertex 1 9.5 -16
      vertex 6 7.5 -16
      vertex 6 9.5 -16
    endloop
  endfacet
  facet normal 0 0 1
    outer loop
      vertex 6 7.5 -16
      vertex 1 9.5 -16
      vertex 1 7.5 -16
    endloop
  endfacet
  facet normal -0 0 1
    outer loop
      vertex 83.5 9.5 -16
      vertex 88.5 7.5 -16
      vertex 88.5 9.5 -16
    endloop
  endfacet
  facet normal 0 0 1
    outer loop
      vertex 88.5 7.5 -16
      vertex 83.5 9.5 -16
      vertex 83.5 7.5 -16
    endloop
  endfacet
  facet normal -0 0 1
    outer loop
      vertex 1 -3.475 -16
      vertex 88.5 -6.7375 -16
      vertex 88.5 -3.475 -16
    endloop
  endfacet
  facet normal 0 0 1
    outer loop
      vertex 88.5 -6.7375 -16
      vertex 1 -3.475 -16
      vertex 1 -6.7375 -16
    endloop
  endfacet
  facet normal 1 0 0
    outer loop
      vertex 1 25.5 -22
      vertex 1 26.7375 1
      vertex 1 25.5 1
    endloop
  endfacet
  facet normal 1 0 0
    outer loop
      vertex 1 26.7375 1
      vertex 1 25.5 -22
      vertex 1 26.7375 -23.5
    endloop
  endfacet
  facet normal 1 0 0
    outer loop
      vertex 1 15 -23.5
      vertex 1 25.5 -22
      vertex 1 15 -22
    endloop
  endfacet
  facet normal 1 0 0
    outer loop
      vertex 1 25.5 -22
      vertex 1 15 -23.5
      vertex 1 26.7375 -23.5
    endloop
  endfacet
  facet normal -1 0 0
    outer loop
      vertex 88.5 26.7375 -23.5
      vertex 88.5 25.5 -22
      vertex 88.5 26.7375 1
    endloop
  endfacet
  facet normal -1 0 0
    outer loop
      vertex 88.5 15 -23.5
      vertex 88.5 25.5 -22
      vertex 88.5 26.7375 -23.5
    endloop
  endfacet
  facet normal -1 -0 0
    outer loop
      vertex 88.5 25.5 -22
      vertex 88.5 15 -23.5
      vertex 88.5 15 -22
    endloop
  endfacet
  facet normal -1 -0 0
    outer loop
      vertex 88.5 26.7375 1
      vertex 88.5 25.5 -22
      vertex 88.5 25.5 1
    endloop
  endfacet
  facet normal 0 0 1
    outer loop
      vertex 26.5122 20.5 -23.5
      vertex 15.5058 20 -23.5
      vertex 20.2942 20 -23.5
    endloop
  endfacet
  facet normal 0 0 1
    outer loop
      vertex 15.5058 20 -23.5
      vertex 8.7 20.5 -23.5
      vertex 15.5058 18 -23.5
    endloop
  endfacet
  facet normal -0 0 1
    outer loop
      vertex 8.7 20.5 -23.5
      vertex 15.5058 20 -23.5
      vertex 26.5122 20.5 -23.5
    endloop
  endfacet
  facet normal 0 0 1
    outer loop
      vertex 53.3622 20.5 -23.5
      vertex 42.3558 20 -23.5
      vertex 47.1442 20 -23.5
    endloop
  endfacet
  facet normal 0 0 1
    outer loop
      vertex 42.3558 20 -23.5
      vertex 35.55 20.5 -23.5
      vertex 42.3558 18 -23.5
    endloop
  endfacet
  facet normal -0 0 1
    outer loop
      vertex 35.55 20.5 -23.5
      vertex 42.3558 20 -23.5
      vertex 53.3622 20.5 -23.5
    endloop
  endfacet
  facet normal 0 0 1
    outer loop
      vertex 80.2122 20.5 -23.5
      vertex 69.2058 20 -23.5
      vertex 73.9942 20 -23.5
    endloop
  endfacet
  facet normal 0 0 1
    outer loop
      vertex 69.2058 20 -23.5
      vertex 62.4 20.5 -23.5
      vertex 69.2058 18 -23.5
    endloop
  endfacet
  facet normal -0 0 1
    outer loop
      vertex 62.4 20.5 -23.5
      vertex 69.2058 20 -23.5
      vertex 80.2122 20.5 -23.5
    endloop
  endfacet
  facet normal 0 0 1
    outer loop
      vertex 80.2122 20.5 -23.5
      vertex 88.5 26.7375 -23.5
      vertex 80.2122 26.5 -23.5
    endloop
  endfacet
  facet normal 0 0 1
    outer loop
      vertex 88.5 26.7375 -23.5
      vertex 62.4 26.5 -23.5
      vertex 80.2122 26.5 -23.5
    endloop
  endfacet
  facet normal 0 0 1
    outer loop
      vertex 62.4 26.5 -23.5
      vertex 53.3622 26.5 -23.5
      vertex 62.4 20.5 -23.5
    endloop
  endfacet
  facet normal 0 0 1
    outer loop
      vertex 88.5 26.7375 -23.5
      vertex 53.3622 26.5 -23.5
      vertex 62.4 26.5 -23.5
    endloop
  endfacet
  facet normal 0 0 1
    outer loop
      vertex 88.5 26.7375 -23.5
      vertex 35.55 26.5 -23.5
      vertex 53.3622 26.5 -23.5
    endloop
  endfacet
  facet normal 0 0 1
    outer loop
      vertex 35.55 26.5 -23.5
      vertex 26.5122 26.5 -23.5
      vertex 35.55 20.5 -23.5
    endloop
  endfacet
  facet normal 0 0 1
    outer loop
      vertex 88.5 26.7375 -23.5
      vertex 26.5122 26.5 -23.5
      vertex 35.55 26.5 -23.5
    endloop
  endfacet
  facet normal -0 0 1
    outer loop
      vertex 1 26.7375 -23.5
      vertex 26.5122 26.5 -23.5
      vertex 88.5 26.7375 -23.5
    endloop
  endfacet
  facet normal 0 0 1
    outer loop
      vertex 8.7 26.5 -23.5
      vertex 1 26.7375 -23.5
      vertex 8.7 20.5 -23.5
    endloop
  endfacet
  facet normal 0 0 1
    outer loop
      vertex 26.5122 26.5 -23.5
      vertex 1 26.7375 -23.5
      vertex 8.7 26.5 -23.5
    endloop
  endfacet
  facet normal 0 0 1
    outer loop
      vertex 88.5 26.7375 -23.5
      vertex 80.2122 20.5 -23.5
      vertex 88.5 15 -23.5
    endloop
  endfacet
  facet normal 0 0 1
    outer loop
      vertex 73.9942 18 -23.5
      vertex 80.2122 20.5 -23.5
      vertex 73.9942 20 -23.5
    endloop
  endfacet
  facet normal 0 0 1
    outer loop
      vertex 80.2122 20.5 -23.5
      vertex 73.9942 18 -23.5
      vertex 88.5 15 -23.5
    endloop
  endfacet
  facet normal -0 0 1
    outer loop
      vertex 69.2058 18 -23.5
      vertex 88.5 15 -23.5
      vertex 73.9942 18 -23.5
    endloop
  endfacet
  facet normal 0 0 1
    outer loop
      vertex 53.3622 20.5 -23.5
      vertex 62.4 20.5 -23.5
      vertex 53.3622 26.5 -23.5
    endloop
  endfacet
  facet normal 0 0 1
    outer loop
      vertex 47.1442 18 -23.5
      vertex 62.4 20.5 -23.5
      vertex 53.3622 20.5 -23.5
    endloop
  endfacet
  facet normal 0 0 1
    outer loop
      vertex 47.1442 18 -23.5
      vertex 53.3622 20.5 -23.5
      vertex 47.1442 20 -23.5
    endloop
  endfacet
  facet normal 0 0 1
    outer loop
      vertex 62.4 20.5 -23.5
      vertex 47.1442 18 -23.5
      vertex 69.2058 18 -23.5
    endloop
  endfacet
  facet normal 0 0 1
    outer loop
      vertex 69.2058 18 -23.5
      vertex 47.1442 18 -23.5
      vertex 88.5 15 -23.5
    endloop
  endfacet
  facet normal -0 0 1
    outer loop
      vertex 42.3558 18 -23.5
      vertex 88.5 15 -23.5
      vertex 47.1442 18 -23.5
    endloop
  endfacet
  facet normal 0 0 1
    outer loop
      vertex 26.5122 20.5 -23.5
      vertex 35.55 20.5 -23.5
      vertex 26.5122 26.5 -23.5
    endloop
  endfacet
  facet normal 0 0 1
    outer loop
      vertex 20.2942 18 -23.5
      vertex 35.55 20.5 -23.5
      vertex 26.5122 20.5 -23.5
    endloop
  endfacet
  facet normal 0 0 1
    outer loop
      vertex 20.2942 18 -23.5
      vertex 26.5122 20.5 -23.5
      vertex 20.2942 20 -23.5
    endloop
  endfacet
  facet normal 0 0 1
    outer loop
      vertex 35.55 20.5 -23.5
      vertex 20.2942 18 -23.5
      vertex 42.3558 18 -23.5
    endloop
  endfacet
  facet normal 0 0 1
    outer loop
      vertex 1 15 -23.5
      vertex 42.3558 18 -23.5
      vertex 20.2942 18 -23.5
    endloop
  endfacet
  facet normal 0 0 1
    outer loop
      vertex 1 15 -23.5
      vertex 20.2942 18 -23.5
      vertex 15.5058 18 -23.5
    endloop
  endfacet
  facet normal 0 0 1
    outer loop
      vertex 42.3558 18 -23.5
      vertex 1 15 -23.5
      vertex 88.5 15 -23.5
    endloop
  endfacet
  facet normal 0 0 1
    outer loop
      vertex 8.7 20.5 -23.5
      vertex 1 15 -23.5
      vertex 15.5058 18 -23.5
    endloop
  endfacet
  facet normal 0 0 1
    outer loop
      vertex 1 15 -23.5
      vertex 8.7 20.5 -23.5
      vertex 1 26.7375 -23.5
    endloop
  endfacet
  facet normal 0 1 -0
    outer loop
      vertex 88.5 15 -23.5
      vertex 1 15 -22
      vertex 88.5 15 -22
    endloop
  endfacet
  facet normal 0 1 0
    outer loop
      vertex 1 15 -22
      vertex 88.5 15 -23.5
      vertex 1 15 -23.5
    endloop
  endfacet
  facet normal -1 0 0
    outer loop
      vertex -5 -6.7375 -25.2
      vertex -5 26.7375 1
      vertex -5 26.7375 -25.2
    endloop
  endfacet
  facet normal -1 -0 0
    outer loop
      vertex -5 26.7375 1
      vertex -5 -6.7375 -25.2
      vertex -5 -6.7375 1
    endloop
  endfacet
  facet normal 1 -0 0
    outer loop
      vertex 94.5 -6.7375 1
      vertex 94.5 26.7375 -25.2
      vertex 94.5 26.7375 1
    endloop
  endfacet
  facet normal 1 0 0
    outer loop
      vertex 94.5 26.7375 -25.2
      vertex 94.5 -6.7375 1
      vertex 94.5 -6.7375 -25.2
    endloop
  endfacet
  facet normal 0 -1 0
    outer loop
      vertex -5 -6.7375 1
      vertex 1 -6.7375 -16
      vertex 1 -6.7375 1
    endloop
  endfacet
  facet normal 0 -1 -0
    outer loop
      vertex 1 -6.7375 -16
      vertex -5 -6.7375 -25.2
      vertex 88.5 -6.7375 -16
    endloop
  endfacet
  facet normal 0 -1 0
    outer loop
      vertex -5 -6.7375 -25.2
      vertex 1 -6.7375 -16
      vertex -5 -6.7375 1
    endloop
  endfacet
  facet normal 0 -1 0
    outer loop
      vertex 88.5 -6.7375 -16
      vertex 94.5 -6.7375 1
      vertex 88.5 -6.7375 1
    endloop
  endfacet
  facet normal 0 -1 0
    outer loop
      vertex 88.5 -6.7375 -16
      vertex 94.5 -6.7375 -25.2
      vertex 94.5 -6.7375 1
    endloop
  endfacet
  facet normal 0 -1 0
    outer loop
      vertex 94.5 -6.7375 -25.2
      vertex 88.5 -6.7375 -16
      vertex -5 -6.7375 -25.2
    endloop
  endfacet
  facet normal 0 1 0
    outer loop
      vertex 94.5 26.7375 1
      vertex 88.5 26.7375 -23.5
      vertex 88.5 26.7375 1
    endloop
  endfacet
  facet normal 0 1 0
    outer loop
      vertex 88.5 26.7375 -23.5
      vertex 94.5 26.7375 -25.2
      vertex 1 26.7375 -23.5
    endloop
  endfacet
  facet normal 0 1 -0
    outer loop
      vertex 94.5 26.7375 -25.2
      vertex 88.5 26.7375 -23.5
      vertex 94.5 26.7375 1
    endloop
  endfacet
  facet normal 0 1 -0
    outer loop
      vertex 1 26.7375 -23.5
      vertex -5 26.7375 1
      vertex 1 26.7375 1
    endloop
  endfacet
  facet normal 0 1 0
    outer loop
      vertex 1 26.7375 -23.5
      vertex -5 26.7375 -25.2
      vertex -5 26.7375 1
    endloop
  endfacet
  facet normal 0 1 0
    outer loop
      vertex -5 26.7375 -25.2
      vertex 1 26.7375 -23.5
      vertex 94.5 26.7375 -25.2
    endloop
  endfacet
  facet normal 0 0 1
    outer loop
      vertex 1 26.7375 1
      vertex 0 25.5 1
      vertex 1 25.5 1
    endloop
  endfacet
  facet normal -0 0 1
    outer loop
      vertex -1.28125 19.9 1
      vertex 0 9.5 1
      vertex 0 25.5 1
    endloop
  endfacet
  facet normal -0 0 1
    outer loop
      vertex -1.28125 12.1 1
      vertex 0 9.5 1
      vertex -1.28125 19.9 1
    endloop
  endfacet
  facet normal 0 0 1
    outer loop
      vertex -1.11875 -0.42 1
      vertex 0 7.5 1
      vertex -1.11875 8.42 1
    endloop
  endfacet
  facet normal 0 0 1
    outer loop
      vertex 0 7.5 1
      vertex -1.11875 -0.42 1
      vertex -0.5 0.00999928 1
    endloop
  endfacet
  facet normal 0 0 1
    outer loop
      vertex 0 7.5 1
      vertex -0.5 0.00999928 1
      vertex 0 0.00999928 1
    endloop
  endfacet
  facet normal 0 -0 1
    outer loop
      vertex -1.11875 8.42 1
      vertex 0 9.5 1
      vertex -1.28125 12.1 1
    endloop
  endfacet
  facet normal 0 0 1
    outer loop
      vertex 0 25.5 1
      vertex -3.71875 19.9 1
      vertex -1.28125 19.9 1
    endloop
  endfacet
  facet normal 0 0 1
    outer loop
      vertex -5 26.7375 1
      vertex -3.71875 12.1 1
      vertex -3.71875 19.9 1
    endloop
  endfacet
  facet normal 0 0 1
    outer loop
      vertex -5 -6.7375 1
      vertex -3.88125 8.42 1
      vertex -5 26.7375 1
    endloop
  endfacet
  facet normal 0 0 1
    outer loop
      vertex -3.71875 12.1 1
      vertex -5 26.7375 1
      vertex -3.88125 8.42 1
    endloop
  endfacet
  facet normal 0 0 1
    outer loop
      vertex 0 25.5 1
      vertex -5 26.7375 1
      vertex -3.71875 19.9 1
    endloop
  endfacet
  facet normal -0 0 1
    outer loop
      vertex -5 26.7375 1
      vertex 0 25.5 1
      vertex 1 26.7375 1
    endloop
  endfacet
  facet normal -0 0 1
    outer loop
      vertex 0 9.5 1
      vertex 1 7.5 1
      vertex 1 9.5 1
    endloop
  endfacet
  facet normal 0 0 1
    outer loop
      vertex 1 7.5 1
      vertex 0 9.5 1
      vertex 0 7.5 1
    endloop
  endfacet
  facet normal -0 0 1
    outer loop
      vertex -0.5 -3.475 1
      vertex 1 -6.7375 1
      vertex 1 -3.475 1
    endloop
  endfacet
  facet normal 0 0 1
    outer loop
      vertex -0.5 0.00999928 1
      vertex -1.11875 -0.42 1
      vertex -0.5 -3.475 1
    endloop
  endfacet
  facet normal -0 0 1
    outer loop
      vertex -3.88125 -0.42 1
      vertex -0.5 -3.475 1
      vertex -1.11875 -0.42 1
    endloop
  endfacet
  facet normal 0 0 1
    outer loop
      vertex -5 -6.7375 1
      vertex -0.5 -3.475 1
      vertex -3.88125 -0.42 1
    endloop
  endfacet
  facet normal 0 0 1
    outer loop
      vertex -0.5 -3.475 1
      vertex -5 -6.7375 1
      vertex 1 -6.7375 1
    endloop
  endfacet
  facet normal 0 0 1
    outer loop
      vertex -3.88125 8.42 1
      vertex -5 -6.7375 1
      vertex -3.88125 -0.42 1
    endloop
  endfacet
  facet normal 0 0 1
    outer loop
      vertex 0 9.5 1
      vertex -1.11875 8.42 1
      vertex 0 7.5 1
    endloop
  endfacet
  facet normal -0 0 1
    outer loop
      vertex -3.71875 12.1 1
      vertex -1.11875 8.42 1
      vertex -1.28125 12.1 1
    endloop
  endfacet
  facet normal 0 0 1
    outer loop
      vertex -1.11875 8.42 1
      vertex -3.71875 12.1 1
      vertex -3.88125 8.42 1
    endloop
  endfacet
  facet normal -0 0 1
    outer loop
      vertex 88.5 9.5 1
      vertex 89.5 7.5 1
      vertex 89.5 9.5 1
    endloop
  endfacet
  facet normal 0 0 1
    outer loop
      vertex 89.5 7.5 1
      vertex 88.5 9.5 1
      vertex 88.5 7.5 1
    endloop
  endfacet
  facet normal 0 0 1
    outer loop
      vertex 89.5 7.5 1
      vertex 90.7812 7.9 1
      vertex 89.5 9.5 1
    endloop
  endfacet
  facet normal 0 0 1
    outer loop
      vertex 90.7812 7.9 1
      vertex 89.5 7.5 1
      vertex 90 0.00999928 1
    endloop
  endfacet
  facet normal 0 0 1
    outer loop
      vertex 90 0.00999928 1
      vertex 89.5 7.5 1
      vertex 89.5 0.00999928 1
    endloop
  endfacet
  facet normal 0 0 1
    outer loop
      vertex 93.3812 11.58 1
      vertex 90.7812 7.9 1
      vertex 93.2188 7.9 1
    endloop
  endfacet
  facet normal -0 0 1
    outer loop
      vertex 89.5 9.5 1
      vertex 90.7812 7.9 1
      vertex 90.6188 11.58 1
    endloop
  endfacet
  facet normal -0 0 1
    outer loop
      vertex 90.6188 11.58 1
      vertex 90.7812 7.9 1
      vertex 93.3812 11.58 1
    endloop
  endfacet
  facet normal 0 0 1
    outer loop
      vertex 93.3812 11.58 1
      vertex 94.5 26.7375 1
      vertex 93.3812 20.42 1
    endloop
  endfacet
  facet normal -0 0 1
    outer loop
      vertex 89.5 25.5 1
      vertex 93.3812 20.42 1
      vertex 94.5 26.7375 1
    endloop
  endfacet
  facet normal 0 0 1
    outer loop
      vertex 89.5 9.5 1
      vertex 90.6188 20.42 1
      vertex 89.5 25.5 1
    endloop
  endfacet
  facet normal 0 0 1
    outer loop
      vertex 90.6188 20.42 1
      vertex 89.5 9.5 1
      vertex 90.6188 11.58 1
    endloop
  endfacet
  facet normal 0 0 1
    outer loop
      vertex 93.3812 20.42 1
      vertex 89.5 25.5 1
      vertex 90.6188 20.42 1
    endloop
  endfacet
  facet normal -0 0 1
    outer loop
      vertex 88.5 26.7375 1
      vertex 89.5 25.5 1
      vertex 94.5 26.7375 1
    endloop
  endfacet
  facet normal 0 0 1
    outer loop
      vertex 89.5 25.5 1
      vertex 88.5 26.7375 1
      vertex 88.5 25.5 1
    endloop
  endfacet
  facet normal 0 0 1
    outer loop
      vertex 94.5 26.7375 1
      vertex 93.3812 11.58 1
      vertex 94.5 -6.7375 1
    endloop
  endfacet
  facet normal -0 0 1
    outer loop
      vertex 93.2188 7.9 1
      vertex 94.5 -6.7375 1
      vertex 93.3812 11.58 1
    endloop
  endfacet
  facet normal -0 0 1
    outer loop
      vertex 93.2188 0.0999999 1
      vertex 94.5 -6.7375 1
      vertex 93.2188 7.9 1
    endloop
  endfacet
  facet normal 0 0 1
    outer loop
      vertex 90 -3.475 1
      vertex 93.2188 0.0999999 1
      vertex 90.7812 0.0999999 1
    endloop
  endfacet
  facet normal 0 0 1
    outer loop
      vertex 90.7812 7.9 1
      vertex 90 0.00999928 1
      vertex 90.7812 0.0999999 1
    endloop
  endfacet
  facet normal 0 0 1
    outer loop
      vertex 90 -3.475 1
      vertex 90.7812 0.0999999 1
      vertex 90 0.00999928 1
    endloop
  endfacet
  facet normal 0 0 1
    outer loop
      vertex 93.2188 0.0999999 1
      vertex 90 -3.475 1
      vertex 94.5 -6.7375 1
    endloop
  endfacet
  facet normal 0 0 1
    outer loop
      vertex 88.5 -6.7375 1
      vertex 90 -3.475 1
      vertex 88.5 -3.475 1
    endloop
  endfacet
  facet normal 0 0 1
    outer loop
      vertex 90 -3.475 1
      vertex 88.5 -6.7375 1
      vertex 94.5 -6.7375 1
    endloop
  endfacet
  facet normal 0 -0.995037 -0.0995037
    outer loop
      vertex -4.0125 8.84 -3.2
      vertex -1.11875 8.42 1
      vertex -3.88125 8.42 1
    endloop
  endfacet
  facet normal 0 -0.995037 -0.0995037
    outer loop
      vertex -1.11875 8.42 1
      vertex -4.0125 8.84 -3.2
      vertex -0.987499 8.84 -3.2
    endloop
  endfacet
  facet normal -0.999512 0 -0.0312349
    outer loop
      vertex -0.987499 8.84 -3.2
      vertex -1.11875 -0.42 1
      vertex -1.11875 8.42 1
    endloop
  endfacet
  facet normal -0.999512 0 -0.0312349
    outer loop
      vertex -1.11875 -0.42 1
      vertex -0.987499 8.84 -3.2
      vertex -0.987499 -0.839999 -3.2
    endloop
  endfacet
  facet normal 0.999512 0 -0.0312347
    outer loop
      vertex -3.88125 -0.42 1
      vertex -4.0125 8.84 -3.2
      vertex -3.88125 8.42 1
    endloop
  endfacet
  facet normal 0.999512 0 -0.0312347
    outer loop
      vertex -4.0125 8.84 -3.2
      vertex -3.88125 -0.42 1
      vertex -4.0125 -0.839999 -3.2
    endloop
  endfacet
  facet normal -0 0 1
    outer loop
      vertex -4.0125 8.84 -3.2
      vertex -0.987499 -0.839999 -3.2
      vertex -0.987499 8.84 -3.2
    endloop
  endfacet
  facet normal 0 0 1
    outer loop
      vertex -0.987499 -0.839999 -3.2
      vertex -4.0125 8.84 -3.2
      vertex -4.0125 -0.839999 -3.2
    endloop
  endfacet
  facet normal 0 0.995037 -0.0995036
    outer loop
      vertex -0.987499 -0.839999 -3.2
      vertex -3.88125 -0.42 1
      vertex -1.11875 -0.42 1
    endloop
  endfacet
  facet normal 0 0.995037 -0.0995036
    outer loop
      vertex -3.88125 -0.42 1
      vertex -0.987499 -0.839999 -3.2
      vertex -4.0125 -0.839999 -3.2
    endloop
  endfacet
  facet normal 0 -0.995037 -0.0995037
    outer loop
      vertex 90.4875 20.84 -3.2
      vertex 93.3812 20.42 1
      vertex 90.6188 20.42 1
    endloop
  endfacet
  facet normal 0 -0.995037 -0.0995037
    outer loop
      vertex 93.3812 20.42 1
      vertex 90.4875 20.84 -3.2
      vertex 93.5125 20.84 -3.2
    endloop
  endfacet
  facet normal -0.999512 0 -0.0312344
    outer loop
      vertex 93.5125 20.84 -3.2
      vertex 93.3812 11.58 1
      vertex 93.3812 20.42 1
    endloop
  endfacet
  facet normal -0.999512 0 -0.0312344
    outer loop
      vertex 93.3812 11.58 1
      vertex 93.5125 20.84 -3.2
      vertex 93.5125 11.16 -3.2
    endloop
  endfacet
  facet normal 0.999512 0 -0.0312344
    outer loop
      vertex 90.6188 11.58 1
      vertex 90.4875 20.84 -3.2
      vertex 90.6188 20.42 1
    endloop
  endfacet
  facet normal 0.999512 0 -0.0312344
    outer loop
      vertex 90.4875 20.84 -3.2
      vertex 90.6188 11.58 1
      vertex 90.4875 11.16 -3.2
    endloop
  endfacet
  facet normal -0 0 1
    outer loop
      vertex 90.4875 20.84 -3.2
      vertex 93.5125 11.16 -3.2
      vertex 93.5125 20.84 -3.2
    endloop
  endfacet
  facet normal 0 0 1
    outer loop
      vertex 93.5125 11.16 -3.2
      vertex 90.4875 20.84 -3.2
      vertex 90.4875 11.16 -3.2
    endloop
  endfacet
  facet normal 0 0.995037 -0.0995037
    outer loop
      vertex 93.5125 11.16 -3.2
      vertex 90.6188 11.58 1
      vertex 93.3812 11.58 1
    endloop
  endfacet
  facet normal 0 0.995037 -0.0995037
    outer loop
      vertex 90.6188 11.58 1
      vertex 93.5125 11.16 -3.2
      vertex 90.4875 11.16 -3.2
    endloop
  endfacet
endsolid OpenSCAD_Model
