solid OpenSCAD_Model
  facet normal -0.998053 0 0.0623783
    outer loop
      vertex -3.71875 24.875 1
      vertex -3.5 16 4.5
      vertex -3.5 24 4.5
    endloop
  endfacet
  facet normal -0.998053 0 0.0623783
    outer loop
      vertex -3.5 16 4.5
      vertex -3.71875 24.875 1
      vertex -3.71875 15.125 1
    endloop
  endfacet
  facet normal 0.998053 -0 0.0623783
    outer loop
      vertex -1.5 16 4.5
      vertex -1.28125 24.875 1
      vertex -1.5 24 4.5
    endloop
  endfacet
  facet normal 0.998053 0 0.0623783
    outer loop
      vertex -1.28125 24.875 1
      vertex -1.5 16 4.5
      vertex -1.28125 15.125 1
    endloop
  endfacet
  facet normal 0 0.970143 0.242536
    outer loop
      vertex -1.28125 24.875 1
      vertex -3.5 24 4.5
      vertex -1.5 24 4.5
    endloop
  endfacet
  facet normal 0 0.970143 0.242536
    outer loop
      vertex -3.5 24 4.5
      vertex -1.28125 24.875 1
      vertex -3.71875 24.875 1
    endloop
  endfacet
  facet normal 0 -0.970143 0.242536
    outer loop
      vertex -3.71875 15.125 1
      vertex -1.5 16 4.5
      vertex -3.5 16 4.5
    endloop
  endfacet
  facet normal 0 -0.970143 0.242536
    outer loop
      vertex -1.5 16 4.5
      vertex -3.71875 15.125 1
      vertex -1.28125 15.125 1
    endloop
  endfacet
  facet normal -0 0 1
    outer loop
      vertex -3.5 24 4.5
      vertex -1.5 16 4.5
      vertex -1.5 24 4.5
    endloop
  endfacet
  facet normal 0 0 1
    outer loop
      vertex -1.5 16 4.5
      vertex -3.5 24 4.5
      vertex -3.5 16 4.5
    endloop
  endfacet
  facet normal -0.998053 0 0.0623783
    outer loop
      vertex 87.7812 9.875 1
      vertex 88 1 4.5
      vertex 88 9 4.5
    endloop
  endfacet
  facet normal -0.998053 0 0.0623783
    outer loop
      vertex 88 1 4.5
      vertex 87.7812 9.875 1
      vertex 87.7812 0.125 1
    endloop
  endfacet
  facet normal 0.998053 -0 0.0623783
    outer loop
      vertex 90 1 4.5
      vertex 90.2188 9.875 1
      vertex 90 9 4.5
    endloop
  endfacet
  facet normal 0.998053 0 0.0623783
    outer loop
      vertex 90.2188 9.875 1
      vertex 90 1 4.5
      vertex 90.2188 0.125 1
    endloop
  endfacet
  facet normal -0 0 1
    outer loop
      vertex 88 9 4.5
      vertex 90 1 4.5
      vertex 90 9 4.5
    endloop
  endfacet
  facet normal 0 0 1
    outer loop
      vertex 90 1 4.5
      vertex 88 9 4.5
      vertex 88 1 4.5
    endloop
  endfacet
  facet normal 0 0.970143 0.242536
    outer loop
      vertex 90.2188 9.875 1
      vertex 88 9 4.5
      vertex 90 9 4.5
    endloop
  endfacet
  facet normal 0 0.970143 0.242536
    outer loop
      vertex 88 9 4.5
      vertex 90.2188 9.875 1
      vertex 87.7812 9.875 1
    endloop
  endfacet
  facet normal 0 -0.970143 0.242536
    outer loop
      vertex 87.7812 0.125 1
      vertex 90 1 4.5
      vertex 88 1 4.5
    endloop
  endfacet
  facet normal 0 -0.970143 0.242536
    outer loop
      vertex 90 1 4.5
      vertex 87.7812 0.125 1
      vertex 90.2188 0.125 1
    endloop
  endfacet
  facet normal -0.998053 0 0.0623783
    outer loop
      vertex 87.7812 39.875 1
      vertex 88 31 4.5
      vertex 88 39 4.5
    endloop
  endfacet
  facet normal -0.998053 0 0.0623783
    outer loop
      vertex 88 31 4.5
      vertex 87.7812 39.875 1
      vertex 87.7812 30.125 1
    endloop
  endfacet
  facet normal 0.998053 -0 0.0623783
    outer loop
      vertex 90 31 4.5
      vertex 90.2188 39.875 1
      vertex 90 39 4.5
    endloop
  endfacet
  facet normal 0.998053 0 0.0623783
    outer loop
      vertex 90.2188 39.875 1
      vertex 90 31 4.5
      vertex 90.2188 30.125 1
    endloop
  endfacet
  facet normal 0 -0.970143 0.242536
    outer loop
      vertex 87.7812 30.125 1
      vertex 90 31 4.5
      vertex 88 31 4.5
    endloop
  endfacet
  facet normal 0 -0.970143 0.242536
    outer loop
      vertex 90 31 4.5
      vertex 87.7812 30.125 1
      vertex 90.2188 30.125 1
    endloop
  endfacet
  facet normal -0 0 1
    outer loop
      vertex 88 39 4.5
      vertex 90 31 4.5
      vertex 90 39 4.5
    endloop
  endfacet
  facet normal 0 0 1
    outer loop
      vertex 90 31 4.5
      vertex 88 39 4.5
      vertex 88 31 4.5
    endloop
  endfacet
  facet normal 0 0.970143 0.242536
    outer loop
      vertex 90.2188 39.875 1
      vertex 88 39 4.5
      vertex 90 39 4.5
    endloop
  endfacet
  facet normal 0 0.970143 0.242536
    outer loop
      vertex 88 39 4.5
      vertex 90.2188 39.875 1
      vertex 87.7812 39.875 1
    endloop
  endfacet
  facet normal 0.998053 0 0.0623783
    outer loop
      vertex -3.82875 10.315 1
      vertex -3.57 0.719999 -3.14
      vertex -3.57 9.28 -3.14
    endloop
  endfacet
  facet normal 0.998053 0 0.0623783
    outer loop
      vertex -3.57 0.719999 -3.14
      vertex -3.82875 10.315 1
      vertex -3.82875 -0.315 1
    endloop
  endfacet
  facet normal -0.998053 0 0.0623783
    outer loop
      vertex -1.43 0.719999 -3.14
      vertex -1.17125 10.315 1
      vertex -1.43 9.28 -3.14
    endloop
  endfacet
  facet normal -0.998053 0 0.0623783
    outer loop
      vertex -1.17125 10.315 1
      vertex -1.43 0.719999 -3.14
      vertex -1.17125 -0.315 1
    endloop
  endfacet
  facet normal -0 0 1
    outer loop
      vertex -3.57 9.28 -3.14
      vertex -1.43 0.719999 -3.14
      vertex -1.43 9.28 -3.14
    endloop
  endfacet
  facet normal 0 0 1
    outer loop
      vertex -1.43 0.719999 -3.14
      vertex -3.57 9.28 -3.14
      vertex -3.57 0.719999 -3.14
    endloop
  endfacet
  facet normal 0 0.970143 0.242535
    outer loop
      vertex -1.43 0.719999 -3.14
      vertex -3.82875 -0.315 1
      vertex -1.17125 -0.315 1
    endloop
  endfacet
  facet normal 0 0.970143 0.242535
    outer loop
      vertex -3.82875 -0.315 1
      vertex -1.43 0.719999 -3.14
      vertex -3.57 0.719999 -3.14
    endloop
  endfacet
  facet normal 0 -0.970143 0.242536
    outer loop
      vertex -3.57 9.28 -3.14
      vertex -1.17125 10.315 1
      vertex -3.82875 10.315 1
    endloop
  endfacet
  facet normal 0 -0.970143 0.242536
    outer loop
      vertex -1.17125 10.315 1
      vertex -3.57 9.28 -3.14
      vertex -1.43 9.28 -3.14
    endloop
  endfacet
  facet normal 0.998053 0 0.0623785
    outer loop
      vertex 87.6712 25.315 1
      vertex 87.93 15.72 -3.14
      vertex 87.93 24.28 -3.14
    endloop
  endfacet
  facet normal 0.998053 0 0.0623785
    outer loop
      vertex 87.93 15.72 -3.14
      vertex 87.6712 25.315 1
      vertex 87.6712 14.685 1
    endloop
  endfacet
  facet normal -0.998053 0 0.0623785
    outer loop
      vertex 90.07 15.72 -3.14
      vertex 90.3288 25.315 1
      vertex 90.07 24.28 -3.14
    endloop
  endfacet
  facet normal -0.998053 0 0.0623785
    outer loop
      vertex 90.3288 25.315 1
      vertex 90.07 15.72 -3.14
      vertex 90.3288 14.685 1
    endloop
  endfacet
  facet normal -0 0 1
    outer loop
      vertex 87.93 24.28 -3.14
      vertex 90.07 15.72 -3.14
      vertex 90.07 24.28 -3.14
    endloop
  endfacet
  facet normal 0 0 1
    outer loop
      vertex 90.07 15.72 -3.14
      vertex 87.93 24.28 -3.14
      vertex 87.93 15.72 -3.14
    endloop
  endfacet
  facet normal 0 0.970143 0.242536
    outer loop
      vertex 90.07 15.72 -3.14
      vertex 87.6712 14.685 1
      vertex 90.3288 14.685 1
    endloop
  endfacet
  facet normal 0 0.970143 0.242536
    outer loop
      vertex 87.6712 14.685 1
      vertex 90.07 15.72 -3.14
      vertex 87.93 15.72 -3.14
    endloop
  endfacet
  facet normal 0 -0.970143 0.242536
    outer loop
      vertex 87.93 24.28 -3.14
      vertex 90.3288 25.315 1
      vertex 87.6712 25.315 1
    endloop
  endfacet
  facet normal 0 -0.970143 0.242536
    outer loop
      vertex 90.3288 25.315 1
      vertex 87.93 24.28 -3.14
      vertex 90.07 24.28 -3.14
    endloop
  endfacet
  facet normal 0.998053 0 0.0623783
    outer loop
      vertex -3.82875 40.315 1
      vertex -3.57 30.72 -3.14
      vertex -3.57 39.28 -3.14
    endloop
  endfacet
  facet normal 0.998053 0 0.0623783
    outer loop
      vertex -3.57 30.72 -3.14
      vertex -3.82875 40.315 1
      vertex -3.82875 29.685 1
    endloop
  endfacet
  facet normal -0.998053 0 0.0623783
    outer loop
      vertex -1.43 30.72 -3.14
      vertex -1.17125 40.315 1
      vertex -1.43 39.28 -3.14
    endloop
  endfacet
  facet normal -0.998053 0 0.0623783
    outer loop
      vertex -1.17125 40.315 1
      vertex -1.43 30.72 -3.14
      vertex -1.17125 29.685 1
    endloop
  endfacet
  facet normal 0 0.970143 0.242536
    outer loop
      vertex -1.43 30.72 -3.14
      vertex -3.82875 29.685 1
      vertex -1.17125 29.685 1
    endloop
  endfacet
  facet normal 0 0.970143 0.242536
    outer loop
      vertex -3.82875 29.685 1
      vertex -1.43 30.72 -3.14
      vertex -3.57 30.72 -3.14
    endloop
  endfacet
  facet normal 0 -0.970143 0.242536
    outer loop
      vertex -3.57 39.28 -3.14
      vertex -1.17125 40.315 1
      vertex -3.82875 40.315 1
    endloop
  endfacet
  facet normal 0 -0.970143 0.242536
    outer loop
      vertex -1.17125 40.315 1
      vertex -3.57 39.28 -3.14
      vertex -1.43 39.28 -3.14
    endloop
  endfacet
  facet normal -0 0 1
    outer loop
      vertex -3.57 39.28 -3.14
      vertex -1.43 30.72 -3.14
      vertex -1.43 39.28 -3.14
    endloop
  endfacet
  facet normal 0 0 1
    outer loop
      vertex -1.43 30.72 -3.14
      vertex -3.57 39.28 -3.14
      vertex -3.57 30.72 -3.14
    endloop
  endfacet
  facet normal 1 -0 0
    outer loop
      vertex 0 9.5 1
      vertex 0 42.025 -23.5
      vertex 0 42.025 1
    endloop
  endfacet
  facet normal 1 0 0
    outer loop
      vertex 0 42.025 -23.5
      vertex 0 9.5 1
      vertex 0 9.5 -23.5
    endloop
  endfacet
  facet normal -1 0 0
    outer loop
      vertex 86.5 9.5 -23.5
      vertex 86.5 42.025 1
      vertex 86.5 42.025 -23.5
    endloop
  endfacet
  facet normal -1 -0 0
    outer loop
      vertex 86.5 42.025 1
      vertex 86.5 9.5 -23.5
      vertex 86.5 9.5 1
    endloop
  endfacet
  facet normal 0 -1 0
    outer loop
      vertex 0 42.025 1
      vertex 1.59607 42.025 -15.4755
      vertex 1.59607 42.025 1
    endloop
  endfacet
  facet normal 0 -1 -0
    outer loop
      vertex 5.52455 42.025 -19.4039
      vertex 0 42.025 -23.5
      vertex 80.9754 42.025 -19.4039
    endloop
  endfacet
  facet normal 0 -1 -0
    outer loop
      vertex 3.72215 42.025 -18.6573
      vertex 0 42.025 -23.5
      vertex 5.52455 42.025 -19.4039
    endloop
  endfacet
  facet normal 0 -1 -0
    outer loop
      vertex 2.34265 42.025 -17.2779
      vertex 0 42.025 -23.5
      vertex 3.72215 42.025 -18.6573
    endloop
  endfacet
  facet normal 0 -1 -0
    outer loop
      vertex 1.59607 42.025 -15.4755
      vertex 0 42.025 -23.5
      vertex 2.34265 42.025 -17.2779
    endloop
  endfacet
  facet normal 0 -1 0
    outer loop
      vertex 0 42.025 -23.5
      vertex 1.59607 42.025 -15.4755
      vertex 0 42.025 1
    endloop
  endfacet
  facet normal 0 -1 0
    outer loop
      vertex 84.9039 42.025 -15.4755
      vertex 86.5 42.025 1
      vertex 84.9039 42.025 1
    endloop
  endfacet
  facet normal 0 -1 0
    outer loop
      vertex 84.9039 42.025 -15.4755
      vertex 86.5 42.025 -23.5
      vertex 86.5 42.025 1
    endloop
  endfacet
  facet normal 0 -1 0
    outer loop
      vertex 84.1573 42.025 -17.2779
      vertex 86.5 42.025 -23.5
      vertex 84.9039 42.025 -15.4755
    endloop
  endfacet
  facet normal 0 -1 0
    outer loop
      vertex 82.7778 42.025 -18.6573
      vertex 86.5 42.025 -23.5
      vertex 84.1573 42.025 -17.2779
    endloop
  endfacet
  facet normal 0 -1 0
    outer loop
      vertex 80.9754 42.025 -19.4039
      vertex 86.5 42.025 -23.5
      vertex 82.7778 42.025 -18.6573
    endloop
  endfacet
  facet normal 0 -1 0
    outer loop
      vertex 86.5 42.025 -23.5
      vertex 80.9754 42.025 -19.4039
      vertex 0 42.025 -23.5
    endloop
  endfacet
  facet normal -0 0 1
    outer loop
      vertex 0 42.025 -23.5
      vertex 86.5 9.5 -23.5
      vertex 86.5 42.025 -23.5
    endloop
  endfacet
  facet normal 0 0 1
    outer loop
      vertex 86.5 9.5 -23.5
      vertex 0 42.025 -23.5
      vertex 0 9.5 -23.5
    endloop
  endfacet
  facet normal 0 1 0
    outer loop
      vertex 86.5 9.5 1
      vertex 84.9039 9.5 -15.4755
      vertex 84.9039 9.5 1
    endloop
  endfacet
  facet normal 0 1 0
    outer loop
      vertex 86.5 9.5 -23.5
      vertex 83.5 9.5 -17.9352
      vertex 84.1573 9.5 -17.2779
    endloop
  endfacet
  facet normal 0 1 0
    outer loop
      vertex 86.5 9.5 -23.5
      vertex 84.1573 9.5 -17.2779
      vertex 84.9039 9.5 -15.4755
    endloop
  endfacet
  facet normal 0 1 0
    outer loop
      vertex 83.5 9.5 -22.5
      vertex 86.5 9.5 -23.5
      vertex 3 9.5 -22.5
    endloop
  endfacet
  facet normal 0 1 0
    outer loop
      vertex 83.5 9.5 -17.9352
      vertex 86.5 9.5 -23.5
      vertex 83.5 9.5 -22.5
    endloop
  endfacet
  facet normal 0 1 -0
    outer loop
      vertex 86.5 9.5 -23.5
      vertex 84.9039 9.5 -15.4755
      vertex 86.5 9.5 1
    endloop
  endfacet
  facet normal 0 1 -0
    outer loop
      vertex 1.59607 9.5 -15.4755
      vertex 0 9.5 1
      vertex 1.59607 9.5 1
    endloop
  endfacet
  facet normal 0 1 0
    outer loop
      vertex 0 9.5 -23.5
      vertex 3 9.5 -17.9352
      vertex 3 9.5 -22.5
    endloop
  endfacet
  facet normal 0 1 0
    outer loop
      vertex 3 9.5 -17.9352
      vertex 0 9.5 -23.5
      vertex 2.34265 9.5 -17.2779
    endloop
  endfacet
  facet normal 0 1 0
    outer loop
      vertex 1.59607 9.5 -15.4755
      vertex 0 9.5 -23.5
      vertex 0 9.5 1
    endloop
  endfacet
  facet normal 0 1 0
    outer loop
      vertex 2.34265 9.5 -17.2779
      vertex 0 9.5 -23.5
      vertex 1.59607 9.5 -15.4755
    endloop
  endfacet
  facet normal 0 1 0
    outer loop
      vertex 0 9.5 -23.5
      vertex 3 9.5 -22.5
      vertex 86.5 9.5 -23.5
    endloop
  endfacet
  facet normal 1 -0 0
    outer loop
      vertex 3 7.5 -17.9352
      vertex 3 9.5 -22.5
      vertex 3 9.5 -17.9352
    endloop
  endfacet
  facet normal 1 0 0
    outer loop
      vertex 3 9.5 -22.5
      vertex 3 7.5 -17.9352
      vertex 3 7.5 -22.5
    endloop
  endfacet
  facet normal -1 0 0
    outer loop
      vertex 83.5 7.5 -22.5
      vertex 83.5 9.5 -17.9352
      vertex 83.5 9.5 -22.5
    endloop
  endfacet
  facet normal -1 -0 0
    outer loop
      vertex 83.5 9.5 -17.9352
      vertex 83.5 7.5 -22.5
      vertex 83.5 7.5 -17.9352
    endloop
  endfacet
  facet normal -0 0 1
    outer loop
      vertex 3 9.5 -22.5
      vertex 83.5 7.5 -22.5
      vertex 83.5 9.5 -22.5
    endloop
  endfacet
  facet normal 0 0 1
    outer loop
      vertex 83.5 7.5 -22.5
      vertex 3 9.5 -22.5
      vertex 3 7.5 -22.5
    endloop
  endfacet
  facet normal -1 0 0
    outer loop
      vertex 86.5 -3.475 -23.5
      vertex 86.5 7.5 1
      vertex 86.5 7.5 -23.5
    endloop
  endfacet
  facet normal -1 -0 0
    outer loop
      vertex 86.5 7.5 1
      vertex 86.5 -3.475 -23.5
      vertex 86.5 -3.475 1
    endloop
  endfacet
  facet normal 0 -1 0
    outer loop
      vertex 0 7.5 1
      vertex 1.59607 7.5 -15.4755
      vertex 1.59607 7.5 1
    endloop
  endfacet
  facet normal 0 -1 0
    outer loop
      vertex 0 7.5 -23.5
      vertex 3 7.5 -17.9352
      vertex 2.34265 7.5 -17.2779
    endloop
  endfacet
  facet normal 0 -1 0
    outer loop
      vertex 0 7.5 -23.5
      vertex 2.34265 7.5 -17.2779
      vertex 1.59607 7.5 -15.4755
    endloop
  endfacet
  facet normal 0 -1 -0
    outer loop
      vertex 3 7.5 -22.5
      vertex 0 7.5 -23.5
      vertex 83.5 7.5 -22.5
    endloop
  endfacet
  facet normal 0 -1 -0
    outer loop
      vertex 3 7.5 -17.9352
      vertex 0 7.5 -23.5
      vertex 3 7.5 -22.5
    endloop
  endfacet
  facet normal 0 -1 0
    outer loop
      vertex 0 7.5 -23.5
      vertex 1.59607 7.5 -15.4755
      vertex 0 7.5 1
    endloop
  endfacet
  facet normal 0 -1 0
    outer loop
      vertex 84.9039 7.5 -15.4755
      vertex 86.5 7.5 1
      vertex 84.9039 7.5 1
    endloop
  endfacet
  facet normal 0 -1 0
    outer loop
      vertex 86.5 7.5 -23.5
      vertex 83.5 7.5 -17.9352
      vertex 83.5 7.5 -22.5
    endloop
  endfacet
  facet normal 0 -1 0
    outer loop
      vertex 83.5 7.5 -17.9352
      vertex 86.5 7.5 -23.5
      vertex 84.1573 7.5 -17.2779
    endloop
  endfacet
  facet normal 0 -1 0
    outer loop
      vertex 84.9039 7.5 -15.4755
      vertex 86.5 7.5 -23.5
      vertex 86.5 7.5 1
    endloop
  endfacet
  facet normal 0 -1 0
    outer loop
      vertex 84.1573 7.5 -17.2779
      vertex 86.5 7.5 -23.5
      vertex 84.9039 7.5 -15.4755
    endloop
  endfacet
  facet normal 0 -1 0
    outer loop
      vertex 86.5 7.5 -23.5
      vertex 83.5 7.5 -22.5
      vertex 0 7.5 -23.5
    endloop
  endfacet
  facet normal 1 -0 0
    outer loop
      vertex 0 -3.475 1
      vertex 0 7.5 -23.5
      vertex 0 7.5 1
    endloop
  endfacet
  facet normal 1 0 0
    outer loop
      vertex 0 7.5 -23.5
      vertex 0 -3.475 1
      vertex 0 -3.475 -23.5
    endloop
  endfacet
  facet normal -0 0 1
    outer loop
      vertex 0 7.5 -23.5
      vertex 86.5 -3.475 -23.5
      vertex 86.5 7.5 -23.5
    endloop
  endfacet
  facet normal 0 0 1
    outer loop
      vertex 86.5 -3.475 -23.5
      vertex 0 7.5 -23.5
      vertex 0 -3.475 -23.5
    endloop
  endfacet
  facet normal 0 1 0
    outer loop
      vertex 86.5 -3.475 1
      vertex 84.9039 -3.475 -15.4755
      vertex 84.9039 -3.475 1
    endloop
  endfacet
  facet normal 0 1 0
    outer loop
      vertex 80.9754 -3.475 -19.4039
      vertex 86.5 -3.475 -23.5
      vertex 5.52455 -3.475 -19.4039
    endloop
  endfacet
  facet normal 0 1 0
    outer loop
      vertex 82.7778 -3.475 -18.6573
      vertex 86.5 -3.475 -23.5
      vertex 80.9754 -3.475 -19.4039
    endloop
  endfacet
  facet normal 0 1 0
    outer loop
      vertex 84.1573 -3.475 -17.2779
      vertex 86.5 -3.475 -23.5
      vertex 82.7778 -3.475 -18.6573
    endloop
  endfacet
  facet normal 0 1 0
    outer loop
      vertex 84.9039 -3.475 -15.4755
      vertex 86.5 -3.475 -23.5
      vertex 84.1573 -3.475 -17.2779
    endloop
  endfacet
  facet normal 0 1 -0
    outer loop
      vertex 86.5 -3.475 -23.5
      vertex 84.9039 -3.475 -15.4755
      vertex 86.5 -3.475 1
    endloop
  endfacet
  facet normal 0 1 -0
    outer loop
      vertex 1.59607 -3.475 -15.4755
      vertex 0 -3.475 1
      vertex 1.59607 -3.475 1
    endloop
  endfacet
  facet normal 0 1 0
    outer loop
      vertex 1.59607 -3.475 -15.4755
      vertex 0 -3.475 -23.5
      vertex 0 -3.475 1
    endloop
  endfacet
  facet normal 0 1 0
    outer loop
      vertex 2.34265 -3.475 -17.2779
      vertex 0 -3.475 -23.5
      vertex 1.59607 -3.475 -15.4755
    endloop
  endfacet
  facet normal 0 1 0
    outer loop
      vertex 3.72215 -3.475 -18.6573
      vertex 0 -3.475 -23.5
      vertex 2.34265 -3.475 -17.2779
    endloop
  endfacet
  facet normal 0 1 0
    outer loop
      vertex 5.52455 -3.475 -19.4039
      vertex 0 -3.475 -23.5
      vertex 3.72215 -3.475 -18.6573
    endloop
  endfacet
  facet normal 0 1 0
    outer loop
      vertex 0 -3.475 -23.5
      vertex 5.52455 -3.475 -19.4039
      vertex 86.5 -3.475 -23.5
    endloop
  endfacet
  facet normal -1 0 0
    outer loop
      vertex 84.9039 42.025 -15.4755
      vertex 84.9039 44.9039 1
      vertex 84.9039 44.9039 -15.4755
    endloop
  endfacet
  facet normal -1 -0 0
    outer loop
      vertex 84.9039 44.9039 1
      vertex 84.9039 42.025 -15.4755
      vertex 84.9039 42.025 1
    endloop
  endfacet
  facet normal -1 0 0
    outer loop
      vertex 84.9039 7.5 -15.4755
      vertex 84.9039 9.5 1
      vertex 84.9039 9.5 -15.4755
    endloop
  endfacet
  facet normal -1 -0 0
    outer loop
      vertex 84.9039 9.5 1
      vertex 84.9039 7.5 -15.4755
      vertex 84.9039 7.5 1
    endloop
  endfacet
  facet normal -1 0 0
    outer loop
      vertex 84.9039 -4.90393 -15.4755
      vertex 84.9039 -3.475 1
      vertex 84.9039 -3.475 -15.4755
    endloop
  endfacet
  facet normal -1 -0 0
    outer loop
      vertex 84.9039 -3.475 1
      vertex 84.9039 -4.90393 -15.4755
      vertex 84.9039 -4.90393 1
    endloop
  endfacet
  facet normal 0.382683 0 0.92388
    outer loop
      vertex 3.72215 44.9039 -18.6573
      vertex 5.52455 42.025 -19.4039
      vertex 5.52455 44.9039 -19.4039
    endloop
  endfacet
  facet normal 0.382683 0 0.92388
    outer loop
      vertex 5.52455 42.025 -19.4039
      vertex 3.72215 44.9039 -18.6573
      vertex 3.72215 42.025 -18.6573
    endloop
  endfacet
  facet normal 0.382683 0 0.92388
    outer loop
      vertex 3.72215 -3.475 -18.6573
      vertex 5.52455 -4.90393 -19.4039
      vertex 5.52455 -3.475 -19.4039
    endloop
  endfacet
  facet normal 0.382683 0 0.92388
    outer loop
      vertex 5.52455 -4.90393 -19.4039
      vertex 3.72215 -3.475 -18.6573
      vertex 3.72215 -4.90393 -18.6573
    endloop
  endfacet
  facet normal 0.707107 -0 0.707107
    outer loop
      vertex 2.34265 42.025 -17.2779
      vertex 3.72215 44.9039 -18.6573
      vertex 2.34265 44.9039 -17.2779
    endloop
  endfacet
  facet normal 0.707107 0 0.707107
    outer loop
      vertex 3.72215 44.9039 -18.6573
      vertex 2.34265 42.025 -17.2779
      vertex 3.72215 42.025 -18.6573
    endloop
  endfacet
  facet normal 0.707107 -0 0.707106
    outer loop
      vertex 2.34265 7.5 -17.2779
      vertex 3 9.5 -17.9352
      vertex 2.34265 9.5 -17.2779
    endloop
  endfacet
  facet normal 0.707107 0 0.707106
    outer loop
      vertex 3 9.5 -17.9352
      vertex 2.34265 7.5 -17.2779
      vertex 3 7.5 -17.9352
    endloop
  endfacet
  facet normal 0.707107 -0 0.707107
    outer loop
      vertex 2.34265 -4.90393 -17.2779
      vertex 3.72215 -3.475 -18.6573
      vertex 2.34265 -3.475 -17.2779
    endloop
  endfacet
  facet normal 0.707107 0 0.707107
    outer loop
      vertex 3.72215 -3.475 -18.6573
      vertex 2.34265 -4.90393 -17.2779
      vertex 3.72215 -4.90393 -18.6573
    endloop
  endfacet
  facet normal -0.92388 0 0.382682
    outer loop
      vertex 84.1573 42.025 -17.2779
      vertex 84.9039 44.9039 -15.4755
      vertex 84.1573 44.9039 -17.2779
    endloop
  endfacet
  facet normal -0.92388 0 0.382682
    outer loop
      vertex 84.9039 44.9039 -15.4755
      vertex 84.1573 42.025 -17.2779
      vertex 84.9039 42.025 -15.4755
    endloop
  endfacet
  facet normal -0.92388 0 0.382682
    outer loop
      vertex 84.1573 7.5 -17.2779
      vertex 84.9039 9.5 -15.4755
      vertex 84.1573 9.5 -17.2779
    endloop
  endfacet
  facet normal -0.92388 0 0.382682
    outer loop
      vertex 84.9039 9.5 -15.4755
      vertex 84.1573 7.5 -17.2779
      vertex 84.9039 7.5 -15.4755
    endloop
  endfacet
  facet normal -0.92388 0 0.382682
    outer loop
      vertex 84.1573 -4.90393 -17.2779
      vertex 84.9039 -3.475 -15.4755
      vertex 84.1573 -3.475 -17.2779
    endloop
  endfacet
  facet normal -0.92388 0 0.382682
    outer loop
      vertex 84.9039 -3.475 -15.4755
      vertex 84.1573 -4.90393 -17.2779
      vertex 84.9039 -4.90393 -15.4755
    endloop
  endfacet
  facet normal -0 0 1
    outer loop
      vertex 5.52455 44.9039 -19.4039
      vertex 80.9754 42.025 -19.4039
      vertex 80.9754 44.9039 -19.4039
    endloop
  endfacet
  facet normal 0 0 1
    outer loop
      vertex 80.9754 42.025 -19.4039
      vertex 5.52455 44.9039 -19.4039
      vertex 5.52455 42.025 -19.4039
    endloop
  endfacet
  facet normal -0 0 1
    outer loop
      vertex 5.52455 -3.475 -19.4039
      vertex 80.9754 -4.90393 -19.4039
      vertex 80.9754 -3.475 -19.4039
    endloop
  endfacet
  facet normal 0 0 1
    outer loop
      vertex 80.9754 -4.90393 -19.4039
      vertex 5.52455 -3.475 -19.4039
      vertex 5.52455 -4.90393 -19.4039
    endloop
  endfacet
  facet normal 1 -0 0
    outer loop
      vertex 1.59607 42.025 1
      vertex 1.59607 44.9039 -15.4755
      vertex 1.59607 44.9039 1
    endloop
  endfacet
  facet normal 1 0 0
    outer loop
      vertex 1.59607 44.9039 -15.4755
      vertex 1.59607 42.025 1
      vertex 1.59607 42.025 -15.4755
    endloop
  endfacet
  facet normal 1 -0 0
    outer loop
      vertex 1.59607 7.5 1
      vertex 1.59607 9.5 -15.4755
      vertex 1.59607 9.5 1
    endloop
  endfacet
  facet normal 1 0 0
    outer loop
      vertex 1.59607 9.5 -15.4755
      vertex 1.59607 7.5 1
      vertex 1.59607 7.5 -15.4755
    endloop
  endfacet
  facet normal 1 -0 0
    outer loop
      vertex 1.59607 -4.90393 1
      vertex 1.59607 -3.475 -15.4755
      vertex 1.59607 -3.475 1
    endloop
  endfacet
  facet normal 1 0 0
    outer loop
      vertex 1.59607 -3.475 -15.4755
      vertex 1.59607 -4.90393 1
      vertex 1.59607 -4.90393 -15.4755
    endloop
  endfacet
  facet normal 0.92388 -0 0.382683
    outer loop
      vertex 1.59607 42.025 -15.4755
      vertex 2.34265 44.9039 -17.2779
      vertex 1.59607 44.9039 -15.4755
    endloop
  endfacet
  facet normal 0.92388 0 0.382683
    outer loop
      vertex 2.34265 44.9039 -17.2779
      vertex 1.59607 42.025 -15.4755
      vertex 2.34265 42.025 -17.2779
    endloop
  endfacet
  facet normal 0.92388 -0 0.382683
    outer loop
      vertex 1.59607 7.5 -15.4755
      vertex 2.34265 9.5 -17.2779
      vertex 1.59607 9.5 -15.4755
    endloop
  endfacet
  facet normal 0.92388 0 0.382683
    outer loop
      vertex 2.34265 9.5 -17.2779
      vertex 1.59607 7.5 -15.4755
      vertex 2.34265 7.5 -17.2779
    endloop
  endfacet
  facet normal 0.92388 -0 0.382683
    outer loop
      vertex 1.59607 -4.90393 -15.4755
      vertex 2.34265 -3.475 -17.2779
      vertex 1.59607 -3.475 -15.4755
    endloop
  endfacet
  facet normal 0.92388 0 0.382683
    outer loop
      vertex 2.34265 -3.475 -17.2779
      vertex 1.59607 -4.90393 -15.4755
      vertex 2.34265 -4.90393 -17.2779
    endloop
  endfacet
  facet normal -0.707106 0 0.707108
    outer loop
      vertex 82.7778 44.9039 -18.6573
      vertex 84.1573 42.025 -17.2779
      vertex 84.1573 44.9039 -17.2779
    endloop
  endfacet
  facet normal -0.707106 0 0.707108
    outer loop
      vertex 84.1573 42.025 -17.2779
      vertex 82.7778 44.9039 -18.6573
      vertex 82.7778 42.025 -18.6573
    endloop
  endfacet
  facet normal -0.707107 0 0.707107
    outer loop
      vertex 83.5 7.5 -17.9352
      vertex 84.1573 9.5 -17.2779
      vertex 83.5 9.5 -17.9352
    endloop
  endfacet
  facet normal -0.707107 0 0.707107
    outer loop
      vertex 84.1573 9.5 -17.2779
      vertex 83.5 7.5 -17.9352
      vertex 84.1573 7.5 -17.2779
    endloop
  endfacet
  facet normal -0.707106 0 0.707108
    outer loop
      vertex 82.7778 -3.475 -18.6573
      vertex 84.1573 -4.90393 -17.2779
      vertex 84.1573 -3.475 -17.2779
    endloop
  endfacet
  facet normal -0.707106 0 0.707108
    outer loop
      vertex 84.1573 -4.90393 -17.2779
      vertex 82.7778 -3.475 -18.6573
      vertex 82.7778 -4.90393 -18.6573
    endloop
  endfacet
  facet normal -0.382684 0 0.923879
    outer loop
      vertex 80.9754 44.9039 -19.4039
      vertex 82.7778 42.025 -18.6573
      vertex 82.7778 44.9039 -18.6573
    endloop
  endfacet
  facet normal -0.382684 0 0.923879
    outer loop
      vertex 82.7778 42.025 -18.6573
      vertex 80.9754 44.9039 -19.4039
      vertex 80.9754 42.025 -19.4039
    endloop
  endfacet
  facet normal -0.382684 0 0.923879
    outer loop
      vertex 80.9754 -3.475 -19.4039
      vertex 82.7778 -4.90393 -18.6573
      vertex 82.7778 -3.475 -18.6573
    endloop
  endfacet
  facet normal -0.382684 0 0.923879
    outer loop
      vertex 82.7778 -4.90393 -18.6573
      vertex 80.9754 -3.475 -19.4039
      vertex 80.9754 -4.90393 -19.4039
    endloop
  endfacet
  facet normal 0.770327 -0.514718 -0.37638
    outer loop
      vertex 89.9676 -3.4676 -26.7255
      vertex 89.4397 -2.93969 -28.5279
      vertex 91.0306 -1.87665 -26.7255
    endloop
  endfacet
  facet normal 0.92388 0 -0.382682
    outer loop
      vertex 91.4039 0 -26.7255
      vertex 90.6573 40 -28.5279
      vertex 91.4039 40 -26.7255
    endloop
  endfacet
  facet normal 0.92388 0 -0.382682
    outer loop
      vertex 90.6573 40 -28.5279
      vertex 91.4039 0 -26.7255
      vertex 90.6573 0 -28.5279
    endloop
  endfacet
  facet normal 0.770327 -0.514716 -0.376382
    outer loop
      vertex 91.0306 -1.87665 -26.7255
      vertex 89.4397 -2.93969 -28.5279
      vertex 90.3409 -1.59095 -28.5279
    endloop
  endfacet
  facet normal 0.831468 0.555572 0
    outer loop
      vertex 91.0306 41.8767 1
      vertex 89.9676 43.4676 -26.7255
      vertex 89.9676 43.4676 1
    endloop
  endfacet
  facet normal 0.831468 0.555572 0
    outer loop
      vertex 89.9676 43.4676 -26.7255
      vertex 91.0306 41.8767 1
      vertex 91.0306 41.8767 -26.7255
    endloop
  endfacet
  facet normal 0.514717 -0.770328 -0.37638
    outer loop
      vertex 88.3766 -4.53064 -26.7255
      vertex 88.091 -3.84089 -28.5279
      vertex 89.4397 -2.93969 -28.5279
    endloop
  endfacet
  facet normal -0.180744 -0.908663 -0.376381
    outer loop
      vertex 0 -4.90393 -26.7255
      vertex -1.87665 -4.53064 -26.7255
      vertex 0 -4.15735 -28.5279
    endloop
  endfacet
  facet normal -0.707107 0 -0.707107
    outer loop
      vertex -2.77785 0 -29.9073
      vertex -4.15735 40 -28.5279
      vertex -2.77785 40 -29.9073
    endloop
  endfacet
  facet normal -0.707107 -0 -0.707107
    outer loop
      vertex -4.15735 40 -28.5279
      vertex -2.77785 0 -29.9073
      vertex -4.15735 0 -28.5279
    endloop
  endfacet
  facet normal 0.700215 0.13928 -0.700215
    outer loop
      vertex 89.2778 40 -29.9073
      vertex 89.0664 41.063 -29.9073
      vertex 90.3409 41.591 -28.5279
    endloop
  endfacet
  facet normal 0.195091 -0.980785 0
    outer loop
      vertex 86.5 -4.90393 -26.7255
      vertex 88.3766 -4.53064 1
      vertex 86.5 -4.90393 1
    endloop
  endfacet
  facet normal 0.195091 -0.980785 0
    outer loop
      vertex 88.3766 -4.53064 1
      vertex 86.5 -4.90393 -26.7255
      vertex 88.3766 -4.53064 -26.7255
    endloop
  endfacet
  facet normal 0.831469 -0.555572 0
    outer loop
      vertex 89.9676 -3.4676 1
      vertex 91.0306 -1.87665 -26.7255
      vertex 91.0306 -1.87665 1
    endloop
  endfacet
  facet normal 0.831469 -0.555572 0
    outer loop
      vertex 91.0306 -1.87665 -26.7255
      vertex 89.9676 -3.4676 1
      vertex 89.9676 -3.4676 -26.7255
    endloop
  endfacet
  facet normal 0 0.923879 -0.382684
    outer loop
      vertex 86.5 44.1573 -28.5279
      vertex 0 44.9039 -26.7255
      vertex 86.5 44.9039 -26.7255
    endloop
  endfacet
  facet normal 0 0.923879 -0.382684
    outer loop
      vertex 0 44.9039 -26.7255
      vertex 86.5 44.1573 -28.5279
      vertex 0 44.1573 -28.5279
    endloop
  endfacet
  facet normal -0.19509 -0.980785 0
    outer loop
      vertex -1.87665 -4.53064 -26.7255
      vertex 0 -4.90393 1
      vertex -1.87665 -4.53064 1
    endloop
  endfacet
  facet normal -0.19509 -0.980785 -0
    outer loop
      vertex 0 -4.90393 1
      vertex -1.87665 -4.53064 -26.7255
      vertex 0 -4.90393 -26.7255
    endloop
  endfacet
  facet normal 0.55557 -0.83147 0
    outer loop
      vertex 88.3766 -4.53064 -26.7255
      vertex 89.9676 -3.4676 1
      vertex 88.3766 -4.53064 1
    endloop
  endfacet
  facet normal 0.55557 -0.83147 0
    outer loop
      vertex 89.9676 -3.4676 1
      vertex 88.3766 -4.53064 -26.7255
      vertex 89.9676 -3.4676 -26.7255
    endloop
  endfacet
  facet normal 0.908664 -0.180742 -0.376379
    outer loop
      vertex 91.0306 -1.87665 -26.7255
      vertex 90.6573 0 -28.5279
      vertex 91.4039 0 -26.7255
    endloop
  endfacet
  facet normal -0.908663 -0.180744 -0.376381
    outer loop
      vertex -4.53064 -1.87665 -26.7255
      vertex -4.90393 0 -26.7255
      vertex -4.15735 0 -28.5279
    endloop
  endfacet
  facet normal -0.381579 -0.075901 -0.921214
    outer loop
      vertex -2.5664 -1.06304 -29.9073
      vertex -2.77785 0 -29.9073
      vertex -0.975451 0 -30.6539
    endloop
  endfacet
  facet normal 0.593612 0.396639 -0.700215
    outer loop
      vertex 90.3409 41.591 -28.5279
      vertex 88.4642 41.9642 -29.9073
      vertex 89.4397 42.9397 -28.5279
    endloop
  endfacet
  facet normal 0 -0.382683 -0.92388
    outer loop
      vertex 0 -2.77785 -29.9073
      vertex 86.5 -0.975451 -30.6539
      vertex 86.5 -2.77785 -29.9073
    endloop
  endfacet
  facet normal -0 -0.382683 -0.92388
    outer loop
      vertex 86.5 -0.975451 -30.6539
      vertex 0 -2.77785 -29.9073
      vertex 0 -0.975451 -30.6539
    endloop
  endfacet
  facet normal 0.180744 0.908664 -0.37638
    outer loop
      vertex 88.091 43.8409 -28.5279
      vertex 86.5 44.1573 -28.5279
      vertex 88.3766 44.5306 -26.7255
    endloop
  endfacet
  facet normal 0.514716 0.770328 -0.376379
    outer loop
      vertex 89.4397 42.9397 -28.5279
      vertex 88.3766 44.5306 -26.7255
      vertex 89.9676 43.4676 -26.7255
    endloop
  endfacet
  facet normal -0.216148 0.323486 -0.921215
    outer loop
      vertex -0.689748 40.6897 -30.6539
      vertex -1.96424 41.9642 -29.9073
      vertex -0.373289 40.9012 -30.6539
    endloop
  endfacet
  facet normal 0.980786 -0.195087 0
    outer loop
      vertex 91.0306 -1.87665 1
      vertex 91.4039 0 -26.7255
      vertex 91.4039 0 1
    endloop
  endfacet
  facet normal 0.980786 -0.195087 0
    outer loop
      vertex 91.4039 0 -26.7255
      vertex 91.0306 -1.87665 1
      vertex 91.0306 -1.87665 -26.7255
    endloop
  endfacet
  facet normal 0.323487 0.216148 -0.921214
    outer loop
      vertex 89.0664 41.063 -29.9073
      vertex 87.4012 40.3733 -30.6539
      vertex 88.4642 41.9642 -29.9073
    endloop
  endfacet
  facet normal -0.216147 -0.323488 -0.921214
    outer loop
      vertex -1.06304 -2.5664 -29.9073
      vertex -1.96424 -1.96424 -29.9073
      vertex -0.373289 -0.901199 -30.6539
    endloop
  endfacet
  facet normal 0.514716 -0.770328 -0.37638
    outer loop
      vertex 89.9676 -3.4676 -26.7255
      vertex 88.3766 -4.53064 -26.7255
      vertex 89.4397 -2.93969 -28.5279
    endloop
  endfacet
  facet normal 0.908663 -0.180745 -0.376382
    outer loop
      vertex 91.0306 -1.87665 -26.7255
      vertex 90.3409 -1.59095 -28.5279
      vertex 90.6573 0 -28.5279
    endloop
  endfacet
  facet normal 1 -0 0
    outer loop
      vertex 91.4039 0 1
      vertex 91.4039 40 -26.7255
      vertex 91.4039 40 1
    endloop
  endfacet
  facet normal 1 0 0
    outer loop
      vertex 91.4039 40 -26.7255
      vertex 91.4039 0 1
      vertex 91.4039 0 -26.7255
    endloop
  endfacet
  facet normal 0.770327 0.514716 -0.376381
    outer loop
      vertex 90.3409 41.591 -28.5279
      vertex 89.4397 42.9397 -28.5279
      vertex 91.0306 41.8767 -26.7255
    endloop
  endfacet
  facet normal 0 -0.707107 -0.707107
    outer loop
      vertex 0 -2.77785 -29.9073
      vertex 86.5 -4.15735 -28.5279
      vertex 0 -4.15735 -28.5279
    endloop
  endfacet
  facet normal 0 -0.707107 -0.707107
    outer loop
      vertex 86.5 -4.15735 -28.5279
      vertex 0 -2.77785 -29.9073
      vertex 86.5 -2.77785 -29.9073
    endloop
  endfacet
  facet normal 0 -0.923879 -0.382684
    outer loop
      vertex 0 -4.15735 -28.5279
      vertex 86.5 -4.90393 -26.7255
      vertex 0 -4.90393 -26.7255
    endloop
  endfacet
  facet normal 0 -0.923879 -0.382684
    outer loop
      vertex 86.5 -4.90393 -26.7255
      vertex 0 -4.15735 -28.5279
      vertex 86.5 -4.15735 -28.5279
    endloop
  endfacet
  facet normal -0.514716 -0.770328 -0.376381
    outer loop
      vertex -1.87665 -4.53064 -26.7255
      vertex -2.93969 -2.93969 -28.5279
      vertex -1.59095 -3.84089 -28.5279
    endloop
  endfacet
  facet normal -0.0759012 -0.381579 -0.921215
    outer loop
      vertex 0 -0.975451 -30.6539
      vertex -1.06304 -2.5664 -29.9073
      vertex -0.373289 -0.901199 -30.6539
    endloop
  endfacet
  facet normal -0.0759014 0.38158 -0.921214
    outer loop
      vertex 0 40.9755 -30.6539
      vertex -1.06304 42.5664 -29.9073
      vertex 0 42.7779 -29.9073
    endloop
  endfacet
  facet normal 0.396639 0.593613 -0.700215
    outer loop
      vertex 88.4642 41.9642 -29.9073
      vertex 88.091 43.8409 -28.5279
      vertex 89.4397 42.9397 -28.5279
    endloop
  endfacet
  facet normal 0.514717 0.770328 -0.376379
    outer loop
      vertex 89.4397 42.9397 -28.5279
      vertex 88.091 43.8409 -28.5279
      vertex 88.3766 44.5306 -26.7255
    endloop
  endfacet
  facet normal 0.770327 0.514718 -0.37638
    outer loop
      vertex 91.0306 41.8767 -26.7255
      vertex 89.4397 42.9397 -28.5279
      vertex 89.9676 43.4676 -26.7255
    endloop
  endfacet
  facet normal 0 -1 0
    outer loop
      vertex 0 -4.90393 1
      vertex 1.59607 -4.90393 -15.4755
      vertex 1.59607 -4.90393 1
    endloop
  endfacet
  facet normal 0 -1 -0
    outer loop
      vertex 5.52455 -4.90393 -19.4039
      vertex 0 -4.90393 -26.7255
      vertex 80.9754 -4.90393 -19.4039
    endloop
  endfacet
  facet normal 0 -1 -0
    outer loop
      vertex 3.72215 -4.90393 -18.6573
      vertex 0 -4.90393 -26.7255
      vertex 5.52455 -4.90393 -19.4039
    endloop
  endfacet
  facet normal 0 -1 -0
    outer loop
      vertex 2.34265 -4.90393 -17.2779
      vertex 0 -4.90393 -26.7255
      vertex 3.72215 -4.90393 -18.6573
    endloop
  endfacet
  facet normal 0 -1 -0
    outer loop
      vertex 1.59607 -4.90393 -15.4755
      vertex 0 -4.90393 -26.7255
      vertex 2.34265 -4.90393 -17.2779
    endloop
  endfacet
  facet normal 0 -1 0
    outer loop
      vertex 0 -4.90393 -26.7255
      vertex 1.59607 -4.90393 -15.4755
      vertex 0 -4.90393 1
    endloop
  endfacet
  facet normal 0 -1 0
    outer loop
      vertex 84.9039 -4.90393 -15.4755
      vertex 86.5 -4.90393 1
      vertex 84.9039 -4.90393 1
    endloop
  endfacet
  facet normal 0 -1 0
    outer loop
      vertex 84.9039 -4.90393 -15.4755
      vertex 86.5 -4.90393 -26.7255
      vertex 86.5 -4.90393 1
    endloop
  endfacet
  facet normal 0 -1 0
    outer loop
      vertex 84.1573 -4.90393 -17.2779
      vertex 86.5 -4.90393 -26.7255
      vertex 84.9039 -4.90393 -15.4755
    endloop
  endfacet
  facet normal 0 -1 0
    outer loop
      vertex 82.7778 -4.90393 -18.6573
      vertex 86.5 -4.90393 -26.7255
      vertex 84.1573 -4.90393 -17.2779
    endloop
  endfacet
  facet normal 0 -1 0
    outer loop
      vertex 80.9754 -4.90393 -19.4039
      vertex 86.5 -4.90393 -26.7255
      vertex 82.7778 -4.90393 -18.6573
    endloop
  endfacet
  facet normal 0 -1 0
    outer loop
      vertex 86.5 -4.90393 -26.7255
      vertex 80.9754 -4.90393 -19.4039
      vertex 0 -4.90393 -26.7255
    endloop
  endfacet
  facet normal 0.139281 -0.700215 -0.700214
    outer loop
      vertex 88.091 -3.84089 -28.5279
      vertex 86.5 -4.15735 -28.5279
      vertex 86.5 -2.77785 -29.9073
    endloop
  endfacet
  facet normal 0.700214 0.139281 -0.700215
    outer loop
      vertex 90.6573 40 -28.5279
      vertex 89.2778 40 -29.9073
      vertex 90.3409 41.591 -28.5279
    endloop
  endfacet
  facet normal 0.593613 -0.396639 -0.700215
    outer loop
      vertex 89.4397 -2.93969 -28.5279
      vertex 88.4642 -1.96424 -29.9073
      vertex 90.3409 -1.59095 -28.5279
    endloop
  endfacet
  facet normal -0.700215 -0.139282 -0.700214
    outer loop
      vertex -2.5664 -1.06304 -29.9073
      vertex -3.84089 -1.59095 -28.5279
      vertex -2.77785 0 -29.9073
    endloop
  endfacet
  facet normal 0.139282 0.700214 -0.700215
    outer loop
      vertex 87.563 42.5664 -29.9073
      vertex 86.5 42.7779 -29.9073
      vertex 88.091 43.8409 -28.5279
    endloop
  endfacet
  facet normal -0.139282 -0.700215 -0.700214
    outer loop
      vertex 0 -4.15735 -28.5279
      vertex -1.59095 -3.84089 -28.5279
      vertex 0 -2.77785 -29.9073
    endloop
  endfacet
  facet normal -0.180745 -0.908663 -0.376381
    outer loop
      vertex 0 -4.15735 -28.5279
      vertex -1.87665 -4.53064 -26.7255
      vertex -1.59095 -3.84089 -28.5279
    endloop
  endfacet
  facet normal 0.195092 0.980785 -0
    outer loop
      vertex 88.3766 44.5306 -26.7255
      vertex 86.5 44.9039 1
      vertex 88.3766 44.5306 1
    endloop
  endfacet
  facet normal 0.195092 0.980785 0
    outer loop
      vertex 86.5 44.9039 1
      vertex 88.3766 44.5306 -26.7255
      vertex 86.5 44.9039 -26.7255
    endloop
  endfacet
  facet normal 0.593612 0.396641 -0.700215
    outer loop
      vertex 89.0664 41.063 -29.9073
      vertex 88.4642 41.9642 -29.9073
      vertex 90.3409 41.591 -28.5279
    endloop
  endfacet
  facet normal 0.216148 0.323488 -0.921214
    outer loop
      vertex 88.4642 41.9642 -29.9073
      vertex 86.8733 40.9012 -30.6539
      vertex 87.563 42.5664 -29.9073
    endloop
  endfacet
  facet normal 0.38158 -0.0759 -0.921214
    outer loop
      vertex 89.0664 -1.06304 -29.9073
      vertex 87.4754 0 -30.6539
      vertex 89.2778 0 -29.9073
    endloop
  endfacet
  facet normal 0.707106 0 -0.707108
    outer loop
      vertex 89.2778 0 -29.9073
      vertex 90.6573 40 -28.5279
      vertex 90.6573 0 -28.5279
    endloop
  endfacet
  facet normal 0.707106 0 -0.707108
    outer loop
      vertex 90.6573 40 -28.5279
      vertex 89.2778 0 -29.9073
      vertex 89.2778 40 -29.9073
    endloop
  endfacet
  facet normal 0.55557 0.83147 -0
    outer loop
      vertex 89.9676 43.4676 -26.7255
      vertex 88.3766 44.5306 1
      vertex 89.9676 43.4676 1
    endloop
  endfacet
  facet normal 0.55557 0.83147 0
    outer loop
      vertex 88.3766 44.5306 1
      vertex 89.9676 43.4676 -26.7255
      vertex 88.3766 44.5306 -26.7255
    endloop
  endfacet
  facet normal 0.980786 0.195087 0
    outer loop
      vertex 91.4039 40 1
      vertex 91.0306 41.8767 -26.7255
      vertex 91.0306 41.8767 1
    endloop
  endfacet
  facet normal 0.980786 0.195087 0
    outer loop
      vertex 91.0306 41.8767 -26.7255
      vertex 91.4039 40 1
      vertex 91.4039 40 -26.7255
    endloop
  endfacet
  facet normal 0.908664 0.180742 -0.376379
    outer loop
      vertex 91.4039 40 -26.7255
      vertex 90.6573 40 -28.5279
      vertex 91.0306 41.8767 -26.7255
    endloop
  endfacet
  facet normal 0.180744 -0.908663 -0.376381
    outer loop
      vertex 88.3766 -4.53064 -26.7255
      vertex 86.5 -4.15735 -28.5279
      vertex 88.091 -3.84089 -28.5279
    endloop
  endfacet
  facet normal 0.180745 -0.908663 -0.376381
    outer loop
      vertex 88.3766 -4.53064 -26.7255
      vertex 86.5 -4.90393 -26.7255
      vertex 86.5 -4.15735 -28.5279
    endloop
  endfacet
  facet normal 0.139282 -0.700214 -0.700215
    outer loop
      vertex 88.091 -3.84089 -28.5279
      vertex 86.5 -2.77785 -29.9073
      vertex 87.563 -2.5664 -29.9073
    endloop
  endfacet
  facet normal 0.0759012 -0.381579 -0.921214
    outer loop
      vertex 87.563 -2.5664 -29.9073
      vertex 86.5 -2.77785 -29.9073
      vertex 86.5 -0.975451 -30.6539
    endloop
  endfacet
  facet normal -0.39664 -0.593613 -0.700214
    outer loop
      vertex -1.59095 -3.84089 -28.5279
      vertex -1.96424 -1.96424 -29.9073
      vertex -1.06304 -2.5664 -29.9073
    endloop
  endfacet
  facet normal -0.514717 -0.770328 -0.376381
    outer loop
      vertex -1.87665 -4.53064 -26.7255
      vertex -3.4676 -3.4676 -26.7255
      vertex -2.93969 -2.93969 -28.5279
    endloop
  endfacet
  facet normal -0.770328 -0.514716 -0.376381
    outer loop
      vertex -2.93969 -2.93969 -28.5279
      vertex -4.53064 -1.87665 -26.7255
      vertex -3.84089 -1.59095 -28.5279
    endloop
  endfacet
  facet normal -0.39664 -0.593613 -0.700214
    outer loop
      vertex -1.59095 -3.84089 -28.5279
      vertex -2.93969 -2.93969 -28.5279
      vertex -1.96424 -1.96424 -29.9073
    endloop
  endfacet
  facet normal -0.323488 -0.216147 -0.921214
    outer loop
      vertex -1.96424 -1.96424 -29.9073
      vertex -2.5664 -1.06304 -29.9073
      vertex -0.901199 -0.373289 -30.6539
    endloop
  endfacet
  facet normal -0.831469 0.555571 0
    outer loop
      vertex -4.53064 41.8767 -26.7255
      vertex -3.4676 43.4676 1
      vertex -3.4676 43.4676 -26.7255
    endloop
  endfacet
  facet normal -0.831469 0.555571 0
    outer loop
      vertex -3.4676 43.4676 1
      vertex -4.53064 41.8767 -26.7255
      vertex -4.53064 41.8767 1
    endloop
  endfacet
  facet normal 0.381581 0.0758981 -0.921214
    outer loop
      vertex 87.4754 40 -30.6539
      vertex 87.4012 40.3733 -30.6539
      vertex 89.0664 41.063 -29.9073
    endloop
  endfacet
  facet normal 0.0759016 0.38158 -0.921214
    outer loop
      vertex 87.563 42.5664 -29.9073
      vertex 86.5 40.9755 -30.6539
      vertex 86.5 42.7779 -29.9073
    endloop
  endfacet
  facet normal -1 0 0
    outer loop
      vertex -4.90393 0 -26.7255
      vertex -4.90393 40 1
      vertex -4.90393 40 -26.7255
    endloop
  endfacet
  facet normal -1 -0 0
    outer loop
      vertex -4.90393 40 1
      vertex -4.90393 0 -26.7255
      vertex -4.90393 0 1
    endloop
  endfacet
  facet normal 0 1 0
    outer loop
      vertex 86.5 44.9039 1
      vertex 84.9039 44.9039 -15.4755
      vertex 84.9039 44.9039 1
    endloop
  endfacet
  facet normal 0 1 0
    outer loop
      vertex 80.9754 44.9039 -19.4039
      vertex 86.5 44.9039 -26.7255
      vertex 5.52455 44.9039 -19.4039
    endloop
  endfacet
  facet normal 0 1 0
    outer loop
      vertex 82.7778 44.9039 -18.6573
      vertex 86.5 44.9039 -26.7255
      vertex 80.9754 44.9039 -19.4039
    endloop
  endfacet
  facet normal 0 1 0
    outer loop
      vertex 84.1573 44.9039 -17.2779
      vertex 86.5 44.9039 -26.7255
      vertex 82.7778 44.9039 -18.6573
    endloop
  endfacet
  facet normal 0 1 0
    outer loop
      vertex 84.9039 44.9039 -15.4755
      vertex 86.5 44.9039 -26.7255
      vertex 84.1573 44.9039 -17.2779
    endloop
  endfacet
  facet normal 0 1 -0
    outer loop
      vertex 86.5 44.9039 -26.7255
      vertex 84.9039 44.9039 -15.4755
      vertex 86.5 44.9039 1
    endloop
  endfacet
  facet normal 0 1 -0
    outer loop
      vertex 1.59607 44.9039 -15.4755
      vertex 0 44.9039 1
      vertex 1.59607 44.9039 1
    endloop
  endfacet
  facet normal 0 1 0
    outer loop
      vertex 1.59607 44.9039 -15.4755
      vertex 0 44.9039 -26.7255
      vertex 0 44.9039 1
    endloop
  endfacet
  facet normal 0 1 0
    outer loop
      vertex 2.34265 44.9039 -17.2779
      vertex 0 44.9039 -26.7255
      vertex 1.59607 44.9039 -15.4755
    endloop
  endfacet
  facet normal 0 1 0
    outer loop
      vertex 3.72215 44.9039 -18.6573
      vertex 0 44.9039 -26.7255
      vertex 2.34265 44.9039 -17.2779
    endloop
  endfacet
  facet normal 0 1 0
    outer loop
      vertex 5.52455 44.9039 -19.4039
      vertex 0 44.9039 -26.7255
      vertex 3.72215 44.9039 -18.6573
    endloop
  endfacet
  facet normal 0 1 0
    outer loop
      vertex 0 44.9039 -26.7255
      vertex 5.52455 44.9039 -19.4039
      vertex 86.5 44.9039 -26.7255
    endloop
  endfacet
  facet normal 0.908663 0.180744 -0.376382
    outer loop
      vertex 90.6573 40 -28.5279
      vertex 90.3409 41.591 -28.5279
      vertex 91.0306 41.8767 -26.7255
    endloop
  endfacet
  facet normal 0.382684 0 -0.923879
    outer loop
      vertex 87.4754 0 -30.6539
      vertex 89.2778 40 -29.9073
      vertex 89.2778 0 -29.9073
    endloop
  endfacet
  facet normal 0.382684 0 -0.923879
    outer loop
      vertex 89.2778 40 -29.9073
      vertex 87.4754 0 -30.6539
      vertex 87.4754 40 -30.6539
    endloop
  endfacet
  facet normal 0.323487 -0.216148 -0.921214
    outer loop
      vertex 88.4642 -1.96424 -29.9073
      vertex 87.4012 -0.373289 -30.6539
      vertex 89.0664 -1.06304 -29.9073
    endloop
  endfacet
  facet normal 0.593612 -0.396641 -0.700215
    outer loop
      vertex 90.3409 -1.59095 -28.5279
      vertex 88.4642 -1.96424 -29.9073
      vertex 89.0664 -1.06304 -29.9073
    endloop
  endfacet
  facet normal -0.923879 0 -0.382684
    outer loop
      vertex -4.15735 0 -28.5279
      vertex -4.90393 40 -26.7255
      vertex -4.15735 40 -28.5279
    endloop
  endfacet
  facet normal -0.923879 -0 -0.382684
    outer loop
      vertex -4.90393 40 -26.7255
      vertex -4.15735 0 -28.5279
      vertex -4.90393 0 -26.7255
    endloop
  endfacet
  facet normal -0.55557 -0.83147 0
    outer loop
      vertex -3.4676 -3.4676 -26.7255
      vertex -1.87665 -4.53064 1
      vertex -3.4676 -3.4676 1
    endloop
  endfacet
  facet normal -0.55557 -0.83147 -0
    outer loop
      vertex -1.87665 -4.53064 1
      vertex -3.4676 -3.4676 -26.7255
      vertex -1.87665 -4.53064 -26.7255
    endloop
  endfacet
  facet normal -0.593613 -0.39664 -0.700214
    outer loop
      vertex -1.96424 -1.96424 -29.9073
      vertex -3.84089 -1.59095 -28.5279
      vertex -2.5664 -1.06304 -29.9073
    endloop
  endfacet
  facet normal -0.593613 -0.39664 -0.700214
    outer loop
      vertex -2.93969 -2.93969 -28.5279
      vertex -3.84089 -1.59095 -28.5279
      vertex -1.96424 -1.96424 -29.9073
    endloop
  endfacet
  facet normal -0.381579 -0.0759012 -0.921215
    outer loop
      vertex -0.901199 -0.373289 -30.6539
      vertex -2.5664 -1.06304 -29.9073
      vertex -0.975451 0 -30.6539
    endloop
  endfacet
  facet normal -0.075901 -0.381579 -0.921214
    outer loop
      vertex 0 -2.77785 -29.9073
      vertex -1.06304 -2.5664 -29.9073
      vertex 0 -0.975451 -30.6539
    endloop
  endfacet
  facet normal -0.139282 -0.700215 -0.700214
    outer loop
      vertex 0 -2.77785 -29.9073
      vertex -1.59095 -3.84089 -28.5279
      vertex -1.06304 -2.5664 -29.9073
    endloop
  endfacet
  facet normal 0 0.382684 -0.923879
    outer loop
      vertex 0 40.9755 -30.6539
      vertex 86.5 42.7779 -29.9073
      vertex 86.5 40.9755 -30.6539
    endloop
  endfacet
  facet normal 0 0.382684 -0.923879
    outer loop
      vertex 86.5 42.7779 -29.9073
      vertex 0 40.9755 -30.6539
      vertex 0 42.7779 -29.9073
    endloop
  endfacet
  facet normal -0.382683 0 -0.92388
    outer loop
      vertex -2.77785 0 -29.9073
      vertex -0.975451 40 -30.6539
      vertex -0.975451 0 -30.6539
    endloop
  endfacet
  facet normal -0.382683 0 -0.92388
    outer loop
      vertex -0.975451 40 -30.6539
      vertex -2.77785 0 -29.9073
      vertex -2.77785 40 -29.9073
    endloop
  endfacet
  facet normal -0.514716 0.770328 -0.37638
    outer loop
      vertex -1.59095 43.8409 -28.5279
      vertex -2.93969 42.9397 -28.5279
      vertex -1.87665 44.5306 -26.7255
    endloop
  endfacet
  facet normal 0.323488 0.216148 -0.921214
    outer loop
      vertex 87.4012 40.3733 -30.6539
      vertex 87.1898 40.6897 -30.6539
      vertex 88.4642 41.9642 -29.9073
    endloop
  endfacet
  facet normal 0.216148 0.323487 -0.921214
    outer loop
      vertex 87.1898 40.6897 -30.6539
      vertex 86.8733 40.9012 -30.6539
      vertex 88.4642 41.9642 -29.9073
    endloop
  endfacet
  facet normal 0.396639 0.593613 -0.700215
    outer loop
      vertex 88.4642 41.9642 -29.9073
      vertex 87.563 42.5664 -29.9073
      vertex 88.091 43.8409 -28.5279
    endloop
  endfacet
  facet normal 0.0759018 0.381579 -0.921214
    outer loop
      vertex 86.8733 40.9012 -30.6539
      vertex 86.5 40.9755 -30.6539
      vertex 87.563 42.5664 -29.9073
    endloop
  endfacet
  facet normal 0 0.707107 -0.707107
    outer loop
      vertex 86.5 42.7779 -29.9073
      vertex 0 44.1573 -28.5279
      vertex 86.5 44.1573 -28.5279
    endloop
  endfacet
  facet normal 0 0.707107 -0.707107
    outer loop
      vertex 0 44.1573 -28.5279
      vertex 86.5 42.7779 -29.9073
      vertex 0 42.7779 -29.9073
    endloop
  endfacet
  facet normal 0.139281 0.700215 -0.700215
    outer loop
      vertex 88.091 43.8409 -28.5279
      vertex 86.5 42.7779 -29.9073
      vertex 86.5 44.1573 -28.5279
    endloop
  endfacet
  facet normal -0.980785 -0.19509 0
    outer loop
      vertex -4.53064 -1.87665 -26.7255
      vertex -4.90393 0 1
      vertex -4.90393 0 -26.7255
    endloop
  endfacet
  facet normal -0.980785 -0.19509 0
    outer loop
      vertex -4.90393 0 1
      vertex -4.53064 -1.87665 -26.7255
      vertex -4.53064 -1.87665 1
    endloop
  endfacet
  facet normal 0.180746 0.908663 -0.376381
    outer loop
      vertex 88.3766 44.5306 -26.7255
      vertex 86.5 44.1573 -28.5279
      vertex 86.5 44.9039 -26.7255
    endloop
  endfacet
  facet normal 0.396639 -0.593613 -0.700215
    outer loop
      vertex 89.4397 -2.93969 -28.5279
      vertex 88.091 -3.84089 -28.5279
      vertex 88.4642 -1.96424 -29.9073
    endloop
  endfacet
  facet normal 0.38158 0.0758999 -0.921215
    outer loop
      vertex 89.2778 40 -29.9073
      vertex 87.4754 40 -30.6539
      vertex 89.0664 41.063 -29.9073
    endloop
  endfacet
  facet normal 0.396639 -0.593613 -0.700215
    outer loop
      vertex 88.091 -3.84089 -28.5279
      vertex 87.563 -2.5664 -29.9073
      vertex 88.4642 -1.96424 -29.9073
    endloop
  endfacet
  facet normal 0.32349 -0.216146 -0.921214
    outer loop
      vertex 88.4642 -1.96424 -29.9073
      vertex 87.1898 -0.689748 -30.6539
      vertex 87.4012 -0.373289 -30.6539
    endloop
  endfacet
  facet normal -0.770328 -0.514717 -0.376381
    outer loop
      vertex -3.4676 -3.4676 -26.7255
      vertex -4.53064 -1.87665 -26.7255
      vertex -2.93969 -2.93969 -28.5279
    endloop
  endfacet
  facet normal -0.83147 -0.55557 0
    outer loop
      vertex -3.4676 -3.4676 -26.7255
      vertex -4.53064 -1.87665 1
      vertex -4.53064 -1.87665 -26.7255
    endloop
  endfacet
  facet normal -0.83147 -0.55557 0
    outer loop
      vertex -4.53064 -1.87665 1
      vertex -3.4676 -3.4676 -26.7255
      vertex -3.4676 -3.4676 1
    endloop
  endfacet
  facet normal -0.908663 -0.180745 -0.376381
    outer loop
      vertex -3.84089 -1.59095 -28.5279
      vertex -4.53064 -1.87665 -26.7255
      vertex -4.15735 0 -28.5279
    endloop
  endfacet
  facet normal -0.700215 -0.139282 -0.700214
    outer loop
      vertex -3.84089 -1.59095 -28.5279
      vertex -4.15735 0 -28.5279
      vertex -2.77785 0 -29.9073
    endloop
  endfacet
  facet normal 0 0 -1
    outer loop
      vertex 86.5 -0.975451 -30.6539
      vertex 87.4754 0 -30.6539
      vertex 87.4012 -0.373289 -30.6539
    endloop
  endfacet
  facet normal -0 0 -1
    outer loop
      vertex 87.4754 0 -30.6539
      vertex 86.5 -0.975451 -30.6539
      vertex 87.4754 40 -30.6539
    endloop
  endfacet
  facet normal 0 0 -1
    outer loop
      vertex 86.5 -0.975451 -30.6539
      vertex 87.4012 -0.373289 -30.6539
      vertex 87.1898 -0.689748 -30.6539
    endloop
  endfacet
  facet normal 0 0 -1
    outer loop
      vertex 86.5 40.9755 -30.6539
      vertex 87.4754 40 -30.6539
      vertex 86.5 -0.975451 -30.6539
    endloop
  endfacet
  facet normal 0 0 -1
    outer loop
      vertex 86.5 -0.975451 -30.6539
      vertex 87.1898 -0.689748 -30.6539
      vertex 86.8733 -0.901199 -30.6539
    endloop
  endfacet
  facet normal 0 0 -1
    outer loop
      vertex 87.4754 40 -30.6539
      vertex 86.5 40.9755 -30.6539
      vertex 87.4012 40.3733 -30.6539
    endloop
  endfacet
  facet normal 0 0 -1
    outer loop
      vertex 87.4012 40.3733 -30.6539
      vertex 86.5 40.9755 -30.6539
      vertex 87.1898 40.6897 -30.6539
    endloop
  endfacet
  facet normal 0 0 -1
    outer loop
      vertex 87.1898 40.6897 -30.6539
      vertex 86.5 40.9755 -30.6539
      vertex 86.8733 40.9012 -30.6539
    endloop
  endfacet
  facet normal 0 0 -1
    outer loop
      vertex 0 -0.975451 -30.6539
      vertex 86.5 40.9755 -30.6539
      vertex 86.5 -0.975451 -30.6539
    endloop
  endfacet
  facet normal 0 0 -1
    outer loop
      vertex 0 -0.975451 -30.6539
      vertex 0 40.9755 -30.6539
      vertex 86.5 40.9755 -30.6539
    endloop
  endfacet
  facet normal 0 0 -1
    outer loop
      vertex -0.975451 0 -30.6539
      vertex 0 -0.975451 -30.6539
      vertex -0.373289 -0.901199 -30.6539
    endloop
  endfacet
  facet normal 0 0 -1
    outer loop
      vertex 0 -0.975451 -30.6539
      vertex -0.975451 0 -30.6539
      vertex 0 40.9755 -30.6539
    endloop
  endfacet
  facet normal 0 0 -1
    outer loop
      vertex -0.975451 0 -30.6539
      vertex -0.373289 -0.901199 -30.6539
      vertex -0.689748 -0.689748 -30.6539
    endloop
  endfacet
  facet normal 0 0 -1
    outer loop
      vertex -0.975451 40 -30.6539
      vertex 0 40.9755 -30.6539
      vertex -0.975451 0 -30.6539
    endloop
  endfacet
  facet normal 0 0 -1
    outer loop
      vertex -0.975451 0 -30.6539
      vertex -0.689748 -0.689748 -30.6539
      vertex -0.901199 -0.373289 -30.6539
    endloop
  endfacet
  facet normal 0 0 -1
    outer loop
      vertex 0 40.9755 -30.6539
      vertex -0.975451 40 -30.6539
      vertex -0.373289 40.9012 -30.6539
    endloop
  endfacet
  facet normal 0 0 -1
    outer loop
      vertex -0.373289 40.9012 -30.6539
      vertex -0.975451 40 -30.6539
      vertex -0.689748 40.6897 -30.6539
    endloop
  endfacet
  facet normal 0 0 -1
    outer loop
      vertex -0.689748 40.6897 -30.6539
      vertex -0.975451 40 -30.6539
      vertex -0.901199 40.3733 -30.6539
    endloop
  endfacet
  facet normal -0.323487 -0.216148 -0.921215
    outer loop
      vertex -0.689748 -0.689748 -30.6539
      vertex -1.96424 -1.96424 -29.9073
      vertex -0.901199 -0.373289 -30.6539
    endloop
  endfacet
  facet normal -0.216148 -0.323487 -0.921215
    outer loop
      vertex -0.373289 -0.901199 -30.6539
      vertex -1.96424 -1.96424 -29.9073
      vertex -0.689748 -0.689748 -30.6539
    endloop
  endfacet
  facet normal -0.908663 0.180744 -0.376381
    outer loop
      vertex -4.15735 40 -28.5279
      vertex -4.53064 41.8767 -26.7255
      vertex -3.84089 41.591 -28.5279
    endloop
  endfacet
  facet normal -0.770327 0.514717 -0.37638
    outer loop
      vertex -2.93969 42.9397 -28.5279
      vertex -4.53064 41.8767 -26.7255
      vertex -3.4676 43.4676 -26.7255
    endloop
  endfacet
  facet normal -0.180745 0.908663 -0.376381
    outer loop
      vertex 0 44.1573 -28.5279
      vertex -1.87665 44.5306 -26.7255
      vertex 0 44.9039 -26.7255
    endloop
  endfacet
  facet normal 0.700214 -0.139281 -0.700215
    outer loop
      vertex 90.3409 -1.59095 -28.5279
      vertex 89.2778 0 -29.9073
      vertex 90.6573 0 -28.5279
    endloop
  endfacet
  facet normal 0.700215 -0.13928 -0.700215
    outer loop
      vertex 90.3409 -1.59095 -28.5279
      vertex 89.0664 -1.06304 -29.9073
      vertex 89.2778 0 -29.9073
    endloop
  endfacet
  facet normal 0.216148 -0.323488 -0.921214
    outer loop
      vertex 88.4642 -1.96424 -29.9073
      vertex 86.8733 -0.901199 -30.6539
      vertex 87.1898 -0.689748 -30.6539
    endloop
  endfacet
  facet normal -0.908663 0.180744 -0.376381
    outer loop
      vertex -4.15735 40 -28.5279
      vertex -4.90393 40 -26.7255
      vertex -4.53064 41.8767 -26.7255
    endloop
  endfacet
  facet normal -0.980785 0.19509 0
    outer loop
      vertex -4.90393 40 -26.7255
      vertex -4.53064 41.8767 1
      vertex -4.53064 41.8767 -26.7255
    endloop
  endfacet
  facet normal -0.980785 0.19509 0
    outer loop
      vertex -4.53064 41.8767 1
      vertex -4.90393 40 -26.7255
      vertex -4.90393 40 1
    endloop
  endfacet
  facet normal -0.700215 0.139281 -0.700214
    outer loop
      vertex -2.77785 40 -29.9073
      vertex -4.15735 40 -28.5279
      vertex -3.84089 41.591 -28.5279
    endloop
  endfacet
  facet normal -0.770328 0.514717 -0.376381
    outer loop
      vertex -3.84089 41.591 -28.5279
      vertex -4.53064 41.8767 -26.7255
      vertex -2.93969 42.9397 -28.5279
    endloop
  endfacet
  facet normal -0.139281 0.700214 -0.700214
    outer loop
      vertex 0 42.7779 -29.9073
      vertex -1.59095 43.8409 -28.5279
      vertex 0 44.1573 -28.5279
    endloop
  endfacet
  facet normal -0.180745 0.908664 -0.37638
    outer loop
      vertex -1.59095 43.8409 -28.5279
      vertex -1.87665 44.5306 -26.7255
      vertex 0 44.1573 -28.5279
    endloop
  endfacet
  facet normal -0.514717 0.770328 -0.37638
    outer loop
      vertex -2.93969 42.9397 -28.5279
      vertex -3.4676 43.4676 -26.7255
      vertex -1.87665 44.5306 -26.7255
    endloop
  endfacet
  facet normal -0.216147 0.323488 -0.921214
    outer loop
      vertex -0.373289 40.9012 -30.6539
      vertex -1.96424 41.9642 -29.9073
      vertex -1.06304 42.5664 -29.9073
    endloop
  endfacet
  facet normal -0.55557 0.83147 0
    outer loop
      vertex -1.87665 44.5306 -26.7255
      vertex -3.4676 43.4676 1
      vertex -1.87665 44.5306 1
    endloop
  endfacet
  facet normal -0.55557 0.83147 0
    outer loop
      vertex -3.4676 43.4676 1
      vertex -1.87665 44.5306 -26.7255
      vertex -3.4676 43.4676 -26.7255
    endloop
  endfacet
  facet normal -0.195091 0.980785 0
    outer loop
      vertex 0 44.9039 -26.7255
      vertex -1.87665 44.5306 1
      vertex 0 44.9039 1
    endloop
  endfacet
  facet normal -0.195091 0.980785 0
    outer loop
      vertex -1.87665 44.5306 1
      vertex 0 44.9039 -26.7255
      vertex -1.87665 44.5306 -26.7255
    endloop
  endfacet
  facet normal 0.381581 -0.0758985 -0.921214
    outer loop
      vertex 89.0664 -1.06304 -29.9073
      vertex 87.4012 -0.373289 -30.6539
      vertex 87.4754 0 -30.6539
    endloop
  endfacet
  facet normal 0.216148 -0.323488 -0.921214
    outer loop
      vertex 87.563 -2.5664 -29.9073
      vertex 86.8733 -0.901199 -30.6539
      vertex 88.4642 -1.96424 -29.9073
    endloop
  endfacet
  facet normal 0.0759008 -0.38158 -0.921214
    outer loop
      vertex 87.563 -2.5664 -29.9073
      vertex 86.5 -0.975451 -30.6539
      vertex 86.8733 -0.901199 -30.6539
    endloop
  endfacet
  facet normal -0.396639 0.593613 -0.700215
    outer loop
      vertex -1.06304 42.5664 -29.9073
      vertex -1.96424 41.9642 -29.9073
      vertex -1.59095 43.8409 -28.5279
    endloop
  endfacet
  facet normal -0.139282 0.700214 -0.700215
    outer loop
      vertex -1.06304 42.5664 -29.9073
      vertex -1.59095 43.8409 -28.5279
      vertex 0 42.7779 -29.9073
    endloop
  endfacet
  facet normal -0.38158 0.0759008 -0.921214
    outer loop
      vertex -0.975451 40 -30.6539
      vertex -2.5664 41.063 -29.9073
      vertex -0.901199 40.3733 -30.6539
    endloop
  endfacet
  facet normal -0.381579 0.0759009 -0.921215
    outer loop
      vertex -0.975451 40 -30.6539
      vertex -2.77785 40 -29.9073
      vertex -2.5664 41.063 -29.9073
    endloop
  endfacet
  facet normal -0.0759021 0.381579 -0.921215
    outer loop
      vertex -0.373289 40.9012 -30.6539
      vertex -1.06304 42.5664 -29.9073
      vertex 0 40.9755 -30.6539
    endloop
  endfacet
  facet normal -0.593613 0.39664 -0.700214
    outer loop
      vertex -2.5664 41.063 -29.9073
      vertex -3.84089 41.591 -28.5279
      vertex -1.96424 41.9642 -29.9073
    endloop
  endfacet
  facet normal -0.700215 0.139281 -0.700214
    outer loop
      vertex -2.77785 40 -29.9073
      vertex -3.84089 41.591 -28.5279
      vertex -2.5664 41.063 -29.9073
    endloop
  endfacet
  facet normal -0.323488 0.216148 -0.921214
    outer loop
      vertex -0.901199 40.3733 -30.6539
      vertex -2.5664 41.063 -29.9073
      vertex -1.96424 41.9642 -29.9073
    endloop
  endfacet
  facet normal -0.323486 0.216149 -0.921215
    outer loop
      vertex -0.901199 40.3733 -30.6539
      vertex -1.96424 41.9642 -29.9073
      vertex -0.689748 40.6897 -30.6539
    endloop
  endfacet
  facet normal -0.39664 0.593613 -0.700214
    outer loop
      vertex -1.96424 41.9642 -29.9073
      vertex -2.93969 42.9397 -28.5279
      vertex -1.59095 43.8409 -28.5279
    endloop
  endfacet
  facet normal -0.593613 0.39664 -0.700214
    outer loop
      vertex -1.96424 41.9642 -29.9073
      vertex -3.84089 41.591 -28.5279
      vertex -2.93969 42.9397 -28.5279
    endloop
  endfacet
  facet normal -0 0 1
    outer loop
      vertex -1.28125 15.125 1
      vertex 0 9.5 1
      vertex -1.28125 24.875 1
    endloop
  endfacet
  facet normal 0 0 1
    outer loop
      vertex -1.17125 29.685 1
      vertex -3.71875 24.875 1
      vertex -1.28125 24.875 1
    endloop
  endfacet
  facet normal 0 0 1
    outer loop
      vertex -3.71875 24.875 1
      vertex -3.82875 29.685 1
      vertex -3.71875 15.125 1
    endloop
  endfacet
  facet normal -0 0 1
    outer loop
      vertex -3.82875 29.685 1
      vertex -3.71875 24.875 1
      vertex -1.17125 29.685 1
    endloop
  endfacet
  facet normal -0 0 1
    outer loop
      vertex 0 44.9039 1
      vertex 1.59607 42.025 1
      vertex 1.59607 44.9039 1
    endloop
  endfacet
  facet normal 0 0 1
    outer loop
      vertex 0 44.9039 1
      vertex 0 42.025 1
      vertex 1.59607 42.025 1
    endloop
  endfacet
  facet normal -0 0 1
    outer loop
      vertex -1.87665 44.5306 1
      vertex 0 42.025 1
      vertex 0 44.9039 1
    endloop
  endfacet
  facet normal 0 0 1
    outer loop
      vertex 0 42.025 1
      vertex -1.17125 29.685 1
      vertex 0 9.5 1
    endloop
  endfacet
  facet normal -0 0 1
    outer loop
      vertex -1.28125 24.875 1
      vertex 0 9.5 1
      vertex -1.17125 29.685 1
    endloop
  endfacet
  facet normal 0 0 1
    outer loop
      vertex 0 9.5 1
      vertex -1.17125 10.315 1
      vertex 0 7.5 1
    endloop
  endfacet
  facet normal 0 0 1
    outer loop
      vertex 0 42.025 1
      vertex -1.17125 40.315 1
      vertex -1.17125 29.685 1
    endloop
  endfacet
  facet normal -0 0 1
    outer loop
      vertex -3.4676 43.4676 1
      vertex 0 42.025 1
      vertex -1.87665 44.5306 1
    endloop
  endfacet
  facet normal 0 0 1
    outer loop
      vertex 0 42.025 1
      vertex -3.4676 43.4676 1
      vertex -1.17125 40.315 1
    endloop
  endfacet
  facet normal 0 0 1
    outer loop
      vertex -3.4676 43.4676 1
      vertex -3.82875 40.315 1
      vertex -1.17125 40.315 1
    endloop
  endfacet
  facet normal -0 0 1
    outer loop
      vertex -4.90393 40 1
      vertex -3.82875 29.685 1
      vertex -3.82875 40.315 1
    endloop
  endfacet
  facet normal 0 0 1
    outer loop
      vertex -3.82875 29.685 1
      vertex -4.90393 40 1
      vertex -3.82875 10.315 1
    endloop
  endfacet
  facet normal 0 0 1
    outer loop
      vertex -4.90393 40 1
      vertex -3.82875 40.315 1
      vertex -4.53064 41.8767 1
    endloop
  endfacet
  facet normal -0 0 1
    outer loop
      vertex -4.53064 41.8767 1
      vertex -3.82875 40.315 1
      vertex -3.4676 43.4676 1
    endloop
  endfacet
  facet normal -0 0 1
    outer loop
      vertex 0 9.5 1
      vertex 1.59607 7.5 1
      vertex 1.59607 9.5 1
    endloop
  endfacet
  facet normal 0 0 1
    outer loop
      vertex 1.59607 7.5 1
      vertex 0 9.5 1
      vertex 0 7.5 1
    endloop
  endfacet
  facet normal -0 0 1
    outer loop
      vertex 0 -3.475 1
      vertex 1.59607 -4.90393 1
      vertex 1.59607 -3.475 1
    endloop
  endfacet
  facet normal 0 0 1
    outer loop
      vertex 1.59607 -4.90393 1
      vertex 0 -3.475 1
      vertex 0 -4.90393 1
    endloop
  endfacet
  facet normal 0 0 1
    outer loop
      vertex -1.17125 -0.315 1
      vertex 0 7.5 1
      vertex -1.17125 10.315 1
    endloop
  endfacet
  facet normal 0 0 1
    outer loop
      vertex 0 7.5 1
      vertex -1.17125 -0.315 1
      vertex 0 -3.475 1
    endloop
  endfacet
  facet normal -0 0 1
    outer loop
      vertex -3.4676 -3.4676 1
      vertex 0 -3.475 1
      vertex -1.17125 -0.315 1
    endloop
  endfacet
  facet normal 0 0 1
    outer loop
      vertex 0 -3.475 1
      vertex -1.87665 -4.53064 1
      vertex 0 -4.90393 1
    endloop
  endfacet
  facet normal 0 0 1
    outer loop
      vertex 0 -3.475 1
      vertex -3.4676 -3.4676 1
      vertex -1.87665 -4.53064 1
    endloop
  endfacet
  facet normal -0 0 1
    outer loop
      vertex -3.82875 -0.315 1
      vertex -3.4676 -3.4676 1
      vertex -1.17125 -0.315 1
    endloop
  endfacet
  facet normal 0 0 1
    outer loop
      vertex -3.82875 -0.315 1
      vertex -4.53064 -1.87665 1
      vertex -3.4676 -3.4676 1
    endloop
  endfacet
  facet normal 0 0 1
    outer loop
      vertex -4.90393 0 1
      vertex -3.82875 10.315 1
      vertex -4.90393 40 1
    endloop
  endfacet
  facet normal 0 0 1
    outer loop
      vertex -3.82875 10.315 1
      vertex -4.90393 0 1
      vertex -3.82875 -0.315 1
    endloop
  endfacet
  facet normal 0 0 1
    outer loop
      vertex -3.82875 -0.315 1
      vertex -4.90393 0 1
      vertex -4.53064 -1.87665 1
    endloop
  endfacet
  facet normal 0 0 1
    outer loop
      vertex 0 9.5 1
      vertex -1.28125 15.125 1
      vertex -1.17125 10.315 1
    endloop
  endfacet
  facet normal -0 0 1
    outer loop
      vertex -3.71875 15.125 1
      vertex -1.17125 10.315 1
      vertex -1.28125 15.125 1
    endloop
  endfacet
  facet normal 0 0 1
    outer loop
      vertex -3.71875 15.125 1
      vertex -3.82875 10.315 1
      vertex -1.17125 10.315 1
    endloop
  endfacet
  facet normal 0 0 1
    outer loop
      vertex -3.82875 10.315 1
      vertex -3.71875 15.125 1
      vertex -3.82875 29.685 1
    endloop
  endfacet
  facet normal -0 0 1
    outer loop
      vertex 84.9039 9.5 1
      vertex 86.5 7.5 1
      vertex 86.5 9.5 1
    endloop
  endfacet
  facet normal 0 0 1
    outer loop
      vertex 86.5 7.5 1
      vertex 84.9039 9.5 1
      vertex 84.9039 7.5 1
    endloop
  endfacet
  facet normal -0 0 1
    outer loop
      vertex 84.9039 44.9039 1
      vertex 86.5 42.025 1
      vertex 86.5 44.9039 1
    endloop
  endfacet
  facet normal 0 0 1
    outer loop
      vertex 86.5 42.025 1
      vertex 84.9039 44.9039 1
      vertex 84.9039 42.025 1
    endloop
  endfacet
  facet normal 0 0 1
    outer loop
      vertex 90.3288 14.685 1
      vertex 87.7812 9.875 1
      vertex 90.2188 9.875 1
    endloop
  endfacet
  facet normal 0 0 1
    outer loop
      vertex 86.5 9.5 1
      vertex 87.7812 9.875 1
      vertex 87.6712 14.685 1
    endloop
  endfacet
  facet normal -0 0 1
    outer loop
      vertex 87.6712 14.685 1
      vertex 87.7812 9.875 1
      vertex 90.3288 14.685 1
    endloop
  endfacet
  facet normal 0 0 1
    outer loop
      vertex 90.2188 39.875 1
      vertex 91.4039 40 1
      vertex 91.0306 41.8767 1
    endloop
  endfacet
  facet normal 0 0 1
    outer loop
      vertex 91.4039 40 1
      vertex 90.3288 25.315 1
      vertex 91.4039 0 1
    endloop
  endfacet
  facet normal -0 0 1
    outer loop
      vertex 90.3288 14.685 1
      vertex 91.4039 0 1
      vertex 90.3288 25.315 1
    endloop
  endfacet
  facet normal 0 0 1
    outer loop
      vertex 91.4039 40 1
      vertex 90.2188 39.875 1
      vertex 90.2188 30.125 1
    endloop
  endfacet
  facet normal 0 0 1
    outer loop
      vertex 87.7812 39.875 1
      vertex 91.0306 41.8767 1
      vertex 89.9676 43.4676 1
    endloop
  endfacet
  facet normal 0 0 1
    outer loop
      vertex 86.5 42.025 1
      vertex 89.9676 43.4676 1
      vertex 88.3766 44.5306 1
    endloop
  endfacet
  facet normal 0 -0 1
    outer loop
      vertex 87.7812 39.875 1
      vertex 89.9676 43.4676 1
      vertex 86.5 42.025 1
    endloop
  endfacet
  facet normal 0 0 1
    outer loop
      vertex 86.5 42.025 1
      vertex 87.7812 30.125 1
      vertex 87.7812 39.875 1
    endloop
  endfacet
  facet normal 0 0 1
    outer loop
      vertex 87.7812 30.125 1
      vertex 86.5 42.025 1
      vertex 87.6712 25.315 1
    endloop
  endfacet
  facet normal 0 0 1
    outer loop
      vertex 91.0306 41.8767 1
      vertex 87.7812 39.875 1
      vertex 90.2188 39.875 1
    endloop
  endfacet
  facet normal 0 0 1
    outer loop
      vertex 86.5 42.025 1
      vertex 88.3766 44.5306 1
      vertex 86.5 44.9039 1
    endloop
  endfacet
  facet normal -0 0 1
    outer loop
      vertex 90.2188 9.875 1
      vertex 91.4039 0 1
      vertex 90.3288 14.685 1
    endloop
  endfacet
  facet normal -0 0 1
    outer loop
      vertex 90.2188 0.125 1
      vertex 91.4039 0 1
      vertex 90.2188 9.875 1
    endloop
  endfacet
  facet normal 0 0 1
    outer loop
      vertex 91.4039 0 1
      vertex 90.2188 0.125 1
      vertex 91.0306 -1.87665 1
    endloop
  endfacet
  facet normal -0 0 1
    outer loop
      vertex 87.7812 0.125 1
      vertex 91.0306 -1.87665 1
      vertex 90.2188 0.125 1
    endloop
  endfacet
  facet normal 0 0 1
    outer loop
      vertex 91.0306 -1.87665 1
      vertex 87.7812 0.125 1
      vertex 89.9676 -3.4676 1
    endloop
  endfacet
  facet normal 0 0 1
    outer loop
      vertex 86.5 -3.475 1
      vertex 89.9676 -3.4676 1
      vertex 87.7812 0.125 1
    endloop
  endfacet
  facet normal 0 0 1
    outer loop
      vertex 86.5 9.5 1
      vertex 87.6712 25.315 1
      vertex 86.5 42.025 1
    endloop
  endfacet
  facet normal 0 0 1
    outer loop
      vertex 87.6712 25.315 1
      vertex 86.5 9.5 1
      vertex 87.6712 14.685 1
    endloop
  endfacet
  facet normal 0 0 1
    outer loop
      vertex 87.7812 9.875 1
      vertex 86.5 9.5 1
      vertex 86.5 7.5 1
    endloop
  endfacet
  facet normal 0 0 1
    outer loop
      vertex 87.7812 9.875 1
      vertex 86.5 7.5 1
      vertex 87.7812 0.125 1
    endloop
  endfacet
  facet normal 0 0 1
    outer loop
      vertex 86.5 -3.475 1
      vertex 87.7812 0.125 1
      vertex 86.5 7.5 1
    endloop
  endfacet
  facet normal 0 0 1
    outer loop
      vertex 89.9676 -3.4676 1
      vertex 86.5 -3.475 1
      vertex 88.3766 -4.53064 1
    endloop
  endfacet
  facet normal 0 0 1
    outer loop
      vertex 86.5 -3.475 1
      vertex 86.5 -4.90393 1
      vertex 88.3766 -4.53064 1
    endloop
  endfacet
  facet normal -0 0 1
    outer loop
      vertex 84.9039 -3.475 1
      vertex 86.5 -4.90393 1
      vertex 86.5 -3.475 1
    endloop
  endfacet
  facet normal 0 0 1
    outer loop
      vertex 86.5 -4.90393 1
      vertex 84.9039 -3.475 1
      vertex 84.9039 -4.90393 1
    endloop
  endfacet
  facet normal 0 0 1
    outer loop
      vertex 91.4039 40 1
      vertex 90.2188 30.125 1
      vertex 90.3288 25.315 1
    endloop
  endfacet
  facet normal -0 0 1
    outer loop
      vertex 87.7812 30.125 1
      vertex 90.3288 25.315 1
      vertex 90.2188 30.125 1
    endloop
  endfacet
  facet normal 0 0 1
    outer loop
      vertex 90.3288 25.315 1
      vertex 87.7812 30.125 1
      vertex 87.6712 25.315 1
    endloop
  endfacet
endsolid OpenSCAD_Model
