solid OpenSCAD_Model
  facet normal 0 -1 0
    outer loop
      vertex -0.224323 -4.99496 0
      vertex 85.5757 -4.99496 1.5
      vertex -0.224323 -4.99496 1.5
    endloop
  endfacet
  facet normal 0 -1 -0
    outer loop
      vertex 85.5757 -4.99496 1.5
      vertex -0.224323 -4.99496 0
      vertex 85.5757 -4.99496 0
    endloop
  endfacet
  facet normal 0 1 -0
    outer loop
      vertex 85.5757 67.795 0
      vertex 49.895 67.795 1.5
      vertex 85.5757 67.795 1.5
    endloop
  endfacet
  facet normal 0 1 0
    outer loop
      vertex 49.895 67.795 1.5
      vertex 85.5757 67.795 0
      vertex 49.895 67.795 0
    endloop
  endfacet
  facet normal 0 1 -0
    outer loop
      vertex 38.905 67.795 0
      vertex -0.224323 67.795 1.5
      vertex 38.905 67.795 1.5
    endloop
  endfacet
  facet normal 0 1 0
    outer loop
      vertex -0.224323 67.795 1.5
      vertex 38.905 67.795 0
      vertex -0.224323 67.795 0
    endloop
  endfacet
  facet normal 0.0448571 -0.998993 0
    outer loop
      vertex 85.5757 -4.99496 0
      vertex 86.4712 -4.95475 1.5
      vertex 85.5757 -4.99496 1.5
    endloop
  endfacet
  facet normal 0.0448571 -0.998993 0
    outer loop
      vertex 86.4712 -4.95475 1.5
      vertex 85.5757 -4.99496 0
      vertex 86.4712 -4.95475 0
    endloop
  endfacet
  facet normal -0.983929 -0.178561 0
    outer loop
      vertex -4.81981 -1.33018 0
      vertex -4.97987 -0.448196 1.5
      vertex -4.97987 -0.448196 0
    endloop
  endfacet
  facet normal -0.983929 -0.178561 0
    outer loop
      vertex -4.97987 -0.448196 1.5
      vertex -4.81981 -1.33018 0
      vertex -4.81981 -1.33018 1.5
    endloop
  endfacet
  facet normal -0.936236 -0.351373 0
    outer loop
      vertex -4.50484 -2.16942 0
      vertex -4.81981 -1.33018 1.5
      vertex -4.81981 -1.33018 0
    endloop
  endfacet
  facet normal -0.936236 -0.351373 0
    outer loop
      vertex -4.81981 -1.33018 1.5
      vertex -4.50484 -2.16942 0
      vertex -4.50484 -2.16942 1.5
    endloop
  endfacet
  facet normal 0.963955 -0.266065 0
    outer loop
      vertex 90.4812 -1.75687 1.5
      vertex 90.7197 -0.892784 0
      vertex 90.7197 -0.892784 1.5
    endloop
  endfacet
  facet normal 0.963955 -0.266065 0
    outer loop
      vertex 90.7197 -0.892784 0
      vertex 90.4812 -1.75687 1.5
      vertex 90.4812 -1.75687 0
    endloop
  endfacet
  facet normal -1 0 0
    outer loop
      vertex -4.97987 -0.448196 0
      vertex -4.97987 63.2482 1.5
      vertex -4.97987 63.2482 0
    endloop
  endfacet
  facet normal -1 -0 0
    outer loop
      vertex -4.97987 63.2482 1.5
      vertex -4.97987 -0.448196 0
      vertex -4.97987 -0.448196 1.5
    endloop
  endfacet
  facet normal -0.623494 -0.781828 0
    outer loop
      vertex -3.45531 -3.61397 0
      vertex -2.75448 -4.17287 1.5
      vertex -3.45531 -3.61397 1.5
    endloop
  endfacet
  facet normal -0.623494 -0.781828 -0
    outer loop
      vertex -2.75448 -4.17287 1.5
      vertex -3.45531 -3.61397 0
      vertex -2.75448 -4.17287 0
    endloop
  endfacet
  facet normal -0.753069 -0.657942 0
    outer loop
      vertex -3.45531 -3.61397 0
      vertex -4.04508 -2.93893 1.5
      vertex -4.04508 -2.93893 0
    endloop
  endfacet
  facet normal -0.753069 -0.657942 0
    outer loop
      vertex -4.04508 -2.93893 1.5
      vertex -3.45531 -3.61397 0
      vertex -3.45531 -3.61397 1.5
    endloop
  endfacet
  facet normal 0.393044 0.91952 -0
    outer loop
      vertex 88.1693 67.203 0
      vertex 87.3451 67.5553 1.5
      vertex 88.1693 67.203 1.5
    endloop
  endfacet
  facet normal 0.393044 0.91952 0
    outer loop
      vertex 87.3451 67.5553 1.5
      vertex 88.1693 67.203 0
      vertex 87.3451 67.5553 0
    endloop
  endfacet
  facet normal 0.691015 -0.72284 0
    outer loop
      vertex 88.9174 -3.90916 0
      vertex 89.5654 -3.28969 1.5
      vertex 88.9174 -3.90916 1.5
    endloop
  endfacet
  facet normal 0.691015 -0.72284 0
    outer loop
      vertex 89.5654 -3.28969 1.5
      vertex 88.9174 -3.90916 0
      vertex 89.5654 -3.28969 0
    endloop
  endfacet
  facet normal 0.222529 -0.974926 0
    outer loop
      vertex 86.4712 -4.95475 0
      vertex 87.3451 -4.75528 1.5
      vertex 86.4712 -4.95475 1.5
    endloop
  endfacet
  facet normal 0.222529 -0.974926 0
    outer loop
      vertex 87.3451 -4.75528 1.5
      vertex 86.4712 -4.95475 0
      vertex 87.3451 -4.75528 0
    endloop
  endfacet
  facet normal 1 -0 0
    outer loop
      vertex 90.8 0 1.5
      vertex 90.8 62.8 0
      vertex 90.8 62.8 1.5
    endloop
  endfacet
  facet normal 1 0 0
    outer loop
      vertex 90.8 62.8 0
      vertex 90.8 0 1.5
      vertex 90.8 0 0
    endloop
  endfacet
  facet normal 0.393044 -0.91952 0
    outer loop
      vertex 87.3451 -4.75528 0
      vertex 88.1693 -4.40298 1.5
      vertex 87.3451 -4.75528 1.5
    endloop
  endfacet
  facet normal 0.393044 -0.91952 0
    outer loop
      vertex 88.1693 -4.40298 1.5
      vertex 87.3451 -4.75528 0
      vertex 88.1693 -4.40298 0
    endloop
  endfacet
  facet normal 0.5509 -0.834571 0
    outer loop
      vertex 88.1693 -4.40298 0
      vertex 88.9174 -3.90916 1.5
      vertex 88.1693 -4.40298 1.5
    endloop
  endfacet
  facet normal 0.5509 -0.834571 0
    outer loop
      vertex 88.9174 -3.90916 1.5
      vertex 88.1693 -4.40298 0
      vertex 88.9174 -3.90916 0
    endloop
  endfacet
  facet normal -0.47381 0.880627 0
    outer loop
      vertex -1.96513 67.3976 0
      vertex -2.75448 66.9729 1.5
      vertex -1.96513 67.3976 1.5
    endloop
  endfacet
  facet normal -0.47381 0.880627 0
    outer loop
      vertex -2.75448 66.9729 1.5
      vertex -1.96513 67.3976 0
      vertex -2.75448 66.9729 0
    endloop
  endfacet
  facet normal 0.900934 0.433956 0
    outer loop
      vertex 90.4812 64.5569 1.5
      vertex 90.0922 65.3645 0
      vertex 90.0922 65.3645 1.5
    endloop
  endfacet
  facet normal 0.900934 0.433956 0
    outer loop
      vertex 90.0922 65.3645 0
      vertex 90.4812 64.5569 1.5
      vertex 90.4812 64.5569 0
    endloop
  endfacet
  facet normal -0.134315 0.990939 0
    outer loop
      vertex -0.224323 67.795 0
      vertex -1.1126 67.6746 1.5
      vertex -0.224323 67.795 1.5
    endloop
  endfacet
  facet normal -0.134315 0.990939 0
    outer loop
      vertex -1.1126 67.6746 1.5
      vertex -0.224323 67.795 0
      vertex -1.1126 67.6746 0
    endloop
  endfacet
  facet normal 0.80906 -0.587726 0
    outer loop
      vertex 89.5654 -3.28969 1.5
      vertex 90.0922 -2.5645 0
      vertex 90.0922 -2.5645 1.5
    endloop
  endfacet
  facet normal 0.80906 -0.587726 0
    outer loop
      vertex 90.0922 -2.5645 0
      vertex 89.5654 -3.28969 1.5
      vertex 89.5654 -3.28969 0
    endloop
  endfacet
  facet normal -0.93623 0.351388 0
    outer loop
      vertex -4.81981 64.1302 0
      vertex -4.50484 64.9694 1.5
      vertex -4.50484 64.9694 0
    endloop
  endfacet
  facet normal -0.93623 0.351388 0
    outer loop
      vertex -4.50484 64.9694 1.5
      vertex -4.81981 64.1302 0
      vertex -4.81981 64.1302 1.5
    endloop
  endfacet
  facet normal 0.0449573 0.998989 -0
    outer loop
      vertex 86.4712 67.7547 0
      vertex 85.5757 67.795 1.5
      vertex 86.4712 67.7547 1.5
    endloop
  endfacet
  facet normal 0.0449573 0.998989 0
    outer loop
      vertex 85.5757 67.795 1.5
      vertex 86.4712 67.7547 0
      vertex 85.5757 67.795 0
    endloop
  endfacet
  facet normal -0.134227 -0.990951 0
    outer loop
      vertex -1.1126 -4.87464 0
      vertex -0.224323 -4.99496 1.5
      vertex -1.1126 -4.87464 1.5
    endloop
  endfacet
  facet normal -0.134227 -0.990951 -0
    outer loop
      vertex -0.224323 -4.99496 1.5
      vertex -1.1126 -4.87464 0
      vertex -0.224323 -4.99496 0
    endloop
  endfacet
  facet normal -0.858449 -0.512899 0
    outer loop
      vertex -4.04508 -2.93893 0
      vertex -4.50484 -2.16942 1.5
      vertex -4.50484 -2.16942 0
    endloop
  endfacet
  facet normal -0.858449 -0.512899 0
    outer loop
      vertex -4.50484 -2.16942 1.5
      vertex -4.04508 -2.93893 0
      vertex -4.04508 -2.93893 1.5
    endloop
  endfacet
  facet normal -0.473871 -0.880594 0
    outer loop
      vertex -2.75448 -4.17287 0
      vertex -1.96513 -4.59764 1.5
      vertex -2.75448 -4.17287 1.5
    endloop
  endfacet
  facet normal -0.473871 -0.880594 -0
    outer loop
      vertex -1.96513 -4.59764 1.5
      vertex -2.75448 -4.17287 0
      vertex -1.96513 -4.59764 0
    endloop
  endfacet
  facet normal -0.623494 0.781828 0
    outer loop
      vertex -2.75448 66.9729 0
      vertex -3.45531 66.414 1.5
      vertex -2.75448 66.9729 1.5
    endloop
  endfacet
  facet normal -0.623494 0.781828 0
    outer loop
      vertex -3.45531 66.414 1.5
      vertex -2.75448 66.9729 0
      vertex -3.45531 66.414 0
    endloop
  endfacet
  facet normal 0.90094 -0.433943 0
    outer loop
      vertex 90.0922 -2.5645 1.5
      vertex 90.4812 -1.75687 0
      vertex 90.4812 -1.75687 1.5
    endloop
  endfacet
  facet normal 0.90094 -0.433943 0
    outer loop
      vertex 90.4812 -1.75687 0
      vertex 90.0922 -2.5645 1.5
      vertex 90.0922 -2.5645 0
    endloop
  endfacet
  facet normal -0.309013 -0.951058 0
    outer loop
      vertex -1.96513 -4.59764 0
      vertex -1.1126 -4.87464 1.5
      vertex -1.96513 -4.59764 1.5
    endloop
  endfacet
  facet normal -0.309013 -0.951058 -0
    outer loop
      vertex -1.1126 -4.87464 1.5
      vertex -1.96513 -4.59764 0
      vertex -1.1126 -4.87464 0
    endloop
  endfacet
  facet normal -0.309013 0.951058 0
    outer loop
      vertex -1.1126 67.6746 0
      vertex -1.96513 67.3976 1.5
      vertex -1.1126 67.6746 1.5
    endloop
  endfacet
  facet normal -0.309013 0.951058 0
    outer loop
      vertex -1.96513 67.3976 1.5
      vertex -1.1126 67.6746 0
      vertex -1.96513 67.3976 0
    endloop
  endfacet
  facet normal 0.691033 0.722824 -0
    outer loop
      vertex 89.5654 66.0897 0
      vertex 88.9174 66.7092 1.5
      vertex 89.5654 66.0897 1.5
    endloop
  endfacet
  facet normal 0.691033 0.722824 0
    outer loop
      vertex 88.9174 66.7092 1.5
      vertex 89.5654 66.0897 0
      vertex 88.9174 66.7092 0
    endloop
  endfacet
  facet normal 0.222455 0.974943 -0
    outer loop
      vertex 87.3451 67.5553 0
      vertex 86.4712 67.7547 1.5
      vertex 87.3451 67.5553 1.5
    endloop
  endfacet
  facet normal 0.222455 0.974943 0
    outer loop
      vertex 86.4712 67.7547 1.5
      vertex 87.3451 67.5553 0
      vertex 86.4712 67.7547 0
    endloop
  endfacet
  facet normal 0.995979 -0.0895817 0
    outer loop
      vertex 90.7197 -0.892784 1.5
      vertex 90.8 0 0
      vertex 90.8 0 1.5
    endloop
  endfacet
  facet normal 0.995979 -0.0895817 0
    outer loop
      vertex 90.8 0 0
      vertex 90.7197 -0.892784 1.5
      vertex 90.7197 -0.892784 0
    endloop
  endfacet
  facet normal -0.753098 0.657909 0
    outer loop
      vertex -4.04508 65.7389 0
      vertex -3.45531 66.414 1.5
      vertex -3.45531 66.414 0
    endloop
  endfacet
  facet normal -0.753098 0.657909 0
    outer loop
      vertex -3.45531 66.414 1.5
      vertex -4.04508 65.7389 0
      vertex -4.04508 65.7389 1.5
    endloop
  endfacet
  facet normal 0.809064 0.587721 0
    outer loop
      vertex 90.0922 65.3645 1.5
      vertex 89.5654 66.0897 0
      vertex 89.5654 66.0897 1.5
    endloop
  endfacet
  facet normal 0.809064 0.587721 0
    outer loop
      vertex 89.5654 66.0897 0
      vertex 90.0922 65.3645 1.5
      vertex 90.0922 65.3645 0
    endloop
  endfacet
  facet normal 0.550884 0.834582 -0
    outer loop
      vertex 88.9174 66.7092 0
      vertex 88.1693 67.203 1.5
      vertex 88.9174 66.7092 1.5
    endloop
  endfacet
  facet normal 0.550884 0.834582 0
    outer loop
      vertex 88.1693 67.203 1.5
      vertex 88.9174 66.7092 0
      vertex 88.1693 67.203 0
    endloop
  endfacet
  facet normal -0.983929 0.178558 0
    outer loop
      vertex -4.97987 63.2482 0
      vertex -4.81981 64.1302 1.5
      vertex -4.81981 64.1302 0
    endloop
  endfacet
  facet normal -0.983929 0.178558 0
    outer loop
      vertex -4.81981 64.1302 1.5
      vertex -4.97987 63.2482 0
      vertex -4.97987 63.2482 1.5
    endloop
  endfacet
  facet normal 0.963956 0.266061 0
    outer loop
      vertex 90.7197 63.6928 1.5
      vertex 90.4812 64.5569 0
      vertex 90.4812 64.5569 1.5
    endloop
  endfacet
  facet normal 0.963956 0.266061 0
    outer loop
      vertex 90.4812 64.5569 0
      vertex 90.7197 63.6928 1.5
      vertex 90.7197 63.6928 0
    endloop
  endfacet
  facet normal -0.858446 0.512904 0
    outer loop
      vertex -4.50484 64.9694 0
      vertex -4.04508 65.7389 1.5
      vertex -4.04508 65.7389 0
    endloop
  endfacet
  facet normal -0.858446 0.512904 0
    outer loop
      vertex -4.04508 65.7389 1.5
      vertex -4.50484 64.9694 0
      vertex -4.50484 64.9694 1.5
    endloop
  endfacet
  facet normal 0.99598 0.0895802 0
    outer loop
      vertex 90.8 62.8 1.5
      vertex 90.7197 63.6928 0
      vertex 90.7197 63.6928 1.5
    endloop
  endfacet
  facet normal 0.99598 0.0895802 0
    outer loop
      vertex 90.7197 63.6928 0
      vertex 90.8 62.8 1.5
      vertex 90.8 62.8 0
    endloop
  endfacet
  facet normal 0 0 1
    outer loop
      vertex 38.905 67.795 1.5
      vertex 40.4 63.95 1.5
      vertex 40.4 66.3 1.5
    endloop
  endfacet
  facet normal 0 0 1
    outer loop
      vertex -1.15 63.95 1.5
      vertex 38.905 67.795 1.5
      vertex -0.224323 67.795 1.5
    endloop
  endfacet
  facet normal 0 0 1
    outer loop
      vertex -1.15 63.95 1.5
      vertex -0.224323 67.795 1.5
      vertex -1.1126 67.6746 1.5
    endloop
  endfacet
  facet normal 0 0 1
    outer loop
      vertex 38.905 67.795 1.5
      vertex -1.15 63.95 1.5
      vertex 40.4 63.95 1.5
    endloop
  endfacet
  facet normal -0 0 1
    outer loop
      vertex -2.75448 66.9729 1.5
      vertex -1.15 63.95 1.5
      vertex -1.96513 67.3976 1.5
    endloop
  endfacet
  facet normal -0 0 1
    outer loop
      vertex -1.96513 67.3976 1.5
      vertex -1.15 63.95 1.5
      vertex -1.1126 67.6746 1.5
    endloop
  endfacet
  facet normal 0 0 1
    outer loop
      vertex 86.95 63.95 1.5
      vertex 90.8 62.8 1.5
      vertex 90.7197 63.6928 1.5
    endloop
  endfacet
  facet normal 0 0 1
    outer loop
      vertex 90.8 62.8 1.5
      vertex 86.95 63.95 1.5
      vertex 90.8 0 1.5
    endloop
  endfacet
  facet normal -0 0 1
    outer loop
      vertex 86.95 63.95 1.5
      vertex 90.7197 63.6928 1.5
      vertex 90.4812 64.5569 1.5
    endloop
  endfacet
  facet normal 0 0 1
    outer loop
      vertex 86.95 -1.15 1.5
      vertex 90.8 0 1.5
      vertex 86.95 63.95 1.5
    endloop
  endfacet
  facet normal 0 0 1
    outer loop
      vertex 86.95 63.95 1.5
      vertex 90.4812 64.5569 1.5
      vertex 90.0922 65.3645 1.5
    endloop
  endfacet
  facet normal 0 0 1
    outer loop
      vertex 90.8 0 1.5
      vertex 86.95 -1.15 1.5
      vertex 90.7197 -0.892784 1.5
    endloop
  endfacet
  facet normal 0 0 1
    outer loop
      vertex 86.95 63.95 1.5
      vertex 90.0922 65.3645 1.5
      vertex 89.5654 66.0897 1.5
    endloop
  endfacet
  facet normal 0 0 1
    outer loop
      vertex 90.7197 -0.892784 1.5
      vertex 86.95 -1.15 1.5
      vertex 90.4812 -1.75687 1.5
    endloop
  endfacet
  facet normal 0 0 1
    outer loop
      vertex 86.95 63.95 1.5
      vertex 89.5654 66.0897 1.5
      vertex 88.9174 66.7092 1.5
    endloop
  endfacet
  facet normal 0 0 1
    outer loop
      vertex 90.4812 -1.75687 1.5
      vertex 86.95 -1.15 1.5
      vertex 90.0922 -2.5645 1.5
    endloop
  endfacet
  facet normal 0 0 1
    outer loop
      vertex 86.95 63.95 1.5
      vertex 88.9174 66.7092 1.5
      vertex 88.1693 67.203 1.5
    endloop
  endfacet
  facet normal 0 0 1
    outer loop
      vertex 90.0922 -2.5645 1.5
      vertex 86.95 -1.15 1.5
      vertex 89.5654 -3.28969 1.5
    endloop
  endfacet
  facet normal 0 0 1
    outer loop
      vertex 86.95 63.95 1.5
      vertex 88.1693 67.203 1.5
      vertex 87.3451 67.5553 1.5
    endloop
  endfacet
  facet normal 0 0 1
    outer loop
      vertex 89.5654 -3.28969 1.5
      vertex 86.95 -1.15 1.5
      vertex 88.9174 -3.90916 1.5
    endloop
  endfacet
  facet normal 0 0 1
    outer loop
      vertex 88.9174 -3.90916 1.5
      vertex 86.95 -1.15 1.5
      vertex 88.1693 -4.40298 1.5
    endloop
  endfacet
  facet normal 0 0 1
    outer loop
      vertex 86.4712 67.7547 1.5
      vertex 86.95 63.95 1.5
      vertex 87.3451 67.5553 1.5
    endloop
  endfacet
  facet normal 0 0 1
    outer loop
      vertex 85.5757 67.795 1.5
      vertex 86.95 63.95 1.5
      vertex 86.4712 67.7547 1.5
    endloop
  endfacet
  facet normal -0 0 1
    outer loop
      vertex 49.895 67.795 1.5
      vertex 86.95 63.95 1.5
      vertex 85.5757 67.795 1.5
    endloop
  endfacet
  facet normal 0 0 1
    outer loop
      vertex 48.4 63.95 1.5
      vertex 49.895 67.795 1.5
      vertex 48.4 66.3 1.5
    endloop
  endfacet
  facet normal 0 0 1
    outer loop
      vertex 49.895 67.795 1.5
      vertex 48.4 63.95 1.5
      vertex 86.95 63.95 1.5
    endloop
  endfacet
  facet normal 0 0 1
    outer loop
      vertex 88.1693 -4.40298 1.5
      vertex 86.95 -1.15 1.5
      vertex 87.3451 -4.75528 1.5
    endloop
  endfacet
  facet normal 0 0 1
    outer loop
      vertex 86.95 -1.15 1.5
      vertex 86.4712 -4.95475 1.5
      vertex 87.3451 -4.75528 1.5
    endloop
  endfacet
  facet normal 0 0 1
    outer loop
      vertex 86.95 -1.15 1.5
      vertex 85.5757 -4.99496 1.5
      vertex 86.4712 -4.95475 1.5
    endloop
  endfacet
  facet normal -0 0 1
    outer loop
      vertex -1.15 -1.15 1.5
      vertex 85.5757 -4.99496 1.5
      vertex 86.95 -1.15 1.5
    endloop
  endfacet
  facet normal 0 0 1
    outer loop
      vertex 85.5757 -4.99496 1.5
      vertex -1.15 -1.15 1.5
      vertex -0.224323 -4.99496 1.5
    endloop
  endfacet
  facet normal 0 0 1
    outer loop
      vertex -0.224323 -4.99496 1.5
      vertex -1.15 -1.15 1.5
      vertex -1.1126 -4.87464 1.5
    endloop
  endfacet
  facet normal 0 0 1
    outer loop
      vertex -1.15 63.95 1.5
      vertex -4.97987 63.2482 1.5
      vertex -1.15 -1.15 1.5
    endloop
  endfacet
  facet normal -0 0 1
    outer loop
      vertex -4.97987 -0.448196 1.5
      vertex -1.15 -1.15 1.5
      vertex -4.97987 63.2482 1.5
    endloop
  endfacet
  facet normal -0 0 1
    outer loop
      vertex -3.45531 66.414 1.5
      vertex -1.15 63.95 1.5
      vertex -2.75448 66.9729 1.5
    endloop
  endfacet
  facet normal 0 -0 1
    outer loop
      vertex -4.81981 -1.33018 1.5
      vertex -1.15 -1.15 1.5
      vertex -4.97987 -0.448196 1.5
    endloop
  endfacet
  facet normal -0 0 1
    outer loop
      vertex -4.04508 65.7389 1.5
      vertex -1.15 63.95 1.5
      vertex -3.45531 66.414 1.5
    endloop
  endfacet
  facet normal 0 0 1
    outer loop
      vertex -1.15 -1.15 1.5
      vertex -1.96513 -4.59764 1.5
      vertex -1.1126 -4.87464 1.5
    endloop
  endfacet
  facet normal -0 0 1
    outer loop
      vertex -4.50484 64.9694 1.5
      vertex -1.15 63.95 1.5
      vertex -4.04508 65.7389 1.5
    endloop
  endfacet
  facet normal 0 0 1
    outer loop
      vertex -1.15 -1.15 1.5
      vertex -2.75448 -4.17287 1.5
      vertex -1.96513 -4.59764 1.5
    endloop
  endfacet
  facet normal -0 0 1
    outer loop
      vertex -4.81981 64.1302 1.5
      vertex -1.15 63.95 1.5
      vertex -4.50484 64.9694 1.5
    endloop
  endfacet
  facet normal 0 0 1
    outer loop
      vertex -1.15 -1.15 1.5
      vertex -3.45531 -3.61397 1.5
      vertex -2.75448 -4.17287 1.5
    endloop
  endfacet
  facet normal 0 0 1
    outer loop
      vertex -1.15 63.95 1.5
      vertex -4.81981 64.1302 1.5
      vertex -4.97987 63.2482 1.5
    endloop
  endfacet
  facet normal 0 0 1
    outer loop
      vertex -1.15 -1.15 1.5
      vertex -4.04508 -2.93893 1.5
      vertex -3.45531 -3.61397 1.5
    endloop
  endfacet
  facet normal 0 0 1
    outer loop
      vertex -1.15 -1.15 1.5
      vertex -4.50484 -2.16942 1.5
      vertex -4.04508 -2.93893 1.5
    endloop
  endfacet
  facet normal 0 0 1
    outer loop
      vertex -1.15 -1.15 1.5
      vertex -4.81981 -1.33018 1.5
      vertex -4.50484 -2.16942 1.5
    endloop
  endfacet
  facet normal 0 0 -1
    outer loop
      vertex 86.95 -1.15 0
      vertex 90.8 0 0
      vertex 90.7197 -0.892784 0
    endloop
  endfacet
  facet normal -0 0 -1
    outer loop
      vertex 90.8 0 0
      vertex 86.95 -1.15 0
      vertex 90.8 62.8 0
    endloop
  endfacet
  facet normal 0 0 -1
    outer loop
      vertex 86.95 -1.15 0
      vertex 90.7197 -0.892784 0
      vertex 90.4812 -1.75687 0
    endloop
  endfacet
  facet normal 0 0 -1
    outer loop
      vertex 86.95 63.95 0
      vertex 90.8 62.8 0
      vertex 86.95 -1.15 0
    endloop
  endfacet
  facet normal 0 0 -1
    outer loop
      vertex 86.95 -1.15 0
      vertex 90.4812 -1.75687 0
      vertex 90.0922 -2.5645 0
    endloop
  endfacet
  facet normal 0 0 -1
    outer loop
      vertex 90.8 62.8 0
      vertex 86.95 63.95 0
      vertex 90.7197 63.6928 0
    endloop
  endfacet
  facet normal 0 0 -1
    outer loop
      vertex 86.95 -1.15 0
      vertex 90.0922 -2.5645 0
      vertex 89.5654 -3.28969 0
    endloop
  endfacet
  facet normal 0 0 -1
    outer loop
      vertex 90.7197 63.6928 0
      vertex 86.95 63.95 0
      vertex 90.4812 64.5569 0
    endloop
  endfacet
  facet normal 0 0 -1
    outer loop
      vertex 86.95 -1.15 0
      vertex 89.5654 -3.28969 0
      vertex 88.9174 -3.90916 0
    endloop
  endfacet
  facet normal -0 0 -1
    outer loop
      vertex 90.4812 64.5569 0
      vertex 86.95 63.95 0
      vertex 90.0922 65.3645 0
    endloop
  endfacet
  facet normal 0 0 -1
    outer loop
      vertex 86.95 -1.15 0
      vertex 88.9174 -3.90916 0
      vertex 88.1693 -4.40298 0
    endloop
  endfacet
  facet normal -0 0 -1
    outer loop
      vertex 90.0922 65.3645 0
      vertex 86.95 63.95 0
      vertex 89.5654 66.0897 0
    endloop
  endfacet
  facet normal 0 0 -1
    outer loop
      vertex 86.95 -1.15 0
      vertex 88.1693 -4.40298 0
      vertex 87.3451 -4.75528 0
    endloop
  endfacet
  facet normal -0 0 -1
    outer loop
      vertex 89.5654 66.0897 0
      vertex 86.95 63.95 0
      vertex 88.9174 66.7092 0
    endloop
  endfacet
  facet normal -0 0 -1
    outer loop
      vertex 88.9174 66.7092 0
      vertex 86.95 63.95 0
      vertex 88.1693 67.203 0
    endloop
  endfacet
  facet normal 0 0 -1
    outer loop
      vertex 86.4712 -4.95475 0
      vertex 86.95 -1.15 0
      vertex 87.3451 -4.75528 0
    endloop
  endfacet
  facet normal 0 0 -1
    outer loop
      vertex 85.5757 -4.99496 0
      vertex 86.95 -1.15 0
      vertex 86.4712 -4.95475 0
    endloop
  endfacet
  facet normal 0 0 -1
    outer loop
      vertex -1.15 -1.15 0
      vertex 85.5757 -4.99496 0
      vertex -0.224323 -4.99496 0
    endloop
  endfacet
  facet normal 0 0 -1
    outer loop
      vertex -1.15 -1.15 0
      vertex -0.224323 -4.99496 0
      vertex -1.1126 -4.87464 0
    endloop
  endfacet
  facet normal 0 0 -1
    outer loop
      vertex 85.5757 -4.99496 0
      vertex -1.15 -1.15 0
      vertex 86.95 -1.15 0
    endloop
  endfacet
  facet normal 0 0 -1
    outer loop
      vertex -2.75448 -4.17287 0
      vertex -1.15 -1.15 0
      vertex -1.96513 -4.59764 0
    endloop
  endfacet
  facet normal 0 0 -1
    outer loop
      vertex -1.96513 -4.59764 0
      vertex -1.15 -1.15 0
      vertex -1.1126 -4.87464 0
    endloop
  endfacet
  facet normal -0 0 -1
    outer loop
      vertex 88.1693 67.203 0
      vertex 86.95 63.95 0
      vertex 87.3451 67.5553 0
    endloop
  endfacet
  facet normal 0 0 -1
    outer loop
      vertex 86.95 63.95 0
      vertex 86.4712 67.7547 0
      vertex 87.3451 67.5553 0
    endloop
  endfacet
  facet normal 0 0 -1
    outer loop
      vertex 86.95 63.95 0
      vertex 85.5757 67.795 0
      vertex 86.4712 67.7547 0
    endloop
  endfacet
  facet normal 0 0 -1
    outer loop
      vertex 86.95 63.95 0
      vertex 49.895 67.795 0
      vertex 85.5757 67.795 0
    endloop
  endfacet
  facet normal 0 0 -1
    outer loop
      vertex 48.4 63.95 0
      vertex 49.895 67.795 0
      vertex 86.95 63.95 0
    endloop
  endfacet
  facet normal 0 0 -1
    outer loop
      vertex 49.895 67.795 0
      vertex 48.4 63.95 0
      vertex 48.4 66.3 0
    endloop
  endfacet
  facet normal 0 0 -1
    outer loop
      vertex 40.4 63.95 0
      vertex 38.905 67.795 0
      vertex 40.4 66.3 0
    endloop
  endfacet
  facet normal 0 0 -1
    outer loop
      vertex -1.15 63.95 0
      vertex 38.905 67.795 0
      vertex 40.4 63.95 0
    endloop
  endfacet
  facet normal -0 0 -1
    outer loop
      vertex 38.905 67.795 0
      vertex -1.15 63.95 0
      vertex -0.224323 67.795 0
    endloop
  endfacet
  facet normal 0 0 -1
    outer loop
      vertex -0.224323 67.795 0
      vertex -1.15 63.95 0
      vertex -1.1126 67.6746 0
    endloop
  endfacet
  facet normal 0 0 -1
    outer loop
      vertex -1.15 -1.15 0
      vertex -4.97987 -0.448196 0
      vertex -1.15 63.95 0
    endloop
  endfacet
  facet normal 0 0 -1
    outer loop
      vertex -4.97987 63.2482 0
      vertex -1.15 63.95 0
      vertex -4.97987 -0.448196 0
    endloop
  endfacet
  facet normal 0 0 -1
    outer loop
      vertex -3.45531 -3.61397 0
      vertex -1.15 -1.15 0
      vertex -2.75448 -4.17287 0
    endloop
  endfacet
  facet normal 0 -0 -1
    outer loop
      vertex -4.81981 64.1302 0
      vertex -1.15 63.95 0
      vertex -4.97987 63.2482 0
    endloop
  endfacet
  facet normal 0 0 -1
    outer loop
      vertex -4.04508 -2.93893 0
      vertex -1.15 -1.15 0
      vertex -3.45531 -3.61397 0
    endloop
  endfacet
  facet normal 0 0 -1
    outer loop
      vertex -1.15 63.95 0
      vertex -1.96513 67.3976 0
      vertex -1.1126 67.6746 0
    endloop
  endfacet
  facet normal 0 0 -1
    outer loop
      vertex -4.50484 -2.16942 0
      vertex -1.15 -1.15 0
      vertex -4.04508 -2.93893 0
    endloop
  endfacet
  facet normal 0 0 -1
    outer loop
      vertex -1.15 63.95 0
      vertex -2.75448 66.9729 0
      vertex -1.96513 67.3976 0
    endloop
  endfacet
  facet normal 0 0 -1
    outer loop
      vertex -4.81981 -1.33018 0
      vertex -1.15 -1.15 0
      vertex -4.50484 -2.16942 0
    endloop
  endfacet
  facet normal 0 0 -1
    outer loop
      vertex -1.15 63.95 0
      vertex -3.45531 66.414 0
      vertex -2.75448 66.9729 0
    endloop
  endfacet
  facet normal -0 0 -1
    outer loop
      vertex -1.15 -1.15 0
      vertex -4.81981 -1.33018 0
      vertex -4.97987 -0.448196 0
    endloop
  endfacet
  facet normal 0 0 -1
    outer loop
      vertex -1.15 63.95 0
      vertex -4.04508 65.7389 0
      vertex -3.45531 66.414 0
    endloop
  endfacet
  facet normal 0 0 -1
    outer loop
      vertex -1.15 63.95 0
      vertex -4.50484 64.9694 0
      vertex -4.04508 65.7389 0
    endloop
  endfacet
  facet normal 0 0 -1
    outer loop
      vertex -1.15 63.95 0
      vertex -4.81981 64.1302 0
      vertex -4.50484 64.9694 0
    endloop
  endfacet
  facet normal -1 0 0
    outer loop
      vertex 48.4 59.8 -3.475
      vertex 48.4 63.95 0
      vertex 48.4 63.95 -3.475
    endloop
  endfacet
  facet normal -1 0 0
    outer loop
      vertex 48.4 59.8 1.525
      vertex 48.4 63.95 0
      vertex 48.4 59.8 -3.475
    endloop
  endfacet
  facet normal -1 0 0
    outer loop
      vertex 48.4 63.95 0
      vertex 48.4 59.8 1.525
      vertex 48.4 63.95 1.5
    endloop
  endfacet
  facet normal -1 0 0
    outer loop
      vertex 48.4 63.95 1.5
      vertex 48.4 59.8 1.525
      vertex 48.4 63.95 1.525
    endloop
  endfacet
  facet normal -1 0 0
    outer loop
      vertex 48.4 63.95 0
      vertex 48.4 66.3 1.5
      vertex 48.4 66.3 0
    endloop
  endfacet
  facet normal -1 -0 0
    outer loop
      vertex 48.4 66.3 1.5
      vertex 48.4 63.95 0
      vertex 48.4 63.95 1.5
    endloop
  endfacet
  facet normal 1 -0 0
    outer loop
      vertex 40.4 59.8 1.525
      vertex 40.4 63.95 1.5
      vertex 40.4 63.95 1.525
    endloop
  endfacet
  facet normal 1 0 0
    outer loop
      vertex 40.4 63.95 1.5
      vertex 40.4 59.8 1.525
      vertex 40.4 63.95 0
    endloop
  endfacet
  facet normal 1 0 0
    outer loop
      vertex 40.4 59.8 -3.475
      vertex 40.4 63.95 0
      vertex 40.4 59.8 1.525
    endloop
  endfacet
  facet normal 1 0 0
    outer loop
      vertex 40.4 63.95 0
      vertex 40.4 59.8 -3.475
      vertex 40.4 63.95 -3.475
    endloop
  endfacet
  facet normal 1 -0 0
    outer loop
      vertex 40.4 63.95 1.5
      vertex 40.4 66.3 0
      vertex 40.4 66.3 1.5
    endloop
  endfacet
  facet normal 1 0 0
    outer loop
      vertex 40.4 66.3 0
      vertex 40.4 63.95 1.5
      vertex 40.4 63.95 0
    endloop
  endfacet
  facet normal 0 1 -0
    outer loop
      vertex 40.4161 59.8 -3.475
      vertex 40.4 59.8 1.525
      vertex 40.4161 59.8 1.525
    endloop
  endfacet
  facet normal 0 1 0
    outer loop
      vertex 40.4 59.8 1.525
      vertex 40.4161 59.8 -3.475
      vertex 40.4 59.8 -3.475
    endloop
  endfacet
  facet normal -0.222537 0.974924 0
    outer loop
      vertex 45.6361 55.9958 -3.475
      vertex 44.9369 55.8362 1.525
      vertex 45.6361 55.9958 1.525
    endloop
  endfacet
  facet normal -0.222537 0.974924 0
    outer loop
      vertex 44.9369 55.8362 1.525
      vertex 45.6361 55.9958 -3.475
      vertex 44.9369 55.8362 -3.475
    endloop
  endfacet
  facet normal 0.936226 0.351398 0
    outer loop
      vertex 40.7961 58.0645 1.525
      vertex 40.5441 58.7359 -3.475
      vertex 40.5441 58.7359 1.525
    endloop
  endfacet
  facet normal 0.936226 0.351398 0
    outer loop
      vertex 40.5441 58.7359 -3.475
      vertex 40.7961 58.0645 1.525
      vertex 40.7961 58.0645 -3.475
    endloop
  endfacet
  facet normal -0.392977 0.919548 0
    outer loop
      vertex 46.2955 56.2776 -3.475
      vertex 45.6361 55.9958 1.525
      vertex 46.2955 56.2776 1.525
    endloop
  endfacet
  facet normal -0.392977 0.919548 0
    outer loop
      vertex 45.6361 55.9958 1.525
      vertex 46.2955 56.2776 -3.475
      vertex 45.6361 55.9958 -3.475
    endloop
  endfacet
  facet normal -0.809044 0.587749 0
    outer loop
      vertex 47.4123 57.1682 -3.475
      vertex 47.8338 57.7484 1.525
      vertex 47.8338 57.7484 -3.475
    endloop
  endfacet
  facet normal -0.809044 0.587749 0
    outer loop
      vertex 47.8338 57.7484 1.525
      vertex 47.4123 57.1682 -3.475
      vertex 47.4123 57.1682 1.525
    endloop
  endfacet
  facet normal -0.55093 0.834552 0
    outer loop
      vertex 46.894 56.6727 -3.475
      vertex 46.2955 56.2776 1.525
      vertex 46.894 56.6727 1.525
    endloop
  endfacet
  facet normal -0.55093 0.834552 0
    outer loop
      vertex 46.2955 56.2776 1.525
      vertex 46.894 56.6727 -3.475
      vertex 46.2955 56.2776 -3.475
    endloop
  endfacet
  facet normal 0.623453 0.781861 -0
    outer loop
      vertex 42.1964 56.4617 -3.475
      vertex 41.6357 56.9088 1.525
      vertex 42.1964 56.4617 1.525
    endloop
  endfacet
  facet normal 0.623453 0.781861 0
    outer loop
      vertex 41.6357 56.9088 1.525
      vertex 42.1964 56.4617 -3.475
      vertex 41.6357 56.9088 -3.475
    endloop
  endfacet
  facet normal -0.995972 0.0896681 0
    outer loop
      vertex 48.3357 59.0858 -3.475
      vertex 48.4 59.8 1.525
      vertex 48.4 59.8 -3.475
    endloop
  endfacet
  facet normal -0.995972 0.0896681 0
    outer loop
      vertex 48.4 59.8 1.525
      vertex 48.3357 59.0858 -3.475
      vertex 48.3357 59.0858 1.525
    endloop
  endfacet
  facet normal -0.963958 0.266054 0
    outer loop
      vertex 48.1449 58.3945 -3.475
      vertex 48.3357 59.0858 1.525
      vertex 48.3357 59.0858 -3.475
    endloop
  endfacet
  facet normal -0.963958 0.266054 0
    outer loop
      vertex 48.3357 59.0858 1.525
      vertex 48.1449 58.3945 -3.475
      vertex 48.1449 58.3945 1.525
    endloop
  endfacet
  facet normal 0.983937 0.178517 0
    outer loop
      vertex 40.5441 58.7359 1.525
      vertex 40.4161 59.4414 -3.475
      vertex 40.4161 59.4414 1.525
    endloop
  endfacet
  facet normal 0.983937 0.178517 0
    outer loop
      vertex 40.4161 59.4414 -3.475
      vertex 40.5441 58.7359 1.525
      vertex 40.5441 58.7359 -3.475
    endloop
  endfacet
  facet normal -0.900994 0.433832 0
    outer loop
      vertex 47.8338 57.7484 -3.475
      vertex 48.1449 58.3945 1.525
      vertex 48.1449 58.3945 -3.475
    endloop
  endfacet
  facet normal -0.900994 0.433832 0
    outer loop
      vertex 48.1449 58.3945 1.525
      vertex 47.8338 57.7484 -3.475
      vertex 47.8338 57.7484 1.525
    endloop
  endfacet
  facet normal -0.0449016 0.998991 0
    outer loop
      vertex 44.9369 55.8362 -3.475
      vertex 44.2205 55.804 1.525
      vertex 44.9369 55.8362 1.525
    endloop
  endfacet
  facet normal -0.0449016 0.998991 0
    outer loop
      vertex 44.2205 55.804 1.525
      vertex 44.9369 55.8362 -3.475
      vertex 44.2205 55.804 -3.475
    endloop
  endfacet
  facet normal 0.309023 0.951055 -0
    outer loop
      vertex 43.5099 55.9003 -3.475
      vertex 42.8279 56.1219 1.525
      vertex 43.5099 55.9003 1.525
    endloop
  endfacet
  facet normal 0.309023 0.951055 0
    outer loop
      vertex 42.8279 56.1219 1.525
      vertex 43.5099 55.9003 -3.475
      vertex 42.8279 56.1219 -3.475
    endloop
  endfacet
  facet normal 0.473842 0.88061 -0
    outer loop
      vertex 42.8279 56.1219 -3.475
      vertex 42.1964 56.4617 1.525
      vertex 42.8279 56.1219 1.525
    endloop
  endfacet
  facet normal 0.473842 0.88061 0
    outer loop
      vertex 42.1964 56.4617 1.525
      vertex 42.8279 56.1219 -3.475
      vertex 42.1964 56.4617 -3.475
    endloop
  endfacet
  facet normal 0.858451 0.512895 0
    outer loop
      vertex 41.1639 57.4489 1.525
      vertex 40.7961 58.0645 -3.475
      vertex 40.7961 58.0645 1.525
    endloop
  endfacet
  facet normal 0.858451 0.512895 0
    outer loop
      vertex 40.7961 58.0645 -3.475
      vertex 41.1639 57.4489 1.525
      vertex 41.1639 57.4489 -3.475
    endloop
  endfacet
  facet normal 0.753121 0.657882 0
    outer loop
      vertex 41.6357 56.9088 1.525
      vertex 41.1639 57.4489 -3.475
      vertex 41.1639 57.4489 1.525
    endloop
  endfacet
  facet normal 0.753121 0.657882 0
    outer loop
      vertex 41.1639 57.4489 -3.475
      vertex 41.6357 56.9088 1.525
      vertex 41.6357 56.9088 -3.475
    endloop
  endfacet
  facet normal -0.691029 0.722827 0
    outer loop
      vertex 47.4123 57.1682 -3.475
      vertex 46.894 56.6727 1.525
      vertex 47.4123 57.1682 1.525
    endloop
  endfacet
  facet normal -0.691029 0.722827 0
    outer loop
      vertex 46.894 56.6727 1.525
      vertex 47.4123 57.1682 -3.475
      vertex 46.894 56.6727 -3.475
    endloop
  endfacet
  facet normal 0.134292 0.990942 -0
    outer loop
      vertex 44.2205 55.804 -3.475
      vertex 43.5099 55.9003 1.525
      vertex 44.2205 55.804 1.525
    endloop
  endfacet
  facet normal 0.134292 0.990942 0
    outer loop
      vertex 43.5099 55.9003 1.525
      vertex 44.2205 55.804 -3.475
      vertex 43.5099 55.9003 -3.475
    endloop
  endfacet
  facet normal 1 -0 0
    outer loop
      vertex 40.4161 59.4414 1.525
      vertex 40.4161 59.8 -3.475
      vertex 40.4161 59.8 1.525
    endloop
  endfacet
  facet normal 1 0 0
    outer loop
      vertex 40.4161 59.8 -3.475
      vertex 40.4161 59.4414 1.525
      vertex 40.4161 59.4414 -3.475
    endloop
  endfacet
  facet normal 0.707107 0.707107 0
    outer loop
      vertex 40.4 66.3 1.5
      vertex 38.905 67.795 0
      vertex 38.905 67.795 1.5
    endloop
  endfacet
  facet normal 0.707107 0.707107 0
    outer loop
      vertex 38.905 67.795 0
      vertex 40.4 66.3 1.5
      vertex 40.4 66.3 0
    endloop
  endfacet
  facet normal -0.707107 0.707107 0
    outer loop
      vertex 48.4 66.3 0
      vertex 49.895 67.795 1.5
      vertex 49.895 67.795 0
    endloop
  endfacet
  facet normal -0.707107 0.707107 0
    outer loop
      vertex 49.895 67.795 1.5
      vertex 48.4 66.3 0
      vertex 48.4 66.3 1.5
    endloop
  endfacet
  facet normal 1 -0 0
    outer loop
      vertex 86.95 -1.15 1.525
      vertex 86.95 63.95 1.5
      vertex 86.95 63.95 1.525
    endloop
  endfacet
  facet normal 1 0 0
    outer loop
      vertex 86.95 63.95 1.5
      vertex 86.95 -1.15 1.525
      vertex 86.95 -1.15 1.5
    endloop
  endfacet
  facet normal 1 -0 0
    outer loop
      vertex 86.95 -1.15 0
      vertex 86.95 63.95 -3.475
      vertex 86.95 63.95 0
    endloop
  endfacet
  facet normal 1 0 0
    outer loop
      vertex 86.95 63.95 -3.475
      vertex 86.95 -1.15 0
      vertex 86.95 -1.15 -3.475
    endloop
  endfacet
  facet normal 0 0 1
    outer loop
      vertex 40.4 63.95 1.525
      vertex -1.15 63.95 1.525
      vertex 40.4 59.8 1.525
    endloop
  endfacet
  facet normal 0 0 1
    outer loop
      vertex 40.4161 59.8 1.525
      vertex 40.4 59.8 1.525
      vertex 40.4161 59.4414 1.525
    endloop
  endfacet
  facet normal 0 0 1
    outer loop
      vertex 48.4 59.8 1.525
      vertex 86.95 63.95 1.525
      vertex 48.4 63.95 1.525
    endloop
  endfacet
  facet normal 0 0 1
    outer loop
      vertex 48.3357 59.0858 1.525
      vertex 86.95 63.95 1.525
      vertex 48.4 59.8 1.525
    endloop
  endfacet
  facet normal 0 0 1
    outer loop
      vertex 48.1449 58.3945 1.525
      vertex 86.95 63.95 1.525
      vertex 48.3357 59.0858 1.525
    endloop
  endfacet
  facet normal 0 0 1
    outer loop
      vertex 47.8338 57.7484 1.525
      vertex 86.95 63.95 1.525
      vertex 48.1449 58.3945 1.525
    endloop
  endfacet
  facet normal 0 0 1
    outer loop
      vertex 47.4123 57.1682 1.525
      vertex 86.95 63.95 1.525
      vertex 47.8338 57.7484 1.525
    endloop
  endfacet
  facet normal 0 0 1
    outer loop
      vertex 86.95 63.95 1.525
      vertex 47.4123 57.1682 1.525
      vertex 86.95 -1.15 1.525
    endloop
  endfacet
  facet normal -0 0 1
    outer loop
      vertex 46.894 56.6727 1.525
      vertex 86.95 -1.15 1.525
      vertex 47.4123 57.1682 1.525
    endloop
  endfacet
  facet normal -0 0 1
    outer loop
      vertex 46.2955 56.2776 1.525
      vertex 86.95 -1.15 1.525
      vertex 46.894 56.6727 1.525
    endloop
  endfacet
  facet normal -0 0 1
    outer loop
      vertex 45.6361 55.9958 1.525
      vertex 86.95 -1.15 1.525
      vertex 46.2955 56.2776 1.525
    endloop
  endfacet
  facet normal -0 0 1
    outer loop
      vertex 44.9369 55.8362 1.525
      vertex 86.95 -1.15 1.525
      vertex 45.6361 55.9958 1.525
    endloop
  endfacet
  facet normal -0 0 1
    outer loop
      vertex 44.2205 55.804 1.525
      vertex 86.95 -1.15 1.525
      vertex 44.9369 55.8362 1.525
    endloop
  endfacet
  facet normal 0 0 1
    outer loop
      vertex -1.15 -1.15 1.525
      vertex 44.2205 55.804 1.525
      vertex 43.5099 55.9003 1.525
    endloop
  endfacet
  facet normal 0 0 1
    outer loop
      vertex -1.15 -1.15 1.525
      vertex 43.5099 55.9003 1.525
      vertex 42.8279 56.1219 1.525
    endloop
  endfacet
  facet normal 0 0 1
    outer loop
      vertex -1.15 -1.15 1.525
      vertex 42.8279 56.1219 1.525
      vertex 42.1964 56.4617 1.525
    endloop
  endfacet
  facet normal 0 0 1
    outer loop
      vertex -1.15 -1.15 1.525
      vertex 42.1964 56.4617 1.525
      vertex 41.6357 56.9088 1.525
    endloop
  endfacet
  facet normal 0 0 1
    outer loop
      vertex -1.15 63.95 1.525
      vertex 41.6357 56.9088 1.525
      vertex 41.1639 57.4489 1.525
    endloop
  endfacet
  facet normal 0 0 1
    outer loop
      vertex -1.15 63.95 1.525
      vertex 40.4161 59.4414 1.525
      vertex 40.4 59.8 1.525
    endloop
  endfacet
  facet normal 0 0 1
    outer loop
      vertex -1.15 63.95 1.525
      vertex 40.5441 58.7359 1.525
      vertex 40.4161 59.4414 1.525
    endloop
  endfacet
  facet normal 0 0 1
    outer loop
      vertex -1.15 63.95 1.525
      vertex 40.7961 58.0645 1.525
      vertex 40.5441 58.7359 1.525
    endloop
  endfacet
  facet normal 0 0 1
    outer loop
      vertex -1.15 63.95 1.525
      vertex 41.1639 57.4489 1.525
      vertex 40.7961 58.0645 1.525
    endloop
  endfacet
  facet normal 0 0 1
    outer loop
      vertex 41.6357 56.9088 1.525
      vertex -1.15 63.95 1.525
      vertex -1.15 -1.15 1.525
    endloop
  endfacet
  facet normal 0 0 1
    outer loop
      vertex 44.2205 55.804 1.525
      vertex -1.15 -1.15 1.525
      vertex 86.95 -1.15 1.525
    endloop
  endfacet
  facet normal 0 0 -1
    outer loop
      vertex 50.9 61.4 -3.475
      vertex 48.3357 59.0858 -3.475
      vertex 48.4 59.8 -3.475
    endloop
  endfacet
  facet normal 0 0 -1
    outer loop
      vertex 50.9 61.4 -3.475
      vertex 48.1449 58.3945 -3.475
      vertex 48.3357 59.0858 -3.475
    endloop
  endfacet
  facet normal 0 0 -1
    outer loop
      vertex 48.9 53.4 -3.475
      vertex 47.8338 57.7484 -3.475
      vertex 48.1449 58.3945 -3.475
    endloop
  endfacet
  facet normal 0 0 -1
    outer loop
      vertex 48.9 53.4 -3.475
      vertex 47.4123 57.1682 -3.475
      vertex 47.8338 57.7484 -3.475
    endloop
  endfacet
  facet normal 0 0 -1
    outer loop
      vertex 48.9 53.4 -3.475
      vertex 46.894 56.6727 -3.475
      vertex 47.4123 57.1682 -3.475
    endloop
  endfacet
  facet normal 0 0 -1
    outer loop
      vertex 48.9 53.4 -3.475
      vertex 46.2955 56.2776 -3.475
      vertex 46.894 56.6727 -3.475
    endloop
  endfacet
  facet normal 0 0 -1
    outer loop
      vertex 48.9 53.4 -3.475
      vertex 45.6361 55.9958 -3.475
      vertex 46.2955 56.2776 -3.475
    endloop
  endfacet
  facet normal 0 0 -1
    outer loop
      vertex 48.9 53.4 -3.475
      vertex 44.9369 55.8362 -3.475
      vertex 45.6361 55.9958 -3.475
    endloop
  endfacet
  facet normal 0 0 -1
    outer loop
      vertex 48.9 53.4 -3.475
      vertex 44.2205 55.804 -3.475
      vertex 44.9369 55.8362 -3.475
    endloop
  endfacet
  facet normal 0 0 -1
    outer loop
      vertex 39.9 53.4 -3.475
      vertex 44.2205 55.804 -3.475
      vertex 48.9 53.4 -3.475
    endloop
  endfacet
  facet normal -0 0 -1
    outer loop
      vertex 44.2205 55.804 -3.475
      vertex 39.9 53.4 -3.475
      vertex 43.5099 55.9003 -3.475
    endloop
  endfacet
  facet normal 0 0 -1
    outer loop
      vertex 40.4161 59.4414 -3.475
      vertex 40.4 59.8 -3.475
      vertex 40.4161 59.8 -3.475
    endloop
  endfacet
  facet normal -0 0 -1
    outer loop
      vertex 43.5099 55.9003 -3.475
      vertex 39.9 53.4 -3.475
      vertex 42.8279 56.1219 -3.475
    endloop
  endfacet
  facet normal 0 0 -1
    outer loop
      vertex 39.9 53.4 -3.475
      vertex 42.1964 56.4617 -3.475
      vertex 42.8279 56.1219 -3.475
    endloop
  endfacet
  facet normal 0 0 -1
    outer loop
      vertex 39.9 53.4 -3.475
      vertex 41.6357 56.9088 -3.475
      vertex 42.1964 56.4617 -3.475
    endloop
  endfacet
  facet normal 0 0 -1
    outer loop
      vertex 39.9 53.4 -3.475
      vertex 41.1639 57.4489 -3.475
      vertex 41.6357 56.9088 -3.475
    endloop
  endfacet
  facet normal 0 0 -1
    outer loop
      vertex 39.9 53.4 -3.475
      vertex 40.7961 58.0645 -3.475
      vertex 41.1639 57.4489 -3.475
    endloop
  endfacet
  facet normal 0 0 -1
    outer loop
      vertex 39.9 53.4 -3.475
      vertex 40.5441 58.7359 -3.475
      vertex 40.7961 58.0645 -3.475
    endloop
  endfacet
  facet normal 0 0 -1
    outer loop
      vertex 37.9 61.4 -3.475
      vertex 40.5441 58.7359 -3.475
      vertex 39.9 53.4 -3.475
    endloop
  endfacet
  facet normal 0 0 -1
    outer loop
      vertex 40.5441 58.7359 -3.475
      vertex 37.9 61.4 -3.475
      vertex 40.4161 59.4414 -3.475
    endloop
  endfacet
  facet normal 0 0 -1
    outer loop
      vertex 40.4161 59.4414 -3.475
      vertex 37.9 61.4 -3.475
      vertex 40.4 59.8 -3.475
    endloop
  endfacet
  facet normal 0 0 -1
    outer loop
      vertex 37.9 61.4 -3.475
      vertex 39.9 53.4 -3.475
      vertex 37.9 30.85 -3.475
    endloop
  endfacet
  facet normal 0 0 -1
    outer loop
      vertex 40.4 59.8 -3.475
      vertex 37.9 61.4 -3.475
      vertex 40.4 63.95 -3.475
    endloop
  endfacet
  facet normal 0 0 -1
    outer loop
      vertex -1.15 63.95 -3.475
      vertex 37.9 61.4 -3.475
      vertex 0.85 61.4 -3.475
    endloop
  endfacet
  facet normal 0 0 -1
    outer loop
      vertex 37.9 61.4 -3.475
      vertex -1.15 63.95 -3.475
      vertex 40.4 63.95 -3.475
    endloop
  endfacet
  facet normal 0 0 -1
    outer loop
      vertex 0.85 30.85 -3.475
      vertex -1.15 63.95 -3.475
      vertex 0.85 61.4 -3.475
    endloop
  endfacet
  facet normal 0 0 -1
    outer loop
      vertex 84.95 28.4 -3.475
      vertex 50.9 30.85 -3.475
      vertex 84.95 30.85 -3.475
    endloop
  endfacet
  facet normal 0 0 -1
    outer loop
      vertex 48.9 53.4 -3.475
      vertex 50.9 30.85 -3.475
      vertex 48.9 30.85 -3.475
    endloop
  endfacet
  facet normal 0 0 -1
    outer loop
      vertex 84.95 28.4 -3.475
      vertex 48.9 30.85 -3.475
      vertex 50.9 30.85 -3.475
    endloop
  endfacet
  facet normal 0 0 -1
    outer loop
      vertex 84.95 28.4 -3.475
      vertex 39.9 30.85 -3.475
      vertex 48.9 30.85 -3.475
    endloop
  endfacet
  facet normal 0 0 -1
    outer loop
      vertex 39.9 30.85 -3.475
      vertex 37.9 30.85 -3.475
      vertex 39.9 53.4 -3.475
    endloop
  endfacet
  facet normal 0 0 -1
    outer loop
      vertex 0.85 28.4 -3.475
      vertex 39.9 30.85 -3.475
      vertex 84.95 28.4 -3.475
    endloop
  endfacet
  facet normal -0 0 -1
    outer loop
      vertex 39.9 30.85 -3.475
      vertex 0.85 28.4 -3.475
      vertex 37.9 30.85 -3.475
    endloop
  endfacet
  facet normal -0 0 -1
    outer loop
      vertex 37.9 30.85 -3.475
      vertex 0.85 28.4 -3.475
      vertex 0.85 30.85 -3.475
    endloop
  endfacet
  facet normal 0 0 -1
    outer loop
      vertex 84.95 28.4 -3.475
      vertex 86.95 -1.15 -3.475
      vertex 84.95 0.85 -3.475
    endloop
  endfacet
  facet normal 0 0 -1
    outer loop
      vertex 86.95 -1.15 -3.475
      vertex 0.85 0.85 -3.475
      vertex 84.95 0.85 -3.475
    endloop
  endfacet
  facet normal 0 0 -1
    outer loop
      vertex -1.15 -1.15 -3.475
      vertex 0.85 28.4 -3.475
      vertex 0.85 0.85 -3.475
    endloop
  endfacet
  facet normal -0 0 -1
    outer loop
      vertex 0.85 28.4 -3.475
      vertex -1.15 -1.15 -3.475
      vertex 0.85 30.85 -3.475
    endloop
  endfacet
  facet normal 0 0 -1
    outer loop
      vertex -1.15 63.95 -3.475
      vertex 0.85 30.85 -3.475
      vertex -1.15 -1.15 -3.475
    endloop
  endfacet
  facet normal 0 0 -1
    outer loop
      vertex -1.15 -1.15 -3.475
      vertex 0.85 0.85 -3.475
      vertex 86.95 -1.15 -3.475
    endloop
  endfacet
  facet normal 0 0 -1
    outer loop
      vertex 86.95 -1.15 -3.475
      vertex 84.95 28.4 -3.475
      vertex 86.95 63.95 -3.475
    endloop
  endfacet
  facet normal 0 0 -1
    outer loop
      vertex 84.95 30.85 -3.475
      vertex 86.95 63.95 -3.475
      vertex 84.95 28.4 -3.475
    endloop
  endfacet
  facet normal 0 0 -1
    outer loop
      vertex 84.95 61.4 -3.475
      vertex 86.95 63.95 -3.475
      vertex 84.95 30.85 -3.475
    endloop
  endfacet
  facet normal 0 0 -1
    outer loop
      vertex 50.9 61.4 -3.475
      vertex 86.95 63.95 -3.475
      vertex 84.95 61.4 -3.475
    endloop
  endfacet
  facet normal 0 0 -1
    outer loop
      vertex 50.9 30.85 -3.475
      vertex 48.9 53.4 -3.475
      vertex 50.9 61.4 -3.475
    endloop
  endfacet
  facet normal 0 0 -1
    outer loop
      vertex 48.1449 58.3945 -3.475
      vertex 50.9 61.4 -3.475
      vertex 48.9 53.4 -3.475
    endloop
  endfacet
  facet normal 0 0 -1
    outer loop
      vertex 50.9 61.4 -3.475
      vertex 48.4 63.95 -3.475
      vertex 86.95 63.95 -3.475
    endloop
  endfacet
  facet normal 0 0 -1
    outer loop
      vertex 48.4 63.95 -3.475
      vertex 50.9 61.4 -3.475
      vertex 48.4 59.8 -3.475
    endloop
  endfacet
  facet normal -1 0 0
    outer loop
      vertex -1.15 -1.15 1.5
      vertex -1.15 63.95 1.525
      vertex -1.15 63.95 1.5
    endloop
  endfacet
  facet normal -1 -0 0
    outer loop
      vertex -1.15 63.95 1.525
      vertex -1.15 -1.15 1.5
      vertex -1.15 -1.15 1.525
    endloop
  endfacet
  facet normal -1 0 0
    outer loop
      vertex -1.15 -1.15 -3.475
      vertex -1.15 63.95 0
      vertex -1.15 63.95 -3.475
    endloop
  endfacet
  facet normal -1 -0 0
    outer loop
      vertex -1.15 63.95 0
      vertex -1.15 -1.15 -3.475
      vertex -1.15 -1.15 0
    endloop
  endfacet
  facet normal 0 1 -0
    outer loop
      vertex 40.4 63.95 1.5
      vertex -1.15 63.95 1.525
      vertex 40.4 63.95 1.525
    endloop
  endfacet
  facet normal 0 1 0
    outer loop
      vertex -1.15 63.95 1.525
      vertex 40.4 63.95 1.5
      vertex -1.15 63.95 1.5
    endloop
  endfacet
  facet normal 0 1 -0
    outer loop
      vertex 86.95 63.95 1.5
      vertex 48.4 63.95 1.525
      vertex 86.95 63.95 1.525
    endloop
  endfacet
  facet normal 0 1 0
    outer loop
      vertex 48.4 63.95 1.525
      vertex 86.95 63.95 1.5
      vertex 48.4 63.95 1.5
    endloop
  endfacet
  facet normal 0 1 -0
    outer loop
      vertex 86.95 63.95 -3.475
      vertex 48.4 63.95 0
      vertex 86.95 63.95 0
    endloop
  endfacet
  facet normal 0 1 0
    outer loop
      vertex 48.4 63.95 0
      vertex 86.95 63.95 -3.475
      vertex 48.4 63.95 -3.475
    endloop
  endfacet
  facet normal 0 1 -0
    outer loop
      vertex 40.4 63.95 -3.475
      vertex -1.15 63.95 0
      vertex 40.4 63.95 0
    endloop
  endfacet
  facet normal 0 1 0
    outer loop
      vertex -1.15 63.95 0
      vertex 40.4 63.95 -3.475
      vertex -1.15 63.95 -3.475
    endloop
  endfacet
  facet normal 0 -1 0
    outer loop
      vertex -1.15 -1.15 1.5
      vertex 86.95 -1.15 1.525
      vertex -1.15 -1.15 1.525
    endloop
  endfacet
  facet normal 0 -1 -0
    outer loop
      vertex 86.95 -1.15 1.525
      vertex -1.15 -1.15 1.5
      vertex 86.95 -1.15 1.5
    endloop
  endfacet
  facet normal 0 -1 0
    outer loop
      vertex -1.15 -1.15 -3.475
      vertex 86.95 -1.15 0
      vertex -1.15 -1.15 0
    endloop
  endfacet
  facet normal 0 -1 -0
    outer loop
      vertex 86.95 -1.15 0
      vertex -1.15 -1.15 -3.475
      vertex 86.95 -1.15 -3.475
    endloop
  endfacet
  facet normal -1 0 0
    outer loop
      vertex 37.9 30.85 -3.475
      vertex 37.9 61.4 0.025
      vertex 37.9 61.4 -3.475
    endloop
  endfacet
  facet normal -1 -0 0
    outer loop
      vertex 37.9 61.4 0.025
      vertex 37.9 30.85 -3.475
      vertex 37.9 30.85 0.025
    endloop
  endfacet
  facet normal 0 0 -1
    outer loop
      vertex 0.85 30.85 0.025
      vertex 37.9 61.4 0.025
      vertex 37.9 30.85 0.025
    endloop
  endfacet
  facet normal -0 0 -1
    outer loop
      vertex 37.9 61.4 0.025
      vertex 0.85 30.85 0.025
      vertex 0.85 61.4 0.025
    endloop
  endfacet
  facet normal 1 -0 0
    outer loop
      vertex 0.85 30.85 0.025
      vertex 0.85 61.4 -3.475
      vertex 0.85 61.4 0.025
    endloop
  endfacet
  facet normal 1 0 0
    outer loop
      vertex 0.85 61.4 -3.475
      vertex 0.85 30.85 0.025
      vertex 0.85 30.85 -3.475
    endloop
  endfacet
  facet normal 0 -1 0
    outer loop
      vertex 0.85 61.4 -3.475
      vertex 37.9 61.4 0.025
      vertex 0.85 61.4 0.025
    endloop
  endfacet
  facet normal 0 -1 -0
    outer loop
      vertex 37.9 61.4 0.025
      vertex 0.85 61.4 -3.475
      vertex 37.9 61.4 -3.475
    endloop
  endfacet
  facet normal 0 1 -0
    outer loop
      vertex 37.9 30.85 -3.475
      vertex 0.85 30.85 0.025
      vertex 37.9 30.85 0.025
    endloop
  endfacet
  facet normal 0 1 0
    outer loop
      vertex 0.85 30.85 0.025
      vertex 37.9 30.85 -3.475
      vertex 0.85 30.85 -3.475
    endloop
  endfacet
  facet normal -1 0 0
    outer loop
      vertex 48.9 30.85 -3.475
      vertex 48.9 53.4 0.025
      vertex 48.9 53.4 -3.475
    endloop
  endfacet
  facet normal -1 -0 0
    outer loop
      vertex 48.9 53.4 0.025
      vertex 48.9 30.85 -3.475
      vertex 48.9 30.85 0.025
    endloop
  endfacet
  facet normal 0 0 -1
    outer loop
      vertex 39.9 30.85 0.025
      vertex 48.9 53.4 0.025
      vertex 48.9 30.85 0.025
    endloop
  endfacet
  facet normal -0 0 -1
    outer loop
      vertex 48.9 53.4 0.025
      vertex 39.9 30.85 0.025
      vertex 39.9 53.4 0.025
    endloop
  endfacet
  facet normal 1 -0 0
    outer loop
      vertex 39.9 30.85 0.025
      vertex 39.9 53.4 -3.475
      vertex 39.9 53.4 0.025
    endloop
  endfacet
  facet normal 1 0 0
    outer loop
      vertex 39.9 53.4 -3.475
      vertex 39.9 30.85 0.025
      vertex 39.9 30.85 -3.475
    endloop
  endfacet
  facet normal 0 -1 0
    outer loop
      vertex 39.9 53.4 -3.475
      vertex 48.9 53.4 0.025
      vertex 39.9 53.4 0.025
    endloop
  endfacet
  facet normal 0 -1 -0
    outer loop
      vertex 48.9 53.4 0.025
      vertex 39.9 53.4 -3.475
      vertex 48.9 53.4 -3.475
    endloop
  endfacet
  facet normal 0 1 -0
    outer loop
      vertex 48.9 30.85 -3.475
      vertex 39.9 30.85 0.025
      vertex 48.9 30.85 0.025
    endloop
  endfacet
  facet normal 0 1 0
    outer loop
      vertex 39.9 30.85 0.025
      vertex 48.9 30.85 -3.475
      vertex 39.9 30.85 -3.475
    endloop
  endfacet
  facet normal -1 0 0
    outer loop
      vertex 84.95 30.85 -3.475
      vertex 84.95 61.4 0.025
      vertex 84.95 61.4 -3.475
    endloop
  endfacet
  facet normal -1 -0 0
    outer loop
      vertex 84.95 61.4 0.025
      vertex 84.95 30.85 -3.475
      vertex 84.95 30.85 0.025
    endloop
  endfacet
  facet normal 0 0 -1
    outer loop
      vertex 50.9 30.85 0.025
      vertex 84.95 61.4 0.025
      vertex 84.95 30.85 0.025
    endloop
  endfacet
  facet normal -0 0 -1
    outer loop
      vertex 84.95 61.4 0.025
      vertex 50.9 30.85 0.025
      vertex 50.9 61.4 0.025
    endloop
  endfacet
  facet normal 1 -0 0
    outer loop
      vertex 50.9 30.85 0.025
      vertex 50.9 61.4 -3.475
      vertex 50.9 61.4 0.025
    endloop
  endfacet
  facet normal 1 0 0
    outer loop
      vertex 50.9 61.4 -3.475
      vertex 50.9 30.85 0.025
      vertex 50.9 30.85 -3.475
    endloop
  endfacet
  facet normal 0 -1 0
    outer loop
      vertex 50.9 61.4 -3.475
      vertex 84.95 61.4 0.025
      vertex 50.9 61.4 0.025
    endloop
  endfacet
  facet normal 0 -1 -0
    outer loop
      vertex 84.95 61.4 0.025
      vertex 50.9 61.4 -3.475
      vertex 84.95 61.4 -3.475
    endloop
  endfacet
  facet normal 0 1 -0
    outer loop
      vertex 84.95 30.85 -3.475
      vertex 50.9 30.85 0.025
      vertex 84.95 30.85 0.025
    endloop
  endfacet
  facet normal 0 1 0
    outer loop
      vertex 50.9 30.85 0.025
      vertex 84.95 30.85 -3.475
      vertex 50.9 30.85 -3.475
    endloop
  endfacet
  facet normal -1 0 0
    outer loop
      vertex 84.95 0.85 -3.475
      vertex 84.95 28.4 0.025
      vertex 84.95 28.4 -3.475
    endloop
  endfacet
  facet normal -1 -0 0
    outer loop
      vertex 84.95 28.4 0.025
      vertex 84.95 0.85 -3.475
      vertex 84.95 0.85 0.025
    endloop
  endfacet
  facet normal 0 0 -1
    outer loop
      vertex 0.85 0.85 0.025
      vertex 84.95 28.4 0.025
      vertex 84.95 0.85 0.025
    endloop
  endfacet
  facet normal -0 0 -1
    outer loop
      vertex 84.95 28.4 0.025
      vertex 0.85 0.85 0.025
      vertex 0.85 28.4 0.025
    endloop
  endfacet
  facet normal 1 -0 0
    outer loop
      vertex 0.85 0.85 0.025
      vertex 0.85 28.4 -3.475
      vertex 0.85 28.4 0.025
    endloop
  endfacet
  facet normal 1 0 0
    outer loop
      vertex 0.85 28.4 -3.475
      vertex 0.85 0.85 0.025
      vertex 0.85 0.85 -3.475
    endloop
  endfacet
  facet normal 0 -1 0
    outer loop
      vertex 0.85 28.4 -3.475
      vertex 84.95 28.4 0.025
      vertex 0.85 28.4 0.025
    endloop
  endfacet
  facet normal 0 -1 -0
    outer loop
      vertex 84.95 28.4 0.025
      vertex 0.85 28.4 -3.475
      vertex 84.95 28.4 -3.475
    endloop
  endfacet
  facet normal 0 1 -0
    outer loop
      vertex 84.95 0.85 -3.475
      vertex 0.85 0.85 0.025
      vertex 84.95 0.85 0.025
    endloop
  endfacet
  facet normal 0 1 0
    outer loop
      vertex 0.85 0.85 0.025
      vertex 84.95 0.85 -3.475
      vertex 0.85 0.85 -3.475
    endloop
  endfacet
endsolid OpenSCAD_Model
