solid OpenSCAD_Model
  facet normal 0 0 1
    outer loop
      vertex 87 44 1.5
      vertex 90.8 42.8 1.5
      vertex 90.7197 43.6928 1.5
    endloop
  endfacet
  facet normal 0 0 1
    outer loop
      vertex 90.8 42.8 1.5
      vertex 87 44 1.5
      vertex 90.8 0 1.5
    endloop
  endfacet
  facet normal -0 0 1
    outer loop
      vertex 87 44 1.5
      vertex 90.7197 43.6928 1.5
      vertex 90.4812 44.5569 1.5
    endloop
  endfacet
  facet normal 0 0 1
    outer loop
      vertex 87 -1.2 1.5
      vertex 90.8 0 1.5
      vertex 87 44 1.5
    endloop
  endfacet
  facet normal 0 0 1
    outer loop
      vertex 87 44 1.5
      vertex 90.4812 44.5569 1.5
      vertex 90.0922 45.3645 1.5
    endloop
  endfacet
  facet normal 0 0 1
    outer loop
      vertex 90.8 0 1.5
      vertex 87 -1.2 1.5
      vertex 90.7197 -0.892784 1.5
    endloop
  endfacet
  facet normal 0 0 1
    outer loop
      vertex 87 44 1.5
      vertex 90.0922 45.3645 1.5
      vertex 89.5654 46.0897 1.5
    endloop
  endfacet
  facet normal 0 0 1
    outer loop
      vertex 90.7197 -0.892784 1.5
      vertex 87 -1.2 1.5
      vertex 90.4812 -1.75687 1.5
    endloop
  endfacet
  facet normal 0 0 1
    outer loop
      vertex 87 44 1.5
      vertex 89.5654 46.0897 1.5
      vertex 88.9174 46.7092 1.5
    endloop
  endfacet
  facet normal 0 0 1
    outer loop
      vertex 90.4812 -1.75687 1.5
      vertex 87 -1.2 1.5
      vertex 90.0922 -2.5645 1.5
    endloop
  endfacet
  facet normal 0 0 1
    outer loop
      vertex 87 44 1.5
      vertex 88.9174 46.7092 1.5
      vertex 88.1693 47.203 1.5
    endloop
  endfacet
  facet normal 0 0 1
    outer loop
      vertex 90.0922 -2.5645 1.5
      vertex 87 -1.2 1.5
      vertex 89.5654 -3.28969 1.5
    endloop
  endfacet
  facet normal 0 0 1
    outer loop
      vertex 87 44 1.5
      vertex 88.1693 47.203 1.5
      vertex 87.3451 47.5553 1.5
    endloop
  endfacet
  facet normal 0 0 1
    outer loop
      vertex 89.5654 -3.28969 1.5
      vertex 87 -1.2 1.5
      vertex 88.9174 -3.90916 1.5
    endloop
  endfacet
  facet normal 0 0 1
    outer loop
      vertex 88.9174 -3.90916 1.5
      vertex 87 -1.2 1.5
      vertex 88.1693 -4.40298 1.5
    endloop
  endfacet
  facet normal 0 0 1
    outer loop
      vertex 86.4712 47.7547 1.5
      vertex 87 44 1.5
      vertex 87.3451 47.5553 1.5
    endloop
  endfacet
  facet normal 0 0 1
    outer loop
      vertex 85.5757 47.795 1.5
      vertex 87 44 1.5
      vertex 86.4712 47.7547 1.5
    endloop
  endfacet
  facet normal 0 0 1
    outer loop
      vertex -1.2 44 1.5
      vertex 85.5757 47.795 1.5
      vertex -0.224323 47.795 1.5
    endloop
  endfacet
  facet normal 0 0 1
    outer loop
      vertex -1.2 44 1.5
      vertex -0.224323 47.795 1.5
      vertex -1.1126 47.6746 1.5
    endloop
  endfacet
  facet normal 0 0 1
    outer loop
      vertex 85.5757 47.795 1.5
      vertex -1.2 44 1.5
      vertex 87 44 1.5
    endloop
  endfacet
  facet normal -0 0 1
    outer loop
      vertex -2.75448 46.9729 1.5
      vertex -1.2 44 1.5
      vertex -1.96513 47.3976 1.5
    endloop
  endfacet
  facet normal -0 0 1
    outer loop
      vertex -1.96513 47.3976 1.5
      vertex -1.2 44 1.5
      vertex -1.1126 47.6746 1.5
    endloop
  endfacet
  facet normal 0 0 1
    outer loop
      vertex 88.1693 -4.40298 1.5
      vertex 87 -1.2 1.5
      vertex 87.3451 -4.75528 1.5
    endloop
  endfacet
  facet normal 0 0 1
    outer loop
      vertex 87 -1.2 1.5
      vertex 86.4712 -4.95475 1.5
      vertex 87.3451 -4.75528 1.5
    endloop
  endfacet
  facet normal 0 0 1
    outer loop
      vertex 87 -1.2 1.5
      vertex 85.5757 -4.99496 1.5
      vertex 86.4712 -4.95475 1.5
    endloop
  endfacet
  facet normal -0 0 1
    outer loop
      vertex 48.4 -1.2 1.5
      vertex 85.5757 -4.99496 1.5
      vertex 87 -1.2 1.5
    endloop
  endfacet
  facet normal 0 0 1
    outer loop
      vertex 85.5757 -4.99496 1.5
      vertex 48.4 -1.2 1.5
      vertex 49.2087 -4.99496 1.5
    endloop
  endfacet
  facet normal 0 0 1
    outer loop
      vertex 49.2087 -4.99496 1.5
      vertex 48.4 -1.2 1.5
      vertex 48.4 -4.18629 1.5
    endloop
  endfacet
  facet normal 0 0 1
    outer loop
      vertex 40.4 -1.2 1.5
      vertex 39.5913 -4.99496 1.5
      vertex 40.4 -4.18629 1.5
    endloop
  endfacet
  facet normal 0 0 1
    outer loop
      vertex 40.4 -1.2 1.5
      vertex -0.224323 -4.99496 1.5
      vertex 39.5913 -4.99496 1.5
    endloop
  endfacet
  facet normal -0 0 1
    outer loop
      vertex -1.2 -1.2 1.5
      vertex -0.224323 -4.99496 1.5
      vertex 40.4 -1.2 1.5
    endloop
  endfacet
  facet normal 0 0 1
    outer loop
      vertex -0.224323 -4.99496 1.5
      vertex -1.2 -1.2 1.5
      vertex -1.1126 -4.87464 1.5
    endloop
  endfacet
  facet normal 0 0 1
    outer loop
      vertex -1.2 -1.2 1.5
      vertex -1.96513 -4.59764 1.5
      vertex -1.1126 -4.87464 1.5
    endloop
  endfacet
  facet normal 0 0 1
    outer loop
      vertex -1.2 44 1.5
      vertex -4.97987 43.2482 1.5
      vertex -1.2 -1.2 1.5
    endloop
  endfacet
  facet normal -0 0 1
    outer loop
      vertex -3.45531 46.414 1.5
      vertex -1.2 44 1.5
      vertex -2.75448 46.9729 1.5
    endloop
  endfacet
  facet normal -0 0 1
    outer loop
      vertex -4.97987 -0.448196 1.5
      vertex -1.2 -1.2 1.5
      vertex -4.97987 43.2482 1.5
    endloop
  endfacet
  facet normal -0 0 1
    outer loop
      vertex -4.04508 45.7389 1.5
      vertex -1.2 44 1.5
      vertex -3.45531 46.414 1.5
    endloop
  endfacet
  facet normal 0 -0 1
    outer loop
      vertex -4.81981 -1.33018 1.5
      vertex -1.2 -1.2 1.5
      vertex -4.97987 -0.448196 1.5
    endloop
  endfacet
  facet normal -0 0 1
    outer loop
      vertex -4.50484 44.9694 1.5
      vertex -1.2 44 1.5
      vertex -4.04508 45.7389 1.5
    endloop
  endfacet
  facet normal 0 0 1
    outer loop
      vertex -1.2 -1.2 1.5
      vertex -2.75448 -4.17287 1.5
      vertex -1.96513 -4.59764 1.5
    endloop
  endfacet
  facet normal -0 0 1
    outer loop
      vertex -4.81981 44.1302 1.5
      vertex -1.2 44 1.5
      vertex -4.50484 44.9694 1.5
    endloop
  endfacet
  facet normal 0 0 1
    outer loop
      vertex -1.2 -1.2 1.5
      vertex -3.45531 -3.61397 1.5
      vertex -2.75448 -4.17287 1.5
    endloop
  endfacet
  facet normal 0 0 1
    outer loop
      vertex -1.2 44 1.5
      vertex -4.81981 44.1302 1.5
      vertex -4.97987 43.2482 1.5
    endloop
  endfacet
  facet normal 0 0 1
    outer loop
      vertex -1.2 -1.2 1.5
      vertex -4.04508 -2.93893 1.5
      vertex -3.45531 -3.61397 1.5
    endloop
  endfacet
  facet normal 0 0 1
    outer loop
      vertex -1.2 -1.2 1.5
      vertex -4.50484 -2.16942 1.5
      vertex -4.04508 -2.93893 1.5
    endloop
  endfacet
  facet normal 0 0 1
    outer loop
      vertex -1.2 -1.2 1.5
      vertex -4.81981 -1.33018 1.5
      vertex -4.50484 -2.16942 1.5
    endloop
  endfacet
  facet normal -0.134315 0.990939 0
    outer loop
      vertex -0.224323 47.795 0
      vertex -1.1126 47.6746 1.5
      vertex -0.224323 47.795 1.5
    endloop
  endfacet
  facet normal -0.134315 0.990939 0
    outer loop
      vertex -1.1126 47.6746 1.5
      vertex -0.224323 47.795 0
      vertex -1.1126 47.6746 0
    endloop
  endfacet
  facet normal -0.309013 0.951058 0
    outer loop
      vertex -1.1126 47.6746 0
      vertex -1.96513 47.3976 1.5
      vertex -1.1126 47.6746 1.5
    endloop
  endfacet
  facet normal -0.309013 0.951058 0
    outer loop
      vertex -1.96513 47.3976 1.5
      vertex -1.1126 47.6746 0
      vertex -1.96513 47.3976 0
    endloop
  endfacet
  facet normal -0.309013 -0.951058 0
    outer loop
      vertex -1.96513 -4.59764 0
      vertex -1.1126 -4.87464 1.5
      vertex -1.96513 -4.59764 1.5
    endloop
  endfacet
  facet normal -0.309013 -0.951058 -0
    outer loop
      vertex -1.1126 -4.87464 1.5
      vertex -1.96513 -4.59764 0
      vertex -1.1126 -4.87464 0
    endloop
  endfacet
  facet normal 0 -1 0
    outer loop
      vertex -0.224323 -4.99496 0
      vertex 39.5913 -4.99496 1.5
      vertex -0.224323 -4.99496 1.5
    endloop
  endfacet
  facet normal 0 -1 -0
    outer loop
      vertex 39.5913 -4.99496 1.5
      vertex -0.224323 -4.99496 0
      vertex 39.5913 -4.99496 0
    endloop
  endfacet
  facet normal 0 -1 0
    outer loop
      vertex 49.2087 -4.99496 0
      vertex 85.5757 -4.99496 1.5
      vertex 49.2087 -4.99496 1.5
    endloop
  endfacet
  facet normal 0 -1 -0
    outer loop
      vertex 85.5757 -4.99496 1.5
      vertex 49.2087 -4.99496 0
      vertex 85.5757 -4.99496 0
    endloop
  endfacet
  facet normal -0.936236 -0.351373 0
    outer loop
      vertex -4.50484 -2.16942 0
      vertex -4.81981 -1.33018 1.5
      vertex -4.81981 -1.33018 0
    endloop
  endfacet
  facet normal -0.936236 -0.351373 0
    outer loop
      vertex -4.81981 -1.33018 1.5
      vertex -4.50484 -2.16942 0
      vertex -4.50484 -2.16942 1.5
    endloop
  endfacet
  facet normal -0.753069 -0.657942 0
    outer loop
      vertex -3.45531 -3.61397 0
      vertex -4.04508 -2.93893 1.5
      vertex -4.04508 -2.93893 0
    endloop
  endfacet
  facet normal -0.753069 -0.657942 0
    outer loop
      vertex -4.04508 -2.93893 1.5
      vertex -3.45531 -3.61397 0
      vertex -3.45531 -3.61397 1.5
    endloop
  endfacet
  facet normal 0.393044 0.91952 -0
    outer loop
      vertex 88.1693 47.203 0
      vertex 87.3451 47.5553 1.5
      vertex 88.1693 47.203 1.5
    endloop
  endfacet
  facet normal 0.393044 0.91952 0
    outer loop
      vertex 87.3451 47.5553 1.5
      vertex 88.1693 47.203 0
      vertex 87.3451 47.5553 0
    endloop
  endfacet
  facet normal -0.473871 -0.880594 0
    outer loop
      vertex -2.75448 -4.17287 0
      vertex -1.96513 -4.59764 1.5
      vertex -2.75448 -4.17287 1.5
    endloop
  endfacet
  facet normal -0.473871 -0.880594 -0
    outer loop
      vertex -1.96513 -4.59764 1.5
      vertex -2.75448 -4.17287 0
      vertex -1.96513 -4.59764 0
    endloop
  endfacet
  facet normal 0.0449573 0.998989 -0
    outer loop
      vertex 86.4712 47.7547 0
      vertex 85.5757 47.795 1.5
      vertex 86.4712 47.7547 1.5
    endloop
  endfacet
  facet normal 0.0449573 0.998989 0
    outer loop
      vertex 85.5757 47.795 1.5
      vertex 86.4712 47.7547 0
      vertex 85.5757 47.795 0
    endloop
  endfacet
  facet normal -0.983929 -0.178561 0
    outer loop
      vertex -4.81981 -1.33018 0
      vertex -4.97987 -0.448196 1.5
      vertex -4.97987 -0.448196 0
    endloop
  endfacet
  facet normal -0.983929 -0.178561 0
    outer loop
      vertex -4.97987 -0.448196 1.5
      vertex -4.81981 -1.33018 0
      vertex -4.81981 -1.33018 1.5
    endloop
  endfacet
  facet normal -1 0 0
    outer loop
      vertex -4.97987 -0.448196 0
      vertex -4.97987 43.2482 1.5
      vertex -4.97987 43.2482 0
    endloop
  endfacet
  facet normal -1 -0 0
    outer loop
      vertex -4.97987 43.2482 1.5
      vertex -4.97987 -0.448196 0
      vertex -4.97987 -0.448196 1.5
    endloop
  endfacet
  facet normal 0.995979 -0.0895817 0
    outer loop
      vertex 90.7197 -0.892784 1.5
      vertex 90.8 0 0
      vertex 90.8 0 1.5
    endloop
  endfacet
  facet normal 0.995979 -0.0895817 0
    outer loop
      vertex 90.8 0 0
      vertex 90.7197 -0.892784 1.5
      vertex 90.7197 -0.892784 0
    endloop
  endfacet
  facet normal -0.983929 0.178558 0
    outer loop
      vertex -4.97987 43.2482 0
      vertex -4.81981 44.1302 1.5
      vertex -4.81981 44.1302 0
    endloop
  endfacet
  facet normal -0.983929 0.178558 0
    outer loop
      vertex -4.81981 44.1302 1.5
      vertex -4.97987 43.2482 0
      vertex -4.97987 43.2482 1.5
    endloop
  endfacet
  facet normal 0.393044 -0.91952 0
    outer loop
      vertex 87.3451 -4.75528 0
      vertex 88.1693 -4.40298 1.5
      vertex 87.3451 -4.75528 1.5
    endloop
  endfacet
  facet normal 0.393044 -0.91952 0
    outer loop
      vertex 88.1693 -4.40298 1.5
      vertex 87.3451 -4.75528 0
      vertex 88.1693 -4.40298 0
    endloop
  endfacet
  facet normal -0.134227 -0.990951 0
    outer loop
      vertex -1.1126 -4.87464 0
      vertex -0.224323 -4.99496 1.5
      vertex -1.1126 -4.87464 1.5
    endloop
  endfacet
  facet normal -0.134227 -0.990951 -0
    outer loop
      vertex -0.224323 -4.99496 1.5
      vertex -1.1126 -4.87464 0
      vertex -0.224323 -4.99496 0
    endloop
  endfacet
  facet normal 0.550884 0.834582 -0
    outer loop
      vertex 88.9174 46.7092 0
      vertex 88.1693 47.203 1.5
      vertex 88.9174 46.7092 1.5
    endloop
  endfacet
  facet normal 0.550884 0.834582 0
    outer loop
      vertex 88.1693 47.203 1.5
      vertex 88.9174 46.7092 0
      vertex 88.1693 47.203 0
    endloop
  endfacet
  facet normal 0.0448571 -0.998993 0
    outer loop
      vertex 85.5757 -4.99496 0
      vertex 86.4712 -4.95475 1.5
      vertex 85.5757 -4.99496 1.5
    endloop
  endfacet
  facet normal 0.0448571 -0.998993 0
    outer loop
      vertex 86.4712 -4.95475 1.5
      vertex 85.5757 -4.99496 0
      vertex 86.4712 -4.95475 0
    endloop
  endfacet
  facet normal -0.47381 0.880627 0
    outer loop
      vertex -1.96513 47.3976 0
      vertex -2.75448 46.9729 1.5
      vertex -1.96513 47.3976 1.5
    endloop
  endfacet
  facet normal -0.47381 0.880627 0
    outer loop
      vertex -2.75448 46.9729 1.5
      vertex -1.96513 47.3976 0
      vertex -2.75448 46.9729 0
    endloop
  endfacet
  facet normal 0.809064 0.587721 0
    outer loop
      vertex 90.0922 45.3645 1.5
      vertex 89.5654 46.0897 0
      vertex 89.5654 46.0897 1.5
    endloop
  endfacet
  facet normal 0.809064 0.587721 0
    outer loop
      vertex 89.5654 46.0897 0
      vertex 90.0922 45.3645 1.5
      vertex 90.0922 45.3645 0
    endloop
  endfacet
  facet normal -0.623494 -0.781828 0
    outer loop
      vertex -3.45531 -3.61397 0
      vertex -2.75448 -4.17287 1.5
      vertex -3.45531 -3.61397 1.5
    endloop
  endfacet
  facet normal -0.623494 -0.781828 -0
    outer loop
      vertex -2.75448 -4.17287 1.5
      vertex -3.45531 -3.61397 0
      vertex -2.75448 -4.17287 0
    endloop
  endfacet
  facet normal -0.858449 -0.512899 0
    outer loop
      vertex -4.04508 -2.93893 0
      vertex -4.50484 -2.16942 1.5
      vertex -4.50484 -2.16942 0
    endloop
  endfacet
  facet normal -0.858449 -0.512899 0
    outer loop
      vertex -4.50484 -2.16942 1.5
      vertex -4.04508 -2.93893 0
      vertex -4.04508 -2.93893 1.5
    endloop
  endfacet
  facet normal 0.90094 -0.433943 0
    outer loop
      vertex 90.0922 -2.5645 1.5
      vertex 90.4812 -1.75687 0
      vertex 90.4812 -1.75687 1.5
    endloop
  endfacet
  facet normal 0.90094 -0.433943 0
    outer loop
      vertex 90.4812 -1.75687 0
      vertex 90.0922 -2.5645 1.5
      vertex 90.0922 -2.5645 0
    endloop
  endfacet
  facet normal 0.691015 -0.72284 0
    outer loop
      vertex 88.9174 -3.90916 0
      vertex 89.5654 -3.28969 1.5
      vertex 88.9174 -3.90916 1.5
    endloop
  endfacet
  facet normal 0.691015 -0.72284 0
    outer loop
      vertex 89.5654 -3.28969 1.5
      vertex 88.9174 -3.90916 0
      vertex 89.5654 -3.28969 0
    endloop
  endfacet
  facet normal 1 -0 0
    outer loop
      vertex 90.8 0 1.5
      vertex 90.8 42.8 0
      vertex 90.8 42.8 1.5
    endloop
  endfacet
  facet normal 1 0 0
    outer loop
      vertex 90.8 42.8 0
      vertex 90.8 0 1.5
      vertex 90.8 0 0
    endloop
  endfacet
  facet normal 0.222529 -0.974926 0
    outer loop
      vertex 86.4712 -4.95475 0
      vertex 87.3451 -4.75528 1.5
      vertex 86.4712 -4.95475 1.5
    endloop
  endfacet
  facet normal 0.222529 -0.974926 0
    outer loop
      vertex 87.3451 -4.75528 1.5
      vertex 86.4712 -4.95475 0
      vertex 87.3451 -4.75528 0
    endloop
  endfacet
  facet normal 0.5509 -0.834571 0
    outer loop
      vertex 88.1693 -4.40298 0
      vertex 88.9174 -3.90916 1.5
      vertex 88.1693 -4.40298 1.5
    endloop
  endfacet
  facet normal 0.5509 -0.834571 0
    outer loop
      vertex 88.9174 -3.90916 1.5
      vertex 88.1693 -4.40298 0
      vertex 88.9174 -3.90916 0
    endloop
  endfacet
  facet normal 0.80906 -0.587726 0
    outer loop
      vertex 89.5654 -3.28969 1.5
      vertex 90.0922 -2.5645 0
      vertex 90.0922 -2.5645 1.5
    endloop
  endfacet
  facet normal 0.80906 -0.587726 0
    outer loop
      vertex 90.0922 -2.5645 0
      vertex 89.5654 -3.28969 1.5
      vertex 89.5654 -3.28969 0
    endloop
  endfacet
  facet normal 0 1 -0
    outer loop
      vertex 85.5757 47.795 0
      vertex -0.224323 47.795 1.5
      vertex 85.5757 47.795 1.5
    endloop
  endfacet
  facet normal 0 1 0
    outer loop
      vertex -0.224323 47.795 1.5
      vertex 85.5757 47.795 0
      vertex -0.224323 47.795 0
    endloop
  endfacet
  facet normal -0.623494 0.781828 0
    outer loop
      vertex -2.75448 46.9729 0
      vertex -3.45531 46.414 1.5
      vertex -2.75448 46.9729 1.5
    endloop
  endfacet
  facet normal -0.623494 0.781828 0
    outer loop
      vertex -3.45531 46.414 1.5
      vertex -2.75448 46.9729 0
      vertex -3.45531 46.414 0
    endloop
  endfacet
  facet normal -0.753098 0.657909 0
    outer loop
      vertex -4.04508 45.7389 0
      vertex -3.45531 46.414 1.5
      vertex -3.45531 46.414 0
    endloop
  endfacet
  facet normal -0.753098 0.657909 0
    outer loop
      vertex -3.45531 46.414 1.5
      vertex -4.04508 45.7389 0
      vertex -4.04508 45.7389 1.5
    endloop
  endfacet
  facet normal -0.93623 0.351388 0
    outer loop
      vertex -4.81981 44.1302 0
      vertex -4.50484 44.9694 1.5
      vertex -4.50484 44.9694 0
    endloop
  endfacet
  facet normal -0.93623 0.351388 0
    outer loop
      vertex -4.50484 44.9694 1.5
      vertex -4.81981 44.1302 0
      vertex -4.81981 44.1302 1.5
    endloop
  endfacet
  facet normal 0.691033 0.722824 -0
    outer loop
      vertex 89.5654 46.0897 0
      vertex 88.9174 46.7092 1.5
      vertex 89.5654 46.0897 1.5
    endloop
  endfacet
  facet normal 0.691033 0.722824 0
    outer loop
      vertex 88.9174 46.7092 1.5
      vertex 89.5654 46.0897 0
      vertex 88.9174 46.7092 0
    endloop
  endfacet
  facet normal 0.963956 0.266061 0
    outer loop
      vertex 90.7197 43.6928 1.5
      vertex 90.4812 44.5569 0
      vertex 90.4812 44.5569 1.5
    endloop
  endfacet
  facet normal 0.963956 0.266061 0
    outer loop
      vertex 90.4812 44.5569 0
      vertex 90.7197 43.6928 1.5
      vertex 90.7197 43.6928 0
    endloop
  endfacet
  facet normal 0.900934 0.433956 0
    outer loop
      vertex 90.4812 44.5569 1.5
      vertex 90.0922 45.3645 0
      vertex 90.0922 45.3645 1.5
    endloop
  endfacet
  facet normal 0.900934 0.433956 0
    outer loop
      vertex 90.0922 45.3645 0
      vertex 90.4812 44.5569 1.5
      vertex 90.4812 44.5569 0
    endloop
  endfacet
  facet normal 0.222455 0.974943 -0
    outer loop
      vertex 87.3451 47.5553 0
      vertex 86.4712 47.7547 1.5
      vertex 87.3451 47.5553 1.5
    endloop
  endfacet
  facet normal 0.222455 0.974943 0
    outer loop
      vertex 86.4712 47.7547 1.5
      vertex 87.3451 47.5553 0
      vertex 86.4712 47.7547 0
    endloop
  endfacet
  facet normal -0.858446 0.512904 0
    outer loop
      vertex -4.50484 44.9694 0
      vertex -4.04508 45.7389 1.5
      vertex -4.04508 45.7389 0
    endloop
  endfacet
  facet normal -0.858446 0.512904 0
    outer loop
      vertex -4.04508 45.7389 1.5
      vertex -4.50484 44.9694 0
      vertex -4.50484 44.9694 1.5
    endloop
  endfacet
  facet normal 0.963955 -0.266065 0
    outer loop
      vertex 90.4812 -1.75687 1.5
      vertex 90.7197 -0.892784 0
      vertex 90.7197 -0.892784 1.5
    endloop
  endfacet
  facet normal 0.963955 -0.266065 0
    outer loop
      vertex 90.7197 -0.892784 0
      vertex 90.4812 -1.75687 1.5
      vertex 90.4812 -1.75687 0
    endloop
  endfacet
  facet normal 0.99598 0.0895802 0
    outer loop
      vertex 90.8 42.8 1.5
      vertex 90.7197 43.6928 0
      vertex 90.7197 43.6928 1.5
    endloop
  endfacet
  facet normal 0.99598 0.0895802 0
    outer loop
      vertex 90.7197 43.6928 0
      vertex 90.8 42.8 1.5
      vertex 90.8 42.8 0
    endloop
  endfacet
  facet normal 0 0 -1
    outer loop
      vertex 39.5913 -4.99496 0
      vertex 40.4 -1.2 0
      vertex 40.4 -4.18629 0
    endloop
  endfacet
  facet normal 0 0 -1
    outer loop
      vertex -0.224323 -4.99496 0
      vertex 40.4 -1.2 0
      vertex 39.5913 -4.99496 0
    endloop
  endfacet
  facet normal 0 0 -1
    outer loop
      vertex -1.2 -1.2 0
      vertex -0.224323 -4.99496 0
      vertex -1.1126 -4.87464 0
    endloop
  endfacet
  facet normal 0 0 -1
    outer loop
      vertex -0.224323 -4.99496 0
      vertex -1.2 -1.2 0
      vertex 40.4 -1.2 0
    endloop
  endfacet
  facet normal 0 0 -1
    outer loop
      vertex -2.75448 -4.17287 0
      vertex -1.2 -1.2 0
      vertex -1.96513 -4.59764 0
    endloop
  endfacet
  facet normal 0 0 -1
    outer loop
      vertex -1.96513 -4.59764 0
      vertex -1.2 -1.2 0
      vertex -1.1126 -4.87464 0
    endloop
  endfacet
  facet normal 0 0 -1
    outer loop
      vertex 87 -1.2 0
      vertex 90.8 0 0
      vertex 90.7197 -0.892784 0
    endloop
  endfacet
  facet normal -0 0 -1
    outer loop
      vertex 90.8 0 0
      vertex 87 -1.2 0
      vertex 90.8 42.8 0
    endloop
  endfacet
  facet normal 0 0 -1
    outer loop
      vertex 87 -1.2 0
      vertex 90.7197 -0.892784 0
      vertex 90.4812 -1.75687 0
    endloop
  endfacet
  facet normal 0 0 -1
    outer loop
      vertex 87 44 0
      vertex 90.8 42.8 0
      vertex 87 -1.2 0
    endloop
  endfacet
  facet normal 0 0 -1
    outer loop
      vertex 87 -1.2 0
      vertex 90.4812 -1.75687 0
      vertex 90.0922 -2.5645 0
    endloop
  endfacet
  facet normal 0 0 -1
    outer loop
      vertex 90.8 42.8 0
      vertex 87 44 0
      vertex 90.7197 43.6928 0
    endloop
  endfacet
  facet normal 0 0 -1
    outer loop
      vertex 87 -1.2 0
      vertex 90.0922 -2.5645 0
      vertex 89.5654 -3.28969 0
    endloop
  endfacet
  facet normal 0 0 -1
    outer loop
      vertex 90.7197 43.6928 0
      vertex 87 44 0
      vertex 90.4812 44.5569 0
    endloop
  endfacet
  facet normal 0 0 -1
    outer loop
      vertex 87 -1.2 0
      vertex 89.5654 -3.28969 0
      vertex 88.9174 -3.90916 0
    endloop
  endfacet
  facet normal -0 0 -1
    outer loop
      vertex 90.4812 44.5569 0
      vertex 87 44 0
      vertex 90.0922 45.3645 0
    endloop
  endfacet
  facet normal 0 0 -1
    outer loop
      vertex 87 -1.2 0
      vertex 88.9174 -3.90916 0
      vertex 88.1693 -4.40298 0
    endloop
  endfacet
  facet normal -0 0 -1
    outer loop
      vertex 90.0922 45.3645 0
      vertex 87 44 0
      vertex 89.5654 46.0897 0
    endloop
  endfacet
  facet normal 0 0 -1
    outer loop
      vertex 87 -1.2 0
      vertex 88.1693 -4.40298 0
      vertex 87.3451 -4.75528 0
    endloop
  endfacet
  facet normal -0 0 -1
    outer loop
      vertex 89.5654 46.0897 0
      vertex 87 44 0
      vertex 88.9174 46.7092 0
    endloop
  endfacet
  facet normal -0 0 -1
    outer loop
      vertex 88.9174 46.7092 0
      vertex 87 44 0
      vertex 88.1693 47.203 0
    endloop
  endfacet
  facet normal 0 0 -1
    outer loop
      vertex 86.4712 -4.95475 0
      vertex 87 -1.2 0
      vertex 87.3451 -4.75528 0
    endloop
  endfacet
  facet normal 0 0 -1
    outer loop
      vertex 85.5757 -4.99496 0
      vertex 87 -1.2 0
      vertex 86.4712 -4.95475 0
    endloop
  endfacet
  facet normal 0 0 -1
    outer loop
      vertex 48.4 -1.2 0
      vertex 85.5757 -4.99496 0
      vertex 49.2087 -4.99496 0
    endloop
  endfacet
  facet normal 0 0 -1
    outer loop
      vertex 48.4 -1.2 0
      vertex 49.2087 -4.99496 0
      vertex 48.4 -4.18629 0
    endloop
  endfacet
  facet normal 0 0 -1
    outer loop
      vertex 85.5757 -4.99496 0
      vertex 48.4 -1.2 0
      vertex 87 -1.2 0
    endloop
  endfacet
  facet normal -0 0 -1
    outer loop
      vertex 88.1693 47.203 0
      vertex 87 44 0
      vertex 87.3451 47.5553 0
    endloop
  endfacet
  facet normal 0 0 -1
    outer loop
      vertex 87 44 0
      vertex 86.4712 47.7547 0
      vertex 87.3451 47.5553 0
    endloop
  endfacet
  facet normal 0 0 -1
    outer loop
      vertex 87 44 0
      vertex 85.5757 47.795 0
      vertex 86.4712 47.7547 0
    endloop
  endfacet
  facet normal 0 0 -1
    outer loop
      vertex -1.2 44 0
      vertex 85.5757 47.795 0
      vertex 87 44 0
    endloop
  endfacet
  facet normal -0 0 -1
    outer loop
      vertex 85.5757 47.795 0
      vertex -1.2 44 0
      vertex -0.224323 47.795 0
    endloop
  endfacet
  facet normal 0 0 -1
    outer loop
      vertex -0.224323 47.795 0
      vertex -1.2 44 0
      vertex -1.1126 47.6746 0
    endloop
  endfacet
  facet normal 0 0 -1
    outer loop
      vertex -1.2 44 0
      vertex -1.96513 47.3976 0
      vertex -1.1126 47.6746 0
    endloop
  endfacet
  facet normal 0 0 -1
    outer loop
      vertex -1.2 -1.2 0
      vertex -4.97987 -0.448196 0
      vertex -1.2 44 0
    endloop
  endfacet
  facet normal 0 0 -1
    outer loop
      vertex -3.45531 -3.61397 0
      vertex -1.2 -1.2 0
      vertex -2.75448 -4.17287 0
    endloop
  endfacet
  facet normal 0 0 -1
    outer loop
      vertex -4.97987 43.2482 0
      vertex -1.2 44 0
      vertex -4.97987 -0.448196 0
    endloop
  endfacet
  facet normal 0 0 -1
    outer loop
      vertex -4.04508 -2.93893 0
      vertex -1.2 -1.2 0
      vertex -3.45531 -3.61397 0
    endloop
  endfacet
  facet normal 0 -0 -1
    outer loop
      vertex -4.81981 44.1302 0
      vertex -1.2 44 0
      vertex -4.97987 43.2482 0
    endloop
  endfacet
  facet normal 0 0 -1
    outer loop
      vertex -4.50484 -2.16942 0
      vertex -1.2 -1.2 0
      vertex -4.04508 -2.93893 0
    endloop
  endfacet
  facet normal 0 0 -1
    outer loop
      vertex -1.2 44 0
      vertex -2.75448 46.9729 0
      vertex -1.96513 47.3976 0
    endloop
  endfacet
  facet normal 0 0 -1
    outer loop
      vertex -4.81981 -1.33018 0
      vertex -1.2 -1.2 0
      vertex -4.50484 -2.16942 0
    endloop
  endfacet
  facet normal 0 0 -1
    outer loop
      vertex -1.2 44 0
      vertex -3.45531 46.414 0
      vertex -2.75448 46.9729 0
    endloop
  endfacet
  facet normal -0 0 -1
    outer loop
      vertex -1.2 -1.2 0
      vertex -4.81981 -1.33018 0
      vertex -4.97987 -0.448196 0
    endloop
  endfacet
  facet normal 0 0 -1
    outer loop
      vertex -1.2 44 0
      vertex -4.04508 45.7389 0
      vertex -3.45531 46.414 0
    endloop
  endfacet
  facet normal 0 0 -1
    outer loop
      vertex -1.2 44 0
      vertex -4.50484 44.9694 0
      vertex -4.04508 45.7389 0
    endloop
  endfacet
  facet normal 0 0 -1
    outer loop
      vertex -1.2 44 0
      vertex -4.81981 44.1302 0
      vertex -4.50484 44.9694 0
    endloop
  endfacet
  facet normal 1 -0 0
    outer loop
      vertex 87 -1.2 1.525
      vertex 87 44 1.5
      vertex 87 44 1.525
    endloop
  endfacet
  facet normal 1 0 0
    outer loop
      vertex 87 44 1.5
      vertex 87 -1.2 1.525
      vertex 87 -1.2 1.5
    endloop
  endfacet
  facet normal 1 -0 0
    outer loop
      vertex 87 -1.2 0
      vertex 87 44 -3.475
      vertex 87 44 0
    endloop
  endfacet
  facet normal 1 0 0
    outer loop
      vertex 87 44 -3.475
      vertex 87 -1.2 0
      vertex 87 -1.2 -3.475
    endloop
  endfacet
  facet normal -0 0 1
    outer loop
      vertex 47.8338 5.0516 1.525
      vertex 87 -1.2 1.525
      vertex 87 44 1.525
    endloop
  endfacet
  facet normal 0 0 1
    outer loop
      vertex 87 -1.2 1.525
      vertex 48.3357 3.71423 1.525
      vertex 48.4 3 1.525
    endloop
  endfacet
  facet normal 0 0 1
    outer loop
      vertex 87 -1.2 1.525
      vertex 48.1449 4.4055 1.525
      vertex 48.3357 3.71423 1.525
    endloop
  endfacet
  facet normal 0 0 1
    outer loop
      vertex 87 -1.2 1.525
      vertex 47.8338 5.0516 1.525
      vertex 48.1449 4.4055 1.525
    endloop
  endfacet
  facet normal 0 0 1
    outer loop
      vertex 87 44 1.525
      vertex 47.4123 5.63175 1.525
      vertex 47.8338 5.0516 1.525
    endloop
  endfacet
  facet normal 0 0 1
    outer loop
      vertex 87 44 1.525
      vertex 46.894 6.12733 1.525
      vertex 47.4123 5.63175 1.525
    endloop
  endfacet
  facet normal 0 0 1
    outer loop
      vertex 87 44 1.525
      vertex 46.2955 6.52238 1.525
      vertex 46.894 6.12733 1.525
    endloop
  endfacet
  facet normal 0 0 1
    outer loop
      vertex 87 44 1.525
      vertex 45.6361 6.80423 1.525
      vertex 46.2955 6.52238 1.525
    endloop
  endfacet
  facet normal 0 0 1
    outer loop
      vertex 87 44 1.525
      vertex 44.9369 6.9638 1.525
      vertex 45.6361 6.80423 1.525
    endloop
  endfacet
  facet normal 0 0 1
    outer loop
      vertex 87 44 1.525
      vertex 44.2205 6.99597 1.525
      vertex 44.9369 6.9638 1.525
    endloop
  endfacet
  facet normal -0 0 1
    outer loop
      vertex -1.2 44 1.525
      vertex 44.2205 6.99597 1.525
      vertex 87 44 1.525
    endloop
  endfacet
  facet normal 0 0 1
    outer loop
      vertex 44.2205 6.99597 1.525
      vertex -1.2 44 1.525
      vertex 43.5099 6.89971 1.525
    endloop
  endfacet
  facet normal 0 0 1
    outer loop
      vertex 43.5099 6.89971 1.525
      vertex -1.2 44 1.525
      vertex 42.8279 6.67811 1.525
    endloop
  endfacet
  facet normal 0 0 1
    outer loop
      vertex 42.8279 6.67811 1.525
      vertex -1.2 44 1.525
      vertex 42.1964 6.33829 1.525
    endloop
  endfacet
  facet normal 0 0 1
    outer loop
      vertex 40.4161 3.35856 1.525
      vertex 40.4 3 1.525
      vertex 40.4161 3 1.525
    endloop
  endfacet
  facet normal 0 0 1
    outer loop
      vertex 42.1964 6.33829 1.525
      vertex -1.2 44 1.525
      vertex 41.6357 5.89118 1.525
    endloop
  endfacet
  facet normal 0 0 1
    outer loop
      vertex -1.2 44 1.525
      vertex 41.1639 5.35114 1.525
      vertex 41.6357 5.89118 1.525
    endloop
  endfacet
  facet normal 0 0 1
    outer loop
      vertex -1.2 -1.2 1.525
      vertex 41.1639 5.35114 1.525
      vertex -1.2 44 1.525
    endloop
  endfacet
  facet normal 0 0 1
    outer loop
      vertex 41.1639 5.35114 1.525
      vertex -1.2 -1.2 1.525
      vertex 40.7961 4.73553 1.525
    endloop
  endfacet
  facet normal 0 0 1
    outer loop
      vertex 40.7961 4.73553 1.525
      vertex -1.2 -1.2 1.525
      vertex 40.5441 4.06415 1.525
    endloop
  endfacet
  facet normal 0 0 1
    outer loop
      vertex 40.5441 4.06415 1.525
      vertex -1.2 -1.2 1.525
      vertex 40.4161 3.35856 1.525
    endloop
  endfacet
  facet normal 0 0 1
    outer loop
      vertex 40.4161 3.35856 1.525
      vertex -1.2 -1.2 1.525
      vertex 40.4 3 1.525
    endloop
  endfacet
  facet normal 0 0 1
    outer loop
      vertex 40.4 3 1.525
      vertex -1.2 -1.2 1.525
      vertex 40.4 -1.2 1.525
    endloop
  endfacet
  facet normal 0 0 1
    outer loop
      vertex 87 -1.2 1.525
      vertex 48.4 3 1.525
      vertex 48.4 -1.2 1.525
    endloop
  endfacet
  facet normal 0 0 -1
    outer loop
      vertex 40.4 -1.2 -3.475
      vertex 0.799999 0.799999 -3.475
      vertex 40.4 0.799999 -3.475
    endloop
  endfacet
  facet normal -0 0 -1
    outer loop
      vertex 0.799999 0.799999 -3.475
      vertex -1.2 -1.2 -3.475
      vertex 0.799999 42 -3.475
    endloop
  endfacet
  facet normal 0 0 -1
    outer loop
      vertex -1.2 -1.2 -3.475
      vertex 0.799999 0.799999 -3.475
      vertex 40.4 -1.2 -3.475
    endloop
  endfacet
  facet normal 0 0 -1
    outer loop
      vertex 87 -1.2 -3.475
      vertex 85 0.799999 -3.475
      vertex 87 44 -3.475
    endloop
  endfacet
  facet normal 0 0 -1
    outer loop
      vertex 48.4 -1.2 -3.475
      vertex 85 0.799999 -3.475
      vertex 87 -1.2 -3.475
    endloop
  endfacet
  facet normal -0 0 -1
    outer loop
      vertex 85 0.799999 -3.475
      vertex 48.4 -1.2 -3.475
      vertex 48.4 0.799999 -3.475
    endloop
  endfacet
  facet normal 0 0 -1
    outer loop
      vertex 85 42 -3.475
      vertex 87 44 -3.475
      vertex 85 0.799999 -3.475
    endloop
  endfacet
  facet normal 0 0 -1
    outer loop
      vertex 0.799999 42 -3.475
      vertex 87 44 -3.475
      vertex 85 42 -3.475
    endloop
  endfacet
  facet normal 0 0 -1
    outer loop
      vertex 0.799999 42 -3.475
      vertex -1.2 44 -3.475
      vertex 87 44 -3.475
    endloop
  endfacet
  facet normal 0 0 -1
    outer loop
      vertex -1.2 44 -3.475
      vertex 0.799999 42 -3.475
      vertex -1.2 -1.2 -3.475
    endloop
  endfacet
  facet normal -1 0 0
    outer loop
      vertex -1.2 -1.2 1.5
      vertex -1.2 44 1.525
      vertex -1.2 44 1.5
    endloop
  endfacet
  facet normal -1 -0 0
    outer loop
      vertex -1.2 44 1.525
      vertex -1.2 -1.2 1.5
      vertex -1.2 -1.2 1.525
    endloop
  endfacet
  facet normal -1 0 0
    outer loop
      vertex -1.2 -1.2 -3.475
      vertex -1.2 44 0
      vertex -1.2 44 -3.475
    endloop
  endfacet
  facet normal -1 -0 0
    outer loop
      vertex -1.2 44 0
      vertex -1.2 -1.2 -3.475
      vertex -1.2 -1.2 0
    endloop
  endfacet
  facet normal 0 1 -0
    outer loop
      vertex 87 44 1.5
      vertex -1.2 44 1.525
      vertex 87 44 1.525
    endloop
  endfacet
  facet normal 0 1 0
    outer loop
      vertex -1.2 44 1.525
      vertex 87 44 1.5
      vertex -1.2 44 1.5
    endloop
  endfacet
  facet normal 0 1 -0
    outer loop
      vertex 87 44 -3.475
      vertex -1.2 44 0
      vertex 87 44 0
    endloop
  endfacet
  facet normal 0 1 0
    outer loop
      vertex -1.2 44 0
      vertex 87 44 -3.475
      vertex -1.2 44 -3.475
    endloop
  endfacet
  facet normal 0 -1 0
    outer loop
      vertex -1.2 -1.2 1.5
      vertex 40.4 -1.2 1.525
      vertex -1.2 -1.2 1.525
    endloop
  endfacet
  facet normal 0 -1 -0
    outer loop
      vertex 40.4 -1.2 1.525
      vertex -1.2 -1.2 1.5
      vertex 40.4 -1.2 1.5
    endloop
  endfacet
  facet normal 0 -1 0
    outer loop
      vertex 48.4 -1.2 1.5
      vertex 87 -1.2 1.525
      vertex 48.4 -1.2 1.525
    endloop
  endfacet
  facet normal 0 -1 -0
    outer loop
      vertex 87 -1.2 1.525
      vertex 48.4 -1.2 1.5
      vertex 87 -1.2 1.5
    endloop
  endfacet
  facet normal 0 -1 0
    outer loop
      vertex 48.4 -1.2 -3.475
      vertex 87 -1.2 0
      vertex 48.4 -1.2 0
    endloop
  endfacet
  facet normal 0 -1 -0
    outer loop
      vertex 87 -1.2 0
      vertex 48.4 -1.2 -3.475
      vertex 87 -1.2 -3.475
    endloop
  endfacet
  facet normal 0 -1 0
    outer loop
      vertex -1.2 -1.2 -3.475
      vertex 40.4 -1.2 0
      vertex -1.2 -1.2 0
    endloop
  endfacet
  facet normal 0 -1 -0
    outer loop
      vertex 40.4 -1.2 0
      vertex -1.2 -1.2 -3.475
      vertex 40.4 -1.2 -3.475
    endloop
  endfacet
  facet normal -1 0 0
    outer loop
      vertex 48.4 -1.2 0
      vertex 48.4 0.799999 -3.475
      vertex 48.4 -1.2 -3.475
    endloop
  endfacet
  facet normal -1 0 0
    outer loop
      vertex 48.4 0.799999 0.0249996
      vertex 48.4 3 1.525
      vertex 48.4 3 0.0249996
    endloop
  endfacet
  facet normal -1 0 0
    outer loop
      vertex 48.4 0.799999 -3.475
      vertex 48.4 -1.2 0
      vertex 48.4 0.799999 0.0249996
    endloop
  endfacet
  facet normal -1 0 0
    outer loop
      vertex 48.4 -1.2 1.5
      vertex 48.4 0.799999 0.0249996
      vertex 48.4 -1.2 0
    endloop
  endfacet
  facet normal -1 0 0
    outer loop
      vertex 48.4 -1.2 1.525
      vertex 48.4 0.799999 0.0249996
      vertex 48.4 -1.2 1.5
    endloop
  endfacet
  facet normal -1 0 0
    outer loop
      vertex 48.4 0.799999 0.0249996
      vertex 48.4 -1.2 1.525
      vertex 48.4 3 1.525
    endloop
  endfacet
  facet normal -1 0 0
    outer loop
      vertex 48.4 -4.18629 0
      vertex 48.4 -1.2 1.5
      vertex 48.4 -1.2 0
    endloop
  endfacet
  facet normal -1 -0 0
    outer loop
      vertex 48.4 -1.2 1.5
      vertex 48.4 -4.18629 0
      vertex 48.4 -4.18629 1.5
    endloop
  endfacet
  facet normal 1 -0 0
    outer loop
      vertex 40.4 -4.18629 1.5
      vertex 40.4 -1.2 0
      vertex 40.4 -1.2 1.5
    endloop
  endfacet
  facet normal 1 0 0
    outer loop
      vertex 40.4 -1.2 0
      vertex 40.4 -4.18629 1.5
      vertex 40.4 -4.18629 0
    endloop
  endfacet
  facet normal 1 0 0
    outer loop
      vertex 40.4 3 1.525
      vertex 40.4 0.799999 0.0249996
      vertex 40.4 3 0.0249996
    endloop
  endfacet
  facet normal 1 -0 0
    outer loop
      vertex 40.4 -1.2 1.525
      vertex 40.4 0.799999 0.0249996
      vertex 40.4 3 1.525
    endloop
  endfacet
  facet normal 1 -0 0
    outer loop
      vertex 40.4 -1.2 1.5
      vertex 40.4 0.799999 0.0249996
      vertex 40.4 -1.2 1.525
    endloop
  endfacet
  facet normal 1 0 0
    outer loop
      vertex 40.4 -1.2 0
      vertex 40.4 0.799999 0.0249996
      vertex 40.4 -1.2 1.5
    endloop
  endfacet
  facet normal 1 0 0
    outer loop
      vertex 40.4 0.799999 0.0249996
      vertex 40.4 -1.2 0
      vertex 40.4 0.799999 -3.475
    endloop
  endfacet
  facet normal 1 0 0
    outer loop
      vertex 40.4 0.799999 -3.475
      vertex 40.4 -1.2 0
      vertex 40.4 -1.2 -3.475
    endloop
  endfacet
  facet normal 0 -1 0
    outer loop
      vertex 40.4 3 0.0249996
      vertex 40.4161 3 1.525
      vertex 40.4 3 1.525
    endloop
  endfacet
  facet normal 0 -1 -0
    outer loop
      vertex 40.4161 3 1.525
      vertex 40.4 3 0.0249996
      vertex 40.4161 3 0.0249996
    endloop
  endfacet
  facet normal -0.963955 -0.266065 0
    outer loop
      vertex 48.3357 3.71423 0.0249996
      vertex 48.1449 4.4055 1.525
      vertex 48.1449 4.4055 0.0249996
    endloop
  endfacet
  facet normal -0.963955 -0.266065 0
    outer loop
      vertex 48.1449 4.4055 1.525
      vertex 48.3357 3.71423 0.0249996
      vertex 48.3357 3.71423 1.525
    endloop
  endfacet
  facet normal -0.995972 -0.0896644 0
    outer loop
      vertex 48.4 3 0.0249996
      vertex 48.3357 3.71423 1.525
      vertex 48.3357 3.71423 0.0249996
    endloop
  endfacet
  facet normal -0.995972 -0.0896644 0
    outer loop
      vertex 48.3357 3.71423 1.525
      vertex 48.4 3 0.0249996
      vertex 48.4 3 1.525
    endloop
  endfacet
  facet normal -0.900994 -0.433832 0
    outer loop
      vertex 48.1449 4.4055 0.0249996
      vertex 47.8338 5.0516 1.525
      vertex 47.8338 5.0516 0.0249996
    endloop
  endfacet
  facet normal -0.900994 -0.433832 0
    outer loop
      vertex 47.8338 5.0516 1.525
      vertex 48.1449 4.4055 0.0249996
      vertex 48.1449 4.4055 1.525
    endloop
  endfacet
  facet normal -0.0448599 -0.998993 0
    outer loop
      vertex 44.2205 6.99597 0.0249996
      vertex 44.9369 6.9638 1.525
      vertex 44.2205 6.99597 1.525
    endloop
  endfacet
  facet normal -0.0448599 -0.998993 -0
    outer loop
      vertex 44.9369 6.9638 1.525
      vertex 44.2205 6.99597 0.0249996
      vertex 44.9369 6.9638 0.0249996
    endloop
  endfacet
  facet normal -0.222497 -0.974933 0
    outer loop
      vertex 44.9369 6.9638 0.0249996
      vertex 45.6361 6.80423 1.525
      vertex 44.9369 6.9638 1.525
    endloop
  endfacet
  facet normal -0.222497 -0.974933 -0
    outer loop
      vertex 45.6361 6.80423 1.525
      vertex 44.9369 6.9638 0.0249996
      vertex 45.6361 6.80423 0.0249996
    endloop
  endfacet
  facet normal 0.858455 -0.512889 0
    outer loop
      vertex 40.7961 4.73553 1.525
      vertex 41.1639 5.35114 0.0249996
      vertex 41.1639 5.35114 1.525
    endloop
  endfacet
  facet normal 0.858455 -0.512889 0
    outer loop
      vertex 41.1639 5.35114 0.0249996
      vertex 40.7961 4.73553 1.525
      vertex 40.7961 4.73553 0.0249996
    endloop
  endfacet
  facet normal 0.134237 -0.990949 0
    outer loop
      vertex 43.5099 6.89971 0.0249996
      vertex 44.2205 6.99597 1.525
      vertex 43.5099 6.89971 1.525
    endloop
  endfacet
  facet normal 0.134237 -0.990949 0
    outer loop
      vertex 44.2205 6.99597 1.525
      vertex 43.5099 6.89971 0.0249996
      vertex 44.2205 6.99597 0.0249996
    endloop
  endfacet
  facet normal 0.473864 -0.880598 0
    outer loop
      vertex 42.1964 6.33829 0.0249996
      vertex 42.8279 6.67811 1.525
      vertex 42.1964 6.33829 1.525
    endloop
  endfacet
  facet normal 0.473864 -0.880598 0
    outer loop
      vertex 42.8279 6.67811 1.525
      vertex 42.1964 6.33829 0.0249996
      vertex 42.8279 6.67811 0.0249996
    endloop
  endfacet
  facet normal 0.753084 -0.657924 0
    outer loop
      vertex 41.1639 5.35114 1.525
      vertex 41.6357 5.89118 0.0249996
      vertex 41.6357 5.89118 1.525
    endloop
  endfacet
  facet normal 0.753084 -0.657924 0
    outer loop
      vertex 41.6357 5.89118 0.0249996
      vertex 41.1639 5.35114 1.525
      vertex 41.1639 5.35114 0.0249996
    endloop
  endfacet
  facet normal -0.809019 -0.587782 0
    outer loop
      vertex 47.8338 5.0516 0.0249996
      vertex 47.4123 5.63175 1.525
      vertex 47.4123 5.63175 0.0249996
    endloop
  endfacet
  facet normal -0.809019 -0.587782 0
    outer loop
      vertex 47.4123 5.63175 1.525
      vertex 47.8338 5.0516 0.0249996
      vertex 47.8338 5.0516 1.525
    endloop
  endfacet
  facet normal 0.309023 -0.951055 0
    outer loop
      vertex 42.8279 6.67811 0.0249996
      vertex 43.5099 6.89971 1.525
      vertex 42.8279 6.67811 1.525
    endloop
  endfacet
  facet normal 0.309023 -0.951055 0
    outer loop
      vertex 43.5099 6.89971 1.525
      vertex 42.8279 6.67811 0.0249996
      vertex 43.5099 6.89971 0.0249996
    endloop
  endfacet
  facet normal 0.623461 -0.781854 0
    outer loop
      vertex 41.6357 5.89118 0.0249996
      vertex 42.1964 6.33829 1.525
      vertex 41.6357 5.89118 1.525
    endloop
  endfacet
  facet normal 0.623461 -0.781854 0
    outer loop
      vertex 42.1964 6.33829 1.525
      vertex 41.6357 5.89118 0.0249996
      vertex 42.1964 6.33829 0.0249996
    endloop
  endfacet
  facet normal -0.550881 -0.834584 0
    outer loop
      vertex 46.2955 6.52238 0.0249996
      vertex 46.894 6.12733 1.525
      vertex 46.2955 6.52238 1.525
    endloop
  endfacet
  facet normal -0.550881 -0.834584 -0
    outer loop
      vertex 46.894 6.12733 1.525
      vertex 46.2955 6.52238 0.0249996
      vertex 46.894 6.12733 0.0249996
    endloop
  endfacet
  facet normal -0.691088 -0.722771 0
    outer loop
      vertex 46.894 6.12733 0.0249996
      vertex 47.4123 5.63175 1.525
      vertex 46.894 6.12733 1.525
    endloop
  endfacet
  facet normal -0.691088 -0.722771 -0
    outer loop
      vertex 47.4123 5.63175 1.525
      vertex 46.894 6.12733 0.0249996
      vertex 47.4123 5.63175 0.0249996
    endloop
  endfacet
  facet normal -0.393036 -0.919523 0
    outer loop
      vertex 45.6361 6.80423 0.0249996
      vertex 46.2955 6.52238 1.525
      vertex 45.6361 6.80423 1.525
    endloop
  endfacet
  facet normal -0.393036 -0.919523 -0
    outer loop
      vertex 46.2955 6.52238 1.525
      vertex 45.6361 6.80423 0.0249996
      vertex 46.2955 6.52238 0.0249996
    endloop
  endfacet
  facet normal 0.983941 -0.178495 0
    outer loop
      vertex 40.4161 3.35856 1.525
      vertex 40.5441 4.06415 0.0249996
      vertex 40.5441 4.06415 1.525
    endloop
  endfacet
  facet normal 0.983941 -0.178495 0
    outer loop
      vertex 40.5441 4.06415 0.0249996
      vertex 40.4161 3.35856 1.525
      vertex 40.4161 3.35856 0.0249996
    endloop
  endfacet
  facet normal 0.936223 -0.351408 0
    outer loop
      vertex 40.5441 4.06415 1.525
      vertex 40.7961 4.73553 0.0249996
      vertex 40.7961 4.73553 1.525
    endloop
  endfacet
  facet normal 0.936223 -0.351408 0
    outer loop
      vertex 40.7961 4.73553 0.0249996
      vertex 40.5441 4.06415 1.525
      vertex 40.5441 4.06415 0.0249996
    endloop
  endfacet
  facet normal 1 -0 0
    outer loop
      vertex 40.4161 3 1.525
      vertex 40.4161 3.35856 0.0249996
      vertex 40.4161 3.35856 1.525
    endloop
  endfacet
  facet normal 1 0 0
    outer loop
      vertex 40.4161 3.35856 0.0249996
      vertex 40.4161 3 1.525
      vertex 40.4161 3 0.0249996
    endloop
  endfacet
  facet normal 0.707094 -0.70712 0
    outer loop
      vertex 39.5913 -4.99496 0
      vertex 40.4 -4.18629 1.5
      vertex 39.5913 -4.99496 1.5
    endloop
  endfacet
  facet normal 0.707094 -0.70712 0
    outer loop
      vertex 40.4 -4.18629 1.5
      vertex 39.5913 -4.99496 0
      vertex 40.4 -4.18629 0
    endloop
  endfacet
  facet normal -0.707094 -0.70712 0
    outer loop
      vertex 49.2087 -4.99496 0
      vertex 48.4 -4.18629 1.5
      vertex 48.4 -4.18629 0
    endloop
  endfacet
  facet normal -0.707094 -0.70712 0
    outer loop
      vertex 48.4 -4.18629 1.5
      vertex 49.2087 -4.99496 0
      vertex 49.2087 -4.99496 1.5
    endloop
  endfacet
  facet normal -1 0 0
    outer loop
      vertex 85 0.799999 -3.475
      vertex 85 42 0.0249996
      vertex 85 42 -3.475
    endloop
  endfacet
  facet normal -1 -0 0
    outer loop
      vertex 85 42 0.0249996
      vertex 85 0.799999 -3.475
      vertex 85 0.799999 0.0249996
    endloop
  endfacet
  facet normal 0 0 -1
    outer loop
      vertex 40.4 0.799999 0.0249996
      vertex 0.799999 0.799999 0.0249996
      vertex 40.4 3 0.0249996
    endloop
  endfacet
  facet normal 0 0 -1
    outer loop
      vertex 40.4161 3 0.0249996
      vertex 40.4 3 0.0249996
      vertex 40.4161 3.35856 0.0249996
    endloop
  endfacet
  facet normal 0 0 -1
    outer loop
      vertex 48.4 3 0.0249996
      vertex 85 0.799999 0.0249996
      vertex 48.4 0.799999 0.0249996
    endloop
  endfacet
  facet normal 0 0 -1
    outer loop
      vertex 48.3357 3.71423 0.0249996
      vertex 85 0.799999 0.0249996
      vertex 48.4 3 0.0249996
    endloop
  endfacet
  facet normal 0 0 -1
    outer loop
      vertex 48.1449 4.4055 0.0249996
      vertex 85 0.799999 0.0249996
      vertex 48.3357 3.71423 0.0249996
    endloop
  endfacet
  facet normal 0 0 -1
    outer loop
      vertex 47.8338 5.0516 0.0249996
      vertex 85 0.799999 0.0249996
      vertex 48.1449 4.4055 0.0249996
    endloop
  endfacet
  facet normal 0 0 -1
    outer loop
      vertex 47.4123 5.63175 0.0249996
      vertex 85 0.799999 0.0249996
      vertex 47.8338 5.0516 0.0249996
    endloop
  endfacet
  facet normal 0 0 -1
    outer loop
      vertex 85 0.799999 0.0249996
      vertex 47.4123 5.63175 0.0249996
      vertex 85 42 0.0249996
    endloop
  endfacet
  facet normal 0 0 -1
    outer loop
      vertex 46.894 6.12733 0.0249996
      vertex 85 42 0.0249996
      vertex 47.4123 5.63175 0.0249996
    endloop
  endfacet
  facet normal 0 0 -1
    outer loop
      vertex 46.2955 6.52238 0.0249996
      vertex 85 42 0.0249996
      vertex 46.894 6.12733 0.0249996
    endloop
  endfacet
  facet normal 0 0 -1
    outer loop
      vertex 45.6361 6.80423 0.0249996
      vertex 85 42 0.0249996
      vertex 46.2955 6.52238 0.0249996
    endloop
  endfacet
  facet normal 0 0 -1
    outer loop
      vertex 44.9369 6.9638 0.0249996
      vertex 85 42 0.0249996
      vertex 45.6361 6.80423 0.0249996
    endloop
  endfacet
  facet normal 0 0 -1
    outer loop
      vertex 44.2205 6.99597 0.0249996
      vertex 85 42 0.0249996
      vertex 44.9369 6.9638 0.0249996
    endloop
  endfacet
  facet normal 0 0 -1
    outer loop
      vertex 0.799999 42 0.0249996
      vertex 44.2205 6.99597 0.0249996
      vertex 43.5099 6.89971 0.0249996
    endloop
  endfacet
  facet normal 0 0 -1
    outer loop
      vertex 0.799999 42 0.0249996
      vertex 43.5099 6.89971 0.0249996
      vertex 42.8279 6.67811 0.0249996
    endloop
  endfacet
  facet normal 0 0 -1
    outer loop
      vertex 0.799999 42 0.0249996
      vertex 42.8279 6.67811 0.0249996
      vertex 42.1964 6.33829 0.0249996
    endloop
  endfacet
  facet normal 0 0 -1
    outer loop
      vertex 0.799999 42 0.0249996
      vertex 42.1964 6.33829 0.0249996
      vertex 41.6357 5.89118 0.0249996
    endloop
  endfacet
  facet normal 0 0 -1
    outer loop
      vertex 0.799999 0.799999 0.0249996
      vertex 40.4161 3.35856 0.0249996
      vertex 40.4 3 0.0249996
    endloop
  endfacet
  facet normal 0 0 -1
    outer loop
      vertex 0.799999 0.799999 0.0249996
      vertex 40.5441 4.06415 0.0249996
      vertex 40.4161 3.35856 0.0249996
    endloop
  endfacet
  facet normal 0 0 -1
    outer loop
      vertex 0.799999 0.799999 0.0249996
      vertex 40.7961 4.73553 0.0249996
      vertex 40.5441 4.06415 0.0249996
    endloop
  endfacet
  facet normal 0 0 -1
    outer loop
      vertex 0.799999 0.799999 0.0249996
      vertex 41.1639 5.35114 0.0249996
      vertex 40.7961 4.73553 0.0249996
    endloop
  endfacet
  facet normal 0 0 -1
    outer loop
      vertex 0.799999 42 0.0249996
      vertex 41.1639 5.35114 0.0249996
      vertex 0.799999 0.799999 0.0249996
    endloop
  endfacet
  facet normal 0 0 -1
    outer loop
      vertex 41.1639 5.35114 0.0249996
      vertex 0.799999 42 0.0249996
      vertex 41.6357 5.89118 0.0249996
    endloop
  endfacet
  facet normal 0 0 -1
    outer loop
      vertex 44.2205 6.99597 0.0249996
      vertex 0.799999 42 0.0249996
      vertex 85 42 0.0249996
    endloop
  endfacet
  facet normal 1 -0 0
    outer loop
      vertex 0.799999 0.799999 0.0249996
      vertex 0.799999 42 -3.475
      vertex 0.799999 42 0.0249996
    endloop
  endfacet
  facet normal 1 0 0
    outer loop
      vertex 0.799999 42 -3.475
      vertex 0.799999 0.799999 0.0249996
      vertex 0.799999 0.799999 -3.475
    endloop
  endfacet
  facet normal 0 -1 0
    outer loop
      vertex 0.799999 42 -3.475
      vertex 85 42 0.0249996
      vertex 0.799999 42 0.0249996
    endloop
  endfacet
  facet normal 0 -1 -0
    outer loop
      vertex 85 42 0.0249996
      vertex 0.799999 42 -3.475
      vertex 85 42 -3.475
    endloop
  endfacet
  facet normal 0 1 -0
    outer loop
      vertex 40.4 0.799999 -3.475
      vertex 0.799999 0.799999 0.0249996
      vertex 40.4 0.799999 0.0249996
    endloop
  endfacet
  facet normal 0 1 0
    outer loop
      vertex 0.799999 0.799999 0.0249996
      vertex 40.4 0.799999 -3.475
      vertex 0.799999 0.799999 -3.475
    endloop
  endfacet
  facet normal 0 1 -0
    outer loop
      vertex 85 0.799999 -3.475
      vertex 48.4 0.799999 0.0249996
      vertex 85 0.799999 0.0249996
    endloop
  endfacet
  facet normal 0 1 0
    outer loop
      vertex 48.4 0.799999 0.0249996
      vertex 85 0.799999 -3.475
      vertex 48.4 0.799999 -3.475
    endloop
  endfacet
endsolid OpenSCAD_Model
