solid OpenSCAD_Model
  facet normal -1 0 0
    outer loop
      vertex 0 -16.5 0
      vertex 0 -16.5 16.5
      vertex 0 4 0
    endloop
  endfacet
  facet normal -1 0 0
    outer loop
      vertex 0 4 0
      vertex 0 -16.5 16.5
      vertex 0 4 16.5
    endloop
  endfacet
  facet normal -1 0 0
    outer loop
      vertex 0 29 0
      vertex 0 29 16.5
      vertex 0 49.5 0
    endloop
  endfacet
  facet normal -1 0 0
    outer loop
      vertex 0 49.5 0
      vertex 0 29 16.5
      vertex 0 49.5 16.5
    endloop
  endfacet
  facet normal 0 -1 0
    outer loop
      vertex 4 -16.5 0
      vertex 0 -16.5 16.5
      vertex 0 -16.5 0
    endloop
  endfacet
  facet normal 0 -1 0
    outer loop
      vertex 4 -16.5 0
      vertex 4 -16.5 16.5
      vertex 0 -16.5 16.5
    endloop
  endfacet
  facet normal 0 0 -1
    outer loop
      vertex 0 -16.5 0
      vertex 4 0 0
      vertex 4 -16.5 0
    endloop
  endfacet
  facet normal 0 0 -1
    outer loop
      vertex 0 29 0
      vertex 4 33 0
      vertex 16.5 29 0
    endloop
  endfacet
  facet normal -0 0 -1
    outer loop
      vertex 14.0304 13.2336 0
      vertex 11.75 11.7369 0
      vertex 12.339 14.006 0
    endloop
  endfacet
  facet normal 0 -0 -1
    outer loop
      vertex 14.0304 13.2336 0
      vertex 15.4551 11.0836 0
      vertex 13.5449 11.0836 0
    endloop
  endfacet
  facet normal 0 0 -1
    outer loop
      vertex 11.3337 15.5703 0
      vertex 9 16.5 0
      vertex 11.3337 17.4297 0
    endloop
  endfacet
  facet normal 0 0 -1
    outer loop
      vertex 10.2868 12.9647 0
      vertex 9.33169 14.6189 0
      vertex 11.3337 15.5703 0
    endloop
  endfacet
  facet normal 0 0 -1
    outer loop
      vertex 13.5449 21.9164 0
      vertex 15.4551 21.9164 0
      vertex 14.0304 19.7664 0
    endloop
  endfacet
  facet normal 0 0 -1
    outer loop
      vertex 9 16.5 0
      vertex 9.33169 18.3811 0
      vertex 11.3337 17.4297 0
    endloop
  endfacet
  facet normal 0 0 -1
    outer loop
      vertex 9.33169 14.6189 0
      vertex 9 16.5 0
      vertex 11.3337 15.5703 0
    endloop
  endfacet
  facet normal 0 0 -1
    outer loop
      vertex 9.33169 18.3811 0
      vertex 10.2868 20.0353 0
      vertex 11.3337 17.4297 0
    endloop
  endfacet
  facet normal 0 0 -1
    outer loop
      vertex 16.5 11.4639 0
      vertex 20.5 0 0
      vertex 16.5 4 0
    endloop
  endfacet
  facet normal 0 0 -1
    outer loop
      vertex 16.5 14.0434 0
      vertex 20.5 0 0
      vertex 16.5 11.4639 0
    endloop
  endfacet
  facet normal 0 0 -1
    outer loop
      vertex 4 33 0
      vertex 0 49.5 0
      vertex 4 49.5 0
    endloop
  endfacet
  facet normal 0 0 -1
    outer loop
      vertex 0 29 0
      vertex 0 49.5 0
      vertex 4 33 0
    endloop
  endfacet
  facet normal 0 0 -1
    outer loop
      vertex 16.5 29 0
      vertex 4 33 0
      vertex 20.5 33 0
    endloop
  endfacet
  facet normal 0 0 -1
    outer loop
      vertex 16.5 29 0
      vertex 20.5 33 0
      vertex 16.5 21.5361 0
    endloop
  endfacet
  facet normal 0 0 -1
    outer loop
      vertex 16.5 18.9566 0
      vertex 20.5 33 0
      vertex 16.5 14.0434 0
    endloop
  endfacet
  facet normal 0 -0 -1
    outer loop
      vertex 16.5 4 0
      vertex 20.5 0 0
      vertex 4 0 0
    endloop
  endfacet
  facet normal 0 0 -1
    outer loop
      vertex 0 -16.5 0
      vertex 0 4 0
      vertex 4 0 0
    endloop
  endfacet
  facet normal -0 0 -1
    outer loop
      vertex 16.5 4 0
      vertex 4 0 0
      vertex 0 4 0
    endloop
  endfacet
  facet normal 0 0 -1
    outer loop
      vertex 11.75 11.7369 0
      vertex 10.2868 12.9647 0
      vertex 12.339 14.006 0
    endloop
  endfacet
  facet normal 0 0 -1
    outer loop
      vertex 11.75 11.7369 0
      vertex 14.0304 13.2336 0
      vertex 13.5449 11.0836 0
    endloop
  endfacet
  facet normal -0 0 -1
    outer loop
      vertex 16.5 11.4639 0
      vertex 15.4551 11.0836 0
      vertex 15.8709 13.4982 0
    endloop
  endfacet
  facet normal 0 -0 -1
    outer loop
      vertex 11.3337 15.5703 0
      vertex 12.339 14.006 0
      vertex 10.2868 12.9647 0
    endloop
  endfacet
  facet normal 0 0 -1
    outer loop
      vertex 15.8709 13.4982 0
      vertex 15.4551 11.0836 0
      vertex 14.0304 13.2336 0
    endloop
  endfacet
  facet normal 0 -0 -1
    outer loop
      vertex 16.5 14.0434 0
      vertex 16.5 11.4639 0
      vertex 15.8709 13.4982 0
    endloop
  endfacet
  facet normal 0 -0 -1
    outer loop
      vertex 20.5 33 0
      vertex 20.5 0 0
      vertex 16.5 14.0434 0
    endloop
  endfacet
  facet normal 0 0 -1
    outer loop
      vertex 16.5 21.5361 0
      vertex 20.5 33 0
      vertex 16.5 18.9566 0
    endloop
  endfacet
  facet normal -0 0 -1
    outer loop
      vertex 16.5 21.5361 0
      vertex 15.8709 19.5018 0
      vertex 15.4551 21.9164 0
    endloop
  endfacet
  facet normal 0 -0 -1
    outer loop
      vertex 16.5 21.5361 0
      vertex 16.5 18.9566 0
      vertex 15.8709 19.5018 0
    endloop
  endfacet
  facet normal 0 -0 -1
    outer loop
      vertex 13.5449 21.9164 0
      vertex 14.0304 19.7664 0
      vertex 11.75 21.2631 0
    endloop
  endfacet
  facet normal 0 -0 -1
    outer loop
      vertex 15.4551 21.9164 0
      vertex 15.8709 19.5018 0
      vertex 14.0304 19.7664 0
    endloop
  endfacet
  facet normal 0 -0 -1
    outer loop
      vertex 11.75 21.2631 0
      vertex 12.339 18.994 0
      vertex 10.2868 20.0353 0
    endloop
  endfacet
  facet normal 0 0 -1
    outer loop
      vertex 11.75 21.2631 0
      vertex 14.0304 19.7664 0
      vertex 12.339 18.994 0
    endloop
  endfacet
  facet normal 0 0 -1
    outer loop
      vertex 10.2868 20.0353 0
      vertex 12.339 18.994 0
      vertex 11.3337 17.4297 0
    endloop
  endfacet
  facet normal 0 1 0
    outer loop
      vertex 0 49.5 0
      vertex 0 49.5 16.5
      vertex 4 49.5 0
    endloop
  endfacet
  facet normal 0 1 -0
    outer loop
      vertex 4 49.5 0
      vertex 0 49.5 16.5
      vertex 4 49.5 16.5
    endloop
  endfacet
  facet normal 0 0 1
    outer loop
      vertex 4 0 16.5
      vertex 0 4 16.5
      vertex 0 -16.5 16.5
    endloop
  endfacet
  facet normal 0 -0 1
    outer loop
      vertex 4 -16.5 16.5
      vertex 4 0 16.5
      vertex 0 -16.5 16.5
    endloop
  endfacet
  facet normal 0 0 1
    outer loop
      vertex 4 33 16.5
      vertex 0 49.5 16.5
      vertex 0 29 16.5
    endloop
  endfacet
  facet normal 0 0 1
    outer loop
      vertex 4 49.5 16.5
      vertex 0 49.5 16.5
      vertex 4 33 16.5
    endloop
  endfacet
  facet normal -0 0 1
    outer loop
      vertex 4 33 16.5
      vertex 16.5 29 16.5
      vertex 20.5 33 16.5
    endloop
  endfacet
  facet normal 0 0 1
    outer loop
      vertex 20.5 33 16.5
      vertex 16.5 14.0434 16.5
      vertex 20.5 0 16.5
    endloop
  endfacet
  facet normal -0 0 1
    outer loop
      vertex 16.5 29 16.5
      vertex 16.5 21.5361 16.5
      vertex 20.5 33 16.5
    endloop
  endfacet
  facet normal 0 -0 1
    outer loop
      vertex 4 0 16.5
      vertex 16.5 4 16.5
      vertex 0 4 16.5
    endloop
  endfacet
  facet normal 0 0 1
    outer loop
      vertex 11.75 21.2631 16.5
      vertex 12.339 18.994 16.5
      vertex 14.0304 19.7664 16.5
    endloop
  endfacet
  facet normal 0 0 1
    outer loop
      vertex 15.4551 21.9164 16.5
      vertex 13.5449 21.9164 16.5
      vertex 14.0304 19.7664 16.5
    endloop
  endfacet
  facet normal -0 0 1
    outer loop
      vertex 9 16.5 16.5
      vertex 11.3337 15.5703 16.5
      vertex 11.3337 17.4297 16.5
    endloop
  endfacet
  facet normal -0 0 1
    outer loop
      vertex 9.33169 18.3811 16.5
      vertex 11.3337 17.4297 16.5
      vertex 10.2868 20.0353 16.5
    endloop
  endfacet
  facet normal 0 0 1
    outer loop
      vertex 15.4551 11.0836 16.5
      vertex 14.0304 13.2336 16.5
      vertex 13.5449 11.0836 16.5
    endloop
  endfacet
  facet normal 0 -0 1
    outer loop
      vertex 9.33169 14.6189 16.5
      vertex 11.3337 15.5703 16.5
      vertex 9 16.5 16.5
    endloop
  endfacet
  facet normal 0 -0 1
    outer loop
      vertex 10.2868 12.9647 16.5
      vertex 11.3337 15.5703 16.5
      vertex 9.33169 14.6189 16.5
    endloop
  endfacet
  facet normal 0 0 1
    outer loop
      vertex 4 0 16.5
      vertex 20.5 0 16.5
      vertex 16.5 4 16.5
    endloop
  endfacet
  facet normal -0 0 1
    outer loop
      vertex 16.5 4 16.5
      vertex 20.5 0 16.5
      vertex 16.5 11.4639 16.5
    endloop
  endfacet
  facet normal -0 0 1
    outer loop
      vertex 16.5 11.4639 16.5
      vertex 20.5 0 16.5
      vertex 16.5 14.0434 16.5
    endloop
  endfacet
  facet normal 0 0 1
    outer loop
      vertex 9 16.5 16.5
      vertex 11.3337 17.4297 16.5
      vertex 9.33169 18.3811 16.5
    endloop
  endfacet
  facet normal 0 0 1
    outer loop
      vertex 4 33 16.5
      vertex 0 29 16.5
      vertex 16.5 29 16.5
    endloop
  endfacet
  facet normal -0 0 1
    outer loop
      vertex 10.2868 20.0353 16.5
      vertex 12.339 18.994 16.5
      vertex 11.75 21.2631 16.5
    endloop
  endfacet
  facet normal 0 0 1
    outer loop
      vertex 14.0304 19.7664 16.5
      vertex 13.5449 21.9164 16.5
      vertex 11.75 21.2631 16.5
    endloop
  endfacet
  facet normal 0 0 1
    outer loop
      vertex 15.4551 21.9164 16.5
      vertex 15.8709 19.5018 16.5
      vertex 16.5 21.5361 16.5
    endloop
  endfacet
  facet normal 0 0 1
    outer loop
      vertex 12.339 18.994 16.5
      vertex 10.2868 20.0353 16.5
      vertex 11.3337 17.4297 16.5
    endloop
  endfacet
  facet normal 0 0 1
    outer loop
      vertex 15.4551 21.9164 16.5
      vertex 14.0304 19.7664 16.5
      vertex 15.8709 19.5018 16.5
    endloop
  endfacet
  facet normal 0 0 1
    outer loop
      vertex 16.5 21.5361 16.5
      vertex 15.8709 19.5018 16.5
      vertex 16.5 18.9566 16.5
    endloop
  endfacet
  facet normal -0 0 1
    outer loop
      vertex 16.5 21.5361 16.5
      vertex 16.5 18.9566 16.5
      vertex 20.5 33 16.5
    endloop
  endfacet
  facet normal -0 0 1
    outer loop
      vertex 16.5 18.9566 16.5
      vertex 16.5 14.0434 16.5
      vertex 20.5 33 16.5
    endloop
  endfacet
  facet normal 0 0 1
    outer loop
      vertex 15.8709 13.4982 16.5
      vertex 15.4551 11.0836 16.5
      vertex 16.5 11.4639 16.5
    endloop
  endfacet
  facet normal 0 0 1
    outer loop
      vertex 16.5 14.0434 16.5
      vertex 15.8709 13.4982 16.5
      vertex 16.5 11.4639 16.5
    endloop
  endfacet
  facet normal 0 0 1
    outer loop
      vertex 14.0304 13.2336 16.5
      vertex 11.75 11.7369 16.5
      vertex 13.5449 11.0836 16.5
    endloop
  endfacet
  facet normal 0 0 1
    outer loop
      vertex 15.8709 13.4982 16.5
      vertex 14.0304 13.2336 16.5
      vertex 15.4551 11.0836 16.5
    endloop
  endfacet
  facet normal 0 0 1
    outer loop
      vertex 12.339 14.006 16.5
      vertex 10.2868 12.9647 16.5
      vertex 11.75 11.7369 16.5
    endloop
  endfacet
  facet normal 0 0 1
    outer loop
      vertex 14.0304 13.2336 16.5
      vertex 12.339 14.006 16.5
      vertex 11.75 11.7369 16.5
    endloop
  endfacet
  facet normal 0 0 1
    outer loop
      vertex 12.339 14.006 16.5
      vertex 11.3337 15.5703 16.5
      vertex 10.2868 12.9647 16.5
    endloop
  endfacet
  facet normal 1 0 0
    outer loop
      vertex 4 0 0
      vertex 4 -16.5 16.5
      vertex 4 -16.5 0
    endloop
  endfacet
  facet normal 1 0 -0
    outer loop
      vertex 4 0 0
      vertex 4 0 16.5
      vertex 4 -16.5 16.5
    endloop
  endfacet
  facet normal 1 0 0
    outer loop
      vertex 4 49.5 0
      vertex 4 33 16.5
      vertex 4 33 0
    endloop
  endfacet
  facet normal 1 0 -0
    outer loop
      vertex 4 49.5 0
      vertex 4 49.5 16.5
      vertex 4 33 16.5
    endloop
  endfacet
  facet normal 0 -1 0
    outer loop
      vertex 20.5 0 0
      vertex 4 0 16.5
      vertex 4 0 0
    endloop
  endfacet
  facet normal 0 -1 0
    outer loop
      vertex 20.5 0 0
      vertex 20.5 0 16.5
      vertex 4 0 16.5
    endloop
  endfacet
  facet normal 0 1 0
    outer loop
      vertex 4 33 0
      vertex 4 33 16.5
      vertex 20.5 33 0
    endloop
  endfacet
  facet normal 0 1 -0
    outer loop
      vertex 20.5 33 0
      vertex 4 33 16.5
      vertex 20.5 33 16.5
    endloop
  endfacet
  facet normal 1 0 0
    outer loop
      vertex 20.5 33 0
      vertex 20.5 0 16.5
      vertex 20.5 0 0
    endloop
  endfacet
  facet normal 1 0 -0
    outer loop
      vertex 20.5 33 0
      vertex 20.5 33 16.5
      vertex 20.5 0 16.5
    endloop
  endfacet
  facet normal 0 1 0
    outer loop
      vertex 16.5 4 16.5
      vertex 16.5 4 0
      vertex 0 4 16.5
    endloop
  endfacet
  facet normal 0 1 0
    outer loop
      vertex 0 4 16.5
      vertex 16.5 4 0
      vertex 0 4 0
    endloop
  endfacet
  facet normal 0 -1 0
    outer loop
      vertex 0 29 16.5
      vertex 16.5 29 0
      vertex 16.5 29 16.5
    endloop
  endfacet
  facet normal 0 -1 0
    outer loop
      vertex 0 29 16.5
      vertex 0 29 0
      vertex 16.5 29 0
    endloop
  endfacet
  facet normal -1 -0 -0
    outer loop
      vertex 16.5 11.4639 16.5
      vertex 16.5 11.4639 0
      vertex 16.5 4 16.5
    endloop
  endfacet
  facet normal -1 0 0
    outer loop
      vertex 16.5 4 16.5
      vertex 16.5 11.4639 0
      vertex 16.5 4 0
    endloop
  endfacet
  facet normal -1 -0 -0
    outer loop
      vertex 16.5 29 16.5
      vertex 16.5 29 0
      vertex 16.5 21.5361 16.5
    endloop
  endfacet
  facet normal -1 0 0
    outer loop
      vertex 16.5 21.5361 16.5
      vertex 16.5 29 0
      vertex 16.5 21.5361 0
    endloop
  endfacet
  facet normal -1 -0 -0
    outer loop
      vertex 16.5 18.9566 16.5
      vertex 16.5 18.9566 0
      vertex 16.5 14.0434 16.5
    endloop
  endfacet
  facet normal -1 0 0
    outer loop
      vertex 16.5 14.0434 16.5
      vertex 16.5 18.9566 0
      vertex 16.5 14.0434 0
    endloop
  endfacet
  facet normal -0.984808 -0.173648 0
    outer loop
      vertex 9 16.5 0
      vertex 9.33169 14.6189 16.5
      vertex 9 16.5 16.5
    endloop
  endfacet
  facet normal -0.984808 -0.173648 0
    outer loop
      vertex 9 16.5 0
      vertex 9.33169 14.6189 0
      vertex 9.33169 14.6189 16.5
    endloop
  endfacet
  facet normal 0 1 0
    outer loop
      vertex 13.5449 21.9164 0
      vertex 13.5449 21.9164 16.5
      vertex 15.4551 21.9164 0
    endloop
  endfacet
  facet normal 0 1 -0
    outer loop
      vertex 15.4551 21.9164 0
      vertex 13.5449 21.9164 16.5
      vertex 15.4551 21.9164 16.5
    endloop
  endfacet
  facet normal -0.34202 -0.939693 0
    outer loop
      vertex 13.5449 11.0836 0
      vertex 11.75 11.7369 16.5
      vertex 11.75 11.7369 0
    endloop
  endfacet
  facet normal -0.34202 -0.939693 0
    outer loop
      vertex 13.5449 11.0836 0
      vertex 13.5449 11.0836 16.5
      vertex 11.75 11.7369 16.5
    endloop
  endfacet
  facet normal 0 -1 0
    outer loop
      vertex 15.4551 11.0836 0
      vertex 13.5449 11.0836 16.5
      vertex 13.5449 11.0836 0
    endloop
  endfacet
  facet normal 0 -1 0
    outer loop
      vertex 15.4551 11.0836 0
      vertex 15.4551 11.0836 16.5
      vertex 13.5449 11.0836 16.5
    endloop
  endfacet
  facet normal -0.984808 0.173648 0
    outer loop
      vertex 9 16.5 0
      vertex 9 16.5 16.5
      vertex 9.33169 18.3811 0
    endloop
  endfacet
  facet normal -0.984808 0.173648 0
    outer loop
      vertex 9.33169 18.3811 0
      vertex 9 16.5 16.5
      vertex 9.33169 18.3811 16.5
    endloop
  endfacet
  facet normal 0.34202 0.939693 -0
    outer loop
      vertex 15.4551 21.9164 0
      vertex 15.4551 21.9164 16.5
      vertex 16.5 21.5361 0
    endloop
  endfacet
  facet normal 0.34202 0.939693 -0
    outer loop
      vertex 16.5 21.5361 0
      vertex 15.4551 21.9164 16.5
      vertex 16.5 21.5361 16.5
    endloop
  endfacet
  facet normal -0.866025 -0.5 0
    outer loop
      vertex 9.33169 14.6189 0
      vertex 10.2868 12.9647 16.5
      vertex 9.33169 14.6189 16.5
    endloop
  endfacet
  facet normal -0.866025 -0.5 0
    outer loop
      vertex 9.33169 14.6189 0
      vertex 10.2868 12.9647 0
      vertex 10.2868 12.9647 16.5
    endloop
  endfacet
  facet normal 0.34202 -0.939693 0
    outer loop
      vertex 16.5 11.4639 0
      vertex 15.4551 11.0836 16.5
      vertex 15.4551 11.0836 0
    endloop
  endfacet
  facet normal 0.34202 -0.939693 0
    outer loop
      vertex 16.5 11.4639 0
      vertex 16.5 11.4639 16.5
      vertex 15.4551 11.0836 16.5
    endloop
  endfacet
  facet normal -0.34202 0.939693 0
    outer loop
      vertex 11.75 21.2631 0
      vertex 11.75 21.2631 16.5
      vertex 13.5449 21.9164 0
    endloop
  endfacet
  facet normal -0.34202 0.939693 0
    outer loop
      vertex 13.5449 21.9164 0
      vertex 11.75 21.2631 16.5
      vertex 13.5449 21.9164 16.5
    endloop
  endfacet
  facet normal -0.866025 0.5 0
    outer loop
      vertex 9.33169 18.3811 0
      vertex 9.33169 18.3811 16.5
      vertex 10.2868 20.0353 0
    endloop
  endfacet
  facet normal -0.866025 0.5 0
    outer loop
      vertex 10.2868 20.0353 0
      vertex 9.33169 18.3811 16.5
      vertex 10.2868 20.0353 16.5
    endloop
  endfacet
  facet normal -0.642788 -0.766044 0
    outer loop
      vertex 11.75 11.7369 0
      vertex 10.2868 12.9647 16.5
      vertex 10.2868 12.9647 0
    endloop
  endfacet
  facet normal -0.642788 -0.766044 0
    outer loop
      vertex 11.75 11.7369 0
      vertex 11.75 11.7369 16.5
      vertex 10.2868 12.9647 16.5
    endloop
  endfacet
  facet normal -0.642788 0.766044 0
    outer loop
      vertex 10.2868 20.0353 0
      vertex 10.2868 20.0353 16.5
      vertex 11.75 21.2631 0
    endloop
  endfacet
  facet normal -0.642788 0.766044 0
    outer loop
      vertex 11.75 21.2631 0
      vertex 10.2868 20.0353 16.5
      vertex 11.75 21.2631 16.5
    endloop
  endfacet
  facet normal 1 -0 0
    outer loop
      vertex 11.3337 15.5703 16.5
      vertex 11.3337 17.4297 0
      vertex 11.3337 17.4297 16.5
    endloop
  endfacet
  facet normal 1 0 0
    outer loop
      vertex 11.3337 15.5703 16.5
      vertex 11.3337 15.5703 0
      vertex 11.3337 17.4297 0
    endloop
  endfacet
  facet normal 0.841254 -0.540641 0
    outer loop
      vertex 11.3337 17.4297 16.5
      vertex 12.339 18.994 0
      vertex 12.339 18.994 16.5
    endloop
  endfacet
  facet normal 0.841254 -0.540641 0
    outer loop
      vertex 11.3337 17.4297 16.5
      vertex 11.3337 17.4297 0
      vertex 12.339 18.994 0
    endloop
  endfacet
  facet normal 0.841254 0.540641 -0
    outer loop
      vertex 11.3337 15.5703 0
      vertex 11.3337 15.5703 16.5
      vertex 12.339 14.006 16.5
    endloop
  endfacet
  facet normal 0.841254 0.540641 -0
    outer loop
      vertex 12.339 14.006 0
      vertex 11.3337 15.5703 0
      vertex 12.339 14.006 16.5
    endloop
  endfacet
  facet normal 0.415415 -0.909632 0
    outer loop
      vertex 12.339 18.994 16.5
      vertex 14.0304 19.7664 0
      vertex 14.0304 19.7664 16.5
    endloop
  endfacet
  facet normal 0.415415 -0.909632 0
    outer loop
      vertex 12.339 18.994 16.5
      vertex 12.339 18.994 0
      vertex 14.0304 19.7664 0
    endloop
  endfacet
  facet normal 0.415415 0.909632 0
    outer loop
      vertex 14.0304 13.2336 16.5
      vertex 14.0304 13.2336 0
      vertex 12.339 14.006 16.5
    endloop
  endfacet
  facet normal 0.415415 0.909632 0
    outer loop
      vertex 12.339 14.006 16.5
      vertex 14.0304 13.2336 0
      vertex 12.339 14.006 0
    endloop
  endfacet
  facet normal -0.142315 0.989821 0
    outer loop
      vertex 15.8709 13.4982 16.5
      vertex 15.8709 13.4982 0
      vertex 14.0304 13.2336 16.5
    endloop
  endfacet
  facet normal -0.142315 0.989821 0
    outer loop
      vertex 14.0304 13.2336 16.5
      vertex 15.8709 13.4982 0
      vertex 14.0304 13.2336 0
    endloop
  endfacet
  facet normal -0.142315 -0.989821 0
    outer loop
      vertex 14.0304 19.7664 16.5
      vertex 15.8709 19.5018 0
      vertex 15.8709 19.5018 16.5
    endloop
  endfacet
  facet normal -0.142315 -0.989821 -0
    outer loop
      vertex 14.0304 19.7664 16.5
      vertex 14.0304 19.7664 0
      vertex 15.8709 19.5018 0
    endloop
  endfacet
  facet normal -0.654861 0.75575 0
    outer loop
      vertex 16.5 14.0434 16.5
      vertex 16.5 14.0434 0
      vertex 15.8709 13.4982 16.5
    endloop
  endfacet
  facet normal -0.654861 0.75575 0
    outer loop
      vertex 15.8709 13.4982 16.5
      vertex 16.5 14.0434 0
      vertex 15.8709 13.4982 0
    endloop
  endfacet
  facet normal -0.654861 -0.75575 0
    outer loop
      vertex 15.8709 19.5018 16.5
      vertex 16.5 18.9566 0
      vertex 16.5 18.9566 16.5
    endloop
  endfacet
  facet normal -0.654861 -0.75575 -0
    outer loop
      vertex 15.8709 19.5018 16.5
      vertex 15.8709 19.5018 0
      vertex 16.5 18.9566 0
    endloop
  endfacet
  facet normal -2.59955e-16 1 0
    outer loop
      vertex -50.5 9 0
      vertex -50.5 9 16.5
      vertex -30 9 0
    endloop
  endfacet
  facet normal -2.59955e-16 1 0
    outer loop
      vertex -30 9 0
      vertex -50.5 9 16.5
      vertex -30 9 16.5
    endloop
  endfacet
  facet normal -2.59955e-16 1 0
    outer loop
      vertex -5 9 0
      vertex -5 9 16.5
      vertex 15.5 9 0
    endloop
  endfacet
  facet normal -2.59955e-16 1 0
    outer loop
      vertex 15.5 9 0
      vertex -5 9 16.5
      vertex 15.5 9 16.5
    endloop
  endfacet
  facet normal -1 -1.77636e-15 0
    outer loop
      vertex -50.5 9 0
      vertex -50.5 5 16.5
      vertex -50.5 9 16.5
    endloop
  endfacet
  facet normal -1 -1.77636e-15 0
    outer loop
      vertex -50.5 9 0
      vertex -50.5 5 0
      vertex -50.5 5 16.5
    endloop
  endfacet
  facet normal 0 0 -1
    outer loop
      vertex -50.5 9 0
      vertex -34 5 0
      vertex -50.5 5 0
    endloop
  endfacet
  facet normal 0 0 -1
    outer loop
      vertex -5 9 0
      vertex -1 5 0
      vertex -5 -7.5 0
    endloop
  endfacet
  facet normal 0 0 -1
    outer loop
      vertex -22.9164 -6.45506 0
      vertex -20.5018 -6.87087 0
      vertex -22.5361 -7.5 0
    endloop
  endfacet
  facet normal 0 0 -1
    outer loop
      vertex -22.9164 -4.54494 0
      vertex -20.7664 -5.03036 0
      vertex -22.9164 -6.45506 0
    endloop
  endfacet
  facet normal 0 -0 -1
    outer loop
      vertex -22.2631 -2.75 0
      vertex -20.7664 -5.03036 0
      vertex -22.9164 -4.54494 0
    endloop
  endfacet
  facet normal 0 0 -1
    outer loop
      vertex -22.2631 -2.75 0
      vertex -19.994 -3.33896 0
      vertex -20.7664 -5.03036 0
    endloop
  endfacet
  facet normal 0 0 -1
    outer loop
      vertex -15.006 -3.33896 0
      vertex -13.9647 -1.28676 0
      vertex -12.7369 -2.75 0
    endloop
  endfacet
  facet normal 0 0 -1
    outer loop
      vertex -22.5361 -7.5 0
      vertex -34 -11.5 0
      vertex -30 -7.5 0
    endloop
  endfacet
  facet normal 0 0 -1
    outer loop
      vertex -19.9566 -7.5 0
      vertex -34 -11.5 0
      vertex -22.5361 -7.5 0
    endloop
  endfacet
  facet normal 0 0 -1
    outer loop
      vertex -1 5 0
      vertex 15.5 9 0
      vertex 15.5 5 0
    endloop
  endfacet
  facet normal 0 0 -1
    outer loop
      vertex -5 9 0
      vertex 15.5 9 0
      vertex -1 5 0
    endloop
  endfacet
  facet normal 0 0 -1
    outer loop
      vertex -15.006 -3.33896 0
      vertex -12.7369 -2.75 0
      vertex -14.2336 -5.03036 0
    endloop
  endfacet
  facet normal 0 0 -1
    outer loop
      vertex -5 -7.5 0
      vertex -1 5 0
      vertex -1 -11.5 0
    endloop
  endfacet
  facet normal 0 -0 -1
    outer loop
      vertex -5 -7.5 0
      vertex -1 -11.5 0
      vertex -12.4639 -7.5 0
    endloop
  endfacet
  facet normal 0 -0 -1
    outer loop
      vertex -15.0434 -7.5 0
      vertex -1 -11.5 0
      vertex -19.9566 -7.5 0
    endloop
  endfacet
  facet normal -0 0 -1
    outer loop
      vertex -30 -7.5 0
      vertex -34 -11.5 0
      vertex -34 5 0
    endloop
  endfacet
  facet normal 0 0 -1
    outer loop
      vertex -50.5 9 0
      vertex -30 9 0
      vertex -34 5 0
    endloop
  endfacet
  facet normal 0 0 -1
    outer loop
      vertex -30 -7.5 0
      vertex -34 5 0
      vertex -30 9 0
    endloop
  endfacet
  facet normal 0 0 -1
    outer loop
      vertex -22.9164 -6.45506 0
      vertex -20.7664 -5.03036 0
      vertex -20.5018 -6.87087 0
    endloop
  endfacet
  facet normal 0 0 -1
    outer loop
      vertex -22.5361 -7.5 0
      vertex -20.5018 -6.87087 0
      vertex -19.9566 -7.5 0
    endloop
  endfacet
  facet normal -0 0 -1
    outer loop
      vertex -1 -11.5 0
      vertex -34 -11.5 0
      vertex -19.9566 -7.5 0
    endloop
  endfacet
  facet normal 0 0 -1
    outer loop
      vertex -14.2336 -5.03036 0
      vertex -12.0836 -4.54494 0
      vertex -12.0836 -6.45506 0
    endloop
  endfacet
  facet normal 0 -0 -1
    outer loop
      vertex -12.4639 -7.5 0
      vertex -1 -11.5 0
      vertex -15.0434 -7.5 0
    endloop
  endfacet
  facet normal 0 0 -1
    outer loop
      vertex -12.4639 -7.5 0
      vertex -14.4982 -6.87087 0
      vertex -12.0836 -6.45506 0
    endloop
  endfacet
  facet normal -0 0 -1
    outer loop
      vertex -12.4639 -7.5 0
      vertex -15.0434 -7.5 0
      vertex -14.4982 -6.87087 0
    endloop
  endfacet
  facet normal -0 0 -1
    outer loop
      vertex -12.0836 -4.54494 0
      vertex -14.2336 -5.03036 0
      vertex -12.7369 -2.75 0
    endloop
  endfacet
  facet normal 0 -0 -1
    outer loop
      vertex -15.6189 -0.331691 0
      vertex -13.9647 -1.28676 0
      vertex -16.5703 -2.33367 0
    endloop
  endfacet
  facet normal 0 0 -1
    outer loop
      vertex -14.4982 -6.87087 0
      vertex -14.2336 -5.03036 0
      vertex -12.0836 -6.45506 0
    endloop
  endfacet
  facet normal 0 0 -1
    outer loop
      vertex -17.5 3.66374e-15 0
      vertex -15.6189 -0.331691 0
      vertex -16.5703 -2.33367 0
    endloop
  endfacet
  facet normal 0 0 -1
    outer loop
      vertex -17.5 3.66374e-15 0
      vertex -18.4297 -2.33367 0
      vertex -19.3811 -0.331691 0
    endloop
  endfacet
  facet normal 0 0 -1
    outer loop
      vertex -13.9647 -1.28676 0
      vertex -15.006 -3.33896 0
      vertex -16.5703 -2.33367 0
    endloop
  endfacet
  facet normal 0 -0 -1
    outer loop
      vertex -19.3811 -0.331691 0
      vertex -18.4297 -2.33367 0
      vertex -21.0353 -1.28676 0
    endloop
  endfacet
  facet normal 0 -0 -1
    outer loop
      vertex -17.5 3.66374e-15 0
      vertex -16.5703 -2.33367 0
      vertex -18.4297 -2.33367 0
    endloop
  endfacet
  facet normal 0 0 -1
    outer loop
      vertex -21.0353 -1.28676 0
      vertex -18.4297 -2.33367 0
      vertex -19.994 -3.33896 0
    endloop
  endfacet
  facet normal 0 -0 -1
    outer loop
      vertex -21.0353 -1.28676 0
      vertex -19.994 -3.33896 0
      vertex -22.2631 -2.75 0
    endloop
  endfacet
  facet normal 1 0 0
    outer loop
      vertex 15.5 5 16.5
      vertex 15.5 5 0
      vertex 15.5 9 0
    endloop
  endfacet
  facet normal 1 0 0
    outer loop
      vertex 15.5 9 16.5
      vertex 15.5 5 16.5
      vertex 15.5 9 0
    endloop
  endfacet
  facet normal 0 -0 1
    outer loop
      vertex -34 5 16.5
      vertex -30 9 16.5
      vertex -50.5 9 16.5
    endloop
  endfacet
  facet normal 0 -0 1
    outer loop
      vertex -50.5 5 16.5
      vertex -34 5 16.5
      vertex -50.5 9 16.5
    endloop
  endfacet
  facet normal 0 0 1
    outer loop
      vertex -1 -11.5 16.5
      vertex -5 -7.5 16.5
      vertex -12.4639 -7.5 16.5
    endloop
  endfacet
  facet normal 0 -0 1
    outer loop
      vertex -1 5 16.5
      vertex 15.5 9 16.5
      vertex -5 9 16.5
    endloop
  endfacet
  facet normal 0 -0 1
    outer loop
      vertex 15.5 5 16.5
      vertex 15.5 9 16.5
      vertex -1 5 16.5
    endloop
  endfacet
  facet normal 0 0 1
    outer loop
      vertex -1 5 16.5
      vertex -5 -7.5 16.5
      vertex -1 -11.5 16.5
    endloop
  endfacet
  facet normal 0 0 1
    outer loop
      vertex -1 -11.5 16.5
      vertex -19.9566 -7.5 16.5
      vertex -34 -11.5 16.5
    endloop
  endfacet
  facet normal 0 0 1
    outer loop
      vertex -22.2631 -2.75 16.5
      vertex -20.7664 -5.03036 16.5
      vertex -19.994 -3.33896 16.5
    endloop
  endfacet
  facet normal -0 0 1
    outer loop
      vertex -34 5 16.5
      vertex -30 -7.5 16.5
      vertex -30 9 16.5
    endloop
  endfacet
  facet normal 0 0 1
    outer loop
      vertex -13.9647 -1.28676 16.5
      vertex -16.5703 -2.33367 16.5
      vertex -15.006 -3.33896 16.5
    endloop
  endfacet
  facet normal 0 0 1
    outer loop
      vertex -12.7369 -2.75 16.5
      vertex -13.9647 -1.28676 16.5
      vertex -15.006 -3.33896 16.5
    endloop
  endfacet
  facet normal 0 0 1
    outer loop
      vertex -20.5018 -6.87087 16.5
      vertex -22.9164 -6.45506 16.5
      vertex -22.5361 -7.5 16.5
    endloop
  endfacet
  facet normal 0 0 1
    outer loop
      vertex -21.0353 -1.28676 16.5
      vertex -22.2631 -2.75 16.5
      vertex -19.994 -3.33896 16.5
    endloop
  endfacet
  facet normal 0 0 1
    outer loop
      vertex -22.2631 -2.75 16.5
      vertex -22.9164 -4.54494 16.5
      vertex -20.7664 -5.03036 16.5
    endloop
  endfacet
  facet normal 0 0 1
    outer loop
      vertex -22.9164 -4.54494 16.5
      vertex -22.9164 -6.45506 16.5
      vertex -20.7664 -5.03036 16.5
    endloop
  endfacet
  facet normal 0 0 1
    outer loop
      vertex -19.9566 -7.5 16.5
      vertex -22.5361 -7.5 16.5
      vertex -34 -11.5 16.5
    endloop
  endfacet
  facet normal 0 0 1
    outer loop
      vertex -22.5361 -7.5 16.5
      vertex -30 -7.5 16.5
      vertex -34 -11.5 16.5
    endloop
  endfacet
  facet normal 0 0 1
    outer loop
      vertex -30 -7.5 16.5
      vertex -34 5 16.5
      vertex -34 -11.5 16.5
    endloop
  endfacet
  facet normal 0 0 1
    outer loop
      vertex -1 5 16.5
      vertex -5 9 16.5
      vertex -5 -7.5 16.5
    endloop
  endfacet
  facet normal -0 0 1
    outer loop
      vertex -21.0353 -1.28676 16.5
      vertex -18.4297 -2.33367 16.5
      vertex -19.3811 -0.331691 16.5
    endloop
  endfacet
  facet normal 0 0 1
    outer loop
      vertex -20.7664 -5.03036 16.5
      vertex -22.9164 -6.45506 16.5
      vertex -20.5018 -6.87087 16.5
    endloop
  endfacet
  facet normal -0 0 1
    outer loop
      vertex -19.3811 -0.331691 16.5
      vertex -18.4297 -2.33367 16.5
      vertex -17.5 3.66374e-15 16.5
    endloop
  endfacet
  facet normal 0 -0 1
    outer loop
      vertex -16.5703 -2.33367 16.5
      vertex -15.6189 -0.331691 16.5
      vertex -17.5 3.66374e-15 16.5
    endloop
  endfacet
  facet normal 0 -0 1
    outer loop
      vertex -19.994 -3.33896 16.5
      vertex -18.4297 -2.33367 16.5
      vertex -21.0353 -1.28676 16.5
    endloop
  endfacet
  facet normal 0 0 1
    outer loop
      vertex -16.5703 -2.33367 16.5
      vertex -13.9647 -1.28676 16.5
      vertex -15.6189 -0.331691 16.5
    endloop
  endfacet
  facet normal 0 0 1
    outer loop
      vertex -12.7369 -2.75 16.5
      vertex -14.2336 -5.03036 16.5
      vertex -12.0836 -4.54494 16.5
    endloop
  endfacet
  facet normal 0 0 1
    outer loop
      vertex -16.5703 -2.33367 16.5
      vertex -17.5 3.66374e-15 16.5
      vertex -18.4297 -2.33367 16.5
    endloop
  endfacet
  facet normal 0 0 1
    outer loop
      vertex -12.0836 -4.54494 16.5
      vertex -14.2336 -5.03036 16.5
      vertex -12.0836 -6.45506 16.5
    endloop
  endfacet
  facet normal -0 0 1
    outer loop
      vertex -14.4982 -6.87087 16.5
      vertex -12.4639 -7.5 16.5
      vertex -12.0836 -6.45506 16.5
    endloop
  endfacet
  facet normal -0 0 1
    outer loop
      vertex -15.006 -3.33896 16.5
      vertex -14.2336 -5.03036 16.5
      vertex -12.7369 -2.75 16.5
    endloop
  endfacet
  facet normal 0 0 1
    outer loop
      vertex -14.2336 -5.03036 16.5
      vertex -14.4982 -6.87087 16.5
      vertex -12.0836 -6.45506 16.5
    endloop
  endfacet
  facet normal 0 0 1
    outer loop
      vertex -20.5018 -6.87087 16.5
      vertex -22.5361 -7.5 16.5
      vertex -19.9566 -7.5 16.5
    endloop
  endfacet
  facet normal 0 0 1
    outer loop
      vertex -14.4982 -6.87087 16.5
      vertex -15.0434 -7.5 16.5
      vertex -12.4639 -7.5 16.5
    endloop
  endfacet
  facet normal -0 0 1
    outer loop
      vertex -15.0434 -7.5 16.5
      vertex -1 -11.5 16.5
      vertex -12.4639 -7.5 16.5
    endloop
  endfacet
  facet normal -0 0 1
    outer loop
      vertex -19.9566 -7.5 16.5
      vertex -1 -11.5 16.5
      vertex -15.0434 -7.5 16.5
    endloop
  endfacet
  facet normal 2.69145e-16 -1 0
    outer loop
      vertex -34 5 0
      vertex -50.5 5 16.5
      vertex -50.5 5 0
    endloop
  endfacet
  facet normal 2.69145e-16 -1 0
    outer loop
      vertex -34 5 0
      vertex -34 5 16.5
      vertex -50.5 5 16.5
    endloop
  endfacet
  facet normal 2.15316e-16 -1 0
    outer loop
      vertex 15.5 5 0
      vertex -1 5 16.5
      vertex -1 5 0
    endloop
  endfacet
  facet normal 2.15316e-16 -1 0
    outer loop
      vertex 15.5 5 0
      vertex 15.5 5 16.5
      vertex -1 5 16.5
    endloop
  endfacet
  facet normal -1 0 0
    outer loop
      vertex -34 5 0
      vertex -34 -11.5 16.5
      vertex -34 5 16.5
    endloop
  endfacet
  facet normal -1 0 0
    outer loop
      vertex -34 5 0
      vertex -34 -11.5 0
      vertex -34 -11.5 16.5
    endloop
  endfacet
  facet normal 1 2.22045e-16 0
    outer loop
      vertex -1 -11.5 16.5
      vertex -1 -11.5 0
      vertex -1 5 0
    endloop
  endfacet
  facet normal 1 2.22045e-16 0
    outer loop
      vertex -1 5 16.5
      vertex -1 -11.5 16.5
      vertex -1 5 0
    endloop
  endfacet
  facet normal 2.69145e-16 -1 0
    outer loop
      vertex -1 -11.5 0
      vertex -34 -11.5 16.5
      vertex -34 -11.5 0
    endloop
  endfacet
  facet normal 2.69145e-16 -1 0
    outer loop
      vertex -1 -11.5 0
      vertex -1 -11.5 16.5
      vertex -34 -11.5 16.5
    endloop
  endfacet
  facet normal 1 4.30632e-16 -0
    outer loop
      vertex -30 9 0
      vertex -30 9 16.5
      vertex -30 -7.5 16.5
    endloop
  endfacet
  facet normal 1 4.30632e-16 -0
    outer loop
      vertex -30 -7.5 0
      vertex -30 9 0
      vertex -30 -7.5 16.5
    endloop
  endfacet
  facet normal -1 -2.69145e-16 -0
    outer loop
      vertex -5 -7.5 16.5
      vertex -5 9 0
      vertex -5 -7.5 0
    endloop
  endfacet
  facet normal -1 -2.69145e-16 0
    outer loop
      vertex -5 -7.5 16.5
      vertex -5 9 16.5
      vertex -5 9 0
    endloop
  endfacet
  facet normal -2.37994e-16 1 0
    outer loop
      vertex -22.5361 -7.5 16.5
      vertex -22.5361 -7.5 0
      vertex -30 -7.5 16.5
    endloop
  endfacet
  facet normal -2.37994e-16 1 0
    outer loop
      vertex -30 -7.5 16.5
      vertex -22.5361 -7.5 0
      vertex -30 -7.5 0
    endloop
  endfacet
  facet normal -2.37994e-16 1 0
    outer loop
      vertex -5 -7.5 16.5
      vertex -5 -7.5 0
      vertex -12.4639 -7.5 16.5
    endloop
  endfacet
  facet normal -2.37994e-16 1 0
    outer loop
      vertex -12.4639 -7.5 16.5
      vertex -5 -7.5 0
      vertex -12.4639 -7.5 0
    endloop
  endfacet
  facet normal -1.80771e-16 1 0
    outer loop
      vertex -15.0434 -7.5 16.5
      vertex -15.0434 -7.5 0
      vertex -19.9566 -7.5 16.5
    endloop
  endfacet
  facet normal -1.80771e-16 1 0
    outer loop
      vertex -19.9566 -7.5 16.5
      vertex -15.0434 -7.5 0
      vertex -19.9566 -7.5 0
    endloop
  endfacet
  facet normal -0.173648 0.984808 0
    outer loop
      vertex -19.3811 -0.331691 0
      vertex -19.3811 -0.331691 16.5
      vertex -17.5 3.66374e-15 0
    endloop
  endfacet
  facet normal -0.173648 0.984808 0
    outer loop
      vertex -17.5 3.66374e-15 0
      vertex -19.3811 -0.331691 16.5
      vertex -17.5 3.66374e-15 16.5
    endloop
  endfacet
  facet normal 1 0 0
    outer loop
      vertex -12.0836 -6.45506 16.5
      vertex -12.0836 -6.45506 0
      vertex -12.0836 -4.54494 0
    endloop
  endfacet
  facet normal 1 0 0
    outer loop
      vertex -12.0836 -4.54494 16.5
      vertex -12.0836 -6.45506 16.5
      vertex -12.0836 -4.54494 0
    endloop
  endfacet
  facet normal -0.939693 0.34202 0
    outer loop
      vertex -22.9164 -4.54494 0
      vertex -22.9164 -4.54494 16.5
      vertex -22.2631 -2.75 0
    endloop
  endfacet
  facet normal -0.939693 0.34202 0
    outer loop
      vertex -22.2631 -2.75 0
      vertex -22.9164 -4.54494 16.5
      vertex -22.2631 -2.75 16.5
    endloop
  endfacet
  facet normal -1 0 0
    outer loop
      vertex -22.9164 -4.54494 0
      vertex -22.9164 -6.45506 16.5
      vertex -22.9164 -4.54494 16.5
    endloop
  endfacet
  facet normal -1 0 0
    outer loop
      vertex -22.9164 -4.54494 0
      vertex -22.9164 -6.45506 0
      vertex -22.9164 -6.45506 16.5
    endloop
  endfacet
  facet normal 0.173648 0.984808 -0
    outer loop
      vertex -17.5 3.66374e-15 0
      vertex -17.5 3.66374e-15 16.5
      vertex -15.6189 -0.331691 0
    endloop
  endfacet
  facet normal 0.173648 0.984808 -0
    outer loop
      vertex -15.6189 -0.331691 0
      vertex -17.5 3.66374e-15 16.5
      vertex -15.6189 -0.331691 16.5
    endloop
  endfacet
  facet normal 0.939693 -0.34202 0
    outer loop
      vertex -12.0836 -6.45506 0
      vertex -12.4639 -7.5 16.5
      vertex -12.4639 -7.5 0
    endloop
  endfacet
  facet normal 0.939693 -0.34202 0
    outer loop
      vertex -12.0836 -6.45506 0
      vertex -12.0836 -6.45506 16.5
      vertex -12.4639 -7.5 16.5
    endloop
  endfacet
  facet normal -0.5 0.866025 0
    outer loop
      vertex -21.0353 -1.28676 0
      vertex -21.0353 -1.28676 16.5
      vertex -19.3811 -0.331691 0
    endloop
  endfacet
  facet normal -0.5 0.866025 0
    outer loop
      vertex -19.3811 -0.331691 0
      vertex -21.0353 -1.28676 16.5
      vertex -19.3811 -0.331691 16.5
    endloop
  endfacet
  facet normal -0.939693 -0.34202 0
    outer loop
      vertex -22.9164 -6.45506 0
      vertex -22.5361 -7.5 16.5
      vertex -22.9164 -6.45506 16.5
    endloop
  endfacet
  facet normal -0.939693 -0.34202 0
    outer loop
      vertex -22.9164 -6.45506 0
      vertex -22.5361 -7.5 0
      vertex -22.5361 -7.5 16.5
    endloop
  endfacet
  facet normal 0.939693 0.34202 0
    outer loop
      vertex -12.0836 -4.54494 16.5
      vertex -12.0836 -4.54494 0
      vertex -12.7369 -2.75 0
    endloop
  endfacet
  facet normal 0.939693 0.34202 0
    outer loop
      vertex -12.7369 -2.75 16.5
      vertex -12.0836 -4.54494 16.5
      vertex -12.7369 -2.75 0
    endloop
  endfacet
  facet normal 0.5 0.866025 -0
    outer loop
      vertex -15.6189 -0.331691 0
      vertex -15.6189 -0.331691 16.5
      vertex -13.9647 -1.28676 0
    endloop
  endfacet
  facet normal 0.5 0.866025 -0
    outer loop
      vertex -13.9647 -1.28676 0
      vertex -15.6189 -0.331691 16.5
      vertex -13.9647 -1.28676 16.5
    endloop
  endfacet
  facet normal -0.766044 0.642788 0
    outer loop
      vertex -22.2631 -2.75 0
      vertex -22.2631 -2.75 16.5
      vertex -21.0353 -1.28676 0
    endloop
  endfacet
  facet normal -0.766044 0.642788 0
    outer loop
      vertex -21.0353 -1.28676 0
      vertex -22.2631 -2.75 16.5
      vertex -21.0353 -1.28676 16.5
    endloop
  endfacet
  facet normal 0.766044 0.642788 0
    outer loop
      vertex -12.7369 -2.75 16.5
      vertex -12.7369 -2.75 0
      vertex -13.9647 -1.28676 0
    endloop
  endfacet
  facet normal 0.766044 0.642788 0
    outer loop
      vertex -13.9647 -1.28676 16.5
      vertex -12.7369 -2.75 16.5
      vertex -13.9647 -1.28676 0
    endloop
  endfacet
  facet normal 2.3883e-16 -1 0
    outer loop
      vertex -18.4297 -2.33367 16.5
      vertex -16.5703 -2.33367 0
      vertex -16.5703 -2.33367 16.5
    endloop
  endfacet
  facet normal 2.3883e-16 -1 0
    outer loop
      vertex -18.4297 -2.33367 16.5
      vertex -18.4297 -2.33367 0
      vertex -16.5703 -2.33367 0
    endloop
  endfacet
  facet normal -0.540641 -0.841254 0
    outer loop
      vertex -16.5703 -2.33367 16.5
      vertex -15.006 -3.33896 0
      vertex -15.006 -3.33896 16.5
    endloop
  endfacet
  facet normal -0.540641 -0.841254 -0
    outer loop
      vertex -16.5703 -2.33367 16.5
      vertex -16.5703 -2.33367 0
      vertex -15.006 -3.33896 0
    endloop
  endfacet
  facet normal 0.540641 -0.841254 0
    outer loop
      vertex -19.994 -3.33896 16.5
      vertex -18.4297 -2.33367 0
      vertex -18.4297 -2.33367 16.5
    endloop
  endfacet
  facet normal 0.540641 -0.841254 0
    outer loop
      vertex -19.994 -3.33896 16.5
      vertex -19.994 -3.33896 0
      vertex -18.4297 -2.33367 0
    endloop
  endfacet
  facet normal -0.909632 -0.415415 -0
    outer loop
      vertex -14.2336 -5.03036 16.5
      vertex -15.006 -3.33896 0
      vertex -14.2336 -5.03036 0
    endloop
  endfacet
  facet normal -0.909632 -0.415415 0
    outer loop
      vertex -14.2336 -5.03036 16.5
      vertex -15.006 -3.33896 16.5
      vertex -15.006 -3.33896 0
    endloop
  endfacet
  facet normal 0.909632 -0.415415 0
    outer loop
      vertex -20.7664 -5.03036 16.5
      vertex -19.994 -3.33896 0
      vertex -19.994 -3.33896 16.5
    endloop
  endfacet
  facet normal 0.909632 -0.415415 0
    outer loop
      vertex -20.7664 -5.03036 16.5
      vertex -20.7664 -5.03036 0
      vertex -19.994 -3.33896 0
    endloop
  endfacet
  facet normal 0.989821 0.142315 -0
    outer loop
      vertex -20.7664 -5.03036 0
      vertex -20.7664 -5.03036 16.5
      vertex -20.5018 -6.87087 16.5
    endloop
  endfacet
  facet normal 0.989821 0.142315 -0
    outer loop
      vertex -20.5018 -6.87087 0
      vertex -20.7664 -5.03036 0
      vertex -20.5018 -6.87087 16.5
    endloop
  endfacet
  facet normal -0.989821 0.142315 0
    outer loop
      vertex -14.2336 -5.03036 16.5
      vertex -14.2336 -5.03036 0
      vertex -14.4982 -6.87087 16.5
    endloop
  endfacet
  facet normal -0.989821 0.142315 0
    outer loop
      vertex -14.4982 -6.87087 16.5
      vertex -14.2336 -5.03036 0
      vertex -14.4982 -6.87087 0
    endloop
  endfacet
  facet normal 0.75575 0.654861 -0
    outer loop
      vertex -20.5018 -6.87087 0
      vertex -20.5018 -6.87087 16.5
      vertex -19.9566 -7.5 16.5
    endloop
  endfacet
  facet normal 0.75575 0.654861 -0
    outer loop
      vertex -19.9566 -7.5 0
      vertex -20.5018 -6.87087 0
      vertex -19.9566 -7.5 16.5
    endloop
  endfacet
  facet normal -0.75575 0.654861 0
    outer loop
      vertex -14.4982 -6.87087 16.5
      vertex -14.4982 -6.87087 0
      vertex -15.0434 -7.5 16.5
    endloop
  endfacet
  facet normal -0.75575 0.654861 0
    outer loop
      vertex -15.0434 -7.5 16.5
      vertex -14.4982 -6.87087 0
      vertex -15.0434 -7.5 0
    endloop
  endfacet
  facet normal -3.46606e-16 -1 0
    outer loop
      vertex 15.5 24 0
      vertex -5 24 16.5
      vertex -5 24 0
    endloop
  endfacet
  facet normal -3.46606e-16 -1 0
    outer loop
      vertex 15.5 24 0
      vertex 15.5 24 16.5
      vertex -5 24 16.5
    endloop
  endfacet
  facet normal -3.46606e-16 -1 0
    outer loop
      vertex -30 24 0
      vertex -50.5 24 16.5
      vertex -50.5 24 0
    endloop
  endfacet
  facet normal -3.46606e-16 -1 0
    outer loop
      vertex -30 24 0
      vertex -30 24 16.5
      vertex -50.5 24 16.5
    endloop
  endfacet
  facet normal 1 0 0
    outer loop
      vertex 15.5 28 0
      vertex 15.5 24 16.5
      vertex 15.5 24 0
    endloop
  endfacet
  facet normal 1 0 -0
    outer loop
      vertex 15.5 28 0
      vertex 15.5 28 16.5
      vertex 15.5 24 16.5
    endloop
  endfacet
  facet normal 0 0 -1
    outer loop
      vertex -50.5 24 0
      vertex -34 28 0
      vertex -30 24 0
    endloop
  endfacet
  facet normal 0 0 -1
    outer loop
      vertex -50.5 24 0
      vertex -50.5 28 0
      vertex -34 28 0
    endloop
  endfacet
  facet normal 0 0 -1
    outer loop
      vertex -5 24 0
      vertex -1 28 0
      vertex 15.5 24 0
    endloop
  endfacet
  facet normal 0 0 -1
    outer loop
      vertex -1 28 0
      vertex 15.5 28 0
      vertex 15.5 24 0
    endloop
  endfacet
  facet normal 0 0 -1
    outer loop
      vertex -1 44.5 0
      vertex -1 28 0
      vertex -5 40.5 0
    endloop
  endfacet
  facet normal 0 0 -1
    outer loop
      vertex -34 44.5 0
      vertex -19.9566 40.5 0
      vertex -22.5361 40.5 0
    endloop
  endfacet
  facet normal 0 0 -1
    outer loop
      vertex -1 44.5 0
      vertex -5 40.5 0
      vertex -12.4639 40.5 0
    endloop
  endfacet
  facet normal 0 0 -1
    outer loop
      vertex -30 24 0
      vertex -34 28 0
      vertex -30 40.5 0
    endloop
  endfacet
  facet normal 0 0 -1
    outer loop
      vertex -14.4982 39.8709 0
      vertex -15.0434 40.5 0
      vertex -12.4639 40.5 0
    endloop
  endfacet
  facet normal -0 0 -1
    outer loop
      vertex -20.5018 39.8709 0
      vertex -22.9164 39.4551 0
      vertex -22.5361 40.5 0
    endloop
  endfacet
  facet normal 0 0 -1
    outer loop
      vertex -16.5703 35.3337 0
      vertex -13.9647 34.2868 0
      vertex -15.6189 33.3317 0
    endloop
  endfacet
  facet normal -0 0 -1
    outer loop
      vertex -19.9566 40.5 0
      vertex -20.5018 39.8709 0
      vertex -22.5361 40.5 0
    endloop
  endfacet
  facet normal 0 -0 -1
    outer loop
      vertex -16.5703 35.3337 0
      vertex -15.6189 33.3317 0
      vertex -17.5 33 0
    endloop
  endfacet
  facet normal -0 0 -1
    outer loop
      vertex -30 40.5 0
      vertex -34 28 0
      vertex -34 44.5 0
    endloop
  endfacet
  facet normal 0 0 -1
    outer loop
      vertex -20.7664 38.0304 0
      vertex -22.9164 39.4551 0
      vertex -20.5018 39.8709 0
    endloop
  endfacet
  facet normal 0 0 -1
    outer loop
      vertex -22.2631 35.75 0
      vertex -22.9164 37.5449 0
      vertex -20.7664 38.0304 0
    endloop
  endfacet
  facet normal 0 0 -1
    outer loop
      vertex -22.5361 40.5 0
      vertex -30 40.5 0
      vertex -34 44.5 0
    endloop
  endfacet
  facet normal 0 0 -1
    outer loop
      vertex -22.9164 37.5449 0
      vertex -22.9164 39.4551 0
      vertex -20.7664 38.0304 0
    endloop
  endfacet
  facet normal 0 0 -1
    outer loop
      vertex -15.0434 40.5 0
      vertex -34 44.5 0
      vertex -1 44.5 0
    endloop
  endfacet
  facet normal 0 0 -1
    outer loop
      vertex -14.4982 39.8709 0
      vertex -12.4639 40.5 0
      vertex -12.0836 39.4551 0
    endloop
  endfacet
  facet normal 0 -0 -1
    outer loop
      vertex -5 40.5 0
      vertex -1 28 0
      vertex -5 24 0
    endloop
  endfacet
  facet normal 0 0 -1
    outer loop
      vertex -21.0353 34.2868 0
      vertex -22.2631 35.75 0
      vertex -19.994 36.339 0
    endloop
  endfacet
  facet normal 0 0 -1
    outer loop
      vertex -21.0353 34.2868 0
      vertex -18.4297 35.3337 0
      vertex -19.3811 33.3317 0
    endloop
  endfacet
  facet normal 0 0 -1
    outer loop
      vertex -22.2631 35.75 0
      vertex -20.7664 38.0304 0
      vertex -19.994 36.339 0
    endloop
  endfacet
  facet normal 0 0 -1
    outer loop
      vertex -19.3811 33.3317 0
      vertex -18.4297 35.3337 0
      vertex -17.5 33 0
    endloop
  endfacet
  facet normal -0 0 -1
    outer loop
      vertex -16.5703 35.3337 0
      vertex -17.5 33 0
      vertex -18.4297 35.3337 0
    endloop
  endfacet
  facet normal 0 -0 -1
    outer loop
      vertex -19.994 36.339 0
      vertex -18.4297 35.3337 0
      vertex -21.0353 34.2868 0
    endloop
  endfacet
  facet normal -0 0 -1
    outer loop
      vertex -12.7369 35.75 0
      vertex -13.9647 34.2868 0
      vertex -15.006 36.339 0
    endloop
  endfacet
  facet normal 0 0 -1
    outer loop
      vertex -12.7369 35.75 0
      vertex -14.2336 38.0304 0
      vertex -12.0836 37.5449 0
    endloop
  endfacet
  facet normal 0 0 -1
    outer loop
      vertex -13.9647 34.2868 0
      vertex -16.5703 35.3337 0
      vertex -15.006 36.339 0
    endloop
  endfacet
  facet normal 0 0 -1
    outer loop
      vertex -12.0836 37.5449 0
      vertex -14.2336 38.0304 0
      vertex -12.0836 39.4551 0
    endloop
  endfacet
  facet normal 0 0 -1
    outer loop
      vertex -15.006 36.339 0
      vertex -14.2336 38.0304 0
      vertex -12.7369 35.75 0
    endloop
  endfacet
  facet normal 0 0 -1
    outer loop
      vertex -14.2336 38.0304 0
      vertex -14.4982 39.8709 0
      vertex -12.0836 39.4551 0
    endloop
  endfacet
  facet normal 0 0 -1
    outer loop
      vertex -12.4639 40.5 0
      vertex -15.0434 40.5 0
      vertex -1 44.5 0
    endloop
  endfacet
  facet normal 0 0 -1
    outer loop
      vertex -15.0434 40.5 0
      vertex -19.9566 40.5 0
      vertex -34 44.5 0
    endloop
  endfacet
  facet normal -1 1.77636e-15 0
    outer loop
      vertex -50.5 24 0
      vertex -50.5 24 16.5
      vertex -50.5 28 0
    endloop
  endfacet
  facet normal -1 1.77636e-15 0
    outer loop
      vertex -50.5 28 0
      vertex -50.5 24 16.5
      vertex -50.5 28 16.5
    endloop
  endfacet
  facet normal 0 0 1
    outer loop
      vertex -34 28 16.5
      vertex -50.5 28 16.5
      vertex -50.5 24 16.5
    endloop
  endfacet
  facet normal 0 0 1
    outer loop
      vertex -1 28 16.5
      vertex -5 40.5 16.5
      vertex -5 24 16.5
    endloop
  endfacet
  facet normal 0 0 1
    outer loop
      vertex -20.5018 39.8709 16.5
      vertex -22.5361 40.5 16.5
      vertex -22.9164 39.4551 16.5
    endloop
  endfacet
  facet normal 0 0 1
    outer loop
      vertex -20.7664 38.0304 16.5
      vertex -22.9164 39.4551 16.5
      vertex -22.9164 37.5449 16.5
    endloop
  endfacet
  facet normal 0 0 1
    outer loop
      vertex -20.7664 38.0304 16.5
      vertex -22.9164 37.5449 16.5
      vertex -22.2631 35.75 16.5
    endloop
  endfacet
  facet normal 0 0 1
    outer loop
      vertex -19.994 36.339 16.5
      vertex -20.7664 38.0304 16.5
      vertex -22.2631 35.75 16.5
    endloop
  endfacet
  facet normal 0 -0 1
    outer loop
      vertex -13.9647 34.2868 16.5
      vertex -12.7369 35.75 16.5
      vertex -15.006 36.339 16.5
    endloop
  endfacet
  facet normal 0 0 1
    outer loop
      vertex -34 44.5 16.5
      vertex -30 40.5 16.5
      vertex -22.5361 40.5 16.5
    endloop
  endfacet
  facet normal 0 0 1
    outer loop
      vertex -34 44.5 16.5
      vertex -22.5361 40.5 16.5
      vertex -19.9566 40.5 16.5
    endloop
  endfacet
  facet normal 0 -0 1
    outer loop
      vertex 15.5 24 16.5
      vertex 15.5 28 16.5
      vertex -1 28 16.5
    endloop
  endfacet
  facet normal 0 0 1
    outer loop
      vertex 15.5 24 16.5
      vertex -1 28 16.5
      vertex -5 24 16.5
    endloop
  endfacet
  facet normal 0 0 1
    outer loop
      vertex -12.7369 35.75 16.5
      vertex -14.2336 38.0304 16.5
      vertex -15.006 36.339 16.5
    endloop
  endfacet
  facet normal 0 -0 1
    outer loop
      vertex -1 28 16.5
      vertex -1 44.5 16.5
      vertex -5 40.5 16.5
    endloop
  endfacet
  facet normal 0 0 1
    outer loop
      vertex -1 44.5 16.5
      vertex -12.4639 40.5 16.5
      vertex -5 40.5 16.5
    endloop
  endfacet
  facet normal 0 0 1
    outer loop
      vertex -1 44.5 16.5
      vertex -34 44.5 16.5
      vertex -15.0434 40.5 16.5
    endloop
  endfacet
  facet normal 0 0 1
    outer loop
      vertex -34 44.5 16.5
      vertex -34 28 16.5
      vertex -30 40.5 16.5
    endloop
  endfacet
  facet normal 0 0 1
    outer loop
      vertex -30 24 16.5
      vertex -34 28 16.5
      vertex -50.5 24 16.5
    endloop
  endfacet
  facet normal -0 0 1
    outer loop
      vertex -34 28 16.5
      vertex -30 24 16.5
      vertex -30 40.5 16.5
    endloop
  endfacet
  facet normal 0 -0 1
    outer loop
      vertex -20.7664 38.0304 16.5
      vertex -20.5018 39.8709 16.5
      vertex -22.9164 39.4551 16.5
    endloop
  endfacet
  facet normal 0 -0 1
    outer loop
      vertex -20.5018 39.8709 16.5
      vertex -19.9566 40.5 16.5
      vertex -22.5361 40.5 16.5
    endloop
  endfacet
  facet normal 0 0 1
    outer loop
      vertex -34 44.5 16.5
      vertex -19.9566 40.5 16.5
      vertex -15.0434 40.5 16.5
    endloop
  endfacet
  facet normal 0 -0 1
    outer loop
      vertex -12.0836 37.5449 16.5
      vertex -12.0836 39.4551 16.5
      vertex -14.2336 38.0304 16.5
    endloop
  endfacet
  facet normal 0 0 1
    outer loop
      vertex -1 44.5 16.5
      vertex -15.0434 40.5 16.5
      vertex -12.4639 40.5 16.5
    endloop
  endfacet
  facet normal -0 0 1
    outer loop
      vertex -14.4982 39.8709 16.5
      vertex -12.0836 39.4551 16.5
      vertex -12.4639 40.5 16.5
    endloop
  endfacet
  facet normal -0 0 1
    outer loop
      vertex -15.0434 40.5 16.5
      vertex -14.4982 39.8709 16.5
      vertex -12.4639 40.5 16.5
    endloop
  endfacet
  facet normal 0 0 1
    outer loop
      vertex -14.2336 38.0304 16.5
      vertex -12.7369 35.75 16.5
      vertex -12.0836 37.5449 16.5
    endloop
  endfacet
  facet normal 0 0 1
    outer loop
      vertex -13.9647 34.2868 16.5
      vertex -16.5703 35.3337 16.5
      vertex -15.6189 33.3317 16.5
    endloop
  endfacet
  facet normal 0 -0 1
    outer loop
      vertex -14.2336 38.0304 16.5
      vertex -12.0836 39.4551 16.5
      vertex -14.4982 39.8709 16.5
    endloop
  endfacet
  facet normal 0 0 1
    outer loop
      vertex -15.6189 33.3317 16.5
      vertex -16.5703 35.3337 16.5
      vertex -17.5 33 16.5
    endloop
  endfacet
  facet normal 0 0 1
    outer loop
      vertex -18.4297 35.3337 16.5
      vertex -19.3811 33.3317 16.5
      vertex -17.5 33 16.5
    endloop
  endfacet
  facet normal 0 0 1
    outer loop
      vertex -15.006 36.339 16.5
      vertex -16.5703 35.3337 16.5
      vertex -13.9647 34.2868 16.5
    endloop
  endfacet
  facet normal 0 0 1
    outer loop
      vertex -18.4297 35.3337 16.5
      vertex -21.0353 34.2868 16.5
      vertex -19.3811 33.3317 16.5
    endloop
  endfacet
  facet normal 0 0 1
    outer loop
      vertex -16.5703 35.3337 16.5
      vertex -18.4297 35.3337 16.5
      vertex -17.5 33 16.5
    endloop
  endfacet
  facet normal 0 0 1
    outer loop
      vertex -18.4297 35.3337 16.5
      vertex -19.994 36.339 16.5
      vertex -21.0353 34.2868 16.5
    endloop
  endfacet
  facet normal 0 0 1
    outer loop
      vertex -19.994 36.339 16.5
      vertex -22.2631 35.75 16.5
      vertex -21.0353 34.2868 16.5
    endloop
  endfacet
  facet normal 4.30632e-16 1 -0
    outer loop
      vertex -1 28 0
      vertex -1 28 16.5
      vertex 15.5 28 0
    endloop
  endfacet
  facet normal 4.30632e-16 1 -0
    outer loop
      vertex 15.5 28 0
      vertex -1 28 16.5
      vertex 15.5 28 16.5
    endloop
  endfacet
  facet normal 2.15316e-16 1 -0
    outer loop
      vertex -50.5 28 0
      vertex -50.5 28 16.5
      vertex -34 28 0
    endloop
  endfacet
  facet normal 2.15316e-16 1 -0
    outer loop
      vertex -34 28 0
      vertex -50.5 28 16.5
      vertex -34 28 16.5
    endloop
  endfacet
  facet normal 1 -2.22045e-16 0
    outer loop
      vertex -1 44.5 0
      vertex -1 28 16.5
      vertex -1 28 0
    endloop
  endfacet
  facet normal 1 -2.22045e-16 0
    outer loop
      vertex -1 44.5 0
      vertex -1 44.5 16.5
      vertex -1 28 16.5
    endloop
  endfacet
  facet normal -1 0 0
    outer loop
      vertex -34 28 0
      vertex -34 28 16.5
      vertex -34 44.5 0
    endloop
  endfacet
  facet normal -1 0 0
    outer loop
      vertex -34 44.5 0
      vertex -34 28 16.5
      vertex -34 44.5 16.5
    endloop
  endfacet
  facet normal 2.15316e-16 1 -0
    outer loop
      vertex -34 44.5 0
      vertex -34 44.5 16.5
      vertex -1 44.5 0
    endloop
  endfacet
  facet normal 2.15316e-16 1 -0
    outer loop
      vertex -1 44.5 0
      vertex -34 44.5 16.5
      vertex -1 44.5 16.5
    endloop
  endfacet
  facet normal -1 2.69145e-16 0
    outer loop
      vertex -5 40.5 16.5
      vertex -5 40.5 0
      vertex -5 24 16.5
    endloop
  endfacet
  facet normal -1 2.69145e-16 0
    outer loop
      vertex -5 24 16.5
      vertex -5 40.5 0
      vertex -5 24 0
    endloop
  endfacet
  facet normal 1 -4.30632e-16 0
    outer loop
      vertex -30 24 16.5
      vertex -30 40.5 0
      vertex -30 40.5 16.5
    endloop
  endfacet
  facet normal 1 -4.30632e-16 0
    outer loop
      vertex -30 24 16.5
      vertex -30 24 0
      vertex -30 40.5 0
    endloop
  endfacet
  facet normal 0 -1 0
    outer loop
      vertex -12.4639 40.5 16.5
      vertex -5 40.5 0
      vertex -5 40.5 16.5
    endloop
  endfacet
  facet normal 0 -1 0
    outer loop
      vertex -12.4639 40.5 16.5
      vertex -12.4639 40.5 0
      vertex -5 40.5 0
    endloop
  endfacet
  facet normal 0 -1 0
    outer loop
      vertex -30 40.5 16.5
      vertex -22.5361 40.5 0
      vertex -22.5361 40.5 16.5
    endloop
  endfacet
  facet normal 0 -1 0
    outer loop
      vertex -30 40.5 16.5
      vertex -30 40.5 0
      vertex -22.5361 40.5 0
    endloop
  endfacet
  facet normal 0 -1 0
    outer loop
      vertex -19.9566 40.5 16.5
      vertex -15.0434 40.5 0
      vertex -15.0434 40.5 16.5
    endloop
  endfacet
  facet normal 0 -1 0
    outer loop
      vertex -19.9566 40.5 16.5
      vertex -19.9566 40.5 0
      vertex -15.0434 40.5 0
    endloop
  endfacet
  facet normal 0.173648 -0.984808 0
    outer loop
      vertex -15.6189 33.3317 0
      vertex -17.5 33 16.5
      vertex -17.5 33 0
    endloop
  endfacet
  facet normal 0.173648 -0.984808 0
    outer loop
      vertex -15.6189 33.3317 0
      vertex -15.6189 33.3317 16.5
      vertex -17.5 33 16.5
    endloop
  endfacet
  facet normal -1 0 0
    outer loop
      vertex -22.9164 37.5449 0
      vertex -22.9164 37.5449 16.5
      vertex -22.9164 39.4551 0
    endloop
  endfacet
  facet normal -1 0 0
    outer loop
      vertex -22.9164 39.4551 0
      vertex -22.9164 37.5449 16.5
      vertex -22.9164 39.4551 16.5
    endloop
  endfacet
  facet normal 0.939693 -0.34202 0
    outer loop
      vertex -12.0836 37.5449 0
      vertex -12.7369 35.75 16.5
      vertex -12.7369 35.75 0
    endloop
  endfacet
  facet normal 0.939693 -0.34202 0
    outer loop
      vertex -12.0836 37.5449 0
      vertex -12.0836 37.5449 16.5
      vertex -12.7369 35.75 16.5
    endloop
  endfacet
  facet normal 1 0 0
    outer loop
      vertex -12.0836 39.4551 0
      vertex -12.0836 37.5449 16.5
      vertex -12.0836 37.5449 0
    endloop
  endfacet
  facet normal 1 0 -0
    outer loop
      vertex -12.0836 39.4551 0
      vertex -12.0836 39.4551 16.5
      vertex -12.0836 37.5449 16.5
    endloop
  endfacet
  facet normal -0.173648 -0.984808 0
    outer loop
      vertex -17.5 33 0
      vertex -19.3811 33.3317 16.5
      vertex -19.3811 33.3317 0
    endloop
  endfacet
  facet normal -0.173648 -0.984808 0
    outer loop
      vertex -17.5 33 0
      vertex -17.5 33 16.5
      vertex -19.3811 33.3317 16.5
    endloop
  endfacet
  facet normal -0.939693 0.34202 0
    outer loop
      vertex -22.9164 39.4551 0
      vertex -22.9164 39.4551 16.5
      vertex -22.5361 40.5 0
    endloop
  endfacet
  facet normal -0.939693 0.34202 0
    outer loop
      vertex -22.5361 40.5 0
      vertex -22.9164 39.4551 16.5
      vertex -22.5361 40.5 16.5
    endloop
  endfacet
  facet normal 0.5 -0.866025 0
    outer loop
      vertex -13.9647 34.2868 0
      vertex -15.6189 33.3317 16.5
      vertex -15.6189 33.3317 0
    endloop
  endfacet
  facet normal 0.5 -0.866025 0
    outer loop
      vertex -13.9647 34.2868 0
      vertex -13.9647 34.2868 16.5
      vertex -15.6189 33.3317 16.5
    endloop
  endfacet
  facet normal 0.939693 0.34202 0
    outer loop
      vertex -12.0836 39.4551 16.5
      vertex -12.0836 39.4551 0
      vertex -12.4639 40.5 0
    endloop
  endfacet
  facet normal 0.939693 0.34202 0
    outer loop
      vertex -12.4639 40.5 16.5
      vertex -12.0836 39.4551 16.5
      vertex -12.4639 40.5 0
    endloop
  endfacet
  facet normal -0.939693 -0.34202 0
    outer loop
      vertex -22.9164 37.5449 0
      vertex -22.2631 35.75 16.5
      vertex -22.9164 37.5449 16.5
    endloop
  endfacet
  facet normal -0.939693 -0.34202 0
    outer loop
      vertex -22.9164 37.5449 0
      vertex -22.2631 35.75 0
      vertex -22.2631 35.75 16.5
    endloop
  endfacet
  facet normal -0.5 -0.866025 0
    outer loop
      vertex -19.3811 33.3317 0
      vertex -21.0353 34.2868 16.5
      vertex -21.0353 34.2868 0
    endloop
  endfacet
  facet normal -0.5 -0.866025 0
    outer loop
      vertex -19.3811 33.3317 0
      vertex -19.3811 33.3317 16.5
      vertex -21.0353 34.2868 16.5
    endloop
  endfacet
  facet normal 0.766044 -0.642788 0
    outer loop
      vertex -12.7369 35.75 0
      vertex -13.9647 34.2868 16.5
      vertex -13.9647 34.2868 0
    endloop
  endfacet
  facet normal 0.766044 -0.642788 0
    outer loop
      vertex -12.7369 35.75 0
      vertex -12.7369 35.75 16.5
      vertex -13.9647 34.2868 16.5
    endloop
  endfacet
  facet normal -0.766044 -0.642788 0
    outer loop
      vertex -22.2631 35.75 0
      vertex -21.0353 34.2868 16.5
      vertex -22.2631 35.75 16.5
    endloop
  endfacet
  facet normal -0.766044 -0.642788 0
    outer loop
      vertex -22.2631 35.75 0
      vertex -21.0353 34.2868 0
      vertex -21.0353 34.2868 16.5
    endloop
  endfacet
  facet normal 0 1 0
    outer loop
      vertex -16.5703 35.3337 16.5
      vertex -16.5703 35.3337 0
      vertex -18.4297 35.3337 16.5
    endloop
  endfacet
  facet normal 0 1 0
    outer loop
      vertex -18.4297 35.3337 16.5
      vertex -16.5703 35.3337 0
      vertex -18.4297 35.3337 0
    endloop
  endfacet
  facet normal 0.540641 0.841254 0
    outer loop
      vertex -18.4297 35.3337 16.5
      vertex -18.4297 35.3337 0
      vertex -19.994 36.339 16.5
    endloop
  endfacet
  facet normal 0.540641 0.841254 0
    outer loop
      vertex -19.994 36.339 16.5
      vertex -18.4297 35.3337 0
      vertex -19.994 36.339 0
    endloop
  endfacet
  facet normal -0.540641 0.841254 0
    outer loop
      vertex -15.006 36.339 16.5
      vertex -15.006 36.339 0
      vertex -16.5703 35.3337 16.5
    endloop
  endfacet
  facet normal -0.540641 0.841254 0
    outer loop
      vertex -16.5703 35.3337 16.5
      vertex -15.006 36.339 0
      vertex -16.5703 35.3337 0
    endloop
  endfacet
  facet normal 0.909632 0.415415 -0
    outer loop
      vertex -20.7664 38.0304 0
      vertex -20.7664 38.0304 16.5
      vertex -19.994 36.339 16.5
    endloop
  endfacet
  facet normal 0.909632 0.415415 -0
    outer loop
      vertex -19.994 36.339 0
      vertex -20.7664 38.0304 0
      vertex -19.994 36.339 16.5
    endloop
  endfacet
  facet normal -0.909632 0.415415 0
    outer loop
      vertex -14.2336 38.0304 16.5
      vertex -14.2336 38.0304 0
      vertex -15.006 36.339 16.5
    endloop
  endfacet
  facet normal -0.909632 0.415415 0
    outer loop
      vertex -15.006 36.339 16.5
      vertex -14.2336 38.0304 0
      vertex -15.006 36.339 0
    endloop
  endfacet
  facet normal -0.989821 -0.142315 -0
    outer loop
      vertex -14.2336 38.0304 16.5
      vertex -14.4982 39.8709 0
      vertex -14.2336 38.0304 0
    endloop
  endfacet
  facet normal -0.989821 -0.142315 0
    outer loop
      vertex -14.2336 38.0304 16.5
      vertex -14.4982 39.8709 16.5
      vertex -14.4982 39.8709 0
    endloop
  endfacet
  facet normal 0.989821 -0.142315 0
    outer loop
      vertex -20.7664 38.0304 16.5
      vertex -20.5018 39.8709 0
      vertex -20.5018 39.8709 16.5
    endloop
  endfacet
  facet normal 0.989821 -0.142315 0
    outer loop
      vertex -20.7664 38.0304 16.5
      vertex -20.7664 38.0304 0
      vertex -20.5018 39.8709 0
    endloop
  endfacet
  facet normal -0.75575 -0.654861 -0
    outer loop
      vertex -14.4982 39.8709 16.5
      vertex -15.0434 40.5 0
      vertex -14.4982 39.8709 0
    endloop
  endfacet
  facet normal -0.75575 -0.654861 0
    outer loop
      vertex -14.4982 39.8709 16.5
      vertex -15.0434 40.5 16.5
      vertex -15.0434 40.5 0
    endloop
  endfacet
  facet normal 0.75575 -0.654861 0
    outer loop
      vertex -20.5018 39.8709 16.5
      vertex -19.9566 40.5 0
      vertex -19.9566 40.5 16.5
    endloop
  endfacet
  facet normal 0.75575 -0.654861 0
    outer loop
      vertex -20.5018 39.8709 16.5
      vertex -20.5018 39.8709 0
      vertex -19.9566 40.5 0
    endloop
  endfacet
  facet normal 1 -3.46606e-16 0
    outer loop
      vertex -35 49.5 0
      vertex -35 29 16.5
      vertex -35 29 0
    endloop
  endfacet
  facet normal 1 -3.46606e-16 0
    outer loop
      vertex -35 49.5 0
      vertex -35 49.5 16.5
      vertex -35 29 16.5
    endloop
  endfacet
  facet normal 1 0 0
    outer loop
      vertex -35 4 0
      vertex -35 -16.5 16.5
      vertex -35 -16.5 0
    endloop
  endfacet
  facet normal 1 0 -0
    outer loop
      vertex -35 4 0
      vertex -35 4 16.5
      vertex -35 -16.5 16.5
    endloop
  endfacet
  facet normal 0 1 0
    outer loop
      vertex -39 49.5 0
      vertex -39 49.5 16.5
      vertex -35 49.5 0
    endloop
  endfacet
  facet normal 0 1 -0
    outer loop
      vertex -35 49.5 0
      vertex -39 49.5 16.5
      vertex -35 49.5 16.5
    endloop
  endfacet
  facet normal 0 0 -1
    outer loop
      vertex -39 33 0
      vertex -39 49.5 0
      vertex -35 49.5 0
    endloop
  endfacet
  facet normal -0 0 -1
    outer loop
      vertex -39 33 0
      vertex -51.5 29 0
      vertex -55.5 33 0
    endloop
  endfacet
  facet normal 0 0 -1
    outer loop
      vertex -39 33 0
      vertex -35 49.5 0
      vertex -35 29 0
    endloop
  endfacet
  facet normal 0 -0 -1
    outer loop
      vertex -50.8709 13.4982 0
      vertex -50.4551 11.0836 0
      vertex -51.5 11.4639 0
    endloop
  endfacet
  facet normal 0 0 -1
    outer loop
      vertex -55.5 33 0
      vertex -51.5 29 0
      vertex -51.5 21.5361 0
    endloop
  endfacet
  facet normal -0 0 -1
    outer loop
      vertex -35 4 0
      vertex -39 4.89859e-16 0
      vertex -51.5 4 0
    endloop
  endfacet
  facet normal -0 0 -1
    outer loop
      vertex -50.8709 19.5018 0
      vertex -51.5 18.9566 0
      vertex -51.5 21.5361 0
    endloop
  endfacet
  facet normal 0 0 -1
    outer loop
      vertex -50.8709 19.5018 0
      vertex -51.5 21.5361 0
      vertex -50.4551 21.9164 0
    endloop
  endfacet
  facet normal 0 0 -1
    outer loop
      vertex -49.0304 19.7664 0
      vertex -50.4551 21.9164 0
      vertex -48.5449 21.9164 0
    endloop
  endfacet
  facet normal -0 -0 -1
    outer loop
      vertex -51.5 21.5361 0
      vertex -51.5 18.9566 0
      vertex -55.5 33 0
    endloop
  endfacet
  facet normal 0 -0 -1
    outer loop
      vertex -51.5 4 0
      vertex -39 4.89859e-16 0
      vertex -55.5 2.51053e-15 0
    endloop
  endfacet
  facet normal 0 0 -1
    outer loop
      vertex -47.339 18.994 0
      vertex -46.75 21.2631 0
      vertex -45.2868 20.0353 0
    endloop
  endfacet
  facet normal 0 -0 -1
    outer loop
      vertex -47.339 14.006 0
      vertex -46.75 11.7369 0
      vertex -49.0304 13.2336 0
    endloop
  endfacet
  facet normal 0 -0 -1
    outer loop
      vertex -51.5 11.4639 0
      vertex -51.5 4 0
      vertex -55.5 2.51053e-15 0
    endloop
  endfacet
  facet normal 0 0 -1
    outer loop
      vertex -47.339 14.006 0
      vertex -45.2868 12.9647 0
      vertex -46.75 11.7369 0
    endloop
  endfacet
  facet normal -0 0 -1
    outer loop
      vertex -51.5 18.9566 0
      vertex -55.5 2.51053e-15 0
      vertex -55.5 33 0
    endloop
  endfacet
  facet normal 0 0 -1
    outer loop
      vertex -50.4551 11.0836 0
      vertex -49.0304 13.2336 0
      vertex -48.5449 11.0836 0
    endloop
  endfacet
  facet normal 0 0 -1
    outer loop
      vertex -39 4.89859e-16 0
      vertex -35 4 0
      vertex -35 -16.5 0
    endloop
  endfacet
  facet normal 0 0 -1
    outer loop
      vertex -35 -16.5 0
      vertex -39 -16.5 0
      vertex -39 4.89859e-16 0
    endloop
  endfacet
  facet normal 0 0 -1
    outer loop
      vertex -51.5 29 0
      vertex -39 33 0
      vertex -35 29 0
    endloop
  endfacet
  facet normal 0 0 -1
    outer loop
      vertex -55.5 2.51053e-15 0
      vertex -51.5 18.9566 0
      vertex -51.5 14.0434 0
    endloop
  endfacet
  facet normal 0 0 -1
    outer loop
      vertex -55.5 2.51053e-15 0
      vertex -51.5 14.0434 0
      vertex -51.5 11.4639 0
    endloop
  endfacet
  facet normal 0 0 -1
    outer loop
      vertex -51.5 11.4639 0
      vertex -51.5 14.0434 0
      vertex -50.8709 13.4982 0
    endloop
  endfacet
  facet normal 0 0 -1
    outer loop
      vertex -48.5449 11.0836 0
      vertex -49.0304 13.2336 0
      vertex -46.75 11.7369 0
    endloop
  endfacet
  facet normal -0 0 -1
    outer loop
      vertex -44.3317 14.6189 0
      vertex -45.2868 12.9647 0
      vertex -46.3337 15.5703 0
    endloop
  endfacet
  facet normal 0 0 -1
    outer loop
      vertex -50.8709 13.4982 0
      vertex -49.0304 13.2336 0
      vertex -50.4551 11.0836 0
    endloop
  endfacet
  facet normal 0 0 -1
    outer loop
      vertex -44 16.5 0
      vertex -44.3317 14.6189 0
      vertex -46.3337 15.5703 0
    endloop
  endfacet
  facet normal 0 0 -1
    outer loop
      vertex -44 16.5 0
      vertex -46.3337 17.4297 0
      vertex -44.3317 18.3811 0
    endloop
  endfacet
  facet normal 0 0 -1
    outer loop
      vertex -45.2868 12.9647 0
      vertex -47.339 14.006 0
      vertex -46.3337 15.5703 0
    endloop
  endfacet
  facet normal -0 0 -1
    outer loop
      vertex -44.3317 18.3811 0
      vertex -46.3337 17.4297 0
      vertex -45.2868 20.0353 0
    endloop
  endfacet
  facet normal 0 -0 -1
    outer loop
      vertex -48.5449 21.9164 0
      vertex -46.75 21.2631 0
      vertex -49.0304 19.7664 0
    endloop
  endfacet
  facet normal 0 0 -1
    outer loop
      vertex -46.3337 15.5703 0
      vertex -46.3337 17.4297 0
      vertex -44 16.5 0
    endloop
  endfacet
  facet normal 0 0 -1
    outer loop
      vertex -46.3337 17.4297 0
      vertex -47.339 18.994 0
      vertex -45.2868 20.0353 0
    endloop
  endfacet
  facet normal 0 0 -1
    outer loop
      vertex -47.339 18.994 0
      vertex -49.0304 19.7664 0
      vertex -46.75 21.2631 0
    endloop
  endfacet
  facet normal -0 0 -1
    outer loop
      vertex -49.0304 19.7664 0
      vertex -50.8709 19.5018 0
      vertex -50.4551 21.9164 0
    endloop
  endfacet
  facet normal -8.88178e-16 -1 0
    outer loop
      vertex -35 -16.5 0
      vertex -39 -16.5 16.5
      vertex -39 -16.5 0
    endloop
  endfacet
  facet normal -8.88178e-16 -1 0
    outer loop
      vertex -35 -16.5 0
      vertex -35 -16.5 16.5
      vertex -39 -16.5 16.5
    endloop
  endfacet
  facet normal 0 0 1
    outer loop
      vertex -39 4.89859e-16 16.5
      vertex -39 -16.5 16.5
      vertex -35 -16.5 16.5
    endloop
  endfacet
  facet normal -0 0 1
    outer loop
      vertex -39 4.89859e-16 16.5
      vertex -35 -16.5 16.5
      vertex -35 4 16.5
    endloop
  endfacet
  facet normal 0 0 1
    outer loop
      vertex -39 4.89859e-16 16.5
      vertex -51.5 4 16.5
      vertex -55.5 2.51053e-15 16.5
    endloop
  endfacet
  facet normal 0 0 1
    outer loop
      vertex -51.5 18.9566 16.5
      vertex -55.5 33 16.5
      vertex -55.5 2.51053e-15 16.5
    endloop
  endfacet
  facet normal 0 0 1
    outer loop
      vertex -51.5 11.4639 16.5
      vertex -55.5 2.51053e-15 16.5
      vertex -51.5 4 16.5
    endloop
  endfacet
  facet normal 0 0 1
    outer loop
      vertex -39 33 16.5
      vertex -51.5 29 16.5
      vertex -35 29 16.5
    endloop
  endfacet
  facet normal 0 0 1
    outer loop
      vertex -51.5 14.0434 16.5
      vertex -51.5 11.4639 16.5
      vertex -50.8709 13.4982 16.5
    endloop
  endfacet
  facet normal -0 0 1
    outer loop
      vertex -51.5 11.4639 16.5
      vertex -50.4551 11.0836 16.5
      vertex -50.8709 13.4982 16.5
    endloop
  endfacet
  facet normal -0 0 1
    outer loop
      vertex -50.4551 11.0836 16.5
      vertex -48.5449 11.0836 16.5
      vertex -49.0304 13.2336 16.5
    endloop
  endfacet
  facet normal 0 -0 1
    outer loop
      vertex -46.75 11.7369 16.5
      vertex -45.2868 12.9647 16.5
      vertex -47.339 14.006 16.5
    endloop
  endfacet
  facet normal 0 0 1
    outer loop
      vertex -46.75 21.2631 16.5
      vertex -49.0304 19.7664 16.5
      vertex -47.339 18.994 16.5
    endloop
  endfacet
  facet normal 0 0 1
    outer loop
      vertex -51.5 29 16.5
      vertex -55.5 33 16.5
      vertex -51.5 21.5361 16.5
    endloop
  endfacet
  facet normal 0 0 1
    outer loop
      vertex -45.2868 20.0353 16.5
      vertex -46.75 21.2631 16.5
      vertex -47.339 18.994 16.5
    endloop
  endfacet
  facet normal 0 0 1
    outer loop
      vertex -51.5 21.5361 16.5
      vertex -55.5 33 16.5
      vertex -51.5 18.9566 16.5
    endloop
  endfacet
  facet normal 0 -0 1
    outer loop
      vertex -49.0304 19.7664 16.5
      vertex -48.5449 21.9164 16.5
      vertex -50.4551 21.9164 16.5
    endloop
  endfacet
  facet normal 0 0 1
    outer loop
      vertex -35 49.5 16.5
      vertex -39 49.5 16.5
      vertex -39 33 16.5
    endloop
  endfacet
  facet normal 0 0 1
    outer loop
      vertex -35 49.5 16.5
      vertex -39 33 16.5
      vertex -35 29 16.5
    endloop
  endfacet
  facet normal 0 0 1
    outer loop
      vertex -51.5 14.0434 16.5
      vertex -55.5 2.51053e-15 16.5
      vertex -51.5 11.4639 16.5
    endloop
  endfacet
  facet normal 0 0 1
    outer loop
      vertex -39 33 16.5
      vertex -55.5 33 16.5
      vertex -51.5 29 16.5
    endloop
  endfacet
  facet normal 0 -0 1
    outer loop
      vertex -39 4.89859e-16 16.5
      vertex -35 4 16.5
      vertex -51.5 4 16.5
    endloop
  endfacet
  facet normal -0 0 1
    outer loop
      vertex -51.5 21.5361 16.5
      vertex -50.8709 19.5018 16.5
      vertex -50.4551 21.9164 16.5
    endloop
  endfacet
  facet normal 0 0 1
    outer loop
      vertex -51.5 18.9566 16.5
      vertex -55.5 2.51053e-15 16.5
      vertex -51.5 14.0434 16.5
    endloop
  endfacet
  facet normal 0 0 1
    outer loop
      vertex -51.5 18.9566 16.5
      vertex -50.8709 19.5018 16.5
      vertex -51.5 21.5361 16.5
    endloop
  endfacet
  facet normal 0 0 1
    outer loop
      vertex -49.0304 19.7664 16.5
      vertex -46.75 21.2631 16.5
      vertex -48.5449 21.9164 16.5
    endloop
  endfacet
  facet normal 0 0 1
    outer loop
      vertex -45.2868 20.0353 16.5
      vertex -46.3337 17.4297 16.5
      vertex -44.3317 18.3811 16.5
    endloop
  endfacet
  facet normal 0 0 1
    outer loop
      vertex -49.0304 19.7664 16.5
      vertex -50.4551 21.9164 16.5
      vertex -50.8709 19.5018 16.5
    endloop
  endfacet
  facet normal 0 0 1
    outer loop
      vertex -44.3317 18.3811 16.5
      vertex -46.3337 17.4297 16.5
      vertex -44 16.5 16.5
    endloop
  endfacet
  facet normal -0 0 1
    outer loop
      vertex -46.3337 15.5703 16.5
      vertex -44.3317 14.6189 16.5
      vertex -44 16.5 16.5
    endloop
  endfacet
  facet normal -0 0 1
    outer loop
      vertex -47.339 18.994 16.5
      vertex -46.3337 17.4297 16.5
      vertex -45.2868 20.0353 16.5
    endloop
  endfacet
  facet normal 0 0 1
    outer loop
      vertex -46.3337 15.5703 16.5
      vertex -45.2868 12.9647 16.5
      vertex -44.3317 14.6189 16.5
    endloop
  endfacet
  facet normal 0 0 1
    outer loop
      vertex -46.75 11.7369 16.5
      vertex -49.0304 13.2336 16.5
      vertex -48.5449 11.0836 16.5
    endloop
  endfacet
  facet normal 0 0 1
    outer loop
      vertex -46.3337 15.5703 16.5
      vertex -44 16.5 16.5
      vertex -46.3337 17.4297 16.5
    endloop
  endfacet
  facet normal -0 0 1
    outer loop
      vertex -47.339 14.006 16.5
      vertex -45.2868 12.9647 16.5
      vertex -46.3337 15.5703 16.5
    endloop
  endfacet
  facet normal -0 0 1
    outer loop
      vertex -49.0304 13.2336 16.5
      vertex -46.75 11.7369 16.5
      vertex -47.339 14.006 16.5
    endloop
  endfacet
  facet normal 0 0 1
    outer loop
      vertex -50.8709 13.4982 16.5
      vertex -50.4551 11.0836 16.5
      vertex -49.0304 13.2336 16.5
    endloop
  endfacet
  facet normal -1 4.30632e-16 0
    outer loop
      vertex -39 33 0
      vertex -39 33 16.5
      vertex -39 49.5 0
    endloop
  endfacet
  facet normal -1 4.30632e-16 0
    outer loop
      vertex -39 49.5 0
      vertex -39 33 16.5
      vertex -39 49.5 16.5
    endloop
  endfacet
  facet normal -1 0 0
    outer loop
      vertex -39 -16.5 0
      vertex -39 -16.5 16.5
      vertex -39 4.89859e-16 0
    endloop
  endfacet
  facet normal -1 0 0
    outer loop
      vertex -39 4.89859e-16 0
      vertex -39 -16.5 16.5
      vertex -39 4.89859e-16 16.5
    endloop
  endfacet
  facet normal 0 1 0
    outer loop
      vertex -55.5 33 0
      vertex -55.5 33 16.5
      vertex -39 33 0
    endloop
  endfacet
  facet normal 0 1 -0
    outer loop
      vertex -39 33 0
      vertex -55.5 33 16.5
      vertex -39 33 16.5
    endloop
  endfacet
  facet normal -1.22465e-16 -1 0
    outer loop
      vertex -39 4.89859e-16 0
      vertex -55.5 2.51053e-15 16.5
      vertex -55.5 2.51053e-15 0
    endloop
  endfacet
  facet normal -1.22465e-16 -1 0
    outer loop
      vertex -39 4.89859e-16 0
      vertex -39 4.89859e-16 16.5
      vertex -55.5 2.51053e-15 16.5
    endloop
  endfacet
  facet normal -1 0 0
    outer loop
      vertex -55.5 2.51053e-15 0
      vertex -55.5 2.51053e-15 16.5
      vertex -55.5 33 0
    endloop
  endfacet
  facet normal -1 0 0
    outer loop
      vertex -55.5 33 0
      vertex -55.5 2.51053e-15 16.5
      vertex -55.5 33 16.5
    endloop
  endfacet
  facet normal 0 -1 0
    outer loop
      vertex -51.5 29 16.5
      vertex -35 29 0
      vertex -35 29 16.5
    endloop
  endfacet
  facet normal 0 -1 0
    outer loop
      vertex -51.5 29 16.5
      vertex -51.5 29 0
      vertex -35 29 0
    endloop
  endfacet
  facet normal 1.07658e-16 1 0
    outer loop
      vertex -35 4 16.5
      vertex -35 4 0
      vertex -51.5 4 16.5
    endloop
  endfacet
  facet normal 1.07658e-16 1 0
    outer loop
      vertex -51.5 4 16.5
      vertex -35 4 0
      vertex -51.5 4 0
    endloop
  endfacet
  facet normal 1 -0 0
    outer loop
      vertex -51.5 21.5361 16.5
      vertex -51.5 29 0
      vertex -51.5 29 16.5
    endloop
  endfacet
  facet normal 1 0 0
    outer loop
      vertex -51.5 21.5361 16.5
      vertex -51.5 21.5361 0
      vertex -51.5 29 0
    endloop
  endfacet
  facet normal 1 -0 0
    outer loop
      vertex -51.5 4 16.5
      vertex -51.5 11.4639 0
      vertex -51.5 11.4639 16.5
    endloop
  endfacet
  facet normal 1 0 0
    outer loop
      vertex -51.5 4 16.5
      vertex -51.5 4 0
      vertex -51.5 11.4639 0
    endloop
  endfacet
  facet normal 1 -0 0
    outer loop
      vertex -51.5 14.0434 16.5
      vertex -51.5 18.9566 0
      vertex -51.5 18.9566 16.5
    endloop
  endfacet
  facet normal 1 0 0
    outer loop
      vertex -51.5 14.0434 16.5
      vertex -51.5 14.0434 0
      vertex -51.5 18.9566 0
    endloop
  endfacet
  facet normal 0.984808 0.173648 0
    outer loop
      vertex -44 16.5 16.5
      vertex -44 16.5 0
      vertex -44.3317 18.3811 0
    endloop
  endfacet
  facet normal 0.984808 0.173648 0
    outer loop
      vertex -44.3317 18.3811 16.5
      vertex -44 16.5 16.5
      vertex -44.3317 18.3811 0
    endloop
  endfacet
  facet normal -9.29966e-16 -1 0
    outer loop
      vertex -48.5449 11.0836 0
      vertex -50.4551 11.0836 16.5
      vertex -50.4551 11.0836 0
    endloop
  endfacet
  facet normal -9.29966e-16 -1 0
    outer loop
      vertex -48.5449 11.0836 0
      vertex -48.5449 11.0836 16.5
      vertex -50.4551 11.0836 16.5
    endloop
  endfacet
  facet normal 0.34202 0.939693 -0
    outer loop
      vertex -48.5449 21.9164 0
      vertex -48.5449 21.9164 16.5
      vertex -46.75 21.2631 0
    endloop
  endfacet
  facet normal 0.34202 0.939693 -0
    outer loop
      vertex -46.75 21.2631 0
      vertex -48.5449 21.9164 16.5
      vertex -46.75 21.2631 16.5
    endloop
  endfacet
  facet normal 0 1 0
    outer loop
      vertex -50.4551 21.9164 0
      vertex -50.4551 21.9164 16.5
      vertex -48.5449 21.9164 0
    endloop
  endfacet
  facet normal 0 1 -0
    outer loop
      vertex -48.5449 21.9164 0
      vertex -50.4551 21.9164 16.5
      vertex -48.5449 21.9164 16.5
    endloop
  endfacet
  facet normal 0.984808 -0.173648 0
    outer loop
      vertex -44 16.5 0
      vertex -44.3317 14.6189 16.5
      vertex -44.3317 14.6189 0
    endloop
  endfacet
  facet normal 0.984808 -0.173648 0
    outer loop
      vertex -44 16.5 0
      vertex -44 16.5 16.5
      vertex -44.3317 14.6189 16.5
    endloop
  endfacet
  facet normal -0.34202 -0.939693 0
    outer loop
      vertex -50.4551 11.0836 0
      vertex -51.5 11.4639 16.5
      vertex -51.5 11.4639 0
    endloop
  endfacet
  facet normal -0.34202 -0.939693 0
    outer loop
      vertex -50.4551 11.0836 0
      vertex -50.4551 11.0836 16.5
      vertex -51.5 11.4639 16.5
    endloop
  endfacet
  facet normal 0.866025 0.5 0
    outer loop
      vertex -44.3317 18.3811 16.5
      vertex -44.3317 18.3811 0
      vertex -45.2868 20.0353 0
    endloop
  endfacet
  facet normal 0.866025 0.5 0
    outer loop
      vertex -45.2868 20.0353 16.5
      vertex -44.3317 18.3811 16.5
      vertex -45.2868 20.0353 0
    endloop
  endfacet
  facet normal -0.34202 0.939693 0
    outer loop
      vertex -51.5 21.5361 0
      vertex -51.5 21.5361 16.5
      vertex -50.4551 21.9164 0
    endloop
  endfacet
  facet normal -0.34202 0.939693 0
    outer loop
      vertex -50.4551 21.9164 0
      vertex -51.5 21.5361 16.5
      vertex -50.4551 21.9164 16.5
    endloop
  endfacet
  facet normal 0.34202 -0.939693 0
    outer loop
      vertex -46.75 11.7369 0
      vertex -48.5449 11.0836 16.5
      vertex -48.5449 11.0836 0
    endloop
  endfacet
  facet normal 0.34202 -0.939693 0
    outer loop
      vertex -46.75 11.7369 0
      vertex -46.75 11.7369 16.5
      vertex -48.5449 11.0836 16.5
    endloop
  endfacet
  facet normal 0.866025 -0.5 0
    outer loop
      vertex -44.3317 14.6189 0
      vertex -45.2868 12.9647 16.5
      vertex -45.2868 12.9647 0
    endloop
  endfacet
  facet normal 0.866025 -0.5 0
    outer loop
      vertex -44.3317 14.6189 0
      vertex -44.3317 14.6189 16.5
      vertex -45.2868 12.9647 16.5
    endloop
  endfacet
  facet normal 0.642788 0.766044 -0
    outer loop
      vertex -46.75 21.2631 0
      vertex -46.75 21.2631 16.5
      vertex -45.2868 20.0353 0
    endloop
  endfacet
  facet normal 0.642788 0.766044 -0
    outer loop
      vertex -45.2868 20.0353 0
      vertex -46.75 21.2631 16.5
      vertex -45.2868 20.0353 16.5
    endloop
  endfacet
  facet normal 0.642788 -0.766044 0
    outer loop
      vertex -45.2868 12.9647 0
      vertex -46.75 11.7369 16.5
      vertex -46.75 11.7369 0
    endloop
  endfacet
  facet normal 0.642788 -0.766044 0
    outer loop
      vertex -45.2868 12.9647 0
      vertex -45.2868 12.9647 16.5
      vertex -46.75 11.7369 16.5
    endloop
  endfacet
  facet normal -1 -0 -0
    outer loop
      vertex -46.3337 17.4297 16.5
      vertex -46.3337 17.4297 0
      vertex -46.3337 15.5703 16.5
    endloop
  endfacet
  facet normal -1 0 0
    outer loop
      vertex -46.3337 15.5703 16.5
      vertex -46.3337 17.4297 0
      vertex -46.3337 15.5703 0
    endloop
  endfacet
  facet normal -0.841254 0.540641 0
    outer loop
      vertex -46.3337 15.5703 16.5
      vertex -46.3337 15.5703 0
      vertex -47.339 14.006 16.5
    endloop
  endfacet
  facet normal -0.841254 0.540641 0
    outer loop
      vertex -47.339 14.006 16.5
      vertex -46.3337 15.5703 0
      vertex -47.339 14.006 0
    endloop
  endfacet
  facet normal -0.841254 -0.540641 -0
    outer loop
      vertex -46.3337 17.4297 16.5
      vertex -47.339 18.994 0
      vertex -46.3337 17.4297 0
    endloop
  endfacet
  facet normal -0.841254 -0.540641 0
    outer loop
      vertex -46.3337 17.4297 16.5
      vertex -47.339 18.994 16.5
      vertex -47.339 18.994 0
    endloop
  endfacet
  facet normal -0.415415 0.909632 0
    outer loop
      vertex -47.339 14.006 16.5
      vertex -47.339 14.006 0
      vertex -49.0304 13.2336 16.5
    endloop
  endfacet
  facet normal -0.415415 0.909632 0
    outer loop
      vertex -49.0304 13.2336 16.5
      vertex -47.339 14.006 0
      vertex -49.0304 13.2336 0
    endloop
  endfacet
  facet normal -0.415415 -0.909632 0
    outer loop
      vertex -49.0304 19.7664 16.5
      vertex -47.339 18.994 0
      vertex -47.339 18.994 16.5
    endloop
  endfacet
  facet normal -0.415415 -0.909632 -0
    outer loop
      vertex -49.0304 19.7664 16.5
      vertex -49.0304 19.7664 0
      vertex -47.339 18.994 0
    endloop
  endfacet
  facet normal 0.142315 -0.989821 0
    outer loop
      vertex -50.8709 19.5018 16.5
      vertex -49.0304 19.7664 0
      vertex -49.0304 19.7664 16.5
    endloop
  endfacet
  facet normal 0.142315 -0.989821 0
    outer loop
      vertex -50.8709 19.5018 16.5
      vertex -50.8709 19.5018 0
      vertex -49.0304 19.7664 0
    endloop
  endfacet
  facet normal 0.142315 0.989821 0
    outer loop
      vertex -49.0304 13.2336 16.5
      vertex -49.0304 13.2336 0
      vertex -50.8709 13.4982 16.5
    endloop
  endfacet
  facet normal 0.142315 0.989821 0
    outer loop
      vertex -50.8709 13.4982 16.5
      vertex -49.0304 13.2336 0
      vertex -50.8709 13.4982 0
    endloop
  endfacet
  facet normal 0.654861 -0.75575 0
    outer loop
      vertex -51.5 18.9566 16.5
      vertex -50.8709 19.5018 0
      vertex -50.8709 19.5018 16.5
    endloop
  endfacet
  facet normal 0.654861 -0.75575 0
    outer loop
      vertex -51.5 18.9566 16.5
      vertex -51.5 18.9566 0
      vertex -50.8709 19.5018 0
    endloop
  endfacet
  facet normal 0.654861 0.75575 0
    outer loop
      vertex -50.8709 13.4982 16.5
      vertex -50.8709 13.4982 0
      vertex -51.5 14.0434 16.5
    endloop
  endfacet
  facet normal 0.654861 0.75575 0
    outer loop
      vertex -51.5 14.0434 16.5
      vertex -50.8709 13.4982 0
      vertex -51.5 14.0434 0
    endloop
  endfacet
endsolid OpenSCAD_Model
