solid OpenSCAD_Model
  facet normal -1 0 0
    outer loop
      vertex 152 0 -34.85
      vertex 152 10 0
      vertex 152 10 -34.85
    endloop
  endfacet
  facet normal -1 -0 0
    outer loop
      vertex 152 10 0
      vertex 152 0 -34.85
      vertex 152 0 0
    endloop
  endfacet
  facet normal 0 -1 0
    outer loop
      vertex 0 10 0
      vertex 1.09607 10 -28.4755
      vertex 1.09607 10 0
    endloop
  endfacet
  facet normal 0 -1 -0
    outer loop
      vertex 5.02455 10 -32.4039
      vertex 0 10 -34.85
      vertex 144.975 10 -32.4039
    endloop
  endfacet
  facet normal 0 -1 -0
    outer loop
      vertex 3.22215 10 -31.6573
      vertex 0 10 -34.85
      vertex 5.02455 10 -32.4039
    endloop
  endfacet
  facet normal 0 -1 -0
    outer loop
      vertex 1.84265 10 -30.2779
      vertex 0 10 -34.85
      vertex 3.22215 10 -31.6573
    endloop
  endfacet
  facet normal 0 -1 -0
    outer loop
      vertex 1.09607 10 -28.4755
      vertex 0 10 -34.85
      vertex 1.84265 10 -30.2779
    endloop
  endfacet
  facet normal 0 -1 0
    outer loop
      vertex 0 10 -34.85
      vertex 1.09607 10 -28.4755
      vertex 0 10 0
    endloop
  endfacet
  facet normal 0 -1 0
    outer loop
      vertex 148.904 10 -28.4755
      vertex 152 10 0
      vertex 148.904 10 0
    endloop
  endfacet
  facet normal 0 -1 0
    outer loop
      vertex 148.904 10 -28.4755
      vertex 152 10 -34.85
      vertex 152 10 0
    endloop
  endfacet
  facet normal 0 -1 0
    outer loop
      vertex 148.157 10 -30.2779
      vertex 152 10 -34.85
      vertex 148.904 10 -28.4755
    endloop
  endfacet
  facet normal 0 -1 0
    outer loop
      vertex 146.778 10 -31.6573
      vertex 152 10 -34.85
      vertex 148.157 10 -30.2779
    endloop
  endfacet
  facet normal 0 -1 0
    outer loop
      vertex 144.975 10 -32.4039
      vertex 152 10 -34.85
      vertex 146.778 10 -31.6573
    endloop
  endfacet
  facet normal 0 -1 0
    outer loop
      vertex 152 10 -34.85
      vertex 144.975 10 -32.4039
      vertex 0 10 -34.85
    endloop
  endfacet
  facet normal -0 0 1
    outer loop
      vertex 0 10 -34.85
      vertex 152 0 -34.85
      vertex 152 10 -34.85
    endloop
  endfacet
  facet normal 0 0 1
    outer loop
      vertex 152 0 -34.85
      vertex 0 10 -34.85
      vertex 0 0 -34.85
    endloop
  endfacet
  facet normal 1 0 0
    outer loop
      vertex 0 10 0
      vertex 0 0 -33.5
      vertex 0 10 -34.85
    endloop
  endfacet
  facet normal 1 -0 0
    outer loop
      vertex 0 -3.505 0
      vertex 0 0 -33.5
      vertex 0 10 0
    endloop
  endfacet
  facet normal 1 0 0
    outer loop
      vertex 0 0 -33.5
      vertex 0 -3.505 0
      vertex 0 -3.505 -33.5
    endloop
  endfacet
  facet normal 1 0 0
    outer loop
      vertex 0 10 -34.85
      vertex 0 0 -33.5
      vertex 0 0 -34.85
    endloop
  endfacet
  facet normal 0 1 0
    outer loop
      vertex 152 0 0
      vertex 150 0 -33.5
      vertex 150 0 0
    endloop
  endfacet
  facet normal 0 1 -0
    outer loop
      vertex 152 0 -34.85
      vertex 150 0 -33.5
      vertex 152 0 0
    endloop
  endfacet
  facet normal 0 1 0
    outer loop
      vertex 0 0 -34.85
      vertex 150 0 -33.5
      vertex 152 0 -34.85
    endloop
  endfacet
  facet normal 0 1 0
    outer loop
      vertex 150 0 -33.5
      vertex 0 0 -34.85
      vertex 0 0 -33.5
    endloop
  endfacet
  facet normal -1 0 0
    outer loop
      vertex 150 -3.505 -33.5
      vertex 150 0 0
      vertex 150 0 -33.5
    endloop
  endfacet
  facet normal -1 -0 0
    outer loop
      vertex 150 0 0
      vertex 150 -3.505 -33.5
      vertex 150 -3.505 0
    endloop
  endfacet
  facet normal -0 0 1
    outer loop
      vertex 0 0 -33.5
      vertex 150 -3.505 -33.5
      vertex 150 0 -33.5
    endloop
  endfacet
  facet normal 0 0 1
    outer loop
      vertex 150 -3.505 -33.5
      vertex 0 0 -33.5
      vertex 0 -3.505 -33.5
    endloop
  endfacet
  facet normal 0 1 0
    outer loop
      vertex 150 -3.505 0
      vertex 148.904 -3.505 -28.4755
      vertex 148.904 -3.505 0
    endloop
  endfacet
  facet normal 0 1 0
    outer loop
      vertex 144.975 -3.505 -32.4039
      vertex 150 -3.505 -33.5
      vertex 5.02455 -3.505 -32.4039
    endloop
  endfacet
  facet normal 0 1 0
    outer loop
      vertex 146.778 -3.505 -31.6573
      vertex 150 -3.505 -33.5
      vertex 144.975 -3.505 -32.4039
    endloop
  endfacet
  facet normal 0 1 0
    outer loop
      vertex 148.157 -3.505 -30.2779
      vertex 150 -3.505 -33.5
      vertex 146.778 -3.505 -31.6573
    endloop
  endfacet
  facet normal 0 1 0
    outer loop
      vertex 148.904 -3.505 -28.4755
      vertex 150 -3.505 -33.5
      vertex 148.157 -3.505 -30.2779
    endloop
  endfacet
  facet normal 0 1 -0
    outer loop
      vertex 150 -3.505 -33.5
      vertex 148.904 -3.505 -28.4755
      vertex 150 -3.505 0
    endloop
  endfacet
  facet normal 0 1 -0
    outer loop
      vertex 1.09607 -3.505 -28.4755
      vertex 0 -3.505 0
      vertex 1.09607 -3.505 0
    endloop
  endfacet
  facet normal 0 1 0
    outer loop
      vertex 1.09607 -3.505 -28.4755
      vertex 0 -3.505 -33.5
      vertex 0 -3.505 0
    endloop
  endfacet
  facet normal 0 1 0
    outer loop
      vertex 1.84265 -3.505 -30.2779
      vertex 0 -3.505 -33.5
      vertex 1.09607 -3.505 -28.4755
    endloop
  endfacet
  facet normal 0 1 0
    outer loop
      vertex 3.22215 -3.505 -31.6573
      vertex 0 -3.505 -33.5
      vertex 1.84265 -3.505 -30.2779
    endloop
  endfacet
  facet normal 0 1 0
    outer loop
      vertex 5.02455 -3.505 -32.4039
      vertex 0 -3.505 -33.5
      vertex 3.22215 -3.505 -31.6573
    endloop
  endfacet
  facet normal 0 1 0
    outer loop
      vertex 0 -3.505 -33.5
      vertex 5.02455 -3.505 -32.4039
      vertex 150 -3.505 -33.5
    endloop
  endfacet
  facet normal 1 -0 0
    outer loop
      vertex 0 12 0
      vertex 0 20 -34.85
      vertex 0 20 0
    endloop
  endfacet
  facet normal 1 0 0
    outer loop
      vertex 0 20 -34.85
      vertex 0 12 0
      vertex 0 12 -34.85
    endloop
  endfacet
  facet normal -1 0 0
    outer loop
      vertex 152 12 -34.85
      vertex 152 20 0
      vertex 152 20 -34.85
    endloop
  endfacet
  facet normal -1 -0 0
    outer loop
      vertex 152 20 0
      vertex 152 12 -34.85
      vertex 152 12 0
    endloop
  endfacet
  facet normal -0 0 1
    outer loop
      vertex 0 20 -34.85
      vertex 152 12 -34.85
      vertex 152 20 -34.85
    endloop
  endfacet
  facet normal 0 0 1
    outer loop
      vertex 152 12 -34.85
      vertex 0 20 -34.85
      vertex 0 12 -34.85
    endloop
  endfacet
  facet normal 0 1 0
    outer loop
      vertex 152 12 0
      vertex 148.904 12 -28.4755
      vertex 148.904 12 0
    endloop
  endfacet
  facet normal 0 1 0
    outer loop
      vertex 0 12 -34.85
      vertex 144.975 12 -32.4039
      vertex 152 12 -34.85
    endloop
  endfacet
  facet normal 0 1 0
    outer loop
      vertex 146.778 12 -31.6573
      vertex 152 12 -34.85
      vertex 144.975 12 -32.4039
    endloop
  endfacet
  facet normal 0 1 0
    outer loop
      vertex 148.157 12 -30.2779
      vertex 152 12 -34.85
      vertex 146.778 12 -31.6573
    endloop
  endfacet
  facet normal 0 1 0
    outer loop
      vertex 148.904 12 -28.4755
      vertex 152 12 -34.85
      vertex 148.157 12 -30.2779
    endloop
  endfacet
  facet normal 0 1 -0
    outer loop
      vertex 152 12 -34.85
      vertex 148.904 12 -28.4755
      vertex 152 12 0
    endloop
  endfacet
  facet normal 0 1 -0
    outer loop
      vertex 1.09607 12 -28.4755
      vertex 0 12 0
      vertex 1.09607 12 0
    endloop
  endfacet
  facet normal 0 1 0
    outer loop
      vertex 1.09607 12 -28.4755
      vertex 0 12 -34.85
      vertex 0 12 0
    endloop
  endfacet
  facet normal 0 1 0
    outer loop
      vertex 1.84265 12 -30.2779
      vertex 0 12 -34.85
      vertex 1.09607 12 -28.4755
    endloop
  endfacet
  facet normal 0 1 0
    outer loop
      vertex 3.22215 12 -31.6573
      vertex 0 12 -34.85
      vertex 1.84265 12 -30.2779
    endloop
  endfacet
  facet normal 0 1 0
    outer loop
      vertex 5.02455 12 -32.4039
      vertex 0 12 -34.85
      vertex 3.22215 12 -31.6573
    endloop
  endfacet
  facet normal 0 1 0
    outer loop
      vertex 144.975 12 -32.4039
      vertex 0 12 -34.85
      vertex 5.02455 12 -32.4039
    endloop
  endfacet
  facet normal 0.923879 -0 0.382684
    outer loop
      vertex 1.09607 10 -28.4755
      vertex 1.84265 12 -30.2779
      vertex 1.09607 12 -28.4755
    endloop
  endfacet
  facet normal 0.923879 0 0.382684
    outer loop
      vertex 1.84265 12 -30.2779
      vertex 1.09607 10 -28.4755
      vertex 1.84265 10 -30.2779
    endloop
  endfacet
  facet normal 0.923879 -0 0.382684
    outer loop
      vertex 1.09607 -4.90393 -28.4755
      vertex 1.84265 -3.505 -30.2779
      vertex 1.09607 -3.505 -28.4755
    endloop
  endfacet
  facet normal 0.923879 0 0.382684
    outer loop
      vertex 1.84265 -3.505 -30.2779
      vertex 1.09607 -4.90393 -28.4755
      vertex 1.84265 -4.90393 -30.2779
    endloop
  endfacet
  facet normal -1 0 0
    outer loop
      vertex 148.904 10 -28.4755
      vertex 148.904 12 0
      vertex 148.904 12 -28.4755
    endloop
  endfacet
  facet normal -1 -0 0
    outer loop
      vertex 148.904 12 0
      vertex 148.904 10 -28.4755
      vertex 148.904 10 0
    endloop
  endfacet
  facet normal -1 0 0
    outer loop
      vertex 148.904 -4.90393 -28.4755
      vertex 148.904 -3.505 0
      vertex 148.904 -3.505 -28.4755
    endloop
  endfacet
  facet normal -1 -0 0
    outer loop
      vertex 148.904 -3.505 0
      vertex 148.904 -4.90393 -28.4755
      vertex 148.904 -4.90393 0
    endloop
  endfacet
  facet normal -0.707106 0 0.707108
    outer loop
      vertex 146.778 12 -31.6573
      vertex 148.157 10 -30.2779
      vertex 148.157 12 -30.2779
    endloop
  endfacet
  facet normal -0.707106 0 0.707108
    outer loop
      vertex 148.157 10 -30.2779
      vertex 146.778 12 -31.6573
      vertex 146.778 10 -31.6573
    endloop
  endfacet
  facet normal -0.707106 0 0.707108
    outer loop
      vertex 146.778 -3.505 -31.6573
      vertex 148.157 -4.90393 -30.2779
      vertex 148.157 -3.505 -30.2779
    endloop
  endfacet
  facet normal -0.707106 0 0.707108
    outer loop
      vertex 148.157 -4.90393 -30.2779
      vertex 146.778 -3.505 -31.6573
      vertex 146.778 -4.90393 -31.6573
    endloop
  endfacet
  facet normal -0.923879 0 0.382685
    outer loop
      vertex 148.157 10 -30.2779
      vertex 148.904 12 -28.4755
      vertex 148.157 12 -30.2779
    endloop
  endfacet
  facet normal -0.923879 0 0.382685
    outer loop
      vertex 148.904 12 -28.4755
      vertex 148.157 10 -30.2779
      vertex 148.904 10 -28.4755
    endloop
  endfacet
  facet normal -0.923879 0 0.382685
    outer loop
      vertex 148.157 -4.90393 -30.2779
      vertex 148.904 -3.505 -28.4755
      vertex 148.157 -3.505 -30.2779
    endloop
  endfacet
  facet normal -0.923879 0 0.382685
    outer loop
      vertex 148.904 -3.505 -28.4755
      vertex 148.157 -4.90393 -30.2779
      vertex 148.904 -4.90393 -28.4755
    endloop
  endfacet
  facet normal -0 0 1
    outer loop
      vertex 5.02455 12 -32.4039
      vertex 144.975 10 -32.4039
      vertex 144.975 12 -32.4039
    endloop
  endfacet
  facet normal 0 0 1
    outer loop
      vertex 144.975 10 -32.4039
      vertex 5.02455 12 -32.4039
      vertex 5.02455 10 -32.4039
    endloop
  endfacet
  facet normal -0 0 1
    outer loop
      vertex 5.02455 -3.505 -32.4039
      vertex 144.975 -4.90393 -32.4039
      vertex 144.975 -3.505 -32.4039
    endloop
  endfacet
  facet normal 0 0 1
    outer loop
      vertex 144.975 -4.90393 -32.4039
      vertex 5.02455 -3.505 -32.4039
      vertex 5.02455 -4.90393 -32.4039
    endloop
  endfacet
  facet normal -0.382684 0 0.923879
    outer loop
      vertex 144.975 12 -32.4039
      vertex 146.778 10 -31.6573
      vertex 146.778 12 -31.6573
    endloop
  endfacet
  facet normal -0.382684 0 0.923879
    outer loop
      vertex 146.778 10 -31.6573
      vertex 144.975 12 -32.4039
      vertex 144.975 10 -32.4039
    endloop
  endfacet
  facet normal -0.382684 0 0.923879
    outer loop
      vertex 144.975 -3.505 -32.4039
      vertex 146.778 -4.90393 -31.6573
      vertex 146.778 -3.505 -31.6573
    endloop
  endfacet
  facet normal -0.382684 0 0.923879
    outer loop
      vertex 146.778 -4.90393 -31.6573
      vertex 144.975 -3.505 -32.4039
      vertex 144.975 -4.90393 -32.4039
    endloop
  endfacet
  facet normal 1 -0 0
    outer loop
      vertex 1.09607 10 0
      vertex 1.09607 12 -28.4755
      vertex 1.09607 12 0
    endloop
  endfacet
  facet normal 1 0 0
    outer loop
      vertex 1.09607 12 -28.4755
      vertex 1.09607 10 0
      vertex 1.09607 10 -28.4755
    endloop
  endfacet
  facet normal 1 -0 0
    outer loop
      vertex 1.09607 -4.90393 0
      vertex 1.09607 -3.505 -28.4755
      vertex 1.09607 -3.505 0
    endloop
  endfacet
  facet normal 1 0 0
    outer loop
      vertex 1.09607 -3.505 -28.4755
      vertex 1.09607 -4.90393 0
      vertex 1.09607 -4.90393 -28.4755
    endloop
  endfacet
  facet normal 0.707107 -0 0.707107
    outer loop
      vertex 1.84265 10 -30.2779
      vertex 3.22215 12 -31.6573
      vertex 1.84265 12 -30.2779
    endloop
  endfacet
  facet normal 0.707107 0 0.707107
    outer loop
      vertex 3.22215 12 -31.6573
      vertex 1.84265 10 -30.2779
      vertex 3.22215 10 -31.6573
    endloop
  endfacet
  facet normal 0.707107 -0 0.707107
    outer loop
      vertex 1.84265 -4.90393 -30.2779
      vertex 3.22215 -3.505 -31.6573
      vertex 1.84265 -3.505 -30.2779
    endloop
  endfacet
  facet normal 0.707107 0 0.707107
    outer loop
      vertex 3.22215 -3.505 -31.6573
      vertex 1.84265 -4.90393 -30.2779
      vertex 3.22215 -4.90393 -31.6573
    endloop
  endfacet
  facet normal 0.382683 0 0.92388
    outer loop
      vertex 3.22215 12 -31.6573
      vertex 5.02455 10 -32.4039
      vertex 5.02455 12 -32.4039
    endloop
  endfacet
  facet normal 0.382683 0 0.92388
    outer loop
      vertex 5.02455 10 -32.4039
      vertex 3.22215 12 -31.6573
      vertex 3.22215 10 -31.6573
    endloop
  endfacet
  facet normal 0.382683 0 0.92388
    outer loop
      vertex 3.22215 -3.505 -31.6573
      vertex 5.02455 -4.90393 -32.4039
      vertex 5.02455 -3.505 -32.4039
    endloop
  endfacet
  facet normal 0.382683 0 0.92388
    outer loop
      vertex 5.02455 -4.90393 -32.4039
      vertex 3.22215 -3.505 -31.6573
      vertex 3.22215 -4.90393 -31.6573
    endloop
  endfacet
  facet normal 0 -1 0
    outer loop
      vertex 0 -4.90393 0
      vertex 1.09607 -4.90393 -28.4755
      vertex 1.09607 -4.90393 0
    endloop
  endfacet
  facet normal 0 -1 -0
    outer loop
      vertex 5.02455 -4.90393 -32.4039
      vertex 0 -4.90393 -34.3255
      vertex 144.975 -4.90393 -32.4039
    endloop
  endfacet
  facet normal 0 -1 -0
    outer loop
      vertex 3.22215 -4.90393 -31.6573
      vertex 0 -4.90393 -34.3255
      vertex 5.02455 -4.90393 -32.4039
    endloop
  endfacet
  facet normal 0 -1 -0
    outer loop
      vertex 1.84265 -4.90393 -30.2779
      vertex 0 -4.90393 -34.3255
      vertex 3.22215 -4.90393 -31.6573
    endloop
  endfacet
  facet normal 0 -1 -0
    outer loop
      vertex 1.09607 -4.90393 -28.4755
      vertex 0 -4.90393 -34.3255
      vertex 1.84265 -4.90393 -30.2779
    endloop
  endfacet
  facet normal 0 -1 0
    outer loop
      vertex 0 -4.90393 -34.3255
      vertex 1.09607 -4.90393 -28.4755
      vertex 0 -4.90393 0
    endloop
  endfacet
  facet normal 0 -1 0
    outer loop
      vertex 148.904 -4.90393 -28.4755
      vertex 152 -4.90393 0
      vertex 148.904 -4.90393 0
    endloop
  endfacet
  facet normal 0 -1 0
    outer loop
      vertex 148.904 -4.90393 -28.4755
      vertex 152 -4.90393 -34.3255
      vertex 152 -4.90393 0
    endloop
  endfacet
  facet normal 0 -1 0
    outer loop
      vertex 148.157 -4.90393 -30.2779
      vertex 152 -4.90393 -34.3255
      vertex 148.904 -4.90393 -28.4755
    endloop
  endfacet
  facet normal 0 -1 0
    outer loop
      vertex 146.778 -4.90393 -31.6573
      vertex 152 -4.90393 -34.3255
      vertex 148.157 -4.90393 -30.2779
    endloop
  endfacet
  facet normal 0 -1 0
    outer loop
      vertex 144.975 -4.90393 -32.4039
      vertex 152 -4.90393 -34.3255
      vertex 146.778 -4.90393 -31.6573
    endloop
  endfacet
  facet normal 0 -1 0
    outer loop
      vertex 152 -4.90393 -34.3255
      vertex 144.975 -4.90393 -32.4039
      vertex 0 -4.90393 -34.3255
    endloop
  endfacet
  facet normal 0 -0.923879 -0.382684
    outer loop
      vertex 0 -4.15735 -36.1278
      vertex 152 -4.90393 -34.3255
      vertex 0 -4.90393 -34.3255
    endloop
  endfacet
  facet normal 0 -0.923879 -0.382684
    outer loop
      vertex 152 -4.90393 -34.3255
      vertex 0 -4.15735 -36.1278
      vertex 152 -4.15735 -36.1278
    endloop
  endfacet
  facet normal 0.770326 -0.514715 -0.376384
    outer loop
      vertex 156.531 -1.87665 -34.3255
      vertex 154.94 -2.93969 -36.1278
      vertex 155.841 -1.59095 -36.1278
    endloop
  endfacet
  facet normal -1 0 0
    outer loop
      vertex -4.90393 0 -34.3255
      vertex -4.90393 20 0
      vertex -4.90393 20 -34.3255
    endloop
  endfacet
  facet normal -1 -0 0
    outer loop
      vertex -4.90393 20 0
      vertex -4.90393 0 -34.3255
      vertex -4.90393 0 0
    endloop
  endfacet
  facet normal -0.514716 -0.770328 -0.376381
    outer loop
      vertex -1.87665 -4.53064 -34.3255
      vertex -2.93969 -2.93969 -36.1278
      vertex -1.59095 -3.84089 -36.1278
    endloop
  endfacet
  facet normal 1 -0 0
    outer loop
      vertex 156.904 0 0
      vertex 156.904 20 -34.3255
      vertex 156.904 20 0
    endloop
  endfacet
  facet normal 1 0 0
    outer loop
      vertex 156.904 20 -34.3255
      vertex 156.904 0 0
      vertex 156.904 0 -34.3255
    endloop
  endfacet
  facet normal -0.514717 -0.770328 -0.376381
    outer loop
      vertex -1.87665 -4.53064 -34.3255
      vertex -3.4676 -3.4676 -34.3255
      vertex -2.93969 -2.93969 -36.1278
    endloop
  endfacet
  facet normal -0.180745 -0.908663 -0.376381
    outer loop
      vertex 0 -4.15735 -36.1278
      vertex -1.87665 -4.53064 -34.3255
      vertex -1.59095 -3.84089 -36.1278
    endloop
  endfacet
  facet normal -0.83147 -0.55557 0
    outer loop
      vertex -3.4676 -3.4676 -34.3255
      vertex -4.53064 -1.87665 0
      vertex -4.53064 -1.87665 -34.3255
    endloop
  endfacet
  facet normal -0.83147 -0.55557 0
    outer loop
      vertex -4.53064 -1.87665 0
      vertex -3.4676 -3.4676 -34.3255
      vertex -3.4676 -3.4676 0
    endloop
  endfacet
  facet normal 0.555568 -0.831471 0
    outer loop
      vertex 153.877 -4.53064 -34.3255
      vertex 155.468 -3.4676 0
      vertex 153.877 -4.53064 0
    endloop
  endfacet
  facet normal 0.555568 -0.831471 0
    outer loop
      vertex 155.468 -3.4676 0
      vertex 153.877 -4.53064 -34.3255
      vertex 155.468 -3.4676 -34.3255
    endloop
  endfacet
  facet normal 0.83147 -0.555569 0
    outer loop
      vertex 155.468 -3.4676 0
      vertex 156.531 -1.87665 -34.3255
      vertex 156.531 -1.87665 0
    endloop
  endfacet
  facet normal 0.83147 -0.555569 0
    outer loop
      vertex 156.531 -1.87665 -34.3255
      vertex 155.468 -3.4676 0
      vertex 155.468 -3.4676 -34.3255
    endloop
  endfacet
  facet normal -0.180744 -0.908663 -0.376381
    outer loop
      vertex 0 -4.90393 -34.3255
      vertex -1.87665 -4.53064 -34.3255
      vertex 0 -4.15735 -36.1278
    endloop
  endfacet
  facet normal 0.180745 -0.908663 -0.376381
    outer loop
      vertex 153.877 -4.53064 -34.3255
      vertex 152 -4.90393 -34.3255
      vertex 152 -4.15735 -36.1278
    endloop
  endfacet
  facet normal 0 -0.707107 -0.707107
    outer loop
      vertex 0 -2.77785 -37.5073
      vertex 152 -4.15735 -36.1278
      vertex 0 -4.15735 -36.1278
    endloop
  endfacet
  facet normal 0 -0.707107 -0.707107
    outer loop
      vertex 152 -4.15735 -36.1278
      vertex 0 -2.77785 -37.5073
      vertex 152 -2.77785 -37.5073
    endloop
  endfacet
  facet normal 0.980785 -0.195091 0
    outer loop
      vertex 156.531 -1.87665 0
      vertex 156.904 0 -34.3255
      vertex 156.904 0 0
    endloop
  endfacet
  facet normal 0.980785 -0.195091 0
    outer loop
      vertex 156.904 0 -34.3255
      vertex 156.531 -1.87665 0
      vertex 156.531 -1.87665 -34.3255
    endloop
  endfacet
  facet normal -0.39664 -0.593613 -0.700214
    outer loop
      vertex -1.59095 -3.84089 -36.1278
      vertex -1.96424 -1.96424 -37.5073
      vertex -1.06304 -2.5664 -37.5073
    endloop
  endfacet
  facet normal -0.139282 -0.700215 -0.700214
    outer loop
      vertex 0 -4.15735 -36.1278
      vertex -1.59095 -3.84089 -36.1278
      vertex 0 -2.77785 -37.5073
    endloop
  endfacet
  facet normal -0.700215 -0.139282 -0.700214
    outer loop
      vertex -3.84089 -1.59095 -36.1278
      vertex -4.15735 0 -36.1278
      vertex -2.77785 0 -37.5073
    endloop
  endfacet
  facet normal -0.0759012 -0.381579 -0.921215
    outer loop
      vertex 0 -0.975451 -38.2539
      vertex -1.06304 -2.5664 -37.5073
      vertex -0.373289 -0.901199 -38.2539
    endloop
  endfacet
  facet normal 0.593614 -0.39664 -0.700214
    outer loop
      vertex 154.94 -2.93969 -36.1278
      vertex 153.964 -1.96424 -37.5073
      vertex 155.841 -1.59095 -36.1278
    endloop
  endfacet
  facet normal 0.707106 0 -0.707108
    outer loop
      vertex 154.778 0 -37.5073
      vertex 156.157 20 -36.1278
      vertex 156.157 0 -36.1278
    endloop
  endfacet
  facet normal 0.707106 0 -0.707108
    outer loop
      vertex 156.157 20 -36.1278
      vertex 154.778 0 -37.5073
      vertex 154.778 20 -37.5073
    endloop
  endfacet
  facet normal -0.19509 -0.980785 0
    outer loop
      vertex -1.87665 -4.53064 -34.3255
      vertex 0 -4.90393 0
      vertex -1.87665 -4.53064 0
    endloop
  endfacet
  facet normal -0.19509 -0.980785 -0
    outer loop
      vertex 0 -4.90393 0
      vertex -1.87665 -4.53064 -34.3255
      vertex 0 -4.90393 -34.3255
    endloop
  endfacet
  facet normal 0.195091 -0.980785 0
    outer loop
      vertex 152 -4.90393 -34.3255
      vertex 153.877 -4.53064 0
      vertex 152 -4.90393 0
    endloop
  endfacet
  facet normal 0.195091 -0.980785 0
    outer loop
      vertex 153.877 -4.53064 0
      vertex 152 -4.90393 -34.3255
      vertex 153.877 -4.53064 -34.3255
    endloop
  endfacet
  facet normal -0.770328 -0.514717 -0.376381
    outer loop
      vertex -3.4676 -3.4676 -34.3255
      vertex -4.53064 -1.87665 -34.3255
      vertex -2.93969 -2.93969 -36.1278
    endloop
  endfacet
  facet normal -0.980785 -0.19509 0
    outer loop
      vertex -4.53064 -1.87665 -34.3255
      vertex -4.90393 0 0
      vertex -4.90393 0 -34.3255
    endloop
  endfacet
  facet normal -0.980785 -0.19509 0
    outer loop
      vertex -4.90393 0 0
      vertex -4.53064 -1.87665 -34.3255
      vertex -4.53064 -1.87665 0
    endloop
  endfacet
  facet normal -0.39664 -0.593613 -0.700214
    outer loop
      vertex -1.59095 -3.84089 -36.1278
      vertex -2.93969 -2.93969 -36.1278
      vertex -1.96424 -1.96424 -37.5073
    endloop
  endfacet
  facet normal -0.700215 -0.139282 -0.700214
    outer loop
      vertex -2.5664 -1.06304 -37.5073
      vertex -3.84089 -1.59095 -36.1278
      vertex -2.77785 0 -37.5073
    endloop
  endfacet
  facet normal -0.707107 0 -0.707107
    outer loop
      vertex -2.77785 0 -37.5073
      vertex -4.15735 20 -36.1278
      vertex -2.77785 20 -37.5073
    endloop
  endfacet
  facet normal -0.707107 -0 -0.707107
    outer loop
      vertex -4.15735 20 -36.1278
      vertex -2.77785 0 -37.5073
      vertex -4.15735 0 -36.1278
    endloop
  endfacet
  facet normal 0.514714 -0.770328 -0.376384
    outer loop
      vertex 155.468 -3.4676 -34.3255
      vertex 153.877 -4.53064 -34.3255
      vertex 154.94 -2.93969 -36.1278
    endloop
  endfacet
  facet normal 0.923879 0 -0.382685
    outer loop
      vertex 156.904 0 -34.3255
      vertex 156.157 20 -36.1278
      vertex 156.904 20 -34.3255
    endloop
  endfacet
  facet normal 0.923879 0 -0.382685
    outer loop
      vertex 156.157 20 -36.1278
      vertex 156.904 0 -34.3255
      vertex 156.157 0 -36.1278
    endloop
  endfacet
  facet normal 0.0759012 -0.381579 -0.921214
    outer loop
      vertex 153.063 -2.5664 -37.5073
      vertex 152 -2.77785 -37.5073
      vertex 152 -0.975451 -38.2539
    endloop
  endfacet
  facet normal 0.139282 -0.700215 -0.700214
    outer loop
      vertex 153.591 -3.84089 -36.1278
      vertex 152 -4.15735 -36.1278
      vertex 152 -2.77785 -37.5073
    endloop
  endfacet
  facet normal 0.21615 -0.323484 -0.921215
    outer loop
      vertex 153.964 -1.96424 -37.5073
      vertex 152.373 -0.901199 -38.2539
      vertex 152.69 -0.689748 -38.2539
    endloop
  endfacet
  facet normal 0.180745 -0.908663 -0.376381
    outer loop
      vertex 153.877 -4.53064 -34.3255
      vertex 152 -4.15735 -36.1278
      vertex 153.591 -3.84089 -36.1278
    endloop
  endfacet
  facet normal 0.139282 -0.700215 -0.700214
    outer loop
      vertex 153.591 -3.84089 -36.1278
      vertex 152 -2.77785 -37.5073
      vertex 153.063 -2.5664 -37.5073
    endloop
  endfacet
  facet normal -0.923879 0 -0.382684
    outer loop
      vertex -4.15735 0 -36.1278
      vertex -4.90393 20 -34.3255
      vertex -4.15735 20 -36.1278
    endloop
  endfacet
  facet normal -0.923879 -0 -0.382684
    outer loop
      vertex -4.90393 20 -34.3255
      vertex -4.15735 0 -36.1278
      vertex -4.90393 0 -34.3255
    endloop
  endfacet
  facet normal -0.216147 -0.323488 -0.921214
    outer loop
      vertex -1.06304 -2.5664 -37.5073
      vertex -1.96424 -1.96424 -37.5073
      vertex -0.373289 -0.901199 -38.2539
    endloop
  endfacet
  facet normal -0.075901 -0.381579 -0.921214
    outer loop
      vertex 0 -2.77785 -37.5073
      vertex -1.06304 -2.5664 -37.5073
      vertex 0 -0.975451 -38.2539
    endloop
  endfacet
  facet normal -0.139282 -0.700215 -0.700214
    outer loop
      vertex 0 -2.77785 -37.5073
      vertex -1.59095 -3.84089 -36.1278
      vertex -1.06304 -2.5664 -37.5073
    endloop
  endfacet
  facet normal -0.323488 -0.216147 -0.921214
    outer loop
      vertex -1.96424 -1.96424 -37.5073
      vertex -2.5664 -1.06304 -37.5073
      vertex -0.901199 -0.373289 -38.2539
    endloop
  endfacet
  facet normal -0.381579 -0.0759012 -0.921215
    outer loop
      vertex -0.901199 -0.373289 -38.2539
      vertex -2.5664 -1.06304 -37.5073
      vertex -0.975451 0 -38.2539
    endloop
  endfacet
  facet normal 0.514716 -0.770327 -0.376382
    outer loop
      vertex 153.877 -4.53064 -34.3255
      vertex 153.591 -3.84089 -36.1278
      vertex 154.94 -2.93969 -36.1278
    endloop
  endfacet
  facet normal 0.908662 -0.180745 -0.376382
    outer loop
      vertex 156.531 -1.87665 -34.3255
      vertex 156.157 0 -36.1278
      vertex 156.904 0 -34.3255
    endloop
  endfacet
  facet normal 0.323485 -0.21615 -0.921215
    outer loop
      vertex 153.964 -1.96424 -37.5073
      vertex 152.901 -0.373289 -38.2539
      vertex 154.566 -1.06304 -37.5073
    endloop
  endfacet
  facet normal 0.382684 0 -0.923879
    outer loop
      vertex 152.975 0 -38.2539
      vertex 154.778 20 -37.5073
      vertex 154.778 0 -37.5073
    endloop
  endfacet
  facet normal 0.382684 0 -0.923879
    outer loop
      vertex 154.778 20 -37.5073
      vertex 152.975 0 -38.2539
      vertex 152.975 20 -38.2539
    endloop
  endfacet
  facet normal 0 -0.382683 -0.92388
    outer loop
      vertex 0 -2.77785 -37.5073
      vertex 152 -0.975451 -38.2539
      vertex 152 -2.77785 -37.5073
    endloop
  endfacet
  facet normal -0 -0.382683 -0.92388
    outer loop
      vertex 152 -0.975451 -38.2539
      vertex 0 -2.77785 -37.5073
      vertex 0 -0.975451 -38.2539
    endloop
  endfacet
  facet normal 0.593613 -0.396646 -0.700211
    outer loop
      vertex 155.841 -1.59095 -36.1278
      vertex 153.964 -1.96424 -37.5073
      vertex 154.566 -1.06304 -37.5073
    endloop
  endfacet
  facet normal 0.323484 -0.216151 -0.921215
    outer loop
      vertex 153.964 -1.96424 -37.5073
      vertex 152.69 -0.689748 -38.2539
      vertex 152.901 -0.373289 -38.2539
    endloop
  endfacet
  facet normal 0.216148 -0.323488 -0.921214
    outer loop
      vertex 153.063 -2.5664 -37.5073
      vertex 152.373 -0.901199 -38.2539
      vertex 153.964 -1.96424 -37.5073
    endloop
  endfacet
  facet normal 0.0759008 -0.38158 -0.921214
    outer loop
      vertex 153.063 -2.5664 -37.5073
      vertex 152 -0.975451 -38.2539
      vertex 152.373 -0.901199 -38.2539
    endloop
  endfacet
  facet normal 0.39664 -0.593614 -0.700214
    outer loop
      vertex 153.591 -3.84089 -36.1278
      vertex 153.063 -2.5664 -37.5073
      vertex 153.964 -1.96424 -37.5073
    endloop
  endfacet
  facet normal 0.39664 -0.593614 -0.700214
    outer loop
      vertex 154.94 -2.93969 -36.1278
      vertex 153.591 -3.84089 -36.1278
      vertex 153.964 -1.96424 -37.5073
    endloop
  endfacet
  facet normal -0.593613 -0.39664 -0.700214
    outer loop
      vertex -2.93969 -2.93969 -36.1278
      vertex -3.84089 -1.59095 -36.1278
      vertex -1.96424 -1.96424 -37.5073
    endloop
  endfacet
  facet normal -0.908663 -0.180744 -0.376381
    outer loop
      vertex -4.53064 -1.87665 -34.3255
      vertex -4.90393 0 -34.3255
      vertex -4.15735 0 -36.1278
    endloop
  endfacet
  facet normal -0.216148 -0.323487 -0.921215
    outer loop
      vertex -0.373289 -0.901199 -38.2539
      vertex -1.96424 -1.96424 -37.5073
      vertex -0.689748 -0.689748 -38.2539
    endloop
  endfacet
  facet normal -0.323487 -0.216148 -0.921215
    outer loop
      vertex -0.689748 -0.689748 -38.2539
      vertex -1.96424 -1.96424 -37.5073
      vertex -0.901199 -0.373289 -38.2539
    endloop
  endfacet
  facet normal -0.593613 -0.39664 -0.700214
    outer loop
      vertex -1.96424 -1.96424 -37.5073
      vertex -3.84089 -1.59095 -36.1278
      vertex -2.5664 -1.06304 -37.5073
    endloop
  endfacet
  facet normal -0.381579 -0.075901 -0.921214
    outer loop
      vertex -2.5664 -1.06304 -37.5073
      vertex -2.77785 0 -37.5073
      vertex -0.975451 0 -38.2539
    endloop
  endfacet
  facet normal -0.382683 0 -0.92388
    outer loop
      vertex -2.77785 0 -37.5073
      vertex -0.975451 20 -38.2539
      vertex -0.975451 0 -38.2539
    endloop
  endfacet
  facet normal -0.382683 0 -0.92388
    outer loop
      vertex -0.975451 20 -38.2539
      vertex -2.77785 0 -37.5073
      vertex -2.77785 20 -37.5073
    endloop
  endfacet
  facet normal 0 0 -1
    outer loop
      vertex 152 -0.975451 -38.2539
      vertex 152.975 0 -38.2539
      vertex 152.901 -0.373289 -38.2539
    endloop
  endfacet
  facet normal 0 0 -1
    outer loop
      vertex 152 -0.975451 -38.2539
      vertex 152.901 -0.373289 -38.2539
      vertex 152.69 -0.689748 -38.2539
    endloop
  endfacet
  facet normal 0 0 -1
    outer loop
      vertex 152 -0.975451 -38.2539
      vertex 152.69 -0.689748 -38.2539
      vertex 152.373 -0.901199 -38.2539
    endloop
  endfacet
  facet normal -0 0 -1
    outer loop
      vertex 152.975 0 -38.2539
      vertex 152 -0.975451 -38.2539
      vertex 152.975 20 -38.2539
    endloop
  endfacet
  facet normal 0 0 -1
    outer loop
      vertex 0 -0.975451 -38.2539
      vertex 152.975 20 -38.2539
      vertex 152 -0.975451 -38.2539
    endloop
  endfacet
  facet normal 0 0 -1
    outer loop
      vertex -0.975451 0 -38.2539
      vertex 0 -0.975451 -38.2539
      vertex -0.373289 -0.901199 -38.2539
    endloop
  endfacet
  facet normal 0 0 -1
    outer loop
      vertex -0.975451 0 -38.2539
      vertex -0.373289 -0.901199 -38.2539
      vertex -0.689748 -0.689748 -38.2539
    endloop
  endfacet
  facet normal 0 0 -1
    outer loop
      vertex -0.975451 0 -38.2539
      vertex -0.689748 -0.689748 -38.2539
      vertex -0.901199 -0.373289 -38.2539
    endloop
  endfacet
  facet normal 0 0 -1
    outer loop
      vertex 0 -0.975451 -38.2539
      vertex -0.975451 0 -38.2539
      vertex -0.975451 20 -38.2539
    endloop
  endfacet
  facet normal 0 0 -1
    outer loop
      vertex 0 -0.975451 -38.2539
      vertex -0.975451 20 -38.2539
      vertex 152.975 20 -38.2539
    endloop
  endfacet
  facet normal 0.70022 -0.139276 -0.70021
    outer loop
      vertex 155.841 -1.59095 -36.1278
      vertex 154.566 -1.06304 -37.5073
      vertex 154.778 0 -37.5073
    endloop
  endfacet
  facet normal 0.770327 -0.514714 -0.376385
    outer loop
      vertex 155.468 -3.4676 -34.3255
      vertex 154.94 -2.93969 -36.1278
      vertex 156.531 -1.87665 -34.3255
    endloop
  endfacet
  facet normal -0.55557 -0.83147 0
    outer loop
      vertex -3.4676 -3.4676 -34.3255
      vertex -1.87665 -4.53064 0
      vertex -3.4676 -3.4676 0
    endloop
  endfacet
  facet normal -0.55557 -0.83147 -0
    outer loop
      vertex -1.87665 -4.53064 0
      vertex -3.4676 -3.4676 -34.3255
      vertex -1.87665 -4.53064 -34.3255
    endloop
  endfacet
  facet normal -0.770328 -0.514716 -0.376381
    outer loop
      vertex -2.93969 -2.93969 -36.1278
      vertex -4.53064 -1.87665 -34.3255
      vertex -3.84089 -1.59095 -36.1278
    endloop
  endfacet
  facet normal -0.908663 -0.180745 -0.376381
    outer loop
      vertex -3.84089 -1.59095 -36.1278
      vertex -4.53064 -1.87665 -34.3255
      vertex -4.15735 0 -36.1278
    endloop
  endfacet
  facet normal 0.700213 -0.139285 -0.700215
    outer loop
      vertex 155.841 -1.59095 -36.1278
      vertex 154.778 0 -37.5073
      vertex 156.157 0 -36.1278
    endloop
  endfacet
  facet normal 0.908661 -0.180748 -0.376385
    outer loop
      vertex 156.531 -1.87665 -34.3255
      vertex 155.841 -1.59095 -36.1278
      vertex 156.157 0 -36.1278
    endloop
  endfacet
  facet normal 0.381579 -0.0758982 -0.921215
    outer loop
      vertex 154.566 -1.06304 -37.5073
      vertex 152.901 -0.373289 -38.2539
      vertex 152.975 0 -38.2539
    endloop
  endfacet
  facet normal 0.38158 -0.0758973 -0.921215
    outer loop
      vertex 154.566 -1.06304 -37.5073
      vertex 152.975 0 -38.2539
      vertex 154.778 0 -37.5073
    endloop
  endfacet
  facet normal -0.998053 0 0.0623783
    outer loop
      vertex -3.71875 20 0
      vertex -3.5 16 3.5
      vertex -3.5 20 3.5
    endloop
  endfacet
  facet normal -0.998053 0 0.0623783
    outer loop
      vertex -3.5 16 3.5
      vertex -3.71875 20 0
      vertex -3.71875 15.125 0
    endloop
  endfacet
  facet normal 0.998053 -0 0.0623783
    outer loop
      vertex -1.5 16 3.5
      vertex -1.28125 20 0
      vertex -1.5 20 3.5
    endloop
  endfacet
  facet normal 0.998053 0 0.0623783
    outer loop
      vertex -1.28125 20 0
      vertex -1.5 16 3.5
      vertex -1.28125 15.125 0
    endloop
  endfacet
  facet normal -0 0 1
    outer loop
      vertex -3.5 20 3.5
      vertex -1.5 16 3.5
      vertex -1.5 20 3.5
    endloop
  endfacet
  facet normal 0 0 1
    outer loop
      vertex -1.5 16 3.5
      vertex -3.5 20 3.5
      vertex -3.5 16 3.5
    endloop
  endfacet
  facet normal 0 -0.970143 0.242536
    outer loop
      vertex -3.71875 15.125 0
      vertex -1.5 16 3.5
      vertex -3.5 16 3.5
    endloop
  endfacet
  facet normal 0 -0.970143 0.242536
    outer loop
      vertex -1.5 16 3.5
      vertex -3.71875 15.125 0
      vertex -1.28125 15.125 0
    endloop
  endfacet
  facet normal -0.998053 0 0.0623783
    outer loop
      vertex 153.281 9.875 0
      vertex 153.5 1 3.5
      vertex 153.5 9 3.5
    endloop
  endfacet
  facet normal -0.998053 0 0.0623783
    outer loop
      vertex 153.5 1 3.5
      vertex 153.281 9.875 0
      vertex 153.281 0.125 0
    endloop
  endfacet
  facet normal 0.998053 -0 0.0623783
    outer loop
      vertex 155.5 1 3.5
      vertex 155.719 9.875 0
      vertex 155.5 9 3.5
    endloop
  endfacet
  facet normal 0.998053 0 0.0623783
    outer loop
      vertex 155.719 9.875 0
      vertex 155.5 1 3.5
      vertex 155.719 0.125 0
    endloop
  endfacet
  facet normal 0 0.970143 0.242536
    outer loop
      vertex 155.719 9.875 0
      vertex 153.5 9 3.5
      vertex 155.5 9 3.5
    endloop
  endfacet
  facet normal 0 0.970143 0.242536
    outer loop
      vertex 153.5 9 3.5
      vertex 155.719 9.875 0
      vertex 153.281 9.875 0
    endloop
  endfacet
  facet normal 0 -0.970143 0.242536
    outer loop
      vertex 153.281 0.125 0
      vertex 155.5 1 3.5
      vertex 153.5 1 3.5
    endloop
  endfacet
  facet normal 0 -0.970143 0.242536
    outer loop
      vertex 155.5 1 3.5
      vertex 153.281 0.125 0
      vertex 155.719 0.125 0
    endloop
  endfacet
  facet normal -0 0 1
    outer loop
      vertex 153.5 9 3.5
      vertex 155.5 1 3.5
      vertex 155.5 9 3.5
    endloop
  endfacet
  facet normal 0 0 1
    outer loop
      vertex 155.5 1 3.5
      vertex 153.5 9 3.5
      vertex 153.5 1 3.5
    endloop
  endfacet
  facet normal 0.997854 0 0.0654843
    outer loop
      vertex -3.55 9.2 -4
      vertex -3.8125 10.25 0
      vertex -3.8125 -0.25 0
    endloop
  endfacet
  facet normal -0.997854 0 0.0654841
    outer loop
      vertex -1.1875 -0.25 0
      vertex -1.1875 10.25 0
      vertex -1.45 9.2 -4
    endloop
  endfacet
  facet normal -0 0 1
    outer loop
      vertex -4.90393 20 0
      vertex -3.71875 15.125 0
      vertex -3.71875 20 0
    endloop
  endfacet
  facet normal -0 0 1
    outer loop
      vertex -4.90393 0 0
      vertex -3.8125 -0.25 0
      vertex -3.8125 10.25 0
    endloop
  endfacet
  facet normal 0 0 1
    outer loop
      vertex -3.71875 15.125 0
      vertex -4.90393 20 0
      vertex -3.8125 10.25 0
    endloop
  endfacet
  facet normal 0 0 1
    outer loop
      vertex -3.8125 10.25 0
      vertex -4.90393 20 0
      vertex -4.90393 0 0
    endloop
  endfacet
  facet normal 0 0 1
    outer loop
      vertex -3.8125 -0.25 0
      vertex -4.90393 0 0
      vertex -4.53064 -1.87665 0
    endloop
  endfacet
  facet normal -0 0 1
    outer loop
      vertex -1.28125 15.125 0
      vertex 0 12 0
      vertex 0 20 0
    endloop
  endfacet
  facet normal -0 0 1
    outer loop
      vertex -3.71875 15.125 0
      vertex 0 12 0
      vertex -1.28125 15.125 0
    endloop
  endfacet
  facet normal 0 0 1
    outer loop
      vertex -1.1875 -0.25 0
      vertex 0 10 0
      vertex -1.1875 10.25 0
    endloop
  endfacet
  facet normal 0 0 1
    outer loop
      vertex 0 10 0
      vertex -1.1875 -0.25 0
      vertex 0 -3.505 0
    endloop
  endfacet
  facet normal 0 0 1
    outer loop
      vertex -1.28125 15.125 0
      vertex 0 20 0
      vertex -1.28125 20 0
    endloop
  endfacet
  facet normal 0 0 1
    outer loop
      vertex 0 12 0
      vertex -1.1875 10.25 0
      vertex 0 10 0
    endloop
  endfacet
  facet normal 0 0 1
    outer loop
      vertex -3.8125 10.25 0
      vertex 0 12 0
      vertex -3.71875 15.125 0
    endloop
  endfacet
  facet normal 0 0 1
    outer loop
      vertex 0 12 0
      vertex -3.8125 10.25 0
      vertex -1.1875 10.25 0
    endloop
  endfacet
  facet normal -0 0 1
    outer loop
      vertex 0 12 0
      vertex 1.09607 10 0
      vertex 1.09607 12 0
    endloop
  endfacet
  facet normal 0 0 1
    outer loop
      vertex 1.09607 10 0
      vertex 0 12 0
      vertex 0 10 0
    endloop
  endfacet
  facet normal -0 0 1
    outer loop
      vertex 0 -3.505 0
      vertex 1.09607 -4.90393 0
      vertex 1.09607 -3.505 0
    endloop
  endfacet
  facet normal 0 0 1
    outer loop
      vertex 1.09607 -4.90393 0
      vertex 0 -3.505 0
      vertex 0 -4.90393 0
    endloop
  endfacet
  facet normal -0 0 1
    outer loop
      vertex -3.4676 -3.4676 0
      vertex 0 -3.505 0
      vertex -1.1875 -0.25 0
    endloop
  endfacet
  facet normal 0 0 1
    outer loop
      vertex 0 -3.505 0
      vertex -1.87665 -4.53064 0
      vertex 0 -4.90393 0
    endloop
  endfacet
  facet normal 0 0 1
    outer loop
      vertex 0 -3.505 0
      vertex -3.4676 -3.4676 0
      vertex -1.87665 -4.53064 0
    endloop
  endfacet
  facet normal -0 0 1
    outer loop
      vertex -3.8125 -0.25 0
      vertex -3.4676 -3.4676 0
      vertex -1.1875 -0.25 0
    endloop
  endfacet
  facet normal 0 0 1
    outer loop
      vertex -3.4676 -3.4676 0
      vertex -3.8125 -0.25 0
      vertex -4.53064 -1.87665 0
    endloop
  endfacet
  facet normal 0 0 1
    outer loop
      vertex 153.188 20 0
      vertex 152 20 0
      vertex 153.188 14.75 0
    endloop
  endfacet
  facet normal -0 0 1
    outer loop
      vertex 148.904 12 0
      vertex 152 10 0
      vertex 152 12 0
    endloop
  endfacet
  facet normal 0 0 1
    outer loop
      vertex 152 10 0
      vertex 148.904 12 0
      vertex 148.904 10 0
    endloop
  endfacet
  facet normal -0 0 1
    outer loop
      vertex 152 12 0
      vertex 155.719 9.875 0
      vertex 155.812 14.75 0
    endloop
  endfacet
  facet normal 0 0 1
    outer loop
      vertex 155.719 9.875 0
      vertex 152 12 0
      vertex 153.281 9.875 0
    endloop
  endfacet
  facet normal 0 0 1
    outer loop
      vertex 152 12 0
      vertex 155.812 14.75 0
      vertex 153.188 14.75 0
    endloop
  endfacet
  facet normal -0 0 1
    outer loop
      vertex 155.719 9.875 0
      vertex 156.904 0 0
      vertex 156.904 20 0
    endloop
  endfacet
  facet normal 0 0 1
    outer loop
      vertex 155.812 14.75 0
      vertex 156.904 20 0
      vertex 155.812 20 0
    endloop
  endfacet
  facet normal 0 0 1
    outer loop
      vertex 155.719 9.875 0
      vertex 156.904 20 0
      vertex 155.812 14.75 0
    endloop
  endfacet
  facet normal -0 0 1
    outer loop
      vertex 155.719 0.125 0
      vertex 156.904 0 0
      vertex 155.719 9.875 0
    endloop
  endfacet
  facet normal 0 0 1
    outer loop
      vertex 156.904 0 0
      vertex 155.719 0.125 0
      vertex 156.531 -1.87665 0
    endloop
  endfacet
  facet normal -0 0 1
    outer loop
      vertex 153.281 0.125 0
      vertex 156.531 -1.87665 0
      vertex 155.719 0.125 0
    endloop
  endfacet
  facet normal 0 0 1
    outer loop
      vertex 156.531 -1.87665 0
      vertex 153.281 0.125 0
      vertex 155.468 -3.4676 0
    endloop
  endfacet
  facet normal 0 0 1
    outer loop
      vertex 155.468 -3.4676 0
      vertex 153.281 0.125 0
      vertex 153.877 -4.53064 0
    endloop
  endfacet
  facet normal 0 0 1
    outer loop
      vertex 152 12 0
      vertex 153.188 14.75 0
      vertex 152 20 0
    endloop
  endfacet
  facet normal 0 0 1
    outer loop
      vertex 153.281 9.875 0
      vertex 152 12 0
      vertex 152 10 0
    endloop
  endfacet
  facet normal 0 0 1
    outer loop
      vertex 153.281 9.875 0
      vertex 152 10 0
      vertex 153.281 0.125 0
    endloop
  endfacet
  facet normal 0 0 1
    outer loop
      vertex 152 0 0
      vertex 153.281 0.125 0
      vertex 152 10 0
    endloop
  endfacet
  facet normal 0 0 1
    outer loop
      vertex 153.281 0.125 0
      vertex 152 0 0
      vertex 153.877 -4.53064 0
    endloop
  endfacet
  facet normal 0 0 1
    outer loop
      vertex 152 0 0
      vertex 152 -4.90393 0
      vertex 153.877 -4.53064 0
    endloop
  endfacet
  facet normal 0 0 1
    outer loop
      vertex 150 -3.505 0
      vertex 152 0 0
      vertex 150 0 0
    endloop
  endfacet
  facet normal 0 0 1
    outer loop
      vertex 152 0 0
      vertex 150 -3.505 0
      vertex 152 -4.90393 0
    endloop
  endfacet
  facet normal 0 0 1
    outer loop
      vertex 148.904 -4.90393 0
      vertex 150 -3.505 0
      vertex 148.904 -3.505 0
    endloop
  endfacet
  facet normal 0 0 1
    outer loop
      vertex 150 -3.505 0
      vertex 148.904 -4.90393 0
      vertex 152 -4.90393 0
    endloop
  endfacet
  facet normal -0.997854 7.43458e-09 0.0654841
    outer loop
      vertex -1.1875 -0.25 0
      vertex -1.45 9.2 -4
      vertex -1.45 0.799999 -4
    endloop
  endfacet
  facet normal 0 0.967231 0.253898
    outer loop
      vertex -1.45 0.799999 -4
      vertex -3.8125 -0.25 0
      vertex -1.1875 -0.25 0
    endloop
  endfacet
  facet normal 0 0.967231 0.253898
    outer loop
      vertex -3.8125 -0.25 0
      vertex -1.45 0.799999 -4
      vertex -3.55 0.799999 -4
    endloop
  endfacet
  facet normal 0 -0.967231 0.253898
    outer loop
      vertex -3.55 9.2 -4
      vertex -1.1875 10.25 0
      vertex -3.8125 10.25 0
    endloop
  endfacet
  facet normal 0 -0.967231 0.253898
    outer loop
      vertex -1.1875 10.25 0
      vertex -3.55 9.2 -4
      vertex -1.45 9.2 -4
    endloop
  endfacet
  facet normal -0 1.13533e-07 1
    outer loop
      vertex -3.55 9.2 -4
      vertex -1.45 0.799999 -4
      vertex -1.45 9.2 -4
    endloop
  endfacet
  facet normal 0 1.13533e-07 1
    outer loop
      vertex -1.45 0.799999 -4
      vertex -3.55 9.2 -4
      vertex -3.55 0.799999 -4
    endloop
  endfacet
  facet normal 0.997854 7.43461e-09 0.0654844
    outer loop
      vertex -3.55 0.799999 -4
      vertex -3.55 9.2 -4
      vertex -3.8125 -0.25 0
    endloop
  endfacet
  facet normal 0.997854 0 0.0654819
    outer loop
      vertex 153.333 20 -2.22222
      vertex 153.188 20 0
      vertex 153.188 14.75 0
    endloop
  endfacet
  facet normal -0.997854 0 0.0654819
    outer loop
      vertex 155.812 14.75 0
      vertex 155.812 20 0
      vertex 155.667 20 -2.22222
    endloop
  endfacet
  facet normal -0.997854 7.43472e-09 0.0654853
    outer loop
      vertex 155.55 15.8 -4
      vertex 155.667 20 -2.22222
      vertex 155.55 20 -4
    endloop
  endfacet
  facet normal -0.997854 7.33971e-07 0.0654836
    outer loop
      vertex 155.667 20 -2.22222
      vertex 155.55 15.8 -4
      vertex 155.812 14.75 0
    endloop
  endfacet
  facet normal 0 0.967231 0.253898
    outer loop
      vertex 155.55 15.8 -4
      vertex 153.188 14.75 0
      vertex 155.812 14.75 0
    endloop
  endfacet
  facet normal 0 0.967231 0.253898
    outer loop
      vertex 153.188 14.75 0
      vertex 155.55 15.8 -4
      vertex 153.45 15.8 -4
    endloop
  endfacet
  facet normal -0 1.13533e-07 1
    outer loop
      vertex 153.45 20 -4
      vertex 155.55 15.8 -4
      vertex 155.55 20 -4
    endloop
  endfacet
  facet normal 0 1.13533e-07 1
    outer loop
      vertex 155.55 15.8 -4
      vertex 153.45 20 -4
      vertex 153.45 15.8 -4
    endloop
  endfacet
  facet normal 0.997854 7.43472e-09 0.0654853
    outer loop
      vertex 153.333 20 -2.22222
      vertex 153.45 15.8 -4
      vertex 153.45 20 -4
    endloop
  endfacet
  facet normal 0.997854 7.33971e-07 0.0654836
    outer loop
      vertex 153.45 15.8 -4
      vertex 153.333 20 -2.22222
      vertex 153.188 14.75 0
    endloop
  endfacet
  facet normal 0 1 0
    outer loop
      vertex 156.904 20 0
      vertex 155.667 20 -2.22222
      vertex 155.812 20 0
    endloop
  endfacet
  facet normal 0 1 0
    outer loop
      vertex 156.904 20 0
      vertex 155.55 20 -4
      vertex 155.667 20 -2.22222
    endloop
  endfacet
  facet normal 0 1 0
    outer loop
      vertex 155.55 20 -4
      vertex 156.904 20 -34.3255
      vertex 153.45 20 -4
    endloop
  endfacet
  facet normal 0 1 -0
    outer loop
      vertex 156.904 20 -34.3255
      vertex 155.55 20 -4
      vertex 156.904 20 0
    endloop
  endfacet
  facet normal 0 1 0
    outer loop
      vertex 153.333 20 -2.22222
      vertex 152 20 0
      vertex 153.188 20 0
    endloop
  endfacet
  facet normal 0 1 0
    outer loop
      vertex 153.45 20 -4
      vertex 152 20 0
      vertex 153.333 20 -2.22222
    endloop
  endfacet
  facet normal 0 1 0
    outer loop
      vertex 152 20 -34.85
      vertex 153.45 20 -4
      vertex 156.904 20 -34.3255
    endloop
  endfacet
  facet normal 0 1 0
    outer loop
      vertex 153.45 20 -4
      vertex 152 20 -34.85
      vertex 152 20 0
    endloop
  endfacet
  facet normal 0 1 -0
    outer loop
      vertex 154.778 20 -37.5073
      vertex 152 20 -34.85
      vertex 156.157 20 -36.1278
    endloop
  endfacet
  facet normal 0 1 -0
    outer loop
      vertex 156.157 20 -36.1278
      vertex 152 20 -34.85
      vertex 156.904 20 -34.3255
    endloop
  endfacet
  facet normal 0 1 0
    outer loop
      vertex -4.90393 20 -34.3255
      vertex -1.28125 20 0
      vertex 0 20 0
    endloop
  endfacet
  facet normal 0 1 0
    outer loop
      vertex -1.28125 20 0
      vertex -4.90393 20 -34.3255
      vertex -3.71875 20 0
    endloop
  endfacet
  facet normal 0 1 0
    outer loop
      vertex -3.71875 20 0
      vertex -4.90393 20 -34.3255
      vertex -4.90393 20 0
    endloop
  endfacet
  facet normal 0 1 -0
    outer loop
      vertex 0 20 -34.85
      vertex -4.90393 20 -34.3255
      vertex 0 20 0
    endloop
  endfacet
  facet normal 0 1 0
    outer loop
      vertex 0 20 -34.85
      vertex -4.15735 20 -36.1278
      vertex -4.90393 20 -34.3255
    endloop
  endfacet
  facet normal 0 1 0
    outer loop
      vertex 152 20 -34.85
      vertex 152.975 20 -38.2539
      vertex 0 20 -34.85
    endloop
  endfacet
  facet normal 0 1 0
    outer loop
      vertex 152 20 -34.85
      vertex 154.778 20 -37.5073
      vertex 152.975 20 -38.2539
    endloop
  endfacet
  facet normal 0 1 0
    outer loop
      vertex -0.975451 20 -38.2539
      vertex 0 20 -34.85
      vertex 152.975 20 -38.2539
    endloop
  endfacet
  facet normal -0 1 0
    outer loop
      vertex -2.77785 20 -37.5073
      vertex 0 20 -34.85
      vertex -0.975451 20 -38.2539
    endloop
  endfacet
  facet normal 0 1 0
    outer loop
      vertex 0 20 -34.85
      vertex -2.77785 20 -37.5073
      vertex -4.15735 20 -36.1278
    endloop
  endfacet
  facet normal 0 1 0
    outer loop
      vertex -1.28125 20 0
      vertex -3.5 20 3.5
      vertex -1.5 20 3.5
    endloop
  endfacet
  facet normal 0 1 0
    outer loop
      vertex -3.5 20 3.5
      vertex -1.28125 20 0
      vertex -3.71875 20 0
    endloop
  endfacet
endsolid OpenSCAD_Model
