solid OpenSCAD_Model
  facet normal 1 -0 0
    outer loop
      vertex 0 12.5 1
      vertex 0 42.025 -39.05
      vertex 0 42.025 1
    endloop
  endfacet
  facet normal 1 0 0
    outer loop
      vertex 0 42.025 -39.05
      vertex 0 12.5 1
      vertex 0 12.5 -39.05
    endloop
  endfacet
  facet normal -1 0 0
    outer loop
      vertex 153.3 12.5 -39.05
      vertex 153.3 42.025 1
      vertex 153.3 42.025 -39.05
    endloop
  endfacet
  facet normal -1 -0 0
    outer loop
      vertex 153.3 42.025 1
      vertex 153.3 12.5 -39.05
      vertex 153.3 12.5 1
    endloop
  endfacet
  facet normal -0 0 1
    outer loop
      vertex 0 42.025 -39.05
      vertex 153.3 12.5 -39.05
      vertex 153.3 42.025 -39.05
    endloop
  endfacet
  facet normal 0 0 1
    outer loop
      vertex 153.3 12.5 -39.05
      vertex 0 42.025 -39.05
      vertex 0 12.5 -39.05
    endloop
  endfacet
  facet normal 0 1 0
    outer loop
      vertex 153.3 12.5 1
      vertex 151.3 12.5 -37.05
      vertex 151.3 12.5 1
    endloop
  endfacet
  facet normal 0 1 0
    outer loop
      vertex 151.3 12.5 -37.05
      vertex 153.3 12.5 -39.05
      vertex 2 12.5 -37.05
    endloop
  endfacet
  facet normal 0 1 -0
    outer loop
      vertex 153.3 12.5 -39.05
      vertex 151.3 12.5 -37.05
      vertex 153.3 12.5 1
    endloop
  endfacet
  facet normal 0 1 -0
    outer loop
      vertex 2 12.5 -37.05
      vertex 0 12.5 1
      vertex 2 12.5 1
    endloop
  endfacet
  facet normal 0 1 0
    outer loop
      vertex 2 12.5 -37.05
      vertex 0 12.5 -39.05
      vertex 0 12.5 1
    endloop
  endfacet
  facet normal 0 1 0
    outer loop
      vertex 0 12.5 -39.05
      vertex 2 12.5 -37.05
      vertex 153.3 12.5 -39.05
    endloop
  endfacet
  facet normal 0 -1 0
    outer loop
      vertex 0 42.025 1
      vertex 3.86607 42.025 -26.1255
      vertex 3.86607 42.025 1
    endloop
  endfacet
  facet normal 0 -1 -0
    outer loop
      vertex 7.79455 42.025 -30.0539
      vertex 0 42.025 -39.05
      vertex 145.505 42.025 -30.0539
    endloop
  endfacet
  facet normal 0 -1 -0
    outer loop
      vertex 5.99215 42.025 -29.3073
      vertex 0 42.025 -39.05
      vertex 7.79455 42.025 -30.0539
    endloop
  endfacet
  facet normal 0 -1 -0
    outer loop
      vertex 4.61265 42.025 -27.9279
      vertex 0 42.025 -39.05
      vertex 5.99215 42.025 -29.3073
    endloop
  endfacet
  facet normal 0 -1 -0
    outer loop
      vertex 3.86607 42.025 -26.1255
      vertex 0 42.025 -39.05
      vertex 4.61265 42.025 -27.9279
    endloop
  endfacet
  facet normal 0 -1 0
    outer loop
      vertex 0 42.025 -39.05
      vertex 3.86607 42.025 -26.1255
      vertex 0 42.025 1
    endloop
  endfacet
  facet normal 0 -1 0
    outer loop
      vertex 149.434 42.025 -26.1255
      vertex 153.3 42.025 1
      vertex 149.434 42.025 1
    endloop
  endfacet
  facet normal 0 -1 0
    outer loop
      vertex 149.434 42.025 -26.1255
      vertex 153.3 42.025 -39.05
      vertex 153.3 42.025 1
    endloop
  endfacet
  facet normal 0 -1 0
    outer loop
      vertex 148.687 42.025 -27.9279
      vertex 153.3 42.025 -39.05
      vertex 149.434 42.025 -26.1255
    endloop
  endfacet
  facet normal 0 -1 0
    outer loop
      vertex 147.308 42.025 -29.3073
      vertex 153.3 42.025 -39.05
      vertex 148.687 42.025 -27.9279
    endloop
  endfacet
  facet normal 0 -1 0
    outer loop
      vertex 145.505 42.025 -30.0539
      vertex 153.3 42.025 -39.05
      vertex 147.308 42.025 -29.3073
    endloop
  endfacet
  facet normal 0 -1 0
    outer loop
      vertex 153.3 42.025 -39.05
      vertex 145.505 42.025 -30.0539
      vertex 0 42.025 -39.05
    endloop
  endfacet
  facet normal 1 -0 0
    outer loop
      vertex 2 10.5 1
      vertex 2 12.5 -37.05
      vertex 2 12.5 1
    endloop
  endfacet
  facet normal 1 0 0
    outer loop
      vertex 2 12.5 -37.05
      vertex 2 10.5 1
      vertex 2 10.5 -37.05
    endloop
  endfacet
  facet normal -1 0 0
    outer loop
      vertex 151.3 10.5 -37.05
      vertex 151.3 12.5 1
      vertex 151.3 12.5 -37.05
    endloop
  endfacet
  facet normal -1 -0 0
    outer loop
      vertex 151.3 12.5 1
      vertex 151.3 10.5 -37.05
      vertex 151.3 10.5 1
    endloop
  endfacet
  facet normal -0 0 1
    outer loop
      vertex 2 12.5 -37.05
      vertex 151.3 10.5 -37.05
      vertex 151.3 12.5 -37.05
    endloop
  endfacet
  facet normal 0 0 1
    outer loop
      vertex 151.3 10.5 -37.05
      vertex 2 12.5 -37.05
      vertex 2 10.5 -37.05
    endloop
  endfacet
  facet normal -1 0 0
    outer loop
      vertex 153.3 0 -39.05
      vertex 153.3 10.5 1
      vertex 153.3 10.5 -39.05
    endloop
  endfacet
  facet normal -1 -0 0
    outer loop
      vertex 153.3 10.5 1
      vertex 153.3 0 -39.05
      vertex 153.3 0 1
    endloop
  endfacet
  facet normal 0 -1 0
    outer loop
      vertex 0 10.5 1
      vertex 2 10.5 -37.05
      vertex 2 10.5 1
    endloop
  endfacet
  facet normal 0 -1 -0
    outer loop
      vertex 2 10.5 -37.05
      vertex 0 10.5 -39.05
      vertex 151.3 10.5 -37.05
    endloop
  endfacet
  facet normal 0 -1 0
    outer loop
      vertex 0 10.5 -39.05
      vertex 2 10.5 -37.05
      vertex 0 10.5 1
    endloop
  endfacet
  facet normal 0 -1 0
    outer loop
      vertex 151.3 10.5 -37.05
      vertex 153.3 10.5 1
      vertex 151.3 10.5 1
    endloop
  endfacet
  facet normal 0 -1 0
    outer loop
      vertex 151.3 10.5 -37.05
      vertex 153.3 10.5 -39.05
      vertex 153.3 10.5 1
    endloop
  endfacet
  facet normal 0 -1 0
    outer loop
      vertex 153.3 10.5 -39.05
      vertex 151.3 10.5 -37.05
      vertex 0 10.5 -39.05
    endloop
  endfacet
  facet normal -0 0 1
    outer loop
      vertex 0 10.5 -39.05
      vertex 153.3 0 -39.05
      vertex 153.3 10.5 -39.05
    endloop
  endfacet
  facet normal 0 0 1
    outer loop
      vertex 153.3 0 -39.05
      vertex 0 10.5 -39.05
      vertex 0 0 -39.05
    endloop
  endfacet
  facet normal 1 -0 0
    outer loop
      vertex 0 0 1
      vertex 0 10.5 -39.05
      vertex 0 10.5 1
    endloop
  endfacet
  facet normal 1 0 0
    outer loop
      vertex 0 10.5 -39.05
      vertex 0 0 1
      vertex 0 0 -39.05
    endloop
  endfacet
  facet normal 0 1 0
    outer loop
      vertex 153.3 0 1
      vertex 151.03 0 -34.15
      vertex 151.03 0 1
    endloop
  endfacet
  facet normal 0 1 0
    outer loop
      vertex 151.03 0 -34.15
      vertex 153.3 0 -39.05
      vertex 2.27 0 -34.15
    endloop
  endfacet
  facet normal 0 1 -0
    outer loop
      vertex 153.3 0 -39.05
      vertex 151.03 0 -34.15
      vertex 153.3 0 1
    endloop
  endfacet
  facet normal 0 1 -0
    outer loop
      vertex 2.27 0 -34.15
      vertex 0 0 1
      vertex 2.27 0 1
    endloop
  endfacet
  facet normal 0 1 0
    outer loop
      vertex 2.27 0 -34.15
      vertex 0 0 -39.05
      vertex 0 0 1
    endloop
  endfacet
  facet normal 0 1 0
    outer loop
      vertex 0 0 -39.05
      vertex 2.27 0 -34.15
      vertex 153.3 0 -39.05
    endloop
  endfacet
  facet normal 1 -0 0
    outer loop
      vertex 2.27 -3.475 1
      vertex 2.27 0 -34.15
      vertex 2.27 0 1
    endloop
  endfacet
  facet normal 1 0 0
    outer loop
      vertex 2.27 0 -34.15
      vertex 2.27 -3.475 1
      vertex 2.27 -3.475 -34.15
    endloop
  endfacet
  facet normal -1 0 0
    outer loop
      vertex 151.03 -3.475 -34.15
      vertex 151.03 0 1
      vertex 151.03 0 -34.15
    endloop
  endfacet
  facet normal -1 -0 0
    outer loop
      vertex 151.03 0 1
      vertex 151.03 -3.475 -34.15
      vertex 151.03 -3.475 1
    endloop
  endfacet
  facet normal -0 0 1
    outer loop
      vertex 2.27 0 -34.15
      vertex 151.03 -3.475 -34.15
      vertex 151.03 0 -34.15
    endloop
  endfacet
  facet normal 0 0 1
    outer loop
      vertex 151.03 -3.475 -34.15
      vertex 2.27 0 -34.15
      vertex 2.27 -3.475 -34.15
    endloop
  endfacet
  facet normal 0 1 0
    outer loop
      vertex 151.03 -3.475 1
      vertex 149.434 -3.475 -26.1255
      vertex 149.434 -3.475 1
    endloop
  endfacet
  facet normal 0 1 0
    outer loop
      vertex 145.505 -3.475 -30.0539
      vertex 151.03 -3.475 -34.15
      vertex 7.79455 -3.475 -30.0539
    endloop
  endfacet
  facet normal 0 1 0
    outer loop
      vertex 147.308 -3.475 -29.3073
      vertex 151.03 -3.475 -34.15
      vertex 145.505 -3.475 -30.0539
    endloop
  endfacet
  facet normal 0 1 0
    outer loop
      vertex 148.687 -3.475 -27.9279
      vertex 151.03 -3.475 -34.15
      vertex 147.308 -3.475 -29.3073
    endloop
  endfacet
  facet normal 0 1 0
    outer loop
      vertex 149.434 -3.475 -26.1255
      vertex 151.03 -3.475 -34.15
      vertex 148.687 -3.475 -27.9279
    endloop
  endfacet
  facet normal 0 1 -0
    outer loop
      vertex 151.03 -3.475 -34.15
      vertex 149.434 -3.475 -26.1255
      vertex 151.03 -3.475 1
    endloop
  endfacet
  facet normal 0 1 -0
    outer loop
      vertex 3.86607 -3.475 -26.1255
      vertex 2.27 -3.475 1
      vertex 3.86607 -3.475 1
    endloop
  endfacet
  facet normal 0 1 0
    outer loop
      vertex 3.86607 -3.475 -26.1255
      vertex 2.27 -3.475 -34.15
      vertex 2.27 -3.475 1
    endloop
  endfacet
  facet normal 0 1 0
    outer loop
      vertex 4.61265 -3.475 -27.9279
      vertex 2.27 -3.475 -34.15
      vertex 3.86607 -3.475 -26.1255
    endloop
  endfacet
  facet normal 0 1 0
    outer loop
      vertex 5.99215 -3.475 -29.3073
      vertex 2.27 -3.475 -34.15
      vertex 4.61265 -3.475 -27.9279
    endloop
  endfacet
  facet normal 0 1 0
    outer loop
      vertex 7.79455 -3.475 -30.0539
      vertex 2.27 -3.475 -34.15
      vertex 5.99215 -3.475 -29.3073
    endloop
  endfacet
  facet normal 0 1 0
    outer loop
      vertex 2.27 -3.475 -34.15
      vertex 7.79455 -3.475 -30.0539
      vertex 151.03 -3.475 -34.15
    endloop
  endfacet
  facet normal 0.92388 -0 0.382683
    outer loop
      vertex 3.86607 42.025 -26.1255
      vertex 4.61265 44.9039 -27.9279
      vertex 3.86607 44.9039 -26.1255
    endloop
  endfacet
  facet normal 0.92388 0 0.382683
    outer loop
      vertex 4.61265 44.9039 -27.9279
      vertex 3.86607 42.025 -26.1255
      vertex 4.61265 42.025 -27.9279
    endloop
  endfacet
  facet normal 0.92388 -0 0.382683
    outer loop
      vertex 3.86607 -4.90393 -26.1255
      vertex 4.61265 -3.475 -27.9279
      vertex 3.86607 -3.475 -26.1255
    endloop
  endfacet
  facet normal 0.92388 0 0.382683
    outer loop
      vertex 4.61265 -3.475 -27.9279
      vertex 3.86607 -4.90393 -26.1255
      vertex 4.61265 -4.90393 -27.9279
    endloop
  endfacet
  facet normal -1 0 0
    outer loop
      vertex 149.434 42.025 -26.1255
      vertex 149.434 44.9039 1
      vertex 149.434 44.9039 -26.1255
    endloop
  endfacet
  facet normal -1 -0 0
    outer loop
      vertex 149.434 44.9039 1
      vertex 149.434 42.025 -26.1255
      vertex 149.434 42.025 1
    endloop
  endfacet
  facet normal -1 0 0
    outer loop
      vertex 149.434 -4.90393 -26.1255
      vertex 149.434 -3.475 1
      vertex 149.434 -3.475 -26.1255
    endloop
  endfacet
  facet normal -1 -0 0
    outer loop
      vertex 149.434 -3.475 1
      vertex 149.434 -4.90393 -26.1255
      vertex 149.434 -4.90393 1
    endloop
  endfacet
  facet normal -0.382684 0 0.923879
    outer loop
      vertex 145.505 44.9039 -30.0539
      vertex 147.308 42.025 -29.3073
      vertex 147.308 44.9039 -29.3073
    endloop
  endfacet
  facet normal -0.382684 0 0.923879
    outer loop
      vertex 147.308 42.025 -29.3073
      vertex 145.505 44.9039 -30.0539
      vertex 145.505 42.025 -30.0539
    endloop
  endfacet
  facet normal -0.382684 0 0.923879
    outer loop
      vertex 145.505 -3.475 -30.0539
      vertex 147.308 -4.90393 -29.3073
      vertex 147.308 -3.475 -29.3073
    endloop
  endfacet
  facet normal -0.382684 0 0.923879
    outer loop
      vertex 147.308 -4.90393 -29.3073
      vertex 145.505 -3.475 -30.0539
      vertex 145.505 -4.90393 -30.0539
    endloop
  endfacet
  facet normal -0.923879 0 0.382685
    outer loop
      vertex 148.687 42.025 -27.9279
      vertex 149.434 44.9039 -26.1255
      vertex 148.687 44.9039 -27.9279
    endloop
  endfacet
  facet normal -0.923879 0 0.382685
    outer loop
      vertex 149.434 44.9039 -26.1255
      vertex 148.687 42.025 -27.9279
      vertex 149.434 42.025 -26.1255
    endloop
  endfacet
  facet normal -0.923879 0 0.382685
    outer loop
      vertex 148.687 -4.90393 -27.9279
      vertex 149.434 -3.475 -26.1255
      vertex 148.687 -3.475 -27.9279
    endloop
  endfacet
  facet normal -0.923879 0 0.382685
    outer loop
      vertex 149.434 -3.475 -26.1255
      vertex 148.687 -4.90393 -27.9279
      vertex 149.434 -4.90393 -26.1255
    endloop
  endfacet
  facet normal 1 -0 0
    outer loop
      vertex 3.86607 42.025 1
      vertex 3.86607 44.9039 -26.1255
      vertex 3.86607 44.9039 1
    endloop
  endfacet
  facet normal 1 0 0
    outer loop
      vertex 3.86607 44.9039 -26.1255
      vertex 3.86607 42.025 1
      vertex 3.86607 42.025 -26.1255
    endloop
  endfacet
  facet normal 1 -0 0
    outer loop
      vertex 3.86607 -4.90393 1
      vertex 3.86607 -3.475 -26.1255
      vertex 3.86607 -3.475 1
    endloop
  endfacet
  facet normal 1 0 0
    outer loop
      vertex 3.86607 -3.475 -26.1255
      vertex 3.86607 -4.90393 1
      vertex 3.86607 -4.90393 -26.1255
    endloop
  endfacet
  facet normal -0.707105 0 0.707108
    outer loop
      vertex 147.308 44.9039 -29.3073
      vertex 148.687 42.025 -27.9279
      vertex 148.687 44.9039 -27.9279
    endloop
  endfacet
  facet normal -0.707105 0 0.707108
    outer loop
      vertex 148.687 42.025 -27.9279
      vertex 147.308 44.9039 -29.3073
      vertex 147.308 42.025 -29.3073
    endloop
  endfacet
  facet normal -0.707105 0 0.707108
    outer loop
      vertex 147.308 -3.475 -29.3073
      vertex 148.687 -4.90393 -27.9279
      vertex 148.687 -3.475 -27.9279
    endloop
  endfacet
  facet normal -0.707105 0 0.707108
    outer loop
      vertex 148.687 -4.90393 -27.9279
      vertex 147.308 -3.475 -29.3073
      vertex 147.308 -4.90393 -29.3073
    endloop
  endfacet
  facet normal -0 0 1
    outer loop
      vertex 7.79455 44.9039 -30.0539
      vertex 145.505 42.025 -30.0539
      vertex 145.505 44.9039 -30.0539
    endloop
  endfacet
  facet normal 0 0 1
    outer loop
      vertex 145.505 42.025 -30.0539
      vertex 7.79455 44.9039 -30.0539
      vertex 7.79455 42.025 -30.0539
    endloop
  endfacet
  facet normal -0 0 1
    outer loop
      vertex 7.79455 -3.475 -30.0539
      vertex 145.505 -4.90393 -30.0539
      vertex 145.505 -3.475 -30.0539
    endloop
  endfacet
  facet normal 0 0 1
    outer loop
      vertex 145.505 -4.90393 -30.0539
      vertex 7.79455 -3.475 -30.0539
      vertex 7.79455 -4.90393 -30.0539
    endloop
  endfacet
  facet normal 0.707107 0 0.707107
    outer loop
      vertex 4.61265 44.9039 -27.9279
      vertex 5.99215 42.025 -29.3073
      vertex 5.99215 44.9039 -29.3073
    endloop
  endfacet
  facet normal 0.707107 0 0.707107
    outer loop
      vertex 5.99215 42.025 -29.3073
      vertex 4.61265 44.9039 -27.9279
      vertex 4.61265 42.025 -27.9279
    endloop
  endfacet
  facet normal 0.707107 0 0.707107
    outer loop
      vertex 4.61265 -3.475 -27.9279
      vertex 5.99215 -4.90393 -29.3073
      vertex 5.99215 -3.475 -29.3073
    endloop
  endfacet
  facet normal 0.707107 0 0.707107
    outer loop
      vertex 5.99215 -4.90393 -29.3073
      vertex 4.61265 -3.475 -27.9279
      vertex 4.61265 -4.90393 -27.9279
    endloop
  endfacet
  facet normal 0.382683 0 0.92388
    outer loop
      vertex 5.99215 44.9039 -29.3073
      vertex 7.79455 42.025 -30.0539
      vertex 7.79455 44.9039 -30.0539
    endloop
  endfacet
  facet normal 0.382683 0 0.92388
    outer loop
      vertex 7.79455 42.025 -30.0539
      vertex 5.99215 44.9039 -29.3073
      vertex 5.99215 42.025 -29.3073
    endloop
  endfacet
  facet normal 0.382683 0 0.92388
    outer loop
      vertex 5.99215 -3.475 -29.3073
      vertex 7.79455 -4.90393 -30.0539
      vertex 7.79455 -3.475 -30.0539
    endloop
  endfacet
  facet normal 0.382683 0 0.92388
    outer loop
      vertex 7.79455 -4.90393 -30.0539
      vertex 5.99215 -3.475 -29.3073
      vertex 5.99215 -4.90393 -29.3073
    endloop
  endfacet
  facet normal 0.38158 -0.0759027 -0.921214
    outer loop
      vertex 155.866 -1.06304 -41.0073
      vertex 154.275 0 -41.7539
      vertex 156.078 0 -41.0073
    endloop
  endfacet
  facet normal 0.700213 -0.139284 -0.700215
    outer loop
      vertex 157.141 -1.59095 -39.6278
      vertex 155.866 -1.06304 -41.0073
      vertex 156.078 0 -41.0073
    endloop
  endfacet
  facet normal 0.0759008 -0.38158 -0.921214
    outer loop
      vertex 154.363 -2.5664 -41.0073
      vertex 153.3 -0.975451 -41.7539
      vertex 153.673 -0.901199 -41.7539
    endloop
  endfacet
  facet normal -0.908663 0.180744 -0.376381
    outer loop
      vertex -4.15735 40 -39.6278
      vertex -4.90393 40 -37.8255
      vertex -4.53064 41.8767 -37.8255
    endloop
  endfacet
  facet normal 0.0759018 0.381579 -0.921214
    outer loop
      vertex 153.673 40.9012 -41.7539
      vertex 153.3 40.9755 -41.7539
      vertex 154.363 42.5664 -41.0073
    endloop
  endfacet
  facet normal 0.593614 -0.396637 -0.700215
    outer loop
      vertex 157.141 -1.59095 -39.6278
      vertex 155.264 -1.96424 -41.0073
      vertex 155.866 -1.06304 -41.0073
    endloop
  endfacet
  facet normal 0.21615 -0.323484 -0.921215
    outer loop
      vertex 155.264 -1.96424 -41.0073
      vertex 153.673 -0.901199 -41.7539
      vertex 153.99 -0.689748 -41.7539
    endloop
  endfacet
  facet normal -0.381579 -0.0759012 -0.921215
    outer loop
      vertex -0.901199 -0.373289 -41.7539
      vertex -2.5664 -1.06304 -41.0073
      vertex -0.975451 0 -41.7539
    endloop
  endfacet
  facet normal -0.381579 0.0759009 -0.921215
    outer loop
      vertex -0.975451 40 -41.7539
      vertex -2.77785 40 -41.0073
      vertex -2.5664 41.063 -41.0073
    endloop
  endfacet
  facet normal 0.555572 0.831469 -0
    outer loop
      vertex 156.768 43.4676 -37.8255
      vertex 155.177 44.5306 1
      vertex 156.768 43.4676 1
    endloop
  endfacet
  facet normal 0.555572 0.831469 0
    outer loop
      vertex 155.177 44.5306 1
      vertex 156.768 43.4676 -37.8255
      vertex 155.177 44.5306 -37.8255
    endloop
  endfacet
  facet normal -0.908663 -0.180745 -0.376381
    outer loop
      vertex -3.84089 -1.59095 -39.6278
      vertex -4.53064 -1.87665 -37.8255
      vertex -4.15735 0 -39.6278
    endloop
  endfacet
  facet normal 0.555572 -0.831469 0
    outer loop
      vertex 155.177 -4.53064 -37.8255
      vertex 156.768 -3.4676 1
      vertex 155.177 -4.53064 1
    endloop
  endfacet
  facet normal 0.555572 -0.831469 0
    outer loop
      vertex 156.768 -3.4676 1
      vertex 155.177 -4.53064 -37.8255
      vertex 156.768 -3.4676 -37.8255
    endloop
  endfacet
  facet normal -0.216148 0.323486 -0.921215
    outer loop
      vertex -0.689748 40.6897 -41.7539
      vertex -1.96424 41.9642 -41.0073
      vertex -0.373289 40.9012 -41.7539
    endloop
  endfacet
  facet normal 0.180745 -0.908663 -0.376381
    outer loop
      vertex 155.177 -4.53064 -37.8255
      vertex 153.3 -4.90393 -37.8255
      vertex 153.3 -4.15735 -39.6278
    endloop
  endfacet
  facet normal 0.195091 -0.980785 0
    outer loop
      vertex 153.3 -4.90393 -37.8255
      vertex 155.177 -4.53064 1
      vertex 153.3 -4.90393 1
    endloop
  endfacet
  facet normal 0.195091 -0.980785 0
    outer loop
      vertex 155.177 -4.53064 1
      vertex 153.3 -4.90393 -37.8255
      vertex 155.177 -4.53064 -37.8255
    endloop
  endfacet
  facet normal 0.139282 -0.700215 -0.700214
    outer loop
      vertex 154.891 -3.84089 -39.6278
      vertex 153.3 -2.77785 -41.0073
      vertex 154.363 -2.5664 -41.0073
    endloop
  endfacet
  facet normal 0.381582 -0.0758988 -0.921214
    outer loop
      vertex 155.866 -1.06304 -41.0073
      vertex 154.201 -0.373289 -41.7539
      vertex 154.275 0 -41.7539
    endloop
  endfacet
  facet normal -0.180744 -0.908663 -0.376381
    outer loop
      vertex 0 -4.90393 -37.8255
      vertex -1.87665 -4.53064 -37.8255
      vertex 0 -4.15735 -39.6278
    endloop
  endfacet
  facet normal -0.139281 0.700214 -0.700214
    outer loop
      vertex 0 42.7779 -41.0073
      vertex -1.59095 43.8409 -39.6278
      vertex 0 44.1573 -39.6278
    endloop
  endfacet
  facet normal 0 0.707107 -0.707107
    outer loop
      vertex 153.3 42.7779 -41.0073
      vertex 0 44.1573 -39.6278
      vertex 153.3 44.1573 -39.6278
    endloop
  endfacet
  facet normal 0 0.707107 -0.707107
    outer loop
      vertex 0 44.1573 -39.6278
      vertex 153.3 42.7779 -41.0073
      vertex 0 42.7779 -41.0073
    endloop
  endfacet
  facet normal -0.770328 0.514717 -0.376381
    outer loop
      vertex -3.84089 41.591 -39.6278
      vertex -4.53064 41.8767 -37.8255
      vertex -2.93969 42.9397 -39.6278
    endloop
  endfacet
  facet normal 0.707106 0 -0.707108
    outer loop
      vertex 156.078 0 -41.0073
      vertex 157.457 40 -39.6278
      vertex 157.457 0 -39.6278
    endloop
  endfacet
  facet normal 0.707106 0 -0.707108
    outer loop
      vertex 157.457 40 -39.6278
      vertex 156.078 0 -41.0073
      vertex 156.078 40 -41.0073
    endloop
  endfacet
  facet normal 0.323484 -0.216151 -0.921215
    outer loop
      vertex 155.264 -1.96424 -41.0073
      vertex 153.99 -0.689748 -41.7539
      vertex 154.201 -0.373289 -41.7539
    endloop
  endfacet
  facet normal 0.323489 -0.216147 -0.921214
    outer loop
      vertex 155.264 -1.96424 -41.0073
      vertex 154.201 -0.373289 -41.7539
      vertex 155.866 -1.06304 -41.0073
    endloop
  endfacet
  facet normal 0 1 0
    outer loop
      vertex 153.3 44.9039 1
      vertex 149.434 44.9039 -26.1255
      vertex 149.434 44.9039 1
    endloop
  endfacet
  facet normal 0 1 0
    outer loop
      vertex 145.505 44.9039 -30.0539
      vertex 153.3 44.9039 -37.8255
      vertex 7.79455 44.9039 -30.0539
    endloop
  endfacet
  facet normal 0 1 0
    outer loop
      vertex 147.308 44.9039 -29.3073
      vertex 153.3 44.9039 -37.8255
      vertex 145.505 44.9039 -30.0539
    endloop
  endfacet
  facet normal 0 1 0
    outer loop
      vertex 148.687 44.9039 -27.9279
      vertex 153.3 44.9039 -37.8255
      vertex 147.308 44.9039 -29.3073
    endloop
  endfacet
  facet normal 0 1 0
    outer loop
      vertex 149.434 44.9039 -26.1255
      vertex 153.3 44.9039 -37.8255
      vertex 148.687 44.9039 -27.9279
    endloop
  endfacet
  facet normal 0 1 -0
    outer loop
      vertex 153.3 44.9039 -37.8255
      vertex 149.434 44.9039 -26.1255
      vertex 153.3 44.9039 1
    endloop
  endfacet
  facet normal 0 1 -0
    outer loop
      vertex 3.86607 44.9039 -26.1255
      vertex 0 44.9039 1
      vertex 3.86607 44.9039 1
    endloop
  endfacet
  facet normal 0 1 0
    outer loop
      vertex 3.86607 44.9039 -26.1255
      vertex 0 44.9039 -37.8255
      vertex 0 44.9039 1
    endloop
  endfacet
  facet normal 0 1 0
    outer loop
      vertex 4.61265 44.9039 -27.9279
      vertex 0 44.9039 -37.8255
      vertex 3.86607 44.9039 -26.1255
    endloop
  endfacet
  facet normal 0 1 0
    outer loop
      vertex 5.99215 44.9039 -29.3073
      vertex 0 44.9039 -37.8255
      vertex 4.61265 44.9039 -27.9279
    endloop
  endfacet
  facet normal 0 1 0
    outer loop
      vertex 7.79455 44.9039 -30.0539
      vertex 0 44.9039 -37.8255
      vertex 5.99215 44.9039 -29.3073
    endloop
  endfacet
  facet normal 0 1 0
    outer loop
      vertex 0 44.9039 -37.8255
      vertex 7.79455 44.9039 -30.0539
      vertex 153.3 44.9039 -37.8255
    endloop
  endfacet
  facet normal 0.908666 -0.180739 -0.376376
    outer loop
      vertex 157.831 -1.87665 -37.8255
      vertex 157.457 0 -39.6278
      vertex 158.204 0 -37.8255
    endloop
  endfacet
  facet normal -1 0 0
    outer loop
      vertex -4.90393 0 -37.8255
      vertex -4.90393 40 1
      vertex -4.90393 40 -37.8255
    endloop
  endfacet
  facet normal -1 -0 0
    outer loop
      vertex -4.90393 40 1
      vertex -4.90393 0 -37.8255
      vertex -4.90393 0 1
    endloop
  endfacet
  facet normal 0.39664 -0.593614 -0.700214
    outer loop
      vertex 156.24 -2.93969 -39.6278
      vertex 154.891 -3.84089 -39.6278
      vertex 155.264 -1.96424 -41.0073
    endloop
  endfacet
  facet normal -0.075901 -0.381579 -0.921214
    outer loop
      vertex 0 -2.77785 -41.0073
      vertex -1.06304 -2.5664 -41.0073
      vertex 0 -0.975451 -41.7539
    endloop
  endfacet
  facet normal -0.0759012 -0.381579 -0.921215
    outer loop
      vertex 0 -0.975451 -41.7539
      vertex -1.06304 -2.5664 -41.0073
      vertex -0.373289 -0.901199 -41.7539
    endloop
  endfacet
  facet normal -0.770328 -0.514716 -0.376381
    outer loop
      vertex -2.93969 -2.93969 -39.6278
      vertex -4.53064 -1.87665 -37.8255
      vertex -3.84089 -1.59095 -39.6278
    endloop
  endfacet
  facet normal 0.0759016 0.38158 -0.921214
    outer loop
      vertex 154.363 42.5664 -41.0073
      vertex 153.3 40.9755 -41.7539
      vertex 153.3 42.7779 -41.0073
    endloop
  endfacet
  facet normal 0.923882 0 -0.382679
    outer loop
      vertex 158.204 0 -37.8255
      vertex 157.457 40 -39.6278
      vertex 158.204 40 -37.8255
    endloop
  endfacet
  facet normal 0.923882 0 -0.382679
    outer loop
      vertex 157.457 40 -39.6278
      vertex 158.204 0 -37.8255
      vertex 157.457 0 -39.6278
    endloop
  endfacet
  facet normal 0.382684 0 -0.923879
    outer loop
      vertex 154.275 0 -41.7539
      vertex 156.078 40 -41.0073
      vertex 156.078 0 -41.0073
    endloop
  endfacet
  facet normal 0.382684 0 -0.923879
    outer loop
      vertex 156.078 40 -41.0073
      vertex 154.275 0 -41.7539
      vertex 154.275 40 -41.7539
    endloop
  endfacet
  facet normal 0.216148 0.323488 -0.921214
    outer loop
      vertex 155.264 41.9642 -41.0073
      vertex 153.673 40.9012 -41.7539
      vertex 154.363 42.5664 -41.0073
    endloop
  endfacet
  facet normal 0.180746 0.908663 -0.376381
    outer loop
      vertex 155.177 44.5306 -37.8255
      vertex 153.3 44.1573 -39.6278
      vertex 153.3 44.9039 -37.8255
    endloop
  endfacet
  facet normal 0.908661 -0.180748 -0.376385
    outer loop
      vertex 157.831 -1.87665 -37.8255
      vertex 157.141 -1.59095 -39.6278
      vertex 157.457 0 -39.6278
    endloop
  endfacet
  facet normal 0.700213 -0.139285 -0.700215
    outer loop
      vertex 157.141 -1.59095 -39.6278
      vertex 156.078 0 -41.0073
      vertex 157.457 0 -39.6278
    endloop
  endfacet
  facet normal 0.216148 -0.323488 -0.921214
    outer loop
      vertex 154.363 -2.5664 -41.0073
      vertex 153.673 -0.901199 -41.7539
      vertex 155.264 -1.96424 -41.0073
    endloop
  endfacet
  facet normal -0.323488 0.216148 -0.921214
    outer loop
      vertex -0.901199 40.3733 -41.7539
      vertex -2.5664 41.063 -41.0073
      vertex -1.96424 41.9642 -41.0073
    endloop
  endfacet
  facet normal 0.180745 0.908663 -0.37638
    outer loop
      vertex 154.891 43.8409 -39.6278
      vertex 153.3 44.1573 -39.6278
      vertex 155.177 44.5306 -37.8255
    endloop
  endfacet
  facet normal 1 -0 0
    outer loop
      vertex 158.204 0 1
      vertex 158.204 40 -37.8255
      vertex 158.204 40 1
    endloop
  endfacet
  facet normal 1 0 0
    outer loop
      vertex 158.204 40 -37.8255
      vertex 158.204 0 1
      vertex 158.204 0 -37.8255
    endloop
  endfacet
  facet normal -0.980785 -0.19509 0
    outer loop
      vertex -4.53064 -1.87665 -37.8255
      vertex -4.90393 0 1
      vertex -4.90393 0 -37.8255
    endloop
  endfacet
  facet normal -0.980785 -0.19509 0
    outer loop
      vertex -4.90393 0 1
      vertex -4.53064 -1.87665 -37.8255
      vertex -4.53064 -1.87665 1
    endloop
  endfacet
  facet normal -0.139282 -0.700215 -0.700214
    outer loop
      vertex 0 -2.77785 -41.0073
      vertex -1.59095 -3.84089 -39.6278
      vertex -1.06304 -2.5664 -41.0073
    endloop
  endfacet
  facet normal -0.38158 0.0759008 -0.921214
    outer loop
      vertex -0.975451 40 -41.7539
      vertex -2.5664 41.063 -41.0073
      vertex -0.901199 40.3733 -41.7539
    endloop
  endfacet
  facet normal -0.514716 -0.770328 -0.376381
    outer loop
      vertex -1.87665 -4.53064 -37.8255
      vertex -2.93969 -2.93969 -39.6278
      vertex -1.59095 -3.84089 -39.6278
    endloop
  endfacet
  facet normal -0.39664 -0.593613 -0.700214
    outer loop
      vertex -1.59095 -3.84089 -39.6278
      vertex -2.93969 -2.93969 -39.6278
      vertex -1.96424 -1.96424 -41.0073
    endloop
  endfacet
  facet normal -0.382683 0 -0.92388
    outer loop
      vertex -2.77785 0 -41.0073
      vertex -0.975451 40 -41.7539
      vertex -0.975451 0 -41.7539
    endloop
  endfacet
  facet normal -0.382683 0 -0.92388
    outer loop
      vertex -0.975451 40 -41.7539
      vertex -2.77785 0 -41.0073
      vertex -2.77785 40 -41.0073
    endloop
  endfacet
  facet normal 0 0 -1
    outer loop
      vertex 153.3 -0.975451 -41.7539
      vertex 154.275 0 -41.7539
      vertex 154.201 -0.373289 -41.7539
    endloop
  endfacet
  facet normal -0 0 -1
    outer loop
      vertex 154.275 0 -41.7539
      vertex 153.3 -0.975451 -41.7539
      vertex 154.275 40 -41.7539
    endloop
  endfacet
  facet normal 0 0 -1
    outer loop
      vertex 153.3 -0.975451 -41.7539
      vertex 154.201 -0.373289 -41.7539
      vertex 153.99 -0.689748 -41.7539
    endloop
  endfacet
  facet normal 0 0 -1
    outer loop
      vertex 153.3 40.9755 -41.7539
      vertex 154.275 40 -41.7539
      vertex 153.3 -0.975451 -41.7539
    endloop
  endfacet
  facet normal 0 0 -1
    outer loop
      vertex 153.3 -0.975451 -41.7539
      vertex 153.99 -0.689748 -41.7539
      vertex 153.673 -0.901199 -41.7539
    endloop
  endfacet
  facet normal 0 0 -1
    outer loop
      vertex 154.275 40 -41.7539
      vertex 153.3 40.9755 -41.7539
      vertex 154.201 40.3733 -41.7539
    endloop
  endfacet
  facet normal 0 0 -1
    outer loop
      vertex 154.201 40.3733 -41.7539
      vertex 153.3 40.9755 -41.7539
      vertex 153.99 40.6897 -41.7539
    endloop
  endfacet
  facet normal 0 0 -1
    outer loop
      vertex 153.99 40.6897 -41.7539
      vertex 153.3 40.9755 -41.7539
      vertex 153.673 40.9012 -41.7539
    endloop
  endfacet
  facet normal 0 0 -1
    outer loop
      vertex 0 -0.975451 -41.7539
      vertex 153.3 40.9755 -41.7539
      vertex 153.3 -0.975451 -41.7539
    endloop
  endfacet
  facet normal 0 0 -1
    outer loop
      vertex 0 -0.975451 -41.7539
      vertex 0 40.9755 -41.7539
      vertex 153.3 40.9755 -41.7539
    endloop
  endfacet
  facet normal 0 0 -1
    outer loop
      vertex -0.975451 0 -41.7539
      vertex 0 -0.975451 -41.7539
      vertex -0.373289 -0.901199 -41.7539
    endloop
  endfacet
  facet normal 0 0 -1
    outer loop
      vertex 0 -0.975451 -41.7539
      vertex -0.975451 0 -41.7539
      vertex 0 40.9755 -41.7539
    endloop
  endfacet
  facet normal 0 0 -1
    outer loop
      vertex -0.975451 0 -41.7539
      vertex -0.373289 -0.901199 -41.7539
      vertex -0.689748 -0.689748 -41.7539
    endloop
  endfacet
  facet normal 0 0 -1
    outer loop
      vertex -0.975451 40 -41.7539
      vertex 0 40.9755 -41.7539
      vertex -0.975451 0 -41.7539
    endloop
  endfacet
  facet normal 0 0 -1
    outer loop
      vertex -0.975451 0 -41.7539
      vertex -0.689748 -0.689748 -41.7539
      vertex -0.901199 -0.373289 -41.7539
    endloop
  endfacet
  facet normal 0 0 -1
    outer loop
      vertex 0 40.9755 -41.7539
      vertex -0.975451 40 -41.7539
      vertex -0.373289 40.9012 -41.7539
    endloop
  endfacet
  facet normal 0 0 -1
    outer loop
      vertex -0.373289 40.9012 -41.7539
      vertex -0.975451 40 -41.7539
      vertex -0.689748 40.6897 -41.7539
    endloop
  endfacet
  facet normal 0 0 -1
    outer loop
      vertex -0.689748 40.6897 -41.7539
      vertex -0.975451 40 -41.7539
      vertex -0.901199 40.3733 -41.7539
    endloop
  endfacet
  facet normal 0.396639 0.593614 -0.700214
    outer loop
      vertex 155.264 41.9642 -41.0073
      vertex 154.363 42.5664 -41.0073
      vertex 154.891 43.8409 -39.6278
    endloop
  endfacet
  facet normal 0.381582 0.0758984 -0.921214
    outer loop
      vertex 154.275 40 -41.7539
      vertex 154.201 40.3733 -41.7539
      vertex 155.866 41.063 -41.0073
    endloop
  endfacet
  facet normal 0.323483 0.216152 -0.921215
    outer loop
      vertex 154.201 40.3733 -41.7539
      vertex 153.99 40.6897 -41.7539
      vertex 155.264 41.9642 -41.0073
    endloop
  endfacet
  facet normal 0.195092 0.980785 -0
    outer loop
      vertex 155.177 44.5306 -37.8255
      vertex 153.3 44.9039 1
      vertex 155.177 44.5306 1
    endloop
  endfacet
  facet normal 0.195092 0.980785 0
    outer loop
      vertex 153.3 44.9039 1
      vertex 155.177 44.5306 -37.8255
      vertex 153.3 44.9039 -37.8255
    endloop
  endfacet
  facet normal 0 0.923879 -0.382684
    outer loop
      vertex 153.3 44.1573 -39.6278
      vertex 0 44.9039 -37.8255
      vertex 153.3 44.9039 -37.8255
    endloop
  endfacet
  facet normal 0 0.923879 -0.382684
    outer loop
      vertex 0 44.9039 -37.8255
      vertex 153.3 44.1573 -39.6278
      vertex 0 44.1573 -39.6278
    endloop
  endfacet
  facet normal 0 -0.923879 -0.382684
    outer loop
      vertex 0 -4.15735 -39.6278
      vertex 153.3 -4.90393 -37.8255
      vertex 0 -4.90393 -37.8255
    endloop
  endfacet
  facet normal 0 -0.923879 -0.382684
    outer loop
      vertex 153.3 -4.90393 -37.8255
      vertex 0 -4.15735 -39.6278
      vertex 153.3 -4.15735 -39.6278
    endloop
  endfacet
  facet normal 0.593614 -0.39664 -0.700214
    outer loop
      vertex 156.24 -2.93969 -39.6278
      vertex 155.264 -1.96424 -41.0073
      vertex 157.141 -1.59095 -39.6278
    endloop
  endfacet
  facet normal 0.770326 -0.514715 -0.376384
    outer loop
      vertex 157.831 -1.87665 -37.8255
      vertex 156.24 -2.93969 -39.6278
      vertex 157.141 -1.59095 -39.6278
    endloop
  endfacet
  facet normal 0.831467 -0.555574 0
    outer loop
      vertex 156.768 -3.4676 1
      vertex 157.831 -1.87665 -37.8255
      vertex 157.831 -1.87665 1
    endloop
  endfacet
  facet normal 0.831467 -0.555574 0
    outer loop
      vertex 157.831 -1.87665 -37.8255
      vertex 156.768 -3.4676 1
      vertex 156.768 -3.4676 -37.8255
    endloop
  endfacet
  facet normal -0.139282 0.700214 -0.700215
    outer loop
      vertex -1.06304 42.5664 -41.0073
      vertex -1.59095 43.8409 -39.6278
      vertex 0 42.7779 -41.0073
    endloop
  endfacet
  facet normal -0.323486 0.216149 -0.921215
    outer loop
      vertex -0.901199 40.3733 -41.7539
      vertex -1.96424 41.9642 -41.0073
      vertex -0.689748 40.6897 -41.7539
    endloop
  endfacet
  facet normal 0.980787 -0.195084 0
    outer loop
      vertex 157.831 -1.87665 1
      vertex 158.204 0 -37.8255
      vertex 158.204 0 1
    endloop
  endfacet
  facet normal 0.980787 -0.195084 0
    outer loop
      vertex 158.204 0 -37.8255
      vertex 157.831 -1.87665 1
      vertex 157.831 -1.87665 -37.8255
    endloop
  endfacet
  facet normal -0.980785 0.19509 0
    outer loop
      vertex -4.90393 40 -37.8255
      vertex -4.53064 41.8767 1
      vertex -4.53064 41.8767 -37.8255
    endloop
  endfacet
  facet normal -0.980785 0.19509 0
    outer loop
      vertex -4.53064 41.8767 1
      vertex -4.90393 40 -37.8255
      vertex -4.90393 40 1
    endloop
  endfacet
  facet normal -0.700215 0.139281 -0.700214
    outer loop
      vertex -2.77785 40 -41.0073
      vertex -3.84089 41.591 -39.6278
      vertex -2.5664 41.063 -41.0073
    endloop
  endfacet
  facet normal -0.908663 -0.180744 -0.376381
    outer loop
      vertex -4.53064 -1.87665 -37.8255
      vertex -4.90393 0 -37.8255
      vertex -4.15735 0 -39.6278
    endloop
  endfacet
  facet normal -0.514717 -0.770328 -0.376381
    outer loop
      vertex -1.87665 -4.53064 -37.8255
      vertex -3.4676 -3.4676 -37.8255
      vertex -2.93969 -2.93969 -39.6278
    endloop
  endfacet
  facet normal -0.923879 0 -0.382684
    outer loop
      vertex -4.15735 0 -39.6278
      vertex -4.90393 40 -37.8255
      vertex -4.15735 40 -39.6278
    endloop
  endfacet
  facet normal -0.923879 -0 -0.382684
    outer loop
      vertex -4.90393 40 -37.8255
      vertex -4.15735 0 -39.6278
      vertex -4.90393 0 -37.8255
    endloop
  endfacet
  facet normal -0.593613 -0.39664 -0.700214
    outer loop
      vertex -2.93969 -2.93969 -39.6278
      vertex -3.84089 -1.59095 -39.6278
      vertex -1.96424 -1.96424 -41.0073
    endloop
  endfacet
  facet normal -0.593613 -0.39664 -0.700214
    outer loop
      vertex -1.96424 -1.96424 -41.0073
      vertex -3.84089 -1.59095 -39.6278
      vertex -2.5664 -1.06304 -41.0073
    endloop
  endfacet
  facet normal -0.216148 -0.323487 -0.921215
    outer loop
      vertex -0.373289 -0.901199 -41.7539
      vertex -1.96424 -1.96424 -41.0073
      vertex -0.689748 -0.689748 -41.7539
    endloop
  endfacet
  facet normal -0.139282 -0.700215 -0.700214
    outer loop
      vertex 0 -4.15735 -39.6278
      vertex -1.59095 -3.84089 -39.6278
      vertex 0 -2.77785 -41.0073
    endloop
  endfacet
  facet normal -0.180745 -0.908663 -0.376381
    outer loop
      vertex 0 -4.15735 -39.6278
      vertex -1.87665 -4.53064 -37.8255
      vertex -1.59095 -3.84089 -39.6278
    endloop
  endfacet
  facet normal 0.323489 0.216147 -0.921214
    outer loop
      vertex 155.866 41.063 -41.0073
      vertex 154.201 40.3733 -41.7539
      vertex 155.264 41.9642 -41.0073
    endloop
  endfacet
  facet normal 0.593614 0.396637 -0.700215
    outer loop
      vertex 155.866 41.063 -41.0073
      vertex 155.264 41.9642 -41.0073
      vertex 157.141 41.591 -39.6278
    endloop
  endfacet
  facet normal 0.139282 0.700214 -0.700215
    outer loop
      vertex 154.363 42.5664 -41.0073
      vertex 153.3 42.7779 -41.0073
      vertex 154.891 43.8409 -39.6278
    endloop
  endfacet
  facet normal 0.139282 0.700214 -0.700214
    outer loop
      vertex 154.891 43.8409 -39.6278
      vertex 153.3 42.7779 -41.0073
      vertex 153.3 44.1573 -39.6278
    endloop
  endfacet
  facet normal 0.700213 0.139284 -0.700215
    outer loop
      vertex 157.457 40 -39.6278
      vertex 156.078 40 -41.0073
      vertex 157.141 41.591 -39.6278
    endloop
  endfacet
  facet normal 0 -1 0
    outer loop
      vertex 0 -4.90393 1
      vertex 3.86607 -4.90393 -26.1255
      vertex 3.86607 -4.90393 1
    endloop
  endfacet
  facet normal 0 -1 -0
    outer loop
      vertex 7.79455 -4.90393 -30.0539
      vertex 0 -4.90393 -37.8255
      vertex 145.505 -4.90393 -30.0539
    endloop
  endfacet
  facet normal 0 -1 -0
    outer loop
      vertex 5.99215 -4.90393 -29.3073
      vertex 0 -4.90393 -37.8255
      vertex 7.79455 -4.90393 -30.0539
    endloop
  endfacet
  facet normal 0 -1 -0
    outer loop
      vertex 4.61265 -4.90393 -27.9279
      vertex 0 -4.90393 -37.8255
      vertex 5.99215 -4.90393 -29.3073
    endloop
  endfacet
  facet normal 0 -1 -0
    outer loop
      vertex 3.86607 -4.90393 -26.1255
      vertex 0 -4.90393 -37.8255
      vertex 4.61265 -4.90393 -27.9279
    endloop
  endfacet
  facet normal 0 -1 0
    outer loop
      vertex 0 -4.90393 -37.8255
      vertex 3.86607 -4.90393 -26.1255
      vertex 0 -4.90393 1
    endloop
  endfacet
  facet normal 0 -1 0
    outer loop
      vertex 149.434 -4.90393 -26.1255
      vertex 153.3 -4.90393 1
      vertex 149.434 -4.90393 1
    endloop
  endfacet
  facet normal 0 -1 0
    outer loop
      vertex 149.434 -4.90393 -26.1255
      vertex 153.3 -4.90393 -37.8255
      vertex 153.3 -4.90393 1
    endloop
  endfacet
  facet normal 0 -1 0
    outer loop
      vertex 148.687 -4.90393 -27.9279
      vertex 153.3 -4.90393 -37.8255
      vertex 149.434 -4.90393 -26.1255
    endloop
  endfacet
  facet normal 0 -1 0
    outer loop
      vertex 147.308 -4.90393 -29.3073
      vertex 153.3 -4.90393 -37.8255
      vertex 148.687 -4.90393 -27.9279
    endloop
  endfacet
  facet normal 0 -1 0
    outer loop
      vertex 145.505 -4.90393 -30.0539
      vertex 153.3 -4.90393 -37.8255
      vertex 147.308 -4.90393 -29.3073
    endloop
  endfacet
  facet normal 0 -1 0
    outer loop
      vertex 153.3 -4.90393 -37.8255
      vertex 145.505 -4.90393 -30.0539
      vertex 0 -4.90393 -37.8255
    endloop
  endfacet
  facet normal -0.19509 -0.980785 0
    outer loop
      vertex -1.87665 -4.53064 -37.8255
      vertex 0 -4.90393 1
      vertex -1.87665 -4.53064 1
    endloop
  endfacet
  facet normal -0.19509 -0.980785 -0
    outer loop
      vertex 0 -4.90393 1
      vertex -1.87665 -4.53064 -37.8255
      vertex 0 -4.90393 -37.8255
    endloop
  endfacet
  facet normal 0 -0.707107 -0.707107
    outer loop
      vertex 0 -2.77785 -41.0073
      vertex 153.3 -4.15735 -39.6278
      vertex 0 -4.15735 -39.6278
    endloop
  endfacet
  facet normal 0 -0.707107 -0.707107
    outer loop
      vertex 153.3 -4.15735 -39.6278
      vertex 0 -2.77785 -41.0073
      vertex 153.3 -2.77785 -41.0073
    endloop
  endfacet
  facet normal 0.139282 -0.700215 -0.700214
    outer loop
      vertex 154.891 -3.84089 -39.6278
      vertex 153.3 -4.15735 -39.6278
      vertex 153.3 -2.77785 -41.0073
    endloop
  endfacet
  facet normal 0.514718 -0.770327 -0.37638
    outer loop
      vertex 156.768 -3.4676 -37.8255
      vertex 155.177 -4.53064 -37.8255
      vertex 156.24 -2.93969 -39.6278
    endloop
  endfacet
  facet normal 0.770325 -0.51472 -0.37638
    outer loop
      vertex 156.768 -3.4676 -37.8255
      vertex 156.24 -2.93969 -39.6278
      vertex 157.831 -1.87665 -37.8255
    endloop
  endfacet
  facet normal 0 0.382684 -0.923879
    outer loop
      vertex 0 40.9755 -41.7539
      vertex 153.3 42.7779 -41.0073
      vertex 153.3 40.9755 -41.7539
    endloop
  endfacet
  facet normal 0 0.382684 -0.923879
    outer loop
      vertex 153.3 42.7779 -41.0073
      vertex 0 40.9755 -41.7539
      vertex 0 42.7779 -41.0073
    endloop
  endfacet
  facet normal -0.55557 0.83147 0
    outer loop
      vertex -1.87665 44.5306 -37.8255
      vertex -3.4676 43.4676 1
      vertex -1.87665 44.5306 1
    endloop
  endfacet
  facet normal -0.55557 0.83147 0
    outer loop
      vertex -3.4676 43.4676 1
      vertex -1.87665 44.5306 -37.8255
      vertex -3.4676 43.4676 -37.8255
    endloop
  endfacet
  facet normal -0.195091 0.980785 0
    outer loop
      vertex 0 44.9039 -37.8255
      vertex -1.87665 44.5306 1
      vertex 0 44.9039 1
    endloop
  endfacet
  facet normal -0.195091 0.980785 0
    outer loop
      vertex -1.87665 44.5306 1
      vertex 0 44.9039 -37.8255
      vertex -1.87665 44.5306 -37.8255
    endloop
  endfacet
  facet normal -0.831469 0.555571 0
    outer loop
      vertex -4.53064 41.8767 -37.8255
      vertex -3.4676 43.4676 1
      vertex -3.4676 43.4676 -37.8255
    endloop
  endfacet
  facet normal -0.831469 0.555571 0
    outer loop
      vertex -3.4676 43.4676 1
      vertex -4.53064 41.8767 -37.8255
      vertex -4.53064 41.8767 1
    endloop
  endfacet
  facet normal -0.908663 0.180744 -0.376381
    outer loop
      vertex -4.15735 40 -39.6278
      vertex -4.53064 41.8767 -37.8255
      vertex -3.84089 41.591 -39.6278
    endloop
  endfacet
  facet normal -0.514716 0.770328 -0.37638
    outer loop
      vertex -1.59095 43.8409 -39.6278
      vertex -2.93969 42.9397 -39.6278
      vertex -1.87665 44.5306 -37.8255
    endloop
  endfacet
  facet normal 0.770325 0.514721 -0.37638
    outer loop
      vertex 157.831 41.8767 -37.8255
      vertex 156.24 42.9397 -39.6278
      vertex 156.768 43.4676 -37.8255
    endloop
  endfacet
  facet normal -0.216147 0.323488 -0.921214
    outer loop
      vertex -0.373289 40.9012 -41.7539
      vertex -1.96424 41.9642 -41.0073
      vertex -1.06304 42.5664 -41.0073
    endloop
  endfacet
  facet normal -0.396639 0.593613 -0.700215
    outer loop
      vertex -1.06304 42.5664 -41.0073
      vertex -1.96424 41.9642 -41.0073
      vertex -1.59095 43.8409 -39.6278
    endloop
  endfacet
  facet normal -0.55557 -0.83147 0
    outer loop
      vertex -3.4676 -3.4676 -37.8255
      vertex -1.87665 -4.53064 1
      vertex -3.4676 -3.4676 1
    endloop
  endfacet
  facet normal -0.55557 -0.83147 -0
    outer loop
      vertex -1.87665 -4.53064 1
      vertex -3.4676 -3.4676 -37.8255
      vertex -1.87665 -4.53064 -37.8255
    endloop
  endfacet
  facet normal -0.707107 0 -0.707107
    outer loop
      vertex -2.77785 0 -41.0073
      vertex -4.15735 40 -39.6278
      vertex -2.77785 40 -41.0073
    endloop
  endfacet
  facet normal -0.707107 -0 -0.707107
    outer loop
      vertex -4.15735 40 -39.6278
      vertex -2.77785 0 -41.0073
      vertex -4.15735 0 -39.6278
    endloop
  endfacet
  facet normal -0.700215 -0.139282 -0.700214
    outer loop
      vertex -3.84089 -1.59095 -39.6278
      vertex -4.15735 0 -39.6278
      vertex -2.77785 0 -41.0073
    endloop
  endfacet
  facet normal -0.39664 -0.593613 -0.700214
    outer loop
      vertex -1.59095 -3.84089 -39.6278
      vertex -1.96424 -1.96424 -41.0073
      vertex -1.06304 -2.5664 -41.0073
    endloop
  endfacet
  facet normal -0.216147 -0.323488 -0.921214
    outer loop
      vertex -1.06304 -2.5664 -41.0073
      vertex -1.96424 -1.96424 -41.0073
      vertex -0.373289 -0.901199 -41.7539
    endloop
  endfacet
  facet normal -0.700215 -0.139282 -0.700214
    outer loop
      vertex -2.5664 -1.06304 -41.0073
      vertex -3.84089 -1.59095 -39.6278
      vertex -2.77785 0 -41.0073
    endloop
  endfacet
  facet normal -0.381579 -0.075901 -0.921214
    outer loop
      vertex -2.5664 -1.06304 -41.0073
      vertex -2.77785 0 -41.0073
      vertex -0.975451 0 -41.7539
    endloop
  endfacet
  facet normal 0.216151 0.323484 -0.921215
    outer loop
      vertex 153.99 40.6897 -41.7539
      vertex 153.673 40.9012 -41.7539
      vertex 155.264 41.9642 -41.0073
    endloop
  endfacet
  facet normal 0.514717 0.770327 -0.376381
    outer loop
      vertex 156.24 42.9397 -39.6278
      vertex 154.891 43.8409 -39.6278
      vertex 155.177 44.5306 -37.8255
    endloop
  endfacet
  facet normal 0.980787 0.195084 0
    outer loop
      vertex 158.204 40 1
      vertex 157.831 41.8767 -37.8255
      vertex 157.831 41.8767 1
    endloop
  endfacet
  facet normal 0.980787 0.195084 0
    outer loop
      vertex 157.831 41.8767 -37.8255
      vertex 158.204 40 1
      vertex 158.204 40 -37.8255
    endloop
  endfacet
  facet normal 0.908666 0.180738 -0.376376
    outer loop
      vertex 158.204 40 -37.8255
      vertex 157.457 40 -39.6278
      vertex 157.831 41.8767 -37.8255
    endloop
  endfacet
  facet normal 0.700213 0.139284 -0.700215
    outer loop
      vertex 156.078 40 -41.0073
      vertex 155.866 41.063 -41.0073
      vertex 157.141 41.591 -39.6278
    endloop
  endfacet
  facet normal 0.38158 0.0759027 -0.921214
    outer loop
      vertex 156.078 40 -41.0073
      vertex 154.275 40 -41.7539
      vertex 155.866 41.063 -41.0073
    endloop
  endfacet
  facet normal 0 -0.382683 -0.92388
    outer loop
      vertex 0 -2.77785 -41.0073
      vertex 153.3 -0.975451 -41.7539
      vertex 153.3 -2.77785 -41.0073
    endloop
  endfacet
  facet normal -0 -0.382683 -0.92388
    outer loop
      vertex 153.3 -0.975451 -41.7539
      vertex 0 -2.77785 -41.0073
      vertex 0 -0.975451 -41.7539
    endloop
  endfacet
  facet normal -0.180745 0.908663 -0.376381
    outer loop
      vertex 0 44.1573 -39.6278
      vertex -1.87665 44.5306 -37.8255
      vertex 0 44.9039 -37.8255
    endloop
  endfacet
  facet normal -0.180745 0.908664 -0.37638
    outer loop
      vertex -1.59095 43.8409 -39.6278
      vertex -1.87665 44.5306 -37.8255
      vertex 0 44.1573 -39.6278
    endloop
  endfacet
  facet normal -0.700215 0.139281 -0.700214
    outer loop
      vertex -2.77785 40 -41.0073
      vertex -4.15735 40 -39.6278
      vertex -3.84089 41.591 -39.6278
    endloop
  endfacet
  facet normal -0.593613 0.39664 -0.700214
    outer loop
      vertex -2.5664 41.063 -41.0073
      vertex -3.84089 41.591 -39.6278
      vertex -1.96424 41.9642 -41.0073
    endloop
  endfacet
  facet normal -0.0759014 0.38158 -0.921214
    outer loop
      vertex 0 40.9755 -41.7539
      vertex -1.06304 42.5664 -41.0073
      vertex 0 42.7779 -41.0073
    endloop
  endfacet
  facet normal -0.0759021 0.381579 -0.921215
    outer loop
      vertex -0.373289 40.9012 -41.7539
      vertex -1.06304 42.5664 -41.0073
      vertex 0 40.9755 -41.7539
    endloop
  endfacet
  facet normal -0.770328 -0.514717 -0.376381
    outer loop
      vertex -3.4676 -3.4676 -37.8255
      vertex -4.53064 -1.87665 -37.8255
      vertex -2.93969 -2.93969 -39.6278
    endloop
  endfacet
  facet normal -0.83147 -0.55557 0
    outer loop
      vertex -3.4676 -3.4676 -37.8255
      vertex -4.53064 -1.87665 1
      vertex -4.53064 -1.87665 -37.8255
    endloop
  endfacet
  facet normal -0.83147 -0.55557 0
    outer loop
      vertex -4.53064 -1.87665 1
      vertex -3.4676 -3.4676 -37.8255
      vertex -3.4676 -3.4676 1
    endloop
  endfacet
  facet normal -0.323487 -0.216148 -0.921215
    outer loop
      vertex -0.689748 -0.689748 -41.7539
      vertex -1.96424 -1.96424 -41.0073
      vertex -0.901199 -0.373289 -41.7539
    endloop
  endfacet
  facet normal -0.323488 -0.216147 -0.921214
    outer loop
      vertex -1.96424 -1.96424 -41.0073
      vertex -2.5664 -1.06304 -41.0073
      vertex -0.901199 -0.373289 -41.7539
    endloop
  endfacet
  facet normal 0.831466 0.555575 0
    outer loop
      vertex 157.831 41.8767 1
      vertex 156.768 43.4676 -37.8255
      vertex 156.768 43.4676 1
    endloop
  endfacet
  facet normal 0.831466 0.555575 0
    outer loop
      vertex 156.768 43.4676 -37.8255
      vertex 157.831 41.8767 1
      vertex 157.831 41.8767 -37.8255
    endloop
  endfacet
  facet normal 0.514718 0.770327 -0.37638
    outer loop
      vertex 156.24 42.9397 -39.6278
      vertex 155.177 44.5306 -37.8255
      vertex 156.768 43.4676 -37.8255
    endloop
  endfacet
  facet normal 0.39664 -0.593614 -0.700214
    outer loop
      vertex 154.891 -3.84089 -39.6278
      vertex 154.363 -2.5664 -41.0073
      vertex 155.264 -1.96424 -41.0073
    endloop
  endfacet
  facet normal 0.0759012 -0.381579 -0.921214
    outer loop
      vertex 154.363 -2.5664 -41.0073
      vertex 153.3 -2.77785 -41.0073
      vertex 153.3 -0.975451 -41.7539
    endloop
  endfacet
  facet normal -0.514717 0.770328 -0.37638
    outer loop
      vertex -2.93969 42.9397 -39.6278
      vertex -3.4676 43.4676 -37.8255
      vertex -1.87665 44.5306 -37.8255
    endloop
  endfacet
  facet normal -0.770327 0.514717 -0.37638
    outer loop
      vertex -2.93969 42.9397 -39.6278
      vertex -4.53064 41.8767 -37.8255
      vertex -3.4676 43.4676 -37.8255
    endloop
  endfacet
  facet normal 0.593614 0.39664 -0.700214
    outer loop
      vertex 157.141 41.591 -39.6278
      vertex 155.264 41.9642 -41.0073
      vertex 156.24 42.9397 -39.6278
    endloop
  endfacet
  facet normal 0.39664 0.593613 -0.700214
    outer loop
      vertex 155.264 41.9642 -41.0073
      vertex 154.891 43.8409 -39.6278
      vertex 156.24 42.9397 -39.6278
    endloop
  endfacet
  facet normal 0.908661 0.180748 -0.376385
    outer loop
      vertex 157.457 40 -39.6278
      vertex 157.141 41.591 -39.6278
      vertex 157.831 41.8767 -37.8255
    endloop
  endfacet
  facet normal 0.770326 0.514716 -0.376384
    outer loop
      vertex 157.141 41.591 -39.6278
      vertex 156.24 42.9397 -39.6278
      vertex 157.831 41.8767 -37.8255
    endloop
  endfacet
  facet normal 0.514716 -0.770327 -0.376382
    outer loop
      vertex 155.177 -4.53064 -37.8255
      vertex 154.891 -3.84089 -39.6278
      vertex 156.24 -2.93969 -39.6278
    endloop
  endfacet
  facet normal 0.180745 -0.908663 -0.376381
    outer loop
      vertex 155.177 -4.53064 -37.8255
      vertex 153.3 -4.15735 -39.6278
      vertex 154.891 -3.84089 -39.6278
    endloop
  endfacet
  facet normal -0.39664 0.593613 -0.700214
    outer loop
      vertex -1.96424 41.9642 -41.0073
      vertex -2.93969 42.9397 -39.6278
      vertex -1.59095 43.8409 -39.6278
    endloop
  endfacet
  facet normal -0.593613 0.39664 -0.700214
    outer loop
      vertex -1.96424 41.9642 -41.0073
      vertex -3.84089 41.591 -39.6278
      vertex -2.93969 42.9397 -39.6278
    endloop
  endfacet
  facet normal 0 0 1
    outer loop
      vertex 2.27 0 1
      vertex 0 0 1
      vertex 2.27 -3.475 1
    endloop
  endfacet
  facet normal -0 0 1
    outer loop
      vertex 2.27 -3.475 1
      vertex 3.86607 -4.90393 1
      vertex 3.86607 -3.475 1
    endloop
  endfacet
  facet normal 0 0 1
    outer loop
      vertex 2.27 -3.475 1
      vertex 0 -4.90393 1
      vertex 3.86607 -4.90393 1
    endloop
  endfacet
  facet normal 0 0 1
    outer loop
      vertex 0 -4.90393 1
      vertex 2.27 -3.475 1
      vertex 0 0 1
    endloop
  endfacet
  facet normal -0 0 1
    outer loop
      vertex -1.28125 15.125 1
      vertex 0 12.5 1
      vertex -1.28125 24.875 1
    endloop
  endfacet
  facet normal 0 0 1
    outer loop
      vertex -1.1875 29.75 1
      vertex -3.71875 24.875 1
      vertex -1.28125 24.875 1
    endloop
  endfacet
  facet normal 0 0 1
    outer loop
      vertex -3.71875 24.875 1
      vertex -3.8125 29.75 1
      vertex -3.71875 15.125 1
    endloop
  endfacet
  facet normal -0 0 1
    outer loop
      vertex -3.8125 29.75 1
      vertex -3.71875 24.875 1
      vertex -1.1875 29.75 1
    endloop
  endfacet
  facet normal -0 0 1
    outer loop
      vertex 0 44.9039 1
      vertex 3.86607 42.025 1
      vertex 3.86607 44.9039 1
    endloop
  endfacet
  facet normal 0 0 1
    outer loop
      vertex 0 44.9039 1
      vertex 0 42.025 1
      vertex 3.86607 42.025 1
    endloop
  endfacet
  facet normal -0 0 1
    outer loop
      vertex -1.87665 44.5306 1
      vertex 0 42.025 1
      vertex 0 44.9039 1
    endloop
  endfacet
  facet normal 0 0 1
    outer loop
      vertex 0 42.025 1
      vertex -1.1875 29.75 1
      vertex 0 12.5 1
    endloop
  endfacet
  facet normal -0 0 1
    outer loop
      vertex -1.28125 24.875 1
      vertex 0 12.5 1
      vertex -1.1875 29.75 1
    endloop
  endfacet
  facet normal 0 0 1
    outer loop
      vertex 0 12.5 1
      vertex -1.1875 10.25 1
      vertex 0 10.5 1
    endloop
  endfacet
  facet normal 0 0 1
    outer loop
      vertex 0 42.025 1
      vertex -1.1875 40.25 1
      vertex -1.1875 29.75 1
    endloop
  endfacet
  facet normal -0 0 1
    outer loop
      vertex -3.4676 43.4676 1
      vertex 0 42.025 1
      vertex -1.87665 44.5306 1
    endloop
  endfacet
  facet normal 0 0 1
    outer loop
      vertex 0 42.025 1
      vertex -3.4676 43.4676 1
      vertex -1.1875 40.25 1
    endloop
  endfacet
  facet normal 0 0 1
    outer loop
      vertex -3.4676 43.4676 1
      vertex -3.8125 40.25 1
      vertex -1.1875 40.25 1
    endloop
  endfacet
  facet normal -0 0 1
    outer loop
      vertex -4.90393 40 1
      vertex -3.8125 29.75 1
      vertex -3.8125 40.25 1
    endloop
  endfacet
  facet normal 0 0 1
    outer loop
      vertex -3.8125 29.75 1
      vertex -4.90393 40 1
      vertex -3.8125 10.25 1
    endloop
  endfacet
  facet normal 0 0 1
    outer loop
      vertex -4.90393 40 1
      vertex -3.8125 40.25 1
      vertex -4.53064 41.8767 1
    endloop
  endfacet
  facet normal -0 0 1
    outer loop
      vertex -4.53064 41.8767 1
      vertex -3.8125 40.25 1
      vertex -3.4676 43.4676 1
    endloop
  endfacet
  facet normal -0 0 1
    outer loop
      vertex 0 12.5 1
      vertex 2 10.5 1
      vertex 2 12.5 1
    endloop
  endfacet
  facet normal 0 0 1
    outer loop
      vertex 2 10.5 1
      vertex 0 12.5 1
      vertex 0 10.5 1
    endloop
  endfacet
  facet normal 0 0 1
    outer loop
      vertex 0 10.5 1
      vertex -1.1875 10.25 1
      vertex 0 0 1
    endloop
  endfacet
  facet normal 0 0 1
    outer loop
      vertex -1.1875 -0.25 1
      vertex 0 0 1
      vertex -1.1875 10.25 1
    endloop
  endfacet
  facet normal 0 0 1
    outer loop
      vertex 0 0 1
      vertex -1.1875 -0.25 1
      vertex 0 -4.90393 1
    endloop
  endfacet
  facet normal 0 0 1
    outer loop
      vertex -1.1875 -0.25 1
      vertex -1.87665 -4.53064 1
      vertex 0 -4.90393 1
    endloop
  endfacet
  facet normal 0 0 1
    outer loop
      vertex -1.1875 -0.25 1
      vertex -3.4676 -3.4676 1
      vertex -1.87665 -4.53064 1
    endloop
  endfacet
  facet normal -0 0 1
    outer loop
      vertex -3.8125 -0.25 1
      vertex -3.4676 -3.4676 1
      vertex -1.1875 -0.25 1
    endloop
  endfacet
  facet normal 0 0 1
    outer loop
      vertex -3.8125 -0.25 1
      vertex -4.53064 -1.87665 1
      vertex -3.4676 -3.4676 1
    endloop
  endfacet
  facet normal 0 0 1
    outer loop
      vertex -4.90393 0 1
      vertex -3.8125 10.25 1
      vertex -4.90393 40 1
    endloop
  endfacet
  facet normal 0 0 1
    outer loop
      vertex -3.8125 10.25 1
      vertex -4.90393 0 1
      vertex -3.8125 -0.25 1
    endloop
  endfacet
  facet normal 0 0 1
    outer loop
      vertex -3.8125 -0.25 1
      vertex -4.90393 0 1
      vertex -4.53064 -1.87665 1
    endloop
  endfacet
  facet normal -0 0 1
    outer loop
      vertex -3.71875 15.125 1
      vertex 0 12.5 1
      vertex -1.28125 15.125 1
    endloop
  endfacet
  facet normal 0 0 1
    outer loop
      vertex -3.8125 10.25 1
      vertex 0 12.5 1
      vertex -3.71875 15.125 1
    endloop
  endfacet
  facet normal 0 0 1
    outer loop
      vertex 0 12.5 1
      vertex -3.8125 10.25 1
      vertex -1.1875 10.25 1
    endloop
  endfacet
  facet normal 0 0 1
    outer loop
      vertex -3.8125 10.25 1
      vertex -3.71875 15.125 1
      vertex -3.8125 29.75 1
    endloop
  endfacet
  facet normal -0 0 1
    outer loop
      vertex 151.3 12.5 1
      vertex 153.3 10.5 1
      vertex 153.3 12.5 1
    endloop
  endfacet
  facet normal 0 0 1
    outer loop
      vertex 153.3 10.5 1
      vertex 151.3 12.5 1
      vertex 151.3 10.5 1
    endloop
  endfacet
  facet normal -0 0 1
    outer loop
      vertex 149.434 44.9039 1
      vertex 153.3 42.025 1
      vertex 153.3 44.9039 1
    endloop
  endfacet
  facet normal 0 0 1
    outer loop
      vertex 153.3 42.025 1
      vertex 149.434 44.9039 1
      vertex 149.434 42.025 1
    endloop
  endfacet
  facet normal -0 0 1
    outer loop
      vertex 153.3 12.5 1
      vertex 157.019 9.875 1
      vertex 157.113 14.75 1
    endloop
  endfacet
  facet normal 0 0 1
    outer loop
      vertex 157.019 9.875 1
      vertex 153.3 12.5 1
      vertex 154.581 9.875 1
    endloop
  endfacet
  facet normal 0 0 1
    outer loop
      vertex 153.3 12.5 1
      vertex 157.113 14.75 1
      vertex 154.488 14.75 1
    endloop
  endfacet
  facet normal 0 0 1
    outer loop
      vertex 157.019 39.875 1
      vertex 158.204 40 1
      vertex 157.831 41.8767 1
    endloop
  endfacet
  facet normal 0 0 1
    outer loop
      vertex 158.204 40 1
      vertex 157.113 25.25 1
      vertex 158.204 0 1
    endloop
  endfacet
  facet normal -0 0 1
    outer loop
      vertex 157.113 14.75 1
      vertex 158.204 0 1
      vertex 157.113 25.25 1
    endloop
  endfacet
  facet normal 0 0 1
    outer loop
      vertex 158.204 40 1
      vertex 157.019 39.875 1
      vertex 157.019 30.125 1
    endloop
  endfacet
  facet normal 0 0 1
    outer loop
      vertex 154.581 39.875 1
      vertex 157.831 41.8767 1
      vertex 156.768 43.4676 1
    endloop
  endfacet
  facet normal 0 0 1
    outer loop
      vertex 153.3 42.025 1
      vertex 156.768 43.4676 1
      vertex 155.177 44.5306 1
    endloop
  endfacet
  facet normal 0 -0 1
    outer loop
      vertex 154.581 39.875 1
      vertex 156.768 43.4676 1
      vertex 153.3 42.025 1
    endloop
  endfacet
  facet normal 0 0 1
    outer loop
      vertex 153.3 42.025 1
      vertex 154.581 30.125 1
      vertex 154.581 39.875 1
    endloop
  endfacet
  facet normal 0 0 1
    outer loop
      vertex 154.581 30.125 1
      vertex 153.3 42.025 1
      vertex 154.488 25.25 1
    endloop
  endfacet
  facet normal 0 0 1
    outer loop
      vertex 157.831 41.8767 1
      vertex 154.581 39.875 1
      vertex 157.019 39.875 1
    endloop
  endfacet
  facet normal 0 0 1
    outer loop
      vertex 153.3 42.025 1
      vertex 155.177 44.5306 1
      vertex 153.3 44.9039 1
    endloop
  endfacet
  facet normal -0 0 1
    outer loop
      vertex 157.019 9.875 1
      vertex 158.204 0 1
      vertex 157.113 14.75 1
    endloop
  endfacet
  facet normal -0 0 1
    outer loop
      vertex 157.019 0.125 1
      vertex 158.204 0 1
      vertex 157.019 9.875 1
    endloop
  endfacet
  facet normal 0 0 1
    outer loop
      vertex 158.204 0 1
      vertex 157.019 0.125 1
      vertex 157.831 -1.87665 1
    endloop
  endfacet
  facet normal -0 0 1
    outer loop
      vertex 154.581 0.125 1
      vertex 157.831 -1.87665 1
      vertex 157.019 0.125 1
    endloop
  endfacet
  facet normal 0 0 1
    outer loop
      vertex 157.831 -1.87665 1
      vertex 154.581 0.125 1
      vertex 156.768 -3.4676 1
    endloop
  endfacet
  facet normal 0 0 1
    outer loop
      vertex 156.768 -3.4676 1
      vertex 154.581 0.125 1
      vertex 155.177 -4.53064 1
    endloop
  endfacet
  facet normal 0 0 1
    outer loop
      vertex 153.3 12.5 1
      vertex 154.488 25.25 1
      vertex 153.3 42.025 1
    endloop
  endfacet
  facet normal 0 0 1
    outer loop
      vertex 154.488 25.25 1
      vertex 153.3 12.5 1
      vertex 154.488 14.75 1
    endloop
  endfacet
  facet normal 0 0 1
    outer loop
      vertex 154.581 9.875 1
      vertex 153.3 12.5 1
      vertex 153.3 10.5 1
    endloop
  endfacet
  facet normal 0 0 1
    outer loop
      vertex 153.3 0 1
      vertex 154.581 9.875 1
      vertex 153.3 10.5 1
    endloop
  endfacet
  facet normal 0 0 1
    outer loop
      vertex 154.581 9.875 1
      vertex 153.3 0 1
      vertex 154.581 0.125 1
    endloop
  endfacet
  facet normal -0 0 1
    outer loop
      vertex 153.3 0 1
      vertex 155.177 -4.53064 1
      vertex 154.581 0.125 1
    endloop
  endfacet
  facet normal 0 0 1
    outer loop
      vertex 153.3 0 1
      vertex 153.3 -4.90393 1
      vertex 155.177 -4.53064 1
    endloop
  endfacet
  facet normal 0 0 1
    outer loop
      vertex 151.03 -3.475 1
      vertex 153.3 0 1
      vertex 151.03 0 1
    endloop
  endfacet
  facet normal 0 0 1
    outer loop
      vertex 153.3 0 1
      vertex 151.03 -3.475 1
      vertex 153.3 -4.90393 1
    endloop
  endfacet
  facet normal 0 0 1
    outer loop
      vertex 149.434 -4.90393 1
      vertex 151.03 -3.475 1
      vertex 149.434 -3.475 1
    endloop
  endfacet
  facet normal 0 0 1
    outer loop
      vertex 151.03 -3.475 1
      vertex 149.434 -4.90393 1
      vertex 153.3 -4.90393 1
    endloop
  endfacet
  facet normal 0 0 1
    outer loop
      vertex 158.204 40 1
      vertex 157.019 30.125 1
      vertex 157.113 25.25 1
    endloop
  endfacet
  facet normal -0 0 1
    outer loop
      vertex 154.581 30.125 1
      vertex 157.113 25.25 1
      vertex 157.019 30.125 1
    endloop
  endfacet
  facet normal 0 0 1
    outer loop
      vertex 157.113 25.25 1
      vertex 154.581 30.125 1
      vertex 154.488 25.25 1
    endloop
  endfacet
  facet normal -0.998053 0 0.0623783
    outer loop
      vertex -3.71875 24.875 1
      vertex -3.5 16 4.5
      vertex -3.5 24 4.5
    endloop
  endfacet
  facet normal -0.998053 0 0.0623783
    outer loop
      vertex -3.5 16 4.5
      vertex -3.71875 24.875 1
      vertex -3.71875 15.125 1
    endloop
  endfacet
  facet normal 0.998053 -0 0.0623783
    outer loop
      vertex -1.5 16 4.5
      vertex -1.28125 24.875 1
      vertex -1.5 24 4.5
    endloop
  endfacet
  facet normal 0.998053 0 0.0623783
    outer loop
      vertex -1.28125 24.875 1
      vertex -1.5 16 4.5
      vertex -1.28125 15.125 1
    endloop
  endfacet
  facet normal 0 0.970143 0.242536
    outer loop
      vertex -1.28125 24.875 1
      vertex -3.5 24 4.5
      vertex -1.5 24 4.5
    endloop
  endfacet
  facet normal 0 0.970143 0.242536
    outer loop
      vertex -3.5 24 4.5
      vertex -1.28125 24.875 1
      vertex -3.71875 24.875 1
    endloop
  endfacet
  facet normal 0 -0.970143 0.242536
    outer loop
      vertex -3.71875 15.125 1
      vertex -1.5 16 4.5
      vertex -3.5 16 4.5
    endloop
  endfacet
  facet normal 0 -0.970143 0.242536
    outer loop
      vertex -1.5 16 4.5
      vertex -3.71875 15.125 1
      vertex -1.28125 15.125 1
    endloop
  endfacet
  facet normal -0 0 1
    outer loop
      vertex -3.5 24 4.5
      vertex -1.5 16 4.5
      vertex -1.5 24 4.5
    endloop
  endfacet
  facet normal 0 0 1
    outer loop
      vertex -1.5 16 4.5
      vertex -3.5 24 4.5
      vertex -3.5 16 4.5
    endloop
  endfacet
  facet normal -0.998053 0 0.0623783
    outer loop
      vertex 154.581 9.875 1
      vertex 154.8 1 4.5
      vertex 154.8 9 4.5
    endloop
  endfacet
  facet normal -0.998053 0 0.0623783
    outer loop
      vertex 154.8 1 4.5
      vertex 154.581 9.875 1
      vertex 154.581 0.125 1
    endloop
  endfacet
  facet normal 0.998053 -0 0.0623783
    outer loop
      vertex 156.8 1 4.5
      vertex 157.019 9.875 1
      vertex 156.8 9 4.5
    endloop
  endfacet
  facet normal 0.998053 0 0.0623783
    outer loop
      vertex 157.019 9.875 1
      vertex 156.8 1 4.5
      vertex 157.019 0.125 1
    endloop
  endfacet
  facet normal 0 0.970143 0.242536
    outer loop
      vertex 157.019 9.875 1
      vertex 154.8 9 4.5
      vertex 156.8 9 4.5
    endloop
  endfacet
  facet normal 0 0.970143 0.242536
    outer loop
      vertex 154.8 9 4.5
      vertex 157.019 9.875 1
      vertex 154.581 9.875 1
    endloop
  endfacet
  facet normal 0 -0.970143 0.242536
    outer loop
      vertex 154.581 0.125 1
      vertex 156.8 1 4.5
      vertex 154.8 1 4.5
    endloop
  endfacet
  facet normal 0 -0.970143 0.242536
    outer loop
      vertex 156.8 1 4.5
      vertex 154.581 0.125 1
      vertex 157.019 0.125 1
    endloop
  endfacet
  facet normal -0 0 1
    outer loop
      vertex 154.8 9 4.5
      vertex 156.8 1 4.5
      vertex 156.8 9 4.5
    endloop
  endfacet
  facet normal 0 0 1
    outer loop
      vertex 156.8 1 4.5
      vertex 154.8 9 4.5
      vertex 154.8 1 4.5
    endloop
  endfacet
  facet normal -0.998053 0 0.0623783
    outer loop
      vertex 154.581 39.875 1
      vertex 154.8 31 4.5
      vertex 154.8 39 4.5
    endloop
  endfacet
  facet normal -0.998053 0 0.0623783
    outer loop
      vertex 154.8 31 4.5
      vertex 154.581 39.875 1
      vertex 154.581 30.125 1
    endloop
  endfacet
  facet normal 0.998053 -0 0.0623783
    outer loop
      vertex 156.8 31 4.5
      vertex 157.019 39.875 1
      vertex 156.8 39 4.5
    endloop
  endfacet
  facet normal 0.998053 0 0.0623783
    outer loop
      vertex 157.019 39.875 1
      vertex 156.8 31 4.5
      vertex 157.019 30.125 1
    endloop
  endfacet
  facet normal -0 0 1
    outer loop
      vertex 154.8 39 4.5
      vertex 156.8 31 4.5
      vertex 156.8 39 4.5
    endloop
  endfacet
  facet normal 0 0 1
    outer loop
      vertex 156.8 31 4.5
      vertex 154.8 39 4.5
      vertex 154.8 31 4.5
    endloop
  endfacet
  facet normal 0 0.970143 0.242536
    outer loop
      vertex 157.019 39.875 1
      vertex 154.8 39 4.5
      vertex 156.8 39 4.5
    endloop
  endfacet
  facet normal 0 0.970143 0.242536
    outer loop
      vertex 154.8 39 4.5
      vertex 157.019 39.875 1
      vertex 154.581 39.875 1
    endloop
  endfacet
  facet normal 0 -0.970143 0.242536
    outer loop
      vertex 154.581 30.125 1
      vertex 156.8 31 4.5
      vertex 154.8 31 4.5
    endloop
  endfacet
  facet normal 0 -0.970143 0.242536
    outer loop
      vertex 156.8 31 4.5
      vertex 154.581 30.125 1
      vertex 157.019 30.125 1
    endloop
  endfacet
  facet normal 0.997854 0 0.0654843
    outer loop
      vertex -3.55 9.2 -3
      vertex -3.8125 10.25 1
      vertex -3.8125 -0.25 1
    endloop
  endfacet
  facet normal -0.997854 0 0.0654841
    outer loop
      vertex -1.1875 -0.25 1
      vertex -1.1875 10.25 1
      vertex -1.45 9.2 -3
    endloop
  endfacet
  facet normal -0.997854 7.43458e-09 0.0654841
    outer loop
      vertex -1.1875 -0.25 1
      vertex -1.45 9.2 -3
      vertex -1.45 0.799999 -3
    endloop
  endfacet
  facet normal 0 0.967231 0.253898
    outer loop
      vertex -1.45 0.799999 -3
      vertex -3.8125 -0.25 1
      vertex -1.1875 -0.25 1
    endloop
  endfacet
  facet normal 0 0.967231 0.253898
    outer loop
      vertex -3.8125 -0.25 1
      vertex -1.45 0.799999 -3
      vertex -3.55 0.799999 -3
    endloop
  endfacet
  facet normal 0 -0.967231 0.253898
    outer loop
      vertex -3.55 9.2 -3
      vertex -1.1875 10.25 1
      vertex -3.8125 10.25 1
    endloop
  endfacet
  facet normal 0 -0.967231 0.253898
    outer loop
      vertex -1.1875 10.25 1
      vertex -3.55 9.2 -3
      vertex -1.45 9.2 -3
    endloop
  endfacet
  facet normal -0 1.13533e-07 1
    outer loop
      vertex -3.55 9.2 -3
      vertex -1.45 0.799999 -3
      vertex -1.45 9.2 -3
    endloop
  endfacet
  facet normal 0 1.13533e-07 1
    outer loop
      vertex -1.45 0.799999 -3
      vertex -3.55 9.2 -3
      vertex -3.55 0.799999 -3
    endloop
  endfacet
  facet normal 0.997854 7.43461e-09 0.0654844
    outer loop
      vertex -3.55 0.799999 -3
      vertex -3.55 9.2 -3
      vertex -3.8125 -0.25 1
    endloop
  endfacet
  facet normal 0.997854 0 0.0654834
    outer loop
      vertex 154.75 24.2 -3
      vertex 154.488 25.25 1
      vertex 154.488 14.75 1
    endloop
  endfacet
  facet normal -0.997854 0 0.0654834
    outer loop
      vertex 157.113 14.75 1
      vertex 157.113 25.25 1
      vertex 156.85 24.2 -3
    endloop
  endfacet
  facet normal -0.997854 7.4345e-09 0.0654834
    outer loop
      vertex 157.113 14.75 1
      vertex 156.85 24.2 -3
      vertex 156.85 15.8 -3
    endloop
  endfacet
  facet normal 0 0.967231 0.253898
    outer loop
      vertex 156.85 15.8 -3
      vertex 154.488 14.75 1
      vertex 157.113 14.75 1
    endloop
  endfacet
  facet normal 0 0.967231 0.253898
    outer loop
      vertex 154.488 14.75 1
      vertex 156.85 15.8 -3
      vertex 154.75 15.8 -3
    endloop
  endfacet
  facet normal 0 -0.967231 0.253898
    outer loop
      vertex 154.75 24.2 -3
      vertex 157.113 25.25 1
      vertex 154.488 25.25 1
    endloop
  endfacet
  facet normal 0 -0.967231 0.253898
    outer loop
      vertex 157.113 25.25 1
      vertex 154.75 24.2 -3
      vertex 156.85 24.2 -3
    endloop
  endfacet
  facet normal -0 1.13533e-07 1
    outer loop
      vertex 154.75 24.2 -3
      vertex 156.85 15.8 -3
      vertex 156.85 24.2 -3
    endloop
  endfacet
  facet normal 0 1.13533e-07 1
    outer loop
      vertex 156.85 15.8 -3
      vertex 154.75 24.2 -3
      vertex 154.75 15.8 -3
    endloop
  endfacet
  facet normal 0.997854 7.4345e-09 0.0654834
    outer loop
      vertex 154.75 15.8 -3
      vertex 154.75 24.2 -3
      vertex 154.488 14.75 1
    endloop
  endfacet
  facet normal 0.997854 0 0.0654843
    outer loop
      vertex -3.55 39.2 -3
      vertex -3.8125 40.25 1
      vertex -3.8125 29.75 1
    endloop
  endfacet
  facet normal -0.997854 0 0.0654841
    outer loop
      vertex -1.1875 29.75 1
      vertex -1.1875 40.25 1
      vertex -1.45 39.2 -3
    endloop
  endfacet
  facet normal -0.997854 7.43458e-09 0.0654841
    outer loop
      vertex -1.1875 29.75 1
      vertex -1.45 39.2 -3
      vertex -1.45 30.8 -3
    endloop
  endfacet
  facet normal 0 0.967231 0.253898
    outer loop
      vertex -1.45 30.8 -3
      vertex -3.8125 29.75 1
      vertex -1.1875 29.75 1
    endloop
  endfacet
  facet normal 0 0.967231 0.253898
    outer loop
      vertex -3.8125 29.75 1
      vertex -1.45 30.8 -3
      vertex -3.55 30.8 -3
    endloop
  endfacet
  facet normal 0 -0.967231 0.253898
    outer loop
      vertex -3.55 39.2 -3
      vertex -1.1875 40.25 1
      vertex -3.8125 40.25 1
    endloop
  endfacet
  facet normal 0 -0.967231 0.253898
    outer loop
      vertex -1.1875 40.25 1
      vertex -3.55 39.2 -3
      vertex -1.45 39.2 -3
    endloop
  endfacet
  facet normal -0 1.13533e-07 1
    outer loop
      vertex -3.55 39.2 -3
      vertex -1.45 30.8 -3
      vertex -1.45 39.2 -3
    endloop
  endfacet
  facet normal 0 1.13533e-07 1
    outer loop
      vertex -1.45 30.8 -3
      vertex -3.55 39.2 -3
      vertex -3.55 30.8 -3
    endloop
  endfacet
  facet normal 0.997854 7.43461e-09 0.0654844
    outer loop
      vertex -3.55 30.8 -3
      vertex -3.55 39.2 -3
      vertex -3.8125 29.75 1
    endloop
  endfacet
endsolid OpenSCAD_Model
